{
 "cells": [
  {
   "cell_type": "code",
   "execution_count": 1,
   "id": "a38a37fb-921b-4215-b574-6710fe6fd2a1",
   "metadata": {},
   "outputs": [],
   "source": [
    "import mido\n",
    "from pathlib import Path"
   ]
  },
  {
   "cell_type": "code",
   "execution_count": 2,
   "id": "50094c1c-29b2-4efa-b6d0-609f8a781bdb",
   "metadata": {},
   "outputs": [
    {
     "name": "stdout",
     "output_type": "stream",
     "text": [
      "[PosixPath('../assets/Bach_BWV849-01_001_20090916-SMD.mid'), PosixPath('../assets/Bach.french-suite_bwv812_no1_allemande.mm_1-end.s004.E1.mid'), PosixPath('../assets/MAPS_MUS-alb_se2_ENSTDkCl.mid'), PosixPath('../assets/The Day We Find Love.mid')]\n"
     ]
    }
   ],
   "source": [
    "midi_examples = list(Path('../assets').glob('*.mid'))\n",
    "print(midi_examples)"
   ]
  },
  {
   "cell_type": "markdown",
   "id": "d4dcff14-a392-4419-9371-eac833b1ed9c",
   "metadata": {},
   "source": [
    "## Load"
   ]
  },
  {
   "cell_type": "code",
   "execution_count": 3,
   "id": "a6a70f53-6458-406a-b0d3-0e3f65a8e28f",
   "metadata": {},
   "outputs": [],
   "source": [
    "select_idx = 3"
   ]
  },
  {
   "cell_type": "code",
   "execution_count": 4,
   "id": "2daf8641-df8f-4ec0-99ad-5eb63a8b8ab6",
   "metadata": {},
   "outputs": [
    {
     "name": "stdout",
     "output_type": "stream",
     "text": [
      "../assets/The Day We Find Love.mid\n"
     ]
    }
   ],
   "source": [
    "select_idx = 3\n",
    "midi_path = str(midi_examples[select_idx])\n",
    "print(midi_path)"
   ]
  },
  {
   "cell_type": "code",
   "execution_count": 5,
   "id": "c0c06115-046d-4109-b13c-be9387e5bab9",
   "metadata": {
    "tags": []
   },
   "outputs": [
    {
     "name": "stdout",
     "output_type": "stream",
     "text": [
      "MidiFile(type=1, ticks_per_beat=120, tracks=[\n",
      "  MidiTrack([\n",
      "    MetaMessage('track_name', name='The Day We Find Love -- Wp15b@ub.net.id', time=0),\n",
      "    MetaMessage('track_name', name='911', time=0),\n",
      "    MetaMessage('copyright', text='Copyright © 1997 by Belinda Hadiwidjaja', time=0),\n",
      "    MetaMessage('text', text='Belinda Hadiwidjaja', time=0),\n",
      "    MetaMessage('text', text='*********************************\\n', time=0),\n",
      "    MetaMessage('text', text='THE DAY WE FIND LOVE \\n', time=0),\n",
      "    MetaMessage('text', text='                 by:\\n', time=0),\n",
      "    MetaMessage('text', text='              9   1   1 \\n', time=0),\n",
      "    MetaMessage('text', text='**********************************\\n', time=0),\n",
      "    MetaMessage('text', text='Sequencer:\\n', time=0),\n",
      "    MetaMessage('text', text='Belinda Hadiwidjaja \\n', time=0),\n",
      "    MetaMessage('text', text='wp15b@ub.net.id\\n', time=0),\n",
      "    MetaMessage('text', text='Jakarta, Indonesia\\n', time=0),\n",
      "    MetaMessage('text', text='CakeWalk Pro Audio 5\\n', time=0),\n",
      "    MetaMessage('smpte_offset', frame_rate=25, hours=32, minutes=0, seconds=3, frames=0, sub_frames=0, time=0),\n",
      "    MetaMessage('time_signature', numerator=4, denominator=4, clocks_per_click=24, notated_32nd_notes_per_beat=8, time=0),\n",
      "    MetaMessage('key_signature', key='D', time=0),\n",
      "    MetaMessage('set_tempo', tempo=731707, time=0),\n",
      "    MetaMessage('marker', text='INTRO', time=0),\n",
      "    MetaMessage('marker', text='THEME1', time=4320),\n",
      "    MetaMessage('marker', text='REFREN 1', time=8160),\n",
      "    MetaMessage('marker', text='THEME 2', time=4800),\n",
      "    MetaMessage('marker', text='REFREN 2', time=8160),\n",
      "    MetaMessage('key_signature', key='E', time=4800),\n",
      "    MetaMessage('marker', text='BRIGDE', time=0),\n",
      "    MetaMessage('marker', text='ENDING', time=6240),\n",
      "    MetaMessage('set_tempo', tempo=740741, time=3264),\n",
      "    MetaMessage('set_tempo', tempo=750000, time=28),\n",
      "    MetaMessage('set_tempo', tempo=759494, time=28),\n",
      "    MetaMessage('set_tempo', tempo=769231, time=28),\n",
      "    MetaMessage('set_tempo', tempo=779221, time=28),\n",
      "    MetaMessage('set_tempo', tempo=789474, time=28),\n",
      "    MetaMessage('set_tempo', tempo=800000, time=28),\n",
      "    MetaMessage('set_tempo', tempo=810811, time=28),\n",
      "    MetaMessage('set_tempo', tempo=821918, time=28),\n",
      "    MetaMessage('set_tempo', tempo=833333, time=28),\n",
      "    MetaMessage('set_tempo', tempo=845070, time=28),\n",
      "    MetaMessage('set_tempo', tempo=857143, time=28),\n",
      "    MetaMessage('set_tempo', tempo=869565, time=28),\n",
      "    MetaMessage('set_tempo', tempo=882353, time=28),\n",
      "    MetaMessage('set_tempo', tempo=895522, time=28),\n",
      "    MetaMessage('set_tempo', tempo=909091, time=28),\n",
      "    MetaMessage('set_tempo', tempo=923077, time=28),\n",
      "    MetaMessage('set_tempo', tempo=937500, time=26),\n",
      "    MetaMessage('set_tempo', tempo=952381, time=28),\n",
      "    MetaMessage('set_tempo', tempo=967742, time=28),\n",
      "    MetaMessage('set_tempo', tempo=983607, time=28),\n",
      "    MetaMessage('set_tempo', tempo=1000000, time=28),\n",
      "    MetaMessage('set_tempo', tempo=1016949, time=28),\n",
      "    MetaMessage('set_tempo', tempo=1034483, time=28),\n",
      "    MetaMessage('set_tempo', tempo=1052632, time=28),\n",
      "    MetaMessage('set_tempo', tempo=1071429, time=28),\n",
      "    MetaMessage('set_tempo', tempo=1090909, time=28),\n",
      "    MetaMessage('set_tempo', tempo=1111111, time=28),\n",
      "    MetaMessage('set_tempo', tempo=1132075, time=28),\n",
      "    MetaMessage('set_tempo', tempo=1153846, time=28),\n",
      "    MetaMessage('set_tempo', tempo=1176471, time=28),\n",
      "    MetaMessage('set_tempo', tempo=1200000, time=28),\n",
      "    MetaMessage('set_tempo', tempo=1224490, time=28),\n",
      "    MetaMessage('set_tempo', tempo=1250000, time=26),\n",
      "    MetaMessage('end_of_track', time=0)]),\n",
      "  MidiTrack([\n",
      "    MetaMessage('midi_port', port=0, time=0),\n",
      "    MetaMessage('track_name', name='KLENTENGAN', time=0),\n",
      "    Message('program_change', channel=0, program=98, time=0),\n",
      "    Message('control_change', channel=0, control=7, value=100, time=0),\n",
      "    Message('control_change', channel=0, control=10, value=64, time=0),\n",
      "    Message('note_on', channel=0, note=61, velocity=90, time=720),\n",
      "    Message('note_on', channel=0, note=61, velocity=0, time=60),\n",
      "    Message('note_on', channel=0, note=62, velocity=90, time=6),\n",
      "    Message('note_on', channel=0, note=62, velocity=0, time=60),\n",
      "    Message('note_on', channel=0, note=69, velocity=90, time=0),\n",
      "    Message('note_on', channel=0, note=69, velocity=0, time=60),\n",
      "    Message('note_on', channel=0, note=61, velocity=90, time=0),\n",
      "    Message('note_on', channel=0, note=61, velocity=0, time=120),\n",
      "    Message('note_on', channel=0, note=62, velocity=90, time=0),\n",
      "    Message('note_on', channel=0, note=62, velocity=0, time=180),\n",
      "    Message('note_on', channel=0, note=61, velocity=90, time=0),\n",
      "    Message('note_on', channel=0, note=61, velocity=0, time=60),\n",
      "    Message('note_on', channel=0, note=62, velocity=90, time=0),\n",
      "    Message('note_on', channel=0, note=62, velocity=0, time=60),\n",
      "    Message('note_on', channel=0, note=69, velocity=90, time=0),\n",
      "    Message('note_on', channel=0, note=69, velocity=0, time=60),\n",
      "    Message('note_on', channel=0, note=57, velocity=90, time=0),\n",
      "    Message('note_on', channel=0, note=57, velocity=0, time=120),\n",
      "    Message('note_on', channel=0, note=59, velocity=90, time=0),\n",
      "    Message('note_on', channel=0, note=59, velocity=0, time=360),\n",
      "    Message('note_on', channel=0, note=61, velocity=90, time=774),\n",
      "    Message('note_on', channel=0, note=61, velocity=0, time=60),\n",
      "    Message('note_on', channel=0, note=62, velocity=90, time=6),\n",
      "    Message('note_on', channel=0, note=62, velocity=0, time=60),\n",
      "    Message('note_on', channel=0, note=69, velocity=90, time=0),\n",
      "    Message('note_on', channel=0, note=69, velocity=0, time=60),\n",
      "    Message('note_on', channel=0, note=61, velocity=90, time=0),\n",
      "    Message('note_on', channel=0, note=61, velocity=0, time=120),\n",
      "    Message('note_on', channel=0, note=62, velocity=90, time=0),\n",
      "    Message('note_on', channel=0, note=62, velocity=0, time=180),\n",
      "    Message('note_on', channel=0, note=61, velocity=90, time=0),\n",
      "    Message('note_on', channel=0, note=61, velocity=0, time=60),\n",
      "    Message('note_on', channel=0, note=62, velocity=90, time=0),\n",
      "    Message('note_on', channel=0, note=62, velocity=0, time=60),\n",
      "    Message('note_on', channel=0, note=69, velocity=90, time=0),\n",
      "    Message('note_on', channel=0, note=69, velocity=0, time=60),\n",
      "    Message('note_on', channel=0, note=57, velocity=90, time=0),\n",
      "    Message('note_on', channel=0, note=57, velocity=0, time=120),\n",
      "    Message('note_on', channel=0, note=59, velocity=90, time=0),\n",
      "    Message('note_on', channel=0, note=59, velocity=0, time=360),\n",
      "    Message('note_on', channel=0, note=61, velocity=90, time=8934),\n",
      "    Message('note_on', channel=0, note=61, velocity=0, time=60),\n",
      "    Message('note_on', channel=0, note=62, velocity=90, time=0),\n",
      "    Message('note_on', channel=0, note=62, velocity=0, time=60),\n",
      "    Message('note_on', channel=0, note=69, velocity=90, time=0),\n",
      "    Message('note_on', channel=0, note=69, velocity=0, time=60),\n",
      "    Message('note_on', channel=0, note=61, velocity=90, time=0),\n",
      "    Message('note_on', channel=0, note=61, velocity=0, time=60),\n",
      "    Message('note_on', channel=0, note=62, velocity=90, time=60),\n",
      "    Message('note_on', channel=0, note=62, velocity=0, time=60),\n",
      "    Message('note_on', channel=0, note=61, velocity=90, time=120),\n",
      "    Message('note_on', channel=0, note=61, velocity=0, time=60),\n",
      "    Message('note_on', channel=0, note=62, velocity=90, time=0),\n",
      "    Message('note_on', channel=0, note=62, velocity=0, time=60),\n",
      "    Message('note_on', channel=0, note=69, velocity=90, time=0),\n",
      "    Message('note_on', channel=0, note=69, velocity=0, time=60),\n",
      "    Message('note_on', channel=0, note=57, velocity=90, time=0),\n",
      "    Message('note_on', channel=0, note=57, velocity=0, time=120),\n",
      "    Message('note_on', channel=0, note=59, velocity=90, time=0),\n",
      "    Message('note_on', channel=0, note=59, velocity=0, time=180),\n",
      "    Message('note_on', channel=0, note=59, velocity=90, time=60),\n",
      "    Message('note_on', channel=0, note=59, velocity=0, time=60),\n",
      "    Message('note_on', channel=0, note=62, velocity=90, time=0),\n",
      "    Message('note_on', channel=0, note=62, velocity=0, time=60),\n",
      "    Message('note_on', channel=0, note=67, velocity=90, time=0),\n",
      "    Message('note_on', channel=0, note=67, velocity=0, time=120),\n",
      "    Message('note_on', channel=0, note=66, velocity=90, time=0),\n",
      "    Message('note_on', channel=0, note=66, velocity=0, time=120),\n",
      "    Message('note_on', channel=0, note=62, velocity=90, time=0),\n",
      "    Message('note_on', channel=0, note=62, velocity=0, time=60),\n",
      "    Message('note_on', channel=0, note=59, velocity=90, time=60),\n",
      "    Message('note_on', channel=0, note=59, velocity=0, time=60),\n",
      "    Message('note_on', channel=0, note=57, velocity=90, time=60),\n",
      "    Message('note_on', channel=0, note=57, velocity=0, time=120),\n",
      "    Message('note_on', channel=0, note=61, velocity=90, time=180),\n",
      "    Message('note_on', channel=0, note=61, velocity=0, time=60),\n",
      "    Message('note_on', channel=0, note=62, velocity=90, time=0),\n",
      "    Message('note_on', channel=0, note=62, velocity=0, time=60),\n",
      "    Message('note_on', channel=0, note=69, velocity=90, time=0),\n",
      "    Message('note_on', channel=0, note=69, velocity=0, time=60),\n",
      "    Message('note_on', channel=0, note=61, velocity=90, time=0),\n",
      "    Message('note_on', channel=0, note=61, velocity=0, time=120),\n",
      "    Message('note_on', channel=0, note=62, velocity=90, time=0),\n",
      "    Message('note_on', channel=0, note=62, velocity=0, time=120),\n",
      "    Message('note_on', channel=0, note=61, velocity=90, time=60),\n",
      "    Message('note_on', channel=0, note=61, velocity=0, time=60),\n",
      "    Message('note_on', channel=0, note=62, velocity=90, time=0),\n",
      "    Message('note_on', channel=0, note=62, velocity=0, time=60),\n",
      "    Message('note_on', channel=0, note=69, velocity=90, time=0),\n",
      "    Message('note_on', channel=0, note=69, velocity=0, time=60),\n",
      "    Message('note_on', channel=0, note=57, velocity=90, time=0),\n",
      "    Message('note_on', channel=0, note=57, velocity=0, time=120),\n",
      "    Message('note_on', channel=0, note=59, velocity=90, time=0),\n",
      "    Message('note_on', channel=0, note=59, velocity=0, time=240),\n",
      "    Message('note_on', channel=0, note=59, velocity=90, time=0),\n",
      "    Message('note_on', channel=0, note=59, velocity=0, time=60),\n",
      "    Message('note_on', channel=0, note=62, velocity=90, time=0),\n",
      "    Message('note_on', channel=0, note=62, velocity=0, time=60),\n",
      "    Message('note_on', channel=0, note=67, velocity=90, time=0),\n",
      "    Message('note_on', channel=0, note=67, velocity=0, time=120),\n",
      "    Message('note_on', channel=0, note=66, velocity=90, time=0),\n",
      "    Message('note_on', channel=0, note=66, velocity=0, time=120),\n",
      "    Message('note_on', channel=0, note=62, velocity=90, time=0),\n",
      "    Message('note_on', channel=0, note=62, velocity=0, time=120),\n",
      "    Message('note_on', channel=0, note=59, velocity=90, time=0),\n",
      "    Message('note_on', channel=0, note=59, velocity=0, time=120),\n",
      "    Message('note_on', channel=0, note=57, velocity=90, time=0),\n",
      "    Message('note_on', channel=0, note=57, velocity=0, time=360),\n",
      "    Message('note_on', channel=0, note=61, velocity=90, time=9060),\n",
      "    Message('note_on', channel=0, note=61, velocity=0, time=60),\n",
      "    Message('note_on', channel=0, note=62, velocity=90, time=0),\n",
      "    Message('note_on', channel=0, note=62, velocity=0, time=60),\n",
      "    Message('note_on', channel=0, note=69, velocity=90, time=0),\n",
      "    Message('note_on', channel=0, note=69, velocity=0, time=60),\n",
      "    Message('note_on', channel=0, note=61, velocity=90, time=0),\n",
      "    Message('note_on', channel=0, note=61, velocity=0, time=60),\n",
      "    Message('note_on', channel=0, note=62, velocity=90, time=60),\n",
      "    Message('note_on', channel=0, note=62, velocity=0, time=60),\n",
      "    Message('note_on', channel=0, note=61, velocity=90, time=120),\n",
      "    Message('note_on', channel=0, note=61, velocity=0, time=60),\n",
      "    Message('note_on', channel=0, note=62, velocity=90, time=0),\n",
      "    Message('note_on', channel=0, note=62, velocity=0, time=60),\n",
      "    Message('note_on', channel=0, note=69, velocity=90, time=0),\n",
      "    Message('note_on', channel=0, note=69, velocity=0, time=60),\n",
      "    Message('note_on', channel=0, note=57, velocity=90, time=0),\n",
      "    Message('note_on', channel=0, note=57, velocity=0, time=120),\n",
      "    Message('note_on', channel=0, note=59, velocity=90, time=0),\n",
      "    Message('note_on', channel=0, note=59, velocity=0, time=180),\n",
      "    Message('note_on', channel=0, note=59, velocity=90, time=60),\n",
      "    Message('note_on', channel=0, note=59, velocity=0, time=60),\n",
      "    Message('note_on', channel=0, note=62, velocity=90, time=0),\n",
      "    Message('note_on', channel=0, note=62, velocity=0, time=60),\n",
      "    Message('note_on', channel=0, note=67, velocity=90, time=0),\n",
      "    Message('note_on', channel=0, note=67, velocity=0, time=120),\n",
      "    Message('note_on', channel=0, note=66, velocity=90, time=0),\n",
      "    Message('note_on', channel=0, note=66, velocity=0, time=120),\n",
      "    Message('note_on', channel=0, note=62, velocity=90, time=0),\n",
      "    Message('note_on', channel=0, note=62, velocity=0, time=60),\n",
      "    Message('note_on', channel=0, note=59, velocity=90, time=60),\n",
      "    Message('note_on', channel=0, note=59, velocity=0, time=60),\n",
      "    Message('note_on', channel=0, note=57, velocity=90, time=60),\n",
      "    Message('note_on', channel=0, note=57, velocity=0, time=120),\n",
      "    Message('note_on', channel=0, note=61, velocity=90, time=180),\n",
      "    Message('note_on', channel=0, note=61, velocity=0, time=60),\n",
      "    Message('note_on', channel=0, note=62, velocity=90, time=0),\n",
      "    Message('note_on', channel=0, note=62, velocity=0, time=60),\n",
      "    Message('note_on', channel=0, note=69, velocity=90, time=0),\n",
      "    Message('note_on', channel=0, note=69, velocity=0, time=60),\n",
      "    Message('note_on', channel=0, note=61, velocity=90, time=0),\n",
      "    Message('note_on', channel=0, note=61, velocity=0, time=120),\n",
      "    Message('note_on', channel=0, note=62, velocity=90, time=0),\n",
      "    Message('note_on', channel=0, note=62, velocity=0, time=120),\n",
      "    Message('note_on', channel=0, note=61, velocity=90, time=60),\n",
      "    Message('note_on', channel=0, note=61, velocity=0, time=60),\n",
      "    Message('note_on', channel=0, note=62, velocity=90, time=0),\n",
      "    Message('note_on', channel=0, note=62, velocity=0, time=60),\n",
      "    Message('note_on', channel=0, note=69, velocity=90, time=0),\n",
      "    Message('note_on', channel=0, note=69, velocity=0, time=60),\n",
      "    Message('note_on', channel=0, note=57, velocity=90, time=0),\n",
      "    Message('note_on', channel=0, note=57, velocity=0, time=120),\n",
      "    Message('note_on', channel=0, note=59, velocity=90, time=0),\n",
      "    Message('note_on', channel=0, note=59, velocity=0, time=240),\n",
      "    Message('note_on', channel=0, note=59, velocity=90, time=0),\n",
      "    Message('note_on', channel=0, note=59, velocity=0, time=60),\n",
      "    Message('note_on', channel=0, note=62, velocity=90, time=0),\n",
      "    Message('note_on', channel=0, note=62, velocity=0, time=60),\n",
      "    Message('note_on', channel=0, note=67, velocity=90, time=0),\n",
      "    Message('note_on', channel=0, note=67, velocity=0, time=120),\n",
      "    Message('note_on', channel=0, note=66, velocity=90, time=0),\n",
      "    Message('note_on', channel=0, note=66, velocity=0, time=120),\n",
      "    Message('note_on', channel=0, note=62, velocity=90, time=0),\n",
      "    Message('note_on', channel=0, note=62, velocity=0, time=120),\n",
      "    Message('note_on', channel=0, note=59, velocity=90, time=0),\n",
      "    Message('note_on', channel=0, note=59, velocity=0, time=120),\n",
      "    Message('note_on', channel=0, note=57, velocity=90, time=0),\n",
      "    Message('note_on', channel=0, note=57, velocity=0, time=360),\n",
      "    Message('note_on', channel=0, note=63, velocity=90, time=900),\n",
      "    Message('note_on', channel=0, note=63, velocity=0, time=60),\n",
      "    Message('note_on', channel=0, note=64, velocity=90, time=6),\n",
      "    Message('note_on', channel=0, note=64, velocity=0, time=60),\n",
      "    Message('note_on', channel=0, note=71, velocity=90, time=0),\n",
      "    Message('note_on', channel=0, note=71, velocity=0, time=60),\n",
      "    Message('note_on', channel=0, note=63, velocity=90, time=0),\n",
      "    Message('note_on', channel=0, note=63, velocity=0, time=120),\n",
      "    Message('note_on', channel=0, note=64, velocity=90, time=0),\n",
      "    Message('note_on', channel=0, note=64, velocity=0, time=180),\n",
      "    Message('note_on', channel=0, note=63, velocity=90, time=0),\n",
      "    Message('note_on', channel=0, note=63, velocity=0, time=60),\n",
      "    Message('note_on', channel=0, note=64, velocity=90, time=0),\n",
      "    Message('note_on', channel=0, note=64, velocity=0, time=60),\n",
      "    Message('note_on', channel=0, note=71, velocity=90, time=0),\n",
      "    Message('note_on', channel=0, note=71, velocity=0, time=60),\n",
      "    Message('note_on', channel=0, note=59, velocity=90, time=0),\n",
      "    Message('note_on', channel=0, note=59, velocity=0, time=120),\n",
      "    Message('note_on', channel=0, note=61, velocity=90, time=0),\n",
      "    Message('note_on', channel=0, note=61, velocity=0, time=360),\n",
      "    Message('note_on', channel=0, note=80, velocity=90, time=4674),\n",
      "    Message('note_on', channel=0, note=80, velocity=0, time=60),\n",
      "    Message('note_on', channel=0, note=78, velocity=90, time=0),\n",
      "    Message('note_on', channel=0, note=78, velocity=0, time=60),\n",
      "    Message('note_on', channel=0, note=78, velocity=90, time=0),\n",
      "    Message('note_on', channel=0, note=78, velocity=0, time=60),\n",
      "    Message('note_on', channel=0, note=76, velocity=100, time=0),\n",
      "    Message('note_on', channel=0, note=76, velocity=0, time=240),\n",
      "    Message('note_on', channel=0, note=75, velocity=90, time=0),\n",
      "    Message('note_on', channel=0, note=75, velocity=0, time=60),\n",
      "    Message('note_on', channel=0, note=76, velocity=90, time=0),\n",
      "    Message('note_on', channel=0, note=76, velocity=0, time=60),\n",
      "    Message('note_on', channel=0, note=83, velocity=90, time=0),\n",
      "    Message('note_on', channel=0, note=83, velocity=0, time=60),\n",
      "    Message('note_on', channel=0, note=75, velocity=90, time=0),\n",
      "    Message('note_on', channel=0, note=75, velocity=0, time=120),\n",
      "    Message('note_on', channel=0, note=76, velocity=90, time=0),\n",
      "    Message('note_on', channel=0, note=76, velocity=0, time=120),\n",
      "    Message('note_on', channel=0, note=75, velocity=90, time=60),\n",
      "    Message('note_on', channel=0, note=75, velocity=0, time=60),\n",
      "    Message('note_on', channel=0, note=76, velocity=90, time=0),\n",
      "    Message('note_on', channel=0, note=76, velocity=0, time=60),\n",
      "    Message('note_on', channel=0, note=83, velocity=90, time=0),\n",
      "    Message('note_on', channel=0, note=83, velocity=0, time=60),\n",
      "    Message('note_on', channel=0, note=71, velocity=90, time=0),\n",
      "    Message('note_on', channel=0, note=71, velocity=0, time=120),\n",
      "    Message('note_on', channel=0, note=73, velocity=90, time=0),\n",
      "    Message('note_on', channel=0, note=73, velocity=0, time=120),\n",
      "    Message('note_on', channel=0, note=73, velocity=90, time=123),\n",
      "    Message('note_on', channel=0, note=73, velocity=0, time=52),\n",
      "    Message('note_on', channel=0, note=76, velocity=90, time=5),\n",
      "    Message('note_on', channel=0, note=76, velocity=0, time=60),\n",
      "    Message('note_on', channel=0, note=81, velocity=90, time=0),\n",
      "    Message('note_on', channel=0, note=81, velocity=0, time=120),\n",
      "    Message('note_on', channel=0, note=80, velocity=90, time=0),\n",
      "    Message('note_on', channel=0, note=80, velocity=0, time=60),\n",
      "    Message('note_on', channel=0, note=76, velocity=90, time=0),\n",
      "    Message('note_on', channel=0, note=76, velocity=0, time=60),\n",
      "    Message('note_on', channel=0, note=81, velocity=90, time=0),\n",
      "    Message('note_on', channel=0, note=81, velocity=0, time=120),\n",
      "    Message('note_on', channel=0, note=80, velocity=90, time=0),\n",
      "    Message('note_on', channel=0, note=80, velocity=0, time=60),\n",
      "    Message('note_on', channel=0, note=78, velocity=90, time=0),\n",
      "    Message('note_on', channel=0, note=78, velocity=0, time=60),\n",
      "    Message('note_on', channel=0, note=78, velocity=90, time=0),\n",
      "    Message('note_on', channel=0, note=78, velocity=0, time=60),\n",
      "    Message('note_on', channel=0, note=76, velocity=90, time=0),\n",
      "    Message('note_on', channel=0, note=76, velocity=0, time=120),\n",
      "    Message('note_on', channel=0, note=71, velocity=90, time=60),\n",
      "    Message('note_on', channel=0, note=71, velocity=0, time=60),\n",
      "    Message('note_on', channel=0, note=75, velocity=90, time=0),\n",
      "    Message('note_on', channel=0, note=75, velocity=0, time=60),\n",
      "    Message('note_on', channel=0, note=76, velocity=90, time=0),\n",
      "    Message('note_on', channel=0, note=76, velocity=0, time=60),\n",
      "    Message('note_on', channel=0, note=83, velocity=90, time=0),\n",
      "    Message('note_on', channel=0, note=83, velocity=0, time=60),\n",
      "    Message('note_on', channel=0, note=75, velocity=90, time=0),\n",
      "    Message('note_on', channel=0, note=75, velocity=0, time=120),\n",
      "    Message('note_on', channel=0, note=76, velocity=90, time=0),\n",
      "    Message('note_on', channel=0, note=76, velocity=0, time=180),\n",
      "    Message('note_on', channel=0, note=75, velocity=90, time=0),\n",
      "    Message('note_on', channel=0, note=75, velocity=0, time=60),\n",
      "    Message('note_on', channel=0, note=76, velocity=90, time=0),\n",
      "    Message('note_on', channel=0, note=76, velocity=0, time=60),\n",
      "    Message('note_on', channel=0, note=83, velocity=90, time=0),\n",
      "    Message('note_on', channel=0, note=83, velocity=0, time=60),\n",
      "    Message('note_on', channel=0, note=71, velocity=90, time=0),\n",
      "    Message('note_on', channel=0, note=71, velocity=0, time=120),\n",
      "    Message('note_on', channel=0, note=73, velocity=90, time=0),\n",
      "    Message('note_on', channel=0, note=73, velocity=0, time=300),\n",
      "    Message('note_on', channel=0, note=76, velocity=90, time=0),\n",
      "    Message('note_on', channel=0, note=76, velocity=0, time=60),\n",
      "    Message('note_on', channel=0, note=76, velocity=90, time=0),\n",
      "    Message('note_on', channel=0, note=76, velocity=0, time=120),\n",
      "    Message('note_on', channel=0, note=73, velocity=90, time=0),\n",
      "    Message('note_on', channel=0, note=73, velocity=0, time=60),\n",
      "    Message('note_on', channel=0, note=76, velocity=90, time=0),\n",
      "    Message('note_on', channel=0, note=76, velocity=0, time=60),\n",
      "    Message('note_on', channel=0, note=80, velocity=90, time=0),\n",
      "    Message('note_on', channel=0, note=80, velocity=0, time=120),\n",
      "    Message('note_on', channel=0, note=78, velocity=90, time=0),\n",
      "    Message('note_on', channel=0, note=78, velocity=0, time=120),\n",
      "    Message('note_on', channel=0, note=76, velocity=90, time=0),\n",
      "    Message('note_on', channel=0, note=78, velocity=90, time=30),\n",
      "    Message('note_on', channel=0, note=78, velocity=0, time=30),\n",
      "    Message('note_on', channel=0, note=76, velocity=0, time=0),\n",
      "    Message('note_on', channel=0, note=76, velocity=90, time=0),\n",
      "    Message('note_on', channel=0, note=76, velocity=0, time=360),\n",
      "    MetaMessage('end_of_track', time=0)]),\n",
      "  MidiTrack([\n",
      "    MetaMessage('midi_port', port=0, time=0),\n",
      "    MetaMessage('track_name', name='DENGUNG', time=0),\n",
      "    Message('program_change', channel=1, program=92, time=0),\n",
      "    Message('control_change', channel=1, control=7, value=100, time=0),\n",
      "    Message('control_change', channel=1, control=10, value=64, time=0),\n",
      "    Message('note_on', channel=1, note=61, velocity=90, time=714),\n",
      "    Message('note_on', channel=1, note=61, velocity=0, time=60),\n",
      "    Message('note_on', channel=1, note=62, velocity=90, time=6),\n",
      "    Message('note_on', channel=1, note=62, velocity=0, time=60),\n",
      "    Message('note_on', channel=1, note=69, velocity=90, time=0),\n",
      "    Message('note_on', channel=1, note=69, velocity=0, time=60),\n",
      "    Message('note_on', channel=1, note=61, velocity=90, time=0),\n",
      "    Message('note_on', channel=1, note=61, velocity=0, time=120),\n",
      "    Message('note_on', channel=1, note=62, velocity=90, time=0),\n",
      "    Message('note_on', channel=1, note=62, velocity=0, time=180),\n",
      "    Message('note_on', channel=1, note=61, velocity=90, time=0),\n",
      "    Message('note_on', channel=1, note=61, velocity=0, time=60),\n",
      "    Message('note_on', channel=1, note=62, velocity=90, time=0),\n",
      "    Message('note_on', channel=1, note=62, velocity=0, time=60),\n",
      "    Message('note_on', channel=1, note=69, velocity=90, time=0),\n",
      "    Message('note_on', channel=1, note=69, velocity=0, time=60),\n",
      "    Message('note_on', channel=1, note=57, velocity=90, time=0),\n",
      "    Message('note_on', channel=1, note=57, velocity=0, time=120),\n",
      "    Message('note_on', channel=1, note=59, velocity=90, time=0),\n",
      "    Message('note_on', channel=1, note=59, velocity=0, time=360),\n",
      "    Message('note_on', channel=1, note=61, velocity=90, time=774),\n",
      "    Message('note_on', channel=1, note=61, velocity=0, time=60),\n",
      "    Message('note_on', channel=1, note=62, velocity=90, time=6),\n",
      "    Message('note_on', channel=1, note=62, velocity=0, time=60),\n",
      "    Message('note_on', channel=1, note=69, velocity=90, time=0),\n",
      "    Message('note_on', channel=1, note=69, velocity=0, time=60),\n",
      "    Message('note_on', channel=1, note=61, velocity=90, time=0),\n",
      "    Message('note_on', channel=1, note=61, velocity=0, time=120),\n",
      "    Message('note_on', channel=1, note=62, velocity=90, time=0),\n",
      "    Message('note_on', channel=1, note=62, velocity=0, time=180),\n",
      "    Message('note_on', channel=1, note=61, velocity=90, time=0),\n",
      "    Message('note_on', channel=1, note=61, velocity=0, time=60),\n",
      "    Message('note_on', channel=1, note=62, velocity=90, time=0),\n",
      "    Message('note_on', channel=1, note=62, velocity=0, time=60),\n",
      "    Message('note_on', channel=1, note=69, velocity=90, time=0),\n",
      "    Message('note_on', channel=1, note=69, velocity=0, time=60),\n",
      "    Message('note_on', channel=1, note=57, velocity=90, time=0),\n",
      "    Message('note_on', channel=1, note=57, velocity=0, time=120),\n",
      "    Message('note_on', channel=1, note=59, velocity=90, time=0),\n",
      "    Message('note_on', channel=1, note=59, velocity=0, time=360),\n",
      "    Message('note_on', channel=1, note=63, velocity=90, time=26694),\n",
      "    Message('note_on', channel=1, note=63, velocity=0, time=60),\n",
      "    Message('note_on', channel=1, note=64, velocity=90, time=6),\n",
      "    Message('note_on', channel=1, note=64, velocity=0, time=60),\n",
      "    Message('note_on', channel=1, note=71, velocity=90, time=0),\n",
      "    Message('note_on', channel=1, note=71, velocity=0, time=60),\n",
      "    Message('note_on', channel=1, note=63, velocity=90, time=0),\n",
      "    Message('note_on', channel=1, note=63, velocity=0, time=120),\n",
      "    Message('note_on', channel=1, note=64, velocity=90, time=0),\n",
      "    Message('note_on', channel=1, note=64, velocity=0, time=180),\n",
      "    Message('note_on', channel=1, note=63, velocity=90, time=0),\n",
      "    Message('note_on', channel=1, note=63, velocity=0, time=60),\n",
      "    Message('note_on', channel=1, note=64, velocity=90, time=0),\n",
      "    Message('note_on', channel=1, note=64, velocity=0, time=60),\n",
      "    Message('note_on', channel=1, note=71, velocity=90, time=0),\n",
      "    Message('note_on', channel=1, note=71, velocity=0, time=60),\n",
      "    Message('note_on', channel=1, note=59, velocity=90, time=0),\n",
      "    Message('note_on', channel=1, note=59, velocity=0, time=120),\n",
      "    Message('note_on', channel=1, note=61, velocity=90, time=0),\n",
      "    Message('note_on', channel=1, note=61, velocity=0, time=360),\n",
      "    Message('note_on', channel=1, note=80, velocity=90, time=4680),\n",
      "    Message('note_on', channel=1, note=80, velocity=0, time=60),\n",
      "    Message('note_on', channel=1, note=78, velocity=90, time=0),\n",
      "    Message('note_on', channel=1, note=78, velocity=0, time=60),\n",
      "    Message('note_on', channel=1, note=78, velocity=90, time=0),\n",
      "    Message('note_on', channel=1, note=78, velocity=0, time=60),\n",
      "    Message('note_on', channel=1, note=76, velocity=100, time=0),\n",
      "    Message('note_on', channel=1, note=76, velocity=0, time=240),\n",
      "    Message('note_on', channel=1, note=75, velocity=90, time=0),\n",
      "    Message('note_on', channel=1, note=75, velocity=0, time=60),\n",
      "    Message('note_on', channel=1, note=76, velocity=90, time=0),\n",
      "    Message('note_on', channel=1, note=76, velocity=0, time=60),\n",
      "    Message('note_on', channel=1, note=83, velocity=90, time=0),\n",
      "    Message('note_on', channel=1, note=83, velocity=0, time=60),\n",
      "    Message('note_on', channel=1, note=75, velocity=90, time=0),\n",
      "    Message('note_on', channel=1, note=75, velocity=0, time=120),\n",
      "    Message('note_on', channel=1, note=76, velocity=90, time=0),\n",
      "    Message('note_on', channel=1, note=76, velocity=0, time=120),\n",
      "    Message('note_on', channel=1, note=75, velocity=90, time=60),\n",
      "    Message('note_on', channel=1, note=75, velocity=0, time=60),\n",
      "    Message('note_on', channel=1, note=76, velocity=90, time=0),\n",
      "    Message('note_on', channel=1, note=76, velocity=0, time=60),\n",
      "    Message('note_on', channel=1, note=83, velocity=90, time=0),\n",
      "    Message('note_on', channel=1, note=83, velocity=0, time=60),\n",
      "    Message('note_on', channel=1, note=71, velocity=90, time=0),\n",
      "    Message('note_on', channel=1, note=71, velocity=0, time=120),\n",
      "    Message('note_on', channel=1, note=73, velocity=90, time=0),\n",
      "    Message('note_on', channel=1, note=73, velocity=0, time=120),\n",
      "    Message('note_on', channel=1, note=73, velocity=90, time=123),\n",
      "    Message('note_on', channel=1, note=73, velocity=0, time=52),\n",
      "    Message('note_on', channel=1, note=76, velocity=90, time=5),\n",
      "    Message('note_on', channel=1, note=76, velocity=0, time=60),\n",
      "    Message('note_on', channel=1, note=81, velocity=90, time=0),\n",
      "    Message('note_on', channel=1, note=81, velocity=0, time=120),\n",
      "    Message('note_on', channel=1, note=80, velocity=90, time=0),\n",
      "    Message('note_on', channel=1, note=80, velocity=0, time=60),\n",
      "    Message('note_on', channel=1, note=76, velocity=90, time=0),\n",
      "    Message('note_on', channel=1, note=76, velocity=0, time=60),\n",
      "    Message('note_on', channel=1, note=81, velocity=90, time=0),\n",
      "    Message('note_on', channel=1, note=81, velocity=0, time=120),\n",
      "    Message('note_on', channel=1, note=80, velocity=90, time=0),\n",
      "    Message('note_on', channel=1, note=80, velocity=0, time=60),\n",
      "    Message('note_on', channel=1, note=78, velocity=90, time=0),\n",
      "    Message('note_on', channel=1, note=78, velocity=0, time=60),\n",
      "    Message('note_on', channel=1, note=78, velocity=90, time=0),\n",
      "    Message('note_on', channel=1, note=78, velocity=0, time=60),\n",
      "    Message('note_on', channel=1, note=76, velocity=90, time=0),\n",
      "    Message('note_on', channel=1, note=76, velocity=0, time=120),\n",
      "    Message('note_on', channel=1, note=71, velocity=90, time=60),\n",
      "    Message('note_on', channel=1, note=71, velocity=0, time=60),\n",
      "    Message('note_on', channel=1, note=75, velocity=90, time=0),\n",
      "    Message('note_on', channel=1, note=75, velocity=0, time=60),\n",
      "    Message('note_on', channel=1, note=76, velocity=90, time=0),\n",
      "    Message('note_on', channel=1, note=76, velocity=0, time=60),\n",
      "    Message('note_on', channel=1, note=83, velocity=90, time=0),\n",
      "    Message('note_on', channel=1, note=83, velocity=0, time=60),\n",
      "    Message('note_on', channel=1, note=75, velocity=90, time=0),\n",
      "    Message('note_on', channel=1, note=75, velocity=0, time=120),\n",
      "    Message('note_on', channel=1, note=76, velocity=90, time=0),\n",
      "    Message('note_on', channel=1, note=76, velocity=0, time=180),\n",
      "    Message('note_on', channel=1, note=75, velocity=90, time=0),\n",
      "    Message('note_on', channel=1, note=75, velocity=0, time=60),\n",
      "    Message('note_on', channel=1, note=76, velocity=90, time=0),\n",
      "    Message('note_on', channel=1, note=76, velocity=0, time=60),\n",
      "    Message('note_on', channel=1, note=83, velocity=90, time=0),\n",
      "    Message('note_on', channel=1, note=83, velocity=0, time=60),\n",
      "    Message('note_on', channel=1, note=71, velocity=90, time=0),\n",
      "    Message('note_on', channel=1, note=71, velocity=0, time=120),\n",
      "    Message('note_on', channel=1, note=73, velocity=90, time=0),\n",
      "    Message('note_on', channel=1, note=73, velocity=0, time=300),\n",
      "    Message('note_on', channel=1, note=76, velocity=90, time=0),\n",
      "    Message('note_on', channel=1, note=76, velocity=0, time=60),\n",
      "    Message('note_on', channel=1, note=76, velocity=90, time=0),\n",
      "    Message('note_on', channel=1, note=76, velocity=0, time=120),\n",
      "    Message('note_on', channel=1, note=73, velocity=90, time=0),\n",
      "    Message('note_on', channel=1, note=73, velocity=0, time=60),\n",
      "    Message('note_on', channel=1, note=76, velocity=90, time=0),\n",
      "    Message('note_on', channel=1, note=76, velocity=0, time=60),\n",
      "    Message('note_on', channel=1, note=80, velocity=90, time=0),\n",
      "    Message('note_on', channel=1, note=80, velocity=0, time=120),\n",
      "    Message('note_on', channel=1, note=78, velocity=90, time=0),\n",
      "    Message('note_on', channel=1, note=78, velocity=0, time=120),\n",
      "    Message('note_on', channel=1, note=76, velocity=90, time=0),\n",
      "    Message('note_on', channel=1, note=78, velocity=90, time=30),\n",
      "    Message('note_on', channel=1, note=78, velocity=0, time=30),\n",
      "    Message('note_on', channel=1, note=76, velocity=0, time=0),\n",
      "    Message('note_on', channel=1, note=76, velocity=90, time=0),\n",
      "    Message('note_on', channel=1, note=76, velocity=0, time=360),\n",
      "    MetaMessage('end_of_track', time=0)]),\n",
      "  MidiTrack([\n",
      "    MetaMessage('midi_port', port=0, time=0),\n",
      "    MetaMessage('track_name', name='CHORD', time=0),\n",
      "    Message('program_change', channel=2, program=5, time=0),\n",
      "    Message('control_change', channel=2, control=7, value=87, time=0),\n",
      "    Message('control_change', channel=2, control=10, value=64, time=0),\n",
      "    Message('note_on', channel=2, note=66, velocity=90, time=480),\n",
      "    Message('note_on', channel=2, note=62, velocity=90, time=0),\n",
      "    Message('note_on', channel=2, note=57, velocity=90, time=0),\n",
      "    Message('note_on', channel=2, note=64, velocity=90, time=0),\n",
      "    Message('note_on', channel=2, note=64, velocity=90, time=0),\n",
      "    Message('note_on', channel=2, note=64, velocity=0, time=240),\n",
      "    Message('note_on', channel=2, note=64, velocity=0, time=0),\n",
      "    Message('note_on', channel=2, note=64, velocity=90, time=0),\n",
      "    Message('note_on', channel=2, note=64, velocity=0, time=240),\n",
      "    Message('note_on', channel=2, note=57, velocity=0, time=0),\n",
      "    Message('note_on', channel=2, note=62, velocity=0, time=0),\n",
      "    Message('note_on', channel=2, note=66, velocity=0, time=0),\n",
      "    Message('note_on', channel=2, note=62, velocity=90, time=0),\n",
      "    Message('note_on', channel=2, note=59, velocity=90, time=0),\n",
      "    Message('note_on', channel=2, note=66, velocity=90, time=0),\n",
      "    Message('note_on', channel=2, note=66, velocity=0, time=480),\n",
      "    Message('note_on', channel=2, note=59, velocity=0, time=0),\n",
      "    Message('note_on', channel=2, note=62, velocity=0, time=0),\n",
      "    Message('note_on', channel=2, note=62, velocity=90, time=0),\n",
      "    Message('note_on', channel=2, note=59, velocity=90, time=0),\n",
      "    Message('note_on', channel=2, note=55, velocity=90, time=0),\n",
      "    Message('note_on', channel=2, note=55, velocity=90, time=0),\n",
      "    Message('note_on', channel=2, note=55, velocity=0, time=240),\n",
      "    Message('note_on', channel=2, note=62, velocity=0, time=0),\n",
      "    Message('note_on', channel=2, note=59, velocity=0, time=0),\n",
      "    Message('note_on', channel=2, note=59, velocity=90, time=60),\n",
      "    Message('note_on', channel=2, note=59, velocity=0, time=60),\n",
      "    Message('note_on', channel=2, note=62, velocity=90, time=0),\n",
      "    Message('note_on', channel=2, note=62, velocity=0, time=60),\n",
      "    Message('note_on', channel=2, note=67, velocity=90, time=0),\n",
      "    Message('note_on', channel=2, note=55, velocity=0, time=60),\n",
      "    Message('note_on', channel=2, note=67, velocity=0, time=60),\n",
      "    Message('note_on', channel=2, note=66, velocity=90, time=0),\n",
      "    Message('note_on', channel=2, note=66, velocity=0, time=120),\n",
      "    Message('note_on', channel=2, note=62, velocity=90, time=0),\n",
      "    Message('note_on', channel=2, note=62, velocity=0, time=120),\n",
      "    Message('note_on', channel=2, note=59, velocity=90, time=0),\n",
      "    Message('note_on', channel=2, note=59, velocity=0, time=120),\n",
      "    Message('note_on', channel=2, note=57, velocity=90, time=0),\n",
      "    Message('note_on', channel=2, note=66, velocity=90, time=60),\n",
      "    Message('note_on', channel=2, note=62, velocity=90, time=0),\n",
      "    Message('note_on', channel=2, note=57, velocity=90, time=0),\n",
      "    Message('note_on', channel=2, note=64, velocity=90, time=0),\n",
      "    Message('note_on', channel=2, note=64, velocity=90, time=0),\n",
      "    Message('note_on', channel=2, note=57, velocity=0, time=60),\n",
      "    Message('note_on', channel=2, note=64, velocity=0, time=180),\n",
      "    Message('note_on', channel=2, note=64, velocity=0, time=0),\n",
      "    Message('note_on', channel=2, note=64, velocity=90, time=0),\n",
      "    Message('note_on', channel=2, note=64, velocity=0, time=240),\n",
      "    Message('note_on', channel=2, note=62, velocity=0, time=0),\n",
      "    Message('note_on', channel=2, note=57, velocity=0, time=0),\n",
      "    Message('note_on', channel=2, note=66, velocity=0, time=0),\n",
      "    Message('note_on', channel=2, note=62, velocity=90, time=0),\n",
      "    Message('note_on', channel=2, note=59, velocity=90, time=0),\n",
      "    Message('note_on', channel=2, note=66, velocity=90, time=0),\n",
      "    Message('note_on', channel=2, note=66, velocity=0, time=480),\n",
      "    Message('note_on', channel=2, note=59, velocity=0, time=0),\n",
      "    Message('note_on', channel=2, note=62, velocity=0, time=0),\n",
      "    Message('note_on', channel=2, note=62, velocity=90, time=0),\n",
      "    Message('note_on', channel=2, note=59, velocity=90, time=0),\n",
      "    Message('note_on', channel=2, note=55, velocity=90, time=0),\n",
      "    Message('note_on', channel=2, note=55, velocity=90, time=0),\n",
      "    Message('note_on', channel=2, note=55, velocity=0, time=240),\n",
      "    Message('note_on', channel=2, note=62, velocity=0, time=0),\n",
      "    Message('note_on', channel=2, note=59, velocity=0, time=0),\n",
      "    Message('note_on', channel=2, note=59, velocity=90, time=60),\n",
      "    Message('note_on', channel=2, note=59, velocity=0, time=60),\n",
      "    Message('note_on', channel=2, note=62, velocity=90, time=0),\n",
      "    Message('note_on', channel=2, note=62, velocity=0, time=60),\n",
      "    Message('note_on', channel=2, note=67, velocity=90, time=0),\n",
      "    Message('note_on', channel=2, note=55, velocity=0, time=60),\n",
      "    Message('note_on', channel=2, note=67, velocity=0, time=60),\n",
      "    Message('note_on', channel=2, note=66, velocity=90, time=0),\n",
      "    Message('note_on', channel=2, note=66, velocity=0, time=120),\n",
      "    Message('note_on', channel=2, note=62, velocity=90, time=0),\n",
      "    Message('note_on', channel=2, note=62, velocity=0, time=120),\n",
      "    Message('note_on', channel=2, note=59, velocity=90, time=0),\n",
      "    Message('note_on', channel=2, note=59, velocity=0, time=120),\n",
      "    Message('note_on', channel=2, note=57, velocity=90, time=0),\n",
      "    Message('note_on', channel=2, note=62, velocity=90, time=55),\n",
      "    Message('note_on', channel=2, note=57, velocity=90, time=3),\n",
      "    Message('note_on', channel=2, note=54, velocity=90, time=1),\n",
      "    Message('note_on', channel=2, note=57, velocity=0, time=61),\n",
      "    Message('note_on', channel=2, note=57, velocity=0, time=107),\n",
      "    Message('note_on', channel=2, note=62, velocity=0, time=6),\n",
      "    Message('note_on', channel=2, note=54, velocity=0, time=3),\n",
      "    Message('note_on', channel=2, note=61, velocity=90, time=4),\n",
      "    Message('note_on', channel=2, note=54, velocity=90, time=0),\n",
      "    Message('note_on', channel=2, note=57, velocity=90, time=0),\n",
      "    Message('note_on', channel=2, note=57, velocity=0, time=180),\n",
      "    Message('note_on', channel=2, note=61, velocity=0, time=0),\n",
      "    Message('note_on', channel=2, note=62, velocity=90, time=0),\n",
      "    Message('note_on', channel=2, note=57, velocity=90, time=0),\n",
      "    Message('note_on', channel=2, note=57, velocity=0, time=120),\n",
      "    Message('note_on', channel=2, note=62, velocity=0, time=0),\n",
      "    Message('note_on', channel=2, note=54, velocity=0, time=0),\n",
      "    Message('note_on', channel=2, note=62, velocity=90, time=0),\n",
      "    Message('note_on', channel=2, note=59, velocity=90, time=0),\n",
      "    Message('note_on', channel=2, note=54, velocity=90, time=0),\n",
      "    Message('note_on', channel=2, note=54, velocity=0, time=180),\n",
      "    Message('note_on', channel=2, note=59, velocity=0, time=0),\n",
      "    Message('note_on', channel=2, note=62, velocity=0, time=0),\n",
      "    Message('note_on', channel=2, note=54, velocity=90, time=0),\n",
      "    Message('note_on', channel=2, note=59, velocity=90, time=0),\n",
      "    Message('note_on', channel=2, note=62, velocity=90, time=180),\n",
      "    Message('note_on', channel=2, note=62, velocity=0, time=120),\n",
      "    Message('note_on', channel=2, note=59, velocity=0, time=0),\n",
      "    Message('note_on', channel=2, note=54, velocity=0, time=0),\n",
      "    Message('note_on', channel=2, note=62, velocity=90, time=0),\n",
      "    Message('note_on', channel=2, note=59, velocity=90, time=0),\n",
      "    Message('note_on', channel=2, note=55, velocity=90, time=0),\n",
      "    Message('note_on', channel=2, note=55, velocity=0, time=180),\n",
      "    Message('note_on', channel=2, note=59, velocity=0, time=0),\n",
      "    Message('note_on', channel=2, note=62, velocity=0, time=0),\n",
      "    Message('note_on', channel=2, note=64, velocity=90, time=0),\n",
      "    Message('note_on', channel=2, note=59, velocity=90, time=0),\n",
      "    Message('note_on', channel=2, note=55, velocity=90, time=0),\n",
      "    Message('note_on', channel=2, note=59, velocity=0, time=180),\n",
      "    Message('note_on', channel=2, note=64, velocity=0, time=0),\n",
      "    Message('note_on', channel=2, note=62, velocity=90, time=0),\n",
      "    Message('note_on', channel=2, note=59, velocity=90, time=0),\n",
      "    Message('note_on', channel=2, note=59, velocity=0, time=120),\n",
      "    Message('note_on', channel=2, note=62, velocity=0, time=0),\n",
      "    Message('note_on', channel=2, note=55, velocity=0, time=0),\n",
      "    Message('note_on', channel=2, note=55, velocity=90, time=0),\n",
      "    Message('note_on', channel=2, note=59, velocity=90, time=0),\n",
      "    Message('note_on', channel=2, note=62, velocity=90, time=0),\n",
      "    Message('note_on', channel=2, note=62, velocity=0, time=180),\n",
      "    Message('note_on', channel=2, note=59, velocity=0, time=0),\n",
      "    Message('note_on', channel=2, note=55, velocity=0, time=0),\n",
      "    Message('note_on', channel=2, note=62, velocity=90, time=0),\n",
      "    Message('note_on', channel=2, note=55, velocity=90, time=0),\n",
      "    Message('note_on', channel=2, note=59, velocity=90, time=0),\n",
      "    Message('note_on', channel=2, note=59, velocity=0, time=120),\n",
      "    Message('note_on', channel=2, note=62, velocity=0, time=60),\n",
      "    Message('note_on', channel=2, note=57, velocity=90, time=0),\n",
      "    Message('note_on', channel=2, note=61, velocity=90, time=0),\n",
      "    Message('note_on', channel=2, note=62, velocity=90, time=0),\n",
      "    Message('note_on', channel=2, note=62, velocity=0, time=60),\n",
      "    Message('note_on', channel=2, note=55, velocity=0, time=0),\n",
      "    Message('note_on', channel=2, note=57, velocity=0, time=0),\n",
      "    Message('note_on', channel=2, note=61, velocity=0, time=60),\n",
      "    Message('note_on', channel=2, note=62, velocity=90, time=0),\n",
      "    Message('note_on', channel=2, note=57, velocity=90, time=0),\n",
      "    Message('note_on', channel=2, note=54, velocity=90, time=0),\n",
      "    Message('note_on', channel=2, note=54, velocity=0, time=180),\n",
      "    Message('note_on', channel=2, note=57, velocity=0, time=0),\n",
      "    Message('note_on', channel=2, note=62, velocity=0, time=0),\n",
      "    Message('note_on', channel=2, note=62, velocity=90, time=0),\n",
      "    Message('note_on', channel=2, note=57, velocity=90, time=0),\n",
      "    Message('note_on', channel=2, note=54, velocity=90, time=0),\n",
      "    Message('note_on', channel=2, note=54, velocity=0, time=180),\n",
      "    Message('note_on', channel=2, note=57, velocity=0, time=0),\n",
      "    Message('note_on', channel=2, note=62, velocity=0, time=0),\n",
      "    Message('note_on', channel=2, note=54, velocity=90, time=0),\n",
      "    Message('note_on', channel=2, note=57, velocity=90, time=0),\n",
      "    Message('note_on', channel=2, note=57, velocity=0, time=120),\n",
      "    Message('note_on', channel=2, note=54, velocity=0, time=0),\n",
      "    Message('note_on', channel=2, note=62, velocity=90, time=0),\n",
      "    Message('note_on', channel=2, note=54, velocity=90, time=0),\n",
      "    Message('note_on', channel=2, note=59, velocity=90, time=0),\n",
      "    Message('note_on', channel=2, note=62, velocity=0, time=120),\n",
      "    Message('note_on', channel=2, note=59, velocity=0, time=60),\n",
      "    Message('note_on', channel=2, note=54, velocity=0, time=0),\n",
      "    Message('note_on', channel=2, note=59, velocity=90, time=0),\n",
      "    Message('note_on', channel=2, note=64, velocity=90, time=0),\n",
      "    Message('note_on', channel=2, note=54, velocity=90, time=0),\n",
      "    Message('note_on', channel=2, note=54, velocity=0, time=180),\n",
      "    Message('note_on', channel=2, note=64, velocity=0, time=0),\n",
      "    Message('note_on', channel=2, note=62, velocity=90, time=0),\n",
      "    Message('note_on', channel=2, note=54, velocity=90, time=0),\n",
      "    Message('note_on', channel=2, note=54, velocity=0, time=60),\n",
      "    Message('note_on', channel=2, note=62, velocity=0, time=60),\n",
      "    Message('note_on', channel=2, note=59, velocity=0, time=0),\n",
      "    Message('note_on', channel=2, note=62, velocity=90, time=0),\n",
      "    Message('note_on', channel=2, note=59, velocity=90, time=0),\n",
      "    Message('note_on', channel=2, note=55, velocity=90, time=0),\n",
      "    Message('note_on', channel=2, note=59, velocity=0, time=60),\n",
      "    Message('note_on', channel=2, note=59, velocity=90, time=0),\n",
      "    Message('note_on', channel=2, note=59, velocity=0, time=120),\n",
      "    Message('note_on', channel=2, note=55, velocity=0, time=0),\n",
      "    Message('note_on', channel=2, note=62, velocity=0, time=0),\n",
      "    Message('note_on', channel=2, note=62, velocity=90, time=0),\n",
      "    Message('note_on', channel=2, note=59, velocity=90, time=0),\n",
      "    Message('note_on', channel=2, note=55, velocity=90, time=0),\n",
      "    Message('note_on', channel=2, note=55, velocity=0, time=180),\n",
      "    Message('note_on', channel=2, note=59, velocity=0, time=0),\n",
      "    Message('note_on', channel=2, note=62, velocity=0, time=0),\n",
      "    Message('note_on', channel=2, note=55, velocity=90, time=0),\n",
      "    Message('note_on', channel=2, note=59, velocity=90, time=0),\n",
      "    Message('note_on', channel=2, note=62, velocity=90, time=0),\n",
      "    Message('note_on', channel=2, note=55, velocity=0, time=60),\n",
      "    Message('note_on', channel=2, note=62, velocity=0, time=60),\n",
      "    Message('note_on', channel=2, note=59, velocity=0, time=0),\n",
      "    Message('note_on', channel=2, note=62, velocity=90, time=0),\n",
      "    Message('note_on', channel=2, note=55, velocity=90, time=0),\n",
      "    Message('note_on', channel=2, note=59, velocity=90, time=0),\n",
      "    Message('note_on', channel=2, note=59, velocity=0, time=180),\n",
      "    Message('note_on', channel=2, note=55, velocity=0, time=0),\n",
      "    Message('note_on', channel=2, note=62, velocity=0, time=0),\n",
      "    Message('note_on', channel=2, note=55, velocity=90, time=0),\n",
      "    Message('note_on', channel=2, note=62, velocity=90, time=0),\n",
      "    Message('note_on', channel=2, note=59, velocity=90, time=0),\n",
      "    Message('note_on', channel=2, note=59, velocity=0, time=180),\n",
      "    Message('note_on', channel=2, note=62, velocity=0, time=0),\n",
      "    Message('note_on', channel=2, note=55, velocity=0, time=0),\n",
      "    Message('note_on', channel=2, note=62, velocity=90, time=0),\n",
      "    Message('note_on', channel=2, note=55, velocity=90, time=0),\n",
      "    Message('note_on', channel=2, note=59, velocity=90, time=0),\n",
      "    Message('note_on', channel=2, note=55, velocity=0, time=60),\n",
      "    Message('note_on', channel=2, note=59, velocity=0, time=60),\n",
      "    Message('note_on', channel=2, note=62, velocity=0, time=0),\n",
      "    Message('note_on', channel=2, note=54, velocity=90, time=0),\n",
      "    Message('note_on', channel=2, note=57, velocity=90, time=0),\n",
      "    Message('note_on', channel=2, note=64, velocity=90, time=0),\n",
      "    Message('note_on', channel=2, note=61, velocity=90, time=0),\n",
      "    Message('note_on', channel=2, note=64, velocity=0, time=60),\n",
      "    Message('note_on', channel=2, note=54, velocity=0, time=60),\n",
      "    Message('note_on', channel=2, note=57, velocity=0, time=60),\n",
      "    Message('note_on', channel=2, note=61, velocity=0, time=0),\n",
      "    Message('note_on', channel=2, note=64, velocity=90, time=0),\n",
      "    Message('note_on', channel=2, note=57, velocity=90, time=0),\n",
      "    Message('note_on', channel=2, note=54, velocity=90, time=0),\n",
      "    Message('note_on', channel=2, note=54, velocity=0, time=180),\n",
      "    Message('note_on', channel=2, note=57, velocity=0, time=0),\n",
      "    Message('note_on', channel=2, note=64, velocity=0, time=0),\n",
      "    Message('note_on', channel=2, note=57, velocity=90, time=0),\n",
      "    Message('note_on', channel=2, note=61, velocity=90, time=0),\n",
      "    Message('note_on', channel=2, note=54, velocity=90, time=0),\n",
      "    Message('note_on', channel=2, note=54, velocity=0, time=120),\n",
      "    Message('note_on', channel=2, note=61, velocity=0, time=0),\n",
      "    Message('note_on', channel=2, note=57, velocity=0, time=0),\n",
      "    Message('note_on', channel=2, note=62, velocity=90, time=0),\n",
      "    Message('note_on', channel=2, note=54, velocity=90, time=0),\n",
      "    Message('note_on', channel=2, note=59, velocity=90, time=0),\n",
      "    Message('note_on', channel=2, note=59, velocity=0, time=180),\n",
      "    Message('note_on', channel=2, note=62, velocity=0, time=0),\n",
      "    Message('note_on', channel=2, note=59, velocity=90, time=0),\n",
      "    Message('note_on', channel=2, note=59, velocity=0, time=180),\n",
      "    Message('note_on', channel=2, note=54, velocity=0, time=0),\n",
      "    Message('note_on', channel=2, note=62, velocity=90, time=0),\n",
      "    Message('note_on', channel=2, note=59, velocity=90, time=0),\n",
      "    Message('note_on', channel=2, note=54, velocity=90, time=0),\n",
      "    Message('note_on', channel=2, note=59, velocity=0, time=120),\n",
      "    Message('note_on', channel=2, note=62, velocity=0, time=0),\n",
      "    Message('note_on', channel=2, note=61, velocity=90, time=0),\n",
      "    Message('note_on', channel=2, note=57, velocity=90, time=0),\n",
      "    Message('note_on', channel=2, note=57, velocity=0, time=120),\n",
      "    Message('note_on', channel=2, note=54, velocity=0, time=0),\n",
      "    Message('note_on', channel=2, note=61, velocity=0, time=60),\n",
      "    Message('note_on', channel=2, note=64, velocity=90, time=0),\n",
      "    Message('note_on', channel=2, note=57, velocity=90, time=0),\n",
      "    Message('note_on', channel=2, note=54, velocity=90, time=0),\n",
      "    Message('note_on', channel=2, note=54, velocity=0, time=180),\n",
      "    Message('note_on', channel=2, note=57, velocity=0, time=0),\n",
      "    Message('note_on', channel=2, note=64, velocity=0, time=0),\n",
      "    Message('note_on', channel=2, note=61, velocity=90, time=0),\n",
      "    Message('note_on', channel=2, note=57, velocity=90, time=0),\n",
      "    Message('note_on', channel=2, note=54, velocity=90, time=0),\n",
      "    Message('note_on', channel=2, note=54, velocity=0, time=120),\n",
      "    Message('note_on', channel=2, note=57, velocity=0, time=0),\n",
      "    Message('note_on', channel=2, note=61, velocity=0, time=0),\n",
      "    Message('note_on', channel=2, note=54, velocity=90, time=0),\n",
      "    Message('note_on', channel=2, note=62, velocity=90, time=0),\n",
      "    Message('note_on', channel=2, note=59, velocity=90, time=0),\n",
      "    Message('note_on', channel=2, note=62, velocity=0, time=120),\n",
      "    Message('note_on', channel=2, note=59, velocity=0, time=60),\n",
      "    Message('note_on', channel=2, note=54, velocity=0, time=0),\n",
      "    Message('note_on', channel=2, note=59, velocity=90, time=0),\n",
      "    Message('note_on', channel=2, note=54, velocity=90, time=0),\n",
      "    Message('note_on', channel=2, note=54, velocity=0, time=180),\n",
      "    Message('note_on', channel=2, note=59, velocity=0, time=0),\n",
      "    Message('note_on', channel=2, note=62, velocity=90, time=0),\n",
      "    Message('note_on', channel=2, note=59, velocity=90, time=0),\n",
      "    Message('note_on', channel=2, note=54, velocity=90, time=0),\n",
      "    Message('note_on', channel=2, note=54, velocity=0, time=60),\n",
      "    Message('note_on', channel=2, note=59, velocity=0, time=60),\n",
      "    Message('note_on', channel=2, note=62, velocity=0, time=0),\n",
      "    Message('note_on', channel=2, note=62, velocity=90, time=0),\n",
      "    Message('note_on', channel=2, note=59, velocity=90, time=0),\n",
      "    Message('note_on', channel=2, note=55, velocity=90, time=0),\n",
      "    Message('note_on', channel=2, note=55, velocity=0, time=180),\n",
      "    Message('note_on', channel=2, note=59, velocity=0, time=0),\n",
      "    Message('note_on', channel=2, note=62, velocity=0, time=0),\n",
      "    Message('note_on', channel=2, note=55, velocity=90, time=0),\n",
      "    Message('note_on', channel=2, note=62, velocity=90, time=0),\n",
      "    Message('note_on', channel=2, note=59, velocity=90, time=0),\n",
      "    Message('note_on', channel=2, note=59, velocity=0, time=180),\n",
      "    Message('note_on', channel=2, note=62, velocity=0, time=0),\n",
      "    Message('note_on', channel=2, note=55, velocity=0, time=0),\n",
      "    Message('note_on', channel=2, note=62, velocity=90, time=0),\n",
      "    Message('note_on', channel=2, note=55, velocity=90, time=0),\n",
      "    Message('note_on', channel=2, note=59, velocity=90, time=0),\n",
      "    Message('note_on', channel=2, note=59, velocity=0, time=60),\n",
      "    Message('note_on', channel=2, note=55, velocity=0, time=60),\n",
      "    Message('note_on', channel=2, note=62, velocity=0, time=0),\n",
      "    Message('note_on', channel=2, note=61, velocity=90, time=0),\n",
      "    Message('note_on', channel=2, note=57, velocity=90, time=0),\n",
      "    Message('note_on', channel=2, note=54, velocity=90, time=0),\n",
      "    Message('note_on', channel=2, note=54, velocity=0, time=180),\n",
      "    Message('note_on', channel=2, note=57, velocity=0, time=0),\n",
      "    Message('note_on', channel=2, note=61, velocity=0, time=0),\n",
      "    Message('note_on', channel=2, note=62, velocity=90, time=0),\n",
      "    Message('note_on', channel=2, note=59, velocity=90, time=0),\n",
      "    Message('note_on', channel=2, note=54, velocity=90, time=0),\n",
      "    Message('note_on', channel=2, note=54, velocity=0, time=180),\n",
      "    Message('note_on', channel=2, note=59, velocity=0, time=0),\n",
      "    Message('note_on', channel=2, note=62, velocity=0, time=0),\n",
      "    Message('note_on', channel=2, note=54, velocity=90, time=0),\n",
      "    Message('note_on', channel=2, note=59, velocity=90, time=0),\n",
      "    Message('note_on', channel=2, note=59, velocity=0, time=60),\n",
      "    Message('note_on', channel=2, note=54, velocity=0, time=60),\n",
      "    Message('note_on', channel=2, note=55, velocity=90, time=0),\n",
      "    Message('note_on', channel=2, note=52, velocity=90, time=0),\n",
      "    Message('note_on', channel=2, note=62, velocity=90, time=0),\n",
      "    Message('note_on', channel=2, note=59, velocity=90, time=0),\n",
      "    Message('note_on', channel=2, note=59, velocity=0, time=180),\n",
      "    Message('note_on', channel=2, note=55, velocity=0, time=0),\n",
      "    Message('note_on', channel=2, note=52, velocity=0, time=0),\n",
      "    Message('note_on', channel=2, note=62, velocity=0, time=0),\n",
      "    Message('note_on', channel=2, note=55, velocity=90, time=0),\n",
      "    Message('note_on', channel=2, note=59, velocity=90, time=0),\n",
      "    Message('note_on', channel=2, note=52, velocity=90, time=0),\n",
      "    Message('note_on', channel=2, note=52, velocity=0, time=180),\n",
      "    Message('note_on', channel=2, note=59, velocity=0, time=0),\n",
      "    Message('note_on', channel=2, note=55, velocity=0, time=0),\n",
      "    Message('note_on', channel=2, note=62, velocity=90, time=0),\n",
      "    Message('note_on', channel=2, note=59, velocity=90, time=0),\n",
      "    Message('note_on', channel=2, note=55, velocity=90, time=0),\n",
      "    Message('note_on', channel=2, note=52, velocity=90, time=0),\n",
      "    Message('note_on', channel=2, note=52, velocity=0, time=120),\n",
      "    Message('note_on', channel=2, note=62, velocity=0, time=0),\n",
      "    Message('note_on', channel=2, note=59, velocity=0, time=0),\n",
      "    Message('note_on', channel=2, note=55, velocity=0, time=0),\n",
      "    Message('note_on', channel=2, note=52, velocity=90, time=0),\n",
      "    Message('note_on', channel=2, note=62, velocity=90, time=0),\n",
      "    Message('note_on', channel=2, note=59, velocity=90, time=0),\n",
      "    Message('note_on', channel=2, note=57, velocity=90, time=0),\n",
      "    Message('note_on', channel=2, note=55, velocity=90, time=0),\n",
      "    Message('note_on', channel=2, note=55, velocity=0, time=60),\n",
      "    Message('note_on', channel=2, note=59, velocity=0, time=0),\n",
      "    Message('note_on', channel=2, note=52, velocity=0, time=60),\n",
      "    Message('note_on', channel=2, note=62, velocity=0, time=60),\n",
      "    Message('note_on', channel=2, note=57, velocity=0, time=0),\n",
      "    Message('note_on', channel=2, note=57, velocity=90, time=0),\n",
      "    Message('note_on', channel=2, note=52, velocity=90, time=0),\n",
      "    Message('note_on', channel=2, note=62, velocity=90, time=0),\n",
      "    Message('note_on', channel=2, note=62, velocity=0, time=60),\n",
      "    Message('note_on', channel=2, note=62, velocity=90, time=0),\n",
      "    Message('note_on', channel=2, note=52, velocity=0, time=60),\n",
      "    Message('note_on', channel=2, note=57, velocity=0, time=60),\n",
      "    Message('note_on', channel=2, note=62, velocity=90, time=0),\n",
      "    Message('note_on', channel=2, note=57, velocity=90, time=0),\n",
      "    Message('note_on', channel=2, note=52, velocity=90, time=0),\n",
      "    Message('note_on', channel=2, note=62, velocity=0, time=60),\n",
      "    Message('note_on', channel=2, note=62, velocity=0, time=60),\n",
      "    Message('note_on', channel=2, note=57, velocity=0, time=0),\n",
      "    Message('note_on', channel=2, note=52, velocity=0, time=0),\n",
      "    Message('note_on', channel=2, note=52, velocity=90, time=0),\n",
      "    Message('note_on', channel=2, note=61, velocity=90, time=0),\n",
      "    Message('note_on', channel=2, note=57, velocity=90, time=0),\n",
      "    Message('note_on', channel=2, note=57, velocity=0, time=240),\n",
      "    Message('note_on', channel=2, note=61, velocity=0, time=0),\n",
      "    Message('note_on', channel=2, note=52, velocity=0, time=0),\n",
      "    Message('note_on', channel=2, note=62, velocity=90, time=240),\n",
      "    Message('note_on', channel=2, note=57, velocity=90, time=0),\n",
      "    Message('note_on', channel=2, note=54, velocity=90, time=0),\n",
      "    Message('note_on', channel=2, note=57, velocity=0, time=120),\n",
      "    Message('note_on', channel=2, note=62, velocity=0, time=60),\n",
      "    Message('note_on', channel=2, note=62, velocity=90, time=0),\n",
      "    Message('note_on', channel=2, note=57, velocity=90, time=0),\n",
      "    Message('note_on', channel=2, note=57, velocity=0, time=120),\n",
      "    Message('note_on', channel=2, note=62, velocity=0, time=0),\n",
      "    Message('note_on', channel=2, note=57, velocity=90, time=0),\n",
      "    Message('note_on', channel=2, note=61, velocity=90, time=0),\n",
      "    Message('note_on', channel=2, note=54, velocity=0, time=60),\n",
      "    Message('note_on', channel=2, note=61, velocity=0, time=60),\n",
      "    Message('note_on', channel=2, note=57, velocity=0, time=0),\n",
      "    Message('note_on', channel=2, note=54, velocity=90, time=0),\n",
      "    Message('note_on', channel=2, note=62, velocity=90, time=0),\n",
      "    Message('note_on', channel=2, note=62, velocity=0, time=60),\n",
      "    Message('note_on', channel=2, note=54, velocity=0, time=0),\n",
      "    Message('note_on', channel=2, note=62, velocity=90, time=0),\n",
      "    Message('note_on', channel=2, note=54, velocity=90, time=0),\n",
      "    Message('note_on', channel=2, note=59, velocity=90, time=0),\n",
      "    Message('note_on', channel=2, note=59, velocity=0, time=120),\n",
      "    Message('note_on', channel=2, note=54, velocity=0, time=60),\n",
      "    Message('note_on', channel=2, note=62, velocity=0, time=0),\n",
      "    Message('note_on', channel=2, note=61, velocity=90, time=0),\n",
      "    Message('note_on', channel=2, note=59, velocity=90, time=0),\n",
      "    Message('note_on', channel=2, note=54, velocity=90, time=0),\n",
      "    Message('note_on', channel=2, note=54, velocity=0, time=180),\n",
      "    Message('note_on', channel=2, note=59, velocity=0, time=0),\n",
      "    Message('note_on', channel=2, note=61, velocity=0, time=0),\n",
      "    Message('note_on', channel=2, note=54, velocity=90, time=0),\n",
      "    Message('note_on', channel=2, note=57, velocity=90, time=0),\n",
      "    Message('note_on', channel=2, note=57, velocity=0, time=60),\n",
      "    Message('note_on', channel=2, note=54, velocity=0, time=0),\n",
      "    Message('note_on', channel=2, note=59, velocity=90, time=60),\n",
      "    Message('note_on', channel=2, note=55, velocity=90, time=0),\n",
      "    Message('note_on', channel=2, note=50, velocity=90, time=0),\n",
      "    Message('note_on', channel=2, note=50, velocity=0, time=180),\n",
      "    Message('note_on', channel=2, note=55, velocity=0, time=0),\n",
      "    Message('note_on', channel=2, note=59, velocity=0, time=0),\n",
      "    Message('note_on', channel=2, note=59, velocity=90, time=0),\n",
      "    Message('note_on', channel=2, note=55, velocity=90, time=0),\n",
      "    Message('note_on', channel=2, note=50, velocity=90, time=0),\n",
      "    Message('note_on', channel=2, note=55, velocity=0, time=180),\n",
      "    Message('note_on', channel=2, note=59, velocity=0, time=0),\n",
      "    Message('note_on', channel=2, note=55, velocity=90, time=0),\n",
      "    Message('note_on', channel=2, note=59, velocity=90, time=0),\n",
      "    Message('note_on', channel=2, note=59, velocity=0, time=120),\n",
      "    Message('note_on', channel=2, note=55, velocity=0, time=0),\n",
      "    Message('note_on', channel=2, note=55, velocity=90, time=0),\n",
      "    Message('note_on', channel=2, note=62, velocity=90, time=0),\n",
      "    Message('note_on', channel=2, note=59, velocity=90, time=0),\n",
      "    Message('note_on', channel=2, note=59, velocity=0, time=180),\n",
      "    Message('note_on', channel=2, note=50, velocity=0, time=0),\n",
      "    Message('note_on', channel=2, note=55, velocity=0, time=0),\n",
      "    Message('note_on', channel=2, note=62, velocity=0, time=0),\n",
      "    Message('note_on', channel=2, note=61, velocity=90, time=0),\n",
      "    Message('note_on', channel=2, note=52, velocity=90, time=0),\n",
      "    Message('note_on', channel=2, note=57, velocity=90, time=0),\n",
      "    Message('note_on', channel=2, note=57, velocity=0, time=120),\n",
      "    Message('note_on', channel=2, note=52, velocity=0, time=60),\n",
      "    Message('note_on', channel=2, note=61, velocity=0, time=0),\n",
      "    Message('note_on', channel=2, note=52, velocity=90, time=0),\n",
      "    Message('note_on', channel=2, note=61, velocity=90, time=0),\n",
      "    Message('note_on', channel=2, note=57, velocity=90, time=0),\n",
      "    Message('note_on', channel=2, note=61, velocity=0, time=120),\n",
      "    Message('note_on', channel=2, note=52, velocity=0, time=0),\n",
      "    Message('note_on', channel=2, note=62, velocity=90, time=0),\n",
      "    Message('note_on', channel=2, note=54, velocity=90, time=0),\n",
      "    Message('note_on', channel=2, note=54, velocity=0, time=180),\n",
      "    Message('note_on', channel=2, note=62, velocity=0, time=0),\n",
      "    Message('note_on', channel=2, note=57, velocity=0, time=0),\n",
      "    Message('note_on', channel=2, note=54, velocity=90, time=0),\n",
      "    Message('note_on', channel=2, note=57, velocity=90, time=0),\n",
      "    Message('note_on', channel=2, note=61, velocity=90, time=0),\n",
      "    Message('note_on', channel=2, note=61, velocity=0, time=180),\n",
      "    Message('note_on', channel=2, note=57, velocity=0, time=0),\n",
      "    Message('note_on', channel=2, note=54, velocity=0, time=0),\n",
      "    Message('note_on', channel=2, note=62, velocity=90, time=0),\n",
      "    Message('note_on', channel=2, note=54, velocity=90, time=0),\n",
      "    Message('note_on', channel=2, note=57, velocity=90, time=0),\n",
      "    Message('note_on', channel=2, note=57, velocity=0, time=60),\n",
      "    Message('note_on', channel=2, note=54, velocity=0, time=60),\n",
      "    Message('note_on', channel=2, note=62, velocity=0, time=0),\n",
      "    Message('note_on', channel=2, note=54, velocity=90, time=0),\n",
      "    Message('note_on', channel=2, note=62, velocity=90, time=0),\n",
      "    Message('note_on', channel=2, note=59, velocity=90, time=0),\n",
      "    Message('note_on', channel=2, note=59, velocity=0, time=180),\n",
      "    Message('note_on', channel=2, note=62, velocity=0, time=0),\n",
      "    Message('note_on', channel=2, note=54, velocity=0, time=0),\n",
      "    Message('note_on', channel=2, note=54, velocity=90, time=0),\n",
      "    Message('note_on', channel=2, note=59, velocity=90, time=0),\n",
      "    Message('note_on', channel=2, note=61, velocity=90, time=0),\n",
      "    Message('note_on', channel=2, note=61, velocity=0, time=120),\n",
      "    Message('note_on', channel=2, note=59, velocity=0, time=0),\n",
      "    Message('note_on', channel=2, note=54, velocity=0, time=0),\n",
      "    Message('note_on', channel=2, note=54, velocity=90, time=0),\n",
      "    Message('note_on', channel=2, note=61, velocity=90, time=0),\n",
      "    Message('note_on', channel=2, note=57, velocity=90, time=0),\n",
      "    Message('note_on', channel=2, note=61, velocity=0, time=60),\n",
      "    Message('note_on', channel=2, note=61, velocity=90, time=60),\n",
      "    Message('note_on', channel=2, note=61, velocity=0, time=60),\n",
      "    Message('note_on', channel=2, note=57, velocity=0, time=0),\n",
      "    Message('note_on', channel=2, note=54, velocity=0, time=0),\n",
      "    Message('note_on', channel=2, note=55, velocity=90, time=0),\n",
      "    Message('note_on', channel=2, note=50, velocity=90, time=0),\n",
      "    Message('note_on', channel=2, note=59, velocity=90, time=0),\n",
      "    Message('note_on', channel=2, note=59, velocity=0, time=180),\n",
      "    Message('note_on', channel=2, note=50, velocity=0, time=0),\n",
      "    Message('note_on', channel=2, note=55, velocity=0, time=0),\n",
      "    Message('note_on', channel=2, note=50, velocity=90, time=0),\n",
      "    Message('note_on', channel=2, note=59, velocity=90, time=0),\n",
      "    Message('note_on', channel=2, note=55, velocity=90, time=0),\n",
      "    Message('note_on', channel=2, note=55, velocity=0, time=180),\n",
      "    Message('note_on', channel=2, note=59, velocity=0, time=0),\n",
      "    Message('note_on', channel=2, note=50, velocity=0, time=0),\n",
      "    Message('note_on', channel=2, note=55, velocity=90, time=0),\n",
      "    Message('note_on', channel=2, note=50, velocity=90, time=0),\n",
      "    Message('note_on', channel=2, note=59, velocity=90, time=0),\n",
      "    Message('note_on', channel=2, note=59, velocity=0, time=120),\n",
      "    Message('note_on', channel=2, note=55, velocity=0, time=0),\n",
      "    Message('note_on', channel=2, note=55, velocity=90, time=0),\n",
      "    Message('note_on', channel=2, note=59, velocity=90, time=0),\n",
      "    Message('note_on', channel=2, note=59, velocity=0, time=120),\n",
      "    Message('note_on', channel=2, note=55, velocity=0, time=60),\n",
      "    Message('note_on', channel=2, note=50, velocity=0, time=0),\n",
      "    Message('note_on', channel=2, note=61, velocity=90, time=0),\n",
      "    Message('note_on', channel=2, note=52, velocity=90, time=0),\n",
      "    Message('note_on', channel=2, note=58, velocity=90, time=0),\n",
      "    Message('note_on', channel=2, note=57, velocity=90, time=0),\n",
      "    Message('note_on', channel=2, note=58, velocity=0, time=60),\n",
      "    Message('note_on', channel=2, note=57, velocity=0, time=120),\n",
      "    Message('note_on', channel=2, note=61, velocity=0, time=0),\n",
      "    Message('note_on', channel=2, note=61, velocity=90, time=0),\n",
      "    Message('note_on', channel=2, note=57, velocity=90, time=0),\n",
      "    Message('note_on', channel=2, note=61, velocity=0, time=60),\n",
      "    Message('note_on', channel=2, note=52, velocity=0, time=0),\n",
      "    Message('note_on', channel=2, note=54, velocity=90, time=60),\n",
      "    Message('note_on', channel=2, note=62, velocity=90, time=0),\n",
      "    Message('note_on', channel=2, note=62, velocity=0, time=180),\n",
      "    Message('note_on', channel=2, note=54, velocity=0, time=0),\n",
      "    Message('note_on', channel=2, note=57, velocity=0, time=0),\n",
      "    Message('note_on', channel=2, note=62, velocity=90, time=0),\n",
      "    Message('note_on', channel=2, note=54, velocity=90, time=0),\n",
      "    Message('note_on', channel=2, note=57, velocity=90, time=0),\n",
      "    Message('note_on', channel=2, note=57, velocity=0, time=60),\n",
      "    Message('note_on', channel=2, note=54, velocity=0, time=0),\n",
      "    Message('note_on', channel=2, note=62, velocity=0, time=0),\n",
      "    Message('note_on', channel=2, note=54, velocity=90, time=0),\n",
      "    Message('note_on', channel=2, note=62, velocity=90, time=0),\n",
      "    Message('note_on', channel=2, note=57, velocity=90, time=0),\n",
      "    Message('note_on', channel=2, note=57, velocity=0, time=240),\n",
      "    Message('note_on', channel=2, note=62, velocity=0, time=0),\n",
      "    Message('note_on', channel=2, note=54, velocity=0, time=0),\n",
      "    Message('note_on', channel=2, note=62, velocity=90, time=0),\n",
      "    Message('note_on', channel=2, note=57, velocity=90, time=0),\n",
      "    Message('note_on', channel=2, note=54, velocity=90, time=0),\n",
      "    Message('note_on', channel=2, note=54, velocity=0, time=60),\n",
      "    Message('note_on', channel=2, note=57, velocity=0, time=0),\n",
      "    Message('note_on', channel=2, note=62, velocity=0, time=0),\n",
      "    Message('note_on', channel=2, note=62, velocity=90, time=420),\n",
      "    Message('note_on', channel=2, note=57, velocity=90, time=3),\n",
      "    Message('note_on', channel=2, note=54, velocity=90, time=1),\n",
      "    Message('note_on', channel=2, note=57, velocity=0, time=168),\n",
      "    Message('note_on', channel=2, note=62, velocity=0, time=6),\n",
      "    Message('note_on', channel=2, note=54, velocity=0, time=3),\n",
      "    Message('note_on', channel=2, note=61, velocity=90, time=4),\n",
      "    Message('note_on', channel=2, note=54, velocity=90, time=0),\n",
      "    Message('note_on', channel=2, note=57, velocity=90, time=0),\n",
      "    Message('note_on', channel=2, note=57, velocity=0, time=180),\n",
      "    Message('note_on', channel=2, note=61, velocity=0, time=0),\n",
      "    Message('note_on', channel=2, note=62, velocity=90, time=0),\n",
      "    Message('note_on', channel=2, note=57, velocity=90, time=0),\n",
      "    Message('note_on', channel=2, note=57, velocity=0, time=120),\n",
      "    Message('note_on', channel=2, note=62, velocity=0, time=0),\n",
      "    Message('note_on', channel=2, note=54, velocity=0, time=0),\n",
      "    Message('note_on', channel=2, note=62, velocity=90, time=0),\n",
      "    Message('note_on', channel=2, note=59, velocity=90, time=0),\n",
      "    Message('note_on', channel=2, note=54, velocity=90, time=0),\n",
      "    Message('note_on', channel=2, note=54, velocity=0, time=180),\n",
      "    Message('note_on', channel=2, note=59, velocity=0, time=0),\n",
      "    Message('note_on', channel=2, note=62, velocity=0, time=0),\n",
      "    Message('note_on', channel=2, note=54, velocity=90, time=0),\n",
      "    Message('note_on', channel=2, note=59, velocity=90, time=0),\n",
      "    Message('note_on', channel=2, note=62, velocity=90, time=180),\n",
      "    Message('note_on', channel=2, note=62, velocity=0, time=120),\n",
      "    Message('note_on', channel=2, note=59, velocity=0, time=0),\n",
      "    Message('note_on', channel=2, note=54, velocity=0, time=0),\n",
      "    Message('note_on', channel=2, note=62, velocity=90, time=0),\n",
      "    Message('note_on', channel=2, note=59, velocity=90, time=0),\n",
      "    Message('note_on', channel=2, note=55, velocity=90, time=0),\n",
      "    Message('note_on', channel=2, note=55, velocity=0, time=180),\n",
      "    Message('note_on', channel=2, note=59, velocity=0, time=0),\n",
      "    Message('note_on', channel=2, note=62, velocity=0, time=0),\n",
      "    Message('note_on', channel=2, note=64, velocity=90, time=0),\n",
      "    Message('note_on', channel=2, note=59, velocity=90, time=0),\n",
      "    Message('note_on', channel=2, note=55, velocity=90, time=0),\n",
      "    Message('note_on', channel=2, note=59, velocity=0, time=180),\n",
      "    Message('note_on', channel=2, note=64, velocity=0, time=0),\n",
      "    Message('note_on', channel=2, note=62, velocity=90, time=0),\n",
      "    Message('note_on', channel=2, note=59, velocity=90, time=0),\n",
      "    Message('note_on', channel=2, note=59, velocity=0, time=120),\n",
      "    Message('note_on', channel=2, note=62, velocity=0, time=0),\n",
      "    Message('note_on', channel=2, note=55, velocity=0, time=0),\n",
      "    Message('note_on', channel=2, note=55, velocity=90, time=0),\n",
      "    Message('note_on', channel=2, note=59, velocity=90, time=0),\n",
      "    Message('note_on', channel=2, note=62, velocity=90, time=0),\n",
      "    Message('note_on', channel=2, note=62, velocity=0, time=180),\n",
      "    Message('note_on', channel=2, note=59, velocity=0, time=0),\n",
      "    Message('note_on', channel=2, note=55, velocity=0, time=0),\n",
      "    Message('note_on', channel=2, note=62, velocity=90, time=0),\n",
      "    Message('note_on', channel=2, note=55, velocity=90, time=0),\n",
      "    Message('note_on', channel=2, note=59, velocity=90, time=0),\n",
      "    Message('note_on', channel=2, note=59, velocity=0, time=120),\n",
      "    Message('note_on', channel=2, note=62, velocity=0, time=60),\n",
      "    Message('note_on', channel=2, note=57, velocity=90, time=0),\n",
      "    Message('note_on', channel=2, note=61, velocity=90, time=0),\n",
      "    Message('note_on', channel=2, note=62, velocity=90, time=0),\n",
      "    Message('note_on', channel=2, note=62, velocity=0, time=60),\n",
      "    Message('note_on', channel=2, note=55, velocity=0, time=0),\n",
      "    Message('note_on', channel=2, note=57, velocity=0, time=0),\n",
      "    Message('note_on', channel=2, note=61, velocity=0, time=60),\n",
      "    Message('note_on', channel=2, note=62, velocity=90, time=0),\n",
      "    Message('note_on', channel=2, note=57, velocity=90, time=0),\n",
      "    Message('note_on', channel=2, note=54, velocity=90, time=0),\n",
      "    Message('note_on', channel=2, note=54, velocity=0, time=180),\n",
      "    Message('note_on', channel=2, note=57, velocity=0, time=0),\n",
      "    Message('note_on', channel=2, note=62, velocity=0, time=0),\n",
      "    Message('note_on', channel=2, note=62, velocity=90, time=0),\n",
      "    Message('note_on', channel=2, note=57, velocity=90, time=0),\n",
      "    Message('note_on', channel=2, note=54, velocity=90, time=0),\n",
      "    Message('note_on', channel=2, note=54, velocity=0, time=180),\n",
      "    Message('note_on', channel=2, note=57, velocity=0, time=0),\n",
      "    Message('note_on', channel=2, note=62, velocity=0, time=0),\n",
      "    Message('note_on', channel=2, note=54, velocity=90, time=0),\n",
      "    Message('note_on', channel=2, note=57, velocity=90, time=0),\n",
      "    Message('note_on', channel=2, note=57, velocity=0, time=120),\n",
      "    Message('note_on', channel=2, note=54, velocity=0, time=0),\n",
      "    Message('note_on', channel=2, note=62, velocity=90, time=0),\n",
      "    Message('note_on', channel=2, note=54, velocity=90, time=0),\n",
      "    Message('note_on', channel=2, note=59, velocity=90, time=0),\n",
      "    Message('note_on', channel=2, note=62, velocity=0, time=120),\n",
      "    Message('note_on', channel=2, note=59, velocity=0, time=60),\n",
      "    Message('note_on', channel=2, note=54, velocity=0, time=0),\n",
      "    Message('note_on', channel=2, note=59, velocity=90, time=0),\n",
      "    Message('note_on', channel=2, note=64, velocity=90, time=0),\n",
      "    Message('note_on', channel=2, note=54, velocity=90, time=0),\n",
      "    Message('note_on', channel=2, note=54, velocity=0, time=180),\n",
      "    Message('note_on', channel=2, note=64, velocity=0, time=0),\n",
      "    Message('note_on', channel=2, note=62, velocity=90, time=0),\n",
      "    Message('note_on', channel=2, note=54, velocity=90, time=0),\n",
      "    Message('note_on', channel=2, note=54, velocity=0, time=60),\n",
      "    Message('note_on', channel=2, note=62, velocity=0, time=60),\n",
      "    Message('note_on', channel=2, note=59, velocity=0, time=0),\n",
      "    Message('note_on', channel=2, note=62, velocity=90, time=0),\n",
      "    Message('note_on', channel=2, note=59, velocity=90, time=0),\n",
      "    Message('note_on', channel=2, note=55, velocity=90, time=0),\n",
      "    Message('note_on', channel=2, note=59, velocity=0, time=60),\n",
      "    Message('note_on', channel=2, note=59, velocity=90, time=0),\n",
      "    Message('note_on', channel=2, note=59, velocity=0, time=120),\n",
      "    Message('note_on', channel=2, note=55, velocity=0, time=0),\n",
      "    Message('note_on', channel=2, note=62, velocity=0, time=0),\n",
      "    Message('note_on', channel=2, note=62, velocity=90, time=0),\n",
      "    Message('note_on', channel=2, note=59, velocity=90, time=0),\n",
      "    Message('note_on', channel=2, note=55, velocity=90, time=0),\n",
      "    Message('note_on', channel=2, note=55, velocity=0, time=180),\n",
      "    Message('note_on', channel=2, note=59, velocity=0, time=0),\n",
      "    Message('note_on', channel=2, note=62, velocity=0, time=0),\n",
      "    Message('note_on', channel=2, note=55, velocity=90, time=0),\n",
      "    Message('note_on', channel=2, note=59, velocity=90, time=0),\n",
      "    Message('note_on', channel=2, note=62, velocity=90, time=0),\n",
      "    Message('note_on', channel=2, note=55, velocity=0, time=60),\n",
      "    Message('note_on', channel=2, note=62, velocity=0, time=60),\n",
      "    Message('note_on', channel=2, note=59, velocity=0, time=0),\n",
      "    Message('note_on', channel=2, note=62, velocity=90, time=0),\n",
      "    Message('note_on', channel=2, note=55, velocity=90, time=0),\n",
      "    Message('note_on', channel=2, note=59, velocity=90, time=0),\n",
      "    Message('note_on', channel=2, note=59, velocity=0, time=180),\n",
      "    Message('note_on', channel=2, note=55, velocity=0, time=0),\n",
      "    Message('note_on', channel=2, note=62, velocity=0, time=0),\n",
      "    Message('note_on', channel=2, note=55, velocity=90, time=0),\n",
      "    Message('note_on', channel=2, note=62, velocity=90, time=0),\n",
      "    Message('note_on', channel=2, note=59, velocity=90, time=0),\n",
      "    Message('note_on', channel=2, note=59, velocity=0, time=180),\n",
      "    Message('note_on', channel=2, note=62, velocity=0, time=0),\n",
      "    Message('note_on', channel=2, note=55, velocity=0, time=0),\n",
      "    Message('note_on', channel=2, note=62, velocity=90, time=0),\n",
      "    Message('note_on', channel=2, note=55, velocity=90, time=0),\n",
      "    Message('note_on', channel=2, note=59, velocity=90, time=0),\n",
      "    Message('note_on', channel=2, note=55, velocity=0, time=60),\n",
      "    Message('note_on', channel=2, note=59, velocity=0, time=60),\n",
      "    Message('note_on', channel=2, note=62, velocity=0, time=0),\n",
      "    Message('note_on', channel=2, note=54, velocity=90, time=0),\n",
      "    Message('note_on', channel=2, note=57, velocity=90, time=0),\n",
      "    Message('note_on', channel=2, note=64, velocity=90, time=0),\n",
      "    Message('note_on', channel=2, note=61, velocity=90, time=0),\n",
      "    Message('note_on', channel=2, note=64, velocity=0, time=60),\n",
      "    Message('note_on', channel=2, note=54, velocity=0, time=60),\n",
      "    Message('note_on', channel=2, note=57, velocity=0, time=60),\n",
      "    Message('note_on', channel=2, note=61, velocity=0, time=0),\n",
      "    Message('note_on', channel=2, note=64, velocity=90, time=0),\n",
      "    Message('note_on', channel=2, note=57, velocity=90, time=0),\n",
      "    Message('note_on', channel=2, note=54, velocity=90, time=0),\n",
      "    Message('note_on', channel=2, note=54, velocity=0, time=180),\n",
      "    Message('note_on', channel=2, note=57, velocity=0, time=0),\n",
      "    Message('note_on', channel=2, note=64, velocity=0, time=0),\n",
      "    Message('note_on', channel=2, note=57, velocity=90, time=0),\n",
      "    Message('note_on', channel=2, note=61, velocity=90, time=0),\n",
      "    Message('note_on', channel=2, note=54, velocity=90, time=0),\n",
      "    Message('note_on', channel=2, note=54, velocity=0, time=120),\n",
      "    Message('note_on', channel=2, note=61, velocity=0, time=0),\n",
      "    Message('note_on', channel=2, note=57, velocity=0, time=0),\n",
      "    Message('note_on', channel=2, note=62, velocity=90, time=0),\n",
      "    Message('note_on', channel=2, note=54, velocity=90, time=0),\n",
      "    Message('note_on', channel=2, note=59, velocity=90, time=0),\n",
      "    Message('note_on', channel=2, note=59, velocity=0, time=180),\n",
      "    Message('note_on', channel=2, note=62, velocity=0, time=0),\n",
      "    Message('note_on', channel=2, note=59, velocity=90, time=0),\n",
      "    Message('note_on', channel=2, note=59, velocity=0, time=180),\n",
      "    Message('note_on', channel=2, note=54, velocity=0, time=0),\n",
      "    Message('note_on', channel=2, note=62, velocity=90, time=0),\n",
      "    Message('note_on', channel=2, note=59, velocity=90, time=0),\n",
      "    Message('note_on', channel=2, note=54, velocity=90, time=0),\n",
      "    Message('note_on', channel=2, note=59, velocity=0, time=120),\n",
      "    Message('note_on', channel=2, note=62, velocity=0, time=0),\n",
      "    Message('note_on', channel=2, note=61, velocity=90, time=0),\n",
      "    Message('note_on', channel=2, note=57, velocity=90, time=0),\n",
      "    Message('note_on', channel=2, note=57, velocity=0, time=120),\n",
      "    Message('note_on', channel=2, note=54, velocity=0, time=0),\n",
      "    Message('note_on', channel=2, note=61, velocity=0, time=60),\n",
      "    Message('note_on', channel=2, note=64, velocity=90, time=0),\n",
      "    Message('note_on', channel=2, note=57, velocity=90, time=0),\n",
      "    Message('note_on', channel=2, note=54, velocity=90, time=0),\n",
      "    Message('note_on', channel=2, note=54, velocity=0, time=180),\n",
      "    Message('note_on', channel=2, note=57, velocity=0, time=0),\n",
      "    Message('note_on', channel=2, note=64, velocity=0, time=0),\n",
      "    Message('note_on', channel=2, note=61, velocity=90, time=0),\n",
      "    Message('note_on', channel=2, note=57, velocity=90, time=0),\n",
      "    Message('note_on', channel=2, note=54, velocity=90, time=0),\n",
      "    Message('note_on', channel=2, note=54, velocity=0, time=120),\n",
      "    Message('note_on', channel=2, note=57, velocity=0, time=0),\n",
      "    Message('note_on', channel=2, note=61, velocity=0, time=0),\n",
      "    Message('note_on', channel=2, note=54, velocity=90, time=0),\n",
      "    Message('note_on', channel=2, note=62, velocity=90, time=0),\n",
      "    Message('note_on', channel=2, note=59, velocity=90, time=0),\n",
      "    Message('note_on', channel=2, note=62, velocity=0, time=120),\n",
      "    Message('note_on', channel=2, note=59, velocity=0, time=60),\n",
      "    Message('note_on', channel=2, note=54, velocity=0, time=0),\n",
      "    Message('note_on', channel=2, note=59, velocity=90, time=0),\n",
      "    Message('note_on', channel=2, note=54, velocity=90, time=0),\n",
      "    Message('note_on', channel=2, note=54, velocity=0, time=180),\n",
      "    Message('note_on', channel=2, note=59, velocity=0, time=0),\n",
      "    Message('note_on', channel=2, note=62, velocity=90, time=0),\n",
      "    Message('note_on', channel=2, note=59, velocity=90, time=0),\n",
      "    Message('note_on', channel=2, note=54, velocity=90, time=0),\n",
      "    Message('note_on', channel=2, note=54, velocity=0, time=60),\n",
      "    Message('note_on', channel=2, note=59, velocity=0, time=60),\n",
      "    Message('note_on', channel=2, note=62, velocity=0, time=0),\n",
      "    Message('note_on', channel=2, note=62, velocity=90, time=0),\n",
      "    Message('note_on', channel=2, note=59, velocity=90, time=0),\n",
      "    Message('note_on', channel=2, note=55, velocity=90, time=0),\n",
      "    Message('note_on', channel=2, note=55, velocity=0, time=180),\n",
      "    Message('note_on', channel=2, note=59, velocity=0, time=0),\n",
      "    Message('note_on', channel=2, note=62, velocity=0, time=0),\n",
      "    Message('note_on', channel=2, note=55, velocity=90, time=0),\n",
      "    Message('note_on', channel=2, note=62, velocity=90, time=0),\n",
      "    Message('note_on', channel=2, note=59, velocity=90, time=0),\n",
      "    Message('note_on', channel=2, note=59, velocity=0, time=180),\n",
      "    Message('note_on', channel=2, note=62, velocity=0, time=0),\n",
      "    Message('note_on', channel=2, note=55, velocity=0, time=0),\n",
      "    Message('note_on', channel=2, note=62, velocity=90, time=0),\n",
      "    Message('note_on', channel=2, note=55, velocity=90, time=0),\n",
      "    Message('note_on', channel=2, note=59, velocity=90, time=0),\n",
      "    Message('note_on', channel=2, note=59, velocity=0, time=60),\n",
      "    Message('note_on', channel=2, note=55, velocity=0, time=60),\n",
      "    Message('note_on', channel=2, note=62, velocity=0, time=0),\n",
      "    Message('note_on', channel=2, note=61, velocity=90, time=0),\n",
      "    Message('note_on', channel=2, note=57, velocity=90, time=0),\n",
      "    Message('note_on', channel=2, note=54, velocity=90, time=0),\n",
      "    Message('note_on', channel=2, note=54, velocity=0, time=180),\n",
      "    Message('note_on', channel=2, note=57, velocity=0, time=0),\n",
      "    Message('note_on', channel=2, note=61, velocity=0, time=0),\n",
      "    Message('note_on', channel=2, note=62, velocity=90, time=0),\n",
      "    Message('note_on', channel=2, note=59, velocity=90, time=0),\n",
      "    Message('note_on', channel=2, note=54, velocity=90, time=0),\n",
      "    Message('note_on', channel=2, note=54, velocity=0, time=180),\n",
      "    Message('note_on', channel=2, note=59, velocity=0, time=0),\n",
      "    Message('note_on', channel=2, note=62, velocity=0, time=0),\n",
      "    Message('note_on', channel=2, note=54, velocity=90, time=0),\n",
      "    Message('note_on', channel=2, note=59, velocity=90, time=0),\n",
      "    Message('note_on', channel=2, note=59, velocity=0, time=60),\n",
      "    Message('note_on', channel=2, note=54, velocity=0, time=60),\n",
      "    Message('note_on', channel=2, note=55, velocity=90, time=0),\n",
      "    Message('note_on', channel=2, note=52, velocity=90, time=0),\n",
      "    Message('note_on', channel=2, note=62, velocity=90, time=0),\n",
      "    Message('note_on', channel=2, note=59, velocity=90, time=0),\n",
      "    Message('note_on', channel=2, note=59, velocity=0, time=180),\n",
      "    Message('note_on', channel=2, note=55, velocity=0, time=0),\n",
      "    Message('note_on', channel=2, note=52, velocity=0, time=0),\n",
      "    Message('note_on', channel=2, note=62, velocity=0, time=0),\n",
      "    Message('note_on', channel=2, note=55, velocity=90, time=0),\n",
      "    Message('note_on', channel=2, note=59, velocity=90, time=0),\n",
      "    Message('note_on', channel=2, note=52, velocity=90, time=0),\n",
      "    Message('note_on', channel=2, note=52, velocity=0, time=180),\n",
      "    Message('note_on', channel=2, note=59, velocity=0, time=0),\n",
      "    Message('note_on', channel=2, note=55, velocity=0, time=0),\n",
      "    Message('note_on', channel=2, note=62, velocity=90, time=0),\n",
      "    Message('note_on', channel=2, note=59, velocity=90, time=0),\n",
      "    Message('note_on', channel=2, note=55, velocity=90, time=0),\n",
      "    Message('note_on', channel=2, note=52, velocity=90, time=0),\n",
      "    Message('note_on', channel=2, note=52, velocity=0, time=120),\n",
      "    Message('note_on', channel=2, note=62, velocity=0, time=0),\n",
      "    Message('note_on', channel=2, note=59, velocity=0, time=0),\n",
      "    Message('note_on', channel=2, note=55, velocity=0, time=0),\n",
      "    Message('note_on', channel=2, note=52, velocity=90, time=0),\n",
      "    Message('note_on', channel=2, note=62, velocity=90, time=0),\n",
      "    Message('note_on', channel=2, note=59, velocity=90, time=0),\n",
      "    Message('note_on', channel=2, note=57, velocity=90, time=0),\n",
      "    Message('note_on', channel=2, note=55, velocity=90, time=0),\n",
      "    Message('note_on', channel=2, note=55, velocity=0, time=60),\n",
      "    Message('note_on', channel=2, note=59, velocity=0, time=0),\n",
      "    Message('note_on', channel=2, note=52, velocity=0, time=60),\n",
      "    Message('note_on', channel=2, note=62, velocity=0, time=60),\n",
      "    Message('note_on', channel=2, note=57, velocity=0, time=0),\n",
      "    Message('note_on', channel=2, note=57, velocity=90, time=0),\n",
      "    Message('note_on', channel=2, note=52, velocity=90, time=0),\n",
      "    Message('note_on', channel=2, note=62, velocity=90, time=0),\n",
      "    Message('note_on', channel=2, note=62, velocity=0, time=60),\n",
      "    Message('note_on', channel=2, note=62, velocity=90, time=0),\n",
      "    Message('note_on', channel=2, note=52, velocity=0, time=60),\n",
      "    Message('note_on', channel=2, note=57, velocity=0, time=60),\n",
      "    Message('note_on', channel=2, note=62, velocity=90, time=0),\n",
      "    Message('note_on', channel=2, note=57, velocity=90, time=0),\n",
      "    Message('note_on', channel=2, note=52, velocity=90, time=0),\n",
      "    Message('note_on', channel=2, note=62, velocity=0, time=60),\n",
      "    Message('note_on', channel=2, note=62, velocity=0, time=60),\n",
      "    Message('note_on', channel=2, note=57, velocity=0, time=0),\n",
      "    Message('note_on', channel=2, note=52, velocity=0, time=0),\n",
      "    Message('note_on', channel=2, note=52, velocity=90, time=0),\n",
      "    Message('note_on', channel=2, note=61, velocity=90, time=0),\n",
      "    Message('note_on', channel=2, note=57, velocity=90, time=0),\n",
      "    Message('note_on', channel=2, note=57, velocity=0, time=240),\n",
      "    Message('note_on', channel=2, note=61, velocity=0, time=0),\n",
      "    Message('note_on', channel=2, note=52, velocity=0, time=0),\n",
      "    Message('note_on', channel=2, note=62, velocity=90, time=235),\n",
      "    Message('note_on', channel=2, note=57, velocity=90, time=0),\n",
      "    Message('note_on', channel=2, note=54, velocity=90, time=0),\n",
      "    Message('note_on', channel=2, note=57, velocity=0, time=120),\n",
      "    Message('note_on', channel=2, note=62, velocity=0, time=60),\n",
      "    Message('note_on', channel=2, note=62, velocity=90, time=0),\n",
      "    Message('note_on', channel=2, note=57, velocity=90, time=0),\n",
      "    Message('note_on', channel=2, note=57, velocity=0, time=120),\n",
      "    Message('note_on', channel=2, note=62, velocity=0, time=0),\n",
      "    Message('note_on', channel=2, note=57, velocity=90, time=0),\n",
      "    Message('note_on', channel=2, note=61, velocity=90, time=0),\n",
      "    Message('note_on', channel=2, note=54, velocity=0, time=60),\n",
      "    Message('note_on', channel=2, note=61, velocity=0, time=60),\n",
      "    Message('note_on', channel=2, note=57, velocity=0, time=0),\n",
      "    Message('note_on', channel=2, note=54, velocity=90, time=0),\n",
      "    Message('note_on', channel=2, note=62, velocity=90, time=0),\n",
      "    Message('note_on', channel=2, note=62, velocity=0, time=60),\n",
      "    Message('note_on', channel=2, note=54, velocity=0, time=0),\n",
      "    Message('note_on', channel=2, note=62, velocity=90, time=0),\n",
      "    Message('note_on', channel=2, note=54, velocity=90, time=0),\n",
      "    Message('note_on', channel=2, note=59, velocity=90, time=0),\n",
      "    Message('note_on', channel=2, note=59, velocity=0, time=120),\n",
      "    Message('note_on', channel=2, note=54, velocity=0, time=60),\n",
      "    Message('note_on', channel=2, note=62, velocity=0, time=0),\n",
      "    Message('note_on', channel=2, note=61, velocity=90, time=0),\n",
      "    Message('note_on', channel=2, note=59, velocity=90, time=0),\n",
      "    Message('note_on', channel=2, note=54, velocity=90, time=0),\n",
      "    Message('note_on', channel=2, note=54, velocity=0, time=180),\n",
      "    Message('note_on', channel=2, note=59, velocity=0, time=0),\n",
      "    Message('note_on', channel=2, note=61, velocity=0, time=0),\n",
      "    Message('note_on', channel=2, note=54, velocity=90, time=0),\n",
      "    Message('note_on', channel=2, note=57, velocity=90, time=0),\n",
      "    Message('note_on', channel=2, note=57, velocity=0, time=60),\n",
      "    Message('note_on', channel=2, note=54, velocity=0, time=0),\n",
      "    Message('note_on', channel=2, note=59, velocity=90, time=60),\n",
      "    Message('note_on', channel=2, note=55, velocity=90, time=0),\n",
      "    Message('note_on', channel=2, note=50, velocity=90, time=0),\n",
      "    Message('note_on', channel=2, note=50, velocity=0, time=180),\n",
      "    Message('note_on', channel=2, note=55, velocity=0, time=0),\n",
      "    Message('note_on', channel=2, note=59, velocity=0, time=0),\n",
      "    Message('note_on', channel=2, note=59, velocity=90, time=0),\n",
      "    Message('note_on', channel=2, note=55, velocity=90, time=0),\n",
      "    Message('note_on', channel=2, note=50, velocity=90, time=0),\n",
      "    Message('note_on', channel=2, note=55, velocity=0, time=180),\n",
      "    Message('note_on', channel=2, note=59, velocity=0, time=0),\n",
      "    Message('note_on', channel=2, note=55, velocity=90, time=0),\n",
      "    Message('note_on', channel=2, note=59, velocity=90, time=0),\n",
      "    Message('note_on', channel=2, note=59, velocity=0, time=120),\n",
      "    Message('note_on', channel=2, note=55, velocity=0, time=0),\n",
      "    Message('note_on', channel=2, note=55, velocity=90, time=0),\n",
      "    Message('note_on', channel=2, note=62, velocity=90, time=0),\n",
      "    Message('note_on', channel=2, note=59, velocity=90, time=0),\n",
      "    Message('note_on', channel=2, note=59, velocity=0, time=180),\n",
      "    Message('note_on', channel=2, note=50, velocity=0, time=0),\n",
      "    Message('note_on', channel=2, note=55, velocity=0, time=0),\n",
      "    Message('note_on', channel=2, note=62, velocity=0, time=0),\n",
      "    Message('note_on', channel=2, note=61, velocity=90, time=0),\n",
      "    Message('note_on', channel=2, note=52, velocity=90, time=0),\n",
      "    Message('note_on', channel=2, note=57, velocity=90, time=0),\n",
      "    Message('note_on', channel=2, note=57, velocity=0, time=120),\n",
      "    Message('note_on', channel=2, note=52, velocity=0, time=60),\n",
      "    Message('note_on', channel=2, note=61, velocity=0, time=0),\n",
      "    Message('note_on', channel=2, note=52, velocity=90, time=0),\n",
      "    Message('note_on', channel=2, note=61, velocity=90, time=0),\n",
      "    Message('note_on', channel=2, note=57, velocity=90, time=0),\n",
      "    Message('note_on', channel=2, note=61, velocity=0, time=120),\n",
      "    Message('note_on', channel=2, note=52, velocity=0, time=0),\n",
      "    Message('note_on', channel=2, note=62, velocity=90, time=0),\n",
      "    Message('note_on', channel=2, note=54, velocity=90, time=0),\n",
      "    Message('note_on', channel=2, note=54, velocity=0, time=180),\n",
      "    Message('note_on', channel=2, note=62, velocity=0, time=0),\n",
      "    Message('note_on', channel=2, note=57, velocity=0, time=0),\n",
      "    Message('note_on', channel=2, note=54, velocity=90, time=0),\n",
      "    Message('note_on', channel=2, note=57, velocity=90, time=0),\n",
      "    Message('note_on', channel=2, note=61, velocity=90, time=0),\n",
      "    Message('note_on', channel=2, note=61, velocity=0, time=180),\n",
      "    Message('note_on', channel=2, note=57, velocity=0, time=0),\n",
      "    Message('note_on', channel=2, note=54, velocity=0, time=0),\n",
      "    Message('note_on', channel=2, note=62, velocity=90, time=0),\n",
      "    Message('note_on', channel=2, note=54, velocity=90, time=0),\n",
      "    Message('note_on', channel=2, note=57, velocity=90, time=0),\n",
      "    Message('note_on', channel=2, note=57, velocity=0, time=60),\n",
      "    Message('note_on', channel=2, note=54, velocity=0, time=60),\n",
      "    Message('note_on', channel=2, note=62, velocity=0, time=0),\n",
      "    Message('note_on', channel=2, note=54, velocity=90, time=0),\n",
      "    Message('note_on', channel=2, note=62, velocity=90, time=0),\n",
      "    Message('note_on', channel=2, note=59, velocity=90, time=0),\n",
      "    Message('note_on', channel=2, note=59, velocity=0, time=180),\n",
      "    Message('note_on', channel=2, note=62, velocity=0, time=0),\n",
      "    Message('note_on', channel=2, note=54, velocity=0, time=0),\n",
      "    Message('note_on', channel=2, note=54, velocity=90, time=0),\n",
      "    Message('note_on', channel=2, note=59, velocity=90, time=0),\n",
      "    Message('note_on', channel=2, note=61, velocity=90, time=0),\n",
      "    Message('note_on', channel=2, note=61, velocity=0, time=120),\n",
      "    Message('note_on', channel=2, note=59, velocity=0, time=0),\n",
      "    Message('note_on', channel=2, note=54, velocity=0, time=0),\n",
      "    Message('note_on', channel=2, note=54, velocity=90, time=0),\n",
      "    Message('note_on', channel=2, note=61, velocity=90, time=0),\n",
      "    Message('note_on', channel=2, note=57, velocity=90, time=0),\n",
      "    Message('note_on', channel=2, note=61, velocity=0, time=60),\n",
      "    Message('note_on', channel=2, note=61, velocity=90, time=60),\n",
      "    Message('note_on', channel=2, note=61, velocity=0, time=60),\n",
      "    Message('note_on', channel=2, note=57, velocity=0, time=0),\n",
      "    Message('note_on', channel=2, note=54, velocity=0, time=0),\n",
      "    Message('note_on', channel=2, note=55, velocity=90, time=0),\n",
      "    Message('note_on', channel=2, note=50, velocity=90, time=0),\n",
      "    Message('note_on', channel=2, note=59, velocity=90, time=0),\n",
      "    Message('note_on', channel=2, note=59, velocity=0, time=180),\n",
      "    Message('note_on', channel=2, note=50, velocity=0, time=0),\n",
      "    Message('note_on', channel=2, note=55, velocity=0, time=0),\n",
      "    Message('note_on', channel=2, note=50, velocity=90, time=0),\n",
      "    Message('note_on', channel=2, note=59, velocity=90, time=0),\n",
      "    Message('note_on', channel=2, note=55, velocity=90, time=0),\n",
      "    Message('note_on', channel=2, note=55, velocity=0, time=180),\n",
      "    Message('note_on', channel=2, note=59, velocity=0, time=0),\n",
      "    Message('note_on', channel=2, note=50, velocity=0, time=0),\n",
      "    Message('note_on', channel=2, note=55, velocity=90, time=0),\n",
      "    Message('note_on', channel=2, note=50, velocity=90, time=0),\n",
      "    Message('note_on', channel=2, note=59, velocity=90, time=0),\n",
      "    Message('note_on', channel=2, note=59, velocity=0, time=120),\n",
      "    Message('note_on', channel=2, note=55, velocity=0, time=0),\n",
      "    Message('note_on', channel=2, note=55, velocity=90, time=0),\n",
      "    Message('note_on', channel=2, note=59, velocity=90, time=0),\n",
      "    Message('note_on', channel=2, note=59, velocity=0, time=120),\n",
      "    Message('note_on', channel=2, note=55, velocity=0, time=60),\n",
      "    Message('note_on', channel=2, note=50, velocity=0, time=0),\n",
      "    Message('note_on', channel=2, note=61, velocity=90, time=0),\n",
      "    Message('note_on', channel=2, note=52, velocity=90, time=0),\n",
      "    Message('note_on', channel=2, note=58, velocity=90, time=0),\n",
      "    Message('note_on', channel=2, note=57, velocity=90, time=0),\n",
      "    Message('note_on', channel=2, note=58, velocity=0, time=60),\n",
      "    Message('note_on', channel=2, note=57, velocity=0, time=120),\n",
      "    Message('note_on', channel=2, note=61, velocity=0, time=0),\n",
      "    Message('note_on', channel=2, note=61, velocity=90, time=0),\n",
      "    Message('note_on', channel=2, note=57, velocity=90, time=0),\n",
      "    Message('note_on', channel=2, note=61, velocity=0, time=60),\n",
      "    Message('note_on', channel=2, note=52, velocity=0, time=0),\n",
      "    Message('note_on', channel=2, note=54, velocity=90, time=60),\n",
      "    Message('note_on', channel=2, note=62, velocity=90, time=0),\n",
      "    Message('note_on', channel=2, note=62, velocity=0, time=180),\n",
      "    Message('note_on', channel=2, note=54, velocity=0, time=0),\n",
      "    Message('note_on', channel=2, note=57, velocity=0, time=0),\n",
      "    Message('note_on', channel=2, note=62, velocity=90, time=0),\n",
      "    Message('note_on', channel=2, note=54, velocity=90, time=0),\n",
      "    Message('note_on', channel=2, note=57, velocity=90, time=0),\n",
      "    Message('note_on', channel=2, note=57, velocity=0, time=60),\n",
      "    Message('note_on', channel=2, note=54, velocity=0, time=0),\n",
      "    Message('note_on', channel=2, note=62, velocity=0, time=0),\n",
      "    Message('note_on', channel=2, note=54, velocity=90, time=0),\n",
      "    Message('note_on', channel=2, note=62, velocity=90, time=0),\n",
      "    Message('note_on', channel=2, note=57, velocity=90, time=0),\n",
      "    Message('note_on', channel=2, note=57, velocity=0, time=240),\n",
      "    Message('note_on', channel=2, note=62, velocity=0, time=0),\n",
      "    Message('note_on', channel=2, note=54, velocity=0, time=0),\n",
      "    Message('note_on', channel=2, note=62, velocity=90, time=0),\n",
      "    Message('note_on', channel=2, note=57, velocity=90, time=0),\n",
      "    Message('note_on', channel=2, note=54, velocity=90, time=0),\n",
      "    Message('note_on', channel=2, note=54, velocity=0, time=60),\n",
      "    Message('note_on', channel=2, note=57, velocity=0, time=0),\n",
      "    Message('note_on', channel=2, note=62, velocity=0, time=0),\n",
      "    Message('note_on', channel=2, note=68, velocity=90, time=420),\n",
      "    Message('note_on', channel=2, note=64, velocity=90, time=0),\n",
      "    Message('note_on', channel=2, note=59, velocity=90, time=0),\n",
      "    Message('note_on', channel=2, note=66, velocity=90, time=0),\n",
      "    Message('note_on', channel=2, note=66, velocity=90, time=0),\n",
      "    Message('note_on', channel=2, note=66, velocity=0, time=240),\n",
      "    Message('note_on', channel=2, note=66, velocity=0, time=0),\n",
      "    Message('note_on', channel=2, note=66, velocity=90, time=0),\n",
      "    Message('note_on', channel=2, note=66, velocity=0, time=240),\n",
      "    Message('note_on', channel=2, note=59, velocity=0, time=0),\n",
      "    Message('note_on', channel=2, note=64, velocity=0, time=0),\n",
      "    Message('note_on', channel=2, note=68, velocity=0, time=0),\n",
      "    Message('note_on', channel=2, note=64, velocity=90, time=0),\n",
      "    Message('note_on', channel=2, note=61, velocity=90, time=0),\n",
      "    Message('note_on', channel=2, note=68, velocity=90, time=0),\n",
      "    Message('note_on', channel=2, note=68, velocity=0, time=480),\n",
      "    Message('note_on', channel=2, note=61, velocity=0, time=0),\n",
      "    Message('note_on', channel=2, note=64, velocity=0, time=0),\n",
      "    Message('note_on', channel=2, note=64, velocity=90, time=0),\n",
      "    Message('note_on', channel=2, note=61, velocity=90, time=0),\n",
      "    Message('note_on', channel=2, note=57, velocity=90, time=0),\n",
      "    Message('note_on', channel=2, note=57, velocity=90, time=0),\n",
      "    Message('note_on', channel=2, note=57, velocity=0, time=240),\n",
      "    Message('note_on', channel=2, note=64, velocity=0, time=0),\n",
      "    Message('note_on', channel=2, note=61, velocity=0, time=0),\n",
      "    Message('note_on', channel=2, note=61, velocity=90, time=60),\n",
      "    Message('note_on', channel=2, note=61, velocity=0, time=60),\n",
      "    Message('note_on', channel=2, note=64, velocity=90, time=0),\n",
      "    Message('note_on', channel=2, note=64, velocity=0, time=60),\n",
      "    Message('note_on', channel=2, note=64, velocity=90, time=0),\n",
      "    Message('note_on', channel=2, note=69, velocity=90, time=0),\n",
      "    Message('note_on', channel=2, note=57, velocity=0, time=60),\n",
      "    Message('note_on', channel=2, note=69, velocity=0, time=60),\n",
      "    Message('note_on', channel=2, note=64, velocity=0, time=0),\n",
      "    Message('note_on', channel=2, note=68, velocity=90, time=0),\n",
      "    Message('note_on', channel=2, note=64, velocity=90, time=0),\n",
      "    Message('note_on', channel=2, note=64, velocity=0, time=120),\n",
      "    Message('note_on', channel=2, note=68, velocity=0, time=0),\n",
      "    Message('note_on', channel=2, note=64, velocity=90, time=0),\n",
      "    Message('note_on', channel=2, note=61, velocity=90, time=0),\n",
      "    Message('note_on', channel=2, note=61, velocity=0, time=120),\n",
      "    Message('note_on', channel=2, note=64, velocity=0, time=0),\n",
      "    Message('note_on', channel=2, note=61, velocity=90, time=0),\n",
      "    Message('note_on', channel=2, note=57, velocity=90, time=0),\n",
      "    Message('note_on', channel=2, note=64, velocity=90, time=60),\n",
      "    Message('note_on', channel=2, note=57, velocity=90, time=0),\n",
      "    Message('note_on', channel=2, note=61, velocity=90, time=0),\n",
      "    Message('note_on', channel=2, note=57, velocity=0, time=60),\n",
      "    Message('note_on', channel=2, note=57, velocity=0, time=0),\n",
      "    Message('note_on', channel=2, note=61, velocity=0, time=0),\n",
      "    Message('note_on', channel=2, note=59, velocity=90, time=0),\n",
      "    Message('note_on', channel=2, note=56, velocity=90, time=0),\n",
      "    Message('note_on', channel=2, note=64, velocity=0, time=60),\n",
      "    Message('note_on', channel=2, note=61, velocity=0, time=0),\n",
      "    Message('note_on', channel=2, note=66, velocity=90, time=0),\n",
      "    Message('note_on', channel=2, note=63, velocity=90, time=0),\n",
      "    Message('note_on', channel=2, note=56, velocity=90, time=0),\n",
      "    Message('note_on', channel=2, note=59, velocity=90, time=0),\n",
      "    Message('note_on', channel=2, note=66, velocity=90, time=0),\n",
      "    Message('note_on', channel=2, note=63, velocity=90, time=0),\n",
      "    Message('note_on', channel=2, note=66, velocity=0, time=60),\n",
      "    Message('note_on', channel=2, note=56, velocity=0, time=0),\n",
      "    Message('note_on', channel=2, note=59, velocity=0, time=0),\n",
      "    Message('note_on', channel=2, note=56, velocity=0, time=60),\n",
      "    Message('note_on', channel=2, note=63, velocity=0, time=60),\n",
      "    Message('note_on', channel=2, note=59, velocity=0, time=0),\n",
      "    Message('note_on', channel=2, note=66, velocity=90, time=0),\n",
      "    Message('note_on', channel=2, note=59, velocity=90, time=0),\n",
      "    Message('note_on', channel=2, note=56, velocity=90, time=0),\n",
      "    Message('note_on', channel=2, note=56, velocity=0, time=180),\n",
      "    Message('note_on', channel=2, note=66, velocity=0, time=0),\n",
      "    Message('note_on', channel=2, note=59, velocity=0, time=0),\n",
      "    Message('note_on', channel=2, note=59, velocity=90, time=0),\n",
      "    Message('note_on', channel=2, note=63, velocity=90, time=0),\n",
      "    Message('note_on', channel=2, note=56, velocity=90, time=0),\n",
      "    Message('note_on', channel=2, note=56, velocity=0, time=120),\n",
      "    Message('note_on', channel=2, note=59, velocity=0, time=0),\n",
      "    Message('note_on', channel=2, note=63, velocity=0, time=0),\n",
      "    Message('note_on', channel=2, note=66, velocity=0, time=0),\n",
      "    Message('note_on', channel=2, note=63, velocity=0, time=0),\n",
      "    Message('note_on', channel=2, note=64, velocity=90, time=0),\n",
      "    Message('note_on', channel=2, note=56, velocity=90, time=0),\n",
      "    Message('note_on', channel=2, note=61, velocity=90, time=0),\n",
      "    Message('note_on', channel=2, note=61, velocity=0, time=180),\n",
      "    Message('note_on', channel=2, note=64, velocity=0, time=0),\n",
      "    Message('note_on', channel=2, note=61, velocity=90, time=0),\n",
      "    Message('note_on', channel=2, note=61, velocity=0, time=180),\n",
      "    Message('note_on', channel=2, note=56, velocity=0, time=0),\n",
      "    Message('note_on', channel=2, note=64, velocity=90, time=0),\n",
      "    Message('note_on', channel=2, note=61, velocity=90, time=0),\n",
      "    Message('note_on', channel=2, note=56, velocity=90, time=0),\n",
      "    Message('note_on', channel=2, note=61, velocity=0, time=120),\n",
      "    Message('note_on', channel=2, note=64, velocity=0, time=0),\n",
      "    Message('note_on', channel=2, note=63, velocity=90, time=0),\n",
      "    Message('note_on', channel=2, note=59, velocity=90, time=0),\n",
      "    Message('note_on', channel=2, note=59, velocity=0, time=120),\n",
      "    Message('note_on', channel=2, note=56, velocity=0, time=0),\n",
      "    Message('note_on', channel=2, note=63, velocity=0, time=60),\n",
      "    Message('note_on', channel=2, note=66, velocity=90, time=0),\n",
      "    Message('note_on', channel=2, note=59, velocity=90, time=0),\n",
      "    Message('note_on', channel=2, note=56, velocity=90, time=0),\n",
      "    Message('note_on', channel=2, note=56, velocity=0, time=180),\n",
      "    Message('note_on', channel=2, note=59, velocity=0, time=0),\n",
      "    Message('note_on', channel=2, note=66, velocity=0, time=0),\n",
      "    Message('note_on', channel=2, note=63, velocity=90, time=0),\n",
      "    Message('note_on', channel=2, note=59, velocity=90, time=0),\n",
      "    Message('note_on', channel=2, note=56, velocity=90, time=0),\n",
      "    Message('note_on', channel=2, note=56, velocity=0, time=120),\n",
      "    Message('note_on', channel=2, note=59, velocity=0, time=0),\n",
      "    Message('note_on', channel=2, note=63, velocity=0, time=0),\n",
      "    Message('note_on', channel=2, note=56, velocity=90, time=0),\n",
      "    Message('note_on', channel=2, note=64, velocity=90, time=0),\n",
      "    Message('note_on', channel=2, note=61, velocity=90, time=0),\n",
      "    Message('note_on', channel=2, note=64, velocity=0, time=120),\n",
      "    Message('note_on', channel=2, note=61, velocity=0, time=60),\n",
      "    Message('note_on', channel=2, note=56, velocity=0, time=0),\n",
      "    Message('note_on', channel=2, note=61, velocity=90, time=0),\n",
      "    Message('note_on', channel=2, note=56, velocity=90, time=0),\n",
      "    Message('note_on', channel=2, note=56, velocity=0, time=180),\n",
      "    Message('note_on', channel=2, note=61, velocity=0, time=0),\n",
      "    Message('note_on', channel=2, note=64, velocity=90, time=0),\n",
      "    Message('note_on', channel=2, note=61, velocity=90, time=0),\n",
      "    Message('note_on', channel=2, note=56, velocity=90, time=0),\n",
      "    Message('note_on', channel=2, note=56, velocity=0, time=60),\n",
      "    Message('note_on', channel=2, note=61, velocity=0, time=60),\n",
      "    Message('note_on', channel=2, note=64, velocity=0, time=0),\n",
      "    Message('note_on', channel=2, note=64, velocity=90, time=0),\n",
      "    Message('note_on', channel=2, note=61, velocity=90, time=0),\n",
      "    Message('note_on', channel=2, note=57, velocity=90, time=0),\n",
      "    Message('note_on', channel=2, note=57, velocity=0, time=180),\n",
      "    Message('note_on', channel=2, note=61, velocity=0, time=0),\n",
      "    Message('note_on', channel=2, note=64, velocity=0, time=0),\n",
      "    Message('note_on', channel=2, note=57, velocity=90, time=0),\n",
      "    Message('note_on', channel=2, note=64, velocity=90, time=0),\n",
      "    Message('note_on', channel=2, note=61, velocity=90, time=0),\n",
      "    Message('note_on', channel=2, note=61, velocity=0, time=180),\n",
      "    Message('note_on', channel=2, note=64, velocity=0, time=0),\n",
      "    Message('note_on', channel=2, note=57, velocity=0, time=0),\n",
      "    Message('note_on', channel=2, note=64, velocity=90, time=0),\n",
      "    Message('note_on', channel=2, note=57, velocity=90, time=0),\n",
      "    Message('note_on', channel=2, note=61, velocity=90, time=0),\n",
      "    Message('note_on', channel=2, note=61, velocity=0, time=60),\n",
      "    Message('note_on', channel=2, note=57, velocity=0, time=60),\n",
      "    Message('note_on', channel=2, note=64, velocity=0, time=0),\n",
      "    Message('note_on', channel=2, note=63, velocity=90, time=0),\n",
      "    Message('note_on', channel=2, note=59, velocity=90, time=0),\n",
      "    Message('note_on', channel=2, note=56, velocity=90, time=0),\n",
      "    Message('note_on', channel=2, note=56, velocity=0, time=180),\n",
      "    Message('note_on', channel=2, note=59, velocity=0, time=0),\n",
      "    Message('note_on', channel=2, note=63, velocity=0, time=0),\n",
      "    Message('note_on', channel=2, note=64, velocity=90, time=0),\n",
      "    Message('note_on', channel=2, note=61, velocity=90, time=0),\n",
      "    Message('note_on', channel=2, note=56, velocity=90, time=0),\n",
      "    Message('note_on', channel=2, note=56, velocity=0, time=180),\n",
      "    Message('note_on', channel=2, note=61, velocity=0, time=0),\n",
      "    Message('note_on', channel=2, note=64, velocity=0, time=0),\n",
      "    Message('note_on', channel=2, note=56, velocity=90, time=0),\n",
      "    Message('note_on', channel=2, note=61, velocity=90, time=0),\n",
      "    Message('note_on', channel=2, note=61, velocity=0, time=60),\n",
      "    Message('note_on', channel=2, note=56, velocity=0, time=60),\n",
      "    Message('note_on', channel=2, note=57, velocity=90, time=0),\n",
      "    Message('note_on', channel=2, note=54, velocity=90, time=0),\n",
      "    Message('note_on', channel=2, note=64, velocity=90, time=0),\n",
      "    Message('note_on', channel=2, note=61, velocity=90, time=0),\n",
      "    Message('note_on', channel=2, note=61, velocity=0, time=180),\n",
      "    Message('note_on', channel=2, note=57, velocity=0, time=0),\n",
      "    Message('note_on', channel=2, note=54, velocity=0, time=0),\n",
      "    Message('note_on', channel=2, note=64, velocity=0, time=0),\n",
      "    Message('note_on', channel=2, note=57, velocity=90, time=0),\n",
      "    Message('note_on', channel=2, note=61, velocity=90, time=0),\n",
      "    Message('note_on', channel=2, note=54, velocity=90, time=0),\n",
      "    Message('note_on', channel=2, note=54, velocity=0, time=180),\n",
      "    Message('note_on', channel=2, note=61, velocity=0, time=0),\n",
      "    Message('note_on', channel=2, note=57, velocity=0, time=0),\n",
      "    Message('note_on', channel=2, note=64, velocity=90, time=0),\n",
      "    Message('note_on', channel=2, note=61, velocity=90, time=0),\n",
      "    Message('note_on', channel=2, note=57, velocity=90, time=0),\n",
      "    Message('note_on', channel=2, note=54, velocity=90, time=0),\n",
      "    Message('note_on', channel=2, note=54, velocity=0, time=120),\n",
      "    Message('note_on', channel=2, note=64, velocity=0, time=0),\n",
      "    Message('note_on', channel=2, note=61, velocity=0, time=0),\n",
      "    Message('note_on', channel=2, note=57, velocity=0, time=0),\n",
      "    Message('note_on', channel=2, note=54, velocity=90, time=0),\n",
      "    Message('note_on', channel=2, note=64, velocity=90, time=0),\n",
      "    Message('note_on', channel=2, note=61, velocity=90, time=0),\n",
      "    Message('note_on', channel=2, note=59, velocity=90, time=0),\n",
      "    Message('note_on', channel=2, note=57, velocity=90, time=0),\n",
      "    Message('note_on', channel=2, note=57, velocity=0, time=60),\n",
      "    Message('note_on', channel=2, note=61, velocity=0, time=0),\n",
      "    Message('note_on', channel=2, note=54, velocity=0, time=60),\n",
      "    Message('note_on', channel=2, note=64, velocity=0, time=60),\n",
      "    Message('note_on', channel=2, note=59, velocity=0, time=0),\n",
      "    Message('note_on', channel=2, note=59, velocity=90, time=0),\n",
      "    Message('note_on', channel=2, note=54, velocity=90, time=0),\n",
      "    Message('note_on', channel=2, note=64, velocity=90, time=0),\n",
      "    Message('note_on', channel=2, note=64, velocity=0, time=60),\n",
      "    Message('note_on', channel=2, note=64, velocity=90, time=0),\n",
      "    Message('note_on', channel=2, note=54, velocity=0, time=60),\n",
      "    Message('note_on', channel=2, note=59, velocity=0, time=60),\n",
      "    Message('note_on', channel=2, note=64, velocity=90, time=0),\n",
      "    Message('note_on', channel=2, note=59, velocity=90, time=0),\n",
      "    Message('note_on', channel=2, note=54, velocity=90, time=0),\n",
      "    Message('note_on', channel=2, note=64, velocity=0, time=60),\n",
      "    Message('note_on', channel=2, note=64, velocity=0, time=60),\n",
      "    Message('note_on', channel=2, note=59, velocity=0, time=0),\n",
      "    Message('note_on', channel=2, note=54, velocity=0, time=0),\n",
      "    Message('note_on', channel=2, note=54, velocity=90, time=0),\n",
      "    Message('note_on', channel=2, note=63, velocity=90, time=0),\n",
      "    Message('note_on', channel=2, note=59, velocity=90, time=0),\n",
      "    Message('note_on', channel=2, note=59, velocity=0, time=240),\n",
      "    Message('note_on', channel=2, note=63, velocity=0, time=0),\n",
      "    Message('note_on', channel=2, note=54, velocity=0, time=0),\n",
      "    Message('note_on', channel=2, note=52, velocity=100, time=240),\n",
      "    Message('note_on', channel=2, note=64, velocity=100, time=0),\n",
      "    Message('note_on', channel=2, note=59, velocity=100, time=90),\n",
      "    Message('note_on', channel=2, note=59, velocity=0, time=30),\n",
      "    Message('note_on', channel=2, note=71, velocity=100, time=0),\n",
      "    Message('note_on', channel=2, note=71, velocity=0, time=120),\n",
      "    Message('note_on', channel=2, note=71, velocity=100, time=60),\n",
      "    Message('note_on', channel=2, note=71, velocity=0, time=60),\n",
      "    Message('note_on', channel=2, note=64, velocity=100, time=0),\n",
      "    Message('note_on', channel=2, note=64, velocity=0, time=60),\n",
      "    Message('note_on', channel=2, note=59, velocity=100, time=0),\n",
      "    Message('note_on', channel=2, note=59, velocity=0, time=60),\n",
      "    Message('note_on', channel=2, note=64, velocity=0, time=0),\n",
      "    Message('note_on', channel=2, note=52, velocity=0, time=0),\n",
      "    Message('note_on', channel=2, note=49, velocity=100, time=0),\n",
      "    Message('note_on', channel=2, note=61, velocity=100, time=0),\n",
      "    Message('note_on', channel=2, note=56, velocity=100, time=60),\n",
      "    Message('note_on', channel=2, note=56, velocity=0, time=60),\n",
      "    Message('note_on', channel=2, note=61, velocity=100, time=0),\n",
      "    Message('note_on', channel=2, note=61, velocity=0, time=60),\n",
      "    Message('note_on', channel=2, note=64, velocity=100, time=0),\n",
      "    Message('note_on', channel=2, note=64, velocity=0, time=60),\n",
      "    Message('note_on', channel=2, note=64, velocity=100, time=60),\n",
      "    Message('note_on', channel=2, note=64, velocity=0, time=60),\n",
      "    Message('note_on', channel=2, note=61, velocity=100, time=0),\n",
      "    Message('note_on', channel=2, note=61, velocity=0, time=60),\n",
      "    Message('note_on', channel=2, note=56, velocity=100, time=0),\n",
      "    Message('note_on', channel=2, note=56, velocity=0, time=60),\n",
      "    Message('note_on', channel=2, note=61, velocity=0, time=0),\n",
      "    Message('note_on', channel=2, note=49, velocity=0, time=0),\n",
      "    Message('note_on', channel=2, note=57, velocity=100, time=0),\n",
      "    Message('note_on', channel=2, note=45, velocity=100, time=0),\n",
      "    Message('note_on', channel=2, note=52, velocity=100, time=60),\n",
      "    Message('note_on', channel=2, note=52, velocity=0, time=60),\n",
      "    Message('note_on', channel=2, note=57, velocity=100, time=0),\n",
      "    Message('note_on', channel=2, note=57, velocity=0, time=60),\n",
      "    Message('note_on', channel=2, note=59, velocity=100, time=0),\n",
      "    Message('note_on', channel=2, note=59, velocity=0, time=60),\n",
      "    Message('note_on', channel=2, note=61, velocity=100, time=0),\n",
      "    Message('note_on', channel=2, note=61, velocity=0, time=120),\n",
      "    Message('note_on', channel=2, note=45, velocity=0, time=120),\n",
      "    Message('note_on', channel=2, note=57, velocity=0, time=0),\n",
      "    Message('note_on', channel=2, note=59, velocity=100, time=0),\n",
      "    Message('note_on', channel=2, note=47, velocity=100, time=0),\n",
      "    Message('note_on', channel=2, note=47, velocity=100, time=180),\n",
      "    Message('note_on', channel=2, note=64, velocity=100, time=0),\n",
      "    Message('note_on', channel=2, note=64, velocity=0, time=120),\n",
      "    Message('note_on', channel=2, note=47, velocity=0, time=0),\n",
      "    Message('note_on', channel=2, note=47, velocity=100, time=60),\n",
      "    Message('note_on', channel=2, note=63, velocity=100, time=0),\n",
      "    Message('note_on', channel=2, note=63, velocity=0, time=120),\n",
      "    Message('note_on', channel=2, note=59, velocity=0, time=0),\n",
      "    Message('note_on', channel=2, note=47, velocity=0, time=0),\n",
      "    Message('note_on', channel=2, note=47, velocity=0, time=0),\n",
      "    Message('note_on', channel=2, note=52, velocity=100, time=0),\n",
      "    Message('note_on', channel=2, note=64, velocity=100, time=0),\n",
      "    Message('note_on', channel=2, note=59, velocity=100, time=90),\n",
      "    Message('note_on', channel=2, note=59, velocity=0, time=30),\n",
      "    Message('note_on', channel=2, note=71, velocity=100, time=0),\n",
      "    Message('note_on', channel=2, note=71, velocity=0, time=120),\n",
      "    Message('note_on', channel=2, note=71, velocity=100, time=60),\n",
      "    Message('note_on', channel=2, note=71, velocity=0, time=60),\n",
      "    Message('note_on', channel=2, note=64, velocity=100, time=0),\n",
      "    Message('note_on', channel=2, note=64, velocity=0, time=60),\n",
      "    Message('note_on', channel=2, note=59, velocity=100, time=0),\n",
      "    Message('note_on', channel=2, note=59, velocity=0, time=60),\n",
      "    Message('note_on', channel=2, note=64, velocity=0, time=0),\n",
      "    Message('note_on', channel=2, note=52, velocity=0, time=0),\n",
      "    Message('note_on', channel=2, note=49, velocity=100, time=0),\n",
      "    Message('note_on', channel=2, note=61, velocity=100, time=0),\n",
      "    Message('note_on', channel=2, note=56, velocity=100, time=60),\n",
      "    Message('note_on', channel=2, note=56, velocity=0, time=60),\n",
      "    Message('note_on', channel=2, note=61, velocity=100, time=0),\n",
      "    Message('note_on', channel=2, note=61, velocity=0, time=60),\n",
      "    Message('note_on', channel=2, note=64, velocity=100, time=0),\n",
      "    Message('note_on', channel=2, note=64, velocity=0, time=60),\n",
      "    Message('note_on', channel=2, note=64, velocity=100, time=60),\n",
      "    Message('note_on', channel=2, note=64, velocity=0, time=60),\n",
      "    Message('note_on', channel=2, note=61, velocity=100, time=0),\n",
      "    Message('note_on', channel=2, note=61, velocity=0, time=60),\n",
      "    Message('note_on', channel=2, note=56, velocity=100, time=0),\n",
      "    Message('note_on', channel=2, note=56, velocity=0, time=60),\n",
      "    Message('note_on', channel=2, note=61, velocity=0, time=0),\n",
      "    Message('note_on', channel=2, note=49, velocity=0, time=0),\n",
      "    Message('note_on', channel=2, note=57, velocity=100, time=0),\n",
      "    Message('note_on', channel=2, note=45, velocity=100, time=0),\n",
      "    Message('note_on', channel=2, note=52, velocity=100, time=60),\n",
      "    Message('note_on', channel=2, note=52, velocity=0, time=60),\n",
      "    Message('note_on', channel=2, note=57, velocity=100, time=0),\n",
      "    Message('note_on', channel=2, note=57, velocity=0, time=60),\n",
      "    Message('note_on', channel=2, note=59, velocity=100, time=0),\n",
      "    Message('note_on', channel=2, note=59, velocity=0, time=60),\n",
      "    Message('note_on', channel=2, note=61, velocity=100, time=0),\n",
      "    Message('note_on', channel=2, note=61, velocity=0, time=120),\n",
      "    Message('note_on', channel=2, note=45, velocity=0, time=120),\n",
      "    Message('note_on', channel=2, note=57, velocity=0, time=0),\n",
      "    Message('note_on', channel=2, note=59, velocity=100, time=0),\n",
      "    Message('note_on', channel=2, note=47, velocity=100, time=0),\n",
      "    Message('note_on', channel=2, note=47, velocity=100, time=180),\n",
      "    Message('note_on', channel=2, note=64, velocity=100, time=0),\n",
      "    Message('note_on', channel=2, note=64, velocity=0, time=120),\n",
      "    Message('note_on', channel=2, note=47, velocity=0, time=0),\n",
      "    Message('note_on', channel=2, note=47, velocity=100, time=60),\n",
      "    Message('note_on', channel=2, note=63, velocity=100, time=0),\n",
      "    Message('note_on', channel=2, note=63, velocity=0, time=120),\n",
      "    Message('note_on', channel=2, note=59, velocity=0, time=0),\n",
      "    Message('note_on', channel=2, note=47, velocity=0, time=0),\n",
      "    Message('note_on', channel=2, note=47, velocity=0, time=0),\n",
      "    Message('note_on', channel=2, note=40, velocity=100, time=0),\n",
      "    Message('note_on', channel=2, note=56, velocity=100, time=0),\n",
      "    Message('note_on', channel=2, note=64, velocity=100, time=0),\n",
      "    Message('note_on', channel=2, note=52, velocity=100, time=0),\n",
      "    Message('note_on', channel=2, note=52, velocity=0, time=480),\n",
      "    Message('note_on', channel=2, note=40, velocity=0, time=0),\n",
      "    Message('note_on', channel=2, note=56, velocity=0, time=0),\n",
      "    Message('note_on', channel=2, note=64, velocity=0, time=0),\n",
      "    MetaMessage('end_of_track', time=0)]),\n",
      "  MidiTrack([\n",
      "    MetaMessage('midi_port', port=0, time=0),\n",
      "    MetaMessage('track_name', name='CHORD2', time=0),\n",
      "    Message('program_change', channel=3, program=6, time=0),\n",
      "    Message('control_change', channel=3, control=7, value=87, time=0),\n",
      "    Message('control_change', channel=3, control=10, value=64, time=0),\n",
      "    Message('note_on', channel=3, note=57, velocity=90, time=540),\n",
      "    Message('note_on', channel=3, note=57, velocity=0, time=60),\n",
      "    Message('note_on', channel=3, note=62, velocity=90, time=0),\n",
      "    Message('note_on', channel=3, note=62, velocity=0, time=60),\n",
      "    Message('note_on', channel=3, note=64, velocity=90, time=0),\n",
      "    Message('note_on', channel=3, note=64, velocity=0, time=120),\n",
      "    Message('note_on', channel=3, note=64, velocity=90, time=0),\n",
      "    Message('note_on', channel=3, note=64, velocity=0, time=60),\n",
      "    Message('note_on', channel=3, note=62, velocity=90, time=0),\n",
      "    Message('note_on', channel=3, note=62, velocity=0, time=60),\n",
      "    Message('note_on', channel=3, note=57, velocity=90, time=0),\n",
      "    Message('note_on', channel=3, note=57, velocity=0, time=60),\n",
      "    Message('note_on', channel=3, note=59, velocity=90, time=60),\n",
      "    Message('note_on', channel=3, note=59, velocity=0, time=60),\n",
      "    Message('note_on', channel=3, note=62, velocity=90, time=0),\n",
      "    Message('note_on', channel=3, note=62, velocity=0, time=60),\n",
      "    Message('note_on', channel=3, note=64, velocity=90, time=0),\n",
      "    Message('note_on', channel=3, note=64, velocity=0, time=120),\n",
      "    Message('note_on', channel=3, note=64, velocity=90, time=0),\n",
      "    Message('note_on', channel=3, note=64, velocity=0, time=60),\n",
      "    Message('note_on', channel=3, note=62, velocity=90, time=0),\n",
      "    Message('note_on', channel=3, note=62, velocity=0, time=60),\n",
      "    Message('note_on', channel=3, note=57, velocity=90, time=0),\n",
      "    Message('note_on', channel=3, note=57, velocity=0, time=120),\n",
      "    Message('note_on', channel=3, note=57, velocity=90, time=0),\n",
      "    Message('note_on', channel=3, note=57, velocity=0, time=60),\n",
      "    Message('note_on', channel=3, note=59, velocity=90, time=0),\n",
      "    Message('note_on', channel=3, note=59, velocity=0, time=60),\n",
      "    Message('note_on', channel=3, note=62, velocity=90, time=0),\n",
      "    Message('note_on', channel=3, note=62, velocity=0, time=120),\n",
      "    Message('note_on', channel=3, note=59, velocity=90, time=0),\n",
      "    Message('note_on', channel=3, note=59, velocity=0, time=60),\n",
      "    Message('note_on', channel=3, note=57, velocity=90, time=0),\n",
      "    Message('note_on', channel=3, note=57, velocity=0, time=180),\n",
      "    Message('note_on', channel=3, note=57, velocity=90, time=0),\n",
      "    Message('note_on', channel=3, note=57, velocity=0, time=60),\n",
      "    Message('note_on', channel=3, note=59, velocity=90, time=0),\n",
      "    Message('note_on', channel=3, note=59, velocity=0, time=60),\n",
      "    Message('note_on', channel=3, note=62, velocity=90, time=0),\n",
      "    Message('note_on', channel=3, note=62, velocity=0, time=120),\n",
      "    Message('note_on', channel=3, note=59, velocity=90, time=0),\n",
      "    Message('note_on', channel=3, note=59, velocity=0, time=60),\n",
      "    Message('note_on', channel=3, note=62, velocity=90, time=0),\n",
      "    Message('note_on', channel=3, note=62, velocity=0, time=60),\n",
      "    Message('note_on', channel=3, note=57, velocity=90, time=0),\n",
      "    Message('note_on', channel=3, note=57, velocity=0, time=60),\n",
      "    Message('note_on', channel=3, note=57, velocity=90, time=60),\n",
      "    Message('note_on', channel=3, note=57, velocity=0, time=60),\n",
      "    Message('note_on', channel=3, note=62, velocity=90, time=0),\n",
      "    Message('note_on', channel=3, note=62, velocity=0, time=60),\n",
      "    Message('note_on', channel=3, note=64, velocity=90, time=0),\n",
      "    Message('note_on', channel=3, note=64, velocity=0, time=120),\n",
      "    Message('note_on', channel=3, note=64, velocity=90, time=0),\n",
      "    Message('note_on', channel=3, note=64, velocity=0, time=60),\n",
      "    Message('note_on', channel=3, note=62, velocity=90, time=0),\n",
      "    Message('note_on', channel=3, note=62, velocity=0, time=60),\n",
      "    Message('note_on', channel=3, note=57, velocity=90, time=0),\n",
      "    Message('note_on', channel=3, note=57, velocity=0, time=60),\n",
      "    Message('note_on', channel=3, note=59, velocity=90, time=60),\n",
      "    Message('note_on', channel=3, note=59, velocity=0, time=60),\n",
      "    Message('note_on', channel=3, note=62, velocity=90, time=0),\n",
      "    Message('note_on', channel=3, note=62, velocity=0, time=60),\n",
      "    Message('note_on', channel=3, note=64, velocity=90, time=0),\n",
      "    Message('note_on', channel=3, note=64, velocity=0, time=120),\n",
      "    Message('note_on', channel=3, note=64, velocity=90, time=0),\n",
      "    Message('note_on', channel=3, note=64, velocity=0, time=60),\n",
      "    Message('note_on', channel=3, note=62, velocity=90, time=0),\n",
      "    Message('note_on', channel=3, note=62, velocity=0, time=60),\n",
      "    Message('note_on', channel=3, note=57, velocity=90, time=0),\n",
      "    Message('note_on', channel=3, note=57, velocity=0, time=120),\n",
      "    Message('note_on', channel=3, note=57, velocity=90, time=0),\n",
      "    Message('note_on', channel=3, note=57, velocity=0, time=60),\n",
      "    Message('note_on', channel=3, note=59, velocity=90, time=0),\n",
      "    Message('note_on', channel=3, note=59, velocity=0, time=60),\n",
      "    Message('note_on', channel=3, note=62, velocity=90, time=0),\n",
      "    Message('note_on', channel=3, note=62, velocity=0, time=120),\n",
      "    Message('note_on', channel=3, note=59, velocity=90, time=0),\n",
      "    Message('note_on', channel=3, note=59, velocity=0, time=60),\n",
      "    Message('note_on', channel=3, note=57, velocity=90, time=0),\n",
      "    Message('note_on', channel=3, note=57, velocity=0, time=180),\n",
      "    Message('note_on', channel=3, note=57, velocity=90, time=0),\n",
      "    Message('note_on', channel=3, note=57, velocity=0, time=60),\n",
      "    Message('note_on', channel=3, note=59, velocity=90, time=0),\n",
      "    Message('note_on', channel=3, note=59, velocity=0, time=60),\n",
      "    Message('note_on', channel=3, note=62, velocity=90, time=0),\n",
      "    Message('note_on', channel=3, note=62, velocity=0, time=120),\n",
      "    Message('note_on', channel=3, note=59, velocity=90, time=0),\n",
      "    Message('note_on', channel=3, note=59, velocity=0, time=60),\n",
      "    Message('note_on', channel=3, note=62, velocity=90, time=0),\n",
      "    Message('note_on', channel=3, note=62, velocity=0, time=60),\n",
      "    Message('note_on', channel=3, note=57, velocity=90, time=0),\n",
      "    Message('note_on', channel=3, note=57, velocity=0, time=60),\n",
      "    Message('note_on', channel=3, note=61, velocity=90, time=3840),\n",
      "    Message('note_on', channel=3, note=61, velocity=0, time=120),\n",
      "    Message('note_on', channel=3, note=54, velocity=73, time=0),\n",
      "    Message('note_on', channel=3, note=54, velocity=0, time=60),\n",
      "    Message('note_on', channel=3, note=64, velocity=90, time=0),\n",
      "    Message('note_on', channel=3, note=64, velocity=0, time=120),\n",
      "    Message('note_on', channel=3, note=54, velocity=60, time=0),\n",
      "    Message('note_on', channel=3, note=54, velocity=0, time=60),\n",
      "    Message('note_on', channel=3, note=64, velocity=90, time=0),\n",
      "    Message('note_on', channel=3, note=64, velocity=0, time=60),\n",
      "    Message('note_on', channel=3, note=54, velocity=70, time=0),\n",
      "    Message('note_on', channel=3, note=54, velocity=0, time=60),\n",
      "    Message('note_on', channel=3, note=62, velocity=90, time=0),\n",
      "    Message('note_on', channel=3, note=62, velocity=0, time=120),\n",
      "    Message('note_on', channel=3, note=59, velocity=60, time=0),\n",
      "    Message('note_on', channel=3, note=59, velocity=0, time=60),\n",
      "    Message('note_on', channel=3, note=64, velocity=90, time=0),\n",
      "    Message('note_on', channel=3, note=64, velocity=0, time=120),\n",
      "    Message('note_on', channel=3, note=62, velocity=90, time=0),\n",
      "    Message('note_on', channel=3, note=62, velocity=0, time=120),\n",
      "    Message('note_on', channel=3, note=61, velocity=90, time=0),\n",
      "    Message('note_on', channel=3, note=61, velocity=0, time=180),\n",
      "    Message('note_on', channel=3, note=54, velocity=50, time=0),\n",
      "    Message('note_on', channel=3, note=54, velocity=0, time=60),\n",
      "    Message('note_on', channel=3, note=64, velocity=90, time=0),\n",
      "    Message('note_on', channel=3, note=64, velocity=0, time=120),\n",
      "    Message('note_on', channel=3, note=54, velocity=50, time=0),\n",
      "    Message('note_on', channel=3, note=54, velocity=0, time=60),\n",
      "    Message('note_on', channel=3, note=61, velocity=90, time=0),\n",
      "    Message('note_on', channel=3, note=61, velocity=0, time=60),\n",
      "    Message('note_on', channel=3, note=54, velocity=50, time=0),\n",
      "    Message('note_on', channel=3, note=54, velocity=0, time=60),\n",
      "    Message('note_on', channel=3, note=62, velocity=90, time=0),\n",
      "    Message('note_on', channel=3, note=62, velocity=0, time=120),\n",
      "    Message('note_on', channel=3, note=54, velocity=50, time=0),\n",
      "    Message('note_on', channel=3, note=54, velocity=0, time=60),\n",
      "    Message('note_on', channel=3, note=62, velocity=90, time=0),\n",
      "    Message('note_on', channel=3, note=62, velocity=0, time=120),\n",
      "    Message('note_on', channel=3, note=54, velocity=50, time=0),\n",
      "    Message('note_on', channel=3, note=54, velocity=0, time=60),\n",
      "    Message('note_on', channel=3, note=59, velocity=90, time=0),\n",
      "    Message('note_on', channel=3, note=59, velocity=0, time=60),\n",
      "    Message('note_on', channel=3, note=54, velocity=50, time=0),\n",
      "    Message('note_on', channel=3, note=54, velocity=0, time=60),\n",
      "    Message('note_on', channel=3, note=57, velocity=90, time=0),\n",
      "    Message('note_on', channel=3, note=57, velocity=0, time=120),\n",
      "    Message('note_on', channel=3, note=55, velocity=90, time=0),\n",
      "    Message('note_on', channel=3, note=55, velocity=0, time=180),\n",
      "    Message('note_on', channel=3, note=50, velocity=40, time=0),\n",
      "    Message('note_on', channel=3, note=50, velocity=0, time=60),\n",
      "    Message('note_on', channel=3, note=55, velocity=90, time=0),\n",
      "    Message('note_on', channel=3, note=55, velocity=0, time=60),\n",
      "    Message('note_on', channel=3, note=50, velocity=40, time=0),\n",
      "    Message('note_on', channel=3, note=50, velocity=0, time=60),\n",
      "    Message('note_on', channel=3, note=54, velocity=90, time=0),\n",
      "    Message('note_on', channel=3, note=54, velocity=0, time=150),\n",
      "    Message('note_on', channel=3, note=59, velocity=90, time=30),\n",
      "    Message('note_on', channel=3, note=59, velocity=0, time=90),\n",
      "    Message('note_on', channel=3, note=59, velocity=90, time=30),\n",
      "    Message('note_on', channel=3, note=59, velocity=0, time=180),\n",
      "    Message('note_on', channel=3, note=62, velocity=90, time=0),\n",
      "    Message('note_on', channel=3, note=62, velocity=0, time=180),\n",
      "    Message('note_on', channel=3, note=54, velocity=40, time=0),\n",
      "    Message('note_on', channel=3, note=54, velocity=0, time=120),\n",
      "    Message('note_on', channel=3, note=55, velocity=55, time=0),\n",
      "    Message('note_on', channel=3, note=55, velocity=0, time=60),\n",
      "    Message('note_on', channel=3, note=62, velocity=90, time=0),\n",
      "    Message('note_on', channel=3, note=62, velocity=0, time=120),\n",
      "    Message('note_on', channel=3, note=62, velocity=90, time=0),\n",
      "    Message('note_on', channel=3, note=62, velocity=0, time=120),\n",
      "    Message('note_on', channel=3, note=57, velocity=40, time=0),\n",
      "    Message('note_on', channel=3, note=57, velocity=0, time=60),\n",
      "    Message('note_on', channel=3, note=62, velocity=90, time=0),\n",
      "    Message('note_on', channel=3, note=62, velocity=0, time=120),\n",
      "    Message('note_on', channel=3, note=57, velocity=40, time=0),\n",
      "    Message('note_on', channel=3, note=57, velocity=0, time=60),\n",
      "    Message('note_on', channel=3, note=62, velocity=90, time=0),\n",
      "    Message('note_on', channel=3, note=62, velocity=0, time=60),\n",
      "    Message('note_on', channel=3, note=57, velocity=40, time=0),\n",
      "    Message('note_on', channel=3, note=57, velocity=0, time=60),\n",
      "    Message('note_on', channel=3, note=61, velocity=90, time=0),\n",
      "    Message('note_on', channel=3, note=61, velocity=0, time=240),\n",
      "    Message('note_on', channel=3, note=57, velocity=90, time=300),\n",
      "    Message('note_on', channel=3, note=57, velocity=0, time=60),\n",
      "    Message('note_on', channel=3, note=62, velocity=90, time=0),\n",
      "    Message('note_on', channel=3, note=62, velocity=0, time=60),\n",
      "    Message('note_on', channel=3, note=64, velocity=90, time=0),\n",
      "    Message('note_on', channel=3, note=64, velocity=0, time=120),\n",
      "    Message('note_on', channel=3, note=64, velocity=90, time=0),\n",
      "    Message('note_on', channel=3, note=64, velocity=0, time=60),\n",
      "    Message('note_on', channel=3, note=62, velocity=90, time=0),\n",
      "    Message('note_on', channel=3, note=62, velocity=0, time=60),\n",
      "    Message('note_on', channel=3, note=57, velocity=90, time=0),\n",
      "    Message('note_on', channel=3, note=57, velocity=0, time=60),\n",
      "    Message('note_on', channel=3, note=59, velocity=90, time=60),\n",
      "    Message('note_on', channel=3, note=59, velocity=0, time=60),\n",
      "    Message('note_on', channel=3, note=62, velocity=90, time=0),\n",
      "    Message('note_on', channel=3, note=62, velocity=0, time=60),\n",
      "    Message('note_on', channel=3, note=64, velocity=90, time=0),\n",
      "    Message('note_on', channel=3, note=64, velocity=0, time=120),\n",
      "    Message('note_on', channel=3, note=64, velocity=90, time=0),\n",
      "    Message('note_on', channel=3, note=64, velocity=0, time=60),\n",
      "    Message('note_on', channel=3, note=62, velocity=90, time=0),\n",
      "    Message('note_on', channel=3, note=62, velocity=0, time=60),\n",
      "    Message('note_on', channel=3, note=57, velocity=90, time=0),\n",
      "    Message('note_on', channel=3, note=57, velocity=0, time=120),\n",
      "    Message('note_on', channel=3, note=57, velocity=90, time=0),\n",
      "    Message('note_on', channel=3, note=57, velocity=0, time=60),\n",
      "    Message('note_on', channel=3, note=59, velocity=90, time=0),\n",
      "    Message('note_on', channel=3, note=59, velocity=0, time=60),\n",
      "    Message('note_on', channel=3, note=62, velocity=90, time=0),\n",
      "    Message('note_on', channel=3, note=62, velocity=0, time=120),\n",
      "    Message('note_on', channel=3, note=59, velocity=90, time=0),\n",
      "    Message('note_on', channel=3, note=59, velocity=0, time=60),\n",
      "    Message('note_on', channel=3, note=57, velocity=90, time=0),\n",
      "    Message('note_on', channel=3, note=57, velocity=0, time=180),\n",
      "    Message('note_on', channel=3, note=57, velocity=90, time=0),\n",
      "    Message('note_on', channel=3, note=57, velocity=0, time=60),\n",
      "    Message('note_on', channel=3, note=59, velocity=90, time=0),\n",
      "    Message('note_on', channel=3, note=59, velocity=0, time=60),\n",
      "    Message('note_on', channel=3, note=62, velocity=90, time=0),\n",
      "    Message('note_on', channel=3, note=62, velocity=0, time=120),\n",
      "    Message('note_on', channel=3, note=59, velocity=90, time=0),\n",
      "    Message('note_on', channel=3, note=59, velocity=0, time=60),\n",
      "    Message('note_on', channel=3, note=62, velocity=90, time=0),\n",
      "    Message('note_on', channel=3, note=62, velocity=0, time=60),\n",
      "    Message('note_on', channel=3, note=57, velocity=90, time=0),\n",
      "    Message('note_on', channel=3, note=57, velocity=0, time=60),\n",
      "    Message('note_on', channel=3, note=57, velocity=90, time=60),\n",
      "    Message('note_on', channel=3, note=57, velocity=0, time=60),\n",
      "    Message('note_on', channel=3, note=62, velocity=90, time=0),\n",
      "    Message('note_on', channel=3, note=62, velocity=0, time=60),\n",
      "    Message('note_on', channel=3, note=64, velocity=90, time=0),\n",
      "    Message('note_on', channel=3, note=64, velocity=0, time=120),\n",
      "    Message('note_on', channel=3, note=64, velocity=90, time=0),\n",
      "    Message('note_on', channel=3, note=64, velocity=0, time=60),\n",
      "    Message('note_on', channel=3, note=62, velocity=90, time=0),\n",
      "    Message('note_on', channel=3, note=62, velocity=0, time=60),\n",
      "    Message('note_on', channel=3, note=57, velocity=90, time=0),\n",
      "    Message('note_on', channel=3, note=57, velocity=0, time=60),\n",
      "    Message('note_on', channel=3, note=59, velocity=90, time=60),\n",
      "    Message('note_on', channel=3, note=59, velocity=0, time=60),\n",
      "    Message('note_on', channel=3, note=62, velocity=90, time=0),\n",
      "    Message('note_on', channel=3, note=62, velocity=0, time=60),\n",
      "    Message('note_on', channel=3, note=64, velocity=90, time=0),\n",
      "    Message('note_on', channel=3, note=64, velocity=0, time=120),\n",
      "    Message('note_on', channel=3, note=64, velocity=90, time=0),\n",
      "    Message('note_on', channel=3, note=64, velocity=0, time=60),\n",
      "    Message('note_on', channel=3, note=62, velocity=90, time=0),\n",
      "    Message('note_on', channel=3, note=62, velocity=0, time=60),\n",
      "    Message('note_on', channel=3, note=57, velocity=90, time=0),\n",
      "    Message('note_on', channel=3, note=57, velocity=0, time=120),\n",
      "    Message('note_on', channel=3, note=57, velocity=90, time=0),\n",
      "    Message('note_on', channel=3, note=57, velocity=0, time=60),\n",
      "    Message('note_on', channel=3, note=59, velocity=90, time=0),\n",
      "    Message('note_on', channel=3, note=59, velocity=0, time=60),\n",
      "    Message('note_on', channel=3, note=62, velocity=90, time=0),\n",
      "    Message('note_on', channel=3, note=62, velocity=0, time=120),\n",
      "    Message('note_on', channel=3, note=59, velocity=90, time=0),\n",
      "    Message('note_on', channel=3, note=59, velocity=0, time=60),\n",
      "    Message('note_on', channel=3, note=57, velocity=90, time=0),\n",
      "    Message('note_on', channel=3, note=57, velocity=0, time=180),\n",
      "    Message('note_on', channel=3, note=57, velocity=90, time=0),\n",
      "    Message('note_on', channel=3, note=57, velocity=0, time=60),\n",
      "    Message('note_on', channel=3, note=59, velocity=90, time=0),\n",
      "    Message('note_on', channel=3, note=59, velocity=0, time=60),\n",
      "    Message('note_on', channel=3, note=62, velocity=90, time=0),\n",
      "    Message('note_on', channel=3, note=62, velocity=0, time=120),\n",
      "    Message('note_on', channel=3, note=59, velocity=90, time=0),\n",
      "    Message('note_on', channel=3, note=59, velocity=0, time=60),\n",
      "    Message('note_on', channel=3, note=62, velocity=90, time=0),\n",
      "    Message('note_on', channel=3, note=62, velocity=0, time=60),\n",
      "    Message('note_on', channel=3, note=57, velocity=90, time=0),\n",
      "    Message('note_on', channel=3, note=57, velocity=0, time=60),\n",
      "    Message('note_on', channel=3, note=57, velocity=90, time=60),\n",
      "    Message('note_on', channel=3, note=57, velocity=0, time=60),\n",
      "    Message('note_on', channel=3, note=62, velocity=90, time=0),\n",
      "    Message('note_on', channel=3, note=62, velocity=0, time=60),\n",
      "    Message('note_on', channel=3, note=64, velocity=90, time=0),\n",
      "    Message('note_on', channel=3, note=64, velocity=0, time=120),\n",
      "    Message('note_on', channel=3, note=64, velocity=90, time=0),\n",
      "    Message('note_on', channel=3, note=64, velocity=0, time=60),\n",
      "    Message('note_on', channel=3, note=62, velocity=90, time=0),\n",
      "    Message('note_on', channel=3, note=62, velocity=0, time=60),\n",
      "    Message('note_on', channel=3, note=57, velocity=90, time=0),\n",
      "    Message('note_on', channel=3, note=57, velocity=0, time=60),\n",
      "    Message('note_on', channel=3, note=61, velocity=90, time=4325),\n",
      "    Message('note_on', channel=3, note=61, velocity=0, time=120),\n",
      "    Message('note_on', channel=3, note=54, velocity=73, time=0),\n",
      "    Message('note_on', channel=3, note=54, velocity=0, time=60),\n",
      "    Message('note_on', channel=3, note=64, velocity=90, time=0),\n",
      "    Message('note_on', channel=3, note=64, velocity=0, time=120),\n",
      "    Message('note_on', channel=3, note=54, velocity=60, time=0),\n",
      "    Message('note_on', channel=3, note=54, velocity=0, time=60),\n",
      "    Message('note_on', channel=3, note=64, velocity=90, time=0),\n",
      "    Message('note_on', channel=3, note=64, velocity=0, time=60),\n",
      "    Message('note_on', channel=3, note=54, velocity=70, time=0),\n",
      "    Message('note_on', channel=3, note=54, velocity=0, time=60),\n",
      "    Message('note_on', channel=3, note=62, velocity=90, time=0),\n",
      "    Message('note_on', channel=3, note=62, velocity=0, time=120),\n",
      "    Message('note_on', channel=3, note=59, velocity=60, time=0),\n",
      "    Message('note_on', channel=3, note=59, velocity=0, time=60),\n",
      "    Message('note_on', channel=3, note=64, velocity=90, time=0),\n",
      "    Message('note_on', channel=3, note=64, velocity=0, time=120),\n",
      "    Message('note_on', channel=3, note=62, velocity=90, time=0),\n",
      "    Message('note_on', channel=3, note=62, velocity=0, time=120),\n",
      "    Message('note_on', channel=3, note=61, velocity=90, time=0),\n",
      "    Message('note_on', channel=3, note=61, velocity=0, time=180),\n",
      "    Message('note_on', channel=3, note=54, velocity=50, time=0),\n",
      "    Message('note_on', channel=3, note=54, velocity=0, time=60),\n",
      "    Message('note_on', channel=3, note=64, velocity=90, time=0),\n",
      "    Message('note_on', channel=3, note=64, velocity=0, time=120),\n",
      "    Message('note_on', channel=3, note=54, velocity=50, time=0),\n",
      "    Message('note_on', channel=3, note=54, velocity=0, time=60),\n",
      "    Message('note_on', channel=3, note=61, velocity=90, time=0),\n",
      "    Message('note_on', channel=3, note=61, velocity=0, time=60),\n",
      "    Message('note_on', channel=3, note=54, velocity=50, time=0),\n",
      "    Message('note_on', channel=3, note=54, velocity=0, time=60),\n",
      "    Message('note_on', channel=3, note=62, velocity=90, time=0),\n",
      "    Message('note_on', channel=3, note=62, velocity=0, time=120),\n",
      "    Message('note_on', channel=3, note=54, velocity=50, time=0),\n",
      "    Message('note_on', channel=3, note=54, velocity=0, time=60),\n",
      "    Message('note_on', channel=3, note=62, velocity=90, time=0),\n",
      "    Message('note_on', channel=3, note=62, velocity=0, time=120),\n",
      "    Message('note_on', channel=3, note=54, velocity=50, time=0),\n",
      "    Message('note_on', channel=3, note=54, velocity=0, time=60),\n",
      "    Message('note_on', channel=3, note=59, velocity=90, time=0),\n",
      "    Message('note_on', channel=3, note=59, velocity=0, time=60),\n",
      "    Message('note_on', channel=3, note=54, velocity=50, time=0),\n",
      "    Message('note_on', channel=3, note=54, velocity=0, time=60),\n",
      "    Message('note_on', channel=3, note=57, velocity=90, time=0),\n",
      "    Message('note_on', channel=3, note=57, velocity=0, time=120),\n",
      "    Message('note_on', channel=3, note=55, velocity=90, time=0),\n",
      "    Message('note_on', channel=3, note=55, velocity=0, time=180),\n",
      "    Message('note_on', channel=3, note=50, velocity=40, time=0),\n",
      "    Message('note_on', channel=3, note=50, velocity=0, time=60),\n",
      "    Message('note_on', channel=3, note=55, velocity=90, time=0),\n",
      "    Message('note_on', channel=3, note=55, velocity=0, time=60),\n",
      "    Message('note_on', channel=3, note=50, velocity=40, time=0),\n",
      "    Message('note_on', channel=3, note=50, velocity=0, time=60),\n",
      "    Message('note_on', channel=3, note=54, velocity=90, time=0),\n",
      "    Message('note_on', channel=3, note=54, velocity=0, time=150),\n",
      "    Message('note_on', channel=3, note=59, velocity=90, time=30),\n",
      "    Message('note_on', channel=3, note=59, velocity=0, time=90),\n",
      "    Message('note_on', channel=3, note=59, velocity=90, time=30),\n",
      "    Message('note_on', channel=3, note=59, velocity=0, time=180),\n",
      "    Message('note_on', channel=3, note=62, velocity=90, time=0),\n",
      "    Message('note_on', channel=3, note=62, velocity=0, time=180),\n",
      "    Message('note_on', channel=3, note=54, velocity=40, time=0),\n",
      "    Message('note_on', channel=3, note=54, velocity=0, time=120),\n",
      "    Message('note_on', channel=3, note=55, velocity=55, time=0),\n",
      "    Message('note_on', channel=3, note=55, velocity=0, time=60),\n",
      "    Message('note_on', channel=3, note=62, velocity=90, time=0),\n",
      "    Message('note_on', channel=3, note=62, velocity=0, time=120),\n",
      "    Message('note_on', channel=3, note=62, velocity=90, time=0),\n",
      "    Message('note_on', channel=3, note=62, velocity=0, time=120),\n",
      "    Message('note_on', channel=3, note=57, velocity=40, time=0),\n",
      "    Message('note_on', channel=3, note=57, velocity=0, time=60),\n",
      "    Message('note_on', channel=3, note=62, velocity=90, time=0),\n",
      "    Message('note_on', channel=3, note=62, velocity=0, time=120),\n",
      "    Message('note_on', channel=3, note=57, velocity=40, time=0),\n",
      "    Message('note_on', channel=3, note=57, velocity=0, time=60),\n",
      "    Message('note_on', channel=3, note=62, velocity=90, time=0),\n",
      "    Message('note_on', channel=3, note=62, velocity=0, time=60),\n",
      "    Message('note_on', channel=3, note=57, velocity=40, time=0),\n",
      "    Message('note_on', channel=3, note=57, velocity=0, time=60),\n",
      "    Message('note_on', channel=3, note=61, velocity=90, time=0),\n",
      "    Message('note_on', channel=3, note=61, velocity=0, time=240),\n",
      "    Message('note_on', channel=3, note=57, velocity=90, time=295),\n",
      "    Message('note_on', channel=3, note=57, velocity=0, time=60),\n",
      "    Message('note_on', channel=3, note=62, velocity=90, time=0),\n",
      "    Message('note_on', channel=3, note=62, velocity=0, time=60),\n",
      "    Message('note_on', channel=3, note=64, velocity=90, time=0),\n",
      "    Message('note_on', channel=3, note=64, velocity=0, time=120),\n",
      "    Message('note_on', channel=3, note=64, velocity=90, time=0),\n",
      "    Message('note_on', channel=3, note=64, velocity=0, time=60),\n",
      "    Message('note_on', channel=3, note=62, velocity=90, time=0),\n",
      "    Message('note_on', channel=3, note=62, velocity=0, time=60),\n",
      "    Message('note_on', channel=3, note=57, velocity=90, time=0),\n",
      "    Message('note_on', channel=3, note=57, velocity=0, time=60),\n",
      "    Message('note_on', channel=3, note=59, velocity=90, time=60),\n",
      "    Message('note_on', channel=3, note=59, velocity=0, time=60),\n",
      "    Message('note_on', channel=3, note=62, velocity=90, time=0),\n",
      "    Message('note_on', channel=3, note=62, velocity=0, time=60),\n",
      "    Message('note_on', channel=3, note=64, velocity=90, time=0),\n",
      "    Message('note_on', channel=3, note=64, velocity=0, time=120),\n",
      "    Message('note_on', channel=3, note=64, velocity=90, time=0),\n",
      "    Message('note_on', channel=3, note=64, velocity=0, time=60),\n",
      "    Message('note_on', channel=3, note=62, velocity=90, time=0),\n",
      "    Message('note_on', channel=3, note=62, velocity=0, time=60),\n",
      "    Message('note_on', channel=3, note=57, velocity=90, time=0),\n",
      "    Message('note_on', channel=3, note=57, velocity=0, time=120),\n",
      "    Message('note_on', channel=3, note=57, velocity=90, time=0),\n",
      "    Message('note_on', channel=3, note=57, velocity=0, time=60),\n",
      "    Message('note_on', channel=3, note=59, velocity=90, time=0),\n",
      "    Message('note_on', channel=3, note=59, velocity=0, time=60),\n",
      "    Message('note_on', channel=3, note=62, velocity=90, time=0),\n",
      "    Message('note_on', channel=3, note=62, velocity=0, time=120),\n",
      "    Message('note_on', channel=3, note=59, velocity=90, time=0),\n",
      "    Message('note_on', channel=3, note=59, velocity=0, time=60),\n",
      "    Message('note_on', channel=3, note=57, velocity=90, time=0),\n",
      "    Message('note_on', channel=3, note=57, velocity=0, time=180),\n",
      "    Message('note_on', channel=3, note=57, velocity=90, time=0),\n",
      "    Message('note_on', channel=3, note=57, velocity=0, time=60),\n",
      "    Message('note_on', channel=3, note=59, velocity=90, time=0),\n",
      "    Message('note_on', channel=3, note=59, velocity=0, time=60),\n",
      "    Message('note_on', channel=3, note=62, velocity=90, time=0),\n",
      "    Message('note_on', channel=3, note=62, velocity=0, time=120),\n",
      "    Message('note_on', channel=3, note=59, velocity=90, time=0),\n",
      "    Message('note_on', channel=3, note=59, velocity=0, time=60),\n",
      "    Message('note_on', channel=3, note=62, velocity=90, time=0),\n",
      "    Message('note_on', channel=3, note=62, velocity=0, time=60),\n",
      "    Message('note_on', channel=3, note=57, velocity=90, time=0),\n",
      "    Message('note_on', channel=3, note=57, velocity=0, time=60),\n",
      "    Message('note_on', channel=3, note=57, velocity=90, time=60),\n",
      "    Message('note_on', channel=3, note=57, velocity=0, time=60),\n",
      "    Message('note_on', channel=3, note=62, velocity=90, time=0),\n",
      "    Message('note_on', channel=3, note=62, velocity=0, time=60),\n",
      "    Message('note_on', channel=3, note=64, velocity=90, time=0),\n",
      "    Message('note_on', channel=3, note=64, velocity=0, time=120),\n",
      "    Message('note_on', channel=3, note=64, velocity=90, time=0),\n",
      "    Message('note_on', channel=3, note=64, velocity=0, time=60),\n",
      "    Message('note_on', channel=3, note=62, velocity=90, time=0),\n",
      "    Message('note_on', channel=3, note=62, velocity=0, time=60),\n",
      "    Message('note_on', channel=3, note=57, velocity=90, time=0),\n",
      "    Message('note_on', channel=3, note=57, velocity=0, time=60),\n",
      "    Message('note_on', channel=3, note=59, velocity=90, time=60),\n",
      "    Message('note_on', channel=3, note=59, velocity=0, time=60),\n",
      "    Message('note_on', channel=3, note=62, velocity=90, time=0),\n",
      "    Message('note_on', channel=3, note=62, velocity=0, time=60),\n",
      "    Message('note_on', channel=3, note=64, velocity=90, time=0),\n",
      "    Message('note_on', channel=3, note=64, velocity=0, time=120),\n",
      "    Message('note_on', channel=3, note=64, velocity=90, time=0),\n",
      "    Message('note_on', channel=3, note=64, velocity=0, time=60),\n",
      "    Message('note_on', channel=3, note=62, velocity=90, time=0),\n",
      "    Message('note_on', channel=3, note=62, velocity=0, time=60),\n",
      "    Message('note_on', channel=3, note=57, velocity=90, time=0),\n",
      "    Message('note_on', channel=3, note=57, velocity=0, time=120),\n",
      "    Message('note_on', channel=3, note=57, velocity=90, time=0),\n",
      "    Message('note_on', channel=3, note=57, velocity=0, time=60),\n",
      "    Message('note_on', channel=3, note=59, velocity=90, time=0),\n",
      "    Message('note_on', channel=3, note=59, velocity=0, time=60),\n",
      "    Message('note_on', channel=3, note=62, velocity=90, time=0),\n",
      "    Message('note_on', channel=3, note=62, velocity=0, time=120),\n",
      "    Message('note_on', channel=3, note=59, velocity=90, time=0),\n",
      "    Message('note_on', channel=3, note=59, velocity=0, time=60),\n",
      "    Message('note_on', channel=3, note=57, velocity=90, time=0),\n",
      "    Message('note_on', channel=3, note=57, velocity=0, time=180),\n",
      "    Message('note_on', channel=3, note=57, velocity=90, time=0),\n",
      "    Message('note_on', channel=3, note=57, velocity=0, time=60),\n",
      "    Message('note_on', channel=3, note=59, velocity=90, time=0),\n",
      "    Message('note_on', channel=3, note=59, velocity=0, time=60),\n",
      "    Message('note_on', channel=3, note=62, velocity=90, time=0),\n",
      "    Message('note_on', channel=3, note=62, velocity=0, time=120),\n",
      "    Message('note_on', channel=3, note=59, velocity=90, time=0),\n",
      "    Message('note_on', channel=3, note=59, velocity=0, time=60),\n",
      "    Message('note_on', channel=3, note=62, velocity=90, time=0),\n",
      "    Message('note_on', channel=3, note=62, velocity=0, time=60),\n",
      "    Message('note_on', channel=3, note=57, velocity=90, time=0),\n",
      "    Message('note_on', channel=3, note=57, velocity=0, time=60),\n",
      "    Message('note_on', channel=3, note=57, velocity=90, time=60),\n",
      "    Message('note_on', channel=3, note=57, velocity=0, time=60),\n",
      "    Message('note_on', channel=3, note=62, velocity=90, time=0),\n",
      "    Message('note_on', channel=3, note=62, velocity=0, time=60),\n",
      "    Message('note_on', channel=3, note=64, velocity=90, time=0),\n",
      "    Message('note_on', channel=3, note=64, velocity=0, time=120),\n",
      "    Message('note_on', channel=3, note=64, velocity=90, time=0),\n",
      "    Message('note_on', channel=3, note=64, velocity=0, time=60),\n",
      "    Message('note_on', channel=3, note=62, velocity=90, time=0),\n",
      "    Message('note_on', channel=3, note=62, velocity=0, time=60),\n",
      "    Message('note_on', channel=3, note=57, velocity=90, time=0),\n",
      "    Message('note_on', channel=3, note=57, velocity=0, time=60),\n",
      "    Message('note_on', channel=3, note=59, velocity=90, time=540),\n",
      "    Message('note_on', channel=3, note=59, velocity=0, time=60),\n",
      "    Message('note_on', channel=3, note=64, velocity=90, time=0),\n",
      "    Message('note_on', channel=3, note=64, velocity=0, time=60),\n",
      "    Message('note_on', channel=3, note=66, velocity=90, time=0),\n",
      "    Message('note_on', channel=3, note=66, velocity=0, time=120),\n",
      "    Message('note_on', channel=3, note=66, velocity=90, time=0),\n",
      "    Message('note_on', channel=3, note=66, velocity=0, time=60),\n",
      "    Message('note_on', channel=3, note=64, velocity=90, time=0),\n",
      "    Message('note_on', channel=3, note=64, velocity=0, time=60),\n",
      "    Message('note_on', channel=3, note=59, velocity=90, time=0),\n",
      "    Message('note_on', channel=3, note=59, velocity=0, time=60),\n",
      "    Message('note_on', channel=3, note=61, velocity=90, time=60),\n",
      "    Message('note_on', channel=3, note=61, velocity=0, time=60),\n",
      "    Message('note_on', channel=3, note=64, velocity=90, time=0),\n",
      "    Message('note_on', channel=3, note=64, velocity=0, time=60),\n",
      "    Message('note_on', channel=3, note=66, velocity=90, time=0),\n",
      "    Message('note_on', channel=3, note=66, velocity=0, time=120),\n",
      "    Message('note_on', channel=3, note=66, velocity=90, time=0),\n",
      "    Message('note_on', channel=3, note=66, velocity=0, time=60),\n",
      "    Message('note_on', channel=3, note=64, velocity=90, time=0),\n",
      "    Message('note_on', channel=3, note=64, velocity=0, time=60),\n",
      "    Message('note_on', channel=3, note=59, velocity=90, time=0),\n",
      "    Message('note_on', channel=3, note=59, velocity=0, time=120),\n",
      "    Message('note_on', channel=3, note=59, velocity=90, time=0),\n",
      "    Message('note_on', channel=3, note=59, velocity=0, time=60),\n",
      "    Message('note_on', channel=3, note=61, velocity=90, time=0),\n",
      "    Message('note_on', channel=3, note=61, velocity=0, time=60),\n",
      "    Message('note_on', channel=3, note=64, velocity=90, time=0),\n",
      "    Message('note_on', channel=3, note=64, velocity=0, time=120),\n",
      "    Message('note_on', channel=3, note=61, velocity=90, time=0),\n",
      "    Message('note_on', channel=3, note=61, velocity=0, time=60),\n",
      "    Message('note_on', channel=3, note=59, velocity=90, time=0),\n",
      "    Message('note_on', channel=3, note=59, velocity=0, time=180),\n",
      "    Message('note_on', channel=3, note=59, velocity=90, time=0),\n",
      "    Message('note_on', channel=3, note=59, velocity=0, time=60),\n",
      "    Message('note_on', channel=3, note=61, velocity=90, time=0),\n",
      "    Message('note_on', channel=3, note=61, velocity=0, time=60),\n",
      "    Message('note_on', channel=3, note=64, velocity=90, time=0),\n",
      "    Message('note_on', channel=3, note=64, velocity=0, time=120),\n",
      "    Message('note_on', channel=3, note=61, velocity=90, time=0),\n",
      "    Message('note_on', channel=3, note=61, velocity=0, time=60),\n",
      "    Message('note_on', channel=3, note=64, velocity=90, time=0),\n",
      "    Message('note_on', channel=3, note=64, velocity=0, time=60),\n",
      "    Message('note_on', channel=3, note=59, velocity=90, time=0),\n",
      "    Message('note_on', channel=3, note=59, velocity=0, time=60),\n",
      "    Message('note_on', channel=3, note=63, velocity=90, time=0),\n",
      "    Message('note_on', channel=3, note=63, velocity=0, time=120),\n",
      "    Message('note_on', channel=3, note=56, velocity=73, time=0),\n",
      "    Message('note_on', channel=3, note=56, velocity=0, time=60),\n",
      "    Message('note_on', channel=3, note=66, velocity=90, time=0),\n",
      "    Message('note_on', channel=3, note=66, velocity=0, time=120),\n",
      "    Message('note_on', channel=3, note=56, velocity=60, time=0),\n",
      "    Message('note_on', channel=3, note=56, velocity=0, time=60),\n",
      "    Message('note_on', channel=3, note=66, velocity=90, time=0),\n",
      "    Message('note_on', channel=3, note=66, velocity=0, time=60),\n",
      "    Message('note_on', channel=3, note=56, velocity=70, time=0),\n",
      "    Message('note_on', channel=3, note=56, velocity=0, time=60),\n",
      "    Message('note_on', channel=3, note=64, velocity=90, time=0),\n",
      "    Message('note_on', channel=3, note=64, velocity=0, time=120),\n",
      "    Message('note_on', channel=3, note=61, velocity=60, time=0),\n",
      "    Message('note_on', channel=3, note=61, velocity=0, time=60),\n",
      "    Message('note_on', channel=3, note=66, velocity=90, time=0),\n",
      "    Message('note_on', channel=3, note=66, velocity=0, time=120),\n",
      "    Message('note_on', channel=3, note=64, velocity=90, time=0),\n",
      "    Message('note_on', channel=3, note=64, velocity=0, time=120),\n",
      "    Message('note_on', channel=3, note=63, velocity=90, time=0),\n",
      "    Message('note_on', channel=3, note=63, velocity=0, time=180),\n",
      "    Message('note_on', channel=3, note=56, velocity=50, time=0),\n",
      "    Message('note_on', channel=3, note=56, velocity=0, time=60),\n",
      "    Message('note_on', channel=3, note=66, velocity=90, time=0),\n",
      "    Message('note_on', channel=3, note=66, velocity=0, time=120),\n",
      "    Message('note_on', channel=3, note=56, velocity=50, time=0),\n",
      "    Message('note_on', channel=3, note=56, velocity=0, time=60),\n",
      "    Message('note_on', channel=3, note=63, velocity=90, time=0),\n",
      "    Message('note_on', channel=3, note=63, velocity=0, time=60),\n",
      "    Message('note_on', channel=3, note=56, velocity=50, time=0),\n",
      "    Message('note_on', channel=3, note=56, velocity=0, time=60),\n",
      "    Message('note_on', channel=3, note=64, velocity=90, time=0),\n",
      "    Message('note_on', channel=3, note=64, velocity=0, time=120),\n",
      "    Message('note_on', channel=3, note=56, velocity=50, time=0),\n",
      "    Message('note_on', channel=3, note=56, velocity=0, time=60),\n",
      "    Message('note_on', channel=3, note=64, velocity=90, time=0),\n",
      "    Message('note_on', channel=3, note=64, velocity=0, time=120),\n",
      "    Message('note_on', channel=3, note=56, velocity=50, time=0),\n",
      "    Message('note_on', channel=3, note=56, velocity=0, time=60),\n",
      "    Message('note_on', channel=3, note=61, velocity=90, time=0),\n",
      "    Message('note_on', channel=3, note=61, velocity=0, time=60),\n",
      "    Message('note_on', channel=3, note=56, velocity=50, time=0),\n",
      "    Message('note_on', channel=3, note=56, velocity=0, time=60),\n",
      "    Message('note_on', channel=3, note=59, velocity=90, time=0),\n",
      "    Message('note_on', channel=3, note=59, velocity=0, time=120),\n",
      "    Message('note_on', channel=3, note=57, velocity=90, time=0),\n",
      "    Message('note_on', channel=3, note=57, velocity=0, time=180),\n",
      "    Message('note_on', channel=3, note=52, velocity=40, time=0),\n",
      "    Message('note_on', channel=3, note=52, velocity=0, time=60),\n",
      "    Message('note_on', channel=3, note=57, velocity=90, time=0),\n",
      "    Message('note_on', channel=3, note=57, velocity=0, time=60),\n",
      "    Message('note_on', channel=3, note=52, velocity=40, time=0),\n",
      "    Message('note_on', channel=3, note=52, velocity=0, time=60),\n",
      "    Message('note_on', channel=3, note=56, velocity=90, time=0),\n",
      "    Message('note_on', channel=3, note=56, velocity=0, time=150),\n",
      "    Message('note_on', channel=3, note=61, velocity=90, time=30),\n",
      "    Message('note_on', channel=3, note=61, velocity=0, time=90),\n",
      "    Message('note_on', channel=3, note=61, velocity=90, time=30),\n",
      "    Message('note_on', channel=3, note=61, velocity=0, time=180),\n",
      "    Message('note_on', channel=3, note=64, velocity=90, time=0),\n",
      "    Message('note_on', channel=3, note=64, velocity=0, time=180),\n",
      "    Message('note_on', channel=3, note=56, velocity=40, time=0),\n",
      "    Message('note_on', channel=3, note=56, velocity=0, time=120),\n",
      "    Message('note_on', channel=3, note=57, velocity=55, time=0),\n",
      "    Message('note_on', channel=3, note=57, velocity=0, time=60),\n",
      "    Message('note_on', channel=3, note=64, velocity=90, time=0),\n",
      "    Message('note_on', channel=3, note=64, velocity=0, time=120),\n",
      "    Message('note_on', channel=3, note=64, velocity=90, time=0),\n",
      "    Message('note_on', channel=3, note=64, velocity=0, time=120),\n",
      "    Message('note_on', channel=3, note=59, velocity=40, time=0),\n",
      "    Message('note_on', channel=3, note=59, velocity=0, time=60),\n",
      "    Message('note_on', channel=3, note=64, velocity=90, time=0),\n",
      "    Message('note_on', channel=3, note=64, velocity=0, time=120),\n",
      "    Message('note_on', channel=3, note=59, velocity=40, time=0),\n",
      "    Message('note_on', channel=3, note=59, velocity=0, time=60),\n",
      "    Message('note_on', channel=3, note=64, velocity=90, time=0),\n",
      "    Message('note_on', channel=3, note=64, velocity=0, time=60),\n",
      "    Message('note_on', channel=3, note=59, velocity=40, time=0),\n",
      "    Message('note_on', channel=3, note=59, velocity=0, time=60),\n",
      "    Message('note_on', channel=3, note=63, velocity=90, time=0),\n",
      "    Message('note_on', channel=3, note=63, velocity=0, time=240),\n",
      "    MetaMessage('end_of_track', time=0)]),\n",
      "  MidiTrack([\n",
      "    MetaMessage('midi_port', port=0, time=0),\n",
      "    MetaMessage('track_name', name='BASS', time=0),\n",
      "    Message('program_change', channel=4, program=33, time=0),\n",
      "    Message('control_change', channel=4, control=7, value=120, time=0),\n",
      "    Message('control_change', channel=4, control=10, value=64, time=0),\n",
      "    Message('note_on', channel=4, note=38, velocity=90, time=480),\n",
      "    Message('note_on', channel=4, note=38, velocity=0, time=180),\n",
      "    Message('note_on', channel=4, note=38, velocity=90, time=0),\n",
      "    Message('note_on', channel=4, note=38, velocity=0, time=180),\n",
      "    Message('note_on', channel=4, note=38, velocity=90, time=0),\n",
      "    Message('note_on', channel=4, note=38, velocity=0, time=60),\n",
      "    Message('note_on', channel=4, note=33, velocity=90, time=0),\n",
      "    Message('note_on', channel=4, note=33, velocity=0, time=60),\n",
      "    Message('note_on', channel=4, note=35, velocity=90, time=0),\n",
      "    Message('note_on', channel=4, note=35, velocity=0, time=150),\n",
      "    Message('note_on', channel=4, note=35, velocity=90, time=30),\n",
      "    Message('note_on', channel=4, note=35, velocity=0, time=120),\n",
      "    Message('note_on', channel=4, note=35, velocity=90, time=0),\n",
      "    Message('note_on', channel=4, note=35, velocity=0, time=120),\n",
      "    Message('note_on', channel=4, note=30, velocity=90, time=0),\n",
      "    Message('note_on', channel=4, note=30, velocity=0, time=60),\n",
      "    Message('note_on', channel=4, note=31, velocity=90, time=0),\n",
      "    Message('note_on', channel=4, note=31, velocity=0, time=150),\n",
      "    Message('note_on', channel=4, note=31, velocity=90, time=30),\n",
      "    Message('note_on', channel=4, note=31, velocity=0, time=30),\n",
      "    Message('note_on', channel=4, note=31, velocity=90, time=30),\n",
      "    Message('note_on', channel=4, note=31, velocity=0, time=240),\n",
      "    Message('note_on', channel=4, note=31, velocity=90, time=0),\n",
      "    Message('note_on', channel=4, note=31, velocity=0, time=150),\n",
      "    Message('note_on', channel=4, note=31, velocity=90, time=30),\n",
      "    Message('note_on', channel=4, note=31, velocity=0, time=30),\n",
      "    Message('note_on', channel=4, note=31, velocity=90, time=30),\n",
      "    Message('note_on', channel=4, note=31, velocity=0, time=120),\n",
      "    Message('note_on', channel=4, note=33, velocity=90, time=0),\n",
      "    Message('note_on', channel=4, note=33, velocity=0, time=60),\n",
      "    Message('note_on', channel=4, note=35, velocity=90, time=0),\n",
      "    Message('note_on', channel=4, note=35, velocity=0, time=60),\n",
      "    Message('note_on', channel=4, note=38, velocity=90, time=0),\n",
      "    Message('note_on', channel=4, note=38, velocity=90, time=0),\n",
      "    Message('note_on', channel=4, note=38, velocity=0, time=120),\n",
      "    Message('note_on', channel=4, note=38, velocity=0, time=60),\n",
      "    Message('note_on', channel=4, note=38, velocity=90, time=0),\n",
      "    Message('note_on', channel=4, note=38, velocity=0, time=180),\n",
      "    Message('note_on', channel=4, note=38, velocity=90, time=0),\n",
      "    Message('note_on', channel=4, note=38, velocity=0, time=60),\n",
      "    Message('note_on', channel=4, note=33, velocity=90, time=0),\n",
      "    Message('note_on', channel=4, note=33, velocity=0, time=60),\n",
      "    Message('note_on', channel=4, note=35, velocity=90, time=0),\n",
      "    Message('note_on', channel=4, note=35, velocity=0, time=150),\n",
      "    Message('note_on', channel=4, note=35, velocity=90, time=30),\n",
      "    Message('note_on', channel=4, note=35, velocity=0, time=120),\n",
      "    Message('note_on', channel=4, note=35, velocity=90, time=0),\n",
      "    Message('note_on', channel=4, note=35, velocity=0, time=120),\n",
      "    Message('note_on', channel=4, note=30, velocity=90, time=0),\n",
      "    Message('note_on', channel=4, note=30, velocity=0, time=60),\n",
      "    Message('note_on', channel=4, note=31, velocity=90, time=0),\n",
      "    Message('note_on', channel=4, note=31, velocity=0, time=150),\n",
      "    Message('note_on', channel=4, note=31, velocity=90, time=30),\n",
      "    Message('note_on', channel=4, note=31, velocity=0, time=30),\n",
      "    Message('note_on', channel=4, note=31, velocity=90, time=30),\n",
      "    Message('note_on', channel=4, note=31, velocity=0, time=240),\n",
      "    Message('note_on', channel=4, note=31, velocity=90, time=0),\n",
      "    Message('note_on', channel=4, note=31, velocity=0, time=150),\n",
      "    Message('note_on', channel=4, note=31, velocity=90, time=30),\n",
      "    Message('note_on', channel=4, note=31, velocity=0, time=30),\n",
      "    Message('note_on', channel=4, note=31, velocity=90, time=30),\n",
      "    Message('note_on', channel=4, note=31, velocity=0, time=120),\n",
      "    Message('note_on', channel=4, note=33, velocity=90, time=0),\n",
      "    Message('note_on', channel=4, note=33, velocity=0, time=60),\n",
      "    Message('note_on', channel=4, note=35, velocity=90, time=0),\n",
      "    Message('note_on', channel=4, note=35, velocity=0, time=60),\n",
      "    Message('note_on', channel=4, note=38, velocity=90, time=0),\n",
      "    Message('note_on', channel=4, note=38, velocity=90, time=0),\n",
      "    Message('note_on', channel=4, note=38, velocity=0, time=120),\n",
      "    Message('note_on', channel=4, note=38, velocity=0, time=60),\n",
      "    Message('note_on', channel=4, note=38, velocity=90, time=0),\n",
      "    Message('note_on', channel=4, note=38, velocity=0, time=180),\n",
      "    Message('note_on', channel=4, note=38, velocity=90, time=0),\n",
      "    Message('note_on', channel=4, note=38, velocity=0, time=120),\n",
      "    Message('note_on', channel=4, note=35, velocity=90, time=0),\n",
      "    Message('note_on', channel=4, note=35, velocity=0, time=120),\n",
      "    Message('note_on', channel=4, note=35, velocity=90, time=30),\n",
      "    Message('note_on', channel=4, note=35, velocity=0, time=120),\n",
      "    Message('note_on', channel=4, note=30, velocity=90, time=0),\n",
      "    Message('note_on', channel=4, note=30, velocity=0, time=30),\n",
      "    Message('note_on', channel=4, note=35, velocity=90, time=0),\n",
      "    Message('note_on', channel=4, note=35, velocity=0, time=120),\n",
      "    Message('note_on', channel=4, note=30, velocity=90, time=0),\n",
      "    Message('note_on', channel=4, note=30, velocity=0, time=60),\n",
      "    Message('note_on', channel=4, note=31, velocity=90, time=0),\n",
      "    Message('note_on', channel=4, note=31, velocity=0, time=150),\n",
      "    Message('note_on', channel=4, note=26, velocity=90, time=0),\n",
      "    Message('note_on', channel=4, note=26, velocity=0, time=30),\n",
      "    Message('note_on', channel=4, note=31, velocity=90, time=0),\n",
      "    Message('note_on', channel=4, note=31, velocity=0, time=90),\n",
      "    Message('note_on', channel=4, note=26, velocity=90, time=0),\n",
      "    Message('note_on', channel=4, note=26, velocity=0, time=30),\n",
      "    Message('note_on', channel=4, note=31, velocity=90, time=0),\n",
      "    Message('note_on', channel=4, note=31, velocity=0, time=150),\n",
      "    Message('note_on', channel=4, note=31, velocity=90, time=30),\n",
      "    Message('note_on', channel=4, note=31, velocity=0, time=150),\n",
      "    Message('note_on', channel=4, note=31, velocity=90, time=60),\n",
      "    Message('note_on', channel=4, note=31, velocity=0, time=30),\n",
      "    Message('note_on', channel=4, note=33, velocity=90, time=0),\n",
      "    Message('note_on', channel=4, note=33, velocity=0, time=30),\n",
      "    Message('note_on', channel=4, note=33, velocity=90, time=30),\n",
      "    Message('note_on', channel=4, note=33, velocity=0, time=90),\n",
      "    Message('note_on', channel=4, note=33, velocity=90, time=30),\n",
      "    Message('note_on', channel=4, note=33, velocity=0, time=60),\n",
      "    Message('note_on', channel=4, note=38, velocity=90, time=0),\n",
      "    Message('note_on', channel=4, note=38, velocity=0, time=150),\n",
      "    Message('note_on', channel=4, note=38, velocity=90, time=30),\n",
      "    Message('note_on', channel=4, note=38, velocity=0, time=30),\n",
      "    Message('note_on', channel=4, note=38, velocity=90, time=0),\n",
      "    Message('note_on', channel=4, note=38, velocity=0, time=60),\n",
      "    Message('note_on', channel=4, note=38, velocity=90, time=0),\n",
      "    Message('note_on', channel=4, note=38, velocity=0, time=150),\n",
      "    Message('note_on', channel=4, note=38, velocity=90, time=0),\n",
      "    Message('note_on', channel=4, note=38, velocity=0, time=60),\n",
      "    Message('note_on', channel=4, note=35, velocity=90, time=0),\n",
      "    Message('note_on', channel=4, note=35, velocity=0, time=150),\n",
      "    Message('note_on', channel=4, note=35, velocity=90, time=30),\n",
      "    Message('note_on', channel=4, note=35, velocity=0, time=30),\n",
      "    Message('note_on', channel=4, note=35, velocity=90, time=0),\n",
      "    Message('note_on', channel=4, note=35, velocity=0, time=90),\n",
      "    Message('note_on', channel=4, note=30, velocity=90, time=0),\n",
      "    Message('note_on', channel=4, note=30, velocity=0, time=30),\n",
      "    Message('note_on', channel=4, note=35, velocity=90, time=0),\n",
      "    Message('note_on', channel=4, note=35, velocity=0, time=90),\n",
      "    Message('note_on', channel=4, note=30, velocity=90, time=0),\n",
      "    Message('note_on', channel=4, note=30, velocity=0, time=60),\n",
      "    Message('note_on', channel=4, note=31, velocity=90, time=0),\n",
      "    Message('note_on', channel=4, note=31, velocity=0, time=180),\n",
      "    Message('note_on', channel=4, note=31, velocity=90, time=60),\n",
      "    Message('note_on', channel=4, note=31, velocity=0, time=30),\n",
      "    Message('note_on', channel=4, note=26, velocity=90, time=0),\n",
      "    Message('note_on', channel=4, note=26, velocity=0, time=30),\n",
      "    Message('note_on', channel=4, note=31, velocity=90, time=0),\n",
      "    Message('note_on', channel=4, note=31, velocity=0, time=150),\n",
      "    Message('note_on', channel=4, note=31, velocity=90, time=30),\n",
      "    Message('note_on', channel=4, note=31, velocity=0, time=150),\n",
      "    Message('note_on', channel=4, note=31, velocity=90, time=30),\n",
      "    Message('note_on', channel=4, note=31, velocity=0, time=120),\n",
      "    Message('note_on', channel=4, note=33, velocity=90, time=60),\n",
      "    Message('note_on', channel=4, note=33, velocity=0, time=60),\n",
      "    Message('note_on', channel=4, note=31, velocity=90, time=0),\n",
      "    Message('note_on', channel=4, note=31, velocity=0, time=60),\n",
      "    Message('note_on', channel=4, note=30, velocity=90, time=0),\n",
      "    Message('note_on', channel=4, note=28, velocity=90, time=0),\n",
      "    Message('note_on', channel=4, note=28, velocity=0, time=30),\n",
      "    Message('note_on', channel=4, note=30, velocity=0, time=120),\n",
      "    Message('note_on', channel=4, note=30, velocity=90, time=30),\n",
      "    Message('note_on', channel=4, note=30, velocity=0, time=90),\n",
      "    Message('note_on', channel=4, note=30, velocity=90, time=30),\n",
      "    Message('note_on', channel=4, note=30, velocity=0, time=120),\n",
      "    Message('note_on', channel=4, note=33, velocity=90, time=0),\n",
      "    Message('note_on', channel=4, note=33, velocity=0, time=60),\n",
      "    Message('note_on', channel=4, note=35, velocity=90, time=0),\n",
      "    Message('note_on', channel=4, note=35, velocity=0, time=150),\n",
      "    Message('note_on', channel=4, note=35, velocity=90, time=30),\n",
      "    Message('note_on', channel=4, note=35, velocity=0, time=120),\n",
      "    Message('note_on', channel=4, note=38, velocity=90, time=0),\n",
      "    Message('note_on', channel=4, note=38, velocity=0, time=120),\n",
      "    Message('note_on', channel=4, note=35, velocity=90, time=0),\n",
      "    Message('note_on', channel=4, note=35, velocity=0, time=60),\n",
      "    Message('note_on', channel=4, note=30, velocity=90, time=0),\n",
      "    Message('note_on', channel=4, note=30, velocity=0, time=180),\n",
      "    Message('note_on', channel=4, note=30, velocity=90, time=0),\n",
      "    Message('note_on', channel=4, note=30, velocity=0, time=120),\n",
      "    Message('note_on', channel=4, note=30, velocity=90, time=0),\n",
      "    Message('note_on', channel=4, note=30, velocity=0, time=120),\n",
      "    Message('note_on', channel=4, note=33, velocity=90, time=0),\n",
      "    Message('note_on', channel=4, note=33, velocity=0, time=60),\n",
      "    Message('note_on', channel=4, note=35, velocity=90, time=0),\n",
      "    Message('note_on', channel=4, note=35, velocity=0, time=120),\n",
      "    Message('note_on', channel=4, note=30, velocity=90, time=0),\n",
      "    Message('note_on', channel=4, note=30, velocity=0, time=60),\n",
      "    Message('note_on', channel=4, note=35, velocity=90, time=0),\n",
      "    Message('note_on', channel=4, note=35, velocity=0, time=120),\n",
      "    Message('note_on', channel=4, note=30, velocity=90, time=0),\n",
      "    Message('note_on', channel=4, note=30, velocity=0, time=120),\n",
      "    Message('note_on', channel=4, note=35, velocity=90, time=0),\n",
      "    Message('note_on', channel=4, note=35, velocity=0, time=60),\n",
      "    Message('note_on', channel=4, note=31, velocity=90, time=0),\n",
      "    Message('note_on', channel=4, note=31, velocity=0, time=180),\n",
      "    Message('note_on', channel=4, note=31, velocity=90, time=0),\n",
      "    Message('note_on', channel=4, note=31, velocity=0, time=120),\n",
      "    Message('note_on', channel=4, note=26, velocity=90, time=0),\n",
      "    Message('note_on', channel=4, note=26, velocity=0, time=60),\n",
      "    Message('note_on', channel=4, note=31, velocity=90, time=0),\n",
      "    Message('note_on', channel=4, note=31, velocity=0, time=120),\n",
      "    Message('note_on', channel=4, note=30, velocity=90, time=0),\n",
      "    Message('note_on', channel=4, note=30, velocity=0, time=90),\n",
      "    Message('note_on', channel=4, note=30, velocity=90, time=30),\n",
      "    Message('note_on', channel=4, note=30, velocity=0, time=60),\n",
      "    Message('note_on', channel=4, note=35, velocity=90, time=0),\n",
      "    Message('note_on', channel=4, note=35, velocity=0, time=120),\n",
      "    Message('note_on', channel=4, note=35, velocity=90, time=0),\n",
      "    Message('note_on', channel=4, note=35, velocity=0, time=90),\n",
      "    Message('note_on', channel=4, note=35, velocity=90, time=30),\n",
      "    Message('note_on', channel=4, note=35, velocity=0, time=60),\n",
      "    Message('note_on', channel=4, note=28, velocity=90, time=0),\n",
      "    Message('note_on', channel=4, note=28, velocity=0, time=150),\n",
      "    Message('note_on', channel=4, note=28, velocity=90, time=30),\n",
      "    Message('note_on', channel=4, note=28, velocity=0, time=120),\n",
      "    Message('note_on', channel=4, note=30, velocity=90, time=0),\n",
      "    Message('note_on', channel=4, note=30, velocity=0, time=60),\n",
      "    Message('note_on', channel=4, note=31, velocity=90, time=0),\n",
      "    Message('note_on', channel=4, note=31, velocity=0, time=60),\n",
      "    Message('note_on', channel=4, note=35, velocity=90, time=0),\n",
      "    Message('note_on', channel=4, note=35, velocity=0, time=60),\n",
      "    Message('note_on', channel=4, note=33, velocity=90, time=0),\n",
      "    Message('note_on', channel=4, note=33, velocity=0, time=150),\n",
      "    Message('note_on', channel=4, note=33, velocity=90, time=30),\n",
      "    Message('note_on', channel=4, note=33, velocity=0, time=120),\n",
      "    Message('note_on', channel=4, note=33, velocity=90, time=0),\n",
      "    Message('note_on', channel=4, note=33, velocity=0, time=120),\n",
      "    Message('note_on', channel=4, note=28, velocity=90, time=0),\n",
      "    Message('note_on', channel=4, note=28, velocity=0, time=60),\n",
      "    Message('note_on', channel=4, note=35, velocity=90, time=0),\n",
      "    Message('note_on', channel=4, note=33, velocity=90, time=0),\n",
      "    Message('note_on', channel=4, note=35, velocity=0, time=30),\n",
      "    Message('note_on', channel=4, note=33, velocity=100, time=150),\n",
      "    Message('note_on', channel=4, note=33, velocity=0, time=60),\n",
      "    Message('note_on', channel=4, note=33, velocity=0, time=0),\n",
      "    Message('note_on', channel=4, note=33, velocity=100, time=0),\n",
      "    Message('note_on', channel=4, note=33, velocity=0, time=240),\n",
      "    Message('note_on', channel=4, note=38, velocity=90, time=0),\n",
      "    Message('note_on', channel=4, note=38, velocity=0, time=150),\n",
      "    Message('note_on', channel=4, note=38, velocity=90, time=30),\n",
      "    Message('note_on', channel=4, note=38, velocity=0, time=90),\n",
      "    Message('note_on', channel=4, note=38, velocity=90, time=30),\n",
      "    Message('note_on', channel=4, note=38, velocity=0, time=90),\n",
      "    Message('note_on', channel=4, note=38, velocity=90, time=30),\n",
      "    Message('note_on', channel=4, note=38, velocity=0, time=60),\n",
      "    Message('note_on', channel=4, note=35, velocity=90, time=0),\n",
      "    Message('note_on', channel=4, note=35, velocity=0, time=120),\n",
      "    Message('note_on', channel=4, note=30, velocity=90, time=0),\n",
      "    Message('note_on', channel=4, note=30, velocity=0, time=60),\n",
      "    Message('note_on', channel=4, note=35, velocity=90, time=0),\n",
      "    Message('note_on', channel=4, note=35, velocity=0, time=90),\n",
      "    Message('note_on', channel=4, note=35, velocity=90, time=30),\n",
      "    Message('note_on', channel=4, note=35, velocity=0, time=120),\n",
      "    Message('note_on', channel=4, note=30, velocity=90, time=0),\n",
      "    Message('note_on', channel=4, note=30, velocity=0, time=60),\n",
      "    Message('note_on', channel=4, note=31, velocity=90, time=0),\n",
      "    Message('note_on', channel=4, note=31, velocity=0, time=120),\n",
      "    Message('note_on', channel=4, note=31, velocity=90, time=0),\n",
      "    Message('note_on', channel=4, note=31, velocity=0, time=30),\n",
      "    Message('note_on', channel=4, note=31, velocity=90, time=30),\n",
      "    Message('note_on', channel=4, note=31, velocity=0, time=120),\n",
      "    Message('note_on', channel=4, note=26, velocity=90, time=0),\n",
      "    Message('note_on', channel=4, note=26, velocity=0, time=60),\n",
      "    Message('note_on', channel=4, note=31, velocity=90, time=0),\n",
      "    Message('note_on', channel=4, note=31, velocity=0, time=120),\n",
      "    Message('note_on', channel=4, note=31, velocity=90, time=0),\n",
      "    Message('note_on', channel=4, note=31, velocity=0, time=90),\n",
      "    Message('note_on', channel=4, note=31, velocity=90, time=30),\n",
      "    Message('note_on', channel=4, note=31, velocity=0, time=60),\n",
      "    Message('note_on', channel=4, note=33, velocity=90, time=0),\n",
      "    Message('note_on', channel=4, note=33, velocity=0, time=90),\n",
      "    Message('note_on', channel=4, note=33, velocity=90, time=30),\n",
      "    Message('note_on', channel=4, note=33, velocity=0, time=120),\n",
      "    Message('note_on', channel=4, note=35, velocity=90, time=0),\n",
      "    Message('note_on', channel=4, note=35, velocity=0, time=30),\n",
      "    Message('note_on', channel=4, note=37, velocity=90, time=0),\n",
      "    Message('note_on', channel=4, note=37, velocity=0, time=30),\n",
      "    Message('note_on', channel=4, note=38, velocity=90, time=0),\n",
      "    Message('note_on', channel=4, note=38, velocity=0, time=120),\n",
      "    Message('note_on', channel=4, note=33, velocity=90, time=0),\n",
      "    Message('note_on', channel=4, note=33, velocity=0, time=60),\n",
      "    Message('note_on', channel=4, note=38, velocity=90, time=0),\n",
      "    Message('note_on', channel=4, note=38, velocity=0, time=120),\n",
      "    Message('note_on', channel=4, note=38, velocity=90, time=0),\n",
      "    Message('note_on', channel=4, note=38, velocity=0, time=90),\n",
      "    Message('note_on', channel=4, note=38, velocity=90, time=30),\n",
      "    Message('note_on', channel=4, note=38, velocity=0, time=30),\n",
      "    Message('note_on', channel=4, note=37, velocity=90, time=0),\n",
      "    Message('note_on', channel=4, note=37, velocity=0, time=30),\n",
      "    Message('note_on', channel=4, note=35, velocity=90, time=0),\n",
      "    Message('note_on', channel=4, note=35, velocity=0, time=90),\n",
      "    Message('note_on', channel=4, note=35, velocity=90, time=30),\n",
      "    Message('note_on', channel=4, note=35, velocity=0, time=30),\n",
      "    Message('note_on', channel=4, note=30, velocity=90, time=0),\n",
      "    Message('note_on', channel=4, note=30, velocity=0, time=30),\n",
      "    Message('note_on', channel=4, note=35, velocity=90, time=0),\n",
      "    Message('note_on', channel=4, note=35, velocity=0, time=90),\n",
      "    Message('note_on', channel=4, note=35, velocity=90, time=30),\n",
      "    Message('note_on', channel=4, note=35, velocity=0, time=120),\n",
      "    Message('note_on', channel=4, note=30, velocity=90, time=0),\n",
      "    Message('note_on', channel=4, note=30, velocity=0, time=60),\n",
      "    Message('note_on', channel=4, note=31, velocity=90, time=0),\n",
      "    Message('note_on', channel=4, note=31, velocity=0, time=180),\n",
      "    Message('note_on', channel=4, note=31, velocity=90, time=30),\n",
      "    Message('note_on', channel=4, note=31, velocity=0, time=30),\n",
      "    Message('note_on', channel=4, note=31, velocity=90, time=0),\n",
      "    Message('note_on', channel=4, note=31, velocity=0, time=60),\n",
      "    Message('note_on', channel=4, note=31, velocity=90, time=0),\n",
      "    Message('note_on', channel=4, note=31, velocity=0, time=120),\n",
      "    Message('note_on', channel=4, note=31, velocity=90, time=30),\n",
      "    Message('note_on', channel=4, note=31, velocity=0, time=30),\n",
      "    Message('note_on', channel=4, note=31, velocity=90, time=0),\n",
      "    Message('note_on', channel=4, note=31, velocity=0, time=30),\n",
      "    Message('note_on', channel=4, note=31, velocity=90, time=30),\n",
      "    Message('note_on', channel=4, note=31, velocity=0, time=90),\n",
      "    Message('note_on', channel=4, note=33, velocity=90, time=30),\n",
      "    Message('note_on', channel=4, note=33, velocity=0, time=120),\n",
      "    Message('note_on', channel=4, note=33, velocity=90, time=0),\n",
      "    Message('note_on', channel=4, note=33, velocity=0, time=120),\n",
      "    Message('note_on', channel=4, note=33, velocity=90, time=30),\n",
      "    Message('note_on', channel=4, note=33, velocity=0, time=30),\n",
      "    Message('note_on', channel=4, note=38, velocity=90, time=0),\n",
      "    Message('note_on', channel=4, note=38, velocity=0, time=180),\n",
      "    Message('note_on', channel=4, note=38, velocity=90, time=30),\n",
      "    Message('note_on', channel=4, note=38, velocity=0, time=30),\n",
      "    Message('note_on', channel=4, note=38, velocity=90, time=0),\n",
      "    Message('note_on', channel=4, note=38, velocity=0, time=30),\n",
      "    Message('note_on', channel=4, note=38, velocity=90, time=30),\n",
      "    Message('note_on', channel=4, note=38, velocity=0, time=240),\n",
      "    Message('note_on', channel=4, note=33, velocity=90, time=0),\n",
      "    Message('note_on', channel=4, note=33, velocity=0, time=60),\n",
      "    Message('note_on', channel=4, note=33, velocity=90, time=0),\n",
      "    Message('note_on', channel=4, note=33, velocity=0, time=90),\n",
      "    Message('note_on', channel=4, note=33, velocity=90, time=30),\n",
      "    Message('note_on', channel=4, note=33, velocity=0, time=30),\n",
      "    Message('note_on', channel=4, note=33, velocity=90, time=30),\n",
      "    Message('note_on', channel=4, note=33, velocity=0, time=90),\n",
      "    Message('note_on', channel=4, note=38, velocity=90, time=95),\n",
      "    Message('note_on', channel=4, note=38, velocity=90, time=0),\n",
      "    Message('note_on', channel=4, note=38, velocity=0, time=120),\n",
      "    Message('note_on', channel=4, note=38, velocity=0, time=60),\n",
      "    Message('note_on', channel=4, note=38, velocity=90, time=0),\n",
      "    Message('note_on', channel=4, note=38, velocity=0, time=180),\n",
      "    Message('note_on', channel=4, note=38, velocity=90, time=0),\n",
      "    Message('note_on', channel=4, note=38, velocity=0, time=120),\n",
      "    Message('note_on', channel=4, note=35, velocity=90, time=0),\n",
      "    Message('note_on', channel=4, note=35, velocity=0, time=120),\n",
      "    Message('note_on', channel=4, note=35, velocity=90, time=30),\n",
      "    Message('note_on', channel=4, note=35, velocity=0, time=120),\n",
      "    Message('note_on', channel=4, note=30, velocity=90, time=0),\n",
      "    Message('note_on', channel=4, note=30, velocity=0, time=30),\n",
      "    Message('note_on', channel=4, note=35, velocity=90, time=0),\n",
      "    Message('note_on', channel=4, note=35, velocity=0, time=120),\n",
      "    Message('note_on', channel=4, note=30, velocity=90, time=0),\n",
      "    Message('note_on', channel=4, note=30, velocity=0, time=60),\n",
      "    Message('note_on', channel=4, note=31, velocity=90, time=0),\n",
      "    Message('note_on', channel=4, note=31, velocity=0, time=150),\n",
      "    Message('note_on', channel=4, note=26, velocity=90, time=0),\n",
      "    Message('note_on', channel=4, note=26, velocity=0, time=30),\n",
      "    Message('note_on', channel=4, note=31, velocity=90, time=0),\n",
      "    Message('note_on', channel=4, note=31, velocity=0, time=90),\n",
      "    Message('note_on', channel=4, note=26, velocity=90, time=0),\n",
      "    Message('note_on', channel=4, note=26, velocity=0, time=30),\n",
      "    Message('note_on', channel=4, note=31, velocity=90, time=0),\n",
      "    Message('note_on', channel=4, note=31, velocity=0, time=150),\n",
      "    Message('note_on', channel=4, note=31, velocity=90, time=30),\n",
      "    Message('note_on', channel=4, note=31, velocity=0, time=150),\n",
      "    Message('note_on', channel=4, note=31, velocity=90, time=60),\n",
      "    Message('note_on', channel=4, note=31, velocity=0, time=30),\n",
      "    Message('note_on', channel=4, note=33, velocity=90, time=0),\n",
      "    Message('note_on', channel=4, note=33, velocity=0, time=30),\n",
      "    Message('note_on', channel=4, note=33, velocity=90, time=30),\n",
      "    Message('note_on', channel=4, note=33, velocity=0, time=90),\n",
      "    Message('note_on', channel=4, note=33, velocity=90, time=30),\n",
      "    Message('note_on', channel=4, note=33, velocity=0, time=60),\n",
      "    Message('note_on', channel=4, note=38, velocity=90, time=0),\n",
      "    Message('note_on', channel=4, note=38, velocity=0, time=150),\n",
      "    Message('note_on', channel=4, note=38, velocity=90, time=30),\n",
      "    Message('note_on', channel=4, note=38, velocity=0, time=30),\n",
      "    Message('note_on', channel=4, note=38, velocity=90, time=0),\n",
      "    Message('note_on', channel=4, note=38, velocity=0, time=60),\n",
      "    Message('note_on', channel=4, note=38, velocity=90, time=0),\n",
      "    Message('note_on', channel=4, note=38, velocity=0, time=150),\n",
      "    Message('note_on', channel=4, note=38, velocity=90, time=0),\n",
      "    Message('note_on', channel=4, note=38, velocity=0, time=60),\n",
      "    Message('note_on', channel=4, note=35, velocity=90, time=0),\n",
      "    Message('note_on', channel=4, note=35, velocity=0, time=150),\n",
      "    Message('note_on', channel=4, note=35, velocity=90, time=30),\n",
      "    Message('note_on', channel=4, note=35, velocity=0, time=30),\n",
      "    Message('note_on', channel=4, note=35, velocity=90, time=0),\n",
      "    Message('note_on', channel=4, note=35, velocity=0, time=90),\n",
      "    Message('note_on', channel=4, note=30, velocity=90, time=0),\n",
      "    Message('note_on', channel=4, note=30, velocity=0, time=30),\n",
      "    Message('note_on', channel=4, note=35, velocity=90, time=0),\n",
      "    Message('note_on', channel=4, note=35, velocity=0, time=90),\n",
      "    Message('note_on', channel=4, note=30, velocity=90, time=0),\n",
      "    Message('note_on', channel=4, note=30, velocity=0, time=60),\n",
      "    Message('note_on', channel=4, note=31, velocity=90, time=0),\n",
      "    Message('note_on', channel=4, note=31, velocity=0, time=180),\n",
      "    Message('note_on', channel=4, note=31, velocity=90, time=60),\n",
      "    Message('note_on', channel=4, note=31, velocity=0, time=30),\n",
      "    Message('note_on', channel=4, note=26, velocity=90, time=0),\n",
      "    Message('note_on', channel=4, note=26, velocity=0, time=30),\n",
      "    Message('note_on', channel=4, note=31, velocity=90, time=0),\n",
      "    Message('note_on', channel=4, note=31, velocity=0, time=150),\n",
      "    Message('note_on', channel=4, note=31, velocity=90, time=30),\n",
      "    Message('note_on', channel=4, note=31, velocity=0, time=150),\n",
      "    Message('note_on', channel=4, note=31, velocity=90, time=30),\n",
      "    Message('note_on', channel=4, note=31, velocity=0, time=120),\n",
      "    Message('note_on', channel=4, note=33, velocity=90, time=60),\n",
      "    Message('note_on', channel=4, note=33, velocity=0, time=60),\n",
      "    Message('note_on', channel=4, note=31, velocity=90, time=0),\n",
      "    Message('note_on', channel=4, note=31, velocity=0, time=60),\n",
      "    Message('note_on', channel=4, note=30, velocity=90, time=0),\n",
      "    Message('note_on', channel=4, note=28, velocity=90, time=0),\n",
      "    Message('note_on', channel=4, note=28, velocity=0, time=30),\n",
      "    Message('note_on', channel=4, note=30, velocity=0, time=120),\n",
      "    Message('note_on', channel=4, note=30, velocity=90, time=30),\n",
      "    Message('note_on', channel=4, note=30, velocity=0, time=90),\n",
      "    Message('note_on', channel=4, note=30, velocity=90, time=30),\n",
      "    Message('note_on', channel=4, note=30, velocity=0, time=120),\n",
      "    Message('note_on', channel=4, note=33, velocity=90, time=0),\n",
      "    Message('note_on', channel=4, note=33, velocity=0, time=60),\n",
      "    Message('note_on', channel=4, note=35, velocity=90, time=0),\n",
      "    Message('note_on', channel=4, note=35, velocity=0, time=150),\n",
      "    Message('note_on', channel=4, note=35, velocity=90, time=30),\n",
      "    Message('note_on', channel=4, note=35, velocity=0, time=120),\n",
      "    Message('note_on', channel=4, note=38, velocity=90, time=0),\n",
      "    Message('note_on', channel=4, note=38, velocity=0, time=120),\n",
      "    Message('note_on', channel=4, note=35, velocity=90, time=0),\n",
      "    Message('note_on', channel=4, note=35, velocity=0, time=60),\n",
      "    Message('note_on', channel=4, note=30, velocity=90, time=0),\n",
      "    Message('note_on', channel=4, note=30, velocity=0, time=180),\n",
      "    Message('note_on', channel=4, note=30, velocity=90, time=0),\n",
      "    Message('note_on', channel=4, note=30, velocity=0, time=120),\n",
      "    Message('note_on', channel=4, note=30, velocity=90, time=0),\n",
      "    Message('note_on', channel=4, note=30, velocity=0, time=120),\n",
      "    Message('note_on', channel=4, note=33, velocity=90, time=0),\n",
      "    Message('note_on', channel=4, note=33, velocity=0, time=60),\n",
      "    Message('note_on', channel=4, note=35, velocity=90, time=0),\n",
      "    Message('note_on', channel=4, note=35, velocity=0, time=120),\n",
      "    Message('note_on', channel=4, note=30, velocity=90, time=0),\n",
      "    Message('note_on', channel=4, note=30, velocity=0, time=60),\n",
      "    Message('note_on', channel=4, note=35, velocity=90, time=0),\n",
      "    Message('note_on', channel=4, note=35, velocity=0, time=120),\n",
      "    Message('note_on', channel=4, note=30, velocity=90, time=0),\n",
      "    Message('note_on', channel=4, note=30, velocity=0, time=120),\n",
      "    Message('note_on', channel=4, note=35, velocity=90, time=0),\n",
      "    Message('note_on', channel=4, note=35, velocity=0, time=60),\n",
      "    Message('note_on', channel=4, note=31, velocity=90, time=0),\n",
      "    Message('note_on', channel=4, note=31, velocity=0, time=180),\n",
      "    Message('note_on', channel=4, note=31, velocity=90, time=0),\n",
      "    Message('note_on', channel=4, note=31, velocity=0, time=120),\n",
      "    Message('note_on', channel=4, note=26, velocity=90, time=0),\n",
      "    Message('note_on', channel=4, note=26, velocity=0, time=60),\n",
      "    Message('note_on', channel=4, note=31, velocity=90, time=0),\n",
      "    Message('note_on', channel=4, note=31, velocity=0, time=120),\n",
      "    Message('note_on', channel=4, note=30, velocity=90, time=0),\n",
      "    Message('note_on', channel=4, note=30, velocity=0, time=90),\n",
      "    Message('note_on', channel=4, note=30, velocity=90, time=30),\n",
      "    Message('note_on', channel=4, note=30, velocity=0, time=60),\n",
      "    Message('note_on', channel=4, note=35, velocity=90, time=0),\n",
      "    Message('note_on', channel=4, note=35, velocity=0, time=120),\n",
      "    Message('note_on', channel=4, note=35, velocity=90, time=0),\n",
      "    Message('note_on', channel=4, note=35, velocity=0, time=90),\n",
      "    Message('note_on', channel=4, note=35, velocity=90, time=30),\n",
      "    Message('note_on', channel=4, note=35, velocity=0, time=60),\n",
      "    Message('note_on', channel=4, note=28, velocity=90, time=0),\n",
      "    Message('note_on', channel=4, note=28, velocity=0, time=150),\n",
      "    Message('note_on', channel=4, note=28, velocity=90, time=30),\n",
      "    Message('note_on', channel=4, note=28, velocity=0, time=120),\n",
      "    Message('note_on', channel=4, note=30, velocity=90, time=0),\n",
      "    Message('note_on', channel=4, note=30, velocity=0, time=60),\n",
      "    Message('note_on', channel=4, note=31, velocity=90, time=0),\n",
      "    Message('note_on', channel=4, note=31, velocity=0, time=60),\n",
      "    Message('note_on', channel=4, note=35, velocity=90, time=0),\n",
      "    Message('note_on', channel=4, note=35, velocity=0, time=60),\n",
      "    Message('note_on', channel=4, note=33, velocity=90, time=0),\n",
      "    Message('note_on', channel=4, note=33, velocity=0, time=150),\n",
      "    Message('note_on', channel=4, note=33, velocity=90, time=30),\n",
      "    Message('note_on', channel=4, note=33, velocity=0, time=120),\n",
      "    Message('note_on', channel=4, note=33, velocity=90, time=0),\n",
      "    Message('note_on', channel=4, note=33, velocity=0, time=120),\n",
      "    Message('note_on', channel=4, note=28, velocity=90, time=0),\n",
      "    Message('note_on', channel=4, note=35, velocity=90, time=55),\n",
      "    Message('note_on', channel=4, note=33, velocity=90, time=0),\n",
      "    Message('note_on', channel=4, note=28, velocity=0, time=5),\n",
      "    Message('note_on', channel=4, note=35, velocity=0, time=25),\n",
      "    Message('note_on', channel=4, note=33, velocity=100, time=150),\n",
      "    Message('note_on', channel=4, note=33, velocity=0, time=60),\n",
      "    Message('note_on', channel=4, note=33, velocity=0, time=0),\n",
      "    Message('note_on', channel=4, note=33, velocity=100, time=0),\n",
      "    Message('note_on', channel=4, note=33, velocity=0, time=240),\n",
      "    Message('note_on', channel=4, note=38, velocity=90, time=180),\n",
      "    Message('note_on', channel=4, note=38, velocity=0, time=90),\n",
      "    Message('note_on', channel=4, note=38, velocity=90, time=30),\n",
      "    Message('note_on', channel=4, note=38, velocity=0, time=90),\n",
      "    Message('note_on', channel=4, note=38, velocity=90, time=30),\n",
      "    Message('note_on', channel=4, note=38, velocity=0, time=60),\n",
      "    Message('note_on', channel=4, note=35, velocity=90, time=0),\n",
      "    Message('note_on', channel=4, note=35, velocity=0, time=120),\n",
      "    Message('note_on', channel=4, note=30, velocity=90, time=0),\n",
      "    Message('note_on', channel=4, note=30, velocity=0, time=60),\n",
      "    Message('note_on', channel=4, note=35, velocity=90, time=0),\n",
      "    Message('note_on', channel=4, note=35, velocity=0, time=90),\n",
      "    Message('note_on', channel=4, note=35, velocity=90, time=30),\n",
      "    Message('note_on', channel=4, note=35, velocity=0, time=120),\n",
      "    Message('note_on', channel=4, note=30, velocity=90, time=0),\n",
      "    Message('note_on', channel=4, note=30, velocity=0, time=60),\n",
      "    Message('note_on', channel=4, note=31, velocity=90, time=0),\n",
      "    Message('note_on', channel=4, note=31, velocity=0, time=120),\n",
      "    Message('note_on', channel=4, note=31, velocity=90, time=0),\n",
      "    Message('note_on', channel=4, note=31, velocity=0, time=30),\n",
      "    Message('note_on', channel=4, note=31, velocity=90, time=30),\n",
      "    Message('note_on', channel=4, note=31, velocity=0, time=120),\n",
      "    Message('note_on', channel=4, note=26, velocity=90, time=0),\n",
      "    Message('note_on', channel=4, note=26, velocity=0, time=60),\n",
      "    Message('note_on', channel=4, note=31, velocity=90, time=0),\n",
      "    Message('note_on', channel=4, note=31, velocity=0, time=120),\n",
      "    Message('note_on', channel=4, note=31, velocity=90, time=0),\n",
      "    Message('note_on', channel=4, note=31, velocity=0, time=90),\n",
      "    Message('note_on', channel=4, note=31, velocity=90, time=30),\n",
      "    Message('note_on', channel=4, note=31, velocity=0, time=60),\n",
      "    Message('note_on', channel=4, note=33, velocity=90, time=0),\n",
      "    Message('note_on', channel=4, note=33, velocity=0, time=90),\n",
      "    Message('note_on', channel=4, note=33, velocity=90, time=30),\n",
      "    Message('note_on', channel=4, note=33, velocity=0, time=120),\n",
      "    Message('note_on', channel=4, note=35, velocity=90, time=0),\n",
      "    Message('note_on', channel=4, note=35, velocity=0, time=30),\n",
      "    Message('note_on', channel=4, note=37, velocity=90, time=0),\n",
      "    Message('note_on', channel=4, note=37, velocity=0, time=30),\n",
      "    Message('note_on', channel=4, note=38, velocity=90, time=0),\n",
      "    Message('note_on', channel=4, note=38, velocity=0, time=120),\n",
      "    Message('note_on', channel=4, note=33, velocity=90, time=0),\n",
      "    Message('note_on', channel=4, note=33, velocity=0, time=60),\n",
      "    Message('note_on', channel=4, note=38, velocity=90, time=0),\n",
      "    Message('note_on', channel=4, note=38, velocity=0, time=120),\n",
      "    Message('note_on', channel=4, note=38, velocity=90, time=0),\n",
      "    Message('note_on', channel=4, note=38, velocity=0, time=90),\n",
      "    Message('note_on', channel=4, note=38, velocity=90, time=30),\n",
      "    Message('note_on', channel=4, note=38, velocity=0, time=30),\n",
      "    Message('note_on', channel=4, note=37, velocity=90, time=0),\n",
      "    Message('note_on', channel=4, note=37, velocity=0, time=30),\n",
      "    Message('note_on', channel=4, note=35, velocity=90, time=0),\n",
      "    Message('note_on', channel=4, note=35, velocity=0, time=90),\n",
      "    Message('note_on', channel=4, note=35, velocity=90, time=30),\n",
      "    Message('note_on', channel=4, note=35, velocity=0, time=30),\n",
      "    Message('note_on', channel=4, note=30, velocity=90, time=0),\n",
      "    Message('note_on', channel=4, note=30, velocity=0, time=30),\n",
      "    Message('note_on', channel=4, note=35, velocity=90, time=0),\n",
      "    Message('note_on', channel=4, note=35, velocity=0, time=90),\n",
      "    Message('note_on', channel=4, note=35, velocity=90, time=30),\n",
      "    Message('note_on', channel=4, note=35, velocity=0, time=120),\n",
      "    Message('note_on', channel=4, note=30, velocity=90, time=0),\n",
      "    Message('note_on', channel=4, note=30, velocity=0, time=60),\n",
      "    Message('note_on', channel=4, note=31, velocity=90, time=0),\n",
      "    Message('note_on', channel=4, note=31, velocity=0, time=180),\n",
      "    Message('note_on', channel=4, note=31, velocity=90, time=30),\n",
      "    Message('note_on', channel=4, note=31, velocity=0, time=30),\n",
      "    Message('note_on', channel=4, note=31, velocity=90, time=0),\n",
      "    Message('note_on', channel=4, note=31, velocity=0, time=60),\n",
      "    Message('note_on', channel=4, note=31, velocity=90, time=0),\n",
      "    Message('note_on', channel=4, note=31, velocity=0, time=120),\n",
      "    Message('note_on', channel=4, note=31, velocity=90, time=30),\n",
      "    Message('note_on', channel=4, note=31, velocity=0, time=30),\n",
      "    Message('note_on', channel=4, note=31, velocity=90, time=0),\n",
      "    Message('note_on', channel=4, note=31, velocity=0, time=30),\n",
      "    Message('note_on', channel=4, note=31, velocity=90, time=30),\n",
      "    Message('note_on', channel=4, note=31, velocity=0, time=90),\n",
      "    Message('note_on', channel=4, note=33, velocity=90, time=30),\n",
      "    Message('note_on', channel=4, note=33, velocity=0, time=120),\n",
      "    Message('note_on', channel=4, note=33, velocity=90, time=0),\n",
      "    Message('note_on', channel=4, note=33, velocity=0, time=120),\n",
      "    Message('note_on', channel=4, note=33, velocity=90, time=30),\n",
      "    Message('note_on', channel=4, note=33, velocity=0, time=30),\n",
      "    Message('note_on', channel=4, note=38, velocity=90, time=0),\n",
      "    Message('note_on', channel=4, note=38, velocity=0, time=180),\n",
      "    Message('note_on', channel=4, note=38, velocity=90, time=30),\n",
      "    Message('note_on', channel=4, note=38, velocity=0, time=30),\n",
      "    Message('note_on', channel=4, note=38, velocity=90, time=0),\n",
      "    Message('note_on', channel=4, note=38, velocity=0, time=30),\n",
      "    Message('note_on', channel=4, note=38, velocity=90, time=30),\n",
      "    Message('note_on', channel=4, note=38, velocity=0, time=240),\n",
      "    Message('note_on', channel=4, note=33, velocity=90, time=0),\n",
      "    Message('note_on', channel=4, note=33, velocity=0, time=60),\n",
      "    Message('note_on', channel=4, note=33, velocity=90, time=0),\n",
      "    Message('note_on', channel=4, note=33, velocity=0, time=90),\n",
      "    Message('note_on', channel=4, note=33, velocity=90, time=30),\n",
      "    Message('note_on', channel=4, note=33, velocity=0, time=30),\n",
      "    Message('note_on', channel=4, note=33, velocity=90, time=30),\n",
      "    Message('note_on', channel=4, note=33, velocity=0, time=90),\n",
      "    Message('note_on', channel=4, note=40, velocity=90, time=90),\n",
      "    Message('note_on', channel=4, note=40, velocity=90, time=5),\n",
      "    Message('note_on', channel=4, note=40, velocity=0, time=120),\n",
      "    Message('note_on', channel=4, note=40, velocity=0, time=55),\n",
      "    Message('note_on', channel=4, note=40, velocity=90, time=0),\n",
      "    Message('note_on', channel=4, note=40, velocity=0, time=180),\n",
      "    Message('note_on', channel=4, note=40, velocity=90, time=0),\n",
      "    Message('note_on', channel=4, note=40, velocity=0, time=60),\n",
      "    Message('note_on', channel=4, note=35, velocity=90, time=0),\n",
      "    Message('note_on', channel=4, note=35, velocity=0, time=60),\n",
      "    Message('note_on', channel=4, note=37, velocity=90, time=0),\n",
      "    Message('note_on', channel=4, note=37, velocity=0, time=150),\n",
      "    Message('note_on', channel=4, note=37, velocity=90, time=30),\n",
      "    Message('note_on', channel=4, note=37, velocity=0, time=120),\n",
      "    Message('note_on', channel=4, note=37, velocity=90, time=0),\n",
      "    Message('note_on', channel=4, note=37, velocity=0, time=120),\n",
      "    Message('note_on', channel=4, note=32, velocity=90, time=0),\n",
      "    Message('note_on', channel=4, note=32, velocity=0, time=60),\n",
      "    Message('note_on', channel=4, note=33, velocity=90, time=0),\n",
      "    Message('note_on', channel=4, note=33, velocity=0, time=150),\n",
      "    Message('note_on', channel=4, note=33, velocity=90, time=30),\n",
      "    Message('note_on', channel=4, note=33, velocity=0, time=30),\n",
      "    Message('note_on', channel=4, note=33, velocity=90, time=30),\n",
      "    Message('note_on', channel=4, note=33, velocity=0, time=240),\n",
      "    Message('note_on', channel=4, note=33, velocity=90, time=0),\n",
      "    Message('note_on', channel=4, note=33, velocity=0, time=150),\n",
      "    Message('note_on', channel=4, note=33, velocity=90, time=30),\n",
      "    Message('note_on', channel=4, note=33, velocity=0, time=30),\n",
      "    Message('note_on', channel=4, note=33, velocity=90, time=30),\n",
      "    Message('note_on', channel=4, note=33, velocity=0, time=120),\n",
      "    Message('note_on', channel=4, note=35, velocity=90, time=0),\n",
      "    Message('note_on', channel=4, note=35, velocity=90, time=0),\n",
      "    Message('note_on', channel=4, note=35, velocity=0, time=60),\n",
      "    Message('note_on', channel=4, note=35, velocity=0, time=0),\n",
      "    Message('note_on', channel=4, note=33, velocity=90, time=0),\n",
      "    Message('note_on', channel=4, note=33, velocity=90, time=0),\n",
      "    Message('note_on', channel=4, note=33, velocity=0, time=60),\n",
      "    Message('note_on', channel=4, note=33, velocity=0, time=0),\n",
      "    Message('note_on', channel=4, note=32, velocity=90, time=0),\n",
      "    Message('note_on', channel=4, note=30, velocity=90, time=0),\n",
      "    Message('note_on', channel=4, note=32, velocity=90, time=0),\n",
      "    Message('note_on', channel=4, note=30, velocity=0, time=30),\n",
      "    Message('note_on', channel=4, note=32, velocity=0, time=90),\n",
      "    Message('note_on', channel=4, note=32, velocity=0, time=30),\n",
      "    Message('note_on', channel=4, note=32, velocity=90, time=30),\n",
      "    Message('note_on', channel=4, note=32, velocity=0, time=90),\n",
      "    Message('note_on', channel=4, note=32, velocity=90, time=30),\n",
      "    Message('note_on', channel=4, note=32, velocity=0, time=120),\n",
      "    Message('note_on', channel=4, note=35, velocity=90, time=0),\n",
      "    Message('note_on', channel=4, note=35, velocity=0, time=60),\n",
      "    Message('note_on', channel=4, note=37, velocity=90, time=0),\n",
      "    Message('note_on', channel=4, note=37, velocity=0, time=150),\n",
      "    Message('note_on', channel=4, note=37, velocity=90, time=30),\n",
      "    Message('note_on', channel=4, note=37, velocity=0, time=120),\n",
      "    Message('note_on', channel=4, note=40, velocity=90, time=0),\n",
      "    Message('note_on', channel=4, note=40, velocity=0, time=120),\n",
      "    Message('note_on', channel=4, note=37, velocity=90, time=0),\n",
      "    Message('note_on', channel=4, note=37, velocity=0, time=60),\n",
      "    Message('note_on', channel=4, note=32, velocity=90, time=0),\n",
      "    Message('note_on', channel=4, note=32, velocity=0, time=180),\n",
      "    Message('note_on', channel=4, note=32, velocity=90, time=0),\n",
      "    Message('note_on', channel=4, note=32, velocity=0, time=120),\n",
      "    Message('note_on', channel=4, note=32, velocity=90, time=0),\n",
      "    Message('note_on', channel=4, note=32, velocity=0, time=120),\n",
      "    Message('note_on', channel=4, note=35, velocity=90, time=0),\n",
      "    Message('note_on', channel=4, note=35, velocity=0, time=60),\n",
      "    Message('note_on', channel=4, note=37, velocity=90, time=0),\n",
      "    Message('note_on', channel=4, note=37, velocity=0, time=120),\n",
      "    Message('note_on', channel=4, note=32, velocity=90, time=0),\n",
      "    Message('note_on', channel=4, note=32, velocity=0, time=60),\n",
      "    Message('note_on', channel=4, note=37, velocity=90, time=0),\n",
      "    Message('note_on', channel=4, note=37, velocity=0, time=120),\n",
      "    Message('note_on', channel=4, note=32, velocity=90, time=0),\n",
      "    Message('note_on', channel=4, note=32, velocity=0, time=120),\n",
      "    Message('note_on', channel=4, note=37, velocity=90, time=0),\n",
      "    Message('note_on', channel=4, note=37, velocity=0, time=60),\n",
      "    Message('note_on', channel=4, note=33, velocity=90, time=0),\n",
      "    Message('note_on', channel=4, note=33, velocity=0, time=180),\n",
      "    Message('note_on', channel=4, note=33, velocity=90, time=0),\n",
      "    Message('note_on', channel=4, note=33, velocity=0, time=120),\n",
      "    Message('note_on', channel=4, note=28, velocity=90, time=0),\n",
      "    Message('note_on', channel=4, note=28, velocity=0, time=60),\n",
      "    Message('note_on', channel=4, note=33, velocity=90, time=0),\n",
      "    Message('note_on', channel=4, note=33, velocity=0, time=120),\n",
      "    Message('note_on', channel=4, note=32, velocity=90, time=0),\n",
      "    Message('note_on', channel=4, note=32, velocity=0, time=90),\n",
      "    Message('note_on', channel=4, note=32, velocity=90, time=30),\n",
      "    Message('note_on', channel=4, note=32, velocity=0, time=60),\n",
      "    Message('note_on', channel=4, note=37, velocity=90, time=0),\n",
      "    Message('note_on', channel=4, note=37, velocity=0, time=120),\n",
      "    Message('note_on', channel=4, note=37, velocity=90, time=0),\n",
      "    Message('note_on', channel=4, note=37, velocity=0, time=90),\n",
      "    Message('note_on', channel=4, note=37, velocity=90, time=30),\n",
      "    Message('note_on', channel=4, note=37, velocity=0, time=60),\n",
      "    Message('note_on', channel=4, note=30, velocity=90, time=0),\n",
      "    Message('note_on', channel=4, note=30, velocity=0, time=150),\n",
      "    Message('note_on', channel=4, note=30, velocity=90, time=30),\n",
      "    Message('note_on', channel=4, note=30, velocity=0, time=120),\n",
      "    Message('note_on', channel=4, note=32, velocity=90, time=0),\n",
      "    Message('note_on', channel=4, note=32, velocity=0, time=60),\n",
      "    Message('note_on', channel=4, note=33, velocity=90, time=0),\n",
      "    Message('note_on', channel=4, note=33, velocity=0, time=60),\n",
      "    Message('note_on', channel=4, note=37, velocity=90, time=0),\n",
      "    Message('note_on', channel=4, note=37, velocity=0, time=60),\n",
      "    Message('note_on', channel=4, note=35, velocity=90, time=0),\n",
      "    Message('note_on', channel=4, note=35, velocity=0, time=150),\n",
      "    Message('note_on', channel=4, note=35, velocity=90, time=30),\n",
      "    Message('note_on', channel=4, note=35, velocity=0, time=120),\n",
      "    Message('note_on', channel=4, note=35, velocity=90, time=0),\n",
      "    Message('note_on', channel=4, note=35, velocity=0, time=120),\n",
      "    Message('note_on', channel=4, note=30, velocity=90, time=0),\n",
      "    Message('note_on', channel=4, note=35, velocity=90, time=55),\n",
      "    Message('note_on', channel=4, note=37, velocity=90, time=0),\n",
      "    Message('note_on', channel=4, note=30, velocity=0, time=5),\n",
      "    Message('note_on', channel=4, note=37, velocity=0, time=25),\n",
      "    Message('note_on', channel=4, note=35, velocity=0, time=210),\n",
      "    MetaMessage('end_of_track', time=0)]),\n",
      "  MidiTrack([\n",
      "    MetaMessage('midi_port', port=0, time=0),\n",
      "    MetaMessage('track_name', name='MELODY', time=0),\n",
      "    Message('program_change', channel=5, program=100, time=0),\n",
      "    Message('control_change', channel=5, control=7, value=120, time=0),\n",
      "    Message('control_change', channel=5, control=10, value=64, time=0),\n",
      "    Message('note_on', channel=5, note=62, velocity=90, time=1440),\n",
      "    Message('note_on', channel=5, note=62, velocity=0, time=540),\n",
      "    Message('note_on', channel=5, note=59, velocity=90, time=0),\n",
      "    Message('note_on', channel=5, note=59, velocity=0, time=60),\n",
      "    Message('note_on', channel=5, note=57, velocity=90, time=0),\n",
      "    Message('note_on', channel=5, note=57, velocity=0, time=90),\n",
      "    Message('note_on', channel=5, note=54, velocity=90, time=0),\n",
      "    Message('note_on', channel=5, note=54, velocity=0, time=30),\n",
      "    Message('note_on', channel=5, note=59, velocity=90, time=0),\n",
      "    Message('note_on', channel=5, note=59, velocity=0, time=60),\n",
      "    Message('note_on', channel=5, note=57, velocity=90, time=0),\n",
      "    Message('note_on', channel=5, note=57, velocity=0, time=90),\n",
      "    Message('note_on', channel=5, note=54, velocity=90, time=0),\n",
      "    Message('note_on', channel=5, note=54, velocity=0, time=30),\n",
      "    Message('note_on', channel=5, note=59, velocity=90, time=0),\n",
      "    Message('note_on', channel=5, note=59, velocity=0, time=15),\n",
      "    Message('note_on', channel=5, note=57, velocity=90, time=45),\n",
      "    Message('note_on', channel=5, note=57, velocity=0, time=210),\n",
      "    Message('note_on', channel=5, note=61, velocity=90, time=30),\n",
      "    Message('note_on', channel=5, note=61, velocity=0, time=60),\n",
      "    Message('note_on', channel=5, note=62, velocity=90, time=0),\n",
      "    Message('note_on', channel=5, note=62, velocity=0, time=60),\n",
      "    Message('note_on', channel=5, note=69, velocity=90, time=0),\n",
      "    Message('note_on', channel=5, note=69, velocity=0, time=60),\n",
      "    Message('note_on', channel=5, note=61, velocity=90, time=0),\n",
      "    Message('note_on', channel=5, note=61, velocity=0, time=120),\n",
      "    Message('note_on', channel=5, note=62, velocity=90, time=0),\n",
      "    Message('note_on', channel=5, note=62, velocity=0, time=165),\n",
      "    Message('note_on', channel=5, note=61, velocity=90, time=15),\n",
      "    Message('note_on', channel=5, note=61, velocity=0, time=60),\n",
      "    Message('note_on', channel=5, note=62, velocity=90, time=0),\n",
      "    Message('note_on', channel=5, note=62, velocity=0, time=60),\n",
      "    Message('note_on', channel=5, note=69, velocity=90, time=0),\n",
      "    Message('note_on', channel=5, note=69, velocity=0, time=60),\n",
      "    Message('note_on', channel=5, note=57, velocity=90, time=0),\n",
      "    Message('note_on', channel=5, note=57, velocity=0, time=120),\n",
      "    Message('note_on', channel=5, note=59, velocity=90, time=0),\n",
      "    Message('note_on', channel=5, note=59, velocity=0, time=210),\n",
      "    Message('note_on', channel=5, note=54, velocity=90, time=330),\n",
      "    Message('note_on', channel=5, note=57, velocity=90, time=30),\n",
      "    Message('note_on', channel=5, note=57, velocity=0, time=30),\n",
      "    Message('note_on', channel=5, note=54, velocity=0, time=0),\n",
      "    Message('note_on', channel=5, note=59, velocity=90, time=0),\n",
      "    Message('note_on', channel=5, note=59, velocity=0, time=30),\n",
      "    Message('note_on', channel=5, note=52, velocity=90, time=0),\n",
      "    Message('note_on', channel=5, note=52, velocity=0, time=90),\n",
      "    Message('note_on', channel=5, note=50, velocity=90, time=0),\n",
      "    Message('note_on', channel=5, note=50, velocity=0, time=240),\n",
      "    Message('note_on', channel=5, note=54, velocity=90, time=60),\n",
      "    Message('note_on', channel=5, note=54, velocity=0, time=60),\n",
      "    Message('note_on', channel=5, note=57, velocity=90, time=0),\n",
      "    Message('note_on', channel=5, note=57, velocity=0, time=30),\n",
      "    Message('note_on', channel=5, note=57, velocity=90, time=0),\n",
      "    Message('note_on', channel=5, note=57, velocity=0, time=90),\n",
      "    Message('note_on', channel=5, note=59, velocity=90, time=0),\n",
      "    Message('note_on', channel=5, note=59, velocity=0, time=90),\n",
      "    Message('note_on', channel=5, note=54, velocity=90, time=30),\n",
      "    Message('note_on', channel=5, note=54, velocity=0, time=30),\n",
      "    Message('note_on', channel=5, note=57, velocity=90, time=0),\n",
      "    Message('note_on', channel=5, note=57, velocity=0, time=30),\n",
      "    Message('note_on', channel=5, note=62, velocity=90, time=0),\n",
      "    Message('note_on', channel=5, note=62, velocity=0, time=60),\n",
      "    Message('note_on', channel=5, note=61, velocity=90, time=0),\n",
      "    Message('note_on', channel=5, note=61, velocity=0, time=30),\n",
      "    Message('note_on', channel=5, note=59, velocity=90, time=0),\n",
      "    Message('note_on', channel=5, note=59, velocity=0, time=60),\n",
      "    Message('note_on', channel=5, note=61, velocity=90, time=0),\n",
      "    Message('note_on', channel=5, note=61, velocity=0, time=30),\n",
      "    Message('note_on', channel=5, note=59, velocity=90, time=0),\n",
      "    Message('note_on', channel=5, note=59, velocity=0, time=60),\n",
      "    Message('note_on', channel=5, note=57, velocity=90, time=0),\n",
      "    Message('note_on', channel=5, note=57, velocity=0, time=150),\n",
      "    Message('note_on', channel=5, note=54, velocity=90, time=30),\n",
      "    Message('note_on', channel=5, note=54, velocity=0, time=30),\n",
      "    Message('note_on', channel=5, note=57, velocity=90, time=0),\n",
      "    Message('note_on', channel=5, note=57, velocity=0, time=30),\n",
      "    Message('note_on', channel=5, note=59, velocity=90, time=0),\n",
      "    Message('note_on', channel=5, note=59, velocity=0, time=60),\n",
      "    Message('note_on', channel=5, note=54, velocity=90, time=0),\n",
      "    Message('note_on', channel=5, note=54, velocity=0, time=30),\n",
      "    Message('note_on', channel=5, note=52, velocity=90, time=0),\n",
      "    Message('note_on', channel=5, note=52, velocity=0, time=60),\n",
      "    Message('note_on', channel=5, note=54, velocity=90, time=0),\n",
      "    Message('note_on', channel=5, note=54, velocity=0, time=30),\n",
      "    Message('note_on', channel=5, note=52, velocity=90, time=0),\n",
      "    Message('note_on', channel=5, note=52, velocity=0, time=60),\n",
      "    Message('note_on', channel=5, note=50, velocity=90, time=0),\n",
      "    Message('note_on', channel=5, note=50, velocity=0, time=150),\n",
      "    Message('note_on', channel=5, note=47, velocity=90, time=30),\n",
      "    Message('note_on', channel=5, note=47, velocity=0, time=30),\n",
      "    Message('note_on', channel=5, note=50, velocity=90, time=0),\n",
      "    Message('note_on', channel=5, note=50, velocity=0, time=30),\n",
      "    Message('note_on', channel=5, note=55, velocity=90, time=0),\n",
      "    Message('note_on', channel=5, note=55, velocity=0, time=60),\n",
      "    Message('note_on', channel=5, note=54, velocity=90, time=0),\n",
      "    Message('note_on', channel=5, note=54, velocity=0, time=60),\n",
      "    Message('note_on', channel=5, note=52, velocity=90, time=0),\n",
      "    Message('note_on', channel=5, note=52, velocity=0, time=60),\n",
      "    Message('note_on', channel=5, note=50, velocity=90, time=0),\n",
      "    Message('note_on', channel=5, note=50, velocity=0, time=60),\n",
      "    Message('note_on', channel=5, note=55, velocity=90, time=0),\n",
      "    Message('note_on', channel=5, note=55, velocity=0, time=60),\n",
      "    Message('note_on', channel=5, note=54, velocity=90, time=0),\n",
      "    Message('note_on', channel=5, note=54, velocity=0, time=60),\n",
      "    Message('note_on', channel=5, note=52, velocity=90, time=0),\n",
      "    Message('note_on', channel=5, note=52, velocity=0, time=30),\n",
      "    Message('note_on', channel=5, note=50, velocity=90, time=0),\n",
      "    Message('note_on', channel=5, note=50, velocity=0, time=30),\n",
      "    Message('note_on', channel=5, note=54, velocity=90, time=0),\n",
      "    Message('note_on', channel=5, note=54, velocity=0, time=150),\n",
      "    Message('note_on', channel=5, note=50, velocity=90, time=0),\n",
      "    Message('note_on', channel=5, note=50, velocity=0, time=30),\n",
      "    Message('note_on', channel=5, note=54, velocity=90, time=0),\n",
      "    Message('note_on', channel=5, note=54, velocity=0, time=30),\n",
      "    Message('note_on', channel=5, note=57, velocity=90, time=30),\n",
      "    Message('note_on', channel=5, note=57, velocity=0, time=30),\n",
      "    Message('note_on', channel=5, note=57, velocity=90, time=0),\n",
      "    Message('note_on', channel=5, note=57, velocity=0, time=90),\n",
      "    Message('note_on', channel=5, note=59, velocity=90, time=0),\n",
      "    Message('note_on', channel=5, note=59, velocity=0, time=120),\n",
      "    Message('note_on', channel=5, note=54, velocity=90, time=0),\n",
      "    Message('note_on', channel=5, note=54, velocity=0, time=30),\n",
      "    Message('note_on', channel=5, note=57, velocity=90, time=0),\n",
      "    Message('note_on', channel=5, note=57, velocity=0, time=30),\n",
      "    Message('note_on', channel=5, note=62, velocity=90, time=0),\n",
      "    Message('note_on', channel=5, note=62, velocity=0, time=60),\n",
      "    Message('note_on', channel=5, note=61, velocity=90, time=0),\n",
      "    Message('note_on', channel=5, note=61, velocity=0, time=30),\n",
      "    Message('note_on', channel=5, note=59, velocity=90, time=0),\n",
      "    Message('note_on', channel=5, note=59, velocity=0, time=60),\n",
      "    Message('note_on', channel=5, note=61, velocity=90, time=0),\n",
      "    Message('note_on', channel=5, note=61, velocity=0, time=30),\n",
      "    Message('note_on', channel=5, note=59, velocity=90, time=0),\n",
      "    Message('note_on', channel=5, note=59, velocity=0, time=60),\n",
      "    Message('note_on', channel=5, note=57, velocity=90, time=0),\n",
      "    Message('note_on', channel=5, note=57, velocity=0, time=150),\n",
      "    Message('note_on', channel=5, note=54, velocity=90, time=30),\n",
      "    Message('note_on', channel=5, note=54, velocity=0, time=30),\n",
      "    Message('note_on', channel=5, note=57, velocity=90, time=0),\n",
      "    Message('note_on', channel=5, note=57, velocity=0, time=30),\n",
      "    Message('note_on', channel=5, note=59, velocity=90, time=0),\n",
      "    Message('note_on', channel=5, note=59, velocity=0, time=60),\n",
      "    Message('note_on', channel=5, note=54, velocity=90, time=0),\n",
      "    Message('note_on', channel=5, note=54, velocity=0, time=30),\n",
      "    Message('note_on', channel=5, note=52, velocity=90, time=0),\n",
      "    Message('note_on', channel=5, note=52, velocity=0, time=60),\n",
      "    Message('note_on', channel=5, note=54, velocity=90, time=0),\n",
      "    Message('note_on', channel=5, note=54, velocity=0, time=30),\n",
      "    Message('note_on', channel=5, note=52, velocity=90, time=0),\n",
      "    Message('note_on', channel=5, note=52, velocity=0, time=60),\n",
      "    Message('note_on', channel=5, note=50, velocity=90, time=0),\n",
      "    Message('note_on', channel=5, note=50, velocity=0, time=150),\n",
      "    Message('note_on', channel=5, note=47, velocity=90, time=30),\n",
      "    Message('note_on', channel=5, note=47, velocity=0, time=30),\n",
      "    Message('note_on', channel=5, note=50, velocity=90, time=0),\n",
      "    Message('note_on', channel=5, note=50, velocity=0, time=30),\n",
      "    Message('note_on', channel=5, note=55, velocity=90, time=0),\n",
      "    Message('note_on', channel=5, note=55, velocity=0, time=60),\n",
      "    Message('note_on', channel=5, note=54, velocity=90, time=0),\n",
      "    Message('note_on', channel=5, note=54, velocity=0, time=60),\n",
      "    Message('note_on', channel=5, note=52, velocity=90, time=0),\n",
      "    Message('note_on', channel=5, note=52, velocity=0, time=60),\n",
      "    Message('note_on', channel=5, note=50, velocity=90, time=0),\n",
      "    Message('note_on', channel=5, note=50, velocity=0, time=60),\n",
      "    Message('note_on', channel=5, note=64, velocity=90, time=0),\n",
      "    Message('note_on', channel=5, note=64, velocity=0, time=90),\n",
      "    Message('note_on', channel=5, note=59, velocity=90, time=30),\n",
      "    Message('note_on', channel=5, note=59, velocity=0, time=30),\n",
      "    Message('note_on', channel=5, note=61, velocity=90, time=30),\n",
      "    Message('note_on', channel=5, note=61, velocity=0, time=240),\n",
      "    Message('note_on', channel=5, note=57, velocity=90, time=240),\n",
      "    Message('note_on', channel=5, note=57, velocity=0, time=30),\n",
      "    Message('note_on', channel=5, note=57, velocity=90, time=0),\n",
      "    Message('note_on', channel=5, note=57, velocity=0, time=30),\n",
      "    Message('note_on', channel=5, note=59, velocity=90, time=0),\n",
      "    Message('note_on', channel=5, note=59, velocity=0, time=30),\n",
      "    Message('note_on', channel=5, note=62, velocity=90, time=0),\n",
      "    Message('note_on', channel=5, note=62, velocity=0, time=30),\n",
      "    Message('note_on', channel=5, note=62, velocity=90, time=0),\n",
      "    Message('note_on', channel=5, note=62, velocity=0, time=90),\n",
      "    Message('note_on', channel=5, note=59, velocity=90, time=0),\n",
      "    Message('note_on', channel=5, note=59, velocity=0, time=15),\n",
      "    Message('note_on', channel=5, note=64, velocity=90, time=15),\n",
      "    Message('note_on', channel=5, note=64, velocity=0, time=105),\n",
      "    Message('note_on', channel=5, note=66, velocity=90, time=15),\n",
      "    Message('note_on', channel=5, note=66, velocity=0, time=105),\n",
      "    Message('note_on', channel=5, note=61, velocity=90, time=15),\n",
      "    Message('note_on', channel=5, note=61, velocity=0, time=285),\n",
      "    Message('note_on', channel=5, note=57, velocity=90, time=195),\n",
      "    Message('note_on', channel=5, note=57, velocity=0, time=30),\n",
      "    Message('note_on', channel=5, note=57, velocity=90, time=0),\n",
      "    Message('note_on', channel=5, note=57, velocity=0, time=30),\n",
      "    Message('note_on', channel=5, note=59, velocity=90, time=0),\n",
      "    Message('note_on', channel=5, note=59, velocity=0, time=60),\n",
      "    Message('note_on', channel=5, note=62, velocity=90, time=0),\n",
      "    Message('note_on', channel=5, note=62, velocity=0, time=30),\n",
      "    Message('note_on', channel=5, note=62, velocity=90, time=0),\n",
      "    Message('note_on', channel=5, note=62, velocity=0, time=60),\n",
      "    Message('note_on', channel=5, note=59, velocity=90, time=0),\n",
      "    Message('note_on', channel=5, note=59, velocity=0, time=30),\n",
      "    Message('note_on', channel=5, note=64, velocity=90, time=0),\n",
      "    Message('note_on', channel=5, note=64, velocity=0, time=120),\n",
      "    Message('note_on', channel=5, note=66, velocity=90, time=0),\n",
      "    Message('note_on', channel=5, note=66, velocity=0, time=120),\n",
      "    Message('note_on', channel=5, note=59, velocity=90, time=0),\n",
      "    Message('note_on', channel=5, note=59, velocity=0, time=360),\n",
      "    Message('note_on', channel=5, note=59, velocity=90, time=60),\n",
      "    Message('note_on', channel=5, note=59, velocity=0, time=60),\n",
      "    Message('note_on', channel=5, note=57, velocity=90, time=0),\n",
      "    Message('note_on', channel=5, note=57, velocity=0, time=150),\n",
      "    Message('note_on', channel=5, note=64, velocity=90, time=30),\n",
      "    Message('note_on', channel=5, note=64, velocity=0, time=60),\n",
      "    Message('note_on', channel=5, note=62, velocity=90, time=0),\n",
      "    Message('note_on', channel=5, note=62, velocity=0, time=120),\n",
      "    Message('note_on', channel=5, note=57, velocity=90, time=60),\n",
      "    Message('note_on', channel=5, note=57, velocity=0, time=60),\n",
      "    Message('note_on', channel=5, note=55, velocity=90, time=0),\n",
      "    Message('note_on', channel=5, note=55, velocity=0, time=360),\n",
      "    Message('note_on', channel=5, note=59, velocity=90, time=60),\n",
      "    Message('note_on', channel=5, note=59, velocity=0, time=60),\n",
      "    Message('note_on', channel=5, note=62, velocity=90, time=0),\n",
      "    Message('note_on', channel=5, note=62, velocity=0, time=60),\n",
      "    Message('note_on', channel=5, note=67, velocity=90, time=0),\n",
      "    Message('note_on', channel=5, note=67, velocity=0, time=60),\n",
      "    Message('note_on', channel=5, note=66, velocity=90, time=0),\n",
      "    Message('note_on', channel=5, note=66, velocity=0, time=60),\n",
      "    Message('note_on', channel=5, note=62, velocity=90, time=0),\n",
      "    Message('note_on', channel=5, note=62, velocity=0, time=60),\n",
      "    Message('note_on', channel=5, note=64, velocity=90, time=0),\n",
      "    Message('note_on', channel=5, note=64, velocity=0, time=270),\n",
      "    Message('note_on', channel=5, note=66, velocity=90, time=330),\n",
      "    Message('note_on', channel=5, note=66, velocity=0, time=60),\n",
      "    Message('note_on', channel=5, note=64, velocity=90, time=0),\n",
      "    Message('note_on', channel=5, note=64, velocity=0, time=60),\n",
      "    Message('note_on', channel=5, note=64, velocity=90, time=0),\n",
      "    Message('note_on', channel=5, note=64, velocity=0, time=60),\n",
      "    Message('note_on', channel=5, note=62, velocity=90, time=0),\n",
      "    Message('note_on', channel=5, note=62, velocity=0, time=240),\n",
      "    Message('note_on', channel=5, note=61, velocity=90, time=0),\n",
      "    Message('note_on', channel=5, note=61, velocity=0, time=60),\n",
      "    Message('note_on', channel=5, note=62, velocity=90, time=0),\n",
      "    Message('note_on', channel=5, note=62, velocity=0, time=60),\n",
      "    Message('note_on', channel=5, note=69, velocity=90, time=0),\n",
      "    Message('note_on', channel=5, note=69, velocity=0, time=60),\n",
      "    Message('note_on', channel=5, note=61, velocity=90, time=0),\n",
      "    Message('note_on', channel=5, note=61, velocity=0, time=120),\n",
      "    Message('note_on', channel=5, note=62, velocity=90, time=0),\n",
      "    Message('note_on', channel=5, note=62, velocity=0, time=120),\n",
      "    Message('note_on', channel=5, note=61, velocity=90, time=60),\n",
      "    Message('note_on', channel=5, note=61, velocity=0, time=60),\n",
      "    Message('note_on', channel=5, note=62, velocity=90, time=0),\n",
      "    Message('note_on', channel=5, note=62, velocity=0, time=60),\n",
      "    Message('note_on', channel=5, note=69, velocity=90, time=0),\n",
      "    Message('note_on', channel=5, note=69, velocity=0, time=60),\n",
      "    Message('note_on', channel=5, note=57, velocity=90, time=0),\n",
      "    Message('note_on', channel=5, note=57, velocity=0, time=120),\n",
      "    Message('note_on', channel=5, note=59, velocity=90, time=0),\n",
      "    Message('note_on', channel=5, note=59, velocity=0, time=120),\n",
      "    Message('note_on', channel=5, note=59, velocity=90, time=120),\n",
      "    Message('note_on', channel=5, note=59, velocity=0, time=60),\n",
      "    Message('note_on', channel=5, note=62, velocity=90, time=0),\n",
      "    Message('note_on', channel=5, note=62, velocity=0, time=60),\n",
      "    Message('note_on', channel=5, note=67, velocity=90, time=0),\n",
      "    Message('note_on', channel=5, note=67, velocity=0, time=120),\n",
      "    Message('note_on', channel=5, note=66, velocity=90, time=0),\n",
      "    Message('note_on', channel=5, note=66, velocity=0, time=60),\n",
      "    Message('note_on', channel=5, note=62, velocity=90, time=0),\n",
      "    Message('note_on', channel=5, note=62, velocity=0, time=60),\n",
      "    Message('note_on', channel=5, note=67, velocity=90, time=0),\n",
      "    Message('note_on', channel=5, note=67, velocity=0, time=120),\n",
      "    Message('note_on', channel=5, note=66, velocity=90, time=0),\n",
      "    Message('note_on', channel=5, note=66, velocity=0, time=60),\n",
      "    Message('note_on', channel=5, note=64, velocity=90, time=0),\n",
      "    Message('note_on', channel=5, note=64, velocity=0, time=60),\n",
      "    Message('note_on', channel=5, note=64, velocity=90, time=0),\n",
      "    Message('note_on', channel=5, note=64, velocity=0, time=60),\n",
      "    Message('note_on', channel=5, note=62, velocity=90, time=0),\n",
      "    Message('note_on', channel=5, note=62, velocity=0, time=180),\n",
      "    Message('note_on', channel=5, note=57, velocity=90, time=0),\n",
      "    Message('note_on', channel=5, note=57, velocity=0, time=60),\n",
      "    Message('note_on', channel=5, note=61, velocity=90, time=0),\n",
      "    Message('note_on', channel=5, note=61, velocity=0, time=60),\n",
      "    Message('note_on', channel=5, note=62, velocity=90, time=0),\n",
      "    Message('note_on', channel=5, note=62, velocity=0, time=60),\n",
      "    Message('note_on', channel=5, note=69, velocity=90, time=0),\n",
      "    Message('note_on', channel=5, note=69, velocity=0, time=60),\n",
      "    Message('note_on', channel=5, note=61, velocity=90, time=0),\n",
      "    Message('note_on', channel=5, note=61, velocity=0, time=120),\n",
      "    Message('note_on', channel=5, note=62, velocity=90, time=0),\n",
      "    Message('note_on', channel=5, note=62, velocity=0, time=180),\n",
      "    Message('note_on', channel=5, note=61, velocity=90, time=0),\n",
      "    Message('note_on', channel=5, note=61, velocity=0, time=60),\n",
      "    Message('note_on', channel=5, note=62, velocity=90, time=0),\n",
      "    Message('note_on', channel=5, note=62, velocity=0, time=60),\n",
      "    Message('note_on', channel=5, note=69, velocity=90, time=0),\n",
      "    Message('note_on', channel=5, note=69, velocity=0, time=60),\n",
      "    Message('note_on', channel=5, note=57, velocity=90, time=0),\n",
      "    Message('note_on', channel=5, note=57, velocity=0, time=120),\n",
      "    Message('note_on', channel=5, note=59, velocity=90, time=0),\n",
      "    Message('note_on', channel=5, note=59, velocity=0, time=300),\n",
      "    Message('note_on', channel=5, note=62, velocity=90, time=0),\n",
      "    Message('note_on', channel=5, note=62, velocity=0, time=60),\n",
      "    Message('note_on', channel=5, note=67, velocity=90, time=0),\n",
      "    Message('note_on', channel=5, note=67, velocity=0, time=120),\n",
      "    Message('note_on', channel=5, note=66, velocity=90, time=0),\n",
      "    Message('note_on', channel=5, note=66, velocity=0, time=60),\n",
      "    Message('note_on', channel=5, note=62, velocity=90, time=0),\n",
      "    Message('note_on', channel=5, note=62, velocity=0, time=60),\n",
      "    Message('note_on', channel=5, note=64, velocity=90, time=0),\n",
      "    Message('note_on', channel=5, note=64, velocity=0, time=120),\n",
      "    Message('note_on', channel=5, note=66, velocity=90, time=0),\n",
      "    Message('note_on', channel=5, note=64, velocity=90, time=90),\n",
      "    Message('note_on', channel=5, note=64, velocity=0, time=30),\n",
      "    Message('note_on', channel=5, note=66, velocity=0, time=0),\n",
      "    Message('note_on', channel=5, note=64, velocity=90, time=0),\n",
      "    Message('note_on', channel=5, note=64, velocity=0, time=60),\n",
      "    Message('note_on', channel=5, note=62, velocity=90, time=0),\n",
      "    Message('note_on', channel=5, note=62, velocity=0, time=240),\n",
      "    Message('note_on', channel=5, note=54, velocity=90, time=845),\n",
      "    Message('note_on', channel=5, note=54, velocity=0, time=60),\n",
      "    Message('note_on', channel=5, note=57, velocity=90, time=0),\n",
      "    Message('note_on', channel=5, note=57, velocity=0, time=30),\n",
      "    Message('note_on', channel=5, note=57, velocity=90, time=0),\n",
      "    Message('note_on', channel=5, note=57, velocity=0, time=90),\n",
      "    Message('note_on', channel=5, note=59, velocity=90, time=0),\n",
      "    Message('note_on', channel=5, note=59, velocity=0, time=90),\n",
      "    Message('note_on', channel=5, note=54, velocity=90, time=30),\n",
      "    Message('note_on', channel=5, note=54, velocity=0, time=30),\n",
      "    Message('note_on', channel=5, note=57, velocity=90, time=0),\n",
      "    Message('note_on', channel=5, note=57, velocity=0, time=30),\n",
      "    Message('note_on', channel=5, note=62, velocity=90, time=0),\n",
      "    Message('note_on', channel=5, note=62, velocity=0, time=60),\n",
      "    Message('note_on', channel=5, note=61, velocity=90, time=0),\n",
      "    Message('note_on', channel=5, note=61, velocity=0, time=30),\n",
      "    Message('note_on', channel=5, note=59, velocity=90, time=0),\n",
      "    Message('note_on', channel=5, note=59, velocity=0, time=60),\n",
      "    Message('note_on', channel=5, note=61, velocity=90, time=0),\n",
      "    Message('note_on', channel=5, note=61, velocity=0, time=30),\n",
      "    Message('note_on', channel=5, note=59, velocity=90, time=0),\n",
      "    Message('note_on', channel=5, note=59, velocity=0, time=60),\n",
      "    Message('note_on', channel=5, note=57, velocity=90, time=0),\n",
      "    Message('note_on', channel=5, note=57, velocity=0, time=150),\n",
      "    Message('note_on', channel=5, note=54, velocity=90, time=30),\n",
      "    Message('note_on', channel=5, note=54, velocity=0, time=30),\n",
      "    Message('note_on', channel=5, note=57, velocity=90, time=0),\n",
      "    Message('note_on', channel=5, note=57, velocity=0, time=30),\n",
      "    Message('note_on', channel=5, note=59, velocity=90, time=0),\n",
      "    Message('note_on', channel=5, note=59, velocity=0, time=60),\n",
      "    Message('note_on', channel=5, note=54, velocity=90, time=0),\n",
      "    Message('note_on', channel=5, note=54, velocity=0, time=30),\n",
      "    Message('note_on', channel=5, note=52, velocity=90, time=0),\n",
      "    Message('note_on', channel=5, note=52, velocity=0, time=60),\n",
      "    Message('note_on', channel=5, note=54, velocity=90, time=0),\n",
      "    Message('note_on', channel=5, note=54, velocity=0, time=30),\n",
      "    Message('note_on', channel=5, note=52, velocity=90, time=0),\n",
      "    Message('note_on', channel=5, note=52, velocity=0, time=60),\n",
      "    Message('note_on', channel=5, note=50, velocity=90, time=0),\n",
      "    Message('note_on', channel=5, note=50, velocity=0, time=150),\n",
      "    Message('note_on', channel=5, note=47, velocity=90, time=30),\n",
      "    Message('note_on', channel=5, note=47, velocity=0, time=30),\n",
      "    Message('note_on', channel=5, note=50, velocity=90, time=0),\n",
      "    Message('note_on', channel=5, note=50, velocity=0, time=30),\n",
      "    Message('note_on', channel=5, note=55, velocity=90, time=0),\n",
      "    Message('note_on', channel=5, note=55, velocity=0, time=60),\n",
      "    Message('note_on', channel=5, note=54, velocity=90, time=0),\n",
      "    Message('note_on', channel=5, note=54, velocity=0, time=60),\n",
      "    Message('note_on', channel=5, note=52, velocity=90, time=0),\n",
      "    Message('note_on', channel=5, note=52, velocity=0, time=60),\n",
      "    Message('note_on', channel=5, note=50, velocity=90, time=0),\n",
      "    Message('note_on', channel=5, note=50, velocity=0, time=60),\n",
      "    Message('note_on', channel=5, note=55, velocity=90, time=0),\n",
      "    Message('note_on', channel=5, note=55, velocity=0, time=60),\n",
      "    Message('note_on', channel=5, note=54, velocity=90, time=0),\n",
      "    Message('note_on', channel=5, note=54, velocity=0, time=60),\n",
      "    Message('note_on', channel=5, note=52, velocity=90, time=0),\n",
      "    Message('note_on', channel=5, note=52, velocity=0, time=30),\n",
      "    Message('note_on', channel=5, note=50, velocity=90, time=0),\n",
      "    Message('note_on', channel=5, note=50, velocity=0, time=30),\n",
      "    Message('note_on', channel=5, note=54, velocity=90, time=0),\n",
      "    Message('note_on', channel=5, note=54, velocity=0, time=150),\n",
      "    Message('note_on', channel=5, note=50, velocity=90, time=0),\n",
      "    Message('note_on', channel=5, note=50, velocity=0, time=30),\n",
      "    Message('note_on', channel=5, note=54, velocity=90, time=0),\n",
      "    Message('note_on', channel=5, note=54, velocity=0, time=30),\n",
      "    Message('note_on', channel=5, note=57, velocity=90, time=30),\n",
      "    Message('note_on', channel=5, note=57, velocity=0, time=30),\n",
      "    Message('note_on', channel=5, note=57, velocity=90, time=0),\n",
      "    Message('note_on', channel=5, note=57, velocity=0, time=90),\n",
      "    Message('note_on', channel=5, note=59, velocity=90, time=0),\n",
      "    Message('note_on', channel=5, note=59, velocity=0, time=120),\n",
      "    Message('note_on', channel=5, note=54, velocity=90, time=0),\n",
      "    Message('note_on', channel=5, note=54, velocity=0, time=30),\n",
      "    Message('note_on', channel=5, note=57, velocity=90, time=0),\n",
      "    Message('note_on', channel=5, note=57, velocity=0, time=30),\n",
      "    Message('note_on', channel=5, note=62, velocity=90, time=0),\n",
      "    Message('note_on', channel=5, note=62, velocity=0, time=60),\n",
      "    Message('note_on', channel=5, note=61, velocity=90, time=0),\n",
      "    Message('note_on', channel=5, note=61, velocity=0, time=30),\n",
      "    Message('note_on', channel=5, note=59, velocity=90, time=0),\n",
      "    Message('note_on', channel=5, note=59, velocity=0, time=60),\n",
      "    Message('note_on', channel=5, note=61, velocity=90, time=0),\n",
      "    Message('note_on', channel=5, note=61, velocity=0, time=30),\n",
      "    Message('note_on', channel=5, note=59, velocity=90, time=0),\n",
      "    Message('note_on', channel=5, note=59, velocity=0, time=60),\n",
      "    Message('note_on', channel=5, note=57, velocity=90, time=0),\n",
      "    Message('note_on', channel=5, note=57, velocity=0, time=150),\n",
      "    Message('note_on', channel=5, note=54, velocity=90, time=30),\n",
      "    Message('note_on', channel=5, note=54, velocity=0, time=30),\n",
      "    Message('note_on', channel=5, note=57, velocity=90, time=0),\n",
      "    Message('note_on', channel=5, note=57, velocity=0, time=30),\n",
      "    Message('note_on', channel=5, note=59, velocity=90, time=0),\n",
      "    Message('note_on', channel=5, note=59, velocity=0, time=60),\n",
      "    Message('note_on', channel=5, note=54, velocity=90, time=0),\n",
      "    Message('note_on', channel=5, note=54, velocity=0, time=30),\n",
      "    Message('note_on', channel=5, note=52, velocity=90, time=0),\n",
      "    Message('note_on', channel=5, note=52, velocity=0, time=60),\n",
      "    Message('note_on', channel=5, note=54, velocity=90, time=0),\n",
      "    Message('note_on', channel=5, note=54, velocity=0, time=30),\n",
      "    Message('note_on', channel=5, note=52, velocity=90, time=0),\n",
      "    Message('note_on', channel=5, note=52, velocity=0, time=60),\n",
      "    Message('note_on', channel=5, note=50, velocity=90, time=0),\n",
      "    Message('note_on', channel=5, note=50, velocity=0, time=150),\n",
      "    Message('note_on', channel=5, note=47, velocity=90, time=30),\n",
      "    Message('note_on', channel=5, note=47, velocity=0, time=30),\n",
      "    Message('note_on', channel=5, note=50, velocity=90, time=0),\n",
      "    Message('note_on', channel=5, note=50, velocity=0, time=30),\n",
      "    Message('note_on', channel=5, note=55, velocity=90, time=0),\n",
      "    Message('note_on', channel=5, note=55, velocity=0, time=60),\n",
      "    Message('note_on', channel=5, note=54, velocity=90, time=0),\n",
      "    Message('note_on', channel=5, note=54, velocity=0, time=60),\n",
      "    Message('note_on', channel=5, note=52, velocity=90, time=0),\n",
      "    Message('note_on', channel=5, note=52, velocity=0, time=60),\n",
      "    Message('note_on', channel=5, note=50, velocity=90, time=0),\n",
      "    Message('note_on', channel=5, note=50, velocity=0, time=60),\n",
      "    Message('note_on', channel=5, note=64, velocity=90, time=0),\n",
      "    Message('note_on', channel=5, note=64, velocity=0, time=90),\n",
      "    Message('note_on', channel=5, note=59, velocity=90, time=30),\n",
      "    Message('note_on', channel=5, note=59, velocity=0, time=30),\n",
      "    Message('note_on', channel=5, note=61, velocity=90, time=30),\n",
      "    Message('note_on', channel=5, note=61, velocity=0, time=240),\n",
      "    Message('note_on', channel=5, note=57, velocity=90, time=240),\n",
      "    Message('note_on', channel=5, note=57, velocity=0, time=30),\n",
      "    Message('note_on', channel=5, note=57, velocity=90, time=0),\n",
      "    Message('note_on', channel=5, note=57, velocity=0, time=30),\n",
      "    Message('note_on', channel=5, note=59, velocity=90, time=0),\n",
      "    Message('note_on', channel=5, note=59, velocity=0, time=30),\n",
      "    Message('note_on', channel=5, note=62, velocity=90, time=0),\n",
      "    Message('note_on', channel=5, note=62, velocity=0, time=30),\n",
      "    Message('note_on', channel=5, note=62, velocity=90, time=0),\n",
      "    Message('note_on', channel=5, note=62, velocity=0, time=90),\n",
      "    Message('note_on', channel=5, note=59, velocity=90, time=0),\n",
      "    Message('note_on', channel=5, note=59, velocity=0, time=15),\n",
      "    Message('note_on', channel=5, note=64, velocity=90, time=15),\n",
      "    Message('note_on', channel=5, note=64, velocity=0, time=105),\n",
      "    Message('note_on', channel=5, note=66, velocity=90, time=15),\n",
      "    Message('note_on', channel=5, note=66, velocity=0, time=105),\n",
      "    Message('note_on', channel=5, note=61, velocity=90, time=15),\n",
      "    Message('note_on', channel=5, note=61, velocity=0, time=285),\n",
      "    Message('note_on', channel=5, note=57, velocity=90, time=195),\n",
      "    Message('note_on', channel=5, note=57, velocity=0, time=30),\n",
      "    Message('note_on', channel=5, note=57, velocity=90, time=0),\n",
      "    Message('note_on', channel=5, note=57, velocity=0, time=30),\n",
      "    Message('note_on', channel=5, note=59, velocity=90, time=0),\n",
      "    Message('note_on', channel=5, note=59, velocity=0, time=60),\n",
      "    Message('note_on', channel=5, note=62, velocity=90, time=0),\n",
      "    Message('note_on', channel=5, note=62, velocity=0, time=30),\n",
      "    Message('note_on', channel=5, note=62, velocity=90, time=0),\n",
      "    Message('note_on', channel=5, note=62, velocity=0, time=60),\n",
      "    Message('note_on', channel=5, note=59, velocity=90, time=0),\n",
      "    Message('note_on', channel=5, note=59, velocity=0, time=30),\n",
      "    Message('note_on', channel=5, note=64, velocity=90, time=0),\n",
      "    Message('note_on', channel=5, note=64, velocity=0, time=120),\n",
      "    Message('note_on', channel=5, note=66, velocity=90, time=0),\n",
      "    Message('note_on', channel=5, note=66, velocity=0, time=120),\n",
      "    Message('note_on', channel=5, note=59, velocity=90, time=0),\n",
      "    Message('note_on', channel=5, note=59, velocity=0, time=360),\n",
      "    Message('note_on', channel=5, note=59, velocity=90, time=60),\n",
      "    Message('note_on', channel=5, note=59, velocity=0, time=60),\n",
      "    Message('note_on', channel=5, note=57, velocity=90, time=0),\n",
      "    Message('note_on', channel=5, note=57, velocity=0, time=150),\n",
      "    Message('note_on', channel=5, note=64, velocity=90, time=30),\n",
      "    Message('note_on', channel=5, note=64, velocity=0, time=60),\n",
      "    Message('note_on', channel=5, note=62, velocity=90, time=0),\n",
      "    Message('note_on', channel=5, note=62, velocity=0, time=120),\n",
      "    Message('note_on', channel=5, note=57, velocity=90, time=60),\n",
      "    Message('note_on', channel=5, note=57, velocity=0, time=60),\n",
      "    Message('note_on', channel=5, note=55, velocity=90, time=0),\n",
      "    Message('note_on', channel=5, note=55, velocity=0, time=360),\n",
      "    Message('note_on', channel=5, note=59, velocity=90, time=60),\n",
      "    Message('note_on', channel=5, note=59, velocity=0, time=60),\n",
      "    Message('note_on', channel=5, note=62, velocity=90, time=0),\n",
      "    Message('note_on', channel=5, note=62, velocity=0, time=60),\n",
      "    Message('note_on', channel=5, note=67, velocity=90, time=0),\n",
      "    Message('note_on', channel=5, note=67, velocity=0, time=60),\n",
      "    Message('note_on', channel=5, note=66, velocity=90, time=0),\n",
      "    Message('note_on', channel=5, note=66, velocity=0, time=60),\n",
      "    Message('note_on', channel=5, note=62, velocity=90, time=0),\n",
      "    Message('note_on', channel=5, note=62, velocity=0, time=60),\n",
      "    Message('note_on', channel=5, note=64, velocity=90, time=0),\n",
      "    Message('note_on', channel=5, note=64, velocity=0, time=270),\n",
      "    Message('note_on', channel=5, note=66, velocity=90, time=325),\n",
      "    Message('note_on', channel=5, note=66, velocity=0, time=60),\n",
      "    Message('note_on', channel=5, note=64, velocity=90, time=0),\n",
      "    Message('note_on', channel=5, note=64, velocity=0, time=60),\n",
      "    Message('note_on', channel=5, note=64, velocity=90, time=0),\n",
      "    Message('note_on', channel=5, note=64, velocity=0, time=60),\n",
      "    Message('note_on', channel=5, note=62, velocity=100, time=0),\n",
      "    Message('note_on', channel=5, note=62, velocity=0, time=240),\n",
      "    Message('note_on', channel=5, note=61, velocity=90, time=0),\n",
      "    Message('note_on', channel=5, note=61, velocity=0, time=60),\n",
      "    Message('note_on', channel=5, note=62, velocity=90, time=0),\n",
      "    Message('note_on', channel=5, note=62, velocity=0, time=60),\n",
      "    Message('note_on', channel=5, note=69, velocity=90, time=0),\n",
      "    Message('note_on', channel=5, note=69, velocity=0, time=60),\n",
      "    Message('note_on', channel=5, note=61, velocity=90, time=0),\n",
      "    Message('note_on', channel=5, note=61, velocity=0, time=120),\n",
      "    Message('note_on', channel=5, note=62, velocity=90, time=0),\n",
      "    Message('note_on', channel=5, note=62, velocity=0, time=120),\n",
      "    Message('note_on', channel=5, note=61, velocity=90, time=60),\n",
      "    Message('note_on', channel=5, note=61, velocity=0, time=60),\n",
      "    Message('note_on', channel=5, note=62, velocity=90, time=0),\n",
      "    Message('note_on', channel=5, note=62, velocity=0, time=60),\n",
      "    Message('note_on', channel=5, note=69, velocity=90, time=0),\n",
      "    Message('note_on', channel=5, note=69, velocity=0, time=60),\n",
      "    Message('note_on', channel=5, note=57, velocity=90, time=0),\n",
      "    Message('note_on', channel=5, note=57, velocity=0, time=120),\n",
      "    Message('note_on', channel=5, note=59, velocity=90, time=0),\n",
      "    Message('note_on', channel=5, note=59, velocity=0, time=120),\n",
      "    Message('note_on', channel=5, note=59, velocity=90, time=123),\n",
      "    Message('note_on', channel=5, note=59, velocity=0, time=52),\n",
      "    Message('note_on', channel=5, note=62, velocity=90, time=5),\n",
      "    Message('note_on', channel=5, note=62, velocity=0, time=60),\n",
      "    Message('note_on', channel=5, note=67, velocity=90, time=0),\n",
      "    Message('note_on', channel=5, note=67, velocity=0, time=120),\n",
      "    Message('note_on', channel=5, note=66, velocity=90, time=0),\n",
      "    Message('note_on', channel=5, note=66, velocity=0, time=60),\n",
      "    Message('note_on', channel=5, note=62, velocity=90, time=0),\n",
      "    Message('note_on', channel=5, note=62, velocity=0, time=60),\n",
      "    Message('note_on', channel=5, note=67, velocity=90, time=0),\n",
      "    Message('note_on', channel=5, note=67, velocity=0, time=120),\n",
      "    Message('note_on', channel=5, note=66, velocity=90, time=0),\n",
      "    Message('note_on', channel=5, note=66, velocity=0, time=60),\n",
      "    Message('note_on', channel=5, note=64, velocity=90, time=0),\n",
      "    Message('note_on', channel=5, note=64, velocity=0, time=60),\n",
      "    Message('note_on', channel=5, note=64, velocity=90, time=0),\n",
      "    Message('note_on', channel=5, note=64, velocity=0, time=60),\n",
      "    Message('note_on', channel=5, note=62, velocity=90, time=0),\n",
      "    Message('note_on', channel=5, note=62, velocity=0, time=120),\n",
      "    Message('note_on', channel=5, note=57, velocity=90, time=60),\n",
      "    Message('note_on', channel=5, note=57, velocity=0, time=60),\n",
      "    Message('note_on', channel=5, note=61, velocity=90, time=0),\n",
      "    Message('note_on', channel=5, note=61, velocity=0, time=60),\n",
      "    Message('note_on', channel=5, note=62, velocity=90, time=0),\n",
      "    Message('note_on', channel=5, note=62, velocity=0, time=60),\n",
      "    Message('note_on', channel=5, note=69, velocity=90, time=0),\n",
      "    Message('note_on', channel=5, note=69, velocity=0, time=60),\n",
      "    Message('note_on', channel=5, note=61, velocity=90, time=0),\n",
      "    Message('note_on', channel=5, note=61, velocity=0, time=120),\n",
      "    Message('note_on', channel=5, note=62, velocity=90, time=0),\n",
      "    Message('note_on', channel=5, note=62, velocity=0, time=180),\n",
      "    Message('note_on', channel=5, note=61, velocity=90, time=0),\n",
      "    Message('note_on', channel=5, note=61, velocity=0, time=60),\n",
      "    Message('note_on', channel=5, note=62, velocity=90, time=0),\n",
      "    Message('note_on', channel=5, note=62, velocity=0, time=60),\n",
      "    Message('note_on', channel=5, note=69, velocity=90, time=0),\n",
      "    Message('note_on', channel=5, note=69, velocity=0, time=60),\n",
      "    Message('note_on', channel=5, note=57, velocity=90, time=0),\n",
      "    Message('note_on', channel=5, note=57, velocity=0, time=120),\n",
      "    Message('note_on', channel=5, note=59, velocity=90, time=0),\n",
      "    Message('note_on', channel=5, note=59, velocity=0, time=300),\n",
      "    Message('note_on', channel=5, note=62, velocity=90, time=0),\n",
      "    Message('note_on', channel=5, note=62, velocity=0, time=60),\n",
      "    Message('note_on', channel=5, note=62, velocity=90, time=0),\n",
      "    Message('note_on', channel=5, note=62, velocity=0, time=120),\n",
      "    Message('note_on', channel=5, note=59, velocity=90, time=0),\n",
      "    Message('note_on', channel=5, note=59, velocity=0, time=60),\n",
      "    Message('note_on', channel=5, note=62, velocity=90, time=0),\n",
      "    Message('note_on', channel=5, note=62, velocity=0, time=60),\n",
      "    Message('note_on', channel=5, note=66, velocity=90, time=0),\n",
      "    Message('note_on', channel=5, note=66, velocity=0, time=120),\n",
      "    Message('note_on', channel=5, note=64, velocity=90, time=0),\n",
      "    Message('note_on', channel=5, note=64, velocity=0, time=120),\n",
      "    Message('note_on', channel=5, note=62, velocity=90, time=0),\n",
      "    Message('note_on', channel=5, note=64, velocity=90, time=30),\n",
      "    Message('note_on', channel=5, note=64, velocity=0, time=30),\n",
      "    Message('note_on', channel=5, note=62, velocity=0, time=0),\n",
      "    Message('note_on', channel=5, note=62, velocity=90, time=0),\n",
      "    Message('note_on', channel=5, note=62, velocity=0, time=360),\n",
      "    Message('note_on', channel=5, note=64, velocity=100, time=2040),\n",
      "    Message('note_on', channel=5, note=64, velocity=100, time=180),\n",
      "    Message('note_on', channel=5, note=64, velocity=0, time=60),\n",
      "    Message('note_on', channel=5, note=64, velocity=0, time=0),\n",
      "    Message('note_on', channel=5, note=66, velocity=90, time=0),\n",
      "    Message('note_on', channel=5, note=66, velocity=0, time=90),\n",
      "    Message('note_on', channel=5, note=61, velocity=90, time=30),\n",
      "    Message('note_on', channel=5, note=61, velocity=0, time=30),\n",
      "    Message('note_on', channel=5, note=63, velocity=90, time=30),\n",
      "    Message('note_on', channel=5, note=63, velocity=0, time=240),\n",
      "    Message('note_on', channel=5, note=59, velocity=90, time=240),\n",
      "    Message('note_on', channel=5, note=59, velocity=0, time=30),\n",
      "    Message('note_on', channel=5, note=59, velocity=90, time=0),\n",
      "    Message('note_on', channel=5, note=59, velocity=0, time=30),\n",
      "    Message('note_on', channel=5, note=61, velocity=90, time=0),\n",
      "    Message('note_on', channel=5, note=61, velocity=0, time=30),\n",
      "    Message('note_on', channel=5, note=64, velocity=90, time=0),\n",
      "    Message('note_on', channel=5, note=64, velocity=0, time=30),\n",
      "    Message('note_on', channel=5, note=64, velocity=90, time=0),\n",
      "    Message('note_on', channel=5, note=64, velocity=0, time=90),\n",
      "    Message('note_on', channel=5, note=61, velocity=90, time=0),\n",
      "    Message('note_on', channel=5, note=61, velocity=0, time=15),\n",
      "    Message('note_on', channel=5, note=66, velocity=90, time=15),\n",
      "    Message('note_on', channel=5, note=66, velocity=0, time=105),\n",
      "    Message('note_on', channel=5, note=68, velocity=90, time=15),\n",
      "    Message('note_on', channel=5, note=68, velocity=0, time=105),\n",
      "    Message('note_on', channel=5, note=63, velocity=90, time=15),\n",
      "    Message('note_on', channel=5, note=63, velocity=0, time=285),\n",
      "    Message('note_on', channel=5, note=59, velocity=90, time=195),\n",
      "    Message('note_on', channel=5, note=59, velocity=0, time=30),\n",
      "    Message('note_on', channel=5, note=59, velocity=90, time=0),\n",
      "    Message('note_on', channel=5, note=59, velocity=0, time=30),\n",
      "    Message('note_on', channel=5, note=61, velocity=90, time=0),\n",
      "    Message('note_on', channel=5, note=61, velocity=0, time=60),\n",
      "    Message('note_on', channel=5, note=64, velocity=90, time=0),\n",
      "    Message('note_on', channel=5, note=64, velocity=0, time=30),\n",
      "    Message('note_on', channel=5, note=64, velocity=90, time=0),\n",
      "    Message('note_on', channel=5, note=64, velocity=0, time=60),\n",
      "    Message('note_on', channel=5, note=61, velocity=90, time=0),\n",
      "    Message('note_on', channel=5, note=61, velocity=0, time=30),\n",
      "    Message('note_on', channel=5, note=66, velocity=90, time=0),\n",
      "    Message('note_on', channel=5, note=66, velocity=0, time=120),\n",
      "    Message('note_on', channel=5, note=68, velocity=90, time=0),\n",
      "    Message('note_on', channel=5, note=68, velocity=0, time=120),\n",
      "    Message('note_on', channel=5, note=61, velocity=90, time=0),\n",
      "    Message('note_on', channel=5, note=61, velocity=0, time=360),\n",
      "    Message('note_on', channel=5, note=61, velocity=90, time=60),\n",
      "    Message('note_on', channel=5, note=61, velocity=0, time=60),\n",
      "    Message('note_on', channel=5, note=59, velocity=90, time=0),\n",
      "    Message('note_on', channel=5, note=59, velocity=0, time=150),\n",
      "    Message('note_on', channel=5, note=66, velocity=90, time=30),\n",
      "    Message('note_on', channel=5, note=66, velocity=0, time=60),\n",
      "    Message('note_on', channel=5, note=64, velocity=90, time=0),\n",
      "    Message('note_on', channel=5, note=64, velocity=0, time=120),\n",
      "    Message('note_on', channel=5, note=59, velocity=90, time=60),\n",
      "    Message('note_on', channel=5, note=59, velocity=0, time=60),\n",
      "    Message('note_on', channel=5, note=57, velocity=90, time=0),\n",
      "    Message('note_on', channel=5, note=57, velocity=0, time=360),\n",
      "    Message('note_on', channel=5, note=61, velocity=90, time=60),\n",
      "    Message('note_on', channel=5, note=61, velocity=0, time=60),\n",
      "    Message('note_on', channel=5, note=64, velocity=90, time=0),\n",
      "    Message('note_on', channel=5, note=64, velocity=0, time=60),\n",
      "    Message('note_on', channel=5, note=69, velocity=90, time=0),\n",
      "    Message('note_on', channel=5, note=69, velocity=0, time=60),\n",
      "    Message('note_on', channel=5, note=68, velocity=90, time=0),\n",
      "    Message('note_on', channel=5, note=68, velocity=0, time=60),\n",
      "    Message('note_on', channel=5, note=64, velocity=90, time=0),\n",
      "    Message('note_on', channel=5, note=64, velocity=0, time=60),\n",
      "    Message('note_on', channel=5, note=66, velocity=90, time=0),\n",
      "    Message('note_on', channel=5, note=66, velocity=0, time=270),\n",
      "    Message('note_on', channel=5, note=68, velocity=90, time=330),\n",
      "    Message('note_on', channel=5, note=68, velocity=0, time=60),\n",
      "    Message('note_on', channel=5, note=66, velocity=90, time=0),\n",
      "    Message('note_on', channel=5, note=66, velocity=0, time=60),\n",
      "    Message('note_on', channel=5, note=66, velocity=90, time=0),\n",
      "    Message('note_on', channel=5, note=66, velocity=0, time=60),\n",
      "    Message('note_on', channel=5, note=64, velocity=100, time=0),\n",
      "    Message('note_on', channel=5, note=64, velocity=0, time=240),\n",
      "    Message('note_on', channel=5, note=63, velocity=90, time=0),\n",
      "    Message('note_on', channel=5, note=63, velocity=0, time=60),\n",
      "    Message('note_on', channel=5, note=64, velocity=90, time=0),\n",
      "    Message('note_on', channel=5, note=64, velocity=0, time=60),\n",
      "    Message('note_on', channel=5, note=71, velocity=90, time=0),\n",
      "    Message('note_on', channel=5, note=71, velocity=0, time=60),\n",
      "    Message('note_on', channel=5, note=63, velocity=90, time=0),\n",
      "    Message('note_on', channel=5, note=63, velocity=0, time=120),\n",
      "    Message('note_on', channel=5, note=64, velocity=90, time=0),\n",
      "    Message('note_on', channel=5, note=64, velocity=0, time=120),\n",
      "    Message('note_on', channel=5, note=63, velocity=90, time=60),\n",
      "    Message('note_on', channel=5, note=63, velocity=0, time=60),\n",
      "    Message('note_on', channel=5, note=64, velocity=90, time=0),\n",
      "    Message('note_on', channel=5, note=64, velocity=0, time=60),\n",
      "    Message('note_on', channel=5, note=71, velocity=90, time=0),\n",
      "    Message('note_on', channel=5, note=71, velocity=0, time=60),\n",
      "    Message('note_on', channel=5, note=59, velocity=90, time=0),\n",
      "    Message('note_on', channel=5, note=59, velocity=0, time=120),\n",
      "    Message('note_on', channel=5, note=61, velocity=90, time=0),\n",
      "    Message('note_on', channel=5, note=61, velocity=0, time=120),\n",
      "    Message('note_on', channel=5, note=61, velocity=90, time=123),\n",
      "    Message('note_on', channel=5, note=61, velocity=0, time=52),\n",
      "    Message('note_on', channel=5, note=64, velocity=90, time=5),\n",
      "    Message('note_on', channel=5, note=64, velocity=0, time=60),\n",
      "    Message('note_on', channel=5, note=69, velocity=90, time=0),\n",
      "    Message('note_on', channel=5, note=69, velocity=0, time=120),\n",
      "    Message('note_on', channel=5, note=68, velocity=90, time=0),\n",
      "    Message('note_on', channel=5, note=68, velocity=0, time=60),\n",
      "    Message('note_on', channel=5, note=64, velocity=90, time=0),\n",
      "    Message('note_on', channel=5, note=64, velocity=0, time=60),\n",
      "    Message('note_on', channel=5, note=69, velocity=90, time=0),\n",
      "    Message('note_on', channel=5, note=69, velocity=0, time=120),\n",
      "    Message('note_on', channel=5, note=68, velocity=90, time=0),\n",
      "    Message('note_on', channel=5, note=68, velocity=0, time=60),\n",
      "    Message('note_on', channel=5, note=66, velocity=90, time=0),\n",
      "    Message('note_on', channel=5, note=66, velocity=0, time=60),\n",
      "    Message('note_on', channel=5, note=66, velocity=90, time=0),\n",
      "    Message('note_on', channel=5, note=66, velocity=0, time=60),\n",
      "    Message('note_on', channel=5, note=64, velocity=90, time=0),\n",
      "    Message('note_on', channel=5, note=64, velocity=0, time=120),\n",
      "    Message('note_on', channel=5, note=59, velocity=90, time=60),\n",
      "    Message('note_on', channel=5, note=59, velocity=0, time=60),\n",
      "    Message('note_on', channel=5, note=63, velocity=90, time=0),\n",
      "    Message('note_on', channel=5, note=63, velocity=0, time=60),\n",
      "    Message('note_on', channel=5, note=64, velocity=90, time=0),\n",
      "    Message('note_on', channel=5, note=64, velocity=0, time=60),\n",
      "    Message('note_on', channel=5, note=71, velocity=90, time=0),\n",
      "    Message('note_on', channel=5, note=71, velocity=0, time=60),\n",
      "    Message('note_on', channel=5, note=63, velocity=90, time=0),\n",
      "    Message('note_on', channel=5, note=63, velocity=0, time=120),\n",
      "    Message('note_on', channel=5, note=64, velocity=90, time=0),\n",
      "    Message('note_on', channel=5, note=64, velocity=0, time=180),\n",
      "    Message('note_on', channel=5, note=63, velocity=90, time=0),\n",
      "    Message('note_on', channel=5, note=63, velocity=0, time=60),\n",
      "    Message('note_on', channel=5, note=64, velocity=90, time=0),\n",
      "    Message('note_on', channel=5, note=64, velocity=0, time=60),\n",
      "    Message('note_on', channel=5, note=71, velocity=90, time=0),\n",
      "    Message('note_on', channel=5, note=71, velocity=0, time=60),\n",
      "    Message('note_on', channel=5, note=59, velocity=90, time=0),\n",
      "    Message('note_on', channel=5, note=59, velocity=0, time=120),\n",
      "    Message('note_on', channel=5, note=61, velocity=90, time=0),\n",
      "    Message('note_on', channel=5, note=61, velocity=0, time=300),\n",
      "    Message('note_on', channel=5, note=64, velocity=90, time=0),\n",
      "    Message('note_on', channel=5, note=64, velocity=0, time=60),\n",
      "    Message('note_on', channel=5, note=64, velocity=90, time=0),\n",
      "    Message('note_on', channel=5, note=64, velocity=0, time=120),\n",
      "    Message('note_on', channel=5, note=61, velocity=90, time=0),\n",
      "    Message('note_on', channel=5, note=61, velocity=0, time=60),\n",
      "    Message('note_on', channel=5, note=64, velocity=90, time=0),\n",
      "    Message('note_on', channel=5, note=64, velocity=0, time=60),\n",
      "    Message('note_on', channel=5, note=68, velocity=90, time=0),\n",
      "    Message('note_on', channel=5, note=68, velocity=0, time=120),\n",
      "    Message('note_on', channel=5, note=66, velocity=90, time=0),\n",
      "    Message('note_on', channel=5, note=66, velocity=0, time=120),\n",
      "    Message('note_on', channel=5, note=64, velocity=90, time=0),\n",
      "    Message('note_on', channel=5, note=66, velocity=90, time=30),\n",
      "    Message('note_on', channel=5, note=66, velocity=0, time=30),\n",
      "    Message('note_on', channel=5, note=64, velocity=0, time=0),\n",
      "    Message('note_on', channel=5, note=64, velocity=90, time=0),\n",
      "    Message('note_on', channel=5, note=64, velocity=0, time=360),\n",
      "    MetaMessage('end_of_track', time=0)]),\n",
      "  MidiTrack([\n",
      "    MetaMessage('midi_port', port=0, time=0),\n",
      "    MetaMessage('track_name', name='RHYTEM', time=0),\n",
      "    Message('control_change', channel=9, control=7, value=90, time=0),\n",
      "    Message('control_change', channel=9, control=10, value=64, time=0),\n",
      "    Message('note_on', channel=9, note=81, velocity=100, time=240),\n",
      "    Message('note_on', channel=9, note=81, velocity=0, time=60),\n",
      "    Message('note_on', channel=9, note=81, velocity=100, time=0),\n",
      "    Message('note_on', channel=9, note=50, velocity=100, time=30),\n",
      "    Message('note_on', channel=9, note=50, velocity=0, time=30),\n",
      "    Message('note_on', channel=9, note=81, velocity=0, time=0),\n",
      "    Message('note_on', channel=9, note=81, velocity=100, time=0),\n",
      "    Message('note_on', channel=9, note=47, velocity=100, time=0),\n",
      "    Message('note_on', channel=9, note=81, velocity=0, time=30),\n",
      "    Message('note_on', channel=9, note=47, velocity=0, time=30),\n",
      "    Message('note_on', channel=9, note=81, velocity=100, time=0),\n",
      "    Message('note_on', channel=9, note=45, velocity=100, time=0),\n",
      "    Message('note_on', channel=9, note=81, velocity=0, time=30),\n",
      "    Message('note_on', channel=9, note=45, velocity=0, time=30),\n",
      "    Message('note_on', channel=9, note=44, velocity=100, time=0),\n",
      "    Message('note_on', channel=9, note=33, velocity=100, time=0),\n",
      "    Message('note_on', channel=9, note=44, velocity=0, time=30),\n",
      "    Message('note_on', channel=9, note=33, velocity=0, time=30),\n",
      "    Message('note_on', channel=9, note=44, velocity=100, time=0),\n",
      "    Message('note_on', channel=9, note=44, velocity=0, time=30),\n",
      "    Message('note_on', channel=9, note=44, velocity=100, time=0),\n",
      "    Message('note_on', channel=9, note=44, velocity=0, time=30),\n",
      "    Message('note_on', channel=9, note=40, velocity=100, time=0),\n",
      "    Message('note_on', channel=9, note=44, velocity=100, time=0),\n",
      "    Message('note_on', channel=9, note=44, velocity=0, time=30),\n",
      "    Message('note_on', channel=9, note=40, velocity=0, time=30),\n",
      "    Message('note_on', channel=9, note=44, velocity=100, time=0),\n",
      "    Message('note_on', channel=9, note=33, velocity=100, time=0),\n",
      "    Message('note_on', channel=9, note=44, velocity=0, time=30),\n",
      "    Message('note_on', channel=9, note=44, velocity=100, time=0),\n",
      "    Message('note_on', channel=9, note=44, velocity=0, time=30),\n",
      "    Message('note_on', channel=9, note=33, velocity=0, time=0),\n",
      "    Message('note_on', channel=9, note=44, velocity=100, time=0),\n",
      "    Message('note_on', channel=9, note=33, velocity=100, time=0),\n",
      "    Message('note_on', channel=9, note=44, velocity=0, time=30),\n",
      "    Message('note_on', channel=9, note=33, velocity=0, time=30),\n",
      "    Message('note_on', channel=9, note=44, velocity=100, time=0),\n",
      "    Message('note_on', channel=9, note=44, velocity=0, time=30),\n",
      "    Message('note_on', channel=9, note=44, velocity=100, time=0),\n",
      "    Message('note_on', channel=9, note=44, velocity=0, time=30),\n",
      "    Message('note_on', channel=9, note=81, velocity=100, time=0),\n",
      "    Message('note_on', channel=9, note=40, velocity=100, time=0),\n",
      "    Message('note_on', channel=9, note=44, velocity=100, time=0),\n",
      "    Message('note_on', channel=9, note=44, velocity=0, time=30),\n",
      "    Message('note_on', channel=9, note=40, velocity=0, time=0),\n",
      "    Message('note_on', channel=9, note=44, velocity=100, time=30),\n",
      "    Message('note_on', channel=9, note=44, velocity=0, time=30),\n",
      "    Message('note_on', channel=9, note=44, velocity=100, time=0),\n",
      "    Message('note_on', channel=9, note=44, velocity=0, time=30),\n",
      "    Message('note_on', channel=9, note=81, velocity=0, time=0),\n",
      "    Message('note_on', channel=9, note=44, velocity=100, time=0),\n",
      "    Message('note_on', channel=9, note=33, velocity=100, time=0),\n",
      "    Message('note_on', channel=9, note=44, velocity=0, time=30),\n",
      "    Message('note_on', channel=9, note=33, velocity=0, time=30),\n",
      "    Message('note_on', channel=9, note=44, velocity=100, time=0),\n",
      "    Message('note_on', channel=9, note=44, velocity=0, time=30),\n",
      "    Message('note_on', channel=9, note=44, velocity=100, time=0),\n",
      "    Message('note_on', channel=9, note=44, velocity=0, time=30),\n",
      "    Message('note_on', channel=9, note=40, velocity=100, time=0),\n",
      "    Message('note_on', channel=9, note=44, velocity=100, time=0),\n",
      "    Message('note_on', channel=9, note=44, velocity=0, time=30),\n",
      "    Message('note_on', channel=9, note=40, velocity=0, time=30),\n",
      "    Message('note_on', channel=9, note=44, velocity=100, time=0),\n",
      "    Message('note_on', channel=9, note=33, velocity=100, time=0),\n",
      "    Message('note_on', channel=9, note=44, velocity=0, time=30),\n",
      "    Message('note_on', channel=9, note=44, velocity=100, time=0),\n",
      "    Message('note_on', channel=9, note=44, velocity=0, time=30),\n",
      "    Message('note_on', channel=9, note=33, velocity=0, time=0),\n",
      "    Message('note_on', channel=9, note=44, velocity=100, time=0),\n",
      "    Message('note_on', channel=9, note=33, velocity=100, time=0),\n",
      "    Message('note_on', channel=9, note=44, velocity=0, time=30),\n",
      "    Message('note_on', channel=9, note=33, velocity=0, time=30),\n",
      "    Message('note_on', channel=9, note=44, velocity=100, time=0),\n",
      "    Message('note_on', channel=9, note=44, velocity=0, time=30),\n",
      "    Message('note_on', channel=9, note=44, velocity=100, time=0),\n",
      "    Message('note_on', channel=9, note=44, velocity=0, time=30),\n",
      "    Message('note_on', channel=9, note=81, velocity=100, time=0),\n",
      "    Message('note_on', channel=9, note=40, velocity=100, time=0),\n",
      "    Message('note_on', channel=9, note=44, velocity=100, time=0),\n",
      "    Message('note_on', channel=9, note=44, velocity=0, time=30),\n",
      "    Message('note_on', channel=9, note=40, velocity=0, time=0),\n",
      "    Message('note_on', channel=9, note=44, velocity=100, time=30),\n",
      "    Message('note_on', channel=9, note=44, velocity=0, time=30),\n",
      "    Message('note_on', channel=9, note=44, velocity=100, time=0),\n",
      "    Message('note_on', channel=9, note=44, velocity=0, time=30),\n",
      "    Message('note_on', channel=9, note=81, velocity=0, time=0),\n",
      "    Message('note_on', channel=9, note=44, velocity=100, time=0),\n",
      "    Message('note_on', channel=9, note=33, velocity=100, time=0),\n",
      "    Message('note_on', channel=9, note=44, velocity=0, time=30),\n",
      "    Message('note_on', channel=9, note=33, velocity=0, time=30),\n",
      "    Message('note_on', channel=9, note=44, velocity=100, time=0),\n",
      "    Message('note_on', channel=9, note=44, velocity=0, time=30),\n",
      "    Message('note_on', channel=9, note=44, velocity=100, time=0),\n",
      "    Message('note_on', channel=9, note=44, velocity=0, time=30),\n",
      "    Message('note_on', channel=9, note=40, velocity=100, time=0),\n",
      "    Message('note_on', channel=9, note=44, velocity=100, time=0),\n",
      "    Message('note_on', channel=9, note=44, velocity=0, time=30),\n",
      "    Message('note_on', channel=9, note=40, velocity=0, time=30),\n",
      "    Message('note_on', channel=9, note=44, velocity=100, time=0),\n",
      "    Message('note_on', channel=9, note=33, velocity=100, time=0),\n",
      "    Message('note_on', channel=9, note=44, velocity=0, time=30),\n",
      "    Message('note_on', channel=9, note=44, velocity=100, time=0),\n",
      "    Message('note_on', channel=9, note=44, velocity=0, time=30),\n",
      "    Message('note_on', channel=9, note=33, velocity=0, time=0),\n",
      "    Message('note_on', channel=9, note=44, velocity=100, time=0),\n",
      "    Message('note_on', channel=9, note=33, velocity=100, time=0),\n",
      "    Message('note_on', channel=9, note=44, velocity=0, time=30),\n",
      "    Message('note_on', channel=9, note=33, velocity=0, time=30),\n",
      "    Message('note_on', channel=9, note=44, velocity=100, time=0),\n",
      "    Message('note_on', channel=9, note=44, velocity=0, time=30),\n",
      "    Message('note_on', channel=9, note=44, velocity=100, time=0),\n",
      "    Message('note_on', channel=9, note=44, velocity=0, time=30),\n",
      "    Message('note_on', channel=9, note=81, velocity=100, time=0),\n",
      "    Message('note_on', channel=9, note=40, velocity=100, time=0),\n",
      "    Message('note_on', channel=9, note=44, velocity=100, time=0),\n",
      "    Message('note_on', channel=9, note=44, velocity=0, time=30),\n",
      "    Message('note_on', channel=9, note=40, velocity=0, time=0),\n",
      "    Message('note_on', channel=9, note=44, velocity=100, time=30),\n",
      "    Message('note_on', channel=9, note=44, velocity=0, time=30),\n",
      "    Message('note_on', channel=9, note=44, velocity=100, time=0),\n",
      "    Message('note_on', channel=9, note=44, velocity=0, time=30),\n",
      "    Message('note_on', channel=9, note=81, velocity=0, time=0),\n",
      "    Message('note_on', channel=9, note=44, velocity=100, time=0),\n",
      "    Message('note_on', channel=9, note=33, velocity=100, time=0),\n",
      "    Message('note_on', channel=9, note=44, velocity=0, time=30),\n",
      "    Message('note_on', channel=9, note=33, velocity=0, time=30),\n",
      "    Message('note_on', channel=9, note=44, velocity=100, time=0),\n",
      "    Message('note_on', channel=9, note=44, velocity=0, time=30),\n",
      "    Message('note_on', channel=9, note=44, velocity=100, time=0),\n",
      "    Message('note_on', channel=9, note=44, velocity=0, time=30),\n",
      "    Message('note_on', channel=9, note=40, velocity=100, time=0),\n",
      "    Message('note_on', channel=9, note=44, velocity=100, time=0),\n",
      "    Message('note_on', channel=9, note=44, velocity=0, time=30),\n",
      "    Message('note_on', channel=9, note=40, velocity=0, time=30),\n",
      "    Message('note_on', channel=9, note=44, velocity=100, time=0),\n",
      "    Message('note_on', channel=9, note=33, velocity=100, time=0),\n",
      "    Message('note_on', channel=9, note=44, velocity=0, time=30),\n",
      "    Message('note_on', channel=9, note=44, velocity=100, time=0),\n",
      "    Message('note_on', channel=9, note=44, velocity=0, time=30),\n",
      "    Message('note_on', channel=9, note=33, velocity=0, time=0),\n",
      "    Message('note_on', channel=9, note=44, velocity=100, time=0),\n",
      "    Message('note_on', channel=9, note=33, velocity=100, time=0),\n",
      "    Message('note_on', channel=9, note=44, velocity=0, time=30),\n",
      "    Message('note_on', channel=9, note=33, velocity=0, time=30),\n",
      "    Message('note_on', channel=9, note=50, velocity=100, time=0),\n",
      "    Message('note_on', channel=9, note=44, velocity=100, time=0),\n",
      "    Message('note_on', channel=9, note=44, velocity=0, time=30),\n",
      "    Message('note_on', channel=9, note=44, velocity=100, time=0),\n",
      "    Message('note_on', channel=9, note=44, velocity=0, time=30),\n",
      "    Message('note_on', channel=9, note=50, velocity=0, time=0),\n",
      "    Message('note_on', channel=9, note=47, velocity=100, time=0),\n",
      "    Message('note_on', channel=9, note=81, velocity=100, time=0),\n",
      "    Message('note_on', channel=9, note=40, velocity=100, time=0),\n",
      "    Message('note_on', channel=9, note=44, velocity=100, time=0),\n",
      "    Message('note_on', channel=9, note=44, velocity=0, time=30),\n",
      "    Message('note_on', channel=9, note=40, velocity=0, time=0),\n",
      "    Message('note_on', channel=9, note=47, velocity=0, time=30),\n",
      "    Message('note_on', channel=9, note=45, velocity=100, time=0),\n",
      "    Message('note_on', channel=9, note=44, velocity=100, time=0),\n",
      "    Message('note_on', channel=9, note=44, velocity=0, time=30),\n",
      "    Message('note_on', channel=9, note=44, velocity=100, time=0),\n",
      "    Message('note_on', channel=9, note=44, velocity=0, time=30),\n",
      "    Message('note_on', channel=9, note=45, velocity=0, time=0),\n",
      "    Message('note_on', channel=9, note=81, velocity=0, time=0),\n",
      "    Message('note_on', channel=9, note=44, velocity=100, time=0),\n",
      "    Message('note_on', channel=9, note=33, velocity=100, time=0),\n",
      "    Message('note_on', channel=9, note=44, velocity=0, time=30),\n",
      "    Message('note_on', channel=9, note=33, velocity=0, time=30),\n",
      "    Message('note_on', channel=9, note=44, velocity=100, time=0),\n",
      "    Message('note_on', channel=9, note=44, velocity=0, time=30),\n",
      "    Message('note_on', channel=9, note=44, velocity=100, time=0),\n",
      "    Message('note_on', channel=9, note=44, velocity=0, time=30),\n",
      "    Message('note_on', channel=9, note=40, velocity=100, time=0),\n",
      "    Message('note_on', channel=9, note=44, velocity=100, time=0),\n",
      "    Message('note_on', channel=9, note=44, velocity=0, time=30),\n",
      "    Message('note_on', channel=9, note=40, velocity=0, time=30),\n",
      "    Message('note_on', channel=9, note=44, velocity=100, time=0),\n",
      "    Message('note_on', channel=9, note=33, velocity=100, time=0),\n",
      "    Message('note_on', channel=9, note=44, velocity=0, time=30),\n",
      "    Message('note_on', channel=9, note=44, velocity=100, time=0),\n",
      "    Message('note_on', channel=9, note=44, velocity=0, time=30),\n",
      "    Message('note_on', channel=9, note=33, velocity=0, time=0),\n",
      "    Message('note_on', channel=9, note=44, velocity=100, time=0),\n",
      "    Message('note_on', channel=9, note=33, velocity=100, time=0),\n",
      "    Message('note_on', channel=9, note=44, velocity=0, time=30),\n",
      "    Message('note_on', channel=9, note=33, velocity=0, time=30),\n",
      "    Message('note_on', channel=9, note=44, velocity=100, time=0),\n",
      "    Message('note_on', channel=9, note=44, velocity=0, time=30),\n",
      "    Message('note_on', channel=9, note=44, velocity=100, time=0),\n",
      "    Message('note_on', channel=9, note=44, velocity=0, time=30),\n",
      "    Message('note_on', channel=9, note=81, velocity=100, time=0),\n",
      "    Message('note_on', channel=9, note=40, velocity=100, time=0),\n",
      "    Message('note_on', channel=9, note=44, velocity=100, time=0),\n",
      "    Message('note_on', channel=9, note=44, velocity=0, time=30),\n",
      "    Message('note_on', channel=9, note=40, velocity=0, time=0),\n",
      "    Message('note_on', channel=9, note=44, velocity=100, time=30),\n",
      "    Message('note_on', channel=9, note=44, velocity=0, time=30),\n",
      "    Message('note_on', channel=9, note=44, velocity=100, time=0),\n",
      "    Message('note_on', channel=9, note=44, velocity=0, time=30),\n",
      "    Message('note_on', channel=9, note=81, velocity=0, time=0),\n",
      "    Message('note_on', channel=9, note=44, velocity=100, time=0),\n",
      "    Message('note_on', channel=9, note=33, velocity=100, time=0),\n",
      "    Message('note_on', channel=9, note=44, velocity=0, time=30),\n",
      "    Message('note_on', channel=9, note=33, velocity=0, time=30),\n",
      "    Message('note_on', channel=9, note=44, velocity=100, time=0),\n",
      "    Message('note_on', channel=9, note=44, velocity=0, time=30),\n",
      "    Message('note_on', channel=9, note=44, velocity=100, time=0),\n",
      "    Message('note_on', channel=9, note=44, velocity=0, time=30),\n",
      "    Message('note_on', channel=9, note=40, velocity=100, time=0),\n",
      "    Message('note_on', channel=9, note=44, velocity=100, time=0),\n",
      "    Message('note_on', channel=9, note=44, velocity=0, time=30),\n",
      "    Message('note_on', channel=9, note=40, velocity=0, time=30),\n",
      "    Message('note_on', channel=9, note=44, velocity=100, time=0),\n",
      "    Message('note_on', channel=9, note=33, velocity=100, time=0),\n",
      "    Message('note_on', channel=9, note=44, velocity=0, time=30),\n",
      "    Message('note_on', channel=9, note=44, velocity=100, time=0),\n",
      "    Message('note_on', channel=9, note=44, velocity=0, time=30),\n",
      "    Message('note_on', channel=9, note=33, velocity=0, time=0),\n",
      "    Message('note_on', channel=9, note=44, velocity=100, time=0),\n",
      "    Message('note_on', channel=9, note=33, velocity=100, time=0),\n",
      "    Message('note_on', channel=9, note=44, velocity=0, time=30),\n",
      "    Message('note_on', channel=9, note=33, velocity=0, time=30),\n",
      "    Message('note_on', channel=9, note=44, velocity=100, time=0),\n",
      "    Message('note_on', channel=9, note=44, velocity=0, time=30),\n",
      "    Message('note_on', channel=9, note=44, velocity=100, time=0),\n",
      "    Message('note_on', channel=9, note=44, velocity=0, time=30),\n",
      "    Message('note_on', channel=9, note=81, velocity=100, time=0),\n",
      "    Message('note_on', channel=9, note=40, velocity=100, time=0),\n",
      "    Message('note_on', channel=9, note=44, velocity=100, time=0),\n",
      "    Message('note_on', channel=9, note=44, velocity=0, time=30),\n",
      "    Message('note_on', channel=9, note=40, velocity=0, time=0),\n",
      "    Message('note_on', channel=9, note=44, velocity=100, time=30),\n",
      "    Message('note_on', channel=9, note=44, velocity=0, time=30),\n",
      "    Message('note_on', channel=9, note=44, velocity=100, time=0),\n",
      "    Message('note_on', channel=9, note=44, velocity=0, time=30),\n",
      "    Message('note_on', channel=9, note=81, velocity=0, time=0),\n",
      "    Message('note_on', channel=9, note=44, velocity=100, time=0),\n",
      "    Message('note_on', channel=9, note=33, velocity=100, time=0),\n",
      "    Message('note_on', channel=9, note=44, velocity=0, time=30),\n",
      "    Message('note_on', channel=9, note=33, velocity=0, time=30),\n",
      "    Message('note_on', channel=9, note=44, velocity=100, time=0),\n",
      "    Message('note_on', channel=9, note=44, velocity=0, time=30),\n",
      "    Message('note_on', channel=9, note=44, velocity=100, time=0),\n",
      "    Message('note_on', channel=9, note=44, velocity=0, time=30),\n",
      "    Message('note_on', channel=9, note=40, velocity=100, time=0),\n",
      "    Message('note_on', channel=9, note=44, velocity=100, time=0),\n",
      "    Message('note_on', channel=9, note=44, velocity=0, time=30),\n",
      "    Message('note_on', channel=9, note=40, velocity=0, time=30),\n",
      "    Message('note_on', channel=9, note=44, velocity=100, time=0),\n",
      "    Message('note_on', channel=9, note=33, velocity=100, time=0),\n",
      "    Message('note_on', channel=9, note=44, velocity=0, time=30),\n",
      "    Message('note_on', channel=9, note=44, velocity=100, time=0),\n",
      "    Message('note_on', channel=9, note=44, velocity=0, time=30),\n",
      "    Message('note_on', channel=9, note=33, velocity=0, time=0),\n",
      "    Message('note_on', channel=9, note=44, velocity=100, time=0),\n",
      "    Message('note_on', channel=9, note=33, velocity=100, time=0),\n",
      "    Message('note_on', channel=9, note=44, velocity=0, time=30),\n",
      "    Message('note_on', channel=9, note=33, velocity=0, time=30),\n",
      "    Message('note_on', channel=9, note=44, velocity=100, time=0),\n",
      "    Message('note_on', channel=9, note=44, velocity=0, time=30),\n",
      "    Message('note_on', channel=9, note=44, velocity=100, time=0),\n",
      "    Message('note_on', channel=9, note=44, velocity=0, time=30),\n",
      "    Message('note_on', channel=9, note=81, velocity=100, time=0),\n",
      "    Message('note_on', channel=9, note=40, velocity=100, time=0),\n",
      "    Message('note_on', channel=9, note=44, velocity=100, time=0),\n",
      "    Message('note_on', channel=9, note=44, velocity=0, time=30),\n",
      "    Message('note_on', channel=9, note=40, velocity=0, time=0),\n",
      "    Message('note_on', channel=9, note=44, velocity=100, time=30),\n",
      "    Message('note_on', channel=9, note=44, velocity=0, time=30),\n",
      "    Message('note_on', channel=9, note=44, velocity=100, time=0),\n",
      "    Message('note_on', channel=9, note=44, velocity=0, time=30),\n",
      "    Message('note_on', channel=9, note=81, velocity=0, time=0),\n",
      "    Message('note_on', channel=9, note=44, velocity=100, time=0),\n",
      "    Message('note_on', channel=9, note=33, velocity=100, time=0),\n",
      "    Message('note_on', channel=9, note=44, velocity=0, time=30),\n",
      "    Message('note_on', channel=9, note=33, velocity=0, time=30),\n",
      "    Message('note_on', channel=9, note=44, velocity=100, time=0),\n",
      "    Message('note_on', channel=9, note=44, velocity=0, time=30),\n",
      "    Message('note_on', channel=9, note=44, velocity=100, time=0),\n",
      "    Message('note_on', channel=9, note=44, velocity=0, time=30),\n",
      "    Message('note_on', channel=9, note=40, velocity=100, time=0),\n",
      "    Message('note_on', channel=9, note=44, velocity=100, time=0),\n",
      "    Message('note_on', channel=9, note=44, velocity=0, time=30),\n",
      "    Message('note_on', channel=9, note=40, velocity=0, time=30),\n",
      "    Message('note_on', channel=9, note=44, velocity=100, time=0),\n",
      "    Message('note_on', channel=9, note=33, velocity=100, time=0),\n",
      "    Message('note_on', channel=9, note=44, velocity=0, time=30),\n",
      "    Message('note_on', channel=9, note=44, velocity=100, time=0),\n",
      "    Message('note_on', channel=9, note=44, velocity=0, time=30),\n",
      "    Message('note_on', channel=9, note=33, velocity=0, time=0),\n",
      "    Message('note_on', channel=9, note=44, velocity=100, time=0),\n",
      "    Message('note_on', channel=9, note=33, velocity=100, time=0),\n",
      "    Message('note_on', channel=9, note=44, velocity=0, time=30),\n",
      "    Message('note_on', channel=9, note=33, velocity=0, time=30),\n",
      "    Message('note_on', channel=9, note=50, velocity=100, time=0),\n",
      "    Message('note_on', channel=9, note=44, velocity=100, time=0),\n",
      "    Message('note_on', channel=9, note=44, velocity=0, time=30),\n",
      "    Message('note_on', channel=9, note=44, velocity=100, time=0),\n",
      "    Message('note_on', channel=9, note=44, velocity=0, time=30),\n",
      "    Message('note_on', channel=9, note=50, velocity=0, time=0),\n",
      "    Message('note_on', channel=9, note=16, velocity=100, time=0),\n",
      "    Message('note_on', channel=9, note=47, velocity=100, time=0),\n",
      "    Message('note_on', channel=9, note=81, velocity=100, time=0),\n",
      "    Message('note_on', channel=9, note=40, velocity=100, time=0),\n",
      "    Message('note_on', channel=9, note=44, velocity=100, time=0),\n",
      "    Message('note_on', channel=9, note=44, velocity=0, time=30),\n",
      "    Message('note_on', channel=9, note=40, velocity=0, time=0),\n",
      "    Message('note_on', channel=9, note=16, velocity=0, time=30),\n",
      "    Message('note_on', channel=9, note=47, velocity=0, time=0),\n",
      "    Message('note_on', channel=9, note=45, velocity=100, time=0),\n",
      "    Message('note_on', channel=9, note=44, velocity=100, time=0),\n",
      "    Message('note_on', channel=9, note=44, velocity=0, time=30),\n",
      "    Message('note_on', channel=9, note=44, velocity=100, time=0),\n",
      "    Message('note_on', channel=9, note=44, velocity=0, time=30),\n",
      "    Message('note_on', channel=9, note=45, velocity=0, time=0),\n",
      "    Message('note_on', channel=9, note=81, velocity=0, time=0),\n",
      "    Message('note_on', channel=9, note=44, velocity=100, time=0),\n",
      "    Message('note_on', channel=9, note=33, velocity=100, time=0),\n",
      "    Message('note_on', channel=9, note=44, velocity=0, time=30),\n",
      "    Message('note_on', channel=9, note=33, velocity=0, time=30),\n",
      "    Message('note_on', channel=9, note=44, velocity=100, time=0),\n",
      "    Message('note_on', channel=9, note=44, velocity=0, time=30),\n",
      "    Message('note_on', channel=9, note=44, velocity=100, time=0),\n",
      "    Message('note_on', channel=9, note=44, velocity=0, time=30),\n",
      "    Message('note_on', channel=9, note=40, velocity=100, time=0),\n",
      "    Message('note_on', channel=9, note=44, velocity=100, time=0),\n",
      "    Message('note_on', channel=9, note=44, velocity=0, time=30),\n",
      "    Message('note_on', channel=9, note=40, velocity=0, time=30),\n",
      "    Message('note_on', channel=9, note=44, velocity=100, time=0),\n",
      "    Message('note_on', channel=9, note=33, velocity=100, time=0),\n",
      "    Message('note_on', channel=9, note=44, velocity=0, time=30),\n",
      "    Message('note_on', channel=9, note=44, velocity=100, time=0),\n",
      "    Message('note_on', channel=9, note=44, velocity=0, time=30),\n",
      "    Message('note_on', channel=9, note=33, velocity=0, time=0),\n",
      "    Message('note_on', channel=9, note=44, velocity=100, time=0),\n",
      "    Message('note_on', channel=9, note=33, velocity=100, time=0),\n",
      "    Message('note_on', channel=9, note=44, velocity=0, time=30),\n",
      "    Message('note_on', channel=9, note=33, velocity=0, time=30),\n",
      "    Message('note_on', channel=9, note=44, velocity=100, time=0),\n",
      "    Message('note_on', channel=9, note=44, velocity=0, time=30),\n",
      "    Message('note_on', channel=9, note=44, velocity=100, time=0),\n",
      "    Message('note_on', channel=9, note=44, velocity=0, time=30),\n",
      "    Message('note_on', channel=9, note=81, velocity=100, time=0),\n",
      "    Message('note_on', channel=9, note=40, velocity=100, time=0),\n",
      "    Message('note_on', channel=9, note=44, velocity=100, time=0),\n",
      "    Message('note_on', channel=9, note=44, velocity=0, time=30),\n",
      "    Message('note_on', channel=9, note=40, velocity=0, time=0),\n",
      "    Message('note_on', channel=9, note=44, velocity=100, time=30),\n",
      "    Message('note_on', channel=9, note=44, velocity=0, time=30),\n",
      "    Message('note_on', channel=9, note=44, velocity=100, time=0),\n",
      "    Message('note_on', channel=9, note=44, velocity=0, time=30),\n",
      "    Message('note_on', channel=9, note=81, velocity=0, time=0),\n",
      "    Message('note_on', channel=9, note=44, velocity=100, time=0),\n",
      "    Message('note_on', channel=9, note=33, velocity=100, time=0),\n",
      "    Message('note_on', channel=9, note=44, velocity=0, time=30),\n",
      "    Message('note_on', channel=9, note=33, velocity=0, time=30),\n",
      "    Message('note_on', channel=9, note=44, velocity=100, time=0),\n",
      "    Message('note_on', channel=9, note=44, velocity=0, time=30),\n",
      "    Message('note_on', channel=9, note=44, velocity=100, time=0),\n",
      "    Message('note_on', channel=9, note=44, velocity=0, time=30),\n",
      "    Message('note_on', channel=9, note=40, velocity=100, time=0),\n",
      "    Message('note_on', channel=9, note=44, velocity=100, time=0),\n",
      "    Message('note_on', channel=9, note=44, velocity=0, time=30),\n",
      "    Message('note_on', channel=9, note=40, velocity=0, time=30),\n",
      "    Message('note_on', channel=9, note=44, velocity=100, time=0),\n",
      "    Message('note_on', channel=9, note=33, velocity=100, time=0),\n",
      "    Message('note_on', channel=9, note=44, velocity=0, time=30),\n",
      "    Message('note_on', channel=9, note=44, velocity=100, time=0),\n",
      "    Message('note_on', channel=9, note=44, velocity=0, time=30),\n",
      "    Message('note_on', channel=9, note=33, velocity=0, time=0),\n",
      "    Message('note_on', channel=9, note=44, velocity=100, time=0),\n",
      "    Message('note_on', channel=9, note=33, velocity=100, time=0),\n",
      "    Message('note_on', channel=9, note=44, velocity=0, time=30),\n",
      "    Message('note_on', channel=9, note=33, velocity=0, time=30),\n",
      "    Message('note_on', channel=9, note=44, velocity=100, time=0),\n",
      "    Message('note_on', channel=9, note=44, velocity=0, time=30),\n",
      "    Message('note_on', channel=9, note=44, velocity=100, time=0),\n",
      "    Message('note_on', channel=9, note=44, velocity=0, time=30),\n",
      "    Message('note_on', channel=9, note=81, velocity=100, time=0),\n",
      "    Message('note_on', channel=9, note=40, velocity=100, time=0),\n",
      "    Message('note_on', channel=9, note=44, velocity=100, time=0),\n",
      "    Message('note_on', channel=9, note=44, velocity=0, time=30),\n",
      "    Message('note_on', channel=9, note=40, velocity=0, time=0),\n",
      "    Message('note_on', channel=9, note=44, velocity=100, time=30),\n",
      "    Message('note_on', channel=9, note=44, velocity=0, time=30),\n",
      "    Message('note_on', channel=9, note=44, velocity=100, time=0),\n",
      "    Message('note_on', channel=9, note=44, velocity=0, time=30),\n",
      "    Message('note_on', channel=9, note=81, velocity=0, time=0),\n",
      "    Message('note_on', channel=9, note=44, velocity=100, time=0),\n",
      "    Message('note_on', channel=9, note=33, velocity=100, time=0),\n",
      "    Message('note_on', channel=9, note=44, velocity=0, time=30),\n",
      "    Message('note_on', channel=9, note=33, velocity=0, time=30),\n",
      "    Message('note_on', channel=9, note=44, velocity=100, time=0),\n",
      "    Message('note_on', channel=9, note=44, velocity=0, time=30),\n",
      "    Message('note_on', channel=9, note=44, velocity=100, time=0),\n",
      "    Message('note_on', channel=9, note=44, velocity=0, time=30),\n",
      "    Message('note_on', channel=9, note=40, velocity=100, time=0),\n",
      "    Message('note_on', channel=9, note=44, velocity=100, time=0),\n",
      "    Message('note_on', channel=9, note=44, velocity=0, time=30),\n",
      "    Message('note_on', channel=9, note=40, velocity=0, time=30),\n",
      "    Message('note_on', channel=9, note=44, velocity=100, time=0),\n",
      "    Message('note_on', channel=9, note=33, velocity=100, time=0),\n",
      "    Message('note_on', channel=9, note=44, velocity=0, time=30),\n",
      "    Message('note_on', channel=9, note=44, velocity=100, time=0),\n",
      "    Message('note_on', channel=9, note=44, velocity=0, time=30),\n",
      "    Message('note_on', channel=9, note=33, velocity=0, time=0),\n",
      "    Message('note_on', channel=9, note=44, velocity=100, time=0),\n",
      "    Message('note_on', channel=9, note=33, velocity=100, time=0),\n",
      "    Message('note_on', channel=9, note=44, velocity=0, time=30),\n",
      "    Message('note_on', channel=9, note=33, velocity=0, time=30),\n",
      "    Message('note_on', channel=9, note=44, velocity=100, time=0),\n",
      "    Message('note_on', channel=9, note=44, velocity=0, time=30),\n",
      "    Message('note_on', channel=9, note=44, velocity=100, time=0),\n",
      "    Message('note_on', channel=9, note=44, velocity=0, time=30),\n",
      "    Message('note_on', channel=9, note=81, velocity=100, time=0),\n",
      "    Message('note_on', channel=9, note=40, velocity=100, time=0),\n",
      "    Message('note_on', channel=9, note=44, velocity=100, time=0),\n",
      "    Message('note_on', channel=9, note=44, velocity=0, time=30),\n",
      "    Message('note_on', channel=9, note=40, velocity=0, time=0),\n",
      "    Message('note_on', channel=9, note=44, velocity=100, time=30),\n",
      "    Message('note_on', channel=9, note=44, velocity=0, time=30),\n",
      "    Message('note_on', channel=9, note=44, velocity=100, time=0),\n",
      "    Message('note_on', channel=9, note=44, velocity=0, time=30),\n",
      "    Message('note_on', channel=9, note=81, velocity=0, time=0),\n",
      "    Message('note_on', channel=9, note=44, velocity=100, time=0),\n",
      "    Message('note_on', channel=9, note=33, velocity=100, time=0),\n",
      "    Message('note_on', channel=9, note=44, velocity=0, time=30),\n",
      "    Message('note_on', channel=9, note=33, velocity=0, time=30),\n",
      "    Message('note_on', channel=9, note=44, velocity=100, time=0),\n",
      "    Message('note_on', channel=9, note=44, velocity=0, time=30),\n",
      "    Message('note_on', channel=9, note=44, velocity=100, time=0),\n",
      "    Message('note_on', channel=9, note=44, velocity=0, time=30),\n",
      "    Message('note_on', channel=9, note=40, velocity=100, time=0),\n",
      "    Message('note_on', channel=9, note=44, velocity=100, time=0),\n",
      "    Message('note_on', channel=9, note=44, velocity=0, time=30),\n",
      "    Message('note_on', channel=9, note=40, velocity=0, time=30),\n",
      "    Message('note_on', channel=9, note=44, velocity=100, time=0),\n",
      "    Message('note_on', channel=9, note=33, velocity=100, time=0),\n",
      "    Message('note_on', channel=9, note=44, velocity=0, time=30),\n",
      "    Message('note_on', channel=9, note=44, velocity=100, time=0),\n",
      "    Message('note_on', channel=9, note=44, velocity=0, time=30),\n",
      "    Message('note_on', channel=9, note=33, velocity=0, time=0),\n",
      "    Message('note_on', channel=9, note=44, velocity=100, time=0),\n",
      "    Message('note_on', channel=9, note=33, velocity=100, time=0),\n",
      "    Message('note_on', channel=9, note=44, velocity=0, time=30),\n",
      "    Message('note_on', channel=9, note=33, velocity=0, time=30),\n",
      "    Message('note_on', channel=9, note=82, velocity=100, time=0),\n",
      "    Message('note_on', channel=9, note=44, velocity=100, time=0),\n",
      "    Message('note_on', channel=9, note=44, velocity=0, time=30),\n",
      "    Message('note_on', channel=9, note=44, velocity=100, time=0),\n",
      "    Message('note_on', channel=9, note=44, velocity=0, time=30),\n",
      "    Message('note_on', channel=9, note=82, velocity=0, time=0),\n",
      "    Message('note_on', channel=9, note=70, velocity=100, time=0),\n",
      "    Message('note_on', channel=9, note=81, velocity=100, time=0),\n",
      "    Message('note_on', channel=9, note=40, velocity=100, time=0),\n",
      "    Message('note_on', channel=9, note=44, velocity=100, time=0),\n",
      "    Message('note_on', channel=9, note=44, velocity=0, time=30),\n",
      "    Message('note_on', channel=9, note=40, velocity=0, time=0),\n",
      "    Message('note_on', channel=9, note=70, velocity=0, time=30),\n",
      "    Message('note_on', channel=9, note=32, velocity=100, time=0),\n",
      "    Message('note_on', channel=9, note=44, velocity=100, time=0),\n",
      "    Message('note_on', channel=9, note=44, velocity=0, time=30),\n",
      "    Message('note_on', channel=9, note=44, velocity=100, time=0),\n",
      "    Message('note_on', channel=9, note=44, velocity=0, time=30),\n",
      "    Message('note_on', channel=9, note=32, velocity=0, time=0),\n",
      "    Message('note_on', channel=9, note=81, velocity=0, time=0),\n",
      "    Message('note_on', channel=9, note=44, velocity=100, time=0),\n",
      "    Message('note_on', channel=9, note=33, velocity=100, time=0),\n",
      "    Message('note_on', channel=9, note=44, velocity=0, time=30),\n",
      "    Message('note_on', channel=9, note=33, velocity=0, time=30),\n",
      "    Message('note_on', channel=9, note=44, velocity=100, time=0),\n",
      "    Message('note_on', channel=9, note=44, velocity=0, time=30),\n",
      "    Message('note_on', channel=9, note=44, velocity=100, time=0),\n",
      "    Message('note_on', channel=9, note=44, velocity=0, time=30),\n",
      "    Message('note_on', channel=9, note=40, velocity=100, time=0),\n",
      "    Message('note_on', channel=9, note=44, velocity=100, time=0),\n",
      "    Message('note_on', channel=9, note=44, velocity=0, time=30),\n",
      "    Message('note_on', channel=9, note=40, velocity=0, time=30),\n",
      "    Message('note_on', channel=9, note=44, velocity=100, time=0),\n",
      "    Message('note_on', channel=9, note=33, velocity=100, time=0),\n",
      "    Message('note_on', channel=9, note=44, velocity=0, time=30),\n",
      "    Message('note_on', channel=9, note=44, velocity=100, time=0),\n",
      "    Message('note_on', channel=9, note=44, velocity=0, time=30),\n",
      "    Message('note_on', channel=9, note=33, velocity=0, time=0),\n",
      "    Message('note_on', channel=9, note=44, velocity=100, time=0),\n",
      "    Message('note_on', channel=9, note=33, velocity=100, time=0),\n",
      "    Message('note_on', channel=9, note=44, velocity=0, time=30),\n",
      "    Message('note_on', channel=9, note=33, velocity=0, time=30),\n",
      "    Message('note_on', channel=9, note=44, velocity=100, time=0),\n",
      "    Message('note_on', channel=9, note=44, velocity=0, time=30),\n",
      "    Message('note_on', channel=9, note=44, velocity=100, time=0),\n",
      "    Message('note_on', channel=9, note=44, velocity=0, time=30),\n",
      "    Message('note_on', channel=9, note=81, velocity=100, time=0),\n",
      "    Message('note_on', channel=9, note=40, velocity=100, time=0),\n",
      "    Message('note_on', channel=9, note=44, velocity=100, time=0),\n",
      "    Message('note_on', channel=9, note=44, velocity=0, time=30),\n",
      "    Message('note_on', channel=9, note=40, velocity=0, time=0),\n",
      "    Message('note_on', channel=9, note=44, velocity=100, time=30),\n",
      "    Message('note_on', channel=9, note=44, velocity=0, time=30),\n",
      "    Message('note_on', channel=9, note=44, velocity=100, time=0),\n",
      "    Message('note_on', channel=9, note=44, velocity=0, time=30),\n",
      "    Message('note_on', channel=9, note=81, velocity=0, time=0),\n",
      "    Message('note_on', channel=9, note=44, velocity=100, time=0),\n",
      "    Message('note_on', channel=9, note=33, velocity=100, time=0),\n",
      "    Message('note_on', channel=9, note=44, velocity=0, time=30),\n",
      "    Message('note_on', channel=9, note=33, velocity=0, time=30),\n",
      "    Message('note_on', channel=9, note=44, velocity=100, time=0),\n",
      "    Message('note_on', channel=9, note=44, velocity=0, time=30),\n",
      "    Message('note_on', channel=9, note=44, velocity=100, time=0),\n",
      "    Message('note_on', channel=9, note=44, velocity=0, time=30),\n",
      "    Message('note_on', channel=9, note=40, velocity=100, time=0),\n",
      "    Message('note_on', channel=9, note=44, velocity=100, time=0),\n",
      "    Message('note_on', channel=9, note=44, velocity=0, time=30),\n",
      "    Message('note_on', channel=9, note=40, velocity=0, time=30),\n",
      "    Message('note_on', channel=9, note=44, velocity=100, time=0),\n",
      "    Message('note_on', channel=9, note=33, velocity=100, time=0),\n",
      "    Message('note_on', channel=9, note=44, velocity=0, time=30),\n",
      "    Message('note_on', channel=9, note=44, velocity=100, time=0),\n",
      "    Message('note_on', channel=9, note=44, velocity=0, time=30),\n",
      "    Message('note_on', channel=9, note=33, velocity=0, time=0),\n",
      "    Message('note_on', channel=9, note=44, velocity=100, time=0),\n",
      "    Message('note_on', channel=9, note=33, velocity=100, time=0),\n",
      "    Message('note_on', channel=9, note=44, velocity=0, time=30),\n",
      "    Message('note_on', channel=9, note=33, velocity=0, time=30),\n",
      "    Message('note_on', channel=9, note=44, velocity=100, time=0),\n",
      "    Message('note_on', channel=9, note=44, velocity=0, time=30),\n",
      "    Message('note_on', channel=9, note=44, velocity=100, time=0),\n",
      "    Message('note_on', channel=9, note=44, velocity=0, time=30),\n",
      "    Message('note_on', channel=9, note=81, velocity=100, time=0),\n",
      "    Message('note_on', channel=9, note=40, velocity=100, time=0),\n",
      "    Message('note_on', channel=9, note=44, velocity=100, time=0),\n",
      "    Message('note_on', channel=9, note=44, velocity=0, time=30),\n",
      "    Message('note_on', channel=9, note=40, velocity=0, time=0),\n",
      "    Message('note_on', channel=9, note=44, velocity=100, time=30),\n",
      "    Message('note_on', channel=9, note=44, velocity=0, time=30),\n",
      "    Message('note_on', channel=9, note=44, velocity=100, time=0),\n",
      "    Message('note_on', channel=9, note=44, velocity=0, time=30),\n",
      "    Message('note_on', channel=9, note=81, velocity=0, time=0),\n",
      "    Message('note_on', channel=9, note=44, velocity=100, time=0),\n",
      "    Message('note_on', channel=9, note=33, velocity=100, time=0),\n",
      "    Message('note_on', channel=9, note=44, velocity=0, time=30),\n",
      "    Message('note_on', channel=9, note=33, velocity=0, time=30),\n",
      "    Message('note_on', channel=9, note=44, velocity=100, time=0),\n",
      "    Message('note_on', channel=9, note=44, velocity=0, time=30),\n",
      "    Message('note_on', channel=9, note=44, velocity=100, time=0),\n",
      "    Message('note_on', channel=9, note=44, velocity=0, time=30),\n",
      "    Message('note_on', channel=9, note=40, velocity=100, time=0),\n",
      "    Message('note_on', channel=9, note=44, velocity=100, time=0),\n",
      "    Message('note_on', channel=9, note=44, velocity=0, time=30),\n",
      "    Message('note_on', channel=9, note=40, velocity=0, time=30),\n",
      "    Message('note_on', channel=9, note=44, velocity=100, time=0),\n",
      "    Message('note_on', channel=9, note=33, velocity=100, time=0),\n",
      "    Message('note_on', channel=9, note=44, velocity=0, time=30),\n",
      "    Message('note_on', channel=9, note=44, velocity=100, time=0),\n",
      "    Message('note_on', channel=9, note=44, velocity=0, time=30),\n",
      "    Message('note_on', channel=9, note=33, velocity=0, time=0),\n",
      "    Message('note_on', channel=9, note=44, velocity=100, time=0),\n",
      "    Message('note_on', channel=9, note=33, velocity=100, time=0),\n",
      "    Message('note_on', channel=9, note=44, velocity=0, time=30),\n",
      "    Message('note_on', channel=9, note=33, velocity=0, time=30),\n",
      "    Message('note_on', channel=9, note=44, velocity=100, time=0),\n",
      "    Message('note_on', channel=9, note=44, velocity=0, time=30),\n",
      "    Message('note_on', channel=9, note=44, velocity=100, time=0),\n",
      "    Message('note_on', channel=9, note=44, velocity=0, time=30),\n",
      "    Message('note_on', channel=9, note=81, velocity=100, time=0),\n",
      "    Message('note_on', channel=9, note=40, velocity=100, time=0),\n",
      "    Message('note_on', channel=9, note=44, velocity=100, time=0),\n",
      "    Message('note_on', channel=9, note=44, velocity=0, time=30),\n",
      "    Message('note_on', channel=9, note=40, velocity=0, time=0),\n",
      "    Message('note_on', channel=9, note=44, velocity=100, time=30),\n",
      "    Message('note_on', channel=9, note=44, velocity=0, time=30),\n",
      "    Message('note_on', channel=9, note=44, velocity=100, time=0),\n",
      "    Message('note_on', channel=9, note=44, velocity=0, time=30),\n",
      "    Message('note_on', channel=9, note=81, velocity=0, time=0),\n",
      "    Message('note_on', channel=9, note=44, velocity=100, time=0),\n",
      "    Message('note_on', channel=9, note=33, velocity=100, time=0),\n",
      "    Message('note_on', channel=9, note=44, velocity=0, time=30),\n",
      "    Message('note_on', channel=9, note=33, velocity=0, time=30),\n",
      "    Message('note_on', channel=9, note=44, velocity=100, time=0),\n",
      "    Message('note_on', channel=9, note=44, velocity=0, time=30),\n",
      "    Message('note_on', channel=9, note=44, velocity=100, time=0),\n",
      "    Message('note_on', channel=9, note=44, velocity=0, time=30),\n",
      "    Message('note_on', channel=9, note=40, velocity=100, time=0),\n",
      "    Message('note_on', channel=9, note=44, velocity=100, time=0),\n",
      "    Message('note_on', channel=9, note=44, velocity=0, time=30),\n",
      "    Message('note_on', channel=9, note=40, velocity=0, time=30),\n",
      "    Message('note_on', channel=9, note=44, velocity=100, time=0),\n",
      "    Message('note_on', channel=9, note=33, velocity=100, time=0),\n",
      "    Message('note_on', channel=9, note=44, velocity=0, time=30),\n",
      "    Message('note_on', channel=9, note=44, velocity=100, time=0),\n",
      "    Message('note_on', channel=9, note=44, velocity=0, time=30),\n",
      "    Message('note_on', channel=9, note=33, velocity=0, time=0),\n",
      "    Message('note_on', channel=9, note=44, velocity=100, time=0),\n",
      "    Message('note_on', channel=9, note=33, velocity=100, time=0),\n",
      "    Message('note_on', channel=9, note=44, velocity=0, time=30),\n",
      "    Message('note_on', channel=9, note=33, velocity=0, time=30),\n",
      "    Message('note_on', channel=9, note=50, velocity=100, time=0),\n",
      "    Message('note_on', channel=9, note=44, velocity=100, time=0),\n",
      "    Message('note_on', channel=9, note=44, velocity=0, time=30),\n",
      "    Message('note_on', channel=9, note=50, velocity=0, time=0),\n",
      "    Message('note_on', channel=9, note=76, velocity=100, time=0),\n",
      "    Message('note_on', channel=9, note=50, velocity=100, time=0),\n",
      "    Message('note_on', channel=9, note=44, velocity=100, time=0),\n",
      "    Message('note_on', channel=9, note=44, velocity=0, time=30),\n",
      "    Message('note_on', channel=9, note=50, velocity=0, time=0),\n",
      "    Message('note_on', channel=9, note=76, velocity=0, time=0),\n",
      "    Message('note_on', channel=9, note=25, velocity=100, time=0),\n",
      "    Message('note_on', channel=9, note=47, velocity=100, time=0),\n",
      "    Message('note_on', channel=9, note=81, velocity=100, time=0),\n",
      "    Message('note_on', channel=9, note=40, velocity=100, time=0),\n",
      "    Message('note_on', channel=9, note=44, velocity=100, time=0),\n",
      "    Message('note_on', channel=9, note=44, velocity=0, time=30),\n",
      "    Message('note_on', channel=9, note=47, velocity=0, time=0),\n",
      "    Message('note_on', channel=9, note=25, velocity=0, time=0),\n",
      "    Message('note_on', channel=9, note=40, velocity=0, time=0),\n",
      "    Message('note_on', channel=9, note=30, velocity=100, time=0),\n",
      "    Message('note_on', channel=9, note=30, velocity=0, time=30),\n",
      "    Message('note_on', channel=9, note=28, velocity=100, time=0),\n",
      "    Message('note_on', channel=9, note=45, velocity=100, time=0),\n",
      "    Message('note_on', channel=9, note=44, velocity=100, time=0),\n",
      "    Message('note_on', channel=9, note=44, velocity=0, time=30),\n",
      "    Message('note_on', channel=9, note=45, velocity=0, time=0),\n",
      "    Message('note_on', channel=9, note=28, velocity=0, time=0),\n",
      "    Message('note_on', channel=9, note=16, velocity=100, time=0),\n",
      "    Message('note_on', channel=9, note=23, velocity=100, time=0),\n",
      "    Message('note_on', channel=9, note=44, velocity=100, time=0),\n",
      "    Message('note_on', channel=9, note=44, velocity=0, time=30),\n",
      "    Message('note_on', channel=9, note=81, velocity=0, time=0),\n",
      "    Message('note_on', channel=9, note=16, velocity=0, time=0),\n",
      "    Message('note_on', channel=9, note=23, velocity=0, time=0),\n",
      "    Message('note_on', channel=9, note=59, velocity=100, time=0),\n",
      "    Message('note_on', channel=9, note=44, velocity=100, time=0),\n",
      "    Message('note_on', channel=9, note=33, velocity=100, time=0),\n",
      "    Message('note_on', channel=9, note=44, velocity=0, time=30),\n",
      "    Message('note_on', channel=9, note=59, velocity=0, time=0),\n",
      "    Message('note_on', channel=9, note=33, velocity=0, time=30),\n",
      "    Message('note_on', channel=9, note=44, velocity=100, time=0),\n",
      "    Message('note_on', channel=9, note=44, velocity=0, time=30),\n",
      "    Message('note_on', channel=9, note=44, velocity=100, time=0),\n",
      "    Message('note_on', channel=9, note=44, velocity=0, time=30),\n",
      "    Message('note_on', channel=9, note=40, velocity=100, time=0),\n",
      "    Message('note_on', channel=9, note=44, velocity=100, time=0),\n",
      "    Message('note_on', channel=9, note=44, velocity=0, time=30),\n",
      "    Message('note_on', channel=9, note=40, velocity=0, time=30),\n",
      "    Message('note_on', channel=9, note=44, velocity=100, time=0),\n",
      "    Message('note_on', channel=9, note=33, velocity=100, time=0),\n",
      "    Message('note_on', channel=9, note=44, velocity=0, time=30),\n",
      "    Message('note_on', channel=9, note=44, velocity=100, time=0),\n",
      "    Message('note_on', channel=9, note=44, velocity=0, time=30),\n",
      "    Message('note_on', channel=9, note=33, velocity=0, time=0),\n",
      "    Message('note_on', channel=9, note=44, velocity=100, time=0),\n",
      "    Message('note_on', channel=9, note=33, velocity=100, time=0),\n",
      "    Message('note_on', channel=9, note=44, velocity=0, time=30),\n",
      "    Message('note_on', channel=9, note=33, velocity=0, time=30),\n",
      "    Message('note_on', channel=9, note=44, velocity=100, time=0),\n",
      "    Message('note_on', channel=9, note=44, velocity=0, time=30),\n",
      "    Message('note_on', channel=9, note=44, velocity=100, time=0),\n",
      "    Message('note_on', channel=9, note=44, velocity=0, time=30),\n",
      "    Message('note_on', channel=9, note=81, velocity=100, time=0),\n",
      "    Message('note_on', channel=9, note=40, velocity=100, time=0),\n",
      "    Message('note_on', channel=9, note=44, velocity=100, time=0),\n",
      "    Message('note_on', channel=9, note=44, velocity=0, time=30),\n",
      "    Message('note_on', channel=9, note=40, velocity=0, time=0),\n",
      "    Message('note_on', channel=9, note=44, velocity=100, time=30),\n",
      "    Message('note_on', channel=9, note=44, velocity=0, time=30),\n",
      "    Message('note_on', channel=9, note=44, velocity=100, time=0),\n",
      "    Message('note_on', channel=9, note=44, velocity=0, time=30),\n",
      "    Message('note_on', channel=9, note=81, velocity=0, time=0),\n",
      "    Message('note_on', channel=9, note=44, velocity=100, time=0),\n",
      "    Message('note_on', channel=9, note=33, velocity=100, time=0),\n",
      "    Message('note_on', channel=9, note=44, velocity=0, time=30),\n",
      "    Message('note_on', channel=9, note=33, velocity=0, time=30),\n",
      "    Message('note_on', channel=9, note=44, velocity=100, time=0),\n",
      "    Message('note_on', channel=9, note=44, velocity=0, time=30),\n",
      "    Message('note_on', channel=9, note=44, velocity=100, time=0),\n",
      "    Message('note_on', channel=9, note=44, velocity=0, time=30),\n",
      "    Message('note_on', channel=9, note=40, velocity=100, time=0),\n",
      "    Message('note_on', channel=9, note=44, velocity=100, time=0),\n",
      "    Message('note_on', channel=9, note=44, velocity=0, time=30),\n",
      "    Message('note_on', channel=9, note=40, velocity=0, time=30),\n",
      "    Message('note_on', channel=9, note=44, velocity=100, time=0),\n",
      "    Message('note_on', channel=9, note=33, velocity=100, time=0),\n",
      "    Message('note_on', channel=9, note=44, velocity=0, time=30),\n",
      "    Message('note_on', channel=9, note=44, velocity=100, time=0),\n",
      "    Message('note_on', channel=9, note=44, velocity=0, time=30),\n",
      "    Message('note_on', channel=9, note=33, velocity=0, time=0),\n",
      "    Message('note_on', channel=9, note=44, velocity=100, time=0),\n",
      "    Message('note_on', channel=9, note=33, velocity=100, time=0),\n",
      "    Message('note_on', channel=9, note=44, velocity=0, time=30),\n",
      "    Message('note_on', channel=9, note=33, velocity=0, time=30),\n",
      "    Message('note_on', channel=9, note=44, velocity=100, time=0),\n",
      "    Message('note_on', channel=9, note=44, velocity=0, time=30),\n",
      "    Message('note_on', channel=9, note=44, velocity=100, time=0),\n",
      "    Message('note_on', channel=9, note=44, velocity=0, time=30),\n",
      "    Message('note_on', channel=9, note=81, velocity=100, time=0),\n",
      "    Message('note_on', channel=9, note=40, velocity=100, time=0),\n",
      "    Message('note_on', channel=9, note=44, velocity=100, time=0),\n",
      "    Message('note_on', channel=9, note=44, velocity=0, time=30),\n",
      "    Message('note_on', channel=9, note=40, velocity=0, time=0),\n",
      "    Message('note_on', channel=9, note=44, velocity=100, time=30),\n",
      "    Message('note_on', channel=9, note=44, velocity=0, time=30),\n",
      "    Message('note_on', channel=9, note=44, velocity=100, time=0),\n",
      "    Message('note_on', channel=9, note=44, velocity=0, time=30),\n",
      "    Message('note_on', channel=9, note=81, velocity=0, time=0),\n",
      "    Message('note_on', channel=9, note=44, velocity=100, time=0),\n",
      "    Message('note_on', channel=9, note=33, velocity=100, time=0),\n",
      "    Message('note_on', channel=9, note=44, velocity=0, time=30),\n",
      "    Message('note_on', channel=9, note=33, velocity=0, time=30),\n",
      "    Message('note_on', channel=9, note=44, velocity=100, time=0),\n",
      "    Message('note_on', channel=9, note=44, velocity=0, time=30),\n",
      "    Message('note_on', channel=9, note=44, velocity=100, time=0),\n",
      "    Message('note_on', channel=9, note=44, velocity=0, time=30),\n",
      "    Message('note_on', channel=9, note=40, velocity=100, time=0),\n",
      "    Message('note_on', channel=9, note=44, velocity=100, time=0),\n",
      "    Message('note_on', channel=9, note=44, velocity=0, time=30),\n",
      "    Message('note_on', channel=9, note=40, velocity=0, time=30),\n",
      "    Message('note_on', channel=9, note=44, velocity=100, time=0),\n",
      "    Message('note_on', channel=9, note=33, velocity=100, time=0),\n",
      "    Message('note_on', channel=9, note=44, velocity=0, time=30),\n",
      "    Message('note_on', channel=9, note=44, velocity=100, time=0),\n",
      "    Message('note_on', channel=9, note=44, velocity=0, time=30),\n",
      "    Message('note_on', channel=9, note=33, velocity=0, time=0),\n",
      "    Message('note_on', channel=9, note=44, velocity=100, time=0),\n",
      "    Message('note_on', channel=9, note=33, velocity=100, time=0),\n",
      "    Message('note_on', channel=9, note=44, velocity=0, time=30),\n",
      "    Message('note_on', channel=9, note=33, velocity=0, time=30),\n",
      "    Message('note_on', channel=9, note=44, velocity=100, time=0),\n",
      "    Message('note_on', channel=9, note=44, velocity=0, time=30),\n",
      "    Message('note_on', channel=9, note=44, velocity=100, time=0),\n",
      "    Message('note_on', channel=9, note=44, velocity=0, time=30),\n",
      "    Message('note_on', channel=9, note=81, velocity=100, time=0),\n",
      "    Message('note_on', channel=9, note=40, velocity=100, time=0),\n",
      "    Message('note_on', channel=9, note=44, velocity=100, time=0),\n",
      "    Message('note_on', channel=9, note=44, velocity=0, time=30),\n",
      "    Message('note_on', channel=9, note=40, velocity=0, time=0),\n",
      "    Message('note_on', channel=9, note=44, velocity=100, time=30),\n",
      "    Message('note_on', channel=9, note=44, velocity=0, time=30),\n",
      "    Message('note_on', channel=9, note=44, velocity=100, time=0),\n",
      "    Message('note_on', channel=9, note=44, velocity=0, time=30),\n",
      "    Message('note_on', channel=9, note=81, velocity=0, time=0),\n",
      "    Message('note_on', channel=9, note=44, velocity=100, time=0),\n",
      "    Message('note_on', channel=9, note=33, velocity=100, time=0),\n",
      "    Message('note_on', channel=9, note=44, velocity=0, time=30),\n",
      "    Message('note_on', channel=9, note=33, velocity=0, time=30),\n",
      "    Message('note_on', channel=9, note=44, velocity=100, time=0),\n",
      "    Message('note_on', channel=9, note=44, velocity=0, time=30),\n",
      "    Message('note_on', channel=9, note=44, velocity=100, time=0),\n",
      "    Message('note_on', channel=9, note=44, velocity=0, time=30),\n",
      "    Message('note_on', channel=9, note=40, velocity=100, time=0),\n",
      "    Message('note_on', channel=9, note=44, velocity=100, time=0),\n",
      "    Message('note_on', channel=9, note=44, velocity=0, time=30),\n",
      "    Message('note_on', channel=9, note=40, velocity=0, time=30),\n",
      "    Message('note_on', channel=9, note=44, velocity=100, time=0),\n",
      "    Message('note_on', channel=9, note=33, velocity=100, time=0),\n",
      "    Message('note_on', channel=9, note=44, velocity=0, time=30),\n",
      "    Message('note_on', channel=9, note=44, velocity=100, time=0),\n",
      "    Message('note_on', channel=9, note=44, velocity=0, time=30),\n",
      "    Message('note_on', channel=9, note=33, velocity=0, time=0),\n",
      "    Message('note_on', channel=9, note=44, velocity=100, time=0),\n",
      "    Message('note_on', channel=9, note=33, velocity=100, time=0),\n",
      "    Message('note_on', channel=9, note=44, velocity=0, time=30),\n",
      "    Message('note_on', channel=9, note=33, velocity=0, time=30),\n",
      "    Message('note_on', channel=9, note=50, velocity=100, time=0),\n",
      "    Message('note_on', channel=9, note=44, velocity=100, time=0),\n",
      "    Message('note_on', channel=9, note=44, velocity=0, time=30),\n",
      "    Message('note_on', channel=9, note=44, velocity=100, time=0),\n",
      "    Message('note_on', channel=9, note=44, velocity=0, time=30),\n",
      "    Message('note_on', channel=9, note=50, velocity=0, time=0),\n",
      "    Message('note_on', channel=9, note=47, velocity=100, time=0),\n",
      "    Message('note_on', channel=9, note=81, velocity=100, time=0),\n",
      "    Message('note_on', channel=9, note=40, velocity=100, time=0),\n",
      "    Message('note_on', channel=9, note=44, velocity=100, time=0),\n",
      "    Message('note_on', channel=9, note=44, velocity=0, time=30),\n",
      "    Message('note_on', channel=9, note=40, velocity=0, time=0),\n",
      "    Message('note_on', channel=9, note=47, velocity=0, time=30),\n",
      "    Message('note_on', channel=9, note=45, velocity=100, time=0),\n",
      "    Message('note_on', channel=9, note=44, velocity=100, time=0),\n",
      "    Message('note_on', channel=9, note=44, velocity=0, time=30),\n",
      "    Message('note_on', channel=9, note=44, velocity=100, time=0),\n",
      "    Message('note_on', channel=9, note=44, velocity=0, time=30),\n",
      "    Message('note_on', channel=9, note=45, velocity=0, time=0),\n",
      "    Message('note_on', channel=9, note=81, velocity=0, time=0),\n",
      "    Message('note_on', channel=9, note=44, velocity=100, time=0),\n",
      "    Message('note_on', channel=9, note=33, velocity=100, time=0),\n",
      "    Message('note_on', channel=9, note=44, velocity=0, time=30),\n",
      "    Message('note_on', channel=9, note=33, velocity=0, time=30),\n",
      "    Message('note_on', channel=9, note=44, velocity=100, time=0),\n",
      "    Message('note_on', channel=9, note=44, velocity=0, time=30),\n",
      "    Message('note_on', channel=9, note=44, velocity=100, time=0),\n",
      "    Message('note_on', channel=9, note=44, velocity=0, time=30),\n",
      "    Message('note_on', channel=9, note=40, velocity=100, time=0),\n",
      "    Message('note_on', channel=9, note=44, velocity=100, time=0),\n",
      "    Message('note_on', channel=9, note=44, velocity=0, time=30),\n",
      "    Message('note_on', channel=9, note=40, velocity=0, time=30),\n",
      "    Message('note_on', channel=9, note=44, velocity=100, time=0),\n",
      "    Message('note_on', channel=9, note=33, velocity=100, time=0),\n",
      "    Message('note_on', channel=9, note=44, velocity=0, time=30),\n",
      "    Message('note_on', channel=9, note=44, velocity=100, time=0),\n",
      "    Message('note_on', channel=9, note=44, velocity=0, time=30),\n",
      "    Message('note_on', channel=9, note=33, velocity=0, time=0),\n",
      "    Message('note_on', channel=9, note=44, velocity=100, time=0),\n",
      "    Message('note_on', channel=9, note=33, velocity=100, time=0),\n",
      "    Message('note_on', channel=9, note=44, velocity=0, time=30),\n",
      "    Message('note_on', channel=9, note=33, velocity=0, time=30),\n",
      "    Message('note_on', channel=9, note=44, velocity=100, time=0),\n",
      "    Message('note_on', channel=9, note=44, velocity=0, time=30),\n",
      "    Message('note_on', channel=9, note=44, velocity=100, time=0),\n",
      "    Message('note_on', channel=9, note=44, velocity=0, time=30),\n",
      "    Message('note_on', channel=9, note=81, velocity=100, time=0),\n",
      "    Message('note_on', channel=9, note=40, velocity=100, time=0),\n",
      "    Message('note_on', channel=9, note=44, velocity=100, time=0),\n",
      "    Message('note_on', channel=9, note=44, velocity=0, time=30),\n",
      "    Message('note_on', channel=9, note=40, velocity=0, time=0),\n",
      "    Message('note_on', channel=9, note=44, velocity=100, time=30),\n",
      "    Message('note_on', channel=9, note=44, velocity=0, time=30),\n",
      "    Message('note_on', channel=9, note=44, velocity=100, time=0),\n",
      "    Message('note_on', channel=9, note=44, velocity=0, time=30),\n",
      "    Message('note_on', channel=9, note=81, velocity=0, time=0),\n",
      "    Message('note_on', channel=9, note=44, velocity=100, time=0),\n",
      "    Message('note_on', channel=9, note=33, velocity=100, time=0),\n",
      "    Message('note_on', channel=9, note=44, velocity=0, time=30),\n",
      "    Message('note_on', channel=9, note=33, velocity=0, time=30),\n",
      "    Message('note_on', channel=9, note=44, velocity=100, time=0),\n",
      "    Message('note_on', channel=9, note=44, velocity=0, time=30),\n",
      "    Message('note_on', channel=9, note=44, velocity=100, time=0),\n",
      "    Message('note_on', channel=9, note=44, velocity=0, time=30),\n",
      "    Message('note_on', channel=9, note=40, velocity=100, time=0),\n",
      "    Message('note_on', channel=9, note=44, velocity=100, time=0),\n",
      "    Message('note_on', channel=9, note=44, velocity=0, time=30),\n",
      "    Message('note_on', channel=9, note=40, velocity=0, time=30),\n",
      "    Message('note_on', channel=9, note=44, velocity=100, time=0),\n",
      "    Message('note_on', channel=9, note=33, velocity=100, time=0),\n",
      "    Message('note_on', channel=9, note=44, velocity=0, time=30),\n",
      "    Message('note_on', channel=9, note=44, velocity=100, time=0),\n",
      "    Message('note_on', channel=9, note=44, velocity=0, time=30),\n",
      "    Message('note_on', channel=9, note=33, velocity=0, time=0),\n",
      "    Message('note_on', channel=9, note=44, velocity=100, time=0),\n",
      "    Message('note_on', channel=9, note=33, velocity=100, time=0),\n",
      "    Message('note_on', channel=9, note=44, velocity=0, time=30),\n",
      "    Message('note_on', channel=9, note=33, velocity=0, time=30),\n",
      "    Message('note_on', channel=9, note=44, velocity=100, time=0),\n",
      "    Message('note_on', channel=9, note=44, velocity=0, time=30),\n",
      "    Message('note_on', channel=9, note=44, velocity=100, time=0),\n",
      "    Message('note_on', channel=9, note=44, velocity=0, time=30),\n",
      "    Message('note_on', channel=9, note=81, velocity=100, time=0),\n",
      "    Message('note_on', channel=9, note=40, velocity=100, time=0),\n",
      "    Message('note_on', channel=9, note=44, velocity=100, time=0),\n",
      "    Message('note_on', channel=9, note=44, velocity=0, time=30),\n",
      "    Message('note_on', channel=9, note=40, velocity=0, time=0),\n",
      "    Message('note_on', channel=9, note=44, velocity=100, time=30),\n",
      "    Message('note_on', channel=9, note=44, velocity=0, time=30),\n",
      "    Message('note_on', channel=9, note=44, velocity=100, time=0),\n",
      "    Message('note_on', channel=9, note=44, velocity=0, time=30),\n",
      "    Message('note_on', channel=9, note=81, velocity=0, time=0),\n",
      "    Message('note_on', channel=9, note=44, velocity=100, time=0),\n",
      "    Message('note_on', channel=9, note=33, velocity=100, time=0),\n",
      "    Message('note_on', channel=9, note=44, velocity=0, time=30),\n",
      "    Message('note_on', channel=9, note=33, velocity=0, time=30),\n",
      "    Message('note_on', channel=9, note=44, velocity=100, time=0),\n",
      "    Message('note_on', channel=9, note=44, velocity=0, time=30),\n",
      "    Message('note_on', channel=9, note=44, velocity=100, time=0),\n",
      "    Message('note_on', channel=9, note=44, velocity=0, time=30),\n",
      "    Message('note_on', channel=9, note=40, velocity=100, time=0),\n",
      "    Message('note_on', channel=9, note=44, velocity=100, time=0),\n",
      "    Message('note_on', channel=9, note=44, velocity=0, time=30),\n",
      "    Message('note_on', channel=9, note=40, velocity=0, time=30),\n",
      "    Message('note_on', channel=9, note=44, velocity=100, time=0),\n",
      "    Message('note_on', channel=9, note=33, velocity=100, time=0),\n",
      "    Message('note_on', channel=9, note=44, velocity=0, time=30),\n",
      "    Message('note_on', channel=9, note=44, velocity=100, time=0),\n",
      "    Message('note_on', channel=9, note=44, velocity=0, time=30),\n",
      "    Message('note_on', channel=9, note=33, velocity=0, time=0),\n",
      "    Message('note_on', channel=9, note=44, velocity=100, time=0),\n",
      "    Message('note_on', channel=9, note=33, velocity=100, time=0),\n",
      "    Message('note_on', channel=9, note=44, velocity=0, time=30),\n",
      "    Message('note_on', channel=9, note=33, velocity=0, time=30),\n",
      "    Message('note_on', channel=9, note=44, velocity=100, time=0),\n",
      "    Message('note_on', channel=9, note=44, velocity=0, time=30),\n",
      "    Message('note_on', channel=9, note=44, velocity=100, time=0),\n",
      "    Message('note_on', channel=9, note=44, velocity=0, time=30),\n",
      "    Message('note_on', channel=9, note=81, velocity=100, time=0),\n",
      "    Message('note_on', channel=9, note=40, velocity=100, time=0),\n",
      "    Message('note_on', channel=9, note=44, velocity=100, time=0),\n",
      "    Message('note_on', channel=9, note=44, velocity=0, time=30),\n",
      "    Message('note_on', channel=9, note=40, velocity=0, time=0),\n",
      "    Message('note_on', channel=9, note=44, velocity=100, time=30),\n",
      "    Message('note_on', channel=9, note=44, velocity=0, time=30),\n",
      "    Message('note_on', channel=9, note=44, velocity=100, time=0),\n",
      "    Message('note_on', channel=9, note=44, velocity=0, time=30),\n",
      "    Message('note_on', channel=9, note=81, velocity=0, time=0),\n",
      "    Message('note_on', channel=9, note=44, velocity=100, time=0),\n",
      "    Message('note_on', channel=9, note=33, velocity=100, time=0),\n",
      "    Message('note_on', channel=9, note=44, velocity=0, time=30),\n",
      "    Message('note_on', channel=9, note=33, velocity=0, time=30),\n",
      "    Message('note_on', channel=9, note=44, velocity=100, time=0),\n",
      "    Message('note_on', channel=9, note=44, velocity=0, time=30),\n",
      "    Message('note_on', channel=9, note=44, velocity=100, time=0),\n",
      "    Message('note_on', channel=9, note=44, velocity=0, time=30),\n",
      "    Message('note_on', channel=9, note=40, velocity=100, time=0),\n",
      "    Message('note_on', channel=9, note=44, velocity=100, time=0),\n",
      "    Message('note_on', channel=9, note=44, velocity=0, time=30),\n",
      "    Message('note_on', channel=9, note=40, velocity=0, time=30),\n",
      "    Message('note_on', channel=9, note=44, velocity=100, time=0),\n",
      "    Message('note_on', channel=9, note=33, velocity=100, time=0),\n",
      "    Message('note_on', channel=9, note=44, velocity=0, time=30),\n",
      "    Message('note_on', channel=9, note=44, velocity=100, time=0),\n",
      "    Message('note_on', channel=9, note=44, velocity=0, time=30),\n",
      "    Message('note_on', channel=9, note=33, velocity=0, time=0),\n",
      "    Message('note_on', channel=9, note=44, velocity=100, time=0),\n",
      "    Message('note_on', channel=9, note=33, velocity=100, time=0),\n",
      "    Message('note_on', channel=9, note=44, velocity=0, time=30),\n",
      "    Message('note_on', channel=9, note=33, velocity=0, time=30),\n",
      "    Message('note_on', channel=9, note=44, velocity=100, time=0),\n",
      "    Message('note_on', channel=9, note=44, velocity=0, time=30),\n",
      "    Message('note_on', channel=9, note=44, velocity=100, time=0),\n",
      "    Message('note_on', channel=9, note=44, velocity=0, time=30),\n",
      "    Message('note_on', channel=9, note=81, velocity=100, time=0),\n",
      "    Message('note_on', channel=9, note=40, velocity=100, time=0),\n",
      "    Message('note_on', channel=9, note=44, velocity=100, time=0),\n",
      "    Message('note_on', channel=9, note=44, velocity=0, time=30),\n",
      "    Message('note_on', channel=9, note=40, velocity=0, time=0),\n",
      "    Message('note_on', channel=9, note=44, velocity=100, time=30),\n",
      "    Message('note_on', channel=9, note=44, velocity=0, time=30),\n",
      "    Message('note_on', channel=9, note=44, velocity=100, time=0),\n",
      "    Message('note_on', channel=9, note=44, velocity=0, time=30),\n",
      "    Message('note_on', channel=9, note=81, velocity=0, time=0),\n",
      "    Message('note_on', channel=9, note=44, velocity=100, time=0),\n",
      "    Message('note_on', channel=9, note=33, velocity=100, time=0),\n",
      "    Message('note_on', channel=9, note=44, velocity=0, time=30),\n",
      "    Message('note_on', channel=9, note=33, velocity=0, time=30),\n",
      "    Message('note_on', channel=9, note=44, velocity=100, time=0),\n",
      "    Message('note_on', channel=9, note=44, velocity=0, time=30),\n",
      "    Message('note_on', channel=9, note=44, velocity=100, time=0),\n",
      "    Message('note_on', channel=9, note=44, velocity=0, time=30),\n",
      "    Message('note_on', channel=9, note=40, velocity=100, time=0),\n",
      "    Message('note_on', channel=9, note=44, velocity=100, time=0),\n",
      "    Message('note_on', channel=9, note=44, velocity=0, time=30),\n",
      "    Message('note_on', channel=9, note=40, velocity=0, time=30),\n",
      "    Message('note_on', channel=9, note=44, velocity=100, time=0),\n",
      "    Message('note_on', channel=9, note=33, velocity=100, time=0),\n",
      "    Message('note_on', channel=9, note=44, velocity=0, time=30),\n",
      "    Message('note_on', channel=9, note=44, velocity=100, time=0),\n",
      "    Message('note_on', channel=9, note=44, velocity=0, time=30),\n",
      "    Message('note_on', channel=9, note=33, velocity=0, time=0),\n",
      "    Message('note_on', channel=9, note=44, velocity=100, time=0),\n",
      "    Message('note_on', channel=9, note=33, velocity=100, time=0),\n",
      "    Message('note_on', channel=9, note=44, velocity=0, time=30),\n",
      "    Message('note_on', channel=9, note=33, velocity=0, time=30),\n",
      "    Message('note_on', channel=9, note=44, velocity=100, time=0),\n",
      "    Message('note_on', channel=9, note=44, velocity=0, time=30),\n",
      "    Message('note_on', channel=9, note=44, velocity=100, time=0),\n",
      "    Message('note_on', channel=9, note=44, velocity=0, time=30),\n",
      "    Message('note_on', channel=9, note=81, velocity=100, time=0),\n",
      "    Message('note_on', channel=9, note=40, velocity=100, time=0),\n",
      "    Message('note_on', channel=9, note=44, velocity=100, time=0),\n",
      "    Message('note_on', channel=9, note=44, velocity=0, time=30),\n",
      "    Message('note_on', channel=9, note=40, velocity=0, time=0),\n",
      "    Message('note_on', channel=9, note=44, velocity=100, time=30),\n",
      "    Message('note_on', channel=9, note=44, velocity=0, time=30),\n",
      "    Message('note_on', channel=9, note=44, velocity=100, time=0),\n",
      "    Message('note_on', channel=9, note=44, velocity=0, time=30),\n",
      "    Message('note_on', channel=9, note=81, velocity=0, time=0),\n",
      "    Message('note_on', channel=9, note=44, velocity=100, time=0),\n",
      "    Message('note_on', channel=9, note=33, velocity=100, time=0),\n",
      "    Message('note_on', channel=9, note=44, velocity=0, time=30),\n",
      "    Message('note_on', channel=9, note=33, velocity=0, time=30),\n",
      "    Message('note_on', channel=9, note=44, velocity=100, time=0),\n",
      "    Message('note_on', channel=9, note=44, velocity=0, time=30),\n",
      "    Message('note_on', channel=9, note=44, velocity=100, time=0),\n",
      "    Message('note_on', channel=9, note=44, velocity=0, time=30),\n",
      "    Message('note_on', channel=9, note=40, velocity=100, time=0),\n",
      "    Message('note_on', channel=9, note=44, velocity=100, time=0),\n",
      "    Message('note_on', channel=9, note=44, velocity=0, time=30),\n",
      "    Message('note_on', channel=9, note=40, velocity=0, time=30),\n",
      "    Message('note_on', channel=9, note=44, velocity=100, time=0),\n",
      "    Message('note_on', channel=9, note=33, velocity=100, time=0),\n",
      "    Message('note_on', channel=9, note=44, velocity=0, time=30),\n",
      "    Message('note_on', channel=9, note=44, velocity=100, time=0),\n",
      "    Message('note_on', channel=9, note=44, velocity=0, time=30),\n",
      "    Message('note_on', channel=9, note=33, velocity=0, time=0),\n",
      "    Message('note_on', channel=9, note=44, velocity=100, time=0),\n",
      "    Message('note_on', channel=9, note=33, velocity=100, time=0),\n",
      "    Message('note_on', channel=9, note=44, velocity=0, time=30),\n",
      "    Message('note_on', channel=9, note=33, velocity=0, time=30),\n",
      "    Message('note_on', channel=9, note=44, velocity=100, time=0),\n",
      "    Message('note_on', channel=9, note=44, velocity=0, time=30),\n",
      "    Message('note_on', channel=9, note=44, velocity=100, time=0),\n",
      "    Message('note_on', channel=9, note=44, velocity=0, time=30),\n",
      "    Message('note_on', channel=9, note=81, velocity=100, time=0),\n",
      "    Message('note_on', channel=9, note=40, velocity=100, time=0),\n",
      "    Message('note_on', channel=9, note=44, velocity=100, time=0),\n",
      "    Message('note_on', channel=9, note=44, velocity=0, time=30),\n",
      "    Message('note_on', channel=9, note=40, velocity=0, time=0),\n",
      "    Message('note_on', channel=9, note=44, velocity=100, time=30),\n",
      "    Message('note_on', channel=9, note=44, velocity=0, time=30),\n",
      "    Message('note_on', channel=9, note=44, velocity=100, time=0),\n",
      "    Message('note_on', channel=9, note=44, velocity=0, time=30),\n",
      "    Message('note_on', channel=9, note=81, velocity=0, time=0),\n",
      "    Message('note_on', channel=9, note=44, velocity=100, time=0),\n",
      "    Message('note_on', channel=9, note=33, velocity=100, time=0),\n",
      "    Message('note_on', channel=9, note=44, velocity=0, time=30),\n",
      "    Message('note_on', channel=9, note=33, velocity=0, time=30),\n",
      "    Message('note_on', channel=9, note=44, velocity=100, time=0),\n",
      "    Message('note_on', channel=9, note=44, velocity=0, time=30),\n",
      "    Message('note_on', channel=9, note=44, velocity=100, time=0),\n",
      "    Message('note_on', channel=9, note=44, velocity=0, time=30),\n",
      "    Message('note_on', channel=9, note=40, velocity=100, time=0),\n",
      "    Message('note_on', channel=9, note=44, velocity=100, time=0),\n",
      "    Message('note_on', channel=9, note=44, velocity=0, time=30),\n",
      "    Message('note_on', channel=9, note=40, velocity=0, time=30),\n",
      "    Message('note_on', channel=9, note=44, velocity=100, time=0),\n",
      "    Message('note_on', channel=9, note=33, velocity=100, time=0),\n",
      "    Message('note_on', channel=9, note=44, velocity=0, time=30),\n",
      "    Message('note_on', channel=9, note=44, velocity=100, time=0),\n",
      "    Message('note_on', channel=9, note=44, velocity=0, time=30),\n",
      "    Message('note_on', channel=9, note=33, velocity=0, time=0),\n",
      "    Message('note_on', channel=9, note=44, velocity=100, time=0),\n",
      "    Message('note_on', channel=9, note=33, velocity=100, time=0),\n",
      "    Message('note_on', channel=9, note=44, velocity=0, time=30),\n",
      "    Message('note_on', channel=9, note=33, velocity=0, time=30),\n",
      "    Message('note_on', channel=9, note=44, velocity=100, time=0),\n",
      "    Message('note_on', channel=9, note=44, velocity=0, time=30),\n",
      "    Message('note_on', channel=9, note=44, velocity=100, time=0),\n",
      "    Message('note_on', channel=9, note=44, velocity=0, time=30),\n",
      "    Message('note_on', channel=9, note=81, velocity=100, time=0),\n",
      "    Message('note_on', channel=9, note=40, velocity=100, time=0),\n",
      "    Message('note_on', channel=9, note=44, velocity=100, time=0),\n",
      "    Message('note_on', channel=9, note=44, velocity=0, time=30),\n",
      "    Message('note_on', channel=9, note=40, velocity=0, time=0),\n",
      "    Message('note_on', channel=9, note=44, velocity=100, time=30),\n",
      "    Message('note_on', channel=9, note=44, velocity=0, time=30),\n",
      "    Message('note_on', channel=9, note=44, velocity=100, time=0),\n",
      "    Message('note_on', channel=9, note=44, velocity=0, time=30),\n",
      "    Message('note_on', channel=9, note=81, velocity=0, time=0),\n",
      "    Message('note_on', channel=9, note=44, velocity=100, time=0),\n",
      "    Message('note_on', channel=9, note=33, velocity=100, time=0),\n",
      "    Message('note_on', channel=9, note=44, velocity=0, time=30),\n",
      "    Message('note_on', channel=9, note=33, velocity=0, time=30),\n",
      "    Message('note_on', channel=9, note=44, velocity=100, time=0),\n",
      "    Message('note_on', channel=9, note=44, velocity=0, time=30),\n",
      "    Message('note_on', channel=9, note=44, velocity=100, time=0),\n",
      "    Message('note_on', channel=9, note=44, velocity=0, time=30),\n",
      "    Message('note_on', channel=9, note=40, velocity=100, time=0),\n",
      "    Message('note_on', channel=9, note=44, velocity=100, time=0),\n",
      "    Message('note_on', channel=9, note=44, velocity=0, time=30),\n",
      "    Message('note_on', channel=9, note=40, velocity=0, time=30),\n",
      "    Message('note_on', channel=9, note=44, velocity=100, time=0),\n",
      "    Message('note_on', channel=9, note=33, velocity=100, time=0),\n",
      "    Message('note_on', channel=9, note=44, velocity=0, time=30),\n",
      "    Message('note_on', channel=9, note=44, velocity=100, time=0),\n",
      "    Message('note_on', channel=9, note=44, velocity=0, time=30),\n",
      "    Message('note_on', channel=9, note=33, velocity=0, time=0),\n",
      "    Message('note_on', channel=9, note=44, velocity=100, time=0),\n",
      "    Message('note_on', channel=9, note=33, velocity=100, time=0),\n",
      "    Message('note_on', channel=9, note=44, velocity=0, time=30),\n",
      "    Message('note_on', channel=9, note=33, velocity=0, time=30),\n",
      "    Message('note_on', channel=9, note=44, velocity=100, time=0),\n",
      "    Message('note_on', channel=9, note=44, velocity=0, time=30),\n",
      "    Message('note_on', channel=9, note=44, velocity=100, time=0),\n",
      "    Message('note_on', channel=9, note=44, velocity=0, time=30),\n",
      "    Message('note_on', channel=9, note=81, velocity=100, time=0),\n",
      "    Message('note_on', channel=9, note=40, velocity=100, time=0),\n",
      "    Message('note_on', channel=9, note=44, velocity=100, time=0),\n",
      "    Message('note_on', channel=9, note=44, velocity=0, time=30),\n",
      "    Message('note_on', channel=9, note=40, velocity=0, time=0),\n",
      "    Message('note_on', channel=9, note=44, velocity=100, time=30),\n",
      "    Message('note_on', channel=9, note=44, velocity=0, time=30),\n",
      "    Message('note_on', channel=9, note=44, velocity=100, time=0),\n",
      "    Message('note_on', channel=9, note=44, velocity=0, time=30),\n",
      "    Message('note_on', channel=9, note=81, velocity=0, time=0),\n",
      "    Message('note_on', channel=9, note=44, velocity=100, time=0),\n",
      "    Message('note_on', channel=9, note=33, velocity=100, time=0),\n",
      "    Message('note_on', channel=9, note=44, velocity=0, time=30),\n",
      "    Message('note_on', channel=9, note=33, velocity=0, time=30),\n",
      "    Message('note_on', channel=9, note=44, velocity=100, time=0),\n",
      "    Message('note_on', channel=9, note=44, velocity=0, time=30),\n",
      "    Message('note_on', channel=9, note=44, velocity=100, time=0),\n",
      "    Message('note_on', channel=9, note=44, velocity=0, time=30),\n",
      "    Message('note_on', channel=9, note=40, velocity=100, time=0),\n",
      "    Message('note_on', channel=9, note=44, velocity=100, time=0),\n",
      "    Message('note_on', channel=9, note=44, velocity=0, time=30),\n",
      "    Message('note_on', channel=9, note=40, velocity=0, time=30),\n",
      "    Message('note_on', channel=9, note=44, velocity=100, time=0),\n",
      "    Message('note_on', channel=9, note=33, velocity=100, time=0),\n",
      "    Message('note_on', channel=9, note=44, velocity=0, time=30),\n",
      "    Message('note_on', channel=9, note=44, velocity=100, time=0),\n",
      "    Message('note_on', channel=9, note=44, velocity=0, time=30),\n",
      "    Message('note_on', channel=9, note=33, velocity=0, time=0),\n",
      "    Message('note_on', channel=9, note=44, velocity=100, time=0),\n",
      "    Message('note_on', channel=9, note=33, velocity=100, time=0),\n",
      "    Message('note_on', channel=9, note=44, velocity=0, time=30),\n",
      "    Message('note_on', channel=9, note=33, velocity=0, time=30),\n",
      "    Message('note_on', channel=9, note=50, velocity=100, time=0),\n",
      "    Message('note_on', channel=9, note=44, velocity=100, time=0),\n",
      "    Message('note_on', channel=9, note=44, velocity=0, time=30),\n",
      "    Message('note_on', channel=9, note=44, velocity=100, time=0),\n",
      "    Message('note_on', channel=9, note=44, velocity=0, time=30),\n",
      "    Message('note_on', channel=9, note=50, velocity=0, time=0),\n",
      "    Message('note_on', channel=9, note=47, velocity=100, time=0),\n",
      "    Message('note_on', channel=9, note=81, velocity=100, time=0),\n",
      "    Message('note_on', channel=9, note=40, velocity=100, time=0),\n",
      "    Message('note_on', channel=9, note=44, velocity=100, time=0),\n",
      "    Message('note_on', channel=9, note=44, velocity=0, time=30),\n",
      "    Message('note_on', channel=9, note=40, velocity=0, time=0),\n",
      "    Message('note_on', channel=9, note=47, velocity=0, time=30),\n",
      "    Message('note_on', channel=9, note=45, velocity=100, time=0),\n",
      "    Message('note_on', channel=9, note=44, velocity=100, time=0),\n",
      "    Message('note_on', channel=9, note=44, velocity=0, time=30),\n",
      "    Message('note_on', channel=9, note=45, velocity=0, time=0),\n",
      "    Message('note_on', channel=9, note=44, velocity=100, time=0),\n",
      "    Message('note_on', channel=9, note=44, velocity=0, time=30),\n",
      "    Message('note_on', channel=9, note=81, velocity=0, time=0),\n",
      "    Message('note_on', channel=9, note=44, velocity=100, time=0),\n",
      "    Message('note_on', channel=9, note=33, velocity=100, time=0),\n",
      "    Message('note_on', channel=9, note=44, velocity=0, time=30),\n",
      "    Message('note_on', channel=9, note=33, velocity=0, time=30),\n",
      "    Message('note_on', channel=9, note=44, velocity=100, time=0),\n",
      "    Message('note_on', channel=9, note=44, velocity=0, time=30),\n",
      "    Message('note_on', channel=9, note=44, velocity=100, time=0),\n",
      "    Message('note_on', channel=9, note=44, velocity=0, time=30),\n",
      "    Message('note_on', channel=9, note=40, velocity=100, time=0),\n",
      "    Message('note_on', channel=9, note=44, velocity=100, time=0),\n",
      "    Message('note_on', channel=9, note=44, velocity=0, time=30),\n",
      "    Message('note_on', channel=9, note=40, velocity=0, time=30),\n",
      "    Message('note_on', channel=9, note=44, velocity=100, time=0),\n",
      "    Message('note_on', channel=9, note=33, velocity=100, time=0),\n",
      "    Message('note_on', channel=9, note=44, velocity=0, time=30),\n",
      "    Message('note_on', channel=9, note=44, velocity=100, time=0),\n",
      "    Message('note_on', channel=9, note=44, velocity=0, time=30),\n",
      "    Message('note_on', channel=9, note=33, velocity=0, time=0),\n",
      "    Message('note_on', channel=9, note=44, velocity=100, time=0),\n",
      "    Message('note_on', channel=9, note=33, velocity=100, time=0),\n",
      "    Message('note_on', channel=9, note=44, velocity=0, time=30),\n",
      "    Message('note_on', channel=9, note=33, velocity=0, time=30),\n",
      "    Message('note_on', channel=9, note=44, velocity=100, time=0),\n",
      "    Message('note_on', channel=9, note=44, velocity=0, time=30),\n",
      "    Message('note_on', channel=9, note=44, velocity=100, time=0),\n",
      "    Message('note_on', channel=9, note=44, velocity=0, time=30),\n",
      "    Message('note_on', channel=9, note=81, velocity=100, time=0),\n",
      "    Message('note_on', channel=9, note=40, velocity=100, time=0),\n",
      "    Message('note_on', channel=9, note=44, velocity=100, time=0),\n",
      "    Message('note_on', channel=9, note=44, velocity=0, time=30),\n",
      "    Message('note_on', channel=9, note=40, velocity=0, time=0),\n",
      "    Message('note_on', channel=9, note=44, velocity=100, time=30),\n",
      "    Message('note_on', channel=9, note=44, velocity=0, time=30),\n",
      "    Message('note_on', channel=9, note=44, velocity=100, time=0),\n",
      "    Message('note_on', channel=9, note=44, velocity=0, time=30),\n",
      "    Message('note_on', channel=9, note=81, velocity=0, time=0),\n",
      "    Message('note_on', channel=9, note=44, velocity=100, time=0),\n",
      "    Message('note_on', channel=9, note=33, velocity=100, time=0),\n",
      "    Message('note_on', channel=9, note=44, velocity=0, time=30),\n",
      "    Message('note_on', channel=9, note=33, velocity=0, time=30),\n",
      "    Message('note_on', channel=9, note=44, velocity=100, time=0),\n",
      "    Message('note_on', channel=9, note=44, velocity=0, time=30),\n",
      "    Message('note_on', channel=9, note=44, velocity=100, time=0),\n",
      "    Message('note_on', channel=9, note=44, velocity=0, time=30),\n",
      "    Message('note_on', channel=9, note=40, velocity=100, time=0),\n",
      "    Message('note_on', channel=9, note=44, velocity=100, time=0),\n",
      "    Message('note_on', channel=9, note=44, velocity=0, time=30),\n",
      "    Message('note_on', channel=9, note=40, velocity=0, time=30),\n",
      "    Message('note_on', channel=9, note=44, velocity=100, time=0),\n",
      "    Message('note_on', channel=9, note=33, velocity=100, time=0),\n",
      "    Message('note_on', channel=9, note=44, velocity=0, time=30),\n",
      "    Message('note_on', channel=9, note=44, velocity=100, time=0),\n",
      "    Message('note_on', channel=9, note=44, velocity=0, time=30),\n",
      "    Message('note_on', channel=9, note=33, velocity=0, time=0),\n",
      "    Message('note_on', channel=9, note=44, velocity=100, time=0),\n",
      "    Message('note_on', channel=9, note=33, velocity=100, time=0),\n",
      "    Message('note_on', channel=9, note=44, velocity=0, time=30),\n",
      "    Message('note_on', channel=9, note=33, velocity=0, time=30),\n",
      "    Message('note_on', channel=9, note=44, velocity=100, time=0),\n",
      "    Message('note_on', channel=9, note=44, velocity=0, time=30),\n",
      "    Message('note_on', channel=9, note=44, velocity=100, time=0),\n",
      "    Message('note_on', channel=9, note=44, velocity=0, time=30),\n",
      "    Message('note_on', channel=9, note=81, velocity=100, time=0),\n",
      "    Message('note_on', channel=9, note=40, velocity=100, time=0),\n",
      "    Message('note_on', channel=9, note=44, velocity=100, time=0),\n",
      "    Message('note_on', channel=9, note=44, velocity=0, time=30),\n",
      "    Message('note_on', channel=9, note=40, velocity=0, time=0),\n",
      "    Message('note_on', channel=9, note=44, velocity=100, time=30),\n",
      "    Message('note_on', channel=9, note=44, velocity=0, time=30),\n",
      "    Message('note_on', channel=9, note=44, velocity=100, time=0),\n",
      "    Message('note_on', channel=9, note=44, velocity=0, time=30),\n",
      "    Message('note_on', channel=9, note=81, velocity=0, time=0),\n",
      "    Message('note_on', channel=9, note=44, velocity=100, time=0),\n",
      "    Message('note_on', channel=9, note=33, velocity=100, time=0),\n",
      "    Message('note_on', channel=9, note=44, velocity=0, time=30),\n",
      "    Message('note_on', channel=9, note=33, velocity=0, time=30),\n",
      "    Message('note_on', channel=9, note=44, velocity=100, time=0),\n",
      "    Message('note_on', channel=9, note=44, velocity=0, time=30),\n",
      "    Message('note_on', channel=9, note=44, velocity=100, time=0),\n",
      "    Message('note_on', channel=9, note=44, velocity=0, time=30),\n",
      "    Message('note_on', channel=9, note=40, velocity=100, time=0),\n",
      "    Message('note_on', channel=9, note=44, velocity=100, time=0),\n",
      "    Message('note_on', channel=9, note=44, velocity=0, time=30),\n",
      "    Message('note_on', channel=9, note=40, velocity=0, time=30),\n",
      "    Message('note_on', channel=9, note=44, velocity=100, time=0),\n",
      "    Message('note_on', channel=9, note=33, velocity=100, time=0),\n",
      "    Message('note_on', channel=9, note=44, velocity=0, time=30),\n",
      "    Message('note_on', channel=9, note=44, velocity=100, time=0),\n",
      "    Message('note_on', channel=9, note=44, velocity=0, time=30),\n",
      "    Message('note_on', channel=9, note=33, velocity=0, time=0),\n",
      "    Message('note_on', channel=9, note=44, velocity=100, time=0),\n",
      "    Message('note_on', channel=9, note=33, velocity=100, time=0),\n",
      "    Message('note_on', channel=9, note=44, velocity=0, time=30),\n",
      "    Message('note_on', channel=9, note=33, velocity=0, time=30),\n",
      "    Message('note_on', channel=9, note=44, velocity=100, time=0),\n",
      "    Message('note_on', channel=9, note=44, velocity=0, time=30),\n",
      "    Message('note_on', channel=9, note=44, velocity=100, time=0),\n",
      "    Message('note_on', channel=9, note=44, velocity=0, time=30),\n",
      "    Message('note_on', channel=9, note=81, velocity=100, time=0),\n",
      "    Message('note_on', channel=9, note=40, velocity=100, time=0),\n",
      "    Message('note_on', channel=9, note=44, velocity=100, time=0),\n",
      "    Message('note_on', channel=9, note=44, velocity=0, time=30),\n",
      "    Message('note_on', channel=9, note=40, velocity=0, time=0),\n",
      "    Message('note_on', channel=9, note=44, velocity=100, time=30),\n",
      "    Message('note_on', channel=9, note=44, velocity=0, time=30),\n",
      "    Message('note_on', channel=9, note=44, velocity=100, time=0),\n",
      "    Message('note_on', channel=9, note=44, velocity=0, time=30),\n",
      "    Message('note_on', channel=9, note=81, velocity=0, time=0),\n",
      "    Message('note_on', channel=9, note=44, velocity=100, time=0),\n",
      "    Message('note_on', channel=9, note=33, velocity=100, time=0),\n",
      "    Message('note_on', channel=9, note=44, velocity=0, time=30),\n",
      "    Message('note_on', channel=9, note=33, velocity=0, time=30),\n",
      "    Message('note_on', channel=9, note=44, velocity=100, time=0),\n",
      "    Message('note_on', channel=9, note=44, velocity=0, time=30),\n",
      "    Message('note_on', channel=9, note=44, velocity=100, time=0),\n",
      "    Message('note_on', channel=9, note=44, velocity=0, time=30),\n",
      "    Message('note_on', channel=9, note=40, velocity=100, time=0),\n",
      "    Message('note_on', channel=9, note=44, velocity=100, time=0),\n",
      "    Message('note_on', channel=9, note=44, velocity=0, time=30),\n",
      "    Message('note_on', channel=9, note=40, velocity=0, time=30),\n",
      "    Message('note_on', channel=9, note=44, velocity=100, time=0),\n",
      "    Message('note_on', channel=9, note=33, velocity=100, time=0),\n",
      "    Message('note_on', channel=9, note=44, velocity=0, time=30),\n",
      "    Message('note_on', channel=9, note=44, velocity=100, time=0),\n",
      "    Message('note_on', channel=9, note=44, velocity=0, time=30),\n",
      "    Message('note_on', channel=9, note=33, velocity=0, time=0),\n",
      "    Message('note_on', channel=9, note=44, velocity=100, time=0),\n",
      "    Message('note_on', channel=9, note=33, velocity=100, time=0),\n",
      "    Message('note_on', channel=9, note=44, velocity=0, time=30),\n",
      "    Message('note_on', channel=9, note=33, velocity=0, time=30),\n",
      "    Message('note_on', channel=9, note=50, velocity=100, time=0),\n",
      "    Message('note_on', channel=9, note=44, velocity=100, time=0),\n",
      "    Message('note_on', channel=9, note=44, velocity=0, time=30),\n",
      "    Message('note_on', channel=9, note=44, velocity=100, time=0),\n",
      "    Message('note_on', channel=9, note=44, velocity=0, time=30),\n",
      "    Message('note_on', channel=9, note=50, velocity=0, time=0),\n",
      "    Message('note_on', channel=9, note=45, velocity=100, time=0),\n",
      "    Message('note_on', channel=9, note=81, velocity=100, time=0),\n",
      "    Message('note_on', channel=9, note=40, velocity=100, time=0),\n",
      "    Message('note_on', channel=9, note=44, velocity=100, time=0),\n",
      "    Message('note_on', channel=9, note=44, velocity=0, time=30),\n",
      "    Message('note_on', channel=9, note=40, velocity=0, time=0),\n",
      "    Message('note_on', channel=9, note=45, velocity=0, time=30),\n",
      "    Message('note_on', channel=9, note=43, velocity=100, time=0),\n",
      "    Message('note_on', channel=9, note=44, velocity=100, time=0),\n",
      "    Message('note_on', channel=9, note=44, velocity=0, time=30),\n",
      "    Message('note_on', channel=9, note=43, velocity=0, time=0),\n",
      "    Message('note_on', channel=9, note=44, velocity=100, time=0),\n",
      "    Message('note_on', channel=9, note=44, velocity=0, time=30),\n",
      "    Message('note_on', channel=9, note=81, velocity=0, time=0),\n",
      "    Message('note_on', channel=9, note=44, velocity=100, time=0),\n",
      "    Message('note_on', channel=9, note=33, velocity=100, time=0),\n",
      "    Message('note_on', channel=9, note=44, velocity=0, time=30),\n",
      "    Message('note_on', channel=9, note=33, velocity=0, time=30),\n",
      "    Message('note_on', channel=9, note=44, velocity=100, time=0),\n",
      "    Message('note_on', channel=9, note=44, velocity=0, time=30),\n",
      "    Message('note_on', channel=9, note=44, velocity=100, time=0),\n",
      "    Message('note_on', channel=9, note=44, velocity=0, time=30),\n",
      "    Message('note_on', channel=9, note=40, velocity=100, time=0),\n",
      "    Message('note_on', channel=9, note=44, velocity=100, time=0),\n",
      "    Message('note_on', channel=9, note=44, velocity=0, time=30),\n",
      "    Message('note_on', channel=9, note=40, velocity=0, time=30),\n",
      "    Message('note_on', channel=9, note=44, velocity=100, time=0),\n",
      "    Message('note_on', channel=9, note=33, velocity=100, time=0),\n",
      "    Message('note_on', channel=9, note=44, velocity=0, time=30),\n",
      "    Message('note_on', channel=9, note=44, velocity=100, time=0),\n",
      "    Message('note_on', channel=9, note=44, velocity=0, time=30),\n",
      "    Message('note_on', channel=9, note=33, velocity=0, time=0),\n",
      "    Message('note_on', channel=9, note=44, velocity=100, time=0),\n",
      "    Message('note_on', channel=9, note=33, velocity=100, time=0),\n",
      "    Message('note_on', channel=9, note=44, velocity=0, time=30),\n",
      "    Message('note_on', channel=9, note=33, velocity=0, time=30),\n",
      "    Message('note_on', channel=9, note=44, velocity=100, time=0),\n",
      "    Message('note_on', channel=9, note=44, velocity=0, time=30),\n",
      "    Message('note_on', channel=9, note=44, velocity=100, time=0),\n",
      "    Message('note_on', channel=9, note=44, velocity=0, time=30),\n",
      "    Message('note_on', channel=9, note=81, velocity=100, time=0),\n",
      "    Message('note_on', channel=9, note=40, velocity=100, time=0),\n",
      "    Message('note_on', channel=9, note=44, velocity=100, time=0),\n",
      "    Message('note_on', channel=9, note=44, velocity=0, time=30),\n",
      "    Message('note_on', channel=9, note=40, velocity=0, time=0),\n",
      "    Message('note_on', channel=9, note=44, velocity=100, time=30),\n",
      "    Message('note_on', channel=9, note=44, velocity=0, time=30),\n",
      "    Message('note_on', channel=9, note=44, velocity=100, time=0),\n",
      "    Message('note_on', channel=9, note=44, velocity=0, time=30),\n",
      "    Message('note_on', channel=9, note=81, velocity=0, time=0),\n",
      "    Message('note_on', channel=9, note=44, velocity=100, time=0),\n",
      "    Message('note_on', channel=9, note=33, velocity=100, time=0),\n",
      "    Message('note_on', channel=9, note=44, velocity=0, time=30),\n",
      "    Message('note_on', channel=9, note=33, velocity=0, time=30),\n",
      "    Message('note_on', channel=9, note=44, velocity=100, time=0),\n",
      "    Message('note_on', channel=9, note=44, velocity=0, time=30),\n",
      "    Message('note_on', channel=9, note=44, velocity=100, time=0),\n",
      "    Message('note_on', channel=9, note=44, velocity=0, time=30),\n",
      "    Message('note_on', channel=9, note=40, velocity=100, time=0),\n",
      "    Message('note_on', channel=9, note=44, velocity=100, time=0),\n",
      "    Message('note_on', channel=9, note=44, velocity=0, time=30),\n",
      "    Message('note_on', channel=9, note=40, velocity=0, time=30),\n",
      "    Message('note_on', channel=9, note=44, velocity=100, time=0),\n",
      "    Message('note_on', channel=9, note=33, velocity=100, time=0),\n",
      "    Message('note_on', channel=9, note=44, velocity=0, time=30),\n",
      "    Message('note_on', channel=9, note=44, velocity=100, time=0),\n",
      "    Message('note_on', channel=9, note=44, velocity=0, time=30),\n",
      "    Message('note_on', channel=9, note=33, velocity=0, time=0),\n",
      "    Message('note_on', channel=9, note=44, velocity=100, time=0),\n",
      "    Message('note_on', channel=9, note=33, velocity=100, time=0),\n",
      "    Message('note_on', channel=9, note=44, velocity=0, time=30),\n",
      "    Message('note_on', channel=9, note=33, velocity=0, time=30),\n",
      "    Message('note_on', channel=9, note=44, velocity=100, time=0),\n",
      "    Message('note_on', channel=9, note=44, velocity=0, time=30),\n",
      "    Message('note_on', channel=9, note=44, velocity=100, time=0),\n",
      "    Message('note_on', channel=9, note=44, velocity=0, time=30),\n",
      "    Message('note_on', channel=9, note=81, velocity=100, time=0),\n",
      "    Message('note_on', channel=9, note=40, velocity=100, time=0),\n",
      "    Message('note_on', channel=9, note=44, velocity=100, time=0),\n",
      "    Message('note_on', channel=9, note=44, velocity=0, time=30),\n",
      "    Message('note_on', channel=9, note=40, velocity=0, time=0),\n",
      "    Message('note_on', channel=9, note=44, velocity=100, time=30),\n",
      "    Message('note_on', channel=9, note=44, velocity=0, time=30),\n",
      "    Message('note_on', channel=9, note=44, velocity=100, time=0),\n",
      "    Message('note_on', channel=9, note=44, velocity=0, time=30),\n",
      "    Message('note_on', channel=9, note=81, velocity=0, time=0),\n",
      "    Message('note_on', channel=9, note=44, velocity=100, time=5),\n",
      "    Message('note_on', channel=9, note=33, velocity=100, time=0),\n",
      "    Message('note_on', channel=9, note=44, velocity=0, time=30),\n",
      "    Message('note_on', channel=9, note=33, velocity=0, time=30),\n",
      "    Message('note_on', channel=9, note=44, velocity=100, time=0),\n",
      "    Message('note_on', channel=9, note=44, velocity=0, time=30),\n",
      "    Message('note_on', channel=9, note=44, velocity=100, time=0),\n",
      "    Message('note_on', channel=9, note=44, velocity=0, time=30),\n",
      "    Message('note_on', channel=9, note=40, velocity=100, time=0),\n",
      "    Message('note_on', channel=9, note=44, velocity=100, time=0),\n",
      "    Message('note_on', channel=9, note=44, velocity=0, time=30),\n",
      "    Message('note_on', channel=9, note=40, velocity=0, time=30),\n",
      "    Message('note_on', channel=9, note=44, velocity=100, time=0),\n",
      "    Message('note_on', channel=9, note=33, velocity=100, time=0),\n",
      "    Message('note_on', channel=9, note=44, velocity=0, time=30),\n",
      "    Message('note_on', channel=9, note=44, velocity=100, time=0),\n",
      "    Message('note_on', channel=9, note=44, velocity=0, time=30),\n",
      "    Message('note_on', channel=9, note=33, velocity=0, time=0),\n",
      "    Message('note_on', channel=9, note=44, velocity=100, time=0),\n",
      "    Message('note_on', channel=9, note=33, velocity=100, time=0),\n",
      "    Message('note_on', channel=9, note=44, velocity=0, time=30),\n",
      "    Message('note_on', channel=9, note=33, velocity=0, time=30),\n",
      "    Message('note_on', channel=9, note=44, velocity=100, time=0),\n",
      "    Message('note_on', channel=9, note=44, velocity=0, time=30),\n",
      "    Message('note_on', channel=9, note=44, velocity=100, time=0),\n",
      "    Message('note_on', channel=9, note=44, velocity=0, time=30),\n",
      "    Message('note_on', channel=9, note=81, velocity=100, time=0),\n",
      "    Message('note_on', channel=9, note=40, velocity=100, time=0),\n",
      "    Message('note_on', channel=9, note=44, velocity=100, time=0),\n",
      "    Message('note_on', channel=9, note=44, velocity=0, time=30),\n",
      "    Message('note_on', channel=9, note=40, velocity=0, time=0),\n",
      "    Message('note_on', channel=9, note=44, velocity=100, time=30),\n",
      "    Message('note_on', channel=9, note=44, velocity=0, time=30),\n",
      "    Message('note_on', channel=9, note=44, velocity=100, time=0),\n",
      "    Message('note_on', channel=9, note=44, velocity=0, time=30),\n",
      "    Message('note_on', channel=9, note=81, velocity=0, time=0),\n",
      "    Message('note_on', channel=9, note=44, velocity=100, time=0),\n",
      "    Message('note_on', channel=9, note=33, velocity=100, time=0),\n",
      "    Message('note_on', channel=9, note=44, velocity=0, time=30),\n",
      "    Message('note_on', channel=9, note=33, velocity=0, time=30),\n",
      "    Message('note_on', channel=9, note=44, velocity=100, time=0),\n",
      "    Message('note_on', channel=9, note=44, velocity=0, time=30),\n",
      "    Message('note_on', channel=9, note=44, velocity=100, time=0),\n",
      "    Message('note_on', channel=9, note=44, velocity=0, time=30),\n",
      "    Message('note_on', channel=9, note=40, velocity=100, time=0),\n",
      "    Message('note_on', channel=9, note=44, velocity=100, time=0),\n",
      "    Message('note_on', channel=9, note=44, velocity=0, time=30),\n",
      "    Message('note_on', channel=9, note=40, velocity=0, time=30),\n",
      "    Message('note_on', channel=9, note=44, velocity=100, time=0),\n",
      "    Message('note_on', channel=9, note=33, velocity=100, time=0),\n",
      "    Message('note_on', channel=9, note=44, velocity=0, time=30),\n",
      "    Message('note_on', channel=9, note=44, velocity=100, time=0),\n",
      "    Message('note_on', channel=9, note=44, velocity=0, time=30),\n",
      "    Message('note_on', channel=9, note=33, velocity=0, time=0),\n",
      "    Message('note_on', channel=9, note=44, velocity=100, time=0),\n",
      "    Message('note_on', channel=9, note=33, velocity=100, time=0),\n",
      "    Message('note_on', channel=9, note=44, velocity=0, time=30),\n",
      "    Message('note_on', channel=9, note=33, velocity=0, time=30),\n",
      "    Message('note_on', channel=9, note=44, velocity=100, time=0),\n",
      "    Message('note_on', channel=9, note=44, velocity=0, time=30),\n",
      "    Message('note_on', channel=9, note=44, velocity=100, time=0),\n",
      "    Message('note_on', channel=9, note=44, velocity=0, time=30),\n",
      "    Message('note_on', channel=9, note=81, velocity=100, time=0),\n",
      "    Message('note_on', channel=9, note=40, velocity=100, time=0),\n",
      "    Message('note_on', channel=9, note=44, velocity=100, time=0),\n",
      "    Message('note_on', channel=9, note=44, velocity=0, time=30),\n",
      "    Message('note_on', channel=9, note=40, velocity=0, time=0),\n",
      "    Message('note_on', channel=9, note=44, velocity=100, time=30),\n",
      "    Message('note_on', channel=9, note=44, velocity=0, time=30),\n",
      "    Message('note_on', channel=9, note=44, velocity=100, time=0),\n",
      "    Message('note_on', channel=9, note=44, velocity=0, time=30),\n",
      "    Message('note_on', channel=9, note=81, velocity=0, time=0),\n",
      "    Message('note_on', channel=9, note=44, velocity=100, time=0),\n",
      "    Message('note_on', channel=9, note=33, velocity=100, time=0),\n",
      "    Message('note_on', channel=9, note=44, velocity=0, time=30),\n",
      "    Message('note_on', channel=9, note=33, velocity=0, time=30),\n",
      "    Message('note_on', channel=9, note=44, velocity=100, time=0),\n",
      "    Message('note_on', channel=9, note=44, velocity=0, time=30),\n",
      "    Message('note_on', channel=9, note=44, velocity=100, time=0),\n",
      "    Message('note_on', channel=9, note=44, velocity=0, time=30),\n",
      "    Message('note_on', channel=9, note=40, velocity=100, time=0),\n",
      "    Message('note_on', channel=9, note=44, velocity=100, time=0),\n",
      "    Message('note_on', channel=9, note=44, velocity=0, time=30),\n",
      "    Message('note_on', channel=9, note=40, velocity=0, time=30),\n",
      "    Message('note_on', channel=9, note=44, velocity=100, time=0),\n",
      "    Message('note_on', channel=9, note=33, velocity=100, time=0),\n",
      "    Message('note_on', channel=9, note=44, velocity=0, time=30),\n",
      "    Message('note_on', channel=9, note=44, velocity=100, time=0),\n",
      "    Message('note_on', channel=9, note=44, velocity=0, time=30),\n",
      "    Message('note_on', channel=9, note=33, velocity=0, time=0),\n",
      "    Message('note_on', channel=9, note=44, velocity=100, time=0),\n",
      "    Message('note_on', channel=9, note=33, velocity=100, time=0),\n",
      "    Message('note_on', channel=9, note=44, velocity=0, time=30),\n",
      "    Message('note_on', channel=9, note=33, velocity=0, time=30),\n",
      "    Message('note_on', channel=9, note=44, velocity=100, time=0),\n",
      "    Message('note_on', channel=9, note=44, velocity=0, time=30),\n",
      "    Message('note_on', channel=9, note=44, velocity=100, time=0),\n",
      "    Message('note_on', channel=9, note=44, velocity=0, time=30),\n",
      "    Message('note_on', channel=9, note=81, velocity=100, time=0),\n",
      "    Message('note_on', channel=9, note=40, velocity=100, time=0),\n",
      "    Message('note_on', channel=9, note=44, velocity=100, time=0),\n",
      "    Message('note_on', channel=9, note=44, velocity=0, time=30),\n",
      "    Message('note_on', channel=9, note=40, velocity=0, time=0),\n",
      "    Message('note_on', channel=9, note=44, velocity=100, time=30),\n",
      "    Message('note_on', channel=9, note=44, velocity=0, time=30),\n",
      "    Message('note_on', channel=9, note=44, velocity=100, time=0),\n",
      "    Message('note_on', channel=9, note=44, velocity=0, time=30),\n",
      "    Message('note_on', channel=9, note=81, velocity=0, time=0),\n",
      "    Message('note_on', channel=9, note=44, velocity=100, time=0),\n",
      "    Message('note_on', channel=9, note=33, velocity=100, time=0),\n",
      "    Message('note_on', channel=9, note=44, velocity=0, time=30),\n",
      "    Message('note_on', channel=9, note=33, velocity=0, time=30),\n",
      "    Message('note_on', channel=9, note=44, velocity=100, time=0),\n",
      "    Message('note_on', channel=9, note=44, velocity=0, time=30),\n",
      "    Message('note_on', channel=9, note=44, velocity=100, time=0),\n",
      "    Message('note_on', channel=9, note=44, velocity=0, time=30),\n",
      "    Message('note_on', channel=9, note=40, velocity=100, time=0),\n",
      "    Message('note_on', channel=9, note=44, velocity=100, time=0),\n",
      "    Message('note_on', channel=9, note=44, velocity=0, time=30),\n",
      "    Message('note_on', channel=9, note=40, velocity=0, time=30),\n",
      "    Message('note_on', channel=9, note=44, velocity=100, time=0),\n",
      "    Message('note_on', channel=9, note=33, velocity=100, time=0),\n",
      "    Message('note_on', channel=9, note=44, velocity=0, time=30),\n",
      "    Message('note_on', channel=9, note=44, velocity=100, time=0),\n",
      "    Message('note_on', channel=9, note=44, velocity=0, time=30),\n",
      "    Message('note_on', channel=9, note=33, velocity=0, time=0),\n",
      "    Message('note_on', channel=9, note=44, velocity=100, time=0),\n",
      "    Message('note_on', channel=9, note=33, velocity=100, time=0),\n",
      "    Message('note_on', channel=9, note=44, velocity=0, time=30),\n",
      "    Message('note_on', channel=9, note=33, velocity=0, time=30),\n",
      "    Message('note_on', channel=9, note=82, velocity=100, time=0),\n",
      "    Message('note_on', channel=9, note=44, velocity=100, time=0),\n",
      "    Message('note_on', channel=9, note=44, velocity=0, time=30),\n",
      "    Message('note_on', channel=9, note=44, velocity=100, time=0),\n",
      "    Message('note_on', channel=9, note=44, velocity=0, time=30),\n",
      "    Message('note_on', channel=9, note=82, velocity=0, time=0),\n",
      "    Message('note_on', channel=9, note=70, velocity=100, time=0),\n",
      "    Message('note_on', channel=9, note=81, velocity=100, time=0),\n",
      "    Message('note_on', channel=9, note=40, velocity=100, time=0),\n",
      "    Message('note_on', channel=9, note=44, velocity=100, time=0),\n",
      "    Message('note_on', channel=9, note=44, velocity=0, time=30),\n",
      "    Message('note_on', channel=9, note=40, velocity=0, time=0),\n",
      "    Message('note_on', channel=9, note=70, velocity=0, time=30),\n",
      "    Message('note_on', channel=9, note=32, velocity=100, time=0),\n",
      "    Message('note_on', channel=9, note=44, velocity=100, time=0),\n",
      "    Message('note_on', channel=9, note=44, velocity=0, time=30),\n",
      "    Message('note_on', channel=9, note=44, velocity=100, time=0),\n",
      "    Message('note_on', channel=9, note=44, velocity=0, time=30),\n",
      "    Message('note_on', channel=9, note=32, velocity=0, time=0),\n",
      "    Message('note_on', channel=9, note=81, velocity=0, time=0),\n",
      "    Message('note_on', channel=9, note=44, velocity=100, time=0),\n",
      "    Message('note_on', channel=9, note=33, velocity=100, time=0),\n",
      "    Message('note_on', channel=9, note=44, velocity=0, time=30),\n",
      "    Message('note_on', channel=9, note=33, velocity=0, time=30),\n",
      "    Message('note_on', channel=9, note=44, velocity=100, time=0),\n",
      "    Message('note_on', channel=9, note=44, velocity=0, time=30),\n",
      "    Message('note_on', channel=9, note=44, velocity=100, time=0),\n",
      "    Message('note_on', channel=9, note=44, velocity=0, time=30),\n",
      "    Message('note_on', channel=9, note=40, velocity=100, time=0),\n",
      "    Message('note_on', channel=9, note=44, velocity=100, time=0),\n",
      "    Message('note_on', channel=9, note=44, velocity=0, time=30),\n",
      "    Message('note_on', channel=9, note=40, velocity=0, time=30),\n",
      "    Message('note_on', channel=9, note=44, velocity=100, time=0),\n",
      "    Message('note_on', channel=9, note=33, velocity=100, time=0),\n",
      "    Message('note_on', channel=9, note=44, velocity=0, time=30),\n",
      "    Message('note_on', channel=9, note=44, velocity=100, time=0),\n",
      "    Message('note_on', channel=9, note=44, velocity=0, time=30),\n",
      "    Message('note_on', channel=9, note=33, velocity=0, time=0),\n",
      "    Message('note_on', channel=9, note=44, velocity=100, time=0),\n",
      "    Message('note_on', channel=9, note=33, velocity=100, time=0),\n",
      "    Message('note_on', channel=9, note=44, velocity=0, time=30),\n",
      "    Message('note_on', channel=9, note=33, velocity=0, time=30),\n",
      "    Message('note_on', channel=9, note=44, velocity=100, time=0),\n",
      "    Message('note_on', channel=9, note=44, velocity=0, time=30),\n",
      "    Message('note_on', channel=9, note=44, velocity=100, time=0),\n",
      "    Message('note_on', channel=9, note=44, velocity=0, time=30),\n",
      "    Message('note_on', channel=9, note=81, velocity=100, time=0),\n",
      "    Message('note_on', channel=9, note=40, velocity=100, time=0),\n",
      "    Message('note_on', channel=9, note=44, velocity=100, time=0),\n",
      "    Message('note_on', channel=9, note=44, velocity=0, time=30),\n",
      "    Message('note_on', channel=9, note=40, velocity=0, time=0),\n",
      "    Message('note_on', channel=9, note=44, velocity=100, time=30),\n",
      "    Message('note_on', channel=9, note=44, velocity=0, time=30),\n",
      "    Message('note_on', channel=9, note=44, velocity=100, time=0),\n",
      "    Message('note_on', channel=9, note=44, velocity=0, time=30),\n",
      "    Message('note_on', channel=9, note=81, velocity=0, time=0),\n",
      "    Message('note_on', channel=9, note=44, velocity=100, time=0),\n",
      "    Message('note_on', channel=9, note=33, velocity=100, time=0),\n",
      "    Message('note_on', channel=9, note=44, velocity=0, time=30),\n",
      "    Message('note_on', channel=9, note=33, velocity=0, time=30),\n",
      "    Message('note_on', channel=9, note=44, velocity=100, time=0),\n",
      "    Message('note_on', channel=9, note=44, velocity=0, time=30),\n",
      "    Message('note_on', channel=9, note=44, velocity=100, time=0),\n",
      "    Message('note_on', channel=9, note=44, velocity=0, time=30),\n",
      "    Message('note_on', channel=9, note=40, velocity=100, time=0),\n",
      "    Message('note_on', channel=9, note=44, velocity=100, time=0),\n",
      "    Message('note_on', channel=9, note=44, velocity=0, time=30),\n",
      "    Message('note_on', channel=9, note=40, velocity=0, time=30),\n",
      "    Message('note_on', channel=9, note=44, velocity=100, time=0),\n",
      "    Message('note_on', channel=9, note=33, velocity=100, time=0),\n",
      "    Message('note_on', channel=9, note=44, velocity=0, time=30),\n",
      "    Message('note_on', channel=9, note=44, velocity=100, time=0),\n",
      "    Message('note_on', channel=9, note=44, velocity=0, time=30),\n",
      "    Message('note_on', channel=9, note=33, velocity=0, time=0),\n",
      "    Message('note_on', channel=9, note=44, velocity=100, time=0),\n",
      "    Message('note_on', channel=9, note=33, velocity=100, time=0),\n",
      "    Message('note_on', channel=9, note=44, velocity=0, time=30),\n",
      "    Message('note_on', channel=9, note=33, velocity=0, time=30),\n",
      "    Message('note_on', channel=9, note=44, velocity=100, time=0),\n",
      "    Message('note_on', channel=9, note=44, velocity=0, time=30),\n",
      "    Message('note_on', channel=9, note=44, velocity=100, time=0),\n",
      "    Message('note_on', channel=9, note=44, velocity=0, time=30),\n",
      "    Message('note_on', channel=9, note=81, velocity=100, time=0),\n",
      "    Message('note_on', channel=9, note=40, velocity=100, time=0),\n",
      "    Message('note_on', channel=9, note=44, velocity=100, time=0),\n",
      "    Message('note_on', channel=9, note=44, velocity=0, time=30),\n",
      "    Message('note_on', channel=9, note=40, velocity=0, time=0),\n",
      "    Message('note_on', channel=9, note=44, velocity=100, time=30),\n",
      "    Message('note_on', channel=9, note=44, velocity=0, time=30),\n",
      "    Message('note_on', channel=9, note=44, velocity=100, time=0),\n",
      "    Message('note_on', channel=9, note=44, velocity=0, time=30),\n",
      "    Message('note_on', channel=9, note=81, velocity=0, time=0),\n",
      "    Message('note_on', channel=9, note=44, velocity=100, time=0),\n",
      "    Message('note_on', channel=9, note=33, velocity=100, time=0),\n",
      "    Message('note_on', channel=9, note=44, velocity=0, time=30),\n",
      "    Message('note_on', channel=9, note=33, velocity=0, time=30),\n",
      "    Message('note_on', channel=9, note=44, velocity=100, time=0),\n",
      "    Message('note_on', channel=9, note=44, velocity=0, time=30),\n",
      "    Message('note_on', channel=9, note=44, velocity=100, time=0),\n",
      "    Message('note_on', channel=9, note=44, velocity=0, time=30),\n",
      "    Message('note_on', channel=9, note=40, velocity=100, time=0),\n",
      "    Message('note_on', channel=9, note=44, velocity=100, time=0),\n",
      "    Message('note_on', channel=9, note=44, velocity=0, time=30),\n",
      "    Message('note_on', channel=9, note=40, velocity=0, time=30),\n",
      "    Message('note_on', channel=9, note=44, velocity=100, time=0),\n",
      "    Message('note_on', channel=9, note=33, velocity=100, time=0),\n",
      "    Message('note_on', channel=9, note=44, velocity=0, time=30),\n",
      "    Message('note_on', channel=9, note=44, velocity=100, time=0),\n",
      "    Message('note_on', channel=9, note=44, velocity=0, time=30),\n",
      "    Message('note_on', channel=9, note=33, velocity=0, time=0),\n",
      "    Message('note_on', channel=9, note=44, velocity=100, time=0),\n",
      "    Message('note_on', channel=9, note=33, velocity=100, time=0),\n",
      "    Message('note_on', channel=9, note=44, velocity=0, time=30),\n",
      "    Message('note_on', channel=9, note=33, velocity=0, time=30),\n",
      "    Message('note_on', channel=9, note=44, velocity=100, time=0),\n",
      "    Message('note_on', channel=9, note=44, velocity=0, time=30),\n",
      "    Message('note_on', channel=9, note=44, velocity=100, time=0),\n",
      "    Message('note_on', channel=9, note=44, velocity=0, time=30),\n",
      "    Message('note_on', channel=9, note=81, velocity=100, time=0),\n",
      "    Message('note_on', channel=9, note=40, velocity=100, time=0),\n",
      "    Message('note_on', channel=9, note=44, velocity=100, time=0),\n",
      "    Message('note_on', channel=9, note=44, velocity=0, time=30),\n",
      "    Message('note_on', channel=9, note=40, velocity=0, time=0),\n",
      "    Message('note_on', channel=9, note=44, velocity=100, time=30),\n",
      "    Message('note_on', channel=9, note=44, velocity=0, time=30),\n",
      "    Message('note_on', channel=9, note=44, velocity=100, time=0),\n",
      "    Message('note_on', channel=9, note=44, velocity=0, time=30),\n",
      "    Message('note_on', channel=9, note=81, velocity=0, time=0),\n",
      "    Message('note_on', channel=9, note=44, velocity=100, time=0),\n",
      "    Message('note_on', channel=9, note=33, velocity=100, time=0),\n",
      "    Message('note_on', channel=9, note=44, velocity=0, time=30),\n",
      "    Message('note_on', channel=9, note=33, velocity=0, time=30),\n",
      "    Message('note_on', channel=9, note=44, velocity=100, time=0),\n",
      "    Message('note_on', channel=9, note=44, velocity=0, time=30),\n",
      "    Message('note_on', channel=9, note=44, velocity=100, time=0),\n",
      "    Message('note_on', channel=9, note=44, velocity=0, time=30),\n",
      "    Message('note_on', channel=9, note=40, velocity=100, time=0),\n",
      "    Message('note_on', channel=9, note=44, velocity=100, time=0),\n",
      "    Message('note_on', channel=9, note=44, velocity=0, time=30),\n",
      "    Message('note_on', channel=9, note=40, velocity=0, time=30),\n",
      "    Message('note_on', channel=9, note=44, velocity=100, time=0),\n",
      "    Message('note_on', channel=9, note=33, velocity=100, time=0),\n",
      "    Message('note_on', channel=9, note=44, velocity=0, time=30),\n",
      "    Message('note_on', channel=9, note=44, velocity=100, time=0),\n",
      "    Message('note_on', channel=9, note=44, velocity=0, time=30),\n",
      "    Message('note_on', channel=9, note=33, velocity=0, time=0),\n",
      "    Message('note_on', channel=9, note=44, velocity=100, time=0),\n",
      "    Message('note_on', channel=9, note=33, velocity=100, time=0),\n",
      "    Message('note_on', channel=9, note=44, velocity=0, time=30),\n",
      "    Message('note_on', channel=9, note=33, velocity=0, time=30),\n",
      "    Message('note_on', channel=9, note=50, velocity=100, time=0),\n",
      "    Message('note_on', channel=9, note=44, velocity=100, time=0),\n",
      "    Message('note_on', channel=9, note=44, velocity=0, time=30),\n",
      "    Message('note_on', channel=9, note=50, velocity=0, time=0),\n",
      "    Message('note_on', channel=9, note=76, velocity=100, time=0),\n",
      "    Message('note_on', channel=9, note=50, velocity=100, time=0),\n",
      "    Message('note_on', channel=9, note=44, velocity=100, time=0),\n",
      "    Message('note_on', channel=9, note=44, velocity=0, time=30),\n",
      "    Message('note_on', channel=9, note=50, velocity=0, time=0),\n",
      "    Message('note_on', channel=9, note=76, velocity=0, time=0),\n",
      "    Message('note_on', channel=9, note=25, velocity=100, time=0),\n",
      "    Message('note_on', channel=9, note=47, velocity=100, time=0),\n",
      "    Message('note_on', channel=9, note=81, velocity=100, time=0),\n",
      "    Message('note_on', channel=9, note=40, velocity=100, time=0),\n",
      "    Message('note_on', channel=9, note=44, velocity=100, time=0),\n",
      "    Message('note_on', channel=9, note=44, velocity=0, time=30),\n",
      "    Message('note_on', channel=9, note=47, velocity=0, time=0),\n",
      "    Message('note_on', channel=9, note=25, velocity=0, time=0),\n",
      "    Message('note_on', channel=9, note=40, velocity=0, time=0),\n",
      "    Message('note_on', channel=9, note=30, velocity=100, time=0),\n",
      "    Message('note_on', channel=9, note=30, velocity=0, time=30),\n",
      "    Message('note_on', channel=9, note=28, velocity=100, time=0),\n",
      "    Message('note_on', channel=9, note=45, velocity=100, time=0),\n",
      "    Message('note_on', channel=9, note=44, velocity=100, time=0),\n",
      "    Message('note_on', channel=9, note=44, velocity=0, time=30),\n",
      "    Message('note_on', channel=9, note=45, velocity=0, time=0),\n",
      "    Message('note_on', channel=9, note=28, velocity=0, time=0),\n",
      "    Message('note_on', channel=9, note=16, velocity=100, time=0),\n",
      "    Message('note_on', channel=9, note=23, velocity=100, time=0),\n",
      "    Message('note_on', channel=9, note=44, velocity=100, time=0),\n",
      "    Message('note_on', channel=9, note=44, velocity=0, time=30),\n",
      "    Message('note_on', channel=9, note=81, velocity=0, time=0),\n",
      "    Message('note_on', channel=9, note=16, velocity=0, time=0),\n",
      "    Message('note_on', channel=9, note=23, velocity=0, time=0),\n",
      "    Message('note_on', channel=9, note=59, velocity=100, time=0),\n",
      "    Message('note_on', channel=9, note=44, velocity=100, time=0),\n",
      "    Message('note_on', channel=9, note=33, velocity=100, time=0),\n",
      "    Message('note_on', channel=9, note=44, velocity=0, time=30),\n",
      "    Message('note_on', channel=9, note=59, velocity=0, time=0),\n",
      "    Message('note_on', channel=9, note=33, velocity=0, time=30),\n",
      "    Message('note_on', channel=9, note=44, velocity=100, time=0),\n",
      "    Message('note_on', channel=9, note=44, velocity=0, time=30),\n",
      "    Message('note_on', channel=9, note=44, velocity=100, time=0),\n",
      "    Message('note_on', channel=9, note=44, velocity=0, time=30),\n",
      "    Message('note_on', channel=9, note=40, velocity=100, time=0),\n",
      "    Message('note_on', channel=9, note=44, velocity=100, time=0),\n",
      "    Message('note_on', channel=9, note=44, velocity=0, time=30),\n",
      "    Message('note_on', channel=9, note=40, velocity=0, time=30),\n",
      "    Message('note_on', channel=9, note=44, velocity=100, time=0),\n",
      "    Message('note_on', channel=9, note=33, velocity=100, time=0),\n",
      "    Message('note_on', channel=9, note=44, velocity=0, time=30),\n",
      "    Message('note_on', channel=9, note=44, velocity=100, time=0),\n",
      "    Message('note_on', channel=9, note=44, velocity=0, time=30),\n",
      "    Message('note_on', channel=9, note=33, velocity=0, time=0),\n",
      "    Message('note_on', channel=9, note=44, velocity=100, time=0),\n",
      "    Message('note_on', channel=9, note=33, velocity=100, time=0),\n",
      "    Message('note_on', channel=9, note=44, velocity=0, time=30),\n",
      "    Message('note_on', channel=9, note=33, velocity=0, time=30),\n",
      "    Message('note_on', channel=9, note=44, velocity=100, time=0),\n",
      "    Message('note_on', channel=9, note=44, velocity=0, time=30),\n",
      "    Message('note_on', channel=9, note=44, velocity=100, time=0),\n",
      "    Message('note_on', channel=9, note=44, velocity=0, time=30),\n",
      "    Message('note_on', channel=9, note=81, velocity=100, time=0),\n",
      "    Message('note_on', channel=9, note=40, velocity=100, time=0),\n",
      "    Message('note_on', channel=9, note=44, velocity=100, time=0),\n",
      "    Message('note_on', channel=9, note=44, velocity=0, time=30),\n",
      "    Message('note_on', channel=9, note=40, velocity=0, time=0),\n",
      "    Message('note_on', channel=9, note=44, velocity=100, time=30),\n",
      "    Message('note_on', channel=9, note=44, velocity=0, time=30),\n",
      "    Message('note_on', channel=9, note=44, velocity=100, time=0),\n",
      "    Message('note_on', channel=9, note=44, velocity=0, time=30),\n",
      "    Message('note_on', channel=9, note=81, velocity=0, time=0),\n",
      "    Message('note_on', channel=9, note=44, velocity=100, time=0),\n",
      "    Message('note_on', channel=9, note=33, velocity=100, time=0),\n",
      "    Message('note_on', channel=9, note=44, velocity=0, time=30),\n",
      "    Message('note_on', channel=9, note=33, velocity=0, time=30),\n",
      "    Message('note_on', channel=9, note=44, velocity=100, time=0),\n",
      "    Message('note_on', channel=9, note=44, velocity=0, time=30),\n",
      "    Message('note_on', channel=9, note=44, velocity=100, time=0),\n",
      "    Message('note_on', channel=9, note=44, velocity=0, time=30),\n",
      "    Message('note_on', channel=9, note=40, velocity=100, time=0),\n",
      "    Message('note_on', channel=9, note=44, velocity=100, time=0),\n",
      "    Message('note_on', channel=9, note=44, velocity=0, time=30),\n",
      "    Message('note_on', channel=9, note=40, velocity=0, time=30),\n",
      "    Message('note_on', channel=9, note=44, velocity=100, time=0),\n",
      "    Message('note_on', channel=9, note=33, velocity=100, time=0),\n",
      "    Message('note_on', channel=9, note=44, velocity=0, time=30),\n",
      "    Message('note_on', channel=9, note=44, velocity=100, time=0),\n",
      "    Message('note_on', channel=9, note=44, velocity=0, time=30),\n",
      "    Message('note_on', channel=9, note=33, velocity=0, time=0),\n",
      "    Message('note_on', channel=9, note=44, velocity=100, time=0),\n",
      "    Message('note_on', channel=9, note=33, velocity=100, time=0),\n",
      "    Message('note_on', channel=9, note=44, velocity=0, time=30),\n",
      "    Message('note_on', channel=9, note=33, velocity=0, time=30),\n",
      "    Message('note_on', channel=9, note=44, velocity=100, time=0),\n",
      "    Message('note_on', channel=9, note=44, velocity=0, time=30),\n",
      "    Message('note_on', channel=9, note=44, velocity=100, time=0),\n",
      "    Message('note_on', channel=9, note=44, velocity=0, time=30),\n",
      "    Message('note_on', channel=9, note=81, velocity=100, time=0),\n",
      "    Message('note_on', channel=9, note=40, velocity=100, time=0),\n",
      "    Message('note_on', channel=9, note=44, velocity=100, time=0),\n",
      "    Message('note_on', channel=9, note=44, velocity=0, time=30),\n",
      "    Message('note_on', channel=9, note=40, velocity=0, time=0),\n",
      "    Message('note_on', channel=9, note=44, velocity=100, time=30),\n",
      "    Message('note_on', channel=9, note=44, velocity=0, time=30),\n",
      "    Message('note_on', channel=9, note=44, velocity=100, time=0),\n",
      "    Message('note_on', channel=9, note=44, velocity=0, time=30),\n",
      "    Message('note_on', channel=9, note=81, velocity=0, time=0),\n",
      "    Message('note_on', channel=9, note=44, velocity=100, time=0),\n",
      "    Message('note_on', channel=9, note=33, velocity=100, time=0),\n",
      "    Message('note_on', channel=9, note=44, velocity=0, time=30),\n",
      "    Message('note_on', channel=9, note=33, velocity=0, time=30),\n",
      "    Message('note_on', channel=9, note=44, velocity=100, time=0),\n",
      "    Message('note_on', channel=9, note=44, velocity=0, time=30),\n",
      "    Message('note_on', channel=9, note=44, velocity=100, time=0),\n",
      "    Message('note_on', channel=9, note=44, velocity=0, time=30),\n",
      "    Message('note_on', channel=9, note=40, velocity=100, time=0),\n",
      "    Message('note_on', channel=9, note=44, velocity=100, time=0),\n",
      "    Message('note_on', channel=9, note=44, velocity=0, time=30),\n",
      "    Message('note_on', channel=9, note=40, velocity=0, time=30),\n",
      "    Message('note_on', channel=9, note=44, velocity=100, time=0),\n",
      "    Message('note_on', channel=9, note=33, velocity=100, time=0),\n",
      "    Message('note_on', channel=9, note=44, velocity=0, time=30),\n",
      "    Message('note_on', channel=9, note=44, velocity=100, time=0),\n",
      "    Message('note_on', channel=9, note=44, velocity=0, time=30),\n",
      "    Message('note_on', channel=9, note=33, velocity=0, time=0),\n",
      "    Message('note_on', channel=9, note=44, velocity=100, time=0),\n",
      "    Message('note_on', channel=9, note=33, velocity=100, time=0),\n",
      "    Message('note_on', channel=9, note=44, velocity=0, time=30),\n",
      "    Message('note_on', channel=9, note=33, velocity=0, time=30),\n",
      "    Message('note_on', channel=9, note=44, velocity=100, time=0),\n",
      "    Message('note_on', channel=9, note=44, velocity=0, time=30),\n",
      "    Message('note_on', channel=9, note=44, velocity=100, time=0),\n",
      "    Message('note_on', channel=9, note=44, velocity=0, time=30),\n",
      "    Message('note_on', channel=9, note=81, velocity=100, time=0),\n",
      "    Message('note_on', channel=9, note=40, velocity=100, time=0),\n",
      "    Message('note_on', channel=9, note=44, velocity=100, time=0),\n",
      "    Message('note_on', channel=9, note=44, velocity=0, time=30),\n",
      "    Message('note_on', channel=9, note=40, velocity=0, time=0),\n",
      "    Message('note_on', channel=9, note=44, velocity=100, time=30),\n",
      "    Message('note_on', channel=9, note=44, velocity=0, time=30),\n",
      "    Message('note_on', channel=9, note=44, velocity=100, time=0),\n",
      "    Message('note_on', channel=9, note=44, velocity=0, time=30),\n",
      "    Message('note_on', channel=9, note=81, velocity=0, time=0),\n",
      "    Message('note_on', channel=9, note=44, velocity=100, time=0),\n",
      "    Message('note_on', channel=9, note=33, velocity=100, time=0),\n",
      "    Message('note_on', channel=9, note=44, velocity=0, time=30),\n",
      "    Message('note_on', channel=9, note=33, velocity=0, time=30),\n",
      "    Message('note_on', channel=9, note=44, velocity=100, time=0),\n",
      "    Message('note_on', channel=9, note=44, velocity=0, time=30),\n",
      "    Message('note_on', channel=9, note=44, velocity=100, time=0),\n",
      "    Message('note_on', channel=9, note=44, velocity=0, time=30),\n",
      "    Message('note_on', channel=9, note=40, velocity=100, time=0),\n",
      "    Message('note_on', channel=9, note=44, velocity=100, time=0),\n",
      "    Message('note_on', channel=9, note=44, velocity=0, time=30),\n",
      "    Message('note_on', channel=9, note=40, velocity=0, time=30),\n",
      "    Message('note_on', channel=9, note=44, velocity=100, time=0),\n",
      "    Message('note_on', channel=9, note=33, velocity=100, time=0),\n",
      "    Message('note_on', channel=9, note=44, velocity=0, time=30),\n",
      "    Message('note_on', channel=9, note=44, velocity=100, time=0),\n",
      "    Message('note_on', channel=9, note=44, velocity=0, time=30),\n",
      "    Message('note_on', channel=9, note=33, velocity=0, time=0),\n",
      "    Message('note_on', channel=9, note=44, velocity=100, time=0),\n",
      "    Message('note_on', channel=9, note=33, velocity=100, time=0),\n",
      "    Message('note_on', channel=9, note=44, velocity=0, time=30),\n",
      "    Message('note_on', channel=9, note=33, velocity=0, time=30),\n",
      "    Message('note_on', channel=9, note=50, velocity=100, time=0),\n",
      "    Message('note_on', channel=9, note=44, velocity=100, time=0),\n",
      "    Message('note_on', channel=9, note=44, velocity=0, time=30),\n",
      "    Message('note_on', channel=9, note=44, velocity=100, time=0),\n",
      "    Message('note_on', channel=9, note=44, velocity=0, time=30),\n",
      "    Message('note_on', channel=9, note=50, velocity=0, time=0),\n",
      "    Message('note_on', channel=9, note=47, velocity=100, time=0),\n",
      "    Message('note_on', channel=9, note=81, velocity=100, time=0),\n",
      "    Message('note_on', channel=9, note=40, velocity=100, time=0),\n",
      "    Message('note_on', channel=9, note=44, velocity=100, time=0),\n",
      "    Message('note_on', channel=9, note=44, velocity=0, time=30),\n",
      "    Message('note_on', channel=9, note=40, velocity=0, time=0),\n",
      "    Message('note_on', channel=9, note=47, velocity=0, time=30),\n",
      "    Message('note_on', channel=9, note=45, velocity=100, time=0),\n",
      "    Message('note_on', channel=9, note=44, velocity=100, time=0),\n",
      "    Message('note_on', channel=9, note=44, velocity=0, time=30),\n",
      "    Message('note_on', channel=9, note=44, velocity=100, time=0),\n",
      "    Message('note_on', channel=9, note=44, velocity=0, time=30),\n",
      "    Message('note_on', channel=9, note=45, velocity=0, time=0),\n",
      "    Message('note_on', channel=9, note=81, velocity=0, time=0),\n",
      "    Message('note_on', channel=9, note=44, velocity=100, time=0),\n",
      "    Message('note_on', channel=9, note=33, velocity=100, time=0),\n",
      "    Message('note_on', channel=9, note=44, velocity=0, time=30),\n",
      "    Message('note_on', channel=9, note=33, velocity=0, time=30),\n",
      "    Message('note_on', channel=9, note=44, velocity=100, time=0),\n",
      "    Message('note_on', channel=9, note=44, velocity=0, time=30),\n",
      "    Message('note_on', channel=9, note=44, velocity=100, time=0),\n",
      "    Message('note_on', channel=9, note=44, velocity=0, time=30),\n",
      "    Message('note_on', channel=9, note=40, velocity=100, time=0),\n",
      "    Message('note_on', channel=9, note=44, velocity=100, time=0),\n",
      "    Message('note_on', channel=9, note=44, velocity=0, time=30),\n",
      "    Message('note_on', channel=9, note=40, velocity=0, time=30),\n",
      "    Message('note_on', channel=9, note=44, velocity=100, time=0),\n",
      "    Message('note_on', channel=9, note=33, velocity=100, time=0),\n",
      "    Message('note_on', channel=9, note=44, velocity=0, time=30),\n",
      "    Message('note_on', channel=9, note=44, velocity=100, time=0),\n",
      "    Message('note_on', channel=9, note=44, velocity=0, time=30),\n",
      "    Message('note_on', channel=9, note=33, velocity=0, time=0),\n",
      "    Message('note_on', channel=9, note=44, velocity=100, time=0),\n",
      "    Message('note_on', channel=9, note=33, velocity=100, time=0),\n",
      "    Message('note_on', channel=9, note=44, velocity=0, time=30),\n",
      "    Message('note_on', channel=9, note=33, velocity=0, time=30),\n",
      "    Message('note_on', channel=9, note=44, velocity=100, time=0),\n",
      "    Message('note_on', channel=9, note=44, velocity=0, time=30),\n",
      "    Message('note_on', channel=9, note=44, velocity=100, time=0),\n",
      "    Message('note_on', channel=9, note=44, velocity=0, time=30),\n",
      "    Message('note_on', channel=9, note=81, velocity=100, time=0),\n",
      "    Message('note_on', channel=9, note=40, velocity=100, time=0),\n",
      "    Message('note_on', channel=9, note=44, velocity=100, time=0),\n",
      "    Message('note_on', channel=9, note=44, velocity=0, time=30),\n",
      "    Message('note_on', channel=9, note=40, velocity=0, time=0),\n",
      "    Message('note_on', channel=9, note=44, velocity=100, time=30),\n",
      "    Message('note_on', channel=9, note=44, velocity=0, time=30),\n",
      "    Message('note_on', channel=9, note=44, velocity=100, time=0),\n",
      "    Message('note_on', channel=9, note=44, velocity=0, time=30),\n",
      "    Message('note_on', channel=9, note=81, velocity=0, time=0),\n",
      "    Message('note_on', channel=9, note=44, velocity=100, time=0),\n",
      "    Message('note_on', channel=9, note=33, velocity=100, time=0),\n",
      "    Message('note_on', channel=9, note=44, velocity=0, time=30),\n",
      "    Message('note_on', channel=9, note=33, velocity=0, time=30),\n",
      "    Message('note_on', channel=9, note=44, velocity=100, time=0),\n",
      "    Message('note_on', channel=9, note=44, velocity=0, time=30),\n",
      "    Message('note_on', channel=9, note=44, velocity=100, time=0),\n",
      "    Message('note_on', channel=9, note=44, velocity=0, time=30),\n",
      "    Message('note_on', channel=9, note=40, velocity=100, time=0),\n",
      "    Message('note_on', channel=9, note=44, velocity=100, time=0),\n",
      "    Message('note_on', channel=9, note=44, velocity=0, time=30),\n",
      "    Message('note_on', channel=9, note=40, velocity=0, time=30),\n",
      "    Message('note_on', channel=9, note=44, velocity=100, time=0),\n",
      "    Message('note_on', channel=9, note=33, velocity=100, time=0),\n",
      "    Message('note_on', channel=9, note=44, velocity=0, time=30),\n",
      "    Message('note_on', channel=9, note=44, velocity=100, time=0),\n",
      "    Message('note_on', channel=9, note=44, velocity=0, time=30),\n",
      "    Message('note_on', channel=9, note=33, velocity=0, time=0),\n",
      "    Message('note_on', channel=9, note=44, velocity=100, time=0),\n",
      "    Message('note_on', channel=9, note=33, velocity=100, time=0),\n",
      "    Message('note_on', channel=9, note=44, velocity=0, time=30),\n",
      "    Message('note_on', channel=9, note=33, velocity=0, time=30),\n",
      "    Message('note_on', channel=9, note=44, velocity=100, time=0),\n",
      "    Message('note_on', channel=9, note=44, velocity=0, time=30),\n",
      "    Message('note_on', channel=9, note=44, velocity=100, time=0),\n",
      "    Message('note_on', channel=9, note=44, velocity=0, time=30),\n",
      "    Message('note_on', channel=9, note=81, velocity=100, time=0),\n",
      "    Message('note_on', channel=9, note=40, velocity=100, time=0),\n",
      "    Message('note_on', channel=9, note=44, velocity=100, time=0),\n",
      "    Message('note_on', channel=9, note=44, velocity=0, time=30),\n",
      "    Message('note_on', channel=9, note=40, velocity=0, time=0),\n",
      "    Message('note_on', channel=9, note=44, velocity=100, time=30),\n",
      "    Message('note_on', channel=9, note=44, velocity=0, time=30),\n",
      "    Message('note_on', channel=9, note=44, velocity=100, time=0),\n",
      "    Message('note_on', channel=9, note=44, velocity=0, time=30),\n",
      "    Message('note_on', channel=9, note=81, velocity=0, time=0),\n",
      "    Message('note_on', channel=9, note=44, velocity=100, time=0),\n",
      "    Message('note_on', channel=9, note=33, velocity=100, time=0),\n",
      "    Message('note_on', channel=9, note=44, velocity=0, time=30),\n",
      "    Message('note_on', channel=9, note=33, velocity=0, time=30),\n",
      "    Message('note_on', channel=9, note=44, velocity=100, time=0),\n",
      "    Message('note_on', channel=9, note=44, velocity=0, time=30),\n",
      "    Message('note_on', channel=9, note=44, velocity=100, time=0),\n",
      "    Message('note_on', channel=9, note=44, velocity=0, time=30),\n",
      "    Message('note_on', channel=9, note=40, velocity=100, time=0),\n",
      "    Message('note_on', channel=9, note=44, velocity=100, time=0),\n",
      "    Message('note_on', channel=9, note=44, velocity=0, time=30),\n",
      "    Message('note_on', channel=9, note=40, velocity=0, time=30),\n",
      "    Message('note_on', channel=9, note=44, velocity=100, time=0),\n",
      "    Message('note_on', channel=9, note=33, velocity=100, time=0),\n",
      "    Message('note_on', channel=9, note=44, velocity=0, time=30),\n",
      "    Message('note_on', channel=9, note=44, velocity=100, time=0),\n",
      "    Message('note_on', channel=9, note=44, velocity=0, time=30),\n",
      "    Message('note_on', channel=9, note=33, velocity=0, time=0),\n",
      "    Message('note_on', channel=9, note=44, velocity=100, time=0),\n",
      "    Message('note_on', channel=9, note=33, velocity=100, time=0),\n",
      "    Message('note_on', channel=9, note=44, velocity=0, time=30),\n",
      "    Message('note_on', channel=9, note=33, velocity=0, time=30),\n",
      "    Message('note_on', channel=9, note=44, velocity=100, time=0),\n",
      "    Message('note_on', channel=9, note=44, velocity=0, time=30),\n",
      "    Message('note_on', channel=9, note=44, velocity=100, time=0),\n",
      "    Message('note_on', channel=9, note=44, velocity=0, time=30),\n",
      "    Message('note_on', channel=9, note=81, velocity=100, time=0),\n",
      "    Message('note_on', channel=9, note=40, velocity=100, time=0),\n",
      "    Message('note_on', channel=9, note=44, velocity=100, time=0),\n",
      "    Message('note_on', channel=9, note=44, velocity=0, time=30),\n",
      "    Message('note_on', channel=9, note=40, velocity=0, time=0),\n",
      "    Message('note_on', channel=9, note=44, velocity=100, time=30),\n",
      "    Message('note_on', channel=9, note=44, velocity=0, time=30),\n",
      "    Message('note_on', channel=9, note=44, velocity=100, time=0),\n",
      "    Message('note_on', channel=9, note=44, velocity=0, time=30),\n",
      "    Message('note_on', channel=9, note=81, velocity=0, time=0),\n",
      "    Message('note_on', channel=9, note=44, velocity=100, time=0),\n",
      "    Message('note_on', channel=9, note=33, velocity=100, time=0),\n",
      "    Message('note_on', channel=9, note=44, velocity=0, time=30),\n",
      "    Message('note_on', channel=9, note=33, velocity=0, time=30),\n",
      "    Message('note_on', channel=9, note=44, velocity=100, time=0),\n",
      "    Message('note_on', channel=9, note=44, velocity=0, time=30),\n",
      "    Message('note_on', channel=9, note=44, velocity=100, time=0),\n",
      "    Message('note_on', channel=9, note=44, velocity=0, time=30),\n",
      "    Message('note_on', channel=9, note=40, velocity=100, time=0),\n",
      "    Message('note_on', channel=9, note=44, velocity=100, time=0),\n",
      "    Message('note_on', channel=9, note=44, velocity=0, time=30),\n",
      "    Message('note_on', channel=9, note=40, velocity=0, time=30),\n",
      "    Message('note_on', channel=9, note=44, velocity=100, time=0),\n",
      "    Message('note_on', channel=9, note=33, velocity=100, time=0),\n",
      "    Message('note_on', channel=9, note=44, velocity=0, time=30),\n",
      "    Message('note_on', channel=9, note=44, velocity=100, time=0),\n",
      "    Message('note_on', channel=9, note=44, velocity=0, time=30),\n",
      "    Message('note_on', channel=9, note=33, velocity=0, time=0),\n",
      "    Message('note_on', channel=9, note=44, velocity=100, time=0),\n",
      "    Message('note_on', channel=9, note=33, velocity=100, time=0),\n",
      "    Message('note_on', channel=9, note=44, velocity=0, time=30),\n",
      "    Message('note_on', channel=9, note=33, velocity=0, time=30),\n",
      "    Message('note_on', channel=9, note=44, velocity=100, time=0),\n",
      "    Message('note_on', channel=9, note=44, velocity=0, time=30),\n",
      "    Message('note_on', channel=9, note=44, velocity=100, time=0),\n",
      "    Message('note_on', channel=9, note=44, velocity=0, time=30),\n",
      "    Message('note_on', channel=9, note=81, velocity=100, time=0),\n",
      "    Message('note_on', channel=9, note=40, velocity=100, time=0),\n",
      "    Message('note_on', channel=9, note=44, velocity=100, time=0),\n",
      "    Message('note_on', channel=9, note=44, velocity=0, time=30),\n",
      "    Message('note_on', channel=9, note=40, velocity=0, time=0),\n",
      "    Message('note_on', channel=9, note=44, velocity=100, time=30),\n",
      "    Message('note_on', channel=9, note=44, velocity=0, time=30),\n",
      "    Message('note_on', channel=9, note=44, velocity=100, time=0),\n",
      "    Message('note_on', channel=9, note=44, velocity=100, time=25),\n",
      "    Message('note_on', channel=9, note=33, velocity=100, time=0),\n",
      "    Message('note_on', channel=9, note=44, velocity=0, time=5),\n",
      "    Message('note_on', channel=9, note=81, velocity=0, time=0),\n",
      "    Message('note_on', channel=9, note=44, velocity=0, time=25),\n",
      "    Message('note_on', channel=9, note=33, velocity=0, time=30),\n",
      "    Message('note_on', channel=9, note=44, velocity=100, time=0),\n",
      "    Message('note_on', channel=9, note=44, velocity=0, time=30),\n",
      "    Message('note_on', channel=9, note=44, velocity=100, time=0),\n",
      "    Message('note_on', channel=9, note=44, velocity=0, time=30),\n",
      "    Message('note_on', channel=9, note=40, velocity=100, time=0),\n",
      "    Message('note_on', channel=9, note=44, velocity=100, time=0),\n",
      "    Message('note_on', channel=9, note=44, velocity=0, time=30),\n",
      "    Message('note_on', channel=9, note=40, velocity=0, time=30),\n",
      "    Message('note_on', channel=9, note=44, velocity=100, time=0),\n",
      "    Message('note_on', channel=9, note=33, velocity=100, time=0),\n",
      "    Message('note_on', channel=9, note=44, velocity=0, time=30),\n",
      "    Message('note_on', channel=9, note=44, velocity=100, time=0),\n",
      "    Message('note_on', channel=9, note=44, velocity=0, time=30),\n",
      "    Message('note_on', channel=9, note=33, velocity=0, time=0),\n",
      "    Message('note_on', channel=9, note=44, velocity=100, time=0),\n",
      "    Message('note_on', channel=9, note=33, velocity=100, time=0),\n",
      "    Message('note_on', channel=9, note=44, velocity=0, time=30),\n",
      "    Message('note_on', channel=9, note=33, velocity=0, time=30),\n",
      "    Message('note_on', channel=9, note=44, velocity=100, time=0),\n",
      "    Message('note_on', channel=9, note=44, velocity=0, time=30),\n",
      "    Message('note_on', channel=9, note=44, velocity=100, time=0),\n",
      "    Message('note_on', channel=9, note=44, velocity=0, time=30),\n",
      "    Message('note_on', channel=9, note=81, velocity=100, time=0),\n",
      "    Message('note_on', channel=9, note=40, velocity=100, time=0),\n",
      "    Message('note_on', channel=9, note=44, velocity=100, time=0),\n",
      "    Message('note_on', channel=9, note=44, velocity=0, time=30),\n",
      "    Message('note_on', channel=9, note=40, velocity=0, time=0),\n",
      "    Message('note_on', channel=9, note=44, velocity=100, time=30),\n",
      "    Message('note_on', channel=9, note=44, velocity=0, time=30),\n",
      "    Message('note_on', channel=9, note=44, velocity=100, time=0),\n",
      "    Message('note_on', channel=9, note=44, velocity=0, time=30),\n",
      "    Message('note_on', channel=9, note=81, velocity=0, time=0),\n",
      "    Message('note_on', channel=9, note=44, velocity=100, time=0),\n",
      "    Message('note_on', channel=9, note=33, velocity=100, time=0),\n",
      "    Message('note_on', channel=9, note=44, velocity=0, time=30),\n",
      "    Message('note_on', channel=9, note=33, velocity=0, time=30),\n",
      "    Message('note_on', channel=9, note=44, velocity=100, time=0),\n",
      "    Message('note_on', channel=9, note=44, velocity=0, time=30),\n",
      "    Message('note_on', channel=9, note=44, velocity=100, time=0),\n",
      "    Message('note_on', channel=9, note=44, velocity=0, time=30),\n",
      "    Message('note_on', channel=9, note=40, velocity=100, time=0),\n",
      "    Message('note_on', channel=9, note=44, velocity=100, time=0),\n",
      "    Message('note_on', channel=9, note=44, velocity=0, time=30),\n",
      "    Message('note_on', channel=9, note=40, velocity=0, time=30),\n",
      "    Message('note_on', channel=9, note=44, velocity=100, time=0),\n",
      "    Message('note_on', channel=9, note=33, velocity=100, time=0),\n",
      "    Message('note_on', channel=9, note=44, velocity=0, time=30),\n",
      "    Message('note_on', channel=9, note=44, velocity=100, time=0),\n",
      "    Message('note_on', channel=9, note=44, velocity=0, time=30),\n",
      "    Message('note_on', channel=9, note=33, velocity=0, time=0),\n",
      "    Message('note_on', channel=9, note=44, velocity=100, time=0),\n",
      "    Message('note_on', channel=9, note=33, velocity=100, time=0),\n",
      "    Message('note_on', channel=9, note=44, velocity=0, time=30),\n",
      "    Message('note_on', channel=9, note=33, velocity=0, time=30),\n",
      "    Message('note_on', channel=9, note=44, velocity=100, time=0),\n",
      "    Message('note_on', channel=9, note=44, velocity=0, time=30),\n",
      "    Message('note_on', channel=9, note=44, velocity=100, time=0),\n",
      "    Message('note_on', channel=9, note=44, velocity=0, time=30),\n",
      "    Message('note_on', channel=9, note=81, velocity=100, time=0),\n",
      "    Message('note_on', channel=9, note=40, velocity=100, time=0),\n",
      "    Message('note_on', channel=9, note=44, velocity=100, time=0),\n",
      "    Message('note_on', channel=9, note=44, velocity=0, time=30),\n",
      "    Message('note_on', channel=9, note=40, velocity=0, time=0),\n",
      "    Message('note_on', channel=9, note=44, velocity=100, time=30),\n",
      "    Message('note_on', channel=9, note=44, velocity=0, time=30),\n",
      "    Message('note_on', channel=9, note=44, velocity=100, time=0),\n",
      "    Message('note_on', channel=9, note=44, velocity=0, time=30),\n",
      "    Message('note_on', channel=9, note=81, velocity=0, time=0),\n",
      "    Message('note_on', channel=9, note=44, velocity=100, time=0),\n",
      "    Message('note_on', channel=9, note=33, velocity=100, time=0),\n",
      "    Message('note_on', channel=9, note=44, velocity=0, time=30),\n",
      "    Message('note_on', channel=9, note=33, velocity=0, time=30),\n",
      "    Message('note_on', channel=9, note=44, velocity=100, time=0),\n",
      "    Message('note_on', channel=9, note=44, velocity=0, time=30),\n",
      "    Message('note_on', channel=9, note=44, velocity=100, time=0),\n",
      "    Message('note_on', channel=9, note=44, velocity=0, time=30),\n",
      "    Message('note_on', channel=9, note=40, velocity=100, time=0),\n",
      "    Message('note_on', channel=9, note=44, velocity=100, time=0),\n",
      "    Message('note_on', channel=9, note=44, velocity=0, time=30),\n",
      "    Message('note_on', channel=9, note=40, velocity=0, time=30),\n",
      "    Message('note_on', channel=9, note=44, velocity=100, time=0),\n",
      "    Message('note_on', channel=9, note=33, velocity=100, time=0),\n",
      "    Message('note_on', channel=9, note=44, velocity=0, time=30),\n",
      "    Message('note_on', channel=9, note=44, velocity=100, time=0),\n",
      "    Message('note_on', channel=9, note=44, velocity=0, time=30),\n",
      "    Message('note_on', channel=9, note=33, velocity=0, time=0),\n",
      "    Message('note_on', channel=9, note=44, velocity=100, time=0),\n",
      "    Message('note_on', channel=9, note=33, velocity=100, time=0),\n",
      "    Message('note_on', channel=9, note=44, velocity=0, time=30),\n",
      "    Message('note_on', channel=9, note=33, velocity=0, time=30),\n",
      "    Message('note_on', channel=9, note=44, velocity=100, time=0),\n",
      "    Message('note_on', channel=9, note=44, velocity=0, time=30),\n",
      "    Message('note_on', channel=9, note=44, velocity=100, time=0),\n",
      "    Message('note_on', channel=9, note=44, velocity=0, time=30),\n",
      "    Message('note_on', channel=9, note=81, velocity=100, time=0),\n",
      "    Message('note_on', channel=9, note=40, velocity=100, time=0),\n",
      "    Message('note_on', channel=9, note=44, velocity=100, time=0),\n",
      "    Message('note_on', channel=9, note=44, velocity=0, time=30),\n",
      "    Message('note_on', channel=9, note=40, velocity=0, time=0),\n",
      "    Message('note_on', channel=9, note=44, velocity=100, time=30),\n",
      "    Message('note_on', channel=9, note=44, velocity=0, time=30),\n",
      "    Message('note_on', channel=9, note=44, velocity=100, time=0),\n",
      "    Message('note_on', channel=9, note=44, velocity=0, time=30),\n",
      "    Message('note_on', channel=9, note=81, velocity=0, time=0),\n",
      "    Message('note_on', channel=9, note=44, velocity=100, time=0),\n",
      "    Message('note_on', channel=9, note=33, velocity=100, time=0),\n",
      "    Message('note_on', channel=9, note=44, velocity=0, time=30),\n",
      "    Message('note_on', channel=9, note=33, velocity=0, time=30),\n",
      "    Message('note_on', channel=9, note=44, velocity=100, time=0),\n",
      "    Message('note_on', channel=9, note=44, velocity=0, time=30),\n",
      "    Message('note_on', channel=9, note=44, velocity=100, time=0),\n",
      "    Message('note_on', channel=9, note=44, velocity=0, time=30),\n",
      "    Message('note_on', channel=9, note=40, velocity=100, time=0),\n",
      "    Message('note_on', channel=9, note=44, velocity=100, time=0),\n",
      "    Message('note_on', channel=9, note=44, velocity=0, time=30),\n",
      "    Message('note_on', channel=9, note=40, velocity=0, time=30),\n",
      "    Message('note_on', channel=9, note=44, velocity=100, time=0),\n",
      "    Message('note_on', channel=9, note=33, velocity=100, time=0),\n",
      "    Message('note_on', channel=9, note=44, velocity=0, time=30),\n",
      "    Message('note_on', channel=9, note=44, velocity=100, time=0),\n",
      "    Message('note_on', channel=9, note=44, velocity=0, time=30),\n",
      "    Message('note_on', channel=9, note=33, velocity=0, time=0),\n",
      "    Message('note_on', channel=9, note=44, velocity=100, time=0),\n",
      "    Message('note_on', channel=9, note=33, velocity=100, time=0),\n",
      "    Message('note_on', channel=9, note=44, velocity=0, time=30),\n",
      "    Message('note_on', channel=9, note=33, velocity=0, time=30),\n",
      "    Message('note_on', channel=9, note=44, velocity=100, time=0),\n",
      "    Message('note_on', channel=9, note=44, velocity=0, time=30),\n",
      "    Message('note_on', channel=9, note=44, velocity=100, time=0),\n",
      "    Message('note_on', channel=9, note=44, velocity=0, time=30),\n",
      "    Message('note_on', channel=9, note=81, velocity=100, time=0),\n",
      "    Message('note_on', channel=9, note=40, velocity=100, time=0),\n",
      "    Message('note_on', channel=9, note=44, velocity=100, time=0),\n",
      "    Message('note_on', channel=9, note=44, velocity=0, time=30),\n",
      "    Message('note_on', channel=9, note=40, velocity=0, time=0),\n",
      "    Message('note_on', channel=9, note=44, velocity=100, time=30),\n",
      "    Message('note_on', channel=9, note=44, velocity=0, time=30),\n",
      "    Message('note_on', channel=9, note=44, velocity=100, time=0),\n",
      "    Message('note_on', channel=9, note=44, velocity=0, time=30),\n",
      "    Message('note_on', channel=9, note=81, velocity=0, time=0),\n",
      "    Message('note_on', channel=9, note=44, velocity=100, time=0),\n",
      "    Message('note_on', channel=9, note=33, velocity=100, time=0),\n",
      "    Message('note_on', channel=9, note=44, velocity=0, time=30),\n",
      "    Message('note_on', channel=9, note=33, velocity=0, time=30),\n",
      "    Message('note_on', channel=9, note=44, velocity=100, time=0),\n",
      "    Message('note_on', channel=9, note=44, velocity=0, time=30),\n",
      "    Message('note_on', channel=9, note=44, velocity=100, time=0),\n",
      "    Message('note_on', channel=9, note=44, velocity=0, time=30),\n",
      "    Message('note_on', channel=9, note=40, velocity=100, time=0),\n",
      "    Message('note_on', channel=9, note=44, velocity=100, time=0),\n",
      "    Message('note_on', channel=9, note=44, velocity=0, time=30),\n",
      "    Message('note_on', channel=9, note=40, velocity=0, time=30),\n",
      "    Message('note_on', channel=9, note=44, velocity=100, time=0),\n",
      "    Message('note_on', channel=9, note=33, velocity=100, time=0),\n",
      "    Message('note_on', channel=9, note=44, velocity=0, time=30),\n",
      "    Message('note_on', channel=9, note=44, velocity=100, time=0),\n",
      "    Message('note_on', channel=9, note=44, velocity=0, time=30),\n",
      "    Message('note_on', channel=9, note=33, velocity=0, time=0),\n",
      "    Message('note_on', channel=9, note=44, velocity=100, time=0),\n",
      "    Message('note_on', channel=9, note=33, velocity=100, time=0),\n",
      "    Message('note_on', channel=9, note=44, velocity=0, time=30),\n",
      "    Message('note_on', channel=9, note=33, velocity=0, time=30),\n",
      "    Message('note_on', channel=9, note=50, velocity=100, time=0),\n",
      "    Message('note_on', channel=9, note=44, velocity=100, time=0),\n",
      "    Message('note_on', channel=9, note=44, velocity=0, time=30),\n",
      "    Message('note_on', channel=9, note=44, velocity=100, time=0),\n",
      "    Message('note_on', channel=9, note=44, velocity=0, time=30),\n",
      "    Message('note_on', channel=9, note=50, velocity=0, time=0),\n",
      "    Message('note_on', channel=9, note=47, velocity=100, time=0),\n",
      "    Message('note_on', channel=9, note=81, velocity=100, time=0),\n",
      "    Message('note_on', channel=9, note=40, velocity=100, time=0),\n",
      "    Message('note_on', channel=9, note=44, velocity=100, time=0),\n",
      "    Message('note_on', channel=9, note=44, velocity=0, time=30),\n",
      "    Message('note_on', channel=9, note=40, velocity=0, time=0),\n",
      "    Message('note_on', channel=9, note=47, velocity=0, time=30),\n",
      "    Message('note_on', channel=9, note=45, velocity=100, time=0),\n",
      "    Message('note_on', channel=9, note=44, velocity=100, time=0),\n",
      "    Message('note_on', channel=9, note=44, velocity=0, time=30),\n",
      "    Message('note_on', channel=9, note=45, velocity=0, time=0),\n",
      "    Message('note_on', channel=9, note=44, velocity=100, time=0),\n",
      "    Message('note_on', channel=9, note=44, velocity=0, time=30),\n",
      "    Message('note_on', channel=9, note=81, velocity=0, time=0),\n",
      "    Message('note_on', channel=9, note=44, velocity=100, time=0),\n",
      "    Message('note_on', channel=9, note=33, velocity=100, time=0),\n",
      "    Message('note_on', channel=9, note=44, velocity=0, time=30),\n",
      "    Message('note_on', channel=9, note=33, velocity=0, time=30),\n",
      "    Message('note_on', channel=9, note=44, velocity=100, time=0),\n",
      "    Message('note_on', channel=9, note=44, velocity=0, time=30),\n",
      "    Message('note_on', channel=9, note=44, velocity=100, time=0),\n",
      "    Message('note_on', channel=9, note=44, velocity=0, time=30),\n",
      "    Message('note_on', channel=9, note=40, velocity=100, time=0),\n",
      "    Message('note_on', channel=9, note=44, velocity=100, time=0),\n",
      "    Message('note_on', channel=9, note=44, velocity=0, time=30),\n",
      "    Message('note_on', channel=9, note=40, velocity=0, time=30),\n",
      "    Message('note_on', channel=9, note=44, velocity=100, time=0),\n",
      "    Message('note_on', channel=9, note=33, velocity=100, time=0),\n",
      "    Message('note_on', channel=9, note=44, velocity=0, time=30),\n",
      "    Message('note_on', channel=9, note=44, velocity=100, time=0),\n",
      "    Message('note_on', channel=9, note=44, velocity=0, time=30),\n",
      "    Message('note_on', channel=9, note=33, velocity=0, time=0),\n",
      "    Message('note_on', channel=9, note=44, velocity=100, time=0),\n",
      "    Message('note_on', channel=9, note=33, velocity=100, time=0),\n",
      "    Message('note_on', channel=9, note=44, velocity=0, time=30),\n",
      "    Message('note_on', channel=9, note=33, velocity=0, time=30),\n",
      "    Message('note_on', channel=9, note=44, velocity=100, time=0),\n",
      "    Message('note_on', channel=9, note=44, velocity=0, time=30),\n",
      "    Message('note_on', channel=9, note=44, velocity=100, time=0),\n",
      "    Message('note_on', channel=9, note=44, velocity=0, time=30),\n",
      "    Message('note_on', channel=9, note=81, velocity=100, time=0),\n",
      "    Message('note_on', channel=9, note=40, velocity=100, time=0),\n",
      "    Message('note_on', channel=9, note=44, velocity=100, time=0),\n",
      "    Message('note_on', channel=9, note=44, velocity=0, time=30),\n",
      "    Message('note_on', channel=9, note=40, velocity=0, time=0),\n",
      "    Message('note_on', channel=9, note=44, velocity=100, time=30),\n",
      "    Message('note_on', channel=9, note=44, velocity=0, time=30),\n",
      "    Message('note_on', channel=9, note=44, velocity=100, time=0),\n",
      "    Message('note_on', channel=9, note=44, velocity=0, time=30),\n",
      "    Message('note_on', channel=9, note=81, velocity=0, time=0),\n",
      "    Message('note_on', channel=9, note=44, velocity=100, time=0),\n",
      "    Message('note_on', channel=9, note=33, velocity=100, time=0),\n",
      "    Message('note_on', channel=9, note=44, velocity=0, time=30),\n",
      "    Message('note_on', channel=9, note=33, velocity=0, time=30),\n",
      "    Message('note_on', channel=9, note=44, velocity=100, time=0),\n",
      "    Message('note_on', channel=9, note=44, velocity=0, time=30),\n",
      "    Message('note_on', channel=9, note=44, velocity=100, time=0),\n",
      "    Message('note_on', channel=9, note=44, velocity=0, time=30),\n",
      "    Message('note_on', channel=9, note=40, velocity=100, time=0),\n",
      "    Message('note_on', channel=9, note=44, velocity=100, time=0),\n",
      "    Message('note_on', channel=9, note=44, velocity=0, time=30),\n",
      "    Message('note_on', channel=9, note=40, velocity=0, time=30),\n",
      "    Message('note_on', channel=9, note=44, velocity=100, time=0),\n",
      "    Message('note_on', channel=9, note=33, velocity=100, time=0),\n",
      "    Message('note_on', channel=9, note=44, velocity=0, time=30),\n",
      "    Message('note_on', channel=9, note=44, velocity=100, time=0),\n",
      "    Message('note_on', channel=9, note=44, velocity=0, time=30),\n",
      "    Message('note_on', channel=9, note=33, velocity=0, time=0),\n",
      "    Message('note_on', channel=9, note=44, velocity=100, time=0),\n",
      "    Message('note_on', channel=9, note=33, velocity=100, time=0),\n",
      "    Message('note_on', channel=9, note=44, velocity=0, time=30),\n",
      "    Message('note_on', channel=9, note=33, velocity=0, time=30),\n",
      "    Message('note_on', channel=9, note=44, velocity=100, time=0),\n",
      "    Message('note_on', channel=9, note=44, velocity=0, time=30),\n",
      "    Message('note_on', channel=9, note=44, velocity=100, time=0),\n",
      "    Message('note_on', channel=9, note=44, velocity=0, time=30),\n",
      "    Message('note_on', channel=9, note=81, velocity=100, time=0),\n",
      "    Message('note_on', channel=9, note=40, velocity=100, time=0),\n",
      "    Message('note_on', channel=9, note=44, velocity=100, time=0),\n",
      "    Message('note_on', channel=9, note=44, velocity=0, time=30),\n",
      "    Message('note_on', channel=9, note=40, velocity=0, time=0),\n",
      "    Message('note_on', channel=9, note=44, velocity=100, time=30),\n",
      "    Message('note_on', channel=9, note=44, velocity=0, time=30),\n",
      "    Message('note_on', channel=9, note=44, velocity=100, time=0),\n",
      "    Message('note_on', channel=9, note=44, velocity=0, time=30),\n",
      "    Message('note_on', channel=9, note=81, velocity=0, time=0),\n",
      "    Message('note_on', channel=9, note=44, velocity=100, time=0),\n",
      "    Message('note_on', channel=9, note=33, velocity=100, time=0),\n",
      "    Message('note_on', channel=9, note=44, velocity=0, time=30),\n",
      "    Message('note_on', channel=9, note=33, velocity=0, time=30),\n",
      "    Message('note_on', channel=9, note=44, velocity=100, time=0),\n",
      "    Message('note_on', channel=9, note=44, velocity=0, time=30),\n",
      "    Message('note_on', channel=9, note=44, velocity=100, time=0),\n",
      "    Message('note_on', channel=9, note=44, velocity=0, time=30),\n",
      "    Message('note_on', channel=9, note=40, velocity=100, time=0),\n",
      "    Message('note_on', channel=9, note=44, velocity=100, time=0),\n",
      "    Message('note_on', channel=9, note=44, velocity=0, time=30),\n",
      "    Message('note_on', channel=9, note=40, velocity=0, time=30),\n",
      "    Message('note_on', channel=9, note=44, velocity=100, time=0),\n",
      "    Message('note_on', channel=9, note=33, velocity=100, time=0),\n",
      "    Message('note_on', channel=9, note=44, velocity=0, time=30),\n",
      "    Message('note_on', channel=9, note=44, velocity=100, time=0),\n",
      "    Message('note_on', channel=9, note=44, velocity=0, time=30),\n",
      "    Message('note_on', channel=9, note=33, velocity=0, time=0),\n",
      "    Message('note_on', channel=9, note=44, velocity=100, time=0),\n",
      "    Message('note_on', channel=9, note=33, velocity=100, time=0),\n",
      "    Message('note_on', channel=9, note=44, velocity=0, time=30),\n",
      "    Message('note_on', channel=9, note=33, velocity=0, time=30),\n",
      "    Message('note_on', channel=9, note=44, velocity=100, time=0),\n",
      "    Message('note_on', channel=9, note=44, velocity=0, time=30),\n",
      "    Message('note_on', channel=9, note=44, velocity=100, time=0),\n",
      "    Message('note_on', channel=9, note=44, velocity=0, time=30),\n",
      "    Message('note_on', channel=9, note=81, velocity=100, time=0),\n",
      "    Message('note_on', channel=9, note=40, velocity=100, time=0),\n",
      "    Message('note_on', channel=9, note=44, velocity=100, time=0),\n",
      "    Message('note_on', channel=9, note=44, velocity=0, time=30),\n",
      "    Message('note_on', channel=9, note=40, velocity=0, time=0),\n",
      "    Message('note_on', channel=9, note=44, velocity=100, time=30),\n",
      "    Message('note_on', channel=9, note=44, velocity=0, time=30),\n",
      "    Message('note_on', channel=9, note=44, velocity=100, time=0),\n",
      "    Message('note_on', channel=9, note=44, velocity=0, time=30),\n",
      "    Message('note_on', channel=9, note=81, velocity=0, time=0),\n",
      "    Message('note_on', channel=9, note=44, velocity=100, time=0),\n",
      "    Message('note_on', channel=9, note=33, velocity=100, time=0),\n",
      "    Message('note_on', channel=9, note=44, velocity=0, time=30),\n",
      "    Message('note_on', channel=9, note=33, velocity=0, time=30),\n",
      "    Message('note_on', channel=9, note=44, velocity=100, time=0),\n",
      "    Message('note_on', channel=9, note=44, velocity=0, time=30),\n",
      "    Message('note_on', channel=9, note=44, velocity=100, time=0),\n",
      "    Message('note_on', channel=9, note=44, velocity=0, time=30),\n",
      "    Message('note_on', channel=9, note=40, velocity=100, time=0),\n",
      "    Message('note_on', channel=9, note=44, velocity=100, time=0),\n",
      "    Message('note_on', channel=9, note=44, velocity=0, time=30),\n",
      "    Message('note_on', channel=9, note=40, velocity=0, time=30),\n",
      "    Message('note_on', channel=9, note=44, velocity=100, time=0),\n",
      "    Message('note_on', channel=9, note=33, velocity=100, time=0),\n",
      "    Message('note_on', channel=9, note=44, velocity=0, time=30),\n",
      "    Message('note_on', channel=9, note=44, velocity=100, time=0),\n",
      "    Message('note_on', channel=9, note=44, velocity=0, time=30),\n",
      "    Message('note_on', channel=9, note=33, velocity=0, time=0),\n",
      "    Message('note_on', channel=9, note=44, velocity=100, time=0),\n",
      "    Message('note_on', channel=9, note=33, velocity=100, time=0),\n",
      "    Message('note_on', channel=9, note=44, velocity=0, time=30),\n",
      "    Message('note_on', channel=9, note=33, velocity=0, time=30),\n",
      "    Message('note_on', channel=9, note=50, velocity=100, time=0),\n",
      "    Message('note_on', channel=9, note=44, velocity=100, time=0),\n",
      "    Message('note_on', channel=9, note=44, velocity=0, time=30),\n",
      "    Message('note_on', channel=9, note=44, velocity=100, time=0),\n",
      "    Message('note_on', channel=9, note=44, velocity=0, time=30),\n",
      "    Message('note_on', channel=9, note=50, velocity=0, time=0),\n",
      "    Message('note_on', channel=9, note=45, velocity=100, time=0),\n",
      "    Message('note_on', channel=9, note=81, velocity=100, time=0),\n",
      "    Message('note_on', channel=9, note=40, velocity=100, time=0),\n",
      "    Message('note_on', channel=9, note=44, velocity=100, time=0),\n",
      "    Message('note_on', channel=9, note=44, velocity=0, time=30),\n",
      "    Message('note_on', channel=9, note=40, velocity=0, time=0),\n",
      "    Message('note_on', channel=9, note=45, velocity=0, time=30),\n",
      "    Message('note_on', channel=9, note=43, velocity=100, time=0),\n",
      "    Message('note_on', channel=9, note=44, velocity=100, time=0),\n",
      "    Message('note_on', channel=9, note=44, velocity=0, time=30),\n",
      "    Message('note_on', channel=9, note=43, velocity=0, time=0),\n",
      "    Message('note_on', channel=9, note=44, velocity=100, time=0),\n",
      "    Message('note_on', channel=9, note=44, velocity=0, time=30),\n",
      "    Message('note_on', channel=9, note=81, velocity=0, time=0),\n",
      "    Message('note_on', channel=9, note=44, velocity=100, time=0),\n",
      "    Message('note_on', channel=9, note=33, velocity=100, time=0),\n",
      "    Message('note_on', channel=9, note=44, velocity=0, time=30),\n",
      "    Message('note_on', channel=9, note=33, velocity=0, time=30),\n",
      "    Message('note_on', channel=9, note=44, velocity=100, time=0),\n",
      "    Message('note_on', channel=9, note=44, velocity=0, time=30),\n",
      "    Message('note_on', channel=9, note=44, velocity=100, time=0),\n",
      "    Message('note_on', channel=9, note=44, velocity=0, time=30),\n",
      "    Message('note_on', channel=9, note=40, velocity=100, time=0),\n",
      "    Message('note_on', channel=9, note=44, velocity=100, time=0),\n",
      "    Message('note_on', channel=9, note=44, velocity=0, time=30),\n",
      "    Message('note_on', channel=9, note=40, velocity=0, time=30),\n",
      "    Message('note_on', channel=9, note=44, velocity=100, time=0),\n",
      "    Message('note_on', channel=9, note=33, velocity=100, time=0),\n",
      "    Message('note_on', channel=9, note=44, velocity=0, time=30),\n",
      "    Message('note_on', channel=9, note=44, velocity=100, time=0),\n",
      "    Message('note_on', channel=9, note=44, velocity=0, time=30),\n",
      "    Message('note_on', channel=9, note=33, velocity=0, time=0),\n",
      "    Message('note_on', channel=9, note=44, velocity=100, time=0),\n",
      "    Message('note_on', channel=9, note=33, velocity=100, time=0),\n",
      "    Message('note_on', channel=9, note=44, velocity=0, time=30),\n",
      "    Message('note_on', channel=9, note=33, velocity=0, time=30),\n",
      "    Message('note_on', channel=9, note=44, velocity=100, time=0),\n",
      "    Message('note_on', channel=9, note=44, velocity=0, time=30),\n",
      "    Message('note_on', channel=9, note=44, velocity=100, time=0),\n",
      "    Message('note_on', channel=9, note=44, velocity=0, time=30),\n",
      "    Message('note_on', channel=9, note=81, velocity=100, time=0),\n",
      "    Message('note_on', channel=9, note=40, velocity=100, time=0),\n",
      "    Message('note_on', channel=9, note=44, velocity=100, time=0),\n",
      "    Message('note_on', channel=9, note=44, velocity=0, time=30),\n",
      "    Message('note_on', channel=9, note=40, velocity=0, time=0),\n",
      "    Message('note_on', channel=9, note=44, velocity=100, time=30),\n",
      "    Message('note_on', channel=9, note=44, velocity=0, time=30),\n",
      "    Message('note_on', channel=9, note=44, velocity=100, time=0),\n",
      "    Message('note_on', channel=9, note=44, velocity=0, time=30),\n",
      "    Message('note_on', channel=9, note=81, velocity=0, time=0),\n",
      "    Message('note_on', channel=9, note=44, velocity=100, time=0),\n",
      "    Message('note_on', channel=9, note=33, velocity=100, time=0),\n",
      "    Message('note_on', channel=9, note=44, velocity=0, time=30),\n",
      "    Message('note_on', channel=9, note=33, velocity=0, time=30),\n",
      "    Message('note_on', channel=9, note=44, velocity=100, time=0),\n",
      "    Message('note_on', channel=9, note=44, velocity=0, time=30),\n",
      "    Message('note_on', channel=9, note=44, velocity=100, time=0),\n",
      "    Message('note_on', channel=9, note=44, velocity=0, time=30),\n",
      "    Message('note_on', channel=9, note=40, velocity=100, time=0),\n",
      "    Message('note_on', channel=9, note=44, velocity=100, time=0),\n",
      "    Message('note_on', channel=9, note=44, velocity=0, time=30),\n",
      "    Message('note_on', channel=9, note=40, velocity=0, time=30),\n",
      "    Message('note_on', channel=9, note=44, velocity=100, time=0),\n",
      "    Message('note_on', channel=9, note=33, velocity=100, time=0),\n",
      "    Message('note_on', channel=9, note=44, velocity=0, time=30),\n",
      "    Message('note_on', channel=9, note=44, velocity=100, time=0),\n",
      "    Message('note_on', channel=9, note=44, velocity=0, time=30),\n",
      "    Message('note_on', channel=9, note=33, velocity=0, time=0),\n",
      "    Message('note_on', channel=9, note=44, velocity=100, time=0),\n",
      "    Message('note_on', channel=9, note=33, velocity=100, time=0),\n",
      "    Message('note_on', channel=9, note=44, velocity=0, time=30),\n",
      "    Message('note_on', channel=9, note=33, velocity=0, time=30),\n",
      "    Message('note_on', channel=9, note=44, velocity=100, time=0),\n",
      "    Message('note_on', channel=9, note=44, velocity=0, time=30),\n",
      "    Message('note_on', channel=9, note=44, velocity=100, time=0),\n",
      "    Message('note_on', channel=9, note=44, velocity=0, time=30),\n",
      "    Message('note_on', channel=9, note=81, velocity=100, time=0),\n",
      "    Message('note_on', channel=9, note=40, velocity=100, time=0),\n",
      "    Message('note_on', channel=9, note=44, velocity=100, time=0),\n",
      "    Message('note_on', channel=9, note=44, velocity=0, time=30),\n",
      "    Message('note_on', channel=9, note=40, velocity=0, time=0),\n",
      "    Message('note_on', channel=9, note=44, velocity=100, time=30),\n",
      "    Message('note_on', channel=9, note=44, velocity=0, time=30),\n",
      "    Message('note_on', channel=9, note=44, velocity=100, time=0),\n",
      "    Message('note_on', channel=9, note=44, velocity=0, time=30),\n",
      "    Message('note_on', channel=9, note=81, velocity=0, time=0),\n",
      "    Message('note_on', channel=9, note=44, velocity=100, time=0),\n",
      "    Message('note_on', channel=9, note=33, velocity=100, time=0),\n",
      "    Message('note_on', channel=9, note=44, velocity=0, time=30),\n",
      "    Message('note_on', channel=9, note=33, velocity=0, time=30),\n",
      "    Message('note_on', channel=9, note=44, velocity=100, time=0),\n",
      "    Message('note_on', channel=9, note=44, velocity=0, time=30),\n",
      "    Message('note_on', channel=9, note=44, velocity=100, time=0),\n",
      "    Message('note_on', channel=9, note=44, velocity=0, time=30),\n",
      "    Message('note_on', channel=9, note=40, velocity=100, time=0),\n",
      "    Message('note_on', channel=9, note=44, velocity=100, time=0),\n",
      "    Message('note_on', channel=9, note=44, velocity=0, time=30),\n",
      "    Message('note_on', channel=9, note=40, velocity=0, time=30),\n",
      "    Message('note_on', channel=9, note=44, velocity=100, time=0),\n",
      "    Message('note_on', channel=9, note=33, velocity=100, time=0),\n",
      "    Message('note_on', channel=9, note=44, velocity=0, time=30),\n",
      "    Message('note_on', channel=9, note=44, velocity=100, time=0),\n",
      "    Message('note_on', channel=9, note=44, velocity=0, time=30),\n",
      "    Message('note_on', channel=9, note=33, velocity=0, time=0),\n",
      "    Message('note_on', channel=9, note=44, velocity=100, time=0),\n",
      "    Message('note_on', channel=9, note=33, velocity=100, time=0),\n",
      "    Message('note_on', channel=9, note=44, velocity=0, time=30),\n",
      "    Message('note_on', channel=9, note=33, velocity=0, time=30),\n",
      "    Message('note_on', channel=9, note=44, velocity=100, time=0),\n",
      "    Message('note_on', channel=9, note=44, velocity=0, time=30),\n",
      "    Message('note_on', channel=9, note=44, velocity=100, time=0),\n",
      "    Message('note_on', channel=9, note=44, velocity=0, time=30),\n",
      "    Message('note_on', channel=9, note=81, velocity=100, time=0),\n",
      "    Message('note_on', channel=9, note=40, velocity=100, time=0),\n",
      "    Message('note_on', channel=9, note=44, velocity=100, time=0),\n",
      "    Message('note_on', channel=9, note=44, velocity=0, time=30),\n",
      "    Message('note_on', channel=9, note=40, velocity=0, time=0),\n",
      "    Message('note_on', channel=9, note=44, velocity=100, time=30),\n",
      "    Message('note_on', channel=9, note=44, velocity=0, time=30),\n",
      "    Message('note_on', channel=9, note=44, velocity=100, time=0),\n",
      "    Message('note_on', channel=9, note=44, velocity=0, time=30),\n",
      "    Message('note_on', channel=9, note=81, velocity=0, time=0),\n",
      "    Message('note_on', channel=9, note=44, velocity=100, time=0),\n",
      "    Message('note_on', channel=9, note=33, velocity=100, time=0),\n",
      "    Message('note_on', channel=9, note=44, velocity=0, time=30),\n",
      "    Message('note_on', channel=9, note=33, velocity=0, time=30),\n",
      "    Message('note_on', channel=9, note=44, velocity=100, time=0),\n",
      "    Message('note_on', channel=9, note=44, velocity=0, time=30),\n",
      "    Message('note_on', channel=9, note=44, velocity=100, time=0),\n",
      "    Message('note_on', channel=9, note=44, velocity=0, time=30),\n",
      "    Message('note_on', channel=9, note=40, velocity=100, time=0),\n",
      "    Message('note_on', channel=9, note=44, velocity=100, time=0),\n",
      "    Message('note_on', channel=9, note=44, velocity=0, time=30),\n",
      "    Message('note_on', channel=9, note=40, velocity=0, time=30),\n",
      "    Message('note_on', channel=9, note=44, velocity=100, time=0),\n",
      "    Message('note_on', channel=9, note=33, velocity=100, time=0),\n",
      "    Message('note_on', channel=9, note=44, velocity=0, time=30),\n",
      "    Message('note_on', channel=9, note=44, velocity=100, time=0),\n",
      "    Message('note_on', channel=9, note=44, velocity=0, time=30),\n",
      "    Message('note_on', channel=9, note=33, velocity=0, time=0),\n",
      "    Message('note_on', channel=9, note=44, velocity=100, time=0),\n",
      "    Message('note_on', channel=9, note=33, velocity=100, time=0),\n",
      "    Message('note_on', channel=9, note=44, velocity=0, time=30),\n",
      "    Message('note_on', channel=9, note=33, velocity=0, time=30),\n",
      "    Message('note_on', channel=9, note=44, velocity=100, time=0),\n",
      "    Message('note_on', channel=9, note=44, velocity=0, time=30),\n",
      "    Message('note_on', channel=9, note=44, velocity=100, time=0),\n",
      "    Message('note_on', channel=9, note=44, velocity=0, time=30),\n",
      "    Message('note_on', channel=9, note=81, velocity=100, time=0),\n",
      "    Message('note_on', channel=9, note=40, velocity=100, time=0),\n",
      "    Message('note_on', channel=9, note=44, velocity=100, time=0),\n",
      "    Message('note_on', channel=9, note=44, velocity=0, time=30),\n",
      "    Message('note_on', channel=9, note=40, velocity=0, time=0),\n",
      "    Message('note_on', channel=9, note=44, velocity=100, time=30),\n",
      "    Message('note_on', channel=9, note=44, velocity=0, time=30),\n",
      "    Message('note_on', channel=9, note=44, velocity=100, time=0),\n",
      "    Message('note_on', channel=9, note=44, velocity=0, time=30),\n",
      "    Message('note_on', channel=9, note=81, velocity=0, time=0),\n",
      "    Message('note_on', channel=9, note=44, velocity=100, time=0),\n",
      "    Message('note_on', channel=9, note=33, velocity=100, time=0),\n",
      "    Message('note_on', channel=9, note=44, velocity=0, time=30),\n",
      "    Message('note_on', channel=9, note=33, velocity=0, time=30),\n",
      "    Message('note_on', channel=9, note=44, velocity=100, time=0),\n",
      "    Message('note_on', channel=9, note=44, velocity=0, time=30),\n",
      "    Message('note_on', channel=9, note=44, velocity=100, time=0),\n",
      "    Message('note_on', channel=9, note=44, velocity=0, time=30),\n",
      "    Message('note_on', channel=9, note=40, velocity=100, time=0),\n",
      "    Message('note_on', channel=9, note=44, velocity=100, time=0),\n",
      "    Message('note_on', channel=9, note=44, velocity=0, time=30),\n",
      "    Message('note_on', channel=9, note=40, velocity=0, time=30),\n",
      "    Message('note_on', channel=9, note=44, velocity=100, time=0),\n",
      "    Message('note_on', channel=9, note=33, velocity=100, time=0),\n",
      "    Message('note_on', channel=9, note=44, velocity=0, time=30),\n",
      "    Message('note_on', channel=9, note=44, velocity=100, time=0),\n",
      "    Message('note_on', channel=9, note=44, velocity=0, time=30),\n",
      "    Message('note_on', channel=9, note=33, velocity=0, time=0),\n",
      "    Message('note_on', channel=9, note=44, velocity=100, time=0),\n",
      "    Message('note_on', channel=9, note=33, velocity=100, time=0),\n",
      "    Message('note_on', channel=9, note=44, velocity=0, time=30),\n",
      "    Message('note_on', channel=9, note=33, velocity=0, time=30),\n",
      "    Message('note_on', channel=9, note=44, velocity=100, time=0),\n",
      "    Message('note_on', channel=9, note=44, velocity=0, time=30),\n",
      "    Message('note_on', channel=9, note=44, velocity=100, time=0),\n",
      "    Message('note_on', channel=9, note=44, velocity=0, time=30),\n",
      "    Message('note_on', channel=9, note=81, velocity=100, time=0),\n",
      "    Message('note_on', channel=9, note=40, velocity=100, time=0),\n",
      "    Message('note_on', channel=9, note=44, velocity=100, time=0),\n",
      "    Message('note_on', channel=9, note=44, velocity=0, time=30),\n",
      "    Message('note_on', channel=9, note=40, velocity=0, time=0),\n",
      "    Message('note_on', channel=9, note=44, velocity=100, time=30),\n",
      "    Message('note_on', channel=9, note=44, velocity=0, time=30),\n",
      "    Message('note_on', channel=9, note=44, velocity=100, time=0),\n",
      "    Message('note_on', channel=9, note=44, velocity=0, time=30),\n",
      "    Message('note_on', channel=9, note=81, velocity=0, time=0),\n",
      "    Message('note_on', channel=9, note=44, velocity=100, time=0),\n",
      "    Message('note_on', channel=9, note=33, velocity=100, time=0),\n",
      "    Message('note_on', channel=9, note=44, velocity=0, time=30),\n",
      "    Message('note_on', channel=9, note=33, velocity=0, time=30),\n",
      "    Message('note_on', channel=9, note=44, velocity=100, time=0),\n",
      "    Message('note_on', channel=9, note=44, velocity=0, time=30),\n",
      "    Message('note_on', channel=9, note=44, velocity=100, time=0),\n",
      "    Message('note_on', channel=9, note=44, velocity=0, time=30),\n",
      "    Message('note_on', channel=9, note=40, velocity=100, time=0),\n",
      "    Message('note_on', channel=9, note=44, velocity=100, time=0),\n",
      "    Message('note_on', channel=9, note=44, velocity=0, time=30),\n",
      "    Message('note_on', channel=9, note=40, velocity=0, time=30),\n",
      "    Message('note_on', channel=9, note=44, velocity=100, time=0),\n",
      "    Message('note_on', channel=9, note=33, velocity=100, time=0),\n",
      "    Message('note_on', channel=9, note=44, velocity=0, time=30),\n",
      "    Message('note_on', channel=9, note=44, velocity=100, time=0),\n",
      "    Message('note_on', channel=9, note=44, velocity=0, time=30),\n",
      "    Message('note_on', channel=9, note=33, velocity=0, time=0),\n",
      "    Message('note_on', channel=9, note=44, velocity=100, time=0),\n",
      "    Message('note_on', channel=9, note=33, velocity=100, time=0),\n",
      "    Message('note_on', channel=9, note=44, velocity=0, time=30),\n",
      "    Message('note_on', channel=9, note=33, velocity=0, time=30),\n",
      "    Message('note_on', channel=9, note=44, velocity=100, time=0),\n",
      "    Message('note_on', channel=9, note=44, velocity=0, time=30),\n",
      "    Message('note_on', channel=9, note=44, velocity=100, time=0),\n",
      "    Message('note_on', channel=9, note=44, velocity=0, time=30),\n",
      "    Message('note_on', channel=9, note=81, velocity=100, time=0),\n",
      "    Message('note_on', channel=9, note=40, velocity=100, time=0),\n",
      "    Message('note_on', channel=9, note=44, velocity=100, time=0),\n",
      "    Message('note_on', channel=9, note=44, velocity=0, time=30),\n",
      "    Message('note_on', channel=9, note=40, velocity=0, time=0),\n",
      "    Message('note_on', channel=9, note=44, velocity=100, time=30),\n",
      "    Message('note_on', channel=9, note=44, velocity=0, time=30),\n",
      "    Message('note_on', channel=9, note=44, velocity=100, time=0),\n",
      "    Message('note_on', channel=9, note=44, velocity=0, time=30),\n",
      "    Message('note_on', channel=9, note=81, velocity=0, time=0),\n",
      "    Message('note_on', channel=9, note=44, velocity=100, time=0),\n",
      "    Message('note_on', channel=9, note=33, velocity=100, time=0),\n",
      "    Message('note_on', channel=9, note=44, velocity=0, time=30),\n",
      "    Message('note_on', channel=9, note=33, velocity=0, time=30),\n",
      "    Message('note_on', channel=9, note=44, velocity=100, time=0),\n",
      "    Message('note_on', channel=9, note=44, velocity=0, time=30),\n",
      "    Message('note_on', channel=9, note=44, velocity=100, time=0),\n",
      "    Message('note_on', channel=9, note=44, velocity=0, time=30),\n",
      "    Message('note_on', channel=9, note=40, velocity=100, time=0),\n",
      "    Message('note_on', channel=9, note=44, velocity=100, time=0),\n",
      "    Message('note_on', channel=9, note=44, velocity=0, time=30),\n",
      "    Message('note_on', channel=9, note=40, velocity=0, time=30),\n",
      "    Message('note_on', channel=9, note=44, velocity=100, time=0),\n",
      "    Message('note_on', channel=9, note=33, velocity=100, time=0),\n",
      "    Message('note_on', channel=9, note=44, velocity=0, time=30),\n",
      "    Message('note_on', channel=9, note=44, velocity=100, time=0),\n",
      "    Message('note_on', channel=9, note=44, velocity=0, time=30),\n",
      "    Message('note_on', channel=9, note=33, velocity=0, time=0),\n",
      "    Message('note_on', channel=9, note=44, velocity=100, time=0),\n",
      "    Message('note_on', channel=9, note=33, velocity=100, time=0),\n",
      "    Message('note_on', channel=9, note=44, velocity=0, time=30),\n",
      "    Message('note_on', channel=9, note=33, velocity=0, time=30),\n",
      "    Message('note_on', channel=9, note=44, velocity=100, time=0),\n",
      "    Message('note_on', channel=9, note=44, velocity=0, time=30),\n",
      "    Message('note_on', channel=9, note=44, velocity=100, time=0),\n",
      "    Message('note_on', channel=9, note=44, velocity=0, time=30),\n",
      "    Message('note_on', channel=9, note=81, velocity=100, time=0),\n",
      "    Message('note_on', channel=9, note=40, velocity=100, time=0),\n",
      "    Message('note_on', channel=9, note=44, velocity=100, time=0),\n",
      "    Message('note_on', channel=9, note=44, velocity=0, time=30),\n",
      "    Message('note_on', channel=9, note=40, velocity=0, time=0),\n",
      "    Message('note_on', channel=9, note=44, velocity=100, time=30),\n",
      "    Message('note_on', channel=9, note=44, velocity=0, time=30),\n",
      "    Message('note_on', channel=9, note=44, velocity=100, time=0),\n",
      "    Message('note_on', channel=9, note=44, velocity=0, time=30),\n",
      "    Message('note_on', channel=9, note=81, velocity=0, time=0),\n",
      "    Message('note_on', channel=9, note=44, velocity=100, time=0),\n",
      "    Message('note_on', channel=9, note=33, velocity=100, time=0),\n",
      "    Message('note_on', channel=9, note=44, velocity=0, time=30),\n",
      "    Message('note_on', channel=9, note=33, velocity=0, time=30),\n",
      "    Message('note_on', channel=9, note=44, velocity=100, time=0),\n",
      "    Message('note_on', channel=9, note=44, velocity=0, time=30),\n",
      "    Message('note_on', channel=9, note=44, velocity=100, time=0),\n",
      "    Message('note_on', channel=9, note=44, velocity=0, time=30),\n",
      "    Message('note_on', channel=9, note=40, velocity=100, time=0),\n",
      "    Message('note_on', channel=9, note=44, velocity=100, time=0),\n",
      "    Message('note_on', channel=9, note=44, velocity=0, time=30),\n",
      "    Message('note_on', channel=9, note=40, velocity=0, time=30),\n",
      "    Message('note_on', channel=9, note=44, velocity=100, time=0),\n",
      "    Message('note_on', channel=9, note=33, velocity=100, time=0),\n",
      "    Message('note_on', channel=9, note=44, velocity=0, time=30),\n",
      "    Message('note_on', channel=9, note=44, velocity=100, time=0),\n",
      "    Message('note_on', channel=9, note=44, velocity=0, time=30),\n",
      "    Message('note_on', channel=9, note=33, velocity=0, time=0),\n",
      "    Message('note_on', channel=9, note=44, velocity=100, time=0),\n",
      "    Message('note_on', channel=9, note=33, velocity=100, time=0),\n",
      "    Message('note_on', channel=9, note=44, velocity=0, time=30),\n",
      "    Message('note_on', channel=9, note=33, velocity=0, time=30),\n",
      "    Message('note_on', channel=9, note=44, velocity=100, time=0),\n",
      "    Message('note_on', channel=9, note=44, velocity=0, time=30),\n",
      "    Message('note_on', channel=9, note=44, velocity=100, time=0),\n",
      "    Message('note_on', channel=9, note=44, velocity=0, time=30),\n",
      "    Message('note_on', channel=9, note=81, velocity=100, time=0),\n",
      "    Message('note_on', channel=9, note=40, velocity=100, time=0),\n",
      "    Message('note_on', channel=9, note=44, velocity=100, time=0),\n",
      "    Message('note_on', channel=9, note=44, velocity=0, time=30),\n",
      "    Message('note_on', channel=9, note=40, velocity=0, time=0),\n",
      "    Message('note_on', channel=9, note=44, velocity=100, time=30),\n",
      "    Message('note_on', channel=9, note=44, velocity=0, time=30),\n",
      "    Message('note_on', channel=9, note=44, velocity=100, time=0),\n",
      "    Message('note_on', channel=9, note=44, velocity=0, time=30),\n",
      "    Message('note_on', channel=9, note=81, velocity=0, time=0),\n",
      "    Message('note_on', channel=9, note=44, velocity=100, time=0),\n",
      "    Message('note_on', channel=9, note=33, velocity=100, time=0),\n",
      "    Message('note_on', channel=9, note=44, velocity=0, time=30),\n",
      "    Message('note_on', channel=9, note=33, velocity=0, time=30),\n",
      "    Message('note_on', channel=9, note=44, velocity=100, time=0),\n",
      "    Message('note_on', channel=9, note=44, velocity=0, time=30),\n",
      "    Message('note_on', channel=9, note=44, velocity=100, time=0),\n",
      "    Message('note_on', channel=9, note=44, velocity=0, time=30),\n",
      "    Message('note_on', channel=9, note=40, velocity=100, time=0),\n",
      "    Message('note_on', channel=9, note=44, velocity=100, time=0),\n",
      "    Message('note_on', channel=9, note=44, velocity=0, time=30),\n",
      "    Message('note_on', channel=9, note=40, velocity=0, time=30),\n",
      "    Message('note_on', channel=9, note=44, velocity=100, time=0),\n",
      "    Message('note_on', channel=9, note=33, velocity=100, time=0),\n",
      "    Message('note_on', channel=9, note=44, velocity=0, time=30),\n",
      "    Message('note_on', channel=9, note=44, velocity=100, time=0),\n",
      "    Message('note_on', channel=9, note=44, velocity=0, time=30),\n",
      "    Message('note_on', channel=9, note=33, velocity=0, time=0),\n",
      "    Message('note_on', channel=9, note=44, velocity=100, time=0),\n",
      "    Message('note_on', channel=9, note=33, velocity=100, time=0),\n",
      "    Message('note_on', channel=9, note=44, velocity=0, time=30),\n",
      "    Message('note_on', channel=9, note=33, velocity=0, time=30),\n",
      "    Message('note_on', channel=9, note=44, velocity=100, time=0),\n",
      "    Message('note_on', channel=9, note=44, velocity=0, time=30),\n",
      "    Message('note_on', channel=9, note=44, velocity=100, time=0),\n",
      "    Message('note_on', channel=9, note=44, velocity=0, time=30),\n",
      "    Message('note_on', channel=9, note=81, velocity=100, time=0),\n",
      "    Message('note_on', channel=9, note=40, velocity=100, time=0),\n",
      "    Message('note_on', channel=9, note=44, velocity=100, time=0),\n",
      "    Message('note_on', channel=9, note=44, velocity=0, time=30),\n",
      "    Message('note_on', channel=9, note=40, velocity=0, time=0),\n",
      "    Message('note_on', channel=9, note=44, velocity=100, time=30),\n",
      "    Message('note_on', channel=9, note=44, velocity=0, time=30),\n",
      "    Message('note_on', channel=9, note=44, velocity=100, time=0),\n",
      "    Message('note_on', channel=9, note=44, velocity=0, time=30),\n",
      "    Message('note_on', channel=9, note=81, velocity=0, time=0),\n",
      "    Message('note_on', channel=9, note=44, velocity=100, time=0),\n",
      "    Message('note_on', channel=9, note=33, velocity=100, time=0),\n",
      "    Message('note_on', channel=9, note=44, velocity=0, time=30),\n",
      "    Message('note_on', channel=9, note=33, velocity=0, time=30),\n",
      "    Message('note_on', channel=9, note=44, velocity=100, time=0),\n",
      "    Message('note_on', channel=9, note=44, velocity=0, time=30),\n",
      "    Message('note_on', channel=9, note=44, velocity=100, time=0),\n",
      "    Message('note_on', channel=9, note=44, velocity=0, time=30),\n",
      "    Message('note_on', channel=9, note=40, velocity=100, time=0),\n",
      "    Message('note_on', channel=9, note=44, velocity=100, time=0),\n",
      "    Message('note_on', channel=9, note=44, velocity=0, time=30),\n",
      "    Message('note_on', channel=9, note=40, velocity=0, time=30),\n",
      "    Message('note_on', channel=9, note=44, velocity=100, time=0),\n",
      "    Message('note_on', channel=9, note=33, velocity=100, time=0),\n",
      "    Message('note_on', channel=9, note=44, velocity=0, time=30),\n",
      "    Message('note_on', channel=9, note=44, velocity=100, time=0),\n",
      "    Message('note_on', channel=9, note=44, velocity=0, time=30),\n",
      "    Message('note_on', channel=9, note=33, velocity=0, time=0),\n",
      "    Message('note_on', channel=9, note=44, velocity=100, time=0),\n",
      "    Message('note_on', channel=9, note=33, velocity=100, time=0),\n",
      "    Message('note_on', channel=9, note=44, velocity=0, time=30),\n",
      "    Message('note_on', channel=9, note=33, velocity=0, time=30),\n",
      "    Message('note_on', channel=9, note=44, velocity=100, time=0),\n",
      "    Message('note_on', channel=9, note=44, velocity=0, time=30),\n",
      "    Message('note_on', channel=9, note=44, velocity=100, time=0),\n",
      "    Message('note_on', channel=9, note=44, velocity=0, time=30),\n",
      "    Message('note_on', channel=9, note=81, velocity=100, time=0),\n",
      "    Message('note_on', channel=9, note=40, velocity=100, time=0),\n",
      "    Message('note_on', channel=9, note=44, velocity=100, time=0),\n",
      "    Message('note_on', channel=9, note=44, velocity=0, time=30),\n",
      "    Message('note_on', channel=9, note=40, velocity=0, time=0),\n",
      "    Message('note_on', channel=9, note=44, velocity=100, time=30),\n",
      "    Message('note_on', channel=9, note=44, velocity=0, time=30),\n",
      "    Message('note_on', channel=9, note=44, velocity=100, time=0),\n",
      "    Message('note_on', channel=9, note=44, velocity=0, time=30),\n",
      "    Message('note_on', channel=9, note=81, velocity=0, time=0),\n",
      "    Message('note_on', channel=9, note=44, velocity=100, time=0),\n",
      "    Message('note_on', channel=9, note=33, velocity=100, time=0),\n",
      "    Message('note_on', channel=9, note=44, velocity=0, time=30),\n",
      "    Message('note_on', channel=9, note=33, velocity=0, time=30),\n",
      "    Message('note_on', channel=9, note=44, velocity=100, time=0),\n",
      "    Message('note_on', channel=9, note=44, velocity=0, time=30),\n",
      "    Message('note_on', channel=9, note=44, velocity=100, time=0),\n",
      "    Message('note_on', channel=9, note=44, velocity=0, time=30),\n",
      "    Message('note_on', channel=9, note=40, velocity=100, time=0),\n",
      "    Message('note_on', channel=9, note=44, velocity=100, time=0),\n",
      "    Message('note_on', channel=9, note=44, velocity=0, time=30),\n",
      "    Message('note_on', channel=9, note=40, velocity=0, time=30),\n",
      "    Message('note_on', channel=9, note=44, velocity=100, time=0),\n",
      "    Message('note_on', channel=9, note=33, velocity=100, time=0),\n",
      "    Message('note_on', channel=9, note=44, velocity=0, time=30),\n",
      "    Message('note_on', channel=9, note=44, velocity=100, time=0),\n",
      "    Message('note_on', channel=9, note=44, velocity=0, time=30),\n",
      "    Message('note_on', channel=9, note=33, velocity=0, time=0),\n",
      "    Message('note_on', channel=9, note=44, velocity=100, time=0),\n",
      "    Message('note_on', channel=9, note=33, velocity=100, time=0),\n",
      "    Message('note_on', channel=9, note=44, velocity=0, time=30),\n",
      "    Message('note_on', channel=9, note=33, velocity=0, time=30),\n",
      "    Message('note_on', channel=9, note=44, velocity=100, time=0),\n",
      "    Message('note_on', channel=9, note=44, velocity=0, time=30),\n",
      "    Message('note_on', channel=9, note=44, velocity=100, time=0),\n",
      "    Message('note_on', channel=9, note=44, velocity=0, time=30),\n",
      "    Message('note_on', channel=9, note=81, velocity=100, time=0),\n",
      "    Message('note_on', channel=9, note=40, velocity=100, time=0),\n",
      "    Message('note_on', channel=9, note=44, velocity=100, time=0),\n",
      "    Message('note_on', channel=9, note=44, velocity=0, time=30),\n",
      "    Message('note_on', channel=9, note=40, velocity=0, time=0),\n",
      "    Message('note_on', channel=9, note=44, velocity=100, time=30),\n",
      "    Message('note_on', channel=9, note=44, velocity=0, time=30),\n",
      "    Message('note_on', channel=9, note=44, velocity=100, time=0),\n",
      "    Message('note_on', channel=9, note=44, velocity=0, time=30),\n",
      "    Message('note_on', channel=9, note=81, velocity=0, time=0),\n",
      "    Message('note_on', channel=9, note=44, velocity=100, time=0),\n",
      "    Message('note_on', channel=9, note=33, velocity=100, time=0),\n",
      "    Message('note_on', channel=9, note=44, velocity=0, time=30),\n",
      "    Message('note_on', channel=9, note=33, velocity=0, time=30),\n",
      "    Message('note_on', channel=9, note=44, velocity=100, time=0),\n",
      "    Message('note_on', channel=9, note=44, velocity=0, time=30),\n",
      "    Message('note_on', channel=9, note=44, velocity=100, time=0),\n",
      "    Message('note_on', channel=9, note=44, velocity=0, time=30),\n",
      "    Message('note_on', channel=9, note=40, velocity=100, time=0),\n",
      "    Message('note_on', channel=9, note=44, velocity=100, time=0),\n",
      "    Message('note_on', channel=9, note=44, velocity=0, time=30),\n",
      "    Message('note_on', channel=9, note=40, velocity=0, time=30),\n",
      "    Message('note_on', channel=9, note=44, velocity=100, time=0),\n",
      "    Message('note_on', channel=9, note=33, velocity=100, time=0),\n",
      "    Message('note_on', channel=9, note=44, velocity=0, time=30),\n",
      "    Message('note_on', channel=9, note=44, velocity=100, time=0),\n",
      "    Message('note_on', channel=9, note=44, velocity=0, time=30),\n",
      "    Message('note_on', channel=9, note=33, velocity=0, time=0),\n",
      "    Message('note_on', channel=9, note=44, velocity=100, time=0),\n",
      "    Message('note_on', channel=9, note=33, velocity=100, time=0),\n",
      "    Message('note_on', channel=9, note=44, velocity=0, time=30),\n",
      "    Message('note_on', channel=9, note=33, velocity=0, time=30),\n",
      "    Message('note_on', channel=9, note=44, velocity=100, time=0),\n",
      "    Message('note_on', channel=9, note=44, velocity=0, time=30),\n",
      "    Message('note_on', channel=9, note=44, velocity=100, time=0),\n",
      "    Message('note_on', channel=9, note=44, velocity=0, time=30),\n",
      "    Message('note_on', channel=9, note=81, velocity=100, time=0),\n",
      "    Message('note_on', channel=9, note=40, velocity=100, time=0),\n",
      "    Message('note_on', channel=9, note=44, velocity=100, time=0),\n",
      "    Message('note_on', channel=9, note=44, velocity=0, time=30),\n",
      "    Message('note_on', channel=9, note=40, velocity=0, time=0),\n",
      "    Message('note_on', channel=9, note=44, velocity=100, time=30),\n",
      "    Message('note_on', channel=9, note=44, velocity=0, time=30),\n",
      "    Message('note_on', channel=9, note=44, velocity=100, time=0),\n",
      "    Message('note_on', channel=9, note=44, velocity=0, time=30),\n",
      "    Message('note_on', channel=9, note=81, velocity=0, time=0),\n",
      "    Message('note_on', channel=9, note=44, velocity=100, time=0),\n",
      "    Message('note_on', channel=9, note=33, velocity=100, time=0),\n",
      "    Message('note_on', channel=9, note=44, velocity=0, time=30),\n",
      "    Message('note_on', channel=9, note=33, velocity=0, time=30),\n",
      "    Message('note_on', channel=9, note=44, velocity=100, time=0),\n",
      "    Message('note_on', channel=9, note=44, velocity=0, time=30),\n",
      "    Message('note_on', channel=9, note=44, velocity=100, time=0),\n",
      "    Message('note_on', channel=9, note=44, velocity=0, time=30),\n",
      "    Message('note_on', channel=9, note=40, velocity=100, time=0),\n",
      "    Message('note_on', channel=9, note=44, velocity=100, time=0),\n",
      "    Message('note_on', channel=9, note=44, velocity=0, time=30),\n",
      "    Message('note_on', channel=9, note=40, velocity=0, time=30),\n",
      "    Message('note_on', channel=9, note=44, velocity=100, time=0),\n",
      "    Message('note_on', channel=9, note=33, velocity=100, time=0),\n",
      "    Message('note_on', channel=9, note=44, velocity=0, time=30),\n",
      "    Message('note_on', channel=9, note=44, velocity=100, time=0),\n",
      "    Message('note_on', channel=9, note=44, velocity=0, time=30),\n",
      "    Message('note_on', channel=9, note=33, velocity=0, time=0),\n",
      "    Message('note_on', channel=9, note=44, velocity=100, time=0),\n",
      "    Message('note_on', channel=9, note=33, velocity=100, time=0),\n",
      "    Message('note_on', channel=9, note=44, velocity=0, time=30),\n",
      "    Message('note_on', channel=9, note=33, velocity=0, time=30),\n",
      "    Message('note_on', channel=9, note=44, velocity=100, time=0),\n",
      "    Message('note_on', channel=9, note=44, velocity=0, time=30),\n",
      "    Message('note_on', channel=9, note=44, velocity=100, time=0),\n",
      "    Message('note_on', channel=9, note=44, velocity=0, time=30),\n",
      "    Message('note_on', channel=9, note=81, velocity=100, time=0),\n",
      "    Message('note_on', channel=9, note=40, velocity=100, time=0),\n",
      "    Message('note_on', channel=9, note=44, velocity=100, time=0),\n",
      "    Message('note_on', channel=9, note=44, velocity=0, time=30),\n",
      "    Message('note_on', channel=9, note=40, velocity=0, time=0),\n",
      "    Message('note_on', channel=9, note=44, velocity=100, time=30),\n",
      "    Message('note_on', channel=9, note=44, velocity=0, time=30),\n",
      "    Message('note_on', channel=9, note=44, velocity=100, time=0),\n",
      "    Message('note_on', channel=9, note=44, velocity=0, time=30),\n",
      "    Message('note_on', channel=9, note=81, velocity=0, time=0),\n",
      "    Message('note_on', channel=9, note=44, velocity=100, time=0),\n",
      "    Message('note_on', channel=9, note=33, velocity=100, time=0),\n",
      "    Message('note_on', channel=9, note=44, velocity=0, time=30),\n",
      "    Message('note_on', channel=9, note=33, velocity=0, time=30),\n",
      "    Message('note_on', channel=9, note=44, velocity=100, time=0),\n",
      "    Message('note_on', channel=9, note=44, velocity=0, time=30),\n",
      "    Message('note_on', channel=9, note=44, velocity=100, time=0),\n",
      "    Message('note_on', channel=9, note=44, velocity=0, time=30),\n",
      "    Message('note_on', channel=9, note=40, velocity=100, time=0),\n",
      "    Message('note_on', channel=9, note=44, velocity=100, time=0),\n",
      "    Message('note_on', channel=9, note=44, velocity=0, time=30),\n",
      "    Message('note_on', channel=9, note=40, velocity=0, time=30),\n",
      "    Message('note_on', channel=9, note=44, velocity=100, time=0),\n",
      "    Message('note_on', channel=9, note=33, velocity=100, time=0),\n",
      "    Message('note_on', channel=9, note=44, velocity=0, time=30),\n",
      "    Message('note_on', channel=9, note=44, velocity=100, time=0),\n",
      "    Message('note_on', channel=9, note=44, velocity=0, time=30),\n",
      "    Message('note_on', channel=9, note=33, velocity=0, time=0),\n",
      "    Message('note_on', channel=9, note=44, velocity=100, time=0),\n",
      "    Message('note_on', channel=9, note=33, velocity=100, time=0),\n",
      "    Message('note_on', channel=9, note=44, velocity=0, time=30),\n",
      "    Message('note_on', channel=9, note=33, velocity=0, time=30),\n",
      "    Message('note_on', channel=9, note=44, velocity=100, time=0),\n",
      "    Message('note_on', channel=9, note=44, velocity=0, time=30),\n",
      "    Message('note_on', channel=9, note=44, velocity=100, time=0),\n",
      "    Message('note_on', channel=9, note=44, velocity=0, time=30),\n",
      "    Message('note_on', channel=9, note=81, velocity=100, time=0),\n",
      "    Message('note_on', channel=9, note=40, velocity=100, time=0),\n",
      "    Message('note_on', channel=9, note=44, velocity=100, time=0),\n",
      "    Message('note_on', channel=9, note=44, velocity=0, time=30),\n",
      "    Message('note_on', channel=9, note=40, velocity=0, time=0),\n",
      "    Message('note_on', channel=9, note=44, velocity=100, time=30),\n",
      "    Message('note_on', channel=9, note=44, velocity=0, time=30),\n",
      "    Message('note_on', channel=9, note=44, velocity=100, time=0),\n",
      "    Message('note_on', channel=9, note=44, velocity=0, time=30),\n",
      "    Message('note_on', channel=9, note=81, velocity=0, time=0),\n",
      "    Message('note_on', channel=9, note=42, velocity=100, time=0),\n",
      "    Message('note_on', channel=9, note=42, velocity=0, time=120),\n",
      "    Message('note_on', channel=9, note=42, velocity=100, time=0),\n",
      "    Message('note_on', channel=9, note=42, velocity=0, time=120),\n",
      "    Message('note_on', channel=9, note=42, velocity=100, time=0),\n",
      "    Message('note_on', channel=9, note=42, velocity=0, time=120),\n",
      "    Message('note_on', channel=9, note=42, velocity=100, time=0),\n",
      "    Message('note_on', channel=9, note=42, velocity=0, time=120),\n",
      "    Message('note_on', channel=9, note=42, velocity=100, time=0),\n",
      "    Message('note_on', channel=9, note=52, velocity=100, time=0),\n",
      "    Message('note_on', channel=9, note=57, velocity=100, time=0),\n",
      "    Message('note_on', channel=9, note=57, velocity=0, time=120),\n",
      "    Message('note_on', channel=9, note=52, velocity=0, time=0),\n",
      "    Message('note_on', channel=9, note=42, velocity=0, time=0),\n",
      "    Message('note_on', channel=9, note=42, velocity=100, time=0),\n",
      "    Message('note_on', channel=9, note=42, velocity=0, time=120),\n",
      "    Message('note_on', channel=9, note=42, velocity=100, time=0),\n",
      "    Message('note_on', channel=9, note=42, velocity=0, time=120),\n",
      "    Message('note_on', channel=9, note=42, velocity=100, time=0),\n",
      "    Message('note_on', channel=9, note=42, velocity=0, time=120),\n",
      "    Message('note_on', channel=9, note=42, velocity=100, time=0),\n",
      "    Message('note_on', channel=9, note=42, velocity=0, time=120),\n",
      "    Message('note_on', channel=9, note=42, velocity=100, time=0),\n",
      "    Message('note_on', channel=9, note=42, velocity=0, time=120),\n",
      "    Message('note_on', channel=9, note=42, velocity=100, time=0),\n",
      "    Message('note_on', channel=9, note=42, velocity=0, time=120),\n",
      "    Message('note_on', channel=9, note=42, velocity=100, time=0),\n",
      "    Message('note_on', channel=9, note=42, velocity=0, time=120),\n",
      "    Message('note_on', channel=9, note=42, velocity=100, time=0),\n",
      "    Message('note_on', channel=9, note=42, velocity=0, time=120),\n",
      "    Message('note_on', channel=9, note=42, velocity=100, time=0),\n",
      "    Message('note_on', channel=9, note=42, velocity=0, time=120),\n",
      "    Message('note_on', channel=9, note=51, velocity=100, time=0),\n",
      "    Message('note_on', channel=9, note=42, velocity=100, time=0),\n",
      "    Message('note_on', channel=9, note=51, velocity=0, time=30),\n",
      "    Message('note_on', channel=9, note=51, velocity=100, time=30),\n",
      "    Message('note_on', channel=9, note=51, velocity=0, time=30),\n",
      "    Message('note_on', channel=9, note=42, velocity=0, time=30),\n",
      "    Message('note_on', channel=9, note=51, velocity=100, time=0),\n",
      "    Message('note_on', channel=9, note=42, velocity=100, time=0),\n",
      "    Message('note_on', channel=9, note=51, velocity=0, time=30),\n",
      "    Message('note_on', channel=9, note=51, velocity=100, time=30),\n",
      "    Message('note_on', channel=9, note=51, velocity=0, time=30),\n",
      "    Message('note_on', channel=9, note=42, velocity=0, time=30),\n",
      "    Message('note_on', channel=9, note=61, velocity=90, time=0),\n",
      "    Message('note_on', channel=9, note=61, velocity=90, time=0),\n",
      "    Message('note_on', channel=9, note=60, velocity=90, time=0),\n",
      "    Message('note_on', channel=9, note=59, velocity=90, time=0),\n",
      "    Message('note_on', channel=9, note=59, velocity=90, time=0),\n",
      "    Message('note_on', channel=9, note=59, velocity=0, time=15),\n",
      "    Message('note_on', channel=9, note=60, velocity=0, time=0),\n",
      "    Message('note_on', channel=9, note=61, velocity=0, time=0),\n",
      "    Message('note_on', channel=9, note=61, velocity=0, time=0),\n",
      "    Message('note_on', channel=9, note=59, velocity=0, time=0),\n",
      "    Message('note_on', channel=9, note=59, velocity=90, time=0),\n",
      "    Message('note_on', channel=9, note=59, velocity=0, time=15),\n",
      "    Message('note_on', channel=9, note=59, velocity=90, time=0),\n",
      "    Message('note_on', channel=9, note=59, velocity=0, time=15),\n",
      "    Message('note_on', channel=9, note=59, velocity=90, time=0),\n",
      "    Message('note_on', channel=9, note=59, velocity=0, time=15),\n",
      "    Message('note_on', channel=9, note=59, velocity=90, time=0),\n",
      "    Message('note_on', channel=9, note=59, velocity=0, time=15),\n",
      "    Message('note_on', channel=9, note=59, velocity=90, time=0),\n",
      "    Message('note_on', channel=9, note=59, velocity=0, time=15),\n",
      "    Message('note_on', channel=9, note=59, velocity=90, time=0),\n",
      "    Message('note_on', channel=9, note=59, velocity=0, time=15),\n",
      "    Message('note_on', channel=9, note=59, velocity=90, time=0),\n",
      "    Message('note_on', channel=9, note=59, velocity=0, time=15),\n",
      "    Message('note_on', channel=9, note=59, velocity=90, time=0),\n",
      "    Message('note_on', channel=9, note=59, velocity=0, time=15),\n",
      "    Message('note_on', channel=9, note=59, velocity=90, time=0),\n",
      "    Message('note_on', channel=9, note=59, velocity=0, time=15),\n",
      "    Message('note_on', channel=9, note=59, velocity=90, time=0),\n",
      "    Message('note_on', channel=9, note=59, velocity=0, time=15),\n",
      "    Message('note_on', channel=9, note=59, velocity=90, time=0),\n",
      "    Message('note_on', channel=9, note=59, velocity=0, time=15),\n",
      "    Message('note_on', channel=9, note=59, velocity=90, time=0),\n",
      "    Message('note_on', channel=9, note=59, velocity=0, time=15),\n",
      "    Message('note_on', channel=9, note=59, velocity=90, time=0),\n",
      "    Message('note_on', channel=9, note=59, velocity=0, time=15),\n",
      "    Message('note_on', channel=9, note=59, velocity=90, time=0),\n",
      "    Message('note_on', channel=9, note=59, velocity=0, time=15),\n",
      "    Message('note_on', channel=9, note=59, velocity=90, time=0),\n",
      "    Message('note_on', channel=9, note=59, velocity=0, time=15),\n",
      "    Message('note_on', channel=9, note=59, velocity=90, time=0),\n",
      "    Message('note_on', channel=9, note=59, velocity=0, time=15),\n",
      "    Message('note_on', channel=9, note=59, velocity=90, time=0),\n",
      "    Message('note_on', channel=9, note=59, velocity=0, time=15),\n",
      "    Message('note_on', channel=9, note=59, velocity=90, time=0),\n",
      "    Message('note_on', channel=9, note=59, velocity=0, time=15),\n",
      "    Message('note_on', channel=9, note=59, velocity=90, time=0),\n",
      "    Message('note_on', channel=9, note=59, velocity=0, time=15),\n",
      "    Message('note_on', channel=9, note=59, velocity=90, time=0),\n",
      "    Message('note_on', channel=9, note=59, velocity=0, time=15),\n",
      "    Message('note_on', channel=9, note=59, velocity=90, time=0),\n",
      "    Message('note_on', channel=9, note=59, velocity=0, time=15),\n",
      "    Message('note_on', channel=9, note=59, velocity=90, time=0),\n",
      "    Message('note_on', channel=9, note=59, velocity=0, time=15),\n",
      "    Message('note_on', channel=9, note=59, velocity=90, time=0),\n",
      "    Message('note_on', channel=9, note=59, velocity=0, time=15),\n",
      "    Message('note_on', channel=9, note=59, velocity=90, time=0),\n",
      "    Message('note_on', channel=9, note=59, velocity=0, time=15),\n",
      "    Message('note_on', channel=9, note=59, velocity=90, time=0),\n",
      "    Message('note_on', channel=9, note=59, velocity=0, time=15),\n",
      "    Message('note_on', channel=9, note=59, velocity=90, time=0),\n",
      "    Message('note_on', channel=9, note=59, velocity=0, time=15),\n",
      "    Message('note_on', channel=9, note=59, velocity=90, time=0),\n",
      "    Message('note_on', channel=9, note=59, velocity=0, time=15),\n",
      "    Message('note_on', channel=9, note=59, velocity=90, time=0),\n",
      "    Message('note_on', channel=9, note=59, velocity=0, time=15),\n",
      "    MetaMessage('end_of_track', time=0)]),\n",
      "  MidiTrack([\n",
      "    MetaMessage('midi_port', port=0, time=0),\n",
      "    MetaMessage('track_name', name='NGINGGGG', time=0),\n",
      "    Message('program_change', channel=6, program=50, time=0),\n",
      "    Message('control_change', channel=6, control=7, value=70, time=0),\n",
      "    Message('control_change', channel=6, control=10, value=64, time=0),\n",
      "    Message('note_on', channel=6, note=81, velocity=90, time=2400),\n",
      "    Message('note_on', channel=6, note=81, velocity=0, time=840),\n",
      "    Message('note_on', channel=6, note=86, velocity=90, time=0),\n",
      "    Message('note_on', channel=6, note=86, velocity=0, time=120),\n",
      "    Message('note_on', channel=6, note=81, velocity=90, time=0),\n",
      "    Message('note_on', channel=6, note=81, velocity=0, time=360),\n",
      "    Message('note_on', channel=6, note=91, velocity=90, time=60),\n",
      "    Message('note_on', channel=6, note=91, velocity=0, time=120),\n",
      "    Message('note_on', channel=6, note=90, velocity=90, time=0),\n",
      "    Message('note_on', channel=6, note=90, velocity=0, time=120),\n",
      "    Message('note_on', channel=6, note=86, velocity=90, time=0),\n",
      "    Message('note_on', channel=6, note=86, velocity=0, time=120),\n",
      "    Message('note_on', channel=6, note=83, velocity=90, time=0),\n",
      "    Message('note_on', channel=6, note=83, velocity=0, time=120),\n",
      "    Message('note_on', channel=6, note=81, velocity=90, time=0),\n",
      "    Message('note_on', channel=6, note=81, velocity=0, time=120),\n",
      "    Message('note_on', channel=6, note=76, velocity=90, time=3900),\n",
      "    Message('note_on', channel=6, note=73, velocity=90, time=0),\n",
      "    Message('note_on', channel=6, note=66, velocity=90, time=0),\n",
      "    Message('note_on', channel=6, note=66, velocity=0, time=120),\n",
      "    Message('note_on', channel=6, note=73, velocity=0, time=0),\n",
      "    Message('note_on', channel=6, note=76, velocity=0, time=0),\n",
      "    Message('note_on', channel=6, note=66, velocity=90, time=0),\n",
      "    Message('note_on', channel=6, note=76, velocity=90, time=0),\n",
      "    Message('note_on', channel=6, note=73, velocity=90, time=0),\n",
      "    Message('note_on', channel=6, note=73, velocity=0, time=60),\n",
      "    Message('note_on', channel=6, note=76, velocity=0, time=0),\n",
      "    Message('note_on', channel=6, note=66, velocity=0, time=0),\n",
      "    Message('note_on', channel=6, note=76, velocity=90, time=0),\n",
      "    Message('note_on', channel=6, note=73, velocity=90, time=0),\n",
      "    Message('note_on', channel=6, note=66, velocity=90, time=0),\n",
      "    Message('note_on', channel=6, note=66, velocity=0, time=60),\n",
      "    Message('note_on', channel=6, note=73, velocity=0, time=0),\n",
      "    Message('note_on', channel=6, note=76, velocity=0, time=0),\n",
      "    Message('note_on', channel=6, note=73, velocity=90, time=720),\n",
      "    Message('note_on', channel=6, note=76, velocity=90, time=0),\n",
      "    Message('note_on', channel=6, note=66, velocity=90, time=0),\n",
      "    Message('note_on', channel=6, note=66, velocity=0, time=120),\n",
      "    Message('note_on', channel=6, note=76, velocity=0, time=0),\n",
      "    Message('note_on', channel=6, note=73, velocity=0, time=0),\n",
      "    Message('note_on', channel=6, note=76, velocity=90, time=0),\n",
      "    Message('note_on', channel=6, note=73, velocity=90, time=0),\n",
      "    Message('note_on', channel=6, note=66, velocity=90, time=0),\n",
      "    Message('note_on', channel=6, note=66, velocity=0, time=60),\n",
      "    Message('note_on', channel=6, note=73, velocity=0, time=0),\n",
      "    Message('note_on', channel=6, note=76, velocity=0, time=0),\n",
      "    Message('note_on', channel=6, note=66, velocity=90, time=0),\n",
      "    Message('note_on', channel=6, note=76, velocity=90, time=0),\n",
      "    Message('note_on', channel=6, note=73, velocity=90, time=0),\n",
      "    Message('note_on', channel=6, note=73, velocity=0, time=60),\n",
      "    Message('note_on', channel=6, note=76, velocity=0, time=0),\n",
      "    Message('note_on', channel=6, note=66, velocity=0, time=0),\n",
      "    Message('note_on', channel=6, note=71, velocity=90, time=600),\n",
      "    Message('note_on', channel=6, note=67, velocity=90, time=0),\n",
      "    Message('note_on', channel=6, note=78, velocity=90, time=0),\n",
      "    Message('note_on', channel=6, note=67, velocity=0, time=420),\n",
      "    Message('note_on', channel=6, note=71, velocity=0, time=0),\n",
      "    Message('note_on', channel=6, note=78, velocity=0, time=60),\n",
      "    Message('note_on', channel=6, note=73, velocity=90, time=0),\n",
      "    Message('note_on', channel=6, note=76, velocity=90, time=0),\n",
      "    Message('note_on', channel=6, note=66, velocity=90, time=0),\n",
      "    Message('note_on', channel=6, note=73, velocity=0, time=120),\n",
      "    Message('note_on', channel=6, note=66, velocity=0, time=60),\n",
      "    Message('note_on', channel=6, note=76, velocity=0, time=0),\n",
      "    Message('note_on', channel=6, note=66, velocity=90, time=0),\n",
      "    Message('note_on', channel=6, note=71, velocity=90, time=0),\n",
      "    Message('note_on', channel=6, note=74, velocity=90, time=0),\n",
      "    Message('note_on', channel=6, note=74, velocity=0, time=240),\n",
      "    Message('note_on', channel=6, note=71, velocity=0, time=0),\n",
      "    Message('note_on', channel=6, note=66, velocity=0, time=60),\n",
      "    Message('note_on', channel=6, note=81, velocity=90, time=1440),\n",
      "    Message('note_on', channel=6, note=73, velocity=90, time=240),\n",
      "    Message('note_on', channel=6, note=73, velocity=0, time=60),\n",
      "    Message('note_on', channel=6, note=74, velocity=90, time=0),\n",
      "    Message('note_on', channel=6, note=74, velocity=0, time=60),\n",
      "    Message('note_on', channel=6, note=81, velocity=90, time=0),\n",
      "    Message('note_on', channel=6, note=86, velocity=90, time=2),\n",
      "    Message('note_on', channel=6, note=81, velocity=0, time=17),\n",
      "    Message('note_on', channel=6, note=81, velocity=0, time=41),\n",
      "    Message('note_on', channel=6, note=73, velocity=90, time=0),\n",
      "    Message('note_on', channel=6, note=81, velocity=50, time=55),\n",
      "    Message('note_on', channel=6, note=86, velocity=0, time=5),\n",
      "    Message('note_on', channel=6, note=73, velocity=0, time=60),\n",
      "    Message('note_on', channel=6, note=74, velocity=90, time=0),\n",
      "    Message('note_on', channel=6, note=74, velocity=0, time=120),\n",
      "    Message('note_on', channel=6, note=73, velocity=90, time=60),\n",
      "    Message('note_on', channel=6, note=73, velocity=0, time=60),\n",
      "    Message('note_on', channel=6, note=74, velocity=90, time=0),\n",
      "    Message('note_on', channel=6, note=86, velocity=50, time=56),\n",
      "    Message('note_on', channel=6, note=74, velocity=0, time=4),\n",
      "    Message('note_on', channel=6, note=81, velocity=0, time=0),\n",
      "    Message('note_on', channel=6, note=81, velocity=50, time=0),\n",
      "    Message('note_on', channel=6, note=81, velocity=0, time=60),\n",
      "    Message('note_on', channel=6, note=69, velocity=90, time=0),\n",
      "    Message('note_on', channel=6, note=81, velocity=90, time=49),\n",
      "    Message('note_on', channel=6, note=86, velocity=0, time=5),\n",
      "    Message('note_on', channel=6, note=69, velocity=0, time=66),\n",
      "    Message('note_on', channel=6, note=71, velocity=90, time=0),\n",
      "    Message('note_on', channel=6, note=71, velocity=0, time=240),\n",
      "    Message('note_on', channel=6, note=69, velocity=90, time=840),\n",
      "    Message('note_on', channel=6, note=69, velocity=0, time=60),\n",
      "    Message('note_on', channel=6, note=73, velocity=90, time=0),\n",
      "    Message('note_on', channel=6, note=73, velocity=0, time=60),\n",
      "    Message('note_on', channel=6, note=74, velocity=90, time=0),\n",
      "    Message('note_on', channel=6, note=86, velocity=50, time=54),\n",
      "    Message('note_on', channel=6, note=74, velocity=0, time=6),\n",
      "    Message('note_on', channel=6, note=81, velocity=90, time=0),\n",
      "    Message('note_on', channel=6, note=81, velocity=0, time=2),\n",
      "    Message('note_on', channel=6, note=81, velocity=0, time=58),\n",
      "    Message('note_on', channel=6, note=73, velocity=90, time=0),\n",
      "    Message('note_on', channel=6, note=81, velocity=50, time=42),\n",
      "    Message('note_on', channel=6, note=86, velocity=0, time=5),\n",
      "    Message('note_on', channel=6, note=73, velocity=0, time=73),\n",
      "    Message('note_on', channel=6, note=74, velocity=90, time=0),\n",
      "    Message('note_on', channel=6, note=74, velocity=0, time=180),\n",
      "    Message('note_on', channel=6, note=73, velocity=90, time=0),\n",
      "    Message('note_on', channel=6, note=73, velocity=0, time=60),\n",
      "    Message('note_on', channel=6, note=74, velocity=90, time=0),\n",
      "    Message('note_on', channel=6, note=81, velocity=0, time=50),\n",
      "    Message('note_on', channel=6, note=74, velocity=0, time=10),\n",
      "    Message('note_on', channel=6, note=86, velocity=50, time=0),\n",
      "    Message('note_on', channel=6, note=81, velocity=50, time=0),\n",
      "    Message('note_on', channel=6, note=81, velocity=0, time=60),\n",
      "    Message('note_on', channel=6, note=69, velocity=90, time=0),\n",
      "    Message('note_on', channel=6, note=81, velocity=90, time=60),\n",
      "    Message('note_on', channel=6, note=86, velocity=0, time=7),\n",
      "    Message('note_on', channel=6, note=69, velocity=0, time=53),\n",
      "    Message('note_on', channel=6, note=71, velocity=90, time=0),\n",
      "    Message('note_on', channel=6, note=71, velocity=0, time=300),\n",
      "    Message('note_on', channel=6, note=91, velocity=50, time=60),\n",
      "    Message('note_on', channel=6, note=81, velocity=0, time=11),\n",
      "    Message('note_on', channel=6, note=91, velocity=0, time=109),\n",
      "    Message('note_on', channel=6, note=90, velocity=50, time=0),\n",
      "    Message('note_on', channel=6, note=90, velocity=0, time=120),\n",
      "    Message('note_on', channel=6, note=86, velocity=50, time=0),\n",
      "    Message('note_on', channel=6, note=86, velocity=0, time=120),\n",
      "    Message('note_on', channel=6, note=83, velocity=50, time=0),\n",
      "    Message('note_on', channel=6, note=83, velocity=0, time=120),\n",
      "    Message('note_on', channel=6, note=81, velocity=50, time=0),\n",
      "    Message('note_on', channel=6, note=81, velocity=0, time=480),\n",
      "    Message('note_on', channel=6, note=76, velocity=90, time=4500),\n",
      "    Message('note_on', channel=6, note=73, velocity=90, time=0),\n",
      "    Message('note_on', channel=6, note=66, velocity=90, time=0),\n",
      "    Message('note_on', channel=6, note=66, velocity=0, time=120),\n",
      "    Message('note_on', channel=6, note=73, velocity=0, time=0),\n",
      "    Message('note_on', channel=6, note=76, velocity=0, time=0),\n",
      "    Message('note_on', channel=6, note=66, velocity=90, time=0),\n",
      "    Message('note_on', channel=6, note=76, velocity=90, time=0),\n",
      "    Message('note_on', channel=6, note=73, velocity=90, time=0),\n",
      "    Message('note_on', channel=6, note=73, velocity=0, time=30),\n",
      "    Message('note_on', channel=6, note=76, velocity=0, time=0),\n",
      "    Message('note_on', channel=6, note=66, velocity=0, time=0),\n",
      "    Message('note_on', channel=6, note=76, velocity=90, time=30),\n",
      "    Message('note_on', channel=6, note=73, velocity=90, time=0),\n",
      "    Message('note_on', channel=6, note=66, velocity=90, time=0),\n",
      "    Message('note_on', channel=6, note=66, velocity=0, time=30),\n",
      "    Message('note_on', channel=6, note=73, velocity=0, time=0),\n",
      "    Message('note_on', channel=6, note=76, velocity=0, time=0),\n",
      "    Message('note_on', channel=6, note=73, velocity=90, time=750),\n",
      "    Message('note_on', channel=6, note=76, velocity=90, time=0),\n",
      "    Message('note_on', channel=6, note=66, velocity=90, time=0),\n",
      "    Message('note_on', channel=6, note=66, velocity=0, time=120),\n",
      "    Message('note_on', channel=6, note=76, velocity=0, time=0),\n",
      "    Message('note_on', channel=6, note=73, velocity=0, time=0),\n",
      "    Message('note_on', channel=6, note=76, velocity=90, time=0),\n",
      "    Message('note_on', channel=6, note=73, velocity=90, time=0),\n",
      "    Message('note_on', channel=6, note=66, velocity=90, time=0),\n",
      "    Message('note_on', channel=6, note=66, velocity=0, time=30),\n",
      "    Message('note_on', channel=6, note=73, velocity=0, time=0),\n",
      "    Message('note_on', channel=6, note=76, velocity=0, time=0),\n",
      "    Message('note_on', channel=6, note=66, velocity=90, time=30),\n",
      "    Message('note_on', channel=6, note=76, velocity=90, time=0),\n",
      "    Message('note_on', channel=6, note=73, velocity=90, time=0),\n",
      "    Message('note_on', channel=6, note=73, velocity=0, time=30),\n",
      "    Message('note_on', channel=6, note=76, velocity=0, time=0),\n",
      "    Message('note_on', channel=6, note=66, velocity=0, time=30),\n",
      "    Message('note_on', channel=6, note=71, velocity=90, time=600),\n",
      "    Message('note_on', channel=6, note=67, velocity=90, time=0),\n",
      "    Message('note_on', channel=6, note=78, velocity=90, time=0),\n",
      "    Message('note_on', channel=6, note=67, velocity=0, time=420),\n",
      "    Message('note_on', channel=6, note=71, velocity=0, time=0),\n",
      "    Message('note_on', channel=6, note=78, velocity=0, time=60),\n",
      "    Message('note_on', channel=6, note=73, velocity=90, time=0),\n",
      "    Message('note_on', channel=6, note=76, velocity=90, time=0),\n",
      "    Message('note_on', channel=6, note=66, velocity=90, time=0),\n",
      "    Message('note_on', channel=6, note=73, velocity=0, time=120),\n",
      "    Message('note_on', channel=6, note=66, velocity=0, time=60),\n",
      "    Message('note_on', channel=6, note=76, velocity=0, time=0),\n",
      "    Message('note_on', channel=6, note=66, velocity=90, time=0),\n",
      "    Message('note_on', channel=6, note=71, velocity=90, time=0),\n",
      "    Message('note_on', channel=6, note=74, velocity=90, time=0),\n",
      "    Message('note_on', channel=6, note=74, velocity=0, time=240),\n",
      "    Message('note_on', channel=6, note=71, velocity=0, time=0),\n",
      "    Message('note_on', channel=6, note=66, velocity=0, time=60),\n",
      "    Message('note_on', channel=6, note=74, velocity=100, time=0),\n",
      "    Message('note_on', channel=6, note=71, velocity=100, time=0),\n",
      "    Message('note_on', channel=6, note=67, velocity=100, time=0),\n",
      "    Message('note_on', channel=6, note=64, velocity=100, time=0),\n",
      "    Message('note_on', channel=6, note=64, velocity=0, time=480),\n",
      "    Message('note_on', channel=6, note=74, velocity=0, time=0),\n",
      "    Message('note_on', channel=6, note=71, velocity=0, time=0),\n",
      "    Message('note_on', channel=6, note=67, velocity=0, time=0),\n",
      "    Message('note_on', channel=6, note=81, velocity=90, time=960),\n",
      "    Message('note_on', channel=6, note=86, velocity=90, time=362),\n",
      "    Message('note_on', channel=6, note=81, velocity=0, time=17),\n",
      "    Message('note_on', channel=6, note=81, velocity=50, time=96),\n",
      "    Message('note_on', channel=6, note=86, velocity=0, time=5),\n",
      "    Message('note_on', channel=6, note=86, velocity=50, time=356),\n",
      "    Message('note_on', channel=6, note=81, velocity=0, time=4),\n",
      "    Message('note_on', channel=6, note=81, velocity=50, time=0),\n",
      "    Message('note_on', channel=6, note=81, velocity=0, time=60),\n",
      "    Message('note_on', channel=6, note=81, velocity=90, time=49),\n",
      "    Message('note_on', channel=6, note=86, velocity=0, time=5),\n",
      "    Message('note_on', channel=6, note=86, velocity=50, time=1320),\n",
      "    Message('note_on', channel=6, note=81, velocity=0, time=8),\n",
      "    Message('note_on', channel=6, note=81, velocity=50, time=100),\n",
      "    Message('note_on', channel=6, note=86, velocity=0, time=5),\n",
      "    Message('note_on', channel=6, note=81, velocity=0, time=363),\n",
      "    Message('note_on', channel=6, note=86, velocity=50, time=10),\n",
      "    Message('note_on', channel=6, note=81, velocity=50, time=0),\n",
      "    Message('note_on', channel=6, note=81, velocity=0, time=60),\n",
      "    Message('note_on', channel=6, note=81, velocity=90, time=60),\n",
      "    Message('note_on', channel=6, note=86, velocity=0, time=7),\n",
      "    Message('note_on', channel=6, note=91, velocity=50, time=413),\n",
      "    Message('note_on', channel=6, note=81, velocity=0, time=11),\n",
      "    Message('note_on', channel=6, note=91, velocity=0, time=109),\n",
      "    Message('note_on', channel=6, note=90, velocity=50, time=0),\n",
      "    Message('note_on', channel=6, note=90, velocity=0, time=120),\n",
      "    Message('note_on', channel=6, note=86, velocity=50, time=0),\n",
      "    Message('note_on', channel=6, note=86, velocity=0, time=120),\n",
      "    Message('note_on', channel=6, note=83, velocity=50, time=0),\n",
      "    Message('note_on', channel=6, note=83, velocity=0, time=120),\n",
      "    Message('note_on', channel=6, note=81, velocity=50, time=0),\n",
      "    Message('note_on', channel=6, note=81, velocity=0, time=480),\n",
      "    Message('note_on', channel=6, note=78, velocity=90, time=2575),\n",
      "    Message('note_on', channel=6, note=75, velocity=90, time=0),\n",
      "    Message('note_on', channel=6, note=68, velocity=90, time=0),\n",
      "    Message('note_on', channel=6, note=68, velocity=0, time=120),\n",
      "    Message('note_on', channel=6, note=75, velocity=0, time=0),\n",
      "    Message('note_on', channel=6, note=78, velocity=0, time=0),\n",
      "    Message('note_on', channel=6, note=68, velocity=90, time=0),\n",
      "    Message('note_on', channel=6, note=78, velocity=90, time=0),\n",
      "    Message('note_on', channel=6, note=75, velocity=90, time=0),\n",
      "    Message('note_on', channel=6, note=75, velocity=0, time=30),\n",
      "    Message('note_on', channel=6, note=78, velocity=0, time=0),\n",
      "    Message('note_on', channel=6, note=68, velocity=0, time=0),\n",
      "    Message('note_on', channel=6, note=78, velocity=90, time=30),\n",
      "    Message('note_on', channel=6, note=75, velocity=90, time=0),\n",
      "    Message('note_on', channel=6, note=68, velocity=90, time=0),\n",
      "    Message('note_on', channel=6, note=68, velocity=0, time=30),\n",
      "    Message('note_on', channel=6, note=75, velocity=0, time=0),\n",
      "    Message('note_on', channel=6, note=78, velocity=0, time=0),\n",
      "    Message('note_on', channel=6, note=75, velocity=90, time=750),\n",
      "    Message('note_on', channel=6, note=78, velocity=90, time=0),\n",
      "    Message('note_on', channel=6, note=68, velocity=90, time=0),\n",
      "    Message('note_on', channel=6, note=68, velocity=0, time=120),\n",
      "    Message('note_on', channel=6, note=78, velocity=0, time=0),\n",
      "    Message('note_on', channel=6, note=75, velocity=0, time=0),\n",
      "    Message('note_on', channel=6, note=78, velocity=90, time=0),\n",
      "    Message('note_on', channel=6, note=75, velocity=90, time=0),\n",
      "    Message('note_on', channel=6, note=68, velocity=90, time=0),\n",
      "    Message('note_on', channel=6, note=68, velocity=0, time=30),\n",
      "    Message('note_on', channel=6, note=75, velocity=0, time=0),\n",
      "    Message('note_on', channel=6, note=78, velocity=0, time=0),\n",
      "    Message('note_on', channel=6, note=68, velocity=90, time=30),\n",
      "    Message('note_on', channel=6, note=78, velocity=90, time=0),\n",
      "    Message('note_on', channel=6, note=75, velocity=90, time=0),\n",
      "    Message('note_on', channel=6, note=75, velocity=0, time=30),\n",
      "    Message('note_on', channel=6, note=78, velocity=0, time=0),\n",
      "    Message('note_on', channel=6, note=68, velocity=0, time=30),\n",
      "    Message('note_on', channel=6, note=73, velocity=90, time=600),\n",
      "    Message('note_on', channel=6, note=69, velocity=90, time=0),\n",
      "    Message('note_on', channel=6, note=80, velocity=90, time=0),\n",
      "    Message('note_on', channel=6, note=69, velocity=0, time=420),\n",
      "    Message('note_on', channel=6, note=73, velocity=0, time=0),\n",
      "    Message('note_on', channel=6, note=80, velocity=0, time=60),\n",
      "    Message('note_on', channel=6, note=75, velocity=90, time=0),\n",
      "    Message('note_on', channel=6, note=78, velocity=90, time=0),\n",
      "    Message('note_on', channel=6, note=68, velocity=90, time=0),\n",
      "    Message('note_on', channel=6, note=75, velocity=0, time=120),\n",
      "    Message('note_on', channel=6, note=68, velocity=0, time=60),\n",
      "    Message('note_on', channel=6, note=78, velocity=0, time=0),\n",
      "    Message('note_on', channel=6, note=68, velocity=90, time=0),\n",
      "    Message('note_on', channel=6, note=73, velocity=90, time=0),\n",
      "    Message('note_on', channel=6, note=76, velocity=90, time=0),\n",
      "    Message('note_on', channel=6, note=76, velocity=0, time=240),\n",
      "    Message('note_on', channel=6, note=73, velocity=0, time=0),\n",
      "    Message('note_on', channel=6, note=68, velocity=0, time=60),\n",
      "    Message('note_on', channel=6, note=76, velocity=100, time=0),\n",
      "    Message('note_on', channel=6, note=73, velocity=100, time=0),\n",
      "    Message('note_on', channel=6, note=69, velocity=100, time=0),\n",
      "    Message('note_on', channel=6, note=66, velocity=100, time=0),\n",
      "    Message('note_on', channel=6, note=66, velocity=0, time=480),\n",
      "    Message('note_on', channel=6, note=76, velocity=0, time=0),\n",
      "    Message('note_on', channel=6, note=73, velocity=0, time=0),\n",
      "    Message('note_on', channel=6, note=69, velocity=0, time=0),\n",
      "    Message('note_on', channel=6, note=80, velocity=90, time=785),\n",
      "    Message('note_on', channel=6, note=80, velocity=0, time=60),\n",
      "    Message('note_on', channel=6, note=78, velocity=90, time=0),\n",
      "    Message('note_on', channel=6, note=78, velocity=0, time=60),\n",
      "    Message('note_on', channel=6, note=78, velocity=90, time=0),\n",
      "    Message('note_on', channel=6, note=78, velocity=0, time=60),\n",
      "    Message('note_on', channel=6, note=76, velocity=100, time=0),\n",
      "    Message('note_on', channel=6, note=76, velocity=0, time=240),\n",
      "    Message('note_on', channel=6, note=75, velocity=90, time=0),\n",
      "    Message('note_on', channel=6, note=75, velocity=0, time=60),\n",
      "    Message('note_on', channel=6, note=76, velocity=90, time=0),\n",
      "    Message('note_on', channel=6, note=76, velocity=0, time=60),\n",
      "    Message('note_on', channel=6, note=83, velocity=90, time=0),\n",
      "    Message('note_on', channel=6, note=83, velocity=0, time=60),\n",
      "    Message('note_on', channel=6, note=75, velocity=90, time=0),\n",
      "    Message('note_on', channel=6, note=75, velocity=0, time=120),\n",
      "    Message('note_on', channel=6, note=76, velocity=90, time=0),\n",
      "    Message('note_on', channel=6, note=76, velocity=0, time=120),\n",
      "    Message('note_on', channel=6, note=75, velocity=90, time=60),\n",
      "    Message('note_on', channel=6, note=75, velocity=0, time=60),\n",
      "    Message('note_on', channel=6, note=76, velocity=90, time=0),\n",
      "    Message('note_on', channel=6, note=76, velocity=0, time=60),\n",
      "    Message('note_on', channel=6, note=83, velocity=90, time=0),\n",
      "    Message('note_on', channel=6, note=83, velocity=0, time=60),\n",
      "    Message('note_on', channel=6, note=71, velocity=90, time=0),\n",
      "    Message('note_on', channel=6, note=71, velocity=0, time=120),\n",
      "    Message('note_on', channel=6, note=73, velocity=90, time=0),\n",
      "    Message('note_on', channel=6, note=73, velocity=0, time=120),\n",
      "    Message('note_on', channel=6, note=73, velocity=90, time=123),\n",
      "    Message('note_on', channel=6, note=73, velocity=0, time=52),\n",
      "    Message('note_on', channel=6, note=76, velocity=90, time=5),\n",
      "    Message('note_on', channel=6, note=76, velocity=0, time=60),\n",
      "    Message('note_on', channel=6, note=81, velocity=90, time=0),\n",
      "    Message('note_on', channel=6, note=81, velocity=0, time=120),\n",
      "    Message('note_on', channel=6, note=80, velocity=90, time=0),\n",
      "    Message('note_on', channel=6, note=80, velocity=0, time=60),\n",
      "    Message('note_on', channel=6, note=76, velocity=90, time=0),\n",
      "    Message('note_on', channel=6, note=76, velocity=0, time=60),\n",
      "    Message('note_on', channel=6, note=81, velocity=90, time=0),\n",
      "    Message('note_on', channel=6, note=81, velocity=0, time=120),\n",
      "    Message('note_on', channel=6, note=80, velocity=90, time=0),\n",
      "    Message('note_on', channel=6, note=80, velocity=0, time=60),\n",
      "    Message('note_on', channel=6, note=78, velocity=90, time=0),\n",
      "    Message('note_on', channel=6, note=78, velocity=0, time=60),\n",
      "    Message('note_on', channel=6, note=78, velocity=90, time=0),\n",
      "    Message('note_on', channel=6, note=78, velocity=0, time=60),\n",
      "    Message('note_on', channel=6, note=76, velocity=90, time=0),\n",
      "    Message('note_on', channel=6, note=76, velocity=0, time=120),\n",
      "    Message('note_on', channel=6, note=71, velocity=90, time=60),\n",
      "    Message('note_on', channel=6, note=71, velocity=0, time=60),\n",
      "    Message('note_on', channel=6, note=75, velocity=90, time=0),\n",
      "    Message('note_on', channel=6, note=75, velocity=0, time=60),\n",
      "    Message('note_on', channel=6, note=76, velocity=90, time=0),\n",
      "    Message('note_on', channel=6, note=76, velocity=0, time=60),\n",
      "    Message('note_on', channel=6, note=83, velocity=90, time=0),\n",
      "    Message('note_on', channel=6, note=83, velocity=0, time=60),\n",
      "    Message('note_on', channel=6, note=75, velocity=90, time=0),\n",
      "    Message('note_on', channel=6, note=75, velocity=0, time=120),\n",
      "    Message('note_on', channel=6, note=76, velocity=90, time=0),\n",
      "    Message('note_on', channel=6, note=76, velocity=0, time=180),\n",
      "    Message('note_on', channel=6, note=75, velocity=90, time=0),\n",
      "    Message('note_on', channel=6, note=75, velocity=0, time=60),\n",
      "    Message('note_on', channel=6, note=76, velocity=90, time=0),\n",
      "    Message('note_on', channel=6, note=76, velocity=0, time=60),\n",
      "    Message('note_on', channel=6, note=83, velocity=90, time=0),\n",
      "    Message('note_on', channel=6, note=83, velocity=0, time=60),\n",
      "    Message('note_on', channel=6, note=71, velocity=90, time=0),\n",
      "    Message('note_on', channel=6, note=71, velocity=0, time=120),\n",
      "    Message('note_on', channel=6, note=73, velocity=90, time=0),\n",
      "    Message('note_on', channel=6, note=73, velocity=0, time=300),\n",
      "    Message('note_on', channel=6, note=76, velocity=90, time=0),\n",
      "    Message('note_on', channel=6, note=76, velocity=0, time=60),\n",
      "    Message('note_on', channel=6, note=76, velocity=90, time=0),\n",
      "    Message('note_on', channel=6, note=76, velocity=0, time=120),\n",
      "    Message('note_on', channel=6, note=73, velocity=90, time=0),\n",
      "    Message('note_on', channel=6, note=73, velocity=0, time=60),\n",
      "    Message('note_on', channel=6, note=76, velocity=90, time=0),\n",
      "    Message('note_on', channel=6, note=76, velocity=0, time=60),\n",
      "    Message('note_on', channel=6, note=80, velocity=90, time=0),\n",
      "    Message('note_on', channel=6, note=80, velocity=0, time=120),\n",
      "    Message('note_on', channel=6, note=78, velocity=90, time=0),\n",
      "    Message('note_on', channel=6, note=78, velocity=0, time=120),\n",
      "    Message('note_on', channel=6, note=76, velocity=90, time=0),\n",
      "    Message('note_on', channel=6, note=78, velocity=90, time=30),\n",
      "    Message('note_on', channel=6, note=78, velocity=0, time=30),\n",
      "    Message('note_on', channel=6, note=76, velocity=0, time=0),\n",
      "    Message('note_on', channel=6, note=76, velocity=90, time=0),\n",
      "    Message('note_on', channel=6, note=76, velocity=0, time=360),\n",
      "    MetaMessage('end_of_track', time=0)]),\n",
      "  MidiTrack([\n",
      "    MetaMessage('midi_port', port=0, time=0),\n",
      "    MetaMessage('track_name', name='SAXOPHONE', time=0),\n",
      "    Message('program_change', channel=7, program=66, time=0),\n",
      "    Message('control_change', channel=7, control=7, value=115, time=0),\n",
      "    Message('control_change', channel=7, control=10, value=64, time=0),\n",
      "    Message('note_on', channel=7, note=80, velocity=90, time=30120),\n",
      "    Message('note_on', channel=7, note=80, velocity=0, time=30),\n",
      "    Message('note_on', channel=7, note=78, velocity=90, time=0),\n",
      "    Message('note_on', channel=7, note=78, velocity=0, time=30),\n",
      "    Message('note_on', channel=7, note=76, velocity=90, time=0),\n",
      "    Message('note_on', channel=7, note=76, velocity=0, time=30),\n",
      "    Message('note_on', channel=7, note=75, velocity=90, time=0),\n",
      "    Message('note_on', channel=7, note=75, velocity=0, time=30),\n",
      "    Message('note_on', channel=7, note=76, velocity=90, time=0),\n",
      "    Message('note_on', channel=7, note=78, velocity=90, time=296),\n",
      "    Message('note_on', channel=7, note=76, velocity=0, time=4),\n",
      "    Message('note_on', channel=7, note=76, velocity=90, time=108),\n",
      "    Message('note_on', channel=7, note=78, velocity=0, time=2),\n",
      "    Message('note_on', channel=7, note=76, velocity=0, time=10),\n",
      "    Message('note_on', channel=7, note=76, velocity=90, time=1),\n",
      "    Message('note_on', channel=7, note=76, velocity=0, time=12),\n",
      "    Message('note_on', channel=7, note=73, velocity=90, time=10),\n",
      "    Message('note_on', channel=7, note=73, velocity=0, time=20),\n",
      "    Message('note_on', channel=7, note=76, velocity=90, time=17),\n",
      "    Message('note_on', channel=7, note=73, velocity=90, time=210),\n",
      "    Message('note_on', channel=7, note=76, velocity=0, time=13),\n",
      "    Message('note_on', channel=7, note=73, velocity=0, time=8),\n",
      "    Message('note_on', channel=7, note=76, velocity=90, time=9),\n",
      "    Message('note_on', channel=7, note=76, velocity=0, time=200),\n",
      "    Message('note_on', channel=7, note=81, velocity=90, time=130),\n",
      "    Message('note_on', channel=7, note=81, velocity=0, time=30),\n",
      "    Message('note_on', channel=7, note=80, velocity=90, time=0),\n",
      "    Message('note_on', channel=7, note=80, velocity=0, time=30),\n",
      "    Message('note_on', channel=7, note=78, velocity=90, time=0),\n",
      "    Message('note_on', channel=7, note=78, velocity=0, time=30),\n",
      "    Message('note_on', channel=7, note=76, velocity=90, time=0),\n",
      "    Message('note_on', channel=7, note=76, velocity=0, time=30),\n",
      "    Message('note_on', channel=7, note=78, velocity=90, time=0),\n",
      "    Message('note_on', channel=7, note=78, velocity=0, time=30),\n",
      "    Message('note_on', channel=7, note=73, velocity=90, time=0),\n",
      "    Message('note_on', channel=7, note=73, velocity=0, time=30),\n",
      "    Message('note_on', channel=7, note=71, velocity=90, time=0),\n",
      "    Message('note_on', channel=7, note=71, velocity=0, time=30),\n",
      "    Message('note_on', channel=7, note=73, velocity=90, time=0),\n",
      "    Message('note_on', channel=7, note=73, velocity=0, time=30),\n",
      "    Message('note_on', channel=7, note=71, velocity=90, time=0),\n",
      "    Message('note_on', channel=7, note=71, velocity=0, time=30),\n",
      "    Message('note_on', channel=7, note=69, velocity=90, time=0),\n",
      "    Message('note_on', channel=7, note=69, velocity=0, time=30),\n",
      "    Message('note_on', channel=7, note=68, velocity=90, time=0),\n",
      "    Message('note_on', channel=7, note=68, velocity=0, time=30),\n",
      "    Message('note_on', channel=7, note=66, velocity=90, time=0),\n",
      "    Message('note_on', channel=7, note=66, velocity=0, time=30),\n",
      "    Message('note_on', channel=7, note=64, velocity=90, time=0),\n",
      "    Message('note_on', channel=7, note=64, velocity=0, time=30),\n",
      "    Message('note_on', channel=7, note=80, velocity=90, time=3),\n",
      "    Message('note_on', channel=7, note=80, velocity=0, time=107),\n",
      "    Message('note_on', channel=7, note=78, velocity=90, time=6),\n",
      "    Message('note_on', channel=7, note=76, velocity=90, time=67),\n",
      "    Message('note_on', channel=7, note=78, velocity=0, time=4),\n",
      "    Message('note_on', channel=7, note=76, velocity=0, time=17),\n",
      "    Message('note_on', channel=7, note=73, velocity=90, time=1),\n",
      "    Message('note_on', channel=7, note=73, velocity=0, time=17),\n",
      "    Message('note_on', channel=7, note=76, velocity=90, time=13),\n",
      "    Message('note_on', channel=7, note=76, velocity=0, time=229),\n",
      "    MetaMessage('end_of_track', time=0)]),\n",
      "  MidiTrack([\n",
      "    MetaMessage('midi_port', port=0, time=0),\n",
      "    MetaMessage('track_name', name='BELLS', time=0),\n",
      "    Message('program_change', channel=8, program=14, time=0),\n",
      "    Message('control_change', channel=8, control=7, value=63, time=0),\n",
      "    Message('control_change', channel=8, control=10, value=64, time=0),\n",
      "    Message('note_on', channel=8, note=112, velocity=90, time=36035),\n",
      "    Message('note_on', channel=8, note=111, velocity=90, time=45),\n",
      "    Message('note_on', channel=8, note=112, velocity=0, time=2),\n",
      "    Message('note_on', channel=8, note=109, velocity=90, time=21),\n",
      "    Message('note_on', channel=8, note=111, velocity=0, time=2),\n",
      "    Message('note_on', channel=8, note=109, velocity=0, time=15),\n",
      "    Message('note_on', channel=8, note=107, velocity=90, time=6),\n",
      "    Message('note_on', channel=8, note=107, velocity=0, time=14),\n",
      "    Message('note_on', channel=8, note=105, velocity=90, time=5),\n",
      "    Message('note_on', channel=8, note=105, velocity=0, time=12),\n",
      "    Message('note_on', channel=8, note=104, velocity=90, time=4),\n",
      "    Message('note_on', channel=8, note=104, velocity=0, time=11),\n",
      "    Message('note_on', channel=8, note=102, velocity=90, time=5),\n",
      "    Message('note_on', channel=8, note=102, velocity=0, time=12),\n",
      "    Message('note_on', channel=8, note=100, velocity=90, time=2),\n",
      "    Message('note_on', channel=8, note=100, velocity=0, time=14),\n",
      "    Message('note_on', channel=8, note=99, velocity=90, time=0),\n",
      "    Message('note_on', channel=8, note=99, velocity=0, time=13),\n",
      "    Message('note_on', channel=8, note=97, velocity=90, time=1),\n",
      "    Message('note_on', channel=8, note=97, velocity=0, time=14),\n",
      "    Message('note_on', channel=8, note=95, velocity=90, time=0),\n",
      "    Message('note_on', channel=8, note=93, velocity=90, time=17),\n",
      "    Message('note_on', channel=8, note=95, velocity=0, time=2),\n",
      "    Message('note_on', channel=8, note=92, velocity=90, time=15),\n",
      "    Message('note_on', channel=8, note=93, velocity=0, time=2),\n",
      "    Message('note_on', channel=8, note=90, velocity=90, time=13),\n",
      "    Message('note_on', channel=8, note=92, velocity=0, time=2),\n",
      "    Message('note_on', channel=8, note=88, velocity=90, time=12),\n",
      "    Message('note_on', channel=8, note=90, velocity=0, time=2),\n",
      "    Message('note_on', channel=8, note=87, velocity=90, time=15),\n",
      "    Message('note_on', channel=8, note=88, velocity=0, time=5),\n",
      "    Message('note_on', channel=8, note=85, velocity=90, time=15),\n",
      "    Message('note_on', channel=8, note=87, velocity=0, time=5),\n",
      "    Message('note_on', channel=8, note=83, velocity=90, time=15),\n",
      "    Message('note_on', channel=8, note=85, velocity=0, time=4),\n",
      "    Message('note_on', channel=8, note=81, velocity=90, time=11),\n",
      "    Message('note_on', channel=8, note=83, velocity=0, time=4),\n",
      "    Message('note_on', channel=8, note=80, velocity=90, time=9),\n",
      "    Message('note_on', channel=8, note=81, velocity=0, time=3),\n",
      "    Message('note_on', channel=8, note=80, velocity=0, time=9),\n",
      "    Message('note_on', channel=8, note=78, velocity=90, time=2),\n",
      "    Message('note_on', channel=8, note=78, velocity=0, time=8),\n",
      "    Message('note_on', channel=8, note=76, velocity=90, time=2),\n",
      "    Message('note_on', channel=8, note=76, velocity=0, time=9),\n",
      "    Message('note_on', channel=8, note=75, velocity=90, time=1),\n",
      "    Message('note_on', channel=8, note=75, velocity=0, time=4),\n",
      "    Message('note_on', channel=8, note=73, velocity=90, time=16),\n",
      "    Message('note_on', channel=8, note=73, velocity=0, time=15),\n",
      "    Message('note_on', channel=8, note=71, velocity=90, time=0),\n",
      "    Message('note_on', channel=8, note=71, velocity=0, time=15),\n",
      "    Message('note_on', channel=8, note=73, velocity=90, time=0),\n",
      "    Message('note_on', channel=8, note=73, velocity=0, time=15),\n",
      "    Message('note_on', channel=8, note=112, velocity=90, time=3900),\n",
      "    Message('note_on', channel=8, note=111, velocity=90, time=31),\n",
      "    Message('note_on', channel=8, note=112, velocity=0, time=9),\n",
      "    Message('note_on', channel=8, note=109, velocity=90, time=11),\n",
      "    Message('note_on', channel=8, note=111, velocity=0, time=11),\n",
      "    Message('note_on', channel=8, note=107, velocity=90, time=12),\n",
      "    Message('note_on', channel=8, note=109, velocity=0, time=11),\n",
      "    Message('note_on', channel=8, note=105, velocity=90, time=9),\n",
      "    Message('note_on', channel=8, note=107, velocity=0, time=11),\n",
      "    Message('note_on', channel=8, note=104, velocity=90, time=10),\n",
      "    Message('note_on', channel=8, note=105, velocity=0, time=12),\n",
      "    Message('note_on', channel=8, note=102, velocity=90, time=13),\n",
      "    Message('note_on', channel=8, note=104, velocity=0, time=11),\n",
      "    Message('note_on', channel=8, note=100, velocity=90, time=9),\n",
      "    Message('note_on', channel=8, note=102, velocity=0, time=12),\n",
      "    Message('note_on', channel=8, note=99, velocity=90, time=6),\n",
      "    Message('note_on', channel=8, note=100, velocity=0, time=10),\n",
      "    Message('note_on', channel=8, note=97, velocity=90, time=8),\n",
      "    Message('note_on', channel=8, note=99, velocity=0, time=11),\n",
      "    Message('note_on', channel=8, note=95, velocity=90, time=6),\n",
      "    Message('note_on', channel=8, note=97, velocity=0, time=11),\n",
      "    Message('note_on', channel=8, note=93, velocity=90, time=6),\n",
      "    Message('note_on', channel=8, note=95, velocity=0, time=9),\n",
      "    Message('note_on', channel=8, note=92, velocity=90, time=6),\n",
      "    Message('note_on', channel=8, note=93, velocity=0, time=10),\n",
      "    Message('note_on', channel=8, note=90, velocity=90, time=7),\n",
      "    Message('note_on', channel=8, note=92, velocity=0, time=8),\n",
      "    Message('note_on', channel=8, note=88, velocity=90, time=5),\n",
      "    Message('note_on', channel=8, note=90, velocity=0, time=7),\n",
      "    Message('note_on', channel=8, note=87, velocity=90, time=4),\n",
      "    Message('note_on', channel=8, note=88, velocity=0, time=7),\n",
      "    Message('note_on', channel=8, note=85, velocity=90, time=3),\n",
      "    Message('note_on', channel=8, note=87, velocity=0, time=7),\n",
      "    Message('note_on', channel=8, note=83, velocity=90, time=4),\n",
      "    Message('note_on', channel=8, note=85, velocity=0, time=11),\n",
      "    Message('note_on', channel=8, note=81, velocity=90, time=8),\n",
      "    Message('note_on', channel=8, note=83, velocity=0, time=12),\n",
      "    Message('note_on', channel=8, note=80, velocity=90, time=4),\n",
      "    Message('note_on', channel=8, note=81, velocity=0, time=9),\n",
      "    Message('note_on', channel=8, note=78, velocity=90, time=2),\n",
      "    Message('note_on', channel=8, note=80, velocity=0, time=7),\n",
      "    Message('note_on', channel=8, note=76, velocity=90, time=2),\n",
      "    Message('note_on', channel=8, note=78, velocity=0, time=7),\n",
      "    Message('note_on', channel=8, note=75, velocity=90, time=2),\n",
      "    Message('note_on', channel=8, note=76, velocity=0, time=8),\n",
      "    Message('note_on', channel=8, note=73, velocity=90, time=5),\n",
      "    Message('note_on', channel=8, note=75, velocity=0, time=7),\n",
      "    Message('note_on', channel=8, note=71, velocity=90, time=4),\n",
      "    Message('note_on', channel=8, note=73, velocity=0, time=6),\n",
      "    Message('note_on', channel=8, note=69, velocity=90, time=3),\n",
      "    Message('note_on', channel=8, note=71, velocity=0, time=6),\n",
      "    Message('note_on', channel=8, note=69, velocity=0, time=7),\n",
      "    MetaMessage('end_of_track', time=0)]),\n",
      "  MidiTrack([\n",
      "    MetaMessage('midi_port', port=0, time=0),\n",
      "    MetaMessage('track_name', name='WAVE', time=0),\n",
      "    Message('program_change', channel=10, program=122, time=0),\n",
      "    Message('control_change', channel=10, control=7, value=65, time=0),\n",
      "    Message('control_change', channel=10, control=10, value=64, time=0),\n",
      "    Message('note_on', channel=10, note=71, velocity=90, time=36623),\n",
      "    Message('note_on', channel=10, note=71, velocity=0, time=280),\n",
      "    Message('note_on', channel=10, note=75, velocity=90, time=243),\n",
      "    Message('note_on', channel=10, note=75, velocity=0, time=526),\n",
      "    Message('note_on', channel=10, note=68, velocity=90, time=246),\n",
      "    Message('note_on', channel=10, note=68, velocity=0, time=379),\n",
      "    Message('note_on', channel=10, note=76, velocity=90, time=238),\n",
      "    Message('note_on', channel=10, note=76, velocity=0, time=389),\n",
      "    Message('note_on', channel=10, note=68, velocity=90, time=142),\n",
      "    Message('note_on', channel=10, note=68, velocity=0, time=460),\n",
      "    Message('note_on', channel=10, note=76, velocity=90, time=251),\n",
      "    Message('note_on', channel=10, note=76, velocity=0, time=465),\n",
      "    Message('note_on', channel=10, note=68, velocity=90, time=159),\n",
      "    Message('note_on', channel=10, note=68, velocity=0, time=449),\n",
      "    MetaMessage('end_of_track', time=0)])\n",
      "])\n"
     ]
    }
   ],
   "source": [
    "mid = mido.MidiFile(midi_path)\n",
    "print(mid)"
   ]
  },
  {
   "cell_type": "code",
   "execution_count": 6,
   "id": "1e4f6dec-7f71-4d9a-a636-aa050bdbca7f",
   "metadata": {
    "tags": []
   },
   "outputs": [
    {
     "data": {
      "text/plain": [
       "[MidiTrack([\n",
       "   MetaMessage('track_name', name='The Day We Find Love -- Wp15b@ub.net.id', time=0),\n",
       "   MetaMessage('track_name', name='911', time=0),\n",
       "   MetaMessage('copyright', text='Copyright © 1997 by Belinda Hadiwidjaja', time=0),\n",
       "   MetaMessage('text', text='Belinda Hadiwidjaja', time=0),\n",
       "   MetaMessage('text', text='*********************************\\n', time=0),\n",
       "   MetaMessage('text', text='THE DAY WE FIND LOVE \\n', time=0),\n",
       "   MetaMessage('text', text='                 by:\\n', time=0),\n",
       "   MetaMessage('text', text='              9   1   1 \\n', time=0),\n",
       "   MetaMessage('text', text='**********************************\\n', time=0),\n",
       "   MetaMessage('text', text='Sequencer:\\n', time=0),\n",
       "   MetaMessage('text', text='Belinda Hadiwidjaja \\n', time=0),\n",
       "   MetaMessage('text', text='wp15b@ub.net.id\\n', time=0),\n",
       "   MetaMessage('text', text='Jakarta, Indonesia\\n', time=0),\n",
       "   MetaMessage('text', text='CakeWalk Pro Audio 5\\n', time=0),\n",
       "   MetaMessage('smpte_offset', frame_rate=25, hours=32, minutes=0, seconds=3, frames=0, sub_frames=0, time=0),\n",
       "   MetaMessage('time_signature', numerator=4, denominator=4, clocks_per_click=24, notated_32nd_notes_per_beat=8, time=0),\n",
       "   MetaMessage('key_signature', key='D', time=0),\n",
       "   MetaMessage('set_tempo', tempo=731707, time=0),\n",
       "   MetaMessage('marker', text='INTRO', time=0),\n",
       "   MetaMessage('marker', text='THEME1', time=4320),\n",
       "   MetaMessage('marker', text='REFREN 1', time=8160),\n",
       "   MetaMessage('marker', text='THEME 2', time=4800),\n",
       "   MetaMessage('marker', text='REFREN 2', time=8160),\n",
       "   MetaMessage('key_signature', key='E', time=4800),\n",
       "   MetaMessage('marker', text='BRIGDE', time=0),\n",
       "   MetaMessage('marker', text='ENDING', time=6240),\n",
       "   MetaMessage('set_tempo', tempo=740741, time=3264),\n",
       "   MetaMessage('set_tempo', tempo=750000, time=28),\n",
       "   MetaMessage('set_tempo', tempo=759494, time=28),\n",
       "   MetaMessage('set_tempo', tempo=769231, time=28),\n",
       "   MetaMessage('set_tempo', tempo=779221, time=28),\n",
       "   MetaMessage('set_tempo', tempo=789474, time=28),\n",
       "   MetaMessage('set_tempo', tempo=800000, time=28),\n",
       "   MetaMessage('set_tempo', tempo=810811, time=28),\n",
       "   MetaMessage('set_tempo', tempo=821918, time=28),\n",
       "   MetaMessage('set_tempo', tempo=833333, time=28),\n",
       "   MetaMessage('set_tempo', tempo=845070, time=28),\n",
       "   MetaMessage('set_tempo', tempo=857143, time=28),\n",
       "   MetaMessage('set_tempo', tempo=869565, time=28),\n",
       "   MetaMessage('set_tempo', tempo=882353, time=28),\n",
       "   MetaMessage('set_tempo', tempo=895522, time=28),\n",
       "   MetaMessage('set_tempo', tempo=909091, time=28),\n",
       "   MetaMessage('set_tempo', tempo=923077, time=28),\n",
       "   MetaMessage('set_tempo', tempo=937500, time=26),\n",
       "   MetaMessage('set_tempo', tempo=952381, time=28),\n",
       "   MetaMessage('set_tempo', tempo=967742, time=28),\n",
       "   MetaMessage('set_tempo', tempo=983607, time=28),\n",
       "   MetaMessage('set_tempo', tempo=1000000, time=28),\n",
       "   MetaMessage('set_tempo', tempo=1016949, time=28),\n",
       "   MetaMessage('set_tempo', tempo=1034483, time=28),\n",
       "   MetaMessage('set_tempo', tempo=1052632, time=28),\n",
       "   MetaMessage('set_tempo', tempo=1071429, time=28),\n",
       "   MetaMessage('set_tempo', tempo=1090909, time=28),\n",
       "   MetaMessage('set_tempo', tempo=1111111, time=28),\n",
       "   MetaMessage('set_tempo', tempo=1132075, time=28),\n",
       "   MetaMessage('set_tempo', tempo=1153846, time=28),\n",
       "   MetaMessage('set_tempo', tempo=1176471, time=28),\n",
       "   MetaMessage('set_tempo', tempo=1200000, time=28),\n",
       "   MetaMessage('set_tempo', tempo=1224490, time=28),\n",
       "   MetaMessage('set_tempo', tempo=1250000, time=26),\n",
       "   MetaMessage('end_of_track', time=0)]),\n",
       " MidiTrack([\n",
       "   MetaMessage('midi_port', port=0, time=0),\n",
       "   MetaMessage('track_name', name='KLENTENGAN', time=0),\n",
       "   Message('program_change', channel=0, program=98, time=0),\n",
       "   Message('control_change', channel=0, control=7, value=100, time=0),\n",
       "   Message('control_change', channel=0, control=10, value=64, time=0),\n",
       "   Message('note_on', channel=0, note=61, velocity=90, time=720),\n",
       "   Message('note_on', channel=0, note=61, velocity=0, time=60),\n",
       "   Message('note_on', channel=0, note=62, velocity=90, time=6),\n",
       "   Message('note_on', channel=0, note=62, velocity=0, time=60),\n",
       "   Message('note_on', channel=0, note=69, velocity=90, time=0),\n",
       "   Message('note_on', channel=0, note=69, velocity=0, time=60),\n",
       "   Message('note_on', channel=0, note=61, velocity=90, time=0),\n",
       "   Message('note_on', channel=0, note=61, velocity=0, time=120),\n",
       "   Message('note_on', channel=0, note=62, velocity=90, time=0),\n",
       "   Message('note_on', channel=0, note=62, velocity=0, time=180),\n",
       "   Message('note_on', channel=0, note=61, velocity=90, time=0),\n",
       "   Message('note_on', channel=0, note=61, velocity=0, time=60),\n",
       "   Message('note_on', channel=0, note=62, velocity=90, time=0),\n",
       "   Message('note_on', channel=0, note=62, velocity=0, time=60),\n",
       "   Message('note_on', channel=0, note=69, velocity=90, time=0),\n",
       "   Message('note_on', channel=0, note=69, velocity=0, time=60),\n",
       "   Message('note_on', channel=0, note=57, velocity=90, time=0),\n",
       "   Message('note_on', channel=0, note=57, velocity=0, time=120),\n",
       "   Message('note_on', channel=0, note=59, velocity=90, time=0),\n",
       "   Message('note_on', channel=0, note=59, velocity=0, time=360),\n",
       "   Message('note_on', channel=0, note=61, velocity=90, time=774),\n",
       "   Message('note_on', channel=0, note=61, velocity=0, time=60),\n",
       "   Message('note_on', channel=0, note=62, velocity=90, time=6),\n",
       "   Message('note_on', channel=0, note=62, velocity=0, time=60),\n",
       "   Message('note_on', channel=0, note=69, velocity=90, time=0),\n",
       "   Message('note_on', channel=0, note=69, velocity=0, time=60),\n",
       "   Message('note_on', channel=0, note=61, velocity=90, time=0),\n",
       "   Message('note_on', channel=0, note=61, velocity=0, time=120),\n",
       "   Message('note_on', channel=0, note=62, velocity=90, time=0),\n",
       "   Message('note_on', channel=0, note=62, velocity=0, time=180),\n",
       "   Message('note_on', channel=0, note=61, velocity=90, time=0),\n",
       "   Message('note_on', channel=0, note=61, velocity=0, time=60),\n",
       "   Message('note_on', channel=0, note=62, velocity=90, time=0),\n",
       "   Message('note_on', channel=0, note=62, velocity=0, time=60),\n",
       "   Message('note_on', channel=0, note=69, velocity=90, time=0),\n",
       "   Message('note_on', channel=0, note=69, velocity=0, time=60),\n",
       "   Message('note_on', channel=0, note=57, velocity=90, time=0),\n",
       "   Message('note_on', channel=0, note=57, velocity=0, time=120),\n",
       "   Message('note_on', channel=0, note=59, velocity=90, time=0),\n",
       "   Message('note_on', channel=0, note=59, velocity=0, time=360),\n",
       "   Message('note_on', channel=0, note=61, velocity=90, time=8934),\n",
       "   Message('note_on', channel=0, note=61, velocity=0, time=60),\n",
       "   Message('note_on', channel=0, note=62, velocity=90, time=0),\n",
       "   Message('note_on', channel=0, note=62, velocity=0, time=60),\n",
       "   Message('note_on', channel=0, note=69, velocity=90, time=0),\n",
       "   Message('note_on', channel=0, note=69, velocity=0, time=60),\n",
       "   Message('note_on', channel=0, note=61, velocity=90, time=0),\n",
       "   Message('note_on', channel=0, note=61, velocity=0, time=60),\n",
       "   Message('note_on', channel=0, note=62, velocity=90, time=60),\n",
       "   Message('note_on', channel=0, note=62, velocity=0, time=60),\n",
       "   Message('note_on', channel=0, note=61, velocity=90, time=120),\n",
       "   Message('note_on', channel=0, note=61, velocity=0, time=60),\n",
       "   Message('note_on', channel=0, note=62, velocity=90, time=0),\n",
       "   Message('note_on', channel=0, note=62, velocity=0, time=60),\n",
       "   Message('note_on', channel=0, note=69, velocity=90, time=0),\n",
       "   Message('note_on', channel=0, note=69, velocity=0, time=60),\n",
       "   Message('note_on', channel=0, note=57, velocity=90, time=0),\n",
       "   Message('note_on', channel=0, note=57, velocity=0, time=120),\n",
       "   Message('note_on', channel=0, note=59, velocity=90, time=0),\n",
       "   Message('note_on', channel=0, note=59, velocity=0, time=180),\n",
       "   Message('note_on', channel=0, note=59, velocity=90, time=60),\n",
       "   Message('note_on', channel=0, note=59, velocity=0, time=60),\n",
       "   Message('note_on', channel=0, note=62, velocity=90, time=0),\n",
       "   Message('note_on', channel=0, note=62, velocity=0, time=60),\n",
       "   Message('note_on', channel=0, note=67, velocity=90, time=0),\n",
       "   Message('note_on', channel=0, note=67, velocity=0, time=120),\n",
       "   Message('note_on', channel=0, note=66, velocity=90, time=0),\n",
       "   Message('note_on', channel=0, note=66, velocity=0, time=120),\n",
       "   Message('note_on', channel=0, note=62, velocity=90, time=0),\n",
       "   Message('note_on', channel=0, note=62, velocity=0, time=60),\n",
       "   Message('note_on', channel=0, note=59, velocity=90, time=60),\n",
       "   Message('note_on', channel=0, note=59, velocity=0, time=60),\n",
       "   Message('note_on', channel=0, note=57, velocity=90, time=60),\n",
       "   Message('note_on', channel=0, note=57, velocity=0, time=120),\n",
       "   Message('note_on', channel=0, note=61, velocity=90, time=180),\n",
       "   Message('note_on', channel=0, note=61, velocity=0, time=60),\n",
       "   Message('note_on', channel=0, note=62, velocity=90, time=0),\n",
       "   Message('note_on', channel=0, note=62, velocity=0, time=60),\n",
       "   Message('note_on', channel=0, note=69, velocity=90, time=0),\n",
       "   Message('note_on', channel=0, note=69, velocity=0, time=60),\n",
       "   Message('note_on', channel=0, note=61, velocity=90, time=0),\n",
       "   Message('note_on', channel=0, note=61, velocity=0, time=120),\n",
       "   Message('note_on', channel=0, note=62, velocity=90, time=0),\n",
       "   Message('note_on', channel=0, note=62, velocity=0, time=120),\n",
       "   Message('note_on', channel=0, note=61, velocity=90, time=60),\n",
       "   Message('note_on', channel=0, note=61, velocity=0, time=60),\n",
       "   Message('note_on', channel=0, note=62, velocity=90, time=0),\n",
       "   Message('note_on', channel=0, note=62, velocity=0, time=60),\n",
       "   Message('note_on', channel=0, note=69, velocity=90, time=0),\n",
       "   Message('note_on', channel=0, note=69, velocity=0, time=60),\n",
       "   Message('note_on', channel=0, note=57, velocity=90, time=0),\n",
       "   Message('note_on', channel=0, note=57, velocity=0, time=120),\n",
       "   Message('note_on', channel=0, note=59, velocity=90, time=0),\n",
       "   Message('note_on', channel=0, note=59, velocity=0, time=240),\n",
       "   Message('note_on', channel=0, note=59, velocity=90, time=0),\n",
       "   Message('note_on', channel=0, note=59, velocity=0, time=60),\n",
       "   Message('note_on', channel=0, note=62, velocity=90, time=0),\n",
       "   Message('note_on', channel=0, note=62, velocity=0, time=60),\n",
       "   Message('note_on', channel=0, note=67, velocity=90, time=0),\n",
       "   Message('note_on', channel=0, note=67, velocity=0, time=120),\n",
       "   Message('note_on', channel=0, note=66, velocity=90, time=0),\n",
       "   Message('note_on', channel=0, note=66, velocity=0, time=120),\n",
       "   Message('note_on', channel=0, note=62, velocity=90, time=0),\n",
       "   Message('note_on', channel=0, note=62, velocity=0, time=120),\n",
       "   Message('note_on', channel=0, note=59, velocity=90, time=0),\n",
       "   Message('note_on', channel=0, note=59, velocity=0, time=120),\n",
       "   Message('note_on', channel=0, note=57, velocity=90, time=0),\n",
       "   Message('note_on', channel=0, note=57, velocity=0, time=360),\n",
       "   Message('note_on', channel=0, note=61, velocity=90, time=9060),\n",
       "   Message('note_on', channel=0, note=61, velocity=0, time=60),\n",
       "   Message('note_on', channel=0, note=62, velocity=90, time=0),\n",
       "   Message('note_on', channel=0, note=62, velocity=0, time=60),\n",
       "   Message('note_on', channel=0, note=69, velocity=90, time=0),\n",
       "   Message('note_on', channel=0, note=69, velocity=0, time=60),\n",
       "   Message('note_on', channel=0, note=61, velocity=90, time=0),\n",
       "   Message('note_on', channel=0, note=61, velocity=0, time=60),\n",
       "   Message('note_on', channel=0, note=62, velocity=90, time=60),\n",
       "   Message('note_on', channel=0, note=62, velocity=0, time=60),\n",
       "   Message('note_on', channel=0, note=61, velocity=90, time=120),\n",
       "   Message('note_on', channel=0, note=61, velocity=0, time=60),\n",
       "   Message('note_on', channel=0, note=62, velocity=90, time=0),\n",
       "   Message('note_on', channel=0, note=62, velocity=0, time=60),\n",
       "   Message('note_on', channel=0, note=69, velocity=90, time=0),\n",
       "   Message('note_on', channel=0, note=69, velocity=0, time=60),\n",
       "   Message('note_on', channel=0, note=57, velocity=90, time=0),\n",
       "   Message('note_on', channel=0, note=57, velocity=0, time=120),\n",
       "   Message('note_on', channel=0, note=59, velocity=90, time=0),\n",
       "   Message('note_on', channel=0, note=59, velocity=0, time=180),\n",
       "   Message('note_on', channel=0, note=59, velocity=90, time=60),\n",
       "   Message('note_on', channel=0, note=59, velocity=0, time=60),\n",
       "   Message('note_on', channel=0, note=62, velocity=90, time=0),\n",
       "   Message('note_on', channel=0, note=62, velocity=0, time=60),\n",
       "   Message('note_on', channel=0, note=67, velocity=90, time=0),\n",
       "   Message('note_on', channel=0, note=67, velocity=0, time=120),\n",
       "   Message('note_on', channel=0, note=66, velocity=90, time=0),\n",
       "   Message('note_on', channel=0, note=66, velocity=0, time=120),\n",
       "   Message('note_on', channel=0, note=62, velocity=90, time=0),\n",
       "   Message('note_on', channel=0, note=62, velocity=0, time=60),\n",
       "   Message('note_on', channel=0, note=59, velocity=90, time=60),\n",
       "   Message('note_on', channel=0, note=59, velocity=0, time=60),\n",
       "   Message('note_on', channel=0, note=57, velocity=90, time=60),\n",
       "   Message('note_on', channel=0, note=57, velocity=0, time=120),\n",
       "   Message('note_on', channel=0, note=61, velocity=90, time=180),\n",
       "   Message('note_on', channel=0, note=61, velocity=0, time=60),\n",
       "   Message('note_on', channel=0, note=62, velocity=90, time=0),\n",
       "   Message('note_on', channel=0, note=62, velocity=0, time=60),\n",
       "   Message('note_on', channel=0, note=69, velocity=90, time=0),\n",
       "   Message('note_on', channel=0, note=69, velocity=0, time=60),\n",
       "   Message('note_on', channel=0, note=61, velocity=90, time=0),\n",
       "   Message('note_on', channel=0, note=61, velocity=0, time=120),\n",
       "   Message('note_on', channel=0, note=62, velocity=90, time=0),\n",
       "   Message('note_on', channel=0, note=62, velocity=0, time=120),\n",
       "   Message('note_on', channel=0, note=61, velocity=90, time=60),\n",
       "   Message('note_on', channel=0, note=61, velocity=0, time=60),\n",
       "   Message('note_on', channel=0, note=62, velocity=90, time=0),\n",
       "   Message('note_on', channel=0, note=62, velocity=0, time=60),\n",
       "   Message('note_on', channel=0, note=69, velocity=90, time=0),\n",
       "   Message('note_on', channel=0, note=69, velocity=0, time=60),\n",
       "   Message('note_on', channel=0, note=57, velocity=90, time=0),\n",
       "   Message('note_on', channel=0, note=57, velocity=0, time=120),\n",
       "   Message('note_on', channel=0, note=59, velocity=90, time=0),\n",
       "   Message('note_on', channel=0, note=59, velocity=0, time=240),\n",
       "   Message('note_on', channel=0, note=59, velocity=90, time=0),\n",
       "   Message('note_on', channel=0, note=59, velocity=0, time=60),\n",
       "   Message('note_on', channel=0, note=62, velocity=90, time=0),\n",
       "   Message('note_on', channel=0, note=62, velocity=0, time=60),\n",
       "   Message('note_on', channel=0, note=67, velocity=90, time=0),\n",
       "   Message('note_on', channel=0, note=67, velocity=0, time=120),\n",
       "   Message('note_on', channel=0, note=66, velocity=90, time=0),\n",
       "   Message('note_on', channel=0, note=66, velocity=0, time=120),\n",
       "   Message('note_on', channel=0, note=62, velocity=90, time=0),\n",
       "   Message('note_on', channel=0, note=62, velocity=0, time=120),\n",
       "   Message('note_on', channel=0, note=59, velocity=90, time=0),\n",
       "   Message('note_on', channel=0, note=59, velocity=0, time=120),\n",
       "   Message('note_on', channel=0, note=57, velocity=90, time=0),\n",
       "   Message('note_on', channel=0, note=57, velocity=0, time=360),\n",
       "   Message('note_on', channel=0, note=63, velocity=90, time=900),\n",
       "   Message('note_on', channel=0, note=63, velocity=0, time=60),\n",
       "   Message('note_on', channel=0, note=64, velocity=90, time=6),\n",
       "   Message('note_on', channel=0, note=64, velocity=0, time=60),\n",
       "   Message('note_on', channel=0, note=71, velocity=90, time=0),\n",
       "   Message('note_on', channel=0, note=71, velocity=0, time=60),\n",
       "   Message('note_on', channel=0, note=63, velocity=90, time=0),\n",
       "   Message('note_on', channel=0, note=63, velocity=0, time=120),\n",
       "   Message('note_on', channel=0, note=64, velocity=90, time=0),\n",
       "   Message('note_on', channel=0, note=64, velocity=0, time=180),\n",
       "   Message('note_on', channel=0, note=63, velocity=90, time=0),\n",
       "   Message('note_on', channel=0, note=63, velocity=0, time=60),\n",
       "   Message('note_on', channel=0, note=64, velocity=90, time=0),\n",
       "   Message('note_on', channel=0, note=64, velocity=0, time=60),\n",
       "   Message('note_on', channel=0, note=71, velocity=90, time=0),\n",
       "   Message('note_on', channel=0, note=71, velocity=0, time=60),\n",
       "   Message('note_on', channel=0, note=59, velocity=90, time=0),\n",
       "   Message('note_on', channel=0, note=59, velocity=0, time=120),\n",
       "   Message('note_on', channel=0, note=61, velocity=90, time=0),\n",
       "   Message('note_on', channel=0, note=61, velocity=0, time=360),\n",
       "   Message('note_on', channel=0, note=80, velocity=90, time=4674),\n",
       "   Message('note_on', channel=0, note=80, velocity=0, time=60),\n",
       "   Message('note_on', channel=0, note=78, velocity=90, time=0),\n",
       "   Message('note_on', channel=0, note=78, velocity=0, time=60),\n",
       "   Message('note_on', channel=0, note=78, velocity=90, time=0),\n",
       "   Message('note_on', channel=0, note=78, velocity=0, time=60),\n",
       "   Message('note_on', channel=0, note=76, velocity=100, time=0),\n",
       "   Message('note_on', channel=0, note=76, velocity=0, time=240),\n",
       "   Message('note_on', channel=0, note=75, velocity=90, time=0),\n",
       "   Message('note_on', channel=0, note=75, velocity=0, time=60),\n",
       "   Message('note_on', channel=0, note=76, velocity=90, time=0),\n",
       "   Message('note_on', channel=0, note=76, velocity=0, time=60),\n",
       "   Message('note_on', channel=0, note=83, velocity=90, time=0),\n",
       "   Message('note_on', channel=0, note=83, velocity=0, time=60),\n",
       "   Message('note_on', channel=0, note=75, velocity=90, time=0),\n",
       "   Message('note_on', channel=0, note=75, velocity=0, time=120),\n",
       "   Message('note_on', channel=0, note=76, velocity=90, time=0),\n",
       "   Message('note_on', channel=0, note=76, velocity=0, time=120),\n",
       "   Message('note_on', channel=0, note=75, velocity=90, time=60),\n",
       "   Message('note_on', channel=0, note=75, velocity=0, time=60),\n",
       "   Message('note_on', channel=0, note=76, velocity=90, time=0),\n",
       "   Message('note_on', channel=0, note=76, velocity=0, time=60),\n",
       "   Message('note_on', channel=0, note=83, velocity=90, time=0),\n",
       "   Message('note_on', channel=0, note=83, velocity=0, time=60),\n",
       "   Message('note_on', channel=0, note=71, velocity=90, time=0),\n",
       "   Message('note_on', channel=0, note=71, velocity=0, time=120),\n",
       "   Message('note_on', channel=0, note=73, velocity=90, time=0),\n",
       "   Message('note_on', channel=0, note=73, velocity=0, time=120),\n",
       "   Message('note_on', channel=0, note=73, velocity=90, time=123),\n",
       "   Message('note_on', channel=0, note=73, velocity=0, time=52),\n",
       "   Message('note_on', channel=0, note=76, velocity=90, time=5),\n",
       "   Message('note_on', channel=0, note=76, velocity=0, time=60),\n",
       "   Message('note_on', channel=0, note=81, velocity=90, time=0),\n",
       "   Message('note_on', channel=0, note=81, velocity=0, time=120),\n",
       "   Message('note_on', channel=0, note=80, velocity=90, time=0),\n",
       "   Message('note_on', channel=0, note=80, velocity=0, time=60),\n",
       "   Message('note_on', channel=0, note=76, velocity=90, time=0),\n",
       "   Message('note_on', channel=0, note=76, velocity=0, time=60),\n",
       "   Message('note_on', channel=0, note=81, velocity=90, time=0),\n",
       "   Message('note_on', channel=0, note=81, velocity=0, time=120),\n",
       "   Message('note_on', channel=0, note=80, velocity=90, time=0),\n",
       "   Message('note_on', channel=0, note=80, velocity=0, time=60),\n",
       "   Message('note_on', channel=0, note=78, velocity=90, time=0),\n",
       "   Message('note_on', channel=0, note=78, velocity=0, time=60),\n",
       "   Message('note_on', channel=0, note=78, velocity=90, time=0),\n",
       "   Message('note_on', channel=0, note=78, velocity=0, time=60),\n",
       "   Message('note_on', channel=0, note=76, velocity=90, time=0),\n",
       "   Message('note_on', channel=0, note=76, velocity=0, time=120),\n",
       "   Message('note_on', channel=0, note=71, velocity=90, time=60),\n",
       "   Message('note_on', channel=0, note=71, velocity=0, time=60),\n",
       "   Message('note_on', channel=0, note=75, velocity=90, time=0),\n",
       "   Message('note_on', channel=0, note=75, velocity=0, time=60),\n",
       "   Message('note_on', channel=0, note=76, velocity=90, time=0),\n",
       "   Message('note_on', channel=0, note=76, velocity=0, time=60),\n",
       "   Message('note_on', channel=0, note=83, velocity=90, time=0),\n",
       "   Message('note_on', channel=0, note=83, velocity=0, time=60),\n",
       "   Message('note_on', channel=0, note=75, velocity=90, time=0),\n",
       "   Message('note_on', channel=0, note=75, velocity=0, time=120),\n",
       "   Message('note_on', channel=0, note=76, velocity=90, time=0),\n",
       "   Message('note_on', channel=0, note=76, velocity=0, time=180),\n",
       "   Message('note_on', channel=0, note=75, velocity=90, time=0),\n",
       "   Message('note_on', channel=0, note=75, velocity=0, time=60),\n",
       "   Message('note_on', channel=0, note=76, velocity=90, time=0),\n",
       "   Message('note_on', channel=0, note=76, velocity=0, time=60),\n",
       "   Message('note_on', channel=0, note=83, velocity=90, time=0),\n",
       "   Message('note_on', channel=0, note=83, velocity=0, time=60),\n",
       "   Message('note_on', channel=0, note=71, velocity=90, time=0),\n",
       "   Message('note_on', channel=0, note=71, velocity=0, time=120),\n",
       "   Message('note_on', channel=0, note=73, velocity=90, time=0),\n",
       "   Message('note_on', channel=0, note=73, velocity=0, time=300),\n",
       "   Message('note_on', channel=0, note=76, velocity=90, time=0),\n",
       "   Message('note_on', channel=0, note=76, velocity=0, time=60),\n",
       "   Message('note_on', channel=0, note=76, velocity=90, time=0),\n",
       "   Message('note_on', channel=0, note=76, velocity=0, time=120),\n",
       "   Message('note_on', channel=0, note=73, velocity=90, time=0),\n",
       "   Message('note_on', channel=0, note=73, velocity=0, time=60),\n",
       "   Message('note_on', channel=0, note=76, velocity=90, time=0),\n",
       "   Message('note_on', channel=0, note=76, velocity=0, time=60),\n",
       "   Message('note_on', channel=0, note=80, velocity=90, time=0),\n",
       "   Message('note_on', channel=0, note=80, velocity=0, time=120),\n",
       "   Message('note_on', channel=0, note=78, velocity=90, time=0),\n",
       "   Message('note_on', channel=0, note=78, velocity=0, time=120),\n",
       "   Message('note_on', channel=0, note=76, velocity=90, time=0),\n",
       "   Message('note_on', channel=0, note=78, velocity=90, time=30),\n",
       "   Message('note_on', channel=0, note=78, velocity=0, time=30),\n",
       "   Message('note_on', channel=0, note=76, velocity=0, time=0),\n",
       "   Message('note_on', channel=0, note=76, velocity=90, time=0),\n",
       "   Message('note_on', channel=0, note=76, velocity=0, time=360),\n",
       "   MetaMessage('end_of_track', time=0)]),\n",
       " MidiTrack([\n",
       "   MetaMessage('midi_port', port=0, time=0),\n",
       "   MetaMessage('track_name', name='DENGUNG', time=0),\n",
       "   Message('program_change', channel=1, program=92, time=0),\n",
       "   Message('control_change', channel=1, control=7, value=100, time=0),\n",
       "   Message('control_change', channel=1, control=10, value=64, time=0),\n",
       "   Message('note_on', channel=1, note=61, velocity=90, time=714),\n",
       "   Message('note_on', channel=1, note=61, velocity=0, time=60),\n",
       "   Message('note_on', channel=1, note=62, velocity=90, time=6),\n",
       "   Message('note_on', channel=1, note=62, velocity=0, time=60),\n",
       "   Message('note_on', channel=1, note=69, velocity=90, time=0),\n",
       "   Message('note_on', channel=1, note=69, velocity=0, time=60),\n",
       "   Message('note_on', channel=1, note=61, velocity=90, time=0),\n",
       "   Message('note_on', channel=1, note=61, velocity=0, time=120),\n",
       "   Message('note_on', channel=1, note=62, velocity=90, time=0),\n",
       "   Message('note_on', channel=1, note=62, velocity=0, time=180),\n",
       "   Message('note_on', channel=1, note=61, velocity=90, time=0),\n",
       "   Message('note_on', channel=1, note=61, velocity=0, time=60),\n",
       "   Message('note_on', channel=1, note=62, velocity=90, time=0),\n",
       "   Message('note_on', channel=1, note=62, velocity=0, time=60),\n",
       "   Message('note_on', channel=1, note=69, velocity=90, time=0),\n",
       "   Message('note_on', channel=1, note=69, velocity=0, time=60),\n",
       "   Message('note_on', channel=1, note=57, velocity=90, time=0),\n",
       "   Message('note_on', channel=1, note=57, velocity=0, time=120),\n",
       "   Message('note_on', channel=1, note=59, velocity=90, time=0),\n",
       "   Message('note_on', channel=1, note=59, velocity=0, time=360),\n",
       "   Message('note_on', channel=1, note=61, velocity=90, time=774),\n",
       "   Message('note_on', channel=1, note=61, velocity=0, time=60),\n",
       "   Message('note_on', channel=1, note=62, velocity=90, time=6),\n",
       "   Message('note_on', channel=1, note=62, velocity=0, time=60),\n",
       "   Message('note_on', channel=1, note=69, velocity=90, time=0),\n",
       "   Message('note_on', channel=1, note=69, velocity=0, time=60),\n",
       "   Message('note_on', channel=1, note=61, velocity=90, time=0),\n",
       "   Message('note_on', channel=1, note=61, velocity=0, time=120),\n",
       "   Message('note_on', channel=1, note=62, velocity=90, time=0),\n",
       "   Message('note_on', channel=1, note=62, velocity=0, time=180),\n",
       "   Message('note_on', channel=1, note=61, velocity=90, time=0),\n",
       "   Message('note_on', channel=1, note=61, velocity=0, time=60),\n",
       "   Message('note_on', channel=1, note=62, velocity=90, time=0),\n",
       "   Message('note_on', channel=1, note=62, velocity=0, time=60),\n",
       "   Message('note_on', channel=1, note=69, velocity=90, time=0),\n",
       "   Message('note_on', channel=1, note=69, velocity=0, time=60),\n",
       "   Message('note_on', channel=1, note=57, velocity=90, time=0),\n",
       "   Message('note_on', channel=1, note=57, velocity=0, time=120),\n",
       "   Message('note_on', channel=1, note=59, velocity=90, time=0),\n",
       "   Message('note_on', channel=1, note=59, velocity=0, time=360),\n",
       "   Message('note_on', channel=1, note=63, velocity=90, time=26694),\n",
       "   Message('note_on', channel=1, note=63, velocity=0, time=60),\n",
       "   Message('note_on', channel=1, note=64, velocity=90, time=6),\n",
       "   Message('note_on', channel=1, note=64, velocity=0, time=60),\n",
       "   Message('note_on', channel=1, note=71, velocity=90, time=0),\n",
       "   Message('note_on', channel=1, note=71, velocity=0, time=60),\n",
       "   Message('note_on', channel=1, note=63, velocity=90, time=0),\n",
       "   Message('note_on', channel=1, note=63, velocity=0, time=120),\n",
       "   Message('note_on', channel=1, note=64, velocity=90, time=0),\n",
       "   Message('note_on', channel=1, note=64, velocity=0, time=180),\n",
       "   Message('note_on', channel=1, note=63, velocity=90, time=0),\n",
       "   Message('note_on', channel=1, note=63, velocity=0, time=60),\n",
       "   Message('note_on', channel=1, note=64, velocity=90, time=0),\n",
       "   Message('note_on', channel=1, note=64, velocity=0, time=60),\n",
       "   Message('note_on', channel=1, note=71, velocity=90, time=0),\n",
       "   Message('note_on', channel=1, note=71, velocity=0, time=60),\n",
       "   Message('note_on', channel=1, note=59, velocity=90, time=0),\n",
       "   Message('note_on', channel=1, note=59, velocity=0, time=120),\n",
       "   Message('note_on', channel=1, note=61, velocity=90, time=0),\n",
       "   Message('note_on', channel=1, note=61, velocity=0, time=360),\n",
       "   Message('note_on', channel=1, note=80, velocity=90, time=4680),\n",
       "   Message('note_on', channel=1, note=80, velocity=0, time=60),\n",
       "   Message('note_on', channel=1, note=78, velocity=90, time=0),\n",
       "   Message('note_on', channel=1, note=78, velocity=0, time=60),\n",
       "   Message('note_on', channel=1, note=78, velocity=90, time=0),\n",
       "   Message('note_on', channel=1, note=78, velocity=0, time=60),\n",
       "   Message('note_on', channel=1, note=76, velocity=100, time=0),\n",
       "   Message('note_on', channel=1, note=76, velocity=0, time=240),\n",
       "   Message('note_on', channel=1, note=75, velocity=90, time=0),\n",
       "   Message('note_on', channel=1, note=75, velocity=0, time=60),\n",
       "   Message('note_on', channel=1, note=76, velocity=90, time=0),\n",
       "   Message('note_on', channel=1, note=76, velocity=0, time=60),\n",
       "   Message('note_on', channel=1, note=83, velocity=90, time=0),\n",
       "   Message('note_on', channel=1, note=83, velocity=0, time=60),\n",
       "   Message('note_on', channel=1, note=75, velocity=90, time=0),\n",
       "   Message('note_on', channel=1, note=75, velocity=0, time=120),\n",
       "   Message('note_on', channel=1, note=76, velocity=90, time=0),\n",
       "   Message('note_on', channel=1, note=76, velocity=0, time=120),\n",
       "   Message('note_on', channel=1, note=75, velocity=90, time=60),\n",
       "   Message('note_on', channel=1, note=75, velocity=0, time=60),\n",
       "   Message('note_on', channel=1, note=76, velocity=90, time=0),\n",
       "   Message('note_on', channel=1, note=76, velocity=0, time=60),\n",
       "   Message('note_on', channel=1, note=83, velocity=90, time=0),\n",
       "   Message('note_on', channel=1, note=83, velocity=0, time=60),\n",
       "   Message('note_on', channel=1, note=71, velocity=90, time=0),\n",
       "   Message('note_on', channel=1, note=71, velocity=0, time=120),\n",
       "   Message('note_on', channel=1, note=73, velocity=90, time=0),\n",
       "   Message('note_on', channel=1, note=73, velocity=0, time=120),\n",
       "   Message('note_on', channel=1, note=73, velocity=90, time=123),\n",
       "   Message('note_on', channel=1, note=73, velocity=0, time=52),\n",
       "   Message('note_on', channel=1, note=76, velocity=90, time=5),\n",
       "   Message('note_on', channel=1, note=76, velocity=0, time=60),\n",
       "   Message('note_on', channel=1, note=81, velocity=90, time=0),\n",
       "   Message('note_on', channel=1, note=81, velocity=0, time=120),\n",
       "   Message('note_on', channel=1, note=80, velocity=90, time=0),\n",
       "   Message('note_on', channel=1, note=80, velocity=0, time=60),\n",
       "   Message('note_on', channel=1, note=76, velocity=90, time=0),\n",
       "   Message('note_on', channel=1, note=76, velocity=0, time=60),\n",
       "   Message('note_on', channel=1, note=81, velocity=90, time=0),\n",
       "   Message('note_on', channel=1, note=81, velocity=0, time=120),\n",
       "   Message('note_on', channel=1, note=80, velocity=90, time=0),\n",
       "   Message('note_on', channel=1, note=80, velocity=0, time=60),\n",
       "   Message('note_on', channel=1, note=78, velocity=90, time=0),\n",
       "   Message('note_on', channel=1, note=78, velocity=0, time=60),\n",
       "   Message('note_on', channel=1, note=78, velocity=90, time=0),\n",
       "   Message('note_on', channel=1, note=78, velocity=0, time=60),\n",
       "   Message('note_on', channel=1, note=76, velocity=90, time=0),\n",
       "   Message('note_on', channel=1, note=76, velocity=0, time=120),\n",
       "   Message('note_on', channel=1, note=71, velocity=90, time=60),\n",
       "   Message('note_on', channel=1, note=71, velocity=0, time=60),\n",
       "   Message('note_on', channel=1, note=75, velocity=90, time=0),\n",
       "   Message('note_on', channel=1, note=75, velocity=0, time=60),\n",
       "   Message('note_on', channel=1, note=76, velocity=90, time=0),\n",
       "   Message('note_on', channel=1, note=76, velocity=0, time=60),\n",
       "   Message('note_on', channel=1, note=83, velocity=90, time=0),\n",
       "   Message('note_on', channel=1, note=83, velocity=0, time=60),\n",
       "   Message('note_on', channel=1, note=75, velocity=90, time=0),\n",
       "   Message('note_on', channel=1, note=75, velocity=0, time=120),\n",
       "   Message('note_on', channel=1, note=76, velocity=90, time=0),\n",
       "   Message('note_on', channel=1, note=76, velocity=0, time=180),\n",
       "   Message('note_on', channel=1, note=75, velocity=90, time=0),\n",
       "   Message('note_on', channel=1, note=75, velocity=0, time=60),\n",
       "   Message('note_on', channel=1, note=76, velocity=90, time=0),\n",
       "   Message('note_on', channel=1, note=76, velocity=0, time=60),\n",
       "   Message('note_on', channel=1, note=83, velocity=90, time=0),\n",
       "   Message('note_on', channel=1, note=83, velocity=0, time=60),\n",
       "   Message('note_on', channel=1, note=71, velocity=90, time=0),\n",
       "   Message('note_on', channel=1, note=71, velocity=0, time=120),\n",
       "   Message('note_on', channel=1, note=73, velocity=90, time=0),\n",
       "   Message('note_on', channel=1, note=73, velocity=0, time=300),\n",
       "   Message('note_on', channel=1, note=76, velocity=90, time=0),\n",
       "   Message('note_on', channel=1, note=76, velocity=0, time=60),\n",
       "   Message('note_on', channel=1, note=76, velocity=90, time=0),\n",
       "   Message('note_on', channel=1, note=76, velocity=0, time=120),\n",
       "   Message('note_on', channel=1, note=73, velocity=90, time=0),\n",
       "   Message('note_on', channel=1, note=73, velocity=0, time=60),\n",
       "   Message('note_on', channel=1, note=76, velocity=90, time=0),\n",
       "   Message('note_on', channel=1, note=76, velocity=0, time=60),\n",
       "   Message('note_on', channel=1, note=80, velocity=90, time=0),\n",
       "   Message('note_on', channel=1, note=80, velocity=0, time=120),\n",
       "   Message('note_on', channel=1, note=78, velocity=90, time=0),\n",
       "   Message('note_on', channel=1, note=78, velocity=0, time=120),\n",
       "   Message('note_on', channel=1, note=76, velocity=90, time=0),\n",
       "   Message('note_on', channel=1, note=78, velocity=90, time=30),\n",
       "   Message('note_on', channel=1, note=78, velocity=0, time=30),\n",
       "   Message('note_on', channel=1, note=76, velocity=0, time=0),\n",
       "   Message('note_on', channel=1, note=76, velocity=90, time=0),\n",
       "   Message('note_on', channel=1, note=76, velocity=0, time=360),\n",
       "   MetaMessage('end_of_track', time=0)]),\n",
       " MidiTrack([\n",
       "   MetaMessage('midi_port', port=0, time=0),\n",
       "   MetaMessage('track_name', name='CHORD', time=0),\n",
       "   Message('program_change', channel=2, program=5, time=0),\n",
       "   Message('control_change', channel=2, control=7, value=87, time=0),\n",
       "   Message('control_change', channel=2, control=10, value=64, time=0),\n",
       "   Message('note_on', channel=2, note=66, velocity=90, time=480),\n",
       "   Message('note_on', channel=2, note=62, velocity=90, time=0),\n",
       "   Message('note_on', channel=2, note=57, velocity=90, time=0),\n",
       "   Message('note_on', channel=2, note=64, velocity=90, time=0),\n",
       "   Message('note_on', channel=2, note=64, velocity=90, time=0),\n",
       "   Message('note_on', channel=2, note=64, velocity=0, time=240),\n",
       "   Message('note_on', channel=2, note=64, velocity=0, time=0),\n",
       "   Message('note_on', channel=2, note=64, velocity=90, time=0),\n",
       "   Message('note_on', channel=2, note=64, velocity=0, time=240),\n",
       "   Message('note_on', channel=2, note=57, velocity=0, time=0),\n",
       "   Message('note_on', channel=2, note=62, velocity=0, time=0),\n",
       "   Message('note_on', channel=2, note=66, velocity=0, time=0),\n",
       "   Message('note_on', channel=2, note=62, velocity=90, time=0),\n",
       "   Message('note_on', channel=2, note=59, velocity=90, time=0),\n",
       "   Message('note_on', channel=2, note=66, velocity=90, time=0),\n",
       "   Message('note_on', channel=2, note=66, velocity=0, time=480),\n",
       "   Message('note_on', channel=2, note=59, velocity=0, time=0),\n",
       "   Message('note_on', channel=2, note=62, velocity=0, time=0),\n",
       "   Message('note_on', channel=2, note=62, velocity=90, time=0),\n",
       "   Message('note_on', channel=2, note=59, velocity=90, time=0),\n",
       "   Message('note_on', channel=2, note=55, velocity=90, time=0),\n",
       "   Message('note_on', channel=2, note=55, velocity=90, time=0),\n",
       "   Message('note_on', channel=2, note=55, velocity=0, time=240),\n",
       "   Message('note_on', channel=2, note=62, velocity=0, time=0),\n",
       "   Message('note_on', channel=2, note=59, velocity=0, time=0),\n",
       "   Message('note_on', channel=2, note=59, velocity=90, time=60),\n",
       "   Message('note_on', channel=2, note=59, velocity=0, time=60),\n",
       "   Message('note_on', channel=2, note=62, velocity=90, time=0),\n",
       "   Message('note_on', channel=2, note=62, velocity=0, time=60),\n",
       "   Message('note_on', channel=2, note=67, velocity=90, time=0),\n",
       "   Message('note_on', channel=2, note=55, velocity=0, time=60),\n",
       "   Message('note_on', channel=2, note=67, velocity=0, time=60),\n",
       "   Message('note_on', channel=2, note=66, velocity=90, time=0),\n",
       "   Message('note_on', channel=2, note=66, velocity=0, time=120),\n",
       "   Message('note_on', channel=2, note=62, velocity=90, time=0),\n",
       "   Message('note_on', channel=2, note=62, velocity=0, time=120),\n",
       "   Message('note_on', channel=2, note=59, velocity=90, time=0),\n",
       "   Message('note_on', channel=2, note=59, velocity=0, time=120),\n",
       "   Message('note_on', channel=2, note=57, velocity=90, time=0),\n",
       "   Message('note_on', channel=2, note=66, velocity=90, time=60),\n",
       "   Message('note_on', channel=2, note=62, velocity=90, time=0),\n",
       "   Message('note_on', channel=2, note=57, velocity=90, time=0),\n",
       "   Message('note_on', channel=2, note=64, velocity=90, time=0),\n",
       "   Message('note_on', channel=2, note=64, velocity=90, time=0),\n",
       "   Message('note_on', channel=2, note=57, velocity=0, time=60),\n",
       "   Message('note_on', channel=2, note=64, velocity=0, time=180),\n",
       "   Message('note_on', channel=2, note=64, velocity=0, time=0),\n",
       "   Message('note_on', channel=2, note=64, velocity=90, time=0),\n",
       "   Message('note_on', channel=2, note=64, velocity=0, time=240),\n",
       "   Message('note_on', channel=2, note=62, velocity=0, time=0),\n",
       "   Message('note_on', channel=2, note=57, velocity=0, time=0),\n",
       "   Message('note_on', channel=2, note=66, velocity=0, time=0),\n",
       "   Message('note_on', channel=2, note=62, velocity=90, time=0),\n",
       "   Message('note_on', channel=2, note=59, velocity=90, time=0),\n",
       "   Message('note_on', channel=2, note=66, velocity=90, time=0),\n",
       "   Message('note_on', channel=2, note=66, velocity=0, time=480),\n",
       "   Message('note_on', channel=2, note=59, velocity=0, time=0),\n",
       "   Message('note_on', channel=2, note=62, velocity=0, time=0),\n",
       "   Message('note_on', channel=2, note=62, velocity=90, time=0),\n",
       "   Message('note_on', channel=2, note=59, velocity=90, time=0),\n",
       "   Message('note_on', channel=2, note=55, velocity=90, time=0),\n",
       "   Message('note_on', channel=2, note=55, velocity=90, time=0),\n",
       "   Message('note_on', channel=2, note=55, velocity=0, time=240),\n",
       "   Message('note_on', channel=2, note=62, velocity=0, time=0),\n",
       "   Message('note_on', channel=2, note=59, velocity=0, time=0),\n",
       "   Message('note_on', channel=2, note=59, velocity=90, time=60),\n",
       "   Message('note_on', channel=2, note=59, velocity=0, time=60),\n",
       "   Message('note_on', channel=2, note=62, velocity=90, time=0),\n",
       "   Message('note_on', channel=2, note=62, velocity=0, time=60),\n",
       "   Message('note_on', channel=2, note=67, velocity=90, time=0),\n",
       "   Message('note_on', channel=2, note=55, velocity=0, time=60),\n",
       "   Message('note_on', channel=2, note=67, velocity=0, time=60),\n",
       "   Message('note_on', channel=2, note=66, velocity=90, time=0),\n",
       "   Message('note_on', channel=2, note=66, velocity=0, time=120),\n",
       "   Message('note_on', channel=2, note=62, velocity=90, time=0),\n",
       "   Message('note_on', channel=2, note=62, velocity=0, time=120),\n",
       "   Message('note_on', channel=2, note=59, velocity=90, time=0),\n",
       "   Message('note_on', channel=2, note=59, velocity=0, time=120),\n",
       "   Message('note_on', channel=2, note=57, velocity=90, time=0),\n",
       "   Message('note_on', channel=2, note=62, velocity=90, time=55),\n",
       "   Message('note_on', channel=2, note=57, velocity=90, time=3),\n",
       "   Message('note_on', channel=2, note=54, velocity=90, time=1),\n",
       "   Message('note_on', channel=2, note=57, velocity=0, time=61),\n",
       "   Message('note_on', channel=2, note=57, velocity=0, time=107),\n",
       "   Message('note_on', channel=2, note=62, velocity=0, time=6),\n",
       "   Message('note_on', channel=2, note=54, velocity=0, time=3),\n",
       "   Message('note_on', channel=2, note=61, velocity=90, time=4),\n",
       "   Message('note_on', channel=2, note=54, velocity=90, time=0),\n",
       "   Message('note_on', channel=2, note=57, velocity=90, time=0),\n",
       "   Message('note_on', channel=2, note=57, velocity=0, time=180),\n",
       "   Message('note_on', channel=2, note=61, velocity=0, time=0),\n",
       "   Message('note_on', channel=2, note=62, velocity=90, time=0),\n",
       "   Message('note_on', channel=2, note=57, velocity=90, time=0),\n",
       "   Message('note_on', channel=2, note=57, velocity=0, time=120),\n",
       "   Message('note_on', channel=2, note=62, velocity=0, time=0),\n",
       "   Message('note_on', channel=2, note=54, velocity=0, time=0),\n",
       "   Message('note_on', channel=2, note=62, velocity=90, time=0),\n",
       "   Message('note_on', channel=2, note=59, velocity=90, time=0),\n",
       "   Message('note_on', channel=2, note=54, velocity=90, time=0),\n",
       "   Message('note_on', channel=2, note=54, velocity=0, time=180),\n",
       "   Message('note_on', channel=2, note=59, velocity=0, time=0),\n",
       "   Message('note_on', channel=2, note=62, velocity=0, time=0),\n",
       "   Message('note_on', channel=2, note=54, velocity=90, time=0),\n",
       "   Message('note_on', channel=2, note=59, velocity=90, time=0),\n",
       "   Message('note_on', channel=2, note=62, velocity=90, time=180),\n",
       "   Message('note_on', channel=2, note=62, velocity=0, time=120),\n",
       "   Message('note_on', channel=2, note=59, velocity=0, time=0),\n",
       "   Message('note_on', channel=2, note=54, velocity=0, time=0),\n",
       "   Message('note_on', channel=2, note=62, velocity=90, time=0),\n",
       "   Message('note_on', channel=2, note=59, velocity=90, time=0),\n",
       "   Message('note_on', channel=2, note=55, velocity=90, time=0),\n",
       "   Message('note_on', channel=2, note=55, velocity=0, time=180),\n",
       "   Message('note_on', channel=2, note=59, velocity=0, time=0),\n",
       "   Message('note_on', channel=2, note=62, velocity=0, time=0),\n",
       "   Message('note_on', channel=2, note=64, velocity=90, time=0),\n",
       "   Message('note_on', channel=2, note=59, velocity=90, time=0),\n",
       "   Message('note_on', channel=2, note=55, velocity=90, time=0),\n",
       "   Message('note_on', channel=2, note=59, velocity=0, time=180),\n",
       "   Message('note_on', channel=2, note=64, velocity=0, time=0),\n",
       "   Message('note_on', channel=2, note=62, velocity=90, time=0),\n",
       "   Message('note_on', channel=2, note=59, velocity=90, time=0),\n",
       "   Message('note_on', channel=2, note=59, velocity=0, time=120),\n",
       "   Message('note_on', channel=2, note=62, velocity=0, time=0),\n",
       "   Message('note_on', channel=2, note=55, velocity=0, time=0),\n",
       "   Message('note_on', channel=2, note=55, velocity=90, time=0),\n",
       "   Message('note_on', channel=2, note=59, velocity=90, time=0),\n",
       "   Message('note_on', channel=2, note=62, velocity=90, time=0),\n",
       "   Message('note_on', channel=2, note=62, velocity=0, time=180),\n",
       "   Message('note_on', channel=2, note=59, velocity=0, time=0),\n",
       "   Message('note_on', channel=2, note=55, velocity=0, time=0),\n",
       "   Message('note_on', channel=2, note=62, velocity=90, time=0),\n",
       "   Message('note_on', channel=2, note=55, velocity=90, time=0),\n",
       "   Message('note_on', channel=2, note=59, velocity=90, time=0),\n",
       "   Message('note_on', channel=2, note=59, velocity=0, time=120),\n",
       "   Message('note_on', channel=2, note=62, velocity=0, time=60),\n",
       "   Message('note_on', channel=2, note=57, velocity=90, time=0),\n",
       "   Message('note_on', channel=2, note=61, velocity=90, time=0),\n",
       "   Message('note_on', channel=2, note=62, velocity=90, time=0),\n",
       "   Message('note_on', channel=2, note=62, velocity=0, time=60),\n",
       "   Message('note_on', channel=2, note=55, velocity=0, time=0),\n",
       "   Message('note_on', channel=2, note=57, velocity=0, time=0),\n",
       "   Message('note_on', channel=2, note=61, velocity=0, time=60),\n",
       "   Message('note_on', channel=2, note=62, velocity=90, time=0),\n",
       "   Message('note_on', channel=2, note=57, velocity=90, time=0),\n",
       "   Message('note_on', channel=2, note=54, velocity=90, time=0),\n",
       "   Message('note_on', channel=2, note=54, velocity=0, time=180),\n",
       "   Message('note_on', channel=2, note=57, velocity=0, time=0),\n",
       "   Message('note_on', channel=2, note=62, velocity=0, time=0),\n",
       "   Message('note_on', channel=2, note=62, velocity=90, time=0),\n",
       "   Message('note_on', channel=2, note=57, velocity=90, time=0),\n",
       "   Message('note_on', channel=2, note=54, velocity=90, time=0),\n",
       "   Message('note_on', channel=2, note=54, velocity=0, time=180),\n",
       "   Message('note_on', channel=2, note=57, velocity=0, time=0),\n",
       "   Message('note_on', channel=2, note=62, velocity=0, time=0),\n",
       "   Message('note_on', channel=2, note=54, velocity=90, time=0),\n",
       "   Message('note_on', channel=2, note=57, velocity=90, time=0),\n",
       "   Message('note_on', channel=2, note=57, velocity=0, time=120),\n",
       "   Message('note_on', channel=2, note=54, velocity=0, time=0),\n",
       "   Message('note_on', channel=2, note=62, velocity=90, time=0),\n",
       "   Message('note_on', channel=2, note=54, velocity=90, time=0),\n",
       "   Message('note_on', channel=2, note=59, velocity=90, time=0),\n",
       "   Message('note_on', channel=2, note=62, velocity=0, time=120),\n",
       "   Message('note_on', channel=2, note=59, velocity=0, time=60),\n",
       "   Message('note_on', channel=2, note=54, velocity=0, time=0),\n",
       "   Message('note_on', channel=2, note=59, velocity=90, time=0),\n",
       "   Message('note_on', channel=2, note=64, velocity=90, time=0),\n",
       "   Message('note_on', channel=2, note=54, velocity=90, time=0),\n",
       "   Message('note_on', channel=2, note=54, velocity=0, time=180),\n",
       "   Message('note_on', channel=2, note=64, velocity=0, time=0),\n",
       "   Message('note_on', channel=2, note=62, velocity=90, time=0),\n",
       "   Message('note_on', channel=2, note=54, velocity=90, time=0),\n",
       "   Message('note_on', channel=2, note=54, velocity=0, time=60),\n",
       "   Message('note_on', channel=2, note=62, velocity=0, time=60),\n",
       "   Message('note_on', channel=2, note=59, velocity=0, time=0),\n",
       "   Message('note_on', channel=2, note=62, velocity=90, time=0),\n",
       "   Message('note_on', channel=2, note=59, velocity=90, time=0),\n",
       "   Message('note_on', channel=2, note=55, velocity=90, time=0),\n",
       "   Message('note_on', channel=2, note=59, velocity=0, time=60),\n",
       "   Message('note_on', channel=2, note=59, velocity=90, time=0),\n",
       "   Message('note_on', channel=2, note=59, velocity=0, time=120),\n",
       "   Message('note_on', channel=2, note=55, velocity=0, time=0),\n",
       "   Message('note_on', channel=2, note=62, velocity=0, time=0),\n",
       "   Message('note_on', channel=2, note=62, velocity=90, time=0),\n",
       "   Message('note_on', channel=2, note=59, velocity=90, time=0),\n",
       "   Message('note_on', channel=2, note=55, velocity=90, time=0),\n",
       "   Message('note_on', channel=2, note=55, velocity=0, time=180),\n",
       "   Message('note_on', channel=2, note=59, velocity=0, time=0),\n",
       "   Message('note_on', channel=2, note=62, velocity=0, time=0),\n",
       "   Message('note_on', channel=2, note=55, velocity=90, time=0),\n",
       "   Message('note_on', channel=2, note=59, velocity=90, time=0),\n",
       "   Message('note_on', channel=2, note=62, velocity=90, time=0),\n",
       "   Message('note_on', channel=2, note=55, velocity=0, time=60),\n",
       "   Message('note_on', channel=2, note=62, velocity=0, time=60),\n",
       "   Message('note_on', channel=2, note=59, velocity=0, time=0),\n",
       "   Message('note_on', channel=2, note=62, velocity=90, time=0),\n",
       "   Message('note_on', channel=2, note=55, velocity=90, time=0),\n",
       "   Message('note_on', channel=2, note=59, velocity=90, time=0),\n",
       "   Message('note_on', channel=2, note=59, velocity=0, time=180),\n",
       "   Message('note_on', channel=2, note=55, velocity=0, time=0),\n",
       "   Message('note_on', channel=2, note=62, velocity=0, time=0),\n",
       "   Message('note_on', channel=2, note=55, velocity=90, time=0),\n",
       "   Message('note_on', channel=2, note=62, velocity=90, time=0),\n",
       "   Message('note_on', channel=2, note=59, velocity=90, time=0),\n",
       "   Message('note_on', channel=2, note=59, velocity=0, time=180),\n",
       "   Message('note_on', channel=2, note=62, velocity=0, time=0),\n",
       "   Message('note_on', channel=2, note=55, velocity=0, time=0),\n",
       "   Message('note_on', channel=2, note=62, velocity=90, time=0),\n",
       "   Message('note_on', channel=2, note=55, velocity=90, time=0),\n",
       "   Message('note_on', channel=2, note=59, velocity=90, time=0),\n",
       "   Message('note_on', channel=2, note=55, velocity=0, time=60),\n",
       "   Message('note_on', channel=2, note=59, velocity=0, time=60),\n",
       "   Message('note_on', channel=2, note=62, velocity=0, time=0),\n",
       "   Message('note_on', channel=2, note=54, velocity=90, time=0),\n",
       "   Message('note_on', channel=2, note=57, velocity=90, time=0),\n",
       "   Message('note_on', channel=2, note=64, velocity=90, time=0),\n",
       "   Message('note_on', channel=2, note=61, velocity=90, time=0),\n",
       "   Message('note_on', channel=2, note=64, velocity=0, time=60),\n",
       "   Message('note_on', channel=2, note=54, velocity=0, time=60),\n",
       "   Message('note_on', channel=2, note=57, velocity=0, time=60),\n",
       "   Message('note_on', channel=2, note=61, velocity=0, time=0),\n",
       "   Message('note_on', channel=2, note=64, velocity=90, time=0),\n",
       "   Message('note_on', channel=2, note=57, velocity=90, time=0),\n",
       "   Message('note_on', channel=2, note=54, velocity=90, time=0),\n",
       "   Message('note_on', channel=2, note=54, velocity=0, time=180),\n",
       "   Message('note_on', channel=2, note=57, velocity=0, time=0),\n",
       "   Message('note_on', channel=2, note=64, velocity=0, time=0),\n",
       "   Message('note_on', channel=2, note=57, velocity=90, time=0),\n",
       "   Message('note_on', channel=2, note=61, velocity=90, time=0),\n",
       "   Message('note_on', channel=2, note=54, velocity=90, time=0),\n",
       "   Message('note_on', channel=2, note=54, velocity=0, time=120),\n",
       "   Message('note_on', channel=2, note=61, velocity=0, time=0),\n",
       "   Message('note_on', channel=2, note=57, velocity=0, time=0),\n",
       "   Message('note_on', channel=2, note=62, velocity=90, time=0),\n",
       "   Message('note_on', channel=2, note=54, velocity=90, time=0),\n",
       "   Message('note_on', channel=2, note=59, velocity=90, time=0),\n",
       "   Message('note_on', channel=2, note=59, velocity=0, time=180),\n",
       "   Message('note_on', channel=2, note=62, velocity=0, time=0),\n",
       "   Message('note_on', channel=2, note=59, velocity=90, time=0),\n",
       "   Message('note_on', channel=2, note=59, velocity=0, time=180),\n",
       "   Message('note_on', channel=2, note=54, velocity=0, time=0),\n",
       "   Message('note_on', channel=2, note=62, velocity=90, time=0),\n",
       "   Message('note_on', channel=2, note=59, velocity=90, time=0),\n",
       "   Message('note_on', channel=2, note=54, velocity=90, time=0),\n",
       "   Message('note_on', channel=2, note=59, velocity=0, time=120),\n",
       "   Message('note_on', channel=2, note=62, velocity=0, time=0),\n",
       "   Message('note_on', channel=2, note=61, velocity=90, time=0),\n",
       "   Message('note_on', channel=2, note=57, velocity=90, time=0),\n",
       "   Message('note_on', channel=2, note=57, velocity=0, time=120),\n",
       "   Message('note_on', channel=2, note=54, velocity=0, time=0),\n",
       "   Message('note_on', channel=2, note=61, velocity=0, time=60),\n",
       "   Message('note_on', channel=2, note=64, velocity=90, time=0),\n",
       "   Message('note_on', channel=2, note=57, velocity=90, time=0),\n",
       "   Message('note_on', channel=2, note=54, velocity=90, time=0),\n",
       "   Message('note_on', channel=2, note=54, velocity=0, time=180),\n",
       "   Message('note_on', channel=2, note=57, velocity=0, time=0),\n",
       "   Message('note_on', channel=2, note=64, velocity=0, time=0),\n",
       "   Message('note_on', channel=2, note=61, velocity=90, time=0),\n",
       "   Message('note_on', channel=2, note=57, velocity=90, time=0),\n",
       "   Message('note_on', channel=2, note=54, velocity=90, time=0),\n",
       "   Message('note_on', channel=2, note=54, velocity=0, time=120),\n",
       "   Message('note_on', channel=2, note=57, velocity=0, time=0),\n",
       "   Message('note_on', channel=2, note=61, velocity=0, time=0),\n",
       "   Message('note_on', channel=2, note=54, velocity=90, time=0),\n",
       "   Message('note_on', channel=2, note=62, velocity=90, time=0),\n",
       "   Message('note_on', channel=2, note=59, velocity=90, time=0),\n",
       "   Message('note_on', channel=2, note=62, velocity=0, time=120),\n",
       "   Message('note_on', channel=2, note=59, velocity=0, time=60),\n",
       "   Message('note_on', channel=2, note=54, velocity=0, time=0),\n",
       "   Message('note_on', channel=2, note=59, velocity=90, time=0),\n",
       "   Message('note_on', channel=2, note=54, velocity=90, time=0),\n",
       "   Message('note_on', channel=2, note=54, velocity=0, time=180),\n",
       "   Message('note_on', channel=2, note=59, velocity=0, time=0),\n",
       "   Message('note_on', channel=2, note=62, velocity=90, time=0),\n",
       "   Message('note_on', channel=2, note=59, velocity=90, time=0),\n",
       "   Message('note_on', channel=2, note=54, velocity=90, time=0),\n",
       "   Message('note_on', channel=2, note=54, velocity=0, time=60),\n",
       "   Message('note_on', channel=2, note=59, velocity=0, time=60),\n",
       "   Message('note_on', channel=2, note=62, velocity=0, time=0),\n",
       "   Message('note_on', channel=2, note=62, velocity=90, time=0),\n",
       "   Message('note_on', channel=2, note=59, velocity=90, time=0),\n",
       "   Message('note_on', channel=2, note=55, velocity=90, time=0),\n",
       "   Message('note_on', channel=2, note=55, velocity=0, time=180),\n",
       "   Message('note_on', channel=2, note=59, velocity=0, time=0),\n",
       "   Message('note_on', channel=2, note=62, velocity=0, time=0),\n",
       "   Message('note_on', channel=2, note=55, velocity=90, time=0),\n",
       "   Message('note_on', channel=2, note=62, velocity=90, time=0),\n",
       "   Message('note_on', channel=2, note=59, velocity=90, time=0),\n",
       "   Message('note_on', channel=2, note=59, velocity=0, time=180),\n",
       "   Message('note_on', channel=2, note=62, velocity=0, time=0),\n",
       "   Message('note_on', channel=2, note=55, velocity=0, time=0),\n",
       "   Message('note_on', channel=2, note=62, velocity=90, time=0),\n",
       "   Message('note_on', channel=2, note=55, velocity=90, time=0),\n",
       "   Message('note_on', channel=2, note=59, velocity=90, time=0),\n",
       "   Message('note_on', channel=2, note=59, velocity=0, time=60),\n",
       "   Message('note_on', channel=2, note=55, velocity=0, time=60),\n",
       "   Message('note_on', channel=2, note=62, velocity=0, time=0),\n",
       "   Message('note_on', channel=2, note=61, velocity=90, time=0),\n",
       "   Message('note_on', channel=2, note=57, velocity=90, time=0),\n",
       "   Message('note_on', channel=2, note=54, velocity=90, time=0),\n",
       "   Message('note_on', channel=2, note=54, velocity=0, time=180),\n",
       "   Message('note_on', channel=2, note=57, velocity=0, time=0),\n",
       "   Message('note_on', channel=2, note=61, velocity=0, time=0),\n",
       "   Message('note_on', channel=2, note=62, velocity=90, time=0),\n",
       "   Message('note_on', channel=2, note=59, velocity=90, time=0),\n",
       "   Message('note_on', channel=2, note=54, velocity=90, time=0),\n",
       "   Message('note_on', channel=2, note=54, velocity=0, time=180),\n",
       "   Message('note_on', channel=2, note=59, velocity=0, time=0),\n",
       "   Message('note_on', channel=2, note=62, velocity=0, time=0),\n",
       "   Message('note_on', channel=2, note=54, velocity=90, time=0),\n",
       "   Message('note_on', channel=2, note=59, velocity=90, time=0),\n",
       "   Message('note_on', channel=2, note=59, velocity=0, time=60),\n",
       "   Message('note_on', channel=2, note=54, velocity=0, time=60),\n",
       "   Message('note_on', channel=2, note=55, velocity=90, time=0),\n",
       "   Message('note_on', channel=2, note=52, velocity=90, time=0),\n",
       "   Message('note_on', channel=2, note=62, velocity=90, time=0),\n",
       "   Message('note_on', channel=2, note=59, velocity=90, time=0),\n",
       "   Message('note_on', channel=2, note=59, velocity=0, time=180),\n",
       "   Message('note_on', channel=2, note=55, velocity=0, time=0),\n",
       "   Message('note_on', channel=2, note=52, velocity=0, time=0),\n",
       "   Message('note_on', channel=2, note=62, velocity=0, time=0),\n",
       "   Message('note_on', channel=2, note=55, velocity=90, time=0),\n",
       "   Message('note_on', channel=2, note=59, velocity=90, time=0),\n",
       "   Message('note_on', channel=2, note=52, velocity=90, time=0),\n",
       "   Message('note_on', channel=2, note=52, velocity=0, time=180),\n",
       "   Message('note_on', channel=2, note=59, velocity=0, time=0),\n",
       "   Message('note_on', channel=2, note=55, velocity=0, time=0),\n",
       "   Message('note_on', channel=2, note=62, velocity=90, time=0),\n",
       "   Message('note_on', channel=2, note=59, velocity=90, time=0),\n",
       "   Message('note_on', channel=2, note=55, velocity=90, time=0),\n",
       "   Message('note_on', channel=2, note=52, velocity=90, time=0),\n",
       "   Message('note_on', channel=2, note=52, velocity=0, time=120),\n",
       "   Message('note_on', channel=2, note=62, velocity=0, time=0),\n",
       "   Message('note_on', channel=2, note=59, velocity=0, time=0),\n",
       "   Message('note_on', channel=2, note=55, velocity=0, time=0),\n",
       "   Message('note_on', channel=2, note=52, velocity=90, time=0),\n",
       "   Message('note_on', channel=2, note=62, velocity=90, time=0),\n",
       "   Message('note_on', channel=2, note=59, velocity=90, time=0),\n",
       "   Message('note_on', channel=2, note=57, velocity=90, time=0),\n",
       "   Message('note_on', channel=2, note=55, velocity=90, time=0),\n",
       "   Message('note_on', channel=2, note=55, velocity=0, time=60),\n",
       "   Message('note_on', channel=2, note=59, velocity=0, time=0),\n",
       "   Message('note_on', channel=2, note=52, velocity=0, time=60),\n",
       "   Message('note_on', channel=2, note=62, velocity=0, time=60),\n",
       "   Message('note_on', channel=2, note=57, velocity=0, time=0),\n",
       "   Message('note_on', channel=2, note=57, velocity=90, time=0),\n",
       "   Message('note_on', channel=2, note=52, velocity=90, time=0),\n",
       "   Message('note_on', channel=2, note=62, velocity=90, time=0),\n",
       "   Message('note_on', channel=2, note=62, velocity=0, time=60),\n",
       "   Message('note_on', channel=2, note=62, velocity=90, time=0),\n",
       "   Message('note_on', channel=2, note=52, velocity=0, time=60),\n",
       "   Message('note_on', channel=2, note=57, velocity=0, time=60),\n",
       "   Message('note_on', channel=2, note=62, velocity=90, time=0),\n",
       "   Message('note_on', channel=2, note=57, velocity=90, time=0),\n",
       "   Message('note_on', channel=2, note=52, velocity=90, time=0),\n",
       "   Message('note_on', channel=2, note=62, velocity=0, time=60),\n",
       "   Message('note_on', channel=2, note=62, velocity=0, time=60),\n",
       "   Message('note_on', channel=2, note=57, velocity=0, time=0),\n",
       "   Message('note_on', channel=2, note=52, velocity=0, time=0),\n",
       "   Message('note_on', channel=2, note=52, velocity=90, time=0),\n",
       "   Message('note_on', channel=2, note=61, velocity=90, time=0),\n",
       "   Message('note_on', channel=2, note=57, velocity=90, time=0),\n",
       "   Message('note_on', channel=2, note=57, velocity=0, time=240),\n",
       "   Message('note_on', channel=2, note=61, velocity=0, time=0),\n",
       "   Message('note_on', channel=2, note=52, velocity=0, time=0),\n",
       "   Message('note_on', channel=2, note=62, velocity=90, time=240),\n",
       "   Message('note_on', channel=2, note=57, velocity=90, time=0),\n",
       "   Message('note_on', channel=2, note=54, velocity=90, time=0),\n",
       "   Message('note_on', channel=2, note=57, velocity=0, time=120),\n",
       "   Message('note_on', channel=2, note=62, velocity=0, time=60),\n",
       "   Message('note_on', channel=2, note=62, velocity=90, time=0),\n",
       "   Message('note_on', channel=2, note=57, velocity=90, time=0),\n",
       "   Message('note_on', channel=2, note=57, velocity=0, time=120),\n",
       "   Message('note_on', channel=2, note=62, velocity=0, time=0),\n",
       "   Message('note_on', channel=2, note=57, velocity=90, time=0),\n",
       "   Message('note_on', channel=2, note=61, velocity=90, time=0),\n",
       "   Message('note_on', channel=2, note=54, velocity=0, time=60),\n",
       "   Message('note_on', channel=2, note=61, velocity=0, time=60),\n",
       "   Message('note_on', channel=2, note=57, velocity=0, time=0),\n",
       "   Message('note_on', channel=2, note=54, velocity=90, time=0),\n",
       "   Message('note_on', channel=2, note=62, velocity=90, time=0),\n",
       "   Message('note_on', channel=2, note=62, velocity=0, time=60),\n",
       "   Message('note_on', channel=2, note=54, velocity=0, time=0),\n",
       "   Message('note_on', channel=2, note=62, velocity=90, time=0),\n",
       "   Message('note_on', channel=2, note=54, velocity=90, time=0),\n",
       "   Message('note_on', channel=2, note=59, velocity=90, time=0),\n",
       "   Message('note_on', channel=2, note=59, velocity=0, time=120),\n",
       "   Message('note_on', channel=2, note=54, velocity=0, time=60),\n",
       "   Message('note_on', channel=2, note=62, velocity=0, time=0),\n",
       "   Message('note_on', channel=2, note=61, velocity=90, time=0),\n",
       "   Message('note_on', channel=2, note=59, velocity=90, time=0),\n",
       "   Message('note_on', channel=2, note=54, velocity=90, time=0),\n",
       "   Message('note_on', channel=2, note=54, velocity=0, time=180),\n",
       "   Message('note_on', channel=2, note=59, velocity=0, time=0),\n",
       "   Message('note_on', channel=2, note=61, velocity=0, time=0),\n",
       "   Message('note_on', channel=2, note=54, velocity=90, time=0),\n",
       "   Message('note_on', channel=2, note=57, velocity=90, time=0),\n",
       "   Message('note_on', channel=2, note=57, velocity=0, time=60),\n",
       "   Message('note_on', channel=2, note=54, velocity=0, time=0),\n",
       "   Message('note_on', channel=2, note=59, velocity=90, time=60),\n",
       "   Message('note_on', channel=2, note=55, velocity=90, time=0),\n",
       "   Message('note_on', channel=2, note=50, velocity=90, time=0),\n",
       "   Message('note_on', channel=2, note=50, velocity=0, time=180),\n",
       "   Message('note_on', channel=2, note=55, velocity=0, time=0),\n",
       "   Message('note_on', channel=2, note=59, velocity=0, time=0),\n",
       "   Message('note_on', channel=2, note=59, velocity=90, time=0),\n",
       "   Message('note_on', channel=2, note=55, velocity=90, time=0),\n",
       "   Message('note_on', channel=2, note=50, velocity=90, time=0),\n",
       "   Message('note_on', channel=2, note=55, velocity=0, time=180),\n",
       "   Message('note_on', channel=2, note=59, velocity=0, time=0),\n",
       "   Message('note_on', channel=2, note=55, velocity=90, time=0),\n",
       "   Message('note_on', channel=2, note=59, velocity=90, time=0),\n",
       "   Message('note_on', channel=2, note=59, velocity=0, time=120),\n",
       "   Message('note_on', channel=2, note=55, velocity=0, time=0),\n",
       "   Message('note_on', channel=2, note=55, velocity=90, time=0),\n",
       "   Message('note_on', channel=2, note=62, velocity=90, time=0),\n",
       "   Message('note_on', channel=2, note=59, velocity=90, time=0),\n",
       "   Message('note_on', channel=2, note=59, velocity=0, time=180),\n",
       "   Message('note_on', channel=2, note=50, velocity=0, time=0),\n",
       "   Message('note_on', channel=2, note=55, velocity=0, time=0),\n",
       "   Message('note_on', channel=2, note=62, velocity=0, time=0),\n",
       "   Message('note_on', channel=2, note=61, velocity=90, time=0),\n",
       "   Message('note_on', channel=2, note=52, velocity=90, time=0),\n",
       "   Message('note_on', channel=2, note=57, velocity=90, time=0),\n",
       "   Message('note_on', channel=2, note=57, velocity=0, time=120),\n",
       "   Message('note_on', channel=2, note=52, velocity=0, time=60),\n",
       "   Message('note_on', channel=2, note=61, velocity=0, time=0),\n",
       "   Message('note_on', channel=2, note=52, velocity=90, time=0),\n",
       "   Message('note_on', channel=2, note=61, velocity=90, time=0),\n",
       "   Message('note_on', channel=2, note=57, velocity=90, time=0),\n",
       "   Message('note_on', channel=2, note=61, velocity=0, time=120),\n",
       "   Message('note_on', channel=2, note=52, velocity=0, time=0),\n",
       "   Message('note_on', channel=2, note=62, velocity=90, time=0),\n",
       "   Message('note_on', channel=2, note=54, velocity=90, time=0),\n",
       "   Message('note_on', channel=2, note=54, velocity=0, time=180),\n",
       "   Message('note_on', channel=2, note=62, velocity=0, time=0),\n",
       "   Message('note_on', channel=2, note=57, velocity=0, time=0),\n",
       "   Message('note_on', channel=2, note=54, velocity=90, time=0),\n",
       "   Message('note_on', channel=2, note=57, velocity=90, time=0),\n",
       "   Message('note_on', channel=2, note=61, velocity=90, time=0),\n",
       "   Message('note_on', channel=2, note=61, velocity=0, time=180),\n",
       "   Message('note_on', channel=2, note=57, velocity=0, time=0),\n",
       "   Message('note_on', channel=2, note=54, velocity=0, time=0),\n",
       "   Message('note_on', channel=2, note=62, velocity=90, time=0),\n",
       "   Message('note_on', channel=2, note=54, velocity=90, time=0),\n",
       "   Message('note_on', channel=2, note=57, velocity=90, time=0),\n",
       "   Message('note_on', channel=2, note=57, velocity=0, time=60),\n",
       "   Message('note_on', channel=2, note=54, velocity=0, time=60),\n",
       "   Message('note_on', channel=2, note=62, velocity=0, time=0),\n",
       "   Message('note_on', channel=2, note=54, velocity=90, time=0),\n",
       "   Message('note_on', channel=2, note=62, velocity=90, time=0),\n",
       "   Message('note_on', channel=2, note=59, velocity=90, time=0),\n",
       "   Message('note_on', channel=2, note=59, velocity=0, time=180),\n",
       "   Message('note_on', channel=2, note=62, velocity=0, time=0),\n",
       "   Message('note_on', channel=2, note=54, velocity=0, time=0),\n",
       "   Message('note_on', channel=2, note=54, velocity=90, time=0),\n",
       "   Message('note_on', channel=2, note=59, velocity=90, time=0),\n",
       "   Message('note_on', channel=2, note=61, velocity=90, time=0),\n",
       "   Message('note_on', channel=2, note=61, velocity=0, time=120),\n",
       "   Message('note_on', channel=2, note=59, velocity=0, time=0),\n",
       "   Message('note_on', channel=2, note=54, velocity=0, time=0),\n",
       "   Message('note_on', channel=2, note=54, velocity=90, time=0),\n",
       "   Message('note_on', channel=2, note=61, velocity=90, time=0),\n",
       "   Message('note_on', channel=2, note=57, velocity=90, time=0),\n",
       "   Message('note_on', channel=2, note=61, velocity=0, time=60),\n",
       "   Message('note_on', channel=2, note=61, velocity=90, time=60),\n",
       "   Message('note_on', channel=2, note=61, velocity=0, time=60),\n",
       "   Message('note_on', channel=2, note=57, velocity=0, time=0),\n",
       "   Message('note_on', channel=2, note=54, velocity=0, time=0),\n",
       "   Message('note_on', channel=2, note=55, velocity=90, time=0),\n",
       "   Message('note_on', channel=2, note=50, velocity=90, time=0),\n",
       "   Message('note_on', channel=2, note=59, velocity=90, time=0),\n",
       "   Message('note_on', channel=2, note=59, velocity=0, time=180),\n",
       "   Message('note_on', channel=2, note=50, velocity=0, time=0),\n",
       "   Message('note_on', channel=2, note=55, velocity=0, time=0),\n",
       "   Message('note_on', channel=2, note=50, velocity=90, time=0),\n",
       "   Message('note_on', channel=2, note=59, velocity=90, time=0),\n",
       "   Message('note_on', channel=2, note=55, velocity=90, time=0),\n",
       "   Message('note_on', channel=2, note=55, velocity=0, time=180),\n",
       "   Message('note_on', channel=2, note=59, velocity=0, time=0),\n",
       "   Message('note_on', channel=2, note=50, velocity=0, time=0),\n",
       "   Message('note_on', channel=2, note=55, velocity=90, time=0),\n",
       "   Message('note_on', channel=2, note=50, velocity=90, time=0),\n",
       "   Message('note_on', channel=2, note=59, velocity=90, time=0),\n",
       "   Message('note_on', channel=2, note=59, velocity=0, time=120),\n",
       "   Message('note_on', channel=2, note=55, velocity=0, time=0),\n",
       "   Message('note_on', channel=2, note=55, velocity=90, time=0),\n",
       "   Message('note_on', channel=2, note=59, velocity=90, time=0),\n",
       "   Message('note_on', channel=2, note=59, velocity=0, time=120),\n",
       "   Message('note_on', channel=2, note=55, velocity=0, time=60),\n",
       "   Message('note_on', channel=2, note=50, velocity=0, time=0),\n",
       "   Message('note_on', channel=2, note=61, velocity=90, time=0),\n",
       "   Message('note_on', channel=2, note=52, velocity=90, time=0),\n",
       "   Message('note_on', channel=2, note=58, velocity=90, time=0),\n",
       "   Message('note_on', channel=2, note=57, velocity=90, time=0),\n",
       "   Message('note_on', channel=2, note=58, velocity=0, time=60),\n",
       "   Message('note_on', channel=2, note=57, velocity=0, time=120),\n",
       "   Message('note_on', channel=2, note=61, velocity=0, time=0),\n",
       "   Message('note_on', channel=2, note=61, velocity=90, time=0),\n",
       "   Message('note_on', channel=2, note=57, velocity=90, time=0),\n",
       "   Message('note_on', channel=2, note=61, velocity=0, time=60),\n",
       "   Message('note_on', channel=2, note=52, velocity=0, time=0),\n",
       "   Message('note_on', channel=2, note=54, velocity=90, time=60),\n",
       "   Message('note_on', channel=2, note=62, velocity=90, time=0),\n",
       "   Message('note_on', channel=2, note=62, velocity=0, time=180),\n",
       "   Message('note_on', channel=2, note=54, velocity=0, time=0),\n",
       "   Message('note_on', channel=2, note=57, velocity=0, time=0),\n",
       "   Message('note_on', channel=2, note=62, velocity=90, time=0),\n",
       "   Message('note_on', channel=2, note=54, velocity=90, time=0),\n",
       "   Message('note_on', channel=2, note=57, velocity=90, time=0),\n",
       "   Message('note_on', channel=2, note=57, velocity=0, time=60),\n",
       "   Message('note_on', channel=2, note=54, velocity=0, time=0),\n",
       "   Message('note_on', channel=2, note=62, velocity=0, time=0),\n",
       "   Message('note_on', channel=2, note=54, velocity=90, time=0),\n",
       "   Message('note_on', channel=2, note=62, velocity=90, time=0),\n",
       "   Message('note_on', channel=2, note=57, velocity=90, time=0),\n",
       "   Message('note_on', channel=2, note=57, velocity=0, time=240),\n",
       "   Message('note_on', channel=2, note=62, velocity=0, time=0),\n",
       "   Message('note_on', channel=2, note=54, velocity=0, time=0),\n",
       "   Message('note_on', channel=2, note=62, velocity=90, time=0),\n",
       "   Message('note_on', channel=2, note=57, velocity=90, time=0),\n",
       "   Message('note_on', channel=2, note=54, velocity=90, time=0),\n",
       "   Message('note_on', channel=2, note=54, velocity=0, time=60),\n",
       "   Message('note_on', channel=2, note=57, velocity=0, time=0),\n",
       "   Message('note_on', channel=2, note=62, velocity=0, time=0),\n",
       "   Message('note_on', channel=2, note=62, velocity=90, time=420),\n",
       "   Message('note_on', channel=2, note=57, velocity=90, time=3),\n",
       "   Message('note_on', channel=2, note=54, velocity=90, time=1),\n",
       "   Message('note_on', channel=2, note=57, velocity=0, time=168),\n",
       "   Message('note_on', channel=2, note=62, velocity=0, time=6),\n",
       "   Message('note_on', channel=2, note=54, velocity=0, time=3),\n",
       "   Message('note_on', channel=2, note=61, velocity=90, time=4),\n",
       "   Message('note_on', channel=2, note=54, velocity=90, time=0),\n",
       "   Message('note_on', channel=2, note=57, velocity=90, time=0),\n",
       "   Message('note_on', channel=2, note=57, velocity=0, time=180),\n",
       "   Message('note_on', channel=2, note=61, velocity=0, time=0),\n",
       "   Message('note_on', channel=2, note=62, velocity=90, time=0),\n",
       "   Message('note_on', channel=2, note=57, velocity=90, time=0),\n",
       "   Message('note_on', channel=2, note=57, velocity=0, time=120),\n",
       "   Message('note_on', channel=2, note=62, velocity=0, time=0),\n",
       "   Message('note_on', channel=2, note=54, velocity=0, time=0),\n",
       "   Message('note_on', channel=2, note=62, velocity=90, time=0),\n",
       "   Message('note_on', channel=2, note=59, velocity=90, time=0),\n",
       "   Message('note_on', channel=2, note=54, velocity=90, time=0),\n",
       "   Message('note_on', channel=2, note=54, velocity=0, time=180),\n",
       "   Message('note_on', channel=2, note=59, velocity=0, time=0),\n",
       "   Message('note_on', channel=2, note=62, velocity=0, time=0),\n",
       "   Message('note_on', channel=2, note=54, velocity=90, time=0),\n",
       "   Message('note_on', channel=2, note=59, velocity=90, time=0),\n",
       "   Message('note_on', channel=2, note=62, velocity=90, time=180),\n",
       "   Message('note_on', channel=2, note=62, velocity=0, time=120),\n",
       "   Message('note_on', channel=2, note=59, velocity=0, time=0),\n",
       "   Message('note_on', channel=2, note=54, velocity=0, time=0),\n",
       "   Message('note_on', channel=2, note=62, velocity=90, time=0),\n",
       "   Message('note_on', channel=2, note=59, velocity=90, time=0),\n",
       "   Message('note_on', channel=2, note=55, velocity=90, time=0),\n",
       "   Message('note_on', channel=2, note=55, velocity=0, time=180),\n",
       "   Message('note_on', channel=2, note=59, velocity=0, time=0),\n",
       "   Message('note_on', channel=2, note=62, velocity=0, time=0),\n",
       "   Message('note_on', channel=2, note=64, velocity=90, time=0),\n",
       "   Message('note_on', channel=2, note=59, velocity=90, time=0),\n",
       "   Message('note_on', channel=2, note=55, velocity=90, time=0),\n",
       "   Message('note_on', channel=2, note=59, velocity=0, time=180),\n",
       "   Message('note_on', channel=2, note=64, velocity=0, time=0),\n",
       "   Message('note_on', channel=2, note=62, velocity=90, time=0),\n",
       "   Message('note_on', channel=2, note=59, velocity=90, time=0),\n",
       "   Message('note_on', channel=2, note=59, velocity=0, time=120),\n",
       "   Message('note_on', channel=2, note=62, velocity=0, time=0),\n",
       "   Message('note_on', channel=2, note=55, velocity=0, time=0),\n",
       "   Message('note_on', channel=2, note=55, velocity=90, time=0),\n",
       "   Message('note_on', channel=2, note=59, velocity=90, time=0),\n",
       "   Message('note_on', channel=2, note=62, velocity=90, time=0),\n",
       "   Message('note_on', channel=2, note=62, velocity=0, time=180),\n",
       "   Message('note_on', channel=2, note=59, velocity=0, time=0),\n",
       "   Message('note_on', channel=2, note=55, velocity=0, time=0),\n",
       "   Message('note_on', channel=2, note=62, velocity=90, time=0),\n",
       "   Message('note_on', channel=2, note=55, velocity=90, time=0),\n",
       "   Message('note_on', channel=2, note=59, velocity=90, time=0),\n",
       "   Message('note_on', channel=2, note=59, velocity=0, time=120),\n",
       "   Message('note_on', channel=2, note=62, velocity=0, time=60),\n",
       "   Message('note_on', channel=2, note=57, velocity=90, time=0),\n",
       "   Message('note_on', channel=2, note=61, velocity=90, time=0),\n",
       "   Message('note_on', channel=2, note=62, velocity=90, time=0),\n",
       "   Message('note_on', channel=2, note=62, velocity=0, time=60),\n",
       "   Message('note_on', channel=2, note=55, velocity=0, time=0),\n",
       "   Message('note_on', channel=2, note=57, velocity=0, time=0),\n",
       "   Message('note_on', channel=2, note=61, velocity=0, time=60),\n",
       "   Message('note_on', channel=2, note=62, velocity=90, time=0),\n",
       "   Message('note_on', channel=2, note=57, velocity=90, time=0),\n",
       "   Message('note_on', channel=2, note=54, velocity=90, time=0),\n",
       "   Message('note_on', channel=2, note=54, velocity=0, time=180),\n",
       "   Message('note_on', channel=2, note=57, velocity=0, time=0),\n",
       "   Message('note_on', channel=2, note=62, velocity=0, time=0),\n",
       "   Message('note_on', channel=2, note=62, velocity=90, time=0),\n",
       "   Message('note_on', channel=2, note=57, velocity=90, time=0),\n",
       "   Message('note_on', channel=2, note=54, velocity=90, time=0),\n",
       "   Message('note_on', channel=2, note=54, velocity=0, time=180),\n",
       "   Message('note_on', channel=2, note=57, velocity=0, time=0),\n",
       "   Message('note_on', channel=2, note=62, velocity=0, time=0),\n",
       "   Message('note_on', channel=2, note=54, velocity=90, time=0),\n",
       "   Message('note_on', channel=2, note=57, velocity=90, time=0),\n",
       "   Message('note_on', channel=2, note=57, velocity=0, time=120),\n",
       "   Message('note_on', channel=2, note=54, velocity=0, time=0),\n",
       "   Message('note_on', channel=2, note=62, velocity=90, time=0),\n",
       "   Message('note_on', channel=2, note=54, velocity=90, time=0),\n",
       "   Message('note_on', channel=2, note=59, velocity=90, time=0),\n",
       "   Message('note_on', channel=2, note=62, velocity=0, time=120),\n",
       "   Message('note_on', channel=2, note=59, velocity=0, time=60),\n",
       "   Message('note_on', channel=2, note=54, velocity=0, time=0),\n",
       "   Message('note_on', channel=2, note=59, velocity=90, time=0),\n",
       "   Message('note_on', channel=2, note=64, velocity=90, time=0),\n",
       "   Message('note_on', channel=2, note=54, velocity=90, time=0),\n",
       "   Message('note_on', channel=2, note=54, velocity=0, time=180),\n",
       "   Message('note_on', channel=2, note=64, velocity=0, time=0),\n",
       "   Message('note_on', channel=2, note=62, velocity=90, time=0),\n",
       "   Message('note_on', channel=2, note=54, velocity=90, time=0),\n",
       "   Message('note_on', channel=2, note=54, velocity=0, time=60),\n",
       "   Message('note_on', channel=2, note=62, velocity=0, time=60),\n",
       "   Message('note_on', channel=2, note=59, velocity=0, time=0),\n",
       "   Message('note_on', channel=2, note=62, velocity=90, time=0),\n",
       "   Message('note_on', channel=2, note=59, velocity=90, time=0),\n",
       "   Message('note_on', channel=2, note=55, velocity=90, time=0),\n",
       "   Message('note_on', channel=2, note=59, velocity=0, time=60),\n",
       "   Message('note_on', channel=2, note=59, velocity=90, time=0),\n",
       "   Message('note_on', channel=2, note=59, velocity=0, time=120),\n",
       "   Message('note_on', channel=2, note=55, velocity=0, time=0),\n",
       "   Message('note_on', channel=2, note=62, velocity=0, time=0),\n",
       "   Message('note_on', channel=2, note=62, velocity=90, time=0),\n",
       "   Message('note_on', channel=2, note=59, velocity=90, time=0),\n",
       "   Message('note_on', channel=2, note=55, velocity=90, time=0),\n",
       "   Message('note_on', channel=2, note=55, velocity=0, time=180),\n",
       "   Message('note_on', channel=2, note=59, velocity=0, time=0),\n",
       "   Message('note_on', channel=2, note=62, velocity=0, time=0),\n",
       "   Message('note_on', channel=2, note=55, velocity=90, time=0),\n",
       "   Message('note_on', channel=2, note=59, velocity=90, time=0),\n",
       "   Message('note_on', channel=2, note=62, velocity=90, time=0),\n",
       "   Message('note_on', channel=2, note=55, velocity=0, time=60),\n",
       "   Message('note_on', channel=2, note=62, velocity=0, time=60),\n",
       "   Message('note_on', channel=2, note=59, velocity=0, time=0),\n",
       "   Message('note_on', channel=2, note=62, velocity=90, time=0),\n",
       "   Message('note_on', channel=2, note=55, velocity=90, time=0),\n",
       "   Message('note_on', channel=2, note=59, velocity=90, time=0),\n",
       "   Message('note_on', channel=2, note=59, velocity=0, time=180),\n",
       "   Message('note_on', channel=2, note=55, velocity=0, time=0),\n",
       "   Message('note_on', channel=2, note=62, velocity=0, time=0),\n",
       "   Message('note_on', channel=2, note=55, velocity=90, time=0),\n",
       "   Message('note_on', channel=2, note=62, velocity=90, time=0),\n",
       "   Message('note_on', channel=2, note=59, velocity=90, time=0),\n",
       "   Message('note_on', channel=2, note=59, velocity=0, time=180),\n",
       "   Message('note_on', channel=2, note=62, velocity=0, time=0),\n",
       "   Message('note_on', channel=2, note=55, velocity=0, time=0),\n",
       "   Message('note_on', channel=2, note=62, velocity=90, time=0),\n",
       "   Message('note_on', channel=2, note=55, velocity=90, time=0),\n",
       "   Message('note_on', channel=2, note=59, velocity=90, time=0),\n",
       "   Message('note_on', channel=2, note=55, velocity=0, time=60),\n",
       "   Message('note_on', channel=2, note=59, velocity=0, time=60),\n",
       "   Message('note_on', channel=2, note=62, velocity=0, time=0),\n",
       "   Message('note_on', channel=2, note=54, velocity=90, time=0),\n",
       "   Message('note_on', channel=2, note=57, velocity=90, time=0),\n",
       "   Message('note_on', channel=2, note=64, velocity=90, time=0),\n",
       "   Message('note_on', channel=2, note=61, velocity=90, time=0),\n",
       "   Message('note_on', channel=2, note=64, velocity=0, time=60),\n",
       "   Message('note_on', channel=2, note=54, velocity=0, time=60),\n",
       "   Message('note_on', channel=2, note=57, velocity=0, time=60),\n",
       "   Message('note_on', channel=2, note=61, velocity=0, time=0),\n",
       "   Message('note_on', channel=2, note=64, velocity=90, time=0),\n",
       "   Message('note_on', channel=2, note=57, velocity=90, time=0),\n",
       "   Message('note_on', channel=2, note=54, velocity=90, time=0),\n",
       "   Message('note_on', channel=2, note=54, velocity=0, time=180),\n",
       "   Message('note_on', channel=2, note=57, velocity=0, time=0),\n",
       "   Message('note_on', channel=2, note=64, velocity=0, time=0),\n",
       "   Message('note_on', channel=2, note=57, velocity=90, time=0),\n",
       "   Message('note_on', channel=2, note=61, velocity=90, time=0),\n",
       "   Message('note_on', channel=2, note=54, velocity=90, time=0),\n",
       "   Message('note_on', channel=2, note=54, velocity=0, time=120),\n",
       "   Message('note_on', channel=2, note=61, velocity=0, time=0),\n",
       "   Message('note_on', channel=2, note=57, velocity=0, time=0),\n",
       "   Message('note_on', channel=2, note=62, velocity=90, time=0),\n",
       "   Message('note_on', channel=2, note=54, velocity=90, time=0),\n",
       "   Message('note_on', channel=2, note=59, velocity=90, time=0),\n",
       "   Message('note_on', channel=2, note=59, velocity=0, time=180),\n",
       "   Message('note_on', channel=2, note=62, velocity=0, time=0),\n",
       "   Message('note_on', channel=2, note=59, velocity=90, time=0),\n",
       "   Message('note_on', channel=2, note=59, velocity=0, time=180),\n",
       "   Message('note_on', channel=2, note=54, velocity=0, time=0),\n",
       "   Message('note_on', channel=2, note=62, velocity=90, time=0),\n",
       "   Message('note_on', channel=2, note=59, velocity=90, time=0),\n",
       "   Message('note_on', channel=2, note=54, velocity=90, time=0),\n",
       "   Message('note_on', channel=2, note=59, velocity=0, time=120),\n",
       "   Message('note_on', channel=2, note=62, velocity=0, time=0),\n",
       "   Message('note_on', channel=2, note=61, velocity=90, time=0),\n",
       "   Message('note_on', channel=2, note=57, velocity=90, time=0),\n",
       "   Message('note_on', channel=2, note=57, velocity=0, time=120),\n",
       "   Message('note_on', channel=2, note=54, velocity=0, time=0),\n",
       "   Message('note_on', channel=2, note=61, velocity=0, time=60),\n",
       "   Message('note_on', channel=2, note=64, velocity=90, time=0),\n",
       "   Message('note_on', channel=2, note=57, velocity=90, time=0),\n",
       "   Message('note_on', channel=2, note=54, velocity=90, time=0),\n",
       "   Message('note_on', channel=2, note=54, velocity=0, time=180),\n",
       "   Message('note_on', channel=2, note=57, velocity=0, time=0),\n",
       "   Message('note_on', channel=2, note=64, velocity=0, time=0),\n",
       "   Message('note_on', channel=2, note=61, velocity=90, time=0),\n",
       "   Message('note_on', channel=2, note=57, velocity=90, time=0),\n",
       "   Message('note_on', channel=2, note=54, velocity=90, time=0),\n",
       "   Message('note_on', channel=2, note=54, velocity=0, time=120),\n",
       "   Message('note_on', channel=2, note=57, velocity=0, time=0),\n",
       "   Message('note_on', channel=2, note=61, velocity=0, time=0),\n",
       "   Message('note_on', channel=2, note=54, velocity=90, time=0),\n",
       "   Message('note_on', channel=2, note=62, velocity=90, time=0),\n",
       "   Message('note_on', channel=2, note=59, velocity=90, time=0),\n",
       "   Message('note_on', channel=2, note=62, velocity=0, time=120),\n",
       "   Message('note_on', channel=2, note=59, velocity=0, time=60),\n",
       "   Message('note_on', channel=2, note=54, velocity=0, time=0),\n",
       "   Message('note_on', channel=2, note=59, velocity=90, time=0),\n",
       "   Message('note_on', channel=2, note=54, velocity=90, time=0),\n",
       "   Message('note_on', channel=2, note=54, velocity=0, time=180),\n",
       "   Message('note_on', channel=2, note=59, velocity=0, time=0),\n",
       "   Message('note_on', channel=2, note=62, velocity=90, time=0),\n",
       "   Message('note_on', channel=2, note=59, velocity=90, time=0),\n",
       "   Message('note_on', channel=2, note=54, velocity=90, time=0),\n",
       "   Message('note_on', channel=2, note=54, velocity=0, time=60),\n",
       "   Message('note_on', channel=2, note=59, velocity=0, time=60),\n",
       "   Message('note_on', channel=2, note=62, velocity=0, time=0),\n",
       "   Message('note_on', channel=2, note=62, velocity=90, time=0),\n",
       "   Message('note_on', channel=2, note=59, velocity=90, time=0),\n",
       "   Message('note_on', channel=2, note=55, velocity=90, time=0),\n",
       "   Message('note_on', channel=2, note=55, velocity=0, time=180),\n",
       "   Message('note_on', channel=2, note=59, velocity=0, time=0),\n",
       "   Message('note_on', channel=2, note=62, velocity=0, time=0),\n",
       "   Message('note_on', channel=2, note=55, velocity=90, time=0),\n",
       "   Message('note_on', channel=2, note=62, velocity=90, time=0),\n",
       "   Message('note_on', channel=2, note=59, velocity=90, time=0),\n",
       "   Message('note_on', channel=2, note=59, velocity=0, time=180),\n",
       "   Message('note_on', channel=2, note=62, velocity=0, time=0),\n",
       "   Message('note_on', channel=2, note=55, velocity=0, time=0),\n",
       "   Message('note_on', channel=2, note=62, velocity=90, time=0),\n",
       "   Message('note_on', channel=2, note=55, velocity=90, time=0),\n",
       "   Message('note_on', channel=2, note=59, velocity=90, time=0),\n",
       "   Message('note_on', channel=2, note=59, velocity=0, time=60),\n",
       "   Message('note_on', channel=2, note=55, velocity=0, time=60),\n",
       "   Message('note_on', channel=2, note=62, velocity=0, time=0),\n",
       "   Message('note_on', channel=2, note=61, velocity=90, time=0),\n",
       "   Message('note_on', channel=2, note=57, velocity=90, time=0),\n",
       "   Message('note_on', channel=2, note=54, velocity=90, time=0),\n",
       "   Message('note_on', channel=2, note=54, velocity=0, time=180),\n",
       "   Message('note_on', channel=2, note=57, velocity=0, time=0),\n",
       "   Message('note_on', channel=2, note=61, velocity=0, time=0),\n",
       "   Message('note_on', channel=2, note=62, velocity=90, time=0),\n",
       "   Message('note_on', channel=2, note=59, velocity=90, time=0),\n",
       "   Message('note_on', channel=2, note=54, velocity=90, time=0),\n",
       "   Message('note_on', channel=2, note=54, velocity=0, time=180),\n",
       "   Message('note_on', channel=2, note=59, velocity=0, time=0),\n",
       "   Message('note_on', channel=2, note=62, velocity=0, time=0),\n",
       "   Message('note_on', channel=2, note=54, velocity=90, time=0),\n",
       "   Message('note_on', channel=2, note=59, velocity=90, time=0),\n",
       "   Message('note_on', channel=2, note=59, velocity=0, time=60),\n",
       "   Message('note_on', channel=2, note=54, velocity=0, time=60),\n",
       "   Message('note_on', channel=2, note=55, velocity=90, time=0),\n",
       "   Message('note_on', channel=2, note=52, velocity=90, time=0),\n",
       "   Message('note_on', channel=2, note=62, velocity=90, time=0),\n",
       "   Message('note_on', channel=2, note=59, velocity=90, time=0),\n",
       "   Message('note_on', channel=2, note=59, velocity=0, time=180),\n",
       "   Message('note_on', channel=2, note=55, velocity=0, time=0),\n",
       "   Message('note_on', channel=2, note=52, velocity=0, time=0),\n",
       "   Message('note_on', channel=2, note=62, velocity=0, time=0),\n",
       "   Message('note_on', channel=2, note=55, velocity=90, time=0),\n",
       "   Message('note_on', channel=2, note=59, velocity=90, time=0),\n",
       "   Message('note_on', channel=2, note=52, velocity=90, time=0),\n",
       "   Message('note_on', channel=2, note=52, velocity=0, time=180),\n",
       "   Message('note_on', channel=2, note=59, velocity=0, time=0),\n",
       "   Message('note_on', channel=2, note=55, velocity=0, time=0),\n",
       "   Message('note_on', channel=2, note=62, velocity=90, time=0),\n",
       "   Message('note_on', channel=2, note=59, velocity=90, time=0),\n",
       "   Message('note_on', channel=2, note=55, velocity=90, time=0),\n",
       "   Message('note_on', channel=2, note=52, velocity=90, time=0),\n",
       "   Message('note_on', channel=2, note=52, velocity=0, time=120),\n",
       "   Message('note_on', channel=2, note=62, velocity=0, time=0),\n",
       "   Message('note_on', channel=2, note=59, velocity=0, time=0),\n",
       "   Message('note_on', channel=2, note=55, velocity=0, time=0),\n",
       "   Message('note_on', channel=2, note=52, velocity=90, time=0),\n",
       "   Message('note_on', channel=2, note=62, velocity=90, time=0),\n",
       "   Message('note_on', channel=2, note=59, velocity=90, time=0),\n",
       "   Message('note_on', channel=2, note=57, velocity=90, time=0),\n",
       "   Message('note_on', channel=2, note=55, velocity=90, time=0),\n",
       "   Message('note_on', channel=2, note=55, velocity=0, time=60),\n",
       "   Message('note_on', channel=2, note=59, velocity=0, time=0),\n",
       "   Message('note_on', channel=2, note=52, velocity=0, time=60),\n",
       "   Message('note_on', channel=2, note=62, velocity=0, time=60),\n",
       "   Message('note_on', channel=2, note=57, velocity=0, time=0),\n",
       "   Message('note_on', channel=2, note=57, velocity=90, time=0),\n",
       "   Message('note_on', channel=2, note=52, velocity=90, time=0),\n",
       "   Message('note_on', channel=2, note=62, velocity=90, time=0),\n",
       "   Message('note_on', channel=2, note=62, velocity=0, time=60),\n",
       "   Message('note_on', channel=2, note=62, velocity=90, time=0),\n",
       "   Message('note_on', channel=2, note=52, velocity=0, time=60),\n",
       "   Message('note_on', channel=2, note=57, velocity=0, time=60),\n",
       "   Message('note_on', channel=2, note=62, velocity=90, time=0),\n",
       "   Message('note_on', channel=2, note=57, velocity=90, time=0),\n",
       "   Message('note_on', channel=2, note=52, velocity=90, time=0),\n",
       "   Message('note_on', channel=2, note=62, velocity=0, time=60),\n",
       "   Message('note_on', channel=2, note=62, velocity=0, time=60),\n",
       "   Message('note_on', channel=2, note=57, velocity=0, time=0),\n",
       "   Message('note_on', channel=2, note=52, velocity=0, time=0),\n",
       "   Message('note_on', channel=2, note=52, velocity=90, time=0),\n",
       "   Message('note_on', channel=2, note=61, velocity=90, time=0),\n",
       "   Message('note_on', channel=2, note=57, velocity=90, time=0),\n",
       "   Message('note_on', channel=2, note=57, velocity=0, time=240),\n",
       "   Message('note_on', channel=2, note=61, velocity=0, time=0),\n",
       "   Message('note_on', channel=2, note=52, velocity=0, time=0),\n",
       "   Message('note_on', channel=2, note=62, velocity=90, time=235),\n",
       "   Message('note_on', channel=2, note=57, velocity=90, time=0),\n",
       "   Message('note_on', channel=2, note=54, velocity=90, time=0),\n",
       "   Message('note_on', channel=2, note=57, velocity=0, time=120),\n",
       "   Message('note_on', channel=2, note=62, velocity=0, time=60),\n",
       "   Message('note_on', channel=2, note=62, velocity=90, time=0),\n",
       "   Message('note_on', channel=2, note=57, velocity=90, time=0),\n",
       "   Message('note_on', channel=2, note=57, velocity=0, time=120),\n",
       "   Message('note_on', channel=2, note=62, velocity=0, time=0),\n",
       "   Message('note_on', channel=2, note=57, velocity=90, time=0),\n",
       "   Message('note_on', channel=2, note=61, velocity=90, time=0),\n",
       "   Message('note_on', channel=2, note=54, velocity=0, time=60),\n",
       "   Message('note_on', channel=2, note=61, velocity=0, time=60),\n",
       "   Message('note_on', channel=2, note=57, velocity=0, time=0),\n",
       "   Message('note_on', channel=2, note=54, velocity=90, time=0),\n",
       "   Message('note_on', channel=2, note=62, velocity=90, time=0),\n",
       "   Message('note_on', channel=2, note=62, velocity=0, time=60),\n",
       "   Message('note_on', channel=2, note=54, velocity=0, time=0),\n",
       "   Message('note_on', channel=2, note=62, velocity=90, time=0),\n",
       "   Message('note_on', channel=2, note=54, velocity=90, time=0),\n",
       "   Message('note_on', channel=2, note=59, velocity=90, time=0),\n",
       "   Message('note_on', channel=2, note=59, velocity=0, time=120),\n",
       "   Message('note_on', channel=2, note=54, velocity=0, time=60),\n",
       "   Message('note_on', channel=2, note=62, velocity=0, time=0),\n",
       "   Message('note_on', channel=2, note=61, velocity=90, time=0),\n",
       "   Message('note_on', channel=2, note=59, velocity=90, time=0),\n",
       "   Message('note_on', channel=2, note=54, velocity=90, time=0),\n",
       "   Message('note_on', channel=2, note=54, velocity=0, time=180),\n",
       "   Message('note_on', channel=2, note=59, velocity=0, time=0),\n",
       "   Message('note_on', channel=2, note=61, velocity=0, time=0),\n",
       "   Message('note_on', channel=2, note=54, velocity=90, time=0),\n",
       "   Message('note_on', channel=2, note=57, velocity=90, time=0),\n",
       "   Message('note_on', channel=2, note=57, velocity=0, time=60),\n",
       "   Message('note_on', channel=2, note=54, velocity=0, time=0),\n",
       "   Message('note_on', channel=2, note=59, velocity=90, time=60),\n",
       "   Message('note_on', channel=2, note=55, velocity=90, time=0),\n",
       "   Message('note_on', channel=2, note=50, velocity=90, time=0),\n",
       "   Message('note_on', channel=2, note=50, velocity=0, time=180),\n",
       "   Message('note_on', channel=2, note=55, velocity=0, time=0),\n",
       "   Message('note_on', channel=2, note=59, velocity=0, time=0),\n",
       "   Message('note_on', channel=2, note=59, velocity=90, time=0),\n",
       "   Message('note_on', channel=2, note=55, velocity=90, time=0),\n",
       "   Message('note_on', channel=2, note=50, velocity=90, time=0),\n",
       "   Message('note_on', channel=2, note=55, velocity=0, time=180),\n",
       "   Message('note_on', channel=2, note=59, velocity=0, time=0),\n",
       "   Message('note_on', channel=2, note=55, velocity=90, time=0),\n",
       "   Message('note_on', channel=2, note=59, velocity=90, time=0),\n",
       "   Message('note_on', channel=2, note=59, velocity=0, time=120),\n",
       "   Message('note_on', channel=2, note=55, velocity=0, time=0),\n",
       "   Message('note_on', channel=2, note=55, velocity=90, time=0),\n",
       "   Message('note_on', channel=2, note=62, velocity=90, time=0),\n",
       "   Message('note_on', channel=2, note=59, velocity=90, time=0),\n",
       "   Message('note_on', channel=2, note=59, velocity=0, time=180),\n",
       "   Message('note_on', channel=2, note=50, velocity=0, time=0),\n",
       "   Message('note_on', channel=2, note=55, velocity=0, time=0),\n",
       "   Message('note_on', channel=2, note=62, velocity=0, time=0),\n",
       "   Message('note_on', channel=2, note=61, velocity=90, time=0),\n",
       "   Message('note_on', channel=2, note=52, velocity=90, time=0),\n",
       "   Message('note_on', channel=2, note=57, velocity=90, time=0),\n",
       "   Message('note_on', channel=2, note=57, velocity=0, time=120),\n",
       "   Message('note_on', channel=2, note=52, velocity=0, time=60),\n",
       "   Message('note_on', channel=2, note=61, velocity=0, time=0),\n",
       "   Message('note_on', channel=2, note=52, velocity=90, time=0),\n",
       "   Message('note_on', channel=2, note=61, velocity=90, time=0),\n",
       "   Message('note_on', channel=2, note=57, velocity=90, time=0),\n",
       "   Message('note_on', channel=2, note=61, velocity=0, time=120),\n",
       "   Message('note_on', channel=2, note=52, velocity=0, time=0),\n",
       "   Message('note_on', channel=2, note=62, velocity=90, time=0),\n",
       "   Message('note_on', channel=2, note=54, velocity=90, time=0),\n",
       "   Message('note_on', channel=2, note=54, velocity=0, time=180),\n",
       "   Message('note_on', channel=2, note=62, velocity=0, time=0),\n",
       "   Message('note_on', channel=2, note=57, velocity=0, time=0),\n",
       "   Message('note_on', channel=2, note=54, velocity=90, time=0),\n",
       "   Message('note_on', channel=2, note=57, velocity=90, time=0),\n",
       "   Message('note_on', channel=2, note=61, velocity=90, time=0),\n",
       "   Message('note_on', channel=2, note=61, velocity=0, time=180),\n",
       "   Message('note_on', channel=2, note=57, velocity=0, time=0),\n",
       "   Message('note_on', channel=2, note=54, velocity=0, time=0),\n",
       "   Message('note_on', channel=2, note=62, velocity=90, time=0),\n",
       "   Message('note_on', channel=2, note=54, velocity=90, time=0),\n",
       "   Message('note_on', channel=2, note=57, velocity=90, time=0),\n",
       "   Message('note_on', channel=2, note=57, velocity=0, time=60),\n",
       "   Message('note_on', channel=2, note=54, velocity=0, time=60),\n",
       "   Message('note_on', channel=2, note=62, velocity=0, time=0),\n",
       "   Message('note_on', channel=2, note=54, velocity=90, time=0),\n",
       "   Message('note_on', channel=2, note=62, velocity=90, time=0),\n",
       "   Message('note_on', channel=2, note=59, velocity=90, time=0),\n",
       "   Message('note_on', channel=2, note=59, velocity=0, time=180),\n",
       "   Message('note_on', channel=2, note=62, velocity=0, time=0),\n",
       "   Message('note_on', channel=2, note=54, velocity=0, time=0),\n",
       "   Message('note_on', channel=2, note=54, velocity=90, time=0),\n",
       "   Message('note_on', channel=2, note=59, velocity=90, time=0),\n",
       "   Message('note_on', channel=2, note=61, velocity=90, time=0),\n",
       "   Message('note_on', channel=2, note=61, velocity=0, time=120),\n",
       "   Message('note_on', channel=2, note=59, velocity=0, time=0),\n",
       "   Message('note_on', channel=2, note=54, velocity=0, time=0),\n",
       "   Message('note_on', channel=2, note=54, velocity=90, time=0),\n",
       "   Message('note_on', channel=2, note=61, velocity=90, time=0),\n",
       "   Message('note_on', channel=2, note=57, velocity=90, time=0),\n",
       "   Message('note_on', channel=2, note=61, velocity=0, time=60),\n",
       "   Message('note_on', channel=2, note=61, velocity=90, time=60),\n",
       "   Message('note_on', channel=2, note=61, velocity=0, time=60),\n",
       "   Message('note_on', channel=2, note=57, velocity=0, time=0),\n",
       "   Message('note_on', channel=2, note=54, velocity=0, time=0),\n",
       "   Message('note_on', channel=2, note=55, velocity=90, time=0),\n",
       "   Message('note_on', channel=2, note=50, velocity=90, time=0),\n",
       "   Message('note_on', channel=2, note=59, velocity=90, time=0),\n",
       "   Message('note_on', channel=2, note=59, velocity=0, time=180),\n",
       "   Message('note_on', channel=2, note=50, velocity=0, time=0),\n",
       "   Message('note_on', channel=2, note=55, velocity=0, time=0),\n",
       "   Message('note_on', channel=2, note=50, velocity=90, time=0),\n",
       "   Message('note_on', channel=2, note=59, velocity=90, time=0),\n",
       "   Message('note_on', channel=2, note=55, velocity=90, time=0),\n",
       "   Message('note_on', channel=2, note=55, velocity=0, time=180),\n",
       "   Message('note_on', channel=2, note=59, velocity=0, time=0),\n",
       "   Message('note_on', channel=2, note=50, velocity=0, time=0),\n",
       "   Message('note_on', channel=2, note=55, velocity=90, time=0),\n",
       "   Message('note_on', channel=2, note=50, velocity=90, time=0),\n",
       "   Message('note_on', channel=2, note=59, velocity=90, time=0),\n",
       "   Message('note_on', channel=2, note=59, velocity=0, time=120),\n",
       "   Message('note_on', channel=2, note=55, velocity=0, time=0),\n",
       "   Message('note_on', channel=2, note=55, velocity=90, time=0),\n",
       "   Message('note_on', channel=2, note=59, velocity=90, time=0),\n",
       "   Message('note_on', channel=2, note=59, velocity=0, time=120),\n",
       "   Message('note_on', channel=2, note=55, velocity=0, time=60),\n",
       "   Message('note_on', channel=2, note=50, velocity=0, time=0),\n",
       "   Message('note_on', channel=2, note=61, velocity=90, time=0),\n",
       "   Message('note_on', channel=2, note=52, velocity=90, time=0),\n",
       "   Message('note_on', channel=2, note=58, velocity=90, time=0),\n",
       "   Message('note_on', channel=2, note=57, velocity=90, time=0),\n",
       "   Message('note_on', channel=2, note=58, velocity=0, time=60),\n",
       "   Message('note_on', channel=2, note=57, velocity=0, time=120),\n",
       "   Message('note_on', channel=2, note=61, velocity=0, time=0),\n",
       "   Message('note_on', channel=2, note=61, velocity=90, time=0),\n",
       "   Message('note_on', channel=2, note=57, velocity=90, time=0),\n",
       "   Message('note_on', channel=2, note=61, velocity=0, time=60),\n",
       "   Message('note_on', channel=2, note=52, velocity=0, time=0),\n",
       "   Message('note_on', channel=2, note=54, velocity=90, time=60),\n",
       "   Message('note_on', channel=2, note=62, velocity=90, time=0),\n",
       "   Message('note_on', channel=2, note=62, velocity=0, time=180),\n",
       "   Message('note_on', channel=2, note=54, velocity=0, time=0),\n",
       "   Message('note_on', channel=2, note=57, velocity=0, time=0),\n",
       "   Message('note_on', channel=2, note=62, velocity=90, time=0),\n",
       "   Message('note_on', channel=2, note=54, velocity=90, time=0),\n",
       "   Message('note_on', channel=2, note=57, velocity=90, time=0),\n",
       "   Message('note_on', channel=2, note=57, velocity=0, time=60),\n",
       "   Message('note_on', channel=2, note=54, velocity=0, time=0),\n",
       "   Message('note_on', channel=2, note=62, velocity=0, time=0),\n",
       "   Message('note_on', channel=2, note=54, velocity=90, time=0),\n",
       "   Message('note_on', channel=2, note=62, velocity=90, time=0),\n",
       "   Message('note_on', channel=2, note=57, velocity=90, time=0),\n",
       "   Message('note_on', channel=2, note=57, velocity=0, time=240),\n",
       "   Message('note_on', channel=2, note=62, velocity=0, time=0),\n",
       "   Message('note_on', channel=2, note=54, velocity=0, time=0),\n",
       "   Message('note_on', channel=2, note=62, velocity=90, time=0),\n",
       "   Message('note_on', channel=2, note=57, velocity=90, time=0),\n",
       "   Message('note_on', channel=2, note=54, velocity=90, time=0),\n",
       "   Message('note_on', channel=2, note=54, velocity=0, time=60),\n",
       "   Message('note_on', channel=2, note=57, velocity=0, time=0),\n",
       "   Message('note_on', channel=2, note=62, velocity=0, time=0),\n",
       "   Message('note_on', channel=2, note=68, velocity=90, time=420),\n",
       "   Message('note_on', channel=2, note=64, velocity=90, time=0),\n",
       "   Message('note_on', channel=2, note=59, velocity=90, time=0),\n",
       "   Message('note_on', channel=2, note=66, velocity=90, time=0),\n",
       "   Message('note_on', channel=2, note=66, velocity=90, time=0),\n",
       "   Message('note_on', channel=2, note=66, velocity=0, time=240),\n",
       "   Message('note_on', channel=2, note=66, velocity=0, time=0),\n",
       "   Message('note_on', channel=2, note=66, velocity=90, time=0),\n",
       "   Message('note_on', channel=2, note=66, velocity=0, time=240),\n",
       "   Message('note_on', channel=2, note=59, velocity=0, time=0),\n",
       "   Message('note_on', channel=2, note=64, velocity=0, time=0),\n",
       "   Message('note_on', channel=2, note=68, velocity=0, time=0),\n",
       "   Message('note_on', channel=2, note=64, velocity=90, time=0),\n",
       "   Message('note_on', channel=2, note=61, velocity=90, time=0),\n",
       "   Message('note_on', channel=2, note=68, velocity=90, time=0),\n",
       "   Message('note_on', channel=2, note=68, velocity=0, time=480),\n",
       "   Message('note_on', channel=2, note=61, velocity=0, time=0),\n",
       "   Message('note_on', channel=2, note=64, velocity=0, time=0),\n",
       "   Message('note_on', channel=2, note=64, velocity=90, time=0),\n",
       "   Message('note_on', channel=2, note=61, velocity=90, time=0),\n",
       "   Message('note_on', channel=2, note=57, velocity=90, time=0),\n",
       "   Message('note_on', channel=2, note=57, velocity=90, time=0),\n",
       "   Message('note_on', channel=2, note=57, velocity=0, time=240),\n",
       "   Message('note_on', channel=2, note=64, velocity=0, time=0),\n",
       "   Message('note_on', channel=2, note=61, velocity=0, time=0),\n",
       "   Message('note_on', channel=2, note=61, velocity=90, time=60),\n",
       "   Message('note_on', channel=2, note=61, velocity=0, time=60),\n",
       "   Message('note_on', channel=2, note=64, velocity=90, time=0),\n",
       "   Message('note_on', channel=2, note=64, velocity=0, time=60),\n",
       "   Message('note_on', channel=2, note=64, velocity=90, time=0),\n",
       "   Message('note_on', channel=2, note=69, velocity=90, time=0),\n",
       "   Message('note_on', channel=2, note=57, velocity=0, time=60),\n",
       "   Message('note_on', channel=2, note=69, velocity=0, time=60),\n",
       "   Message('note_on', channel=2, note=64, velocity=0, time=0),\n",
       "   Message('note_on', channel=2, note=68, velocity=90, time=0),\n",
       "   Message('note_on', channel=2, note=64, velocity=90, time=0),\n",
       "   Message('note_on', channel=2, note=64, velocity=0, time=120),\n",
       "   Message('note_on', channel=2, note=68, velocity=0, time=0),\n",
       "   Message('note_on', channel=2, note=64, velocity=90, time=0),\n",
       "   Message('note_on', channel=2, note=61, velocity=90, time=0),\n",
       "   Message('note_on', channel=2, note=61, velocity=0, time=120),\n",
       "   Message('note_on', channel=2, note=64, velocity=0, time=0),\n",
       "   Message('note_on', channel=2, note=61, velocity=90, time=0),\n",
       "   Message('note_on', channel=2, note=57, velocity=90, time=0),\n",
       "   Message('note_on', channel=2, note=64, velocity=90, time=60),\n",
       "   Message('note_on', channel=2, note=57, velocity=90, time=0),\n",
       "   Message('note_on', channel=2, note=61, velocity=90, time=0),\n",
       "   Message('note_on', channel=2, note=57, velocity=0, time=60),\n",
       "   Message('note_on', channel=2, note=57, velocity=0, time=0),\n",
       "   Message('note_on', channel=2, note=61, velocity=0, time=0),\n",
       "   Message('note_on', channel=2, note=59, velocity=90, time=0),\n",
       "   Message('note_on', channel=2, note=56, velocity=90, time=0),\n",
       "   Message('note_on', channel=2, note=64, velocity=0, time=60),\n",
       "   Message('note_on', channel=2, note=61, velocity=0, time=0),\n",
       "   Message('note_on', channel=2, note=66, velocity=90, time=0),\n",
       "   Message('note_on', channel=2, note=63, velocity=90, time=0),\n",
       "   Message('note_on', channel=2, note=56, velocity=90, time=0),\n",
       "   Message('note_on', channel=2, note=59, velocity=90, time=0),\n",
       "   Message('note_on', channel=2, note=66, velocity=90, time=0),\n",
       "   Message('note_on', channel=2, note=63, velocity=90, time=0),\n",
       "   Message('note_on', channel=2, note=66, velocity=0, time=60),\n",
       "   Message('note_on', channel=2, note=56, velocity=0, time=0),\n",
       "   Message('note_on', channel=2, note=59, velocity=0, time=0),\n",
       "   Message('note_on', channel=2, note=56, velocity=0, time=60),\n",
       "   Message('note_on', channel=2, note=63, velocity=0, time=60),\n",
       "   Message('note_on', channel=2, note=59, velocity=0, time=0),\n",
       "   Message('note_on', channel=2, note=66, velocity=90, time=0),\n",
       "   Message('note_on', channel=2, note=59, velocity=90, time=0),\n",
       "   Message('note_on', channel=2, note=56, velocity=90, time=0),\n",
       "   Message('note_on', channel=2, note=56, velocity=0, time=180),\n",
       "   Message('note_on', channel=2, note=66, velocity=0, time=0),\n",
       "   Message('note_on', channel=2, note=59, velocity=0, time=0),\n",
       "   Message('note_on', channel=2, note=59, velocity=90, time=0),\n",
       "   Message('note_on', channel=2, note=63, velocity=90, time=0),\n",
       "   Message('note_on', channel=2, note=56, velocity=90, time=0),\n",
       "   Message('note_on', channel=2, note=56, velocity=0, time=120),\n",
       "   Message('note_on', channel=2, note=59, velocity=0, time=0),\n",
       "   Message('note_on', channel=2, note=63, velocity=0, time=0),\n",
       "   Message('note_on', channel=2, note=66, velocity=0, time=0),\n",
       "   Message('note_on', channel=2, note=63, velocity=0, time=0),\n",
       "   Message('note_on', channel=2, note=64, velocity=90, time=0),\n",
       "   Message('note_on', channel=2, note=56, velocity=90, time=0),\n",
       "   Message('note_on', channel=2, note=61, velocity=90, time=0),\n",
       "   Message('note_on', channel=2, note=61, velocity=0, time=180),\n",
       "   Message('note_on', channel=2, note=64, velocity=0, time=0),\n",
       "   Message('note_on', channel=2, note=61, velocity=90, time=0),\n",
       "   Message('note_on', channel=2, note=61, velocity=0, time=180),\n",
       "   Message('note_on', channel=2, note=56, velocity=0, time=0),\n",
       "   Message('note_on', channel=2, note=64, velocity=90, time=0),\n",
       "   Message('note_on', channel=2, note=61, velocity=90, time=0),\n",
       "   Message('note_on', channel=2, note=56, velocity=90, time=0),\n",
       "   Message('note_on', channel=2, note=61, velocity=0, time=120),\n",
       "   Message('note_on', channel=2, note=64, velocity=0, time=0),\n",
       "   Message('note_on', channel=2, note=63, velocity=90, time=0),\n",
       "   Message('note_on', channel=2, note=59, velocity=90, time=0),\n",
       "   Message('note_on', channel=2, note=59, velocity=0, time=120),\n",
       "   Message('note_on', channel=2, note=56, velocity=0, time=0),\n",
       "   Message('note_on', channel=2, note=63, velocity=0, time=60),\n",
       "   Message('note_on', channel=2, note=66, velocity=90, time=0),\n",
       "   Message('note_on', channel=2, note=59, velocity=90, time=0),\n",
       "   Message('note_on', channel=2, note=56, velocity=90, time=0),\n",
       "   Message('note_on', channel=2, note=56, velocity=0, time=180),\n",
       "   Message('note_on', channel=2, note=59, velocity=0, time=0),\n",
       "   Message('note_on', channel=2, note=66, velocity=0, time=0),\n",
       "   Message('note_on', channel=2, note=63, velocity=90, time=0),\n",
       "   Message('note_on', channel=2, note=59, velocity=90, time=0),\n",
       "   Message('note_on', channel=2, note=56, velocity=90, time=0),\n",
       "   Message('note_on', channel=2, note=56, velocity=0, time=120),\n",
       "   Message('note_on', channel=2, note=59, velocity=0, time=0),\n",
       "   Message('note_on', channel=2, note=63, velocity=0, time=0),\n",
       "   Message('note_on', channel=2, note=56, velocity=90, time=0),\n",
       "   Message('note_on', channel=2, note=64, velocity=90, time=0),\n",
       "   Message('note_on', channel=2, note=61, velocity=90, time=0),\n",
       "   Message('note_on', channel=2, note=64, velocity=0, time=120),\n",
       "   Message('note_on', channel=2, note=61, velocity=0, time=60),\n",
       "   Message('note_on', channel=2, note=56, velocity=0, time=0),\n",
       "   Message('note_on', channel=2, note=61, velocity=90, time=0),\n",
       "   Message('note_on', channel=2, note=56, velocity=90, time=0),\n",
       "   Message('note_on', channel=2, note=56, velocity=0, time=180),\n",
       "   Message('note_on', channel=2, note=61, velocity=0, time=0),\n",
       "   Message('note_on', channel=2, note=64, velocity=90, time=0),\n",
       "   Message('note_on', channel=2, note=61, velocity=90, time=0),\n",
       "   Message('note_on', channel=2, note=56, velocity=90, time=0),\n",
       "   Message('note_on', channel=2, note=56, velocity=0, time=60),\n",
       "   Message('note_on', channel=2, note=61, velocity=0, time=60),\n",
       "   Message('note_on', channel=2, note=64, velocity=0, time=0),\n",
       "   Message('note_on', channel=2, note=64, velocity=90, time=0),\n",
       "   Message('note_on', channel=2, note=61, velocity=90, time=0),\n",
       "   Message('note_on', channel=2, note=57, velocity=90, time=0),\n",
       "   Message('note_on', channel=2, note=57, velocity=0, time=180),\n",
       "   Message('note_on', channel=2, note=61, velocity=0, time=0),\n",
       "   Message('note_on', channel=2, note=64, velocity=0, time=0),\n",
       "   Message('note_on', channel=2, note=57, velocity=90, time=0),\n",
       "   Message('note_on', channel=2, note=64, velocity=90, time=0),\n",
       "   Message('note_on', channel=2, note=61, velocity=90, time=0),\n",
       "   Message('note_on', channel=2, note=61, velocity=0, time=180),\n",
       "   Message('note_on', channel=2, note=64, velocity=0, time=0),\n",
       "   Message('note_on', channel=2, note=57, velocity=0, time=0),\n",
       "   Message('note_on', channel=2, note=64, velocity=90, time=0),\n",
       "   Message('note_on', channel=2, note=57, velocity=90, time=0),\n",
       "   Message('note_on', channel=2, note=61, velocity=90, time=0),\n",
       "   Message('note_on', channel=2, note=61, velocity=0, time=60),\n",
       "   Message('note_on', channel=2, note=57, velocity=0, time=60),\n",
       "   Message('note_on', channel=2, note=64, velocity=0, time=0),\n",
       "   Message('note_on', channel=2, note=63, velocity=90, time=0),\n",
       "   Message('note_on', channel=2, note=59, velocity=90, time=0),\n",
       "   Message('note_on', channel=2, note=56, velocity=90, time=0),\n",
       "   Message('note_on', channel=2, note=56, velocity=0, time=180),\n",
       "   Message('note_on', channel=2, note=59, velocity=0, time=0),\n",
       "   Message('note_on', channel=2, note=63, velocity=0, time=0),\n",
       "   Message('note_on', channel=2, note=64, velocity=90, time=0),\n",
       "   Message('note_on', channel=2, note=61, velocity=90, time=0),\n",
       "   Message('note_on', channel=2, note=56, velocity=90, time=0),\n",
       "   Message('note_on', channel=2, note=56, velocity=0, time=180),\n",
       "   Message('note_on', channel=2, note=61, velocity=0, time=0),\n",
       "   Message('note_on', channel=2, note=64, velocity=0, time=0),\n",
       "   Message('note_on', channel=2, note=56, velocity=90, time=0),\n",
       "   Message('note_on', channel=2, note=61, velocity=90, time=0),\n",
       "   Message('note_on', channel=2, note=61, velocity=0, time=60),\n",
       "   Message('note_on', channel=2, note=56, velocity=0, time=60),\n",
       "   Message('note_on', channel=2, note=57, velocity=90, time=0),\n",
       "   Message('note_on', channel=2, note=54, velocity=90, time=0),\n",
       "   Message('note_on', channel=2, note=64, velocity=90, time=0),\n",
       "   Message('note_on', channel=2, note=61, velocity=90, time=0),\n",
       "   Message('note_on', channel=2, note=61, velocity=0, time=180),\n",
       "   Message('note_on', channel=2, note=57, velocity=0, time=0),\n",
       "   Message('note_on', channel=2, note=54, velocity=0, time=0),\n",
       "   Message('note_on', channel=2, note=64, velocity=0, time=0),\n",
       "   Message('note_on', channel=2, note=57, velocity=90, time=0),\n",
       "   Message('note_on', channel=2, note=61, velocity=90, time=0),\n",
       "   Message('note_on', channel=2, note=54, velocity=90, time=0),\n",
       "   Message('note_on', channel=2, note=54, velocity=0, time=180),\n",
       "   Message('note_on', channel=2, note=61, velocity=0, time=0),\n",
       "   Message('note_on', channel=2, note=57, velocity=0, time=0),\n",
       "   Message('note_on', channel=2, note=64, velocity=90, time=0),\n",
       "   Message('note_on', channel=2, note=61, velocity=90, time=0),\n",
       "   Message('note_on', channel=2, note=57, velocity=90, time=0),\n",
       "   Message('note_on', channel=2, note=54, velocity=90, time=0),\n",
       "   Message('note_on', channel=2, note=54, velocity=0, time=120),\n",
       "   Message('note_on', channel=2, note=64, velocity=0, time=0),\n",
       "   Message('note_on', channel=2, note=61, velocity=0, time=0),\n",
       "   Message('note_on', channel=2, note=57, velocity=0, time=0),\n",
       "   Message('note_on', channel=2, note=54, velocity=90, time=0),\n",
       "   Message('note_on', channel=2, note=64, velocity=90, time=0),\n",
       "   Message('note_on', channel=2, note=61, velocity=90, time=0),\n",
       "   Message('note_on', channel=2, note=59, velocity=90, time=0),\n",
       "   Message('note_on', channel=2, note=57, velocity=90, time=0),\n",
       "   Message('note_on', channel=2, note=57, velocity=0, time=60),\n",
       "   Message('note_on', channel=2, note=61, velocity=0, time=0),\n",
       "   Message('note_on', channel=2, note=54, velocity=0, time=60),\n",
       "   Message('note_on', channel=2, note=64, velocity=0, time=60),\n",
       "   Message('note_on', channel=2, note=59, velocity=0, time=0),\n",
       "   Message('note_on', channel=2, note=59, velocity=90, time=0),\n",
       "   Message('note_on', channel=2, note=54, velocity=90, time=0),\n",
       "   Message('note_on', channel=2, note=64, velocity=90, time=0),\n",
       "   Message('note_on', channel=2, note=64, velocity=0, time=60),\n",
       "   Message('note_on', channel=2, note=64, velocity=90, time=0),\n",
       "   Message('note_on', channel=2, note=54, velocity=0, time=60),\n",
       "   Message('note_on', channel=2, note=59, velocity=0, time=60),\n",
       "   Message('note_on', channel=2, note=64, velocity=90, time=0),\n",
       "   Message('note_on', channel=2, note=59, velocity=90, time=0),\n",
       "   Message('note_on', channel=2, note=54, velocity=90, time=0),\n",
       "   Message('note_on', channel=2, note=64, velocity=0, time=60),\n",
       "   Message('note_on', channel=2, note=64, velocity=0, time=60),\n",
       "   Message('note_on', channel=2, note=59, velocity=0, time=0),\n",
       "   Message('note_on', channel=2, note=54, velocity=0, time=0),\n",
       "   Message('note_on', channel=2, note=54, velocity=90, time=0),\n",
       "   Message('note_on', channel=2, note=63, velocity=90, time=0),\n",
       "   Message('note_on', channel=2, note=59, velocity=90, time=0),\n",
       "   Message('note_on', channel=2, note=59, velocity=0, time=240),\n",
       "   Message('note_on', channel=2, note=63, velocity=0, time=0),\n",
       "   Message('note_on', channel=2, note=54, velocity=0, time=0),\n",
       "   Message('note_on', channel=2, note=52, velocity=100, time=240),\n",
       "   Message('note_on', channel=2, note=64, velocity=100, time=0),\n",
       "   Message('note_on', channel=2, note=59, velocity=100, time=90),\n",
       "   Message('note_on', channel=2, note=59, velocity=0, time=30),\n",
       "   Message('note_on', channel=2, note=71, velocity=100, time=0),\n",
       "   Message('note_on', channel=2, note=71, velocity=0, time=120),\n",
       "   Message('note_on', channel=2, note=71, velocity=100, time=60),\n",
       "   Message('note_on', channel=2, note=71, velocity=0, time=60),\n",
       "   Message('note_on', channel=2, note=64, velocity=100, time=0),\n",
       "   Message('note_on', channel=2, note=64, velocity=0, time=60),\n",
       "   Message('note_on', channel=2, note=59, velocity=100, time=0),\n",
       "   Message('note_on', channel=2, note=59, velocity=0, time=60),\n",
       "   Message('note_on', channel=2, note=64, velocity=0, time=0),\n",
       "   Message('note_on', channel=2, note=52, velocity=0, time=0),\n",
       "   Message('note_on', channel=2, note=49, velocity=100, time=0),\n",
       "   Message('note_on', channel=2, note=61, velocity=100, time=0),\n",
       "   Message('note_on', channel=2, note=56, velocity=100, time=60),\n",
       "   Message('note_on', channel=2, note=56, velocity=0, time=60),\n",
       "   Message('note_on', channel=2, note=61, velocity=100, time=0),\n",
       "   Message('note_on', channel=2, note=61, velocity=0, time=60),\n",
       "   Message('note_on', channel=2, note=64, velocity=100, time=0),\n",
       "   Message('note_on', channel=2, note=64, velocity=0, time=60),\n",
       "   Message('note_on', channel=2, note=64, velocity=100, time=60),\n",
       "   Message('note_on', channel=2, note=64, velocity=0, time=60),\n",
       "   Message('note_on', channel=2, note=61, velocity=100, time=0),\n",
       "   Message('note_on', channel=2, note=61, velocity=0, time=60),\n",
       "   Message('note_on', channel=2, note=56, velocity=100, time=0),\n",
       "   Message('note_on', channel=2, note=56, velocity=0, time=60),\n",
       "   Message('note_on', channel=2, note=61, velocity=0, time=0),\n",
       "   Message('note_on', channel=2, note=49, velocity=0, time=0),\n",
       "   Message('note_on', channel=2, note=57, velocity=100, time=0),\n",
       "   Message('note_on', channel=2, note=45, velocity=100, time=0),\n",
       "   Message('note_on', channel=2, note=52, velocity=100, time=60),\n",
       "   Message('note_on', channel=2, note=52, velocity=0, time=60),\n",
       "   Message('note_on', channel=2, note=57, velocity=100, time=0),\n",
       "   Message('note_on', channel=2, note=57, velocity=0, time=60),\n",
       "   Message('note_on', channel=2, note=59, velocity=100, time=0),\n",
       "   Message('note_on', channel=2, note=59, velocity=0, time=60),\n",
       "   Message('note_on', channel=2, note=61, velocity=100, time=0),\n",
       "   Message('note_on', channel=2, note=61, velocity=0, time=120),\n",
       "   Message('note_on', channel=2, note=45, velocity=0, time=120),\n",
       "   Message('note_on', channel=2, note=57, velocity=0, time=0),\n",
       "   Message('note_on', channel=2, note=59, velocity=100, time=0),\n",
       "   Message('note_on', channel=2, note=47, velocity=100, time=0),\n",
       "   Message('note_on', channel=2, note=47, velocity=100, time=180),\n",
       "   Message('note_on', channel=2, note=64, velocity=100, time=0),\n",
       "   Message('note_on', channel=2, note=64, velocity=0, time=120),\n",
       "   Message('note_on', channel=2, note=47, velocity=0, time=0),\n",
       "   Message('note_on', channel=2, note=47, velocity=100, time=60),\n",
       "   Message('note_on', channel=2, note=63, velocity=100, time=0),\n",
       "   Message('note_on', channel=2, note=63, velocity=0, time=120),\n",
       "   Message('note_on', channel=2, note=59, velocity=0, time=0),\n",
       "   Message('note_on', channel=2, note=47, velocity=0, time=0),\n",
       "   Message('note_on', channel=2, note=47, velocity=0, time=0),\n",
       "   Message('note_on', channel=2, note=52, velocity=100, time=0),\n",
       "   Message('note_on', channel=2, note=64, velocity=100, time=0),\n",
       "   Message('note_on', channel=2, note=59, velocity=100, time=90),\n",
       "   Message('note_on', channel=2, note=59, velocity=0, time=30),\n",
       "   Message('note_on', channel=2, note=71, velocity=100, time=0),\n",
       "   Message('note_on', channel=2, note=71, velocity=0, time=120),\n",
       "   Message('note_on', channel=2, note=71, velocity=100, time=60),\n",
       "   Message('note_on', channel=2, note=71, velocity=0, time=60),\n",
       "   Message('note_on', channel=2, note=64, velocity=100, time=0),\n",
       "   Message('note_on', channel=2, note=64, velocity=0, time=60),\n",
       "   Message('note_on', channel=2, note=59, velocity=100, time=0),\n",
       "   Message('note_on', channel=2, note=59, velocity=0, time=60),\n",
       "   Message('note_on', channel=2, note=64, velocity=0, time=0),\n",
       "   Message('note_on', channel=2, note=52, velocity=0, time=0),\n",
       "   Message('note_on', channel=2, note=49, velocity=100, time=0),\n",
       "   Message('note_on', channel=2, note=61, velocity=100, time=0),\n",
       "   Message('note_on', channel=2, note=56, velocity=100, time=60),\n",
       "   Message('note_on', channel=2, note=56, velocity=0, time=60),\n",
       "   Message('note_on', channel=2, note=61, velocity=100, time=0),\n",
       "   Message('note_on', channel=2, note=61, velocity=0, time=60),\n",
       "   Message('note_on', channel=2, note=64, velocity=100, time=0),\n",
       "   Message('note_on', channel=2, note=64, velocity=0, time=60),\n",
       "   Message('note_on', channel=2, note=64, velocity=100, time=60),\n",
       "   Message('note_on', channel=2, note=64, velocity=0, time=60),\n",
       "   Message('note_on', channel=2, note=61, velocity=100, time=0),\n",
       "   Message('note_on', channel=2, note=61, velocity=0, time=60),\n",
       "   Message('note_on', channel=2, note=56, velocity=100, time=0),\n",
       "   Message('note_on', channel=2, note=56, velocity=0, time=60),\n",
       "   Message('note_on', channel=2, note=61, velocity=0, time=0),\n",
       "   Message('note_on', channel=2, note=49, velocity=0, time=0),\n",
       "   Message('note_on', channel=2, note=57, velocity=100, time=0),\n",
       "   Message('note_on', channel=2, note=45, velocity=100, time=0),\n",
       "   Message('note_on', channel=2, note=52, velocity=100, time=60),\n",
       "   Message('note_on', channel=2, note=52, velocity=0, time=60),\n",
       "   Message('note_on', channel=2, note=57, velocity=100, time=0),\n",
       "   Message('note_on', channel=2, note=57, velocity=0, time=60),\n",
       "   Message('note_on', channel=2, note=59, velocity=100, time=0),\n",
       "   Message('note_on', channel=2, note=59, velocity=0, time=60),\n",
       "   Message('note_on', channel=2, note=61, velocity=100, time=0),\n",
       "   Message('note_on', channel=2, note=61, velocity=0, time=120),\n",
       "   Message('note_on', channel=2, note=45, velocity=0, time=120),\n",
       "   Message('note_on', channel=2, note=57, velocity=0, time=0),\n",
       "   Message('note_on', channel=2, note=59, velocity=100, time=0),\n",
       "   Message('note_on', channel=2, note=47, velocity=100, time=0),\n",
       "   Message('note_on', channel=2, note=47, velocity=100, time=180),\n",
       "   Message('note_on', channel=2, note=64, velocity=100, time=0),\n",
       "   Message('note_on', channel=2, note=64, velocity=0, time=120),\n",
       "   Message('note_on', channel=2, note=47, velocity=0, time=0),\n",
       "   Message('note_on', channel=2, note=47, velocity=100, time=60),\n",
       "   Message('note_on', channel=2, note=63, velocity=100, time=0),\n",
       "   Message('note_on', channel=2, note=63, velocity=0, time=120),\n",
       "   Message('note_on', channel=2, note=59, velocity=0, time=0),\n",
       "   Message('note_on', channel=2, note=47, velocity=0, time=0),\n",
       "   Message('note_on', channel=2, note=47, velocity=0, time=0),\n",
       "   Message('note_on', channel=2, note=40, velocity=100, time=0),\n",
       "   Message('note_on', channel=2, note=56, velocity=100, time=0),\n",
       "   Message('note_on', channel=2, note=64, velocity=100, time=0),\n",
       "   Message('note_on', channel=2, note=52, velocity=100, time=0),\n",
       "   Message('note_on', channel=2, note=52, velocity=0, time=480),\n",
       "   Message('note_on', channel=2, note=40, velocity=0, time=0),\n",
       "   Message('note_on', channel=2, note=56, velocity=0, time=0),\n",
       "   Message('note_on', channel=2, note=64, velocity=0, time=0),\n",
       "   MetaMessage('end_of_track', time=0)]),\n",
       " MidiTrack([\n",
       "   MetaMessage('midi_port', port=0, time=0),\n",
       "   MetaMessage('track_name', name='CHORD2', time=0),\n",
       "   Message('program_change', channel=3, program=6, time=0),\n",
       "   Message('control_change', channel=3, control=7, value=87, time=0),\n",
       "   Message('control_change', channel=3, control=10, value=64, time=0),\n",
       "   Message('note_on', channel=3, note=57, velocity=90, time=540),\n",
       "   Message('note_on', channel=3, note=57, velocity=0, time=60),\n",
       "   Message('note_on', channel=3, note=62, velocity=90, time=0),\n",
       "   Message('note_on', channel=3, note=62, velocity=0, time=60),\n",
       "   Message('note_on', channel=3, note=64, velocity=90, time=0),\n",
       "   Message('note_on', channel=3, note=64, velocity=0, time=120),\n",
       "   Message('note_on', channel=3, note=64, velocity=90, time=0),\n",
       "   Message('note_on', channel=3, note=64, velocity=0, time=60),\n",
       "   Message('note_on', channel=3, note=62, velocity=90, time=0),\n",
       "   Message('note_on', channel=3, note=62, velocity=0, time=60),\n",
       "   Message('note_on', channel=3, note=57, velocity=90, time=0),\n",
       "   Message('note_on', channel=3, note=57, velocity=0, time=60),\n",
       "   Message('note_on', channel=3, note=59, velocity=90, time=60),\n",
       "   Message('note_on', channel=3, note=59, velocity=0, time=60),\n",
       "   Message('note_on', channel=3, note=62, velocity=90, time=0),\n",
       "   Message('note_on', channel=3, note=62, velocity=0, time=60),\n",
       "   Message('note_on', channel=3, note=64, velocity=90, time=0),\n",
       "   Message('note_on', channel=3, note=64, velocity=0, time=120),\n",
       "   Message('note_on', channel=3, note=64, velocity=90, time=0),\n",
       "   Message('note_on', channel=3, note=64, velocity=0, time=60),\n",
       "   Message('note_on', channel=3, note=62, velocity=90, time=0),\n",
       "   Message('note_on', channel=3, note=62, velocity=0, time=60),\n",
       "   Message('note_on', channel=3, note=57, velocity=90, time=0),\n",
       "   Message('note_on', channel=3, note=57, velocity=0, time=120),\n",
       "   Message('note_on', channel=3, note=57, velocity=90, time=0),\n",
       "   Message('note_on', channel=3, note=57, velocity=0, time=60),\n",
       "   Message('note_on', channel=3, note=59, velocity=90, time=0),\n",
       "   Message('note_on', channel=3, note=59, velocity=0, time=60),\n",
       "   Message('note_on', channel=3, note=62, velocity=90, time=0),\n",
       "   Message('note_on', channel=3, note=62, velocity=0, time=120),\n",
       "   Message('note_on', channel=3, note=59, velocity=90, time=0),\n",
       "   Message('note_on', channel=3, note=59, velocity=0, time=60),\n",
       "   Message('note_on', channel=3, note=57, velocity=90, time=0),\n",
       "   Message('note_on', channel=3, note=57, velocity=0, time=180),\n",
       "   Message('note_on', channel=3, note=57, velocity=90, time=0),\n",
       "   Message('note_on', channel=3, note=57, velocity=0, time=60),\n",
       "   Message('note_on', channel=3, note=59, velocity=90, time=0),\n",
       "   Message('note_on', channel=3, note=59, velocity=0, time=60),\n",
       "   Message('note_on', channel=3, note=62, velocity=90, time=0),\n",
       "   Message('note_on', channel=3, note=62, velocity=0, time=120),\n",
       "   Message('note_on', channel=3, note=59, velocity=90, time=0),\n",
       "   Message('note_on', channel=3, note=59, velocity=0, time=60),\n",
       "   Message('note_on', channel=3, note=62, velocity=90, time=0),\n",
       "   Message('note_on', channel=3, note=62, velocity=0, time=60),\n",
       "   Message('note_on', channel=3, note=57, velocity=90, time=0),\n",
       "   Message('note_on', channel=3, note=57, velocity=0, time=60),\n",
       "   Message('note_on', channel=3, note=57, velocity=90, time=60),\n",
       "   Message('note_on', channel=3, note=57, velocity=0, time=60),\n",
       "   Message('note_on', channel=3, note=62, velocity=90, time=0),\n",
       "   Message('note_on', channel=3, note=62, velocity=0, time=60),\n",
       "   Message('note_on', channel=3, note=64, velocity=90, time=0),\n",
       "   Message('note_on', channel=3, note=64, velocity=0, time=120),\n",
       "   Message('note_on', channel=3, note=64, velocity=90, time=0),\n",
       "   Message('note_on', channel=3, note=64, velocity=0, time=60),\n",
       "   Message('note_on', channel=3, note=62, velocity=90, time=0),\n",
       "   Message('note_on', channel=3, note=62, velocity=0, time=60),\n",
       "   Message('note_on', channel=3, note=57, velocity=90, time=0),\n",
       "   Message('note_on', channel=3, note=57, velocity=0, time=60),\n",
       "   Message('note_on', channel=3, note=59, velocity=90, time=60),\n",
       "   Message('note_on', channel=3, note=59, velocity=0, time=60),\n",
       "   Message('note_on', channel=3, note=62, velocity=90, time=0),\n",
       "   Message('note_on', channel=3, note=62, velocity=0, time=60),\n",
       "   Message('note_on', channel=3, note=64, velocity=90, time=0),\n",
       "   Message('note_on', channel=3, note=64, velocity=0, time=120),\n",
       "   Message('note_on', channel=3, note=64, velocity=90, time=0),\n",
       "   Message('note_on', channel=3, note=64, velocity=0, time=60),\n",
       "   Message('note_on', channel=3, note=62, velocity=90, time=0),\n",
       "   Message('note_on', channel=3, note=62, velocity=0, time=60),\n",
       "   Message('note_on', channel=3, note=57, velocity=90, time=0),\n",
       "   Message('note_on', channel=3, note=57, velocity=0, time=120),\n",
       "   Message('note_on', channel=3, note=57, velocity=90, time=0),\n",
       "   Message('note_on', channel=3, note=57, velocity=0, time=60),\n",
       "   Message('note_on', channel=3, note=59, velocity=90, time=0),\n",
       "   Message('note_on', channel=3, note=59, velocity=0, time=60),\n",
       "   Message('note_on', channel=3, note=62, velocity=90, time=0),\n",
       "   Message('note_on', channel=3, note=62, velocity=0, time=120),\n",
       "   Message('note_on', channel=3, note=59, velocity=90, time=0),\n",
       "   Message('note_on', channel=3, note=59, velocity=0, time=60),\n",
       "   Message('note_on', channel=3, note=57, velocity=90, time=0),\n",
       "   Message('note_on', channel=3, note=57, velocity=0, time=180),\n",
       "   Message('note_on', channel=3, note=57, velocity=90, time=0),\n",
       "   Message('note_on', channel=3, note=57, velocity=0, time=60),\n",
       "   Message('note_on', channel=3, note=59, velocity=90, time=0),\n",
       "   Message('note_on', channel=3, note=59, velocity=0, time=60),\n",
       "   Message('note_on', channel=3, note=62, velocity=90, time=0),\n",
       "   Message('note_on', channel=3, note=62, velocity=0, time=120),\n",
       "   Message('note_on', channel=3, note=59, velocity=90, time=0),\n",
       "   Message('note_on', channel=3, note=59, velocity=0, time=60),\n",
       "   Message('note_on', channel=3, note=62, velocity=90, time=0),\n",
       "   Message('note_on', channel=3, note=62, velocity=0, time=60),\n",
       "   Message('note_on', channel=3, note=57, velocity=90, time=0),\n",
       "   Message('note_on', channel=3, note=57, velocity=0, time=60),\n",
       "   Message('note_on', channel=3, note=61, velocity=90, time=3840),\n",
       "   Message('note_on', channel=3, note=61, velocity=0, time=120),\n",
       "   Message('note_on', channel=3, note=54, velocity=73, time=0),\n",
       "   Message('note_on', channel=3, note=54, velocity=0, time=60),\n",
       "   Message('note_on', channel=3, note=64, velocity=90, time=0),\n",
       "   Message('note_on', channel=3, note=64, velocity=0, time=120),\n",
       "   Message('note_on', channel=3, note=54, velocity=60, time=0),\n",
       "   Message('note_on', channel=3, note=54, velocity=0, time=60),\n",
       "   Message('note_on', channel=3, note=64, velocity=90, time=0),\n",
       "   Message('note_on', channel=3, note=64, velocity=0, time=60),\n",
       "   Message('note_on', channel=3, note=54, velocity=70, time=0),\n",
       "   Message('note_on', channel=3, note=54, velocity=0, time=60),\n",
       "   Message('note_on', channel=3, note=62, velocity=90, time=0),\n",
       "   Message('note_on', channel=3, note=62, velocity=0, time=120),\n",
       "   Message('note_on', channel=3, note=59, velocity=60, time=0),\n",
       "   Message('note_on', channel=3, note=59, velocity=0, time=60),\n",
       "   Message('note_on', channel=3, note=64, velocity=90, time=0),\n",
       "   Message('note_on', channel=3, note=64, velocity=0, time=120),\n",
       "   Message('note_on', channel=3, note=62, velocity=90, time=0),\n",
       "   Message('note_on', channel=3, note=62, velocity=0, time=120),\n",
       "   Message('note_on', channel=3, note=61, velocity=90, time=0),\n",
       "   Message('note_on', channel=3, note=61, velocity=0, time=180),\n",
       "   Message('note_on', channel=3, note=54, velocity=50, time=0),\n",
       "   Message('note_on', channel=3, note=54, velocity=0, time=60),\n",
       "   Message('note_on', channel=3, note=64, velocity=90, time=0),\n",
       "   Message('note_on', channel=3, note=64, velocity=0, time=120),\n",
       "   Message('note_on', channel=3, note=54, velocity=50, time=0),\n",
       "   Message('note_on', channel=3, note=54, velocity=0, time=60),\n",
       "   Message('note_on', channel=3, note=61, velocity=90, time=0),\n",
       "   Message('note_on', channel=3, note=61, velocity=0, time=60),\n",
       "   Message('note_on', channel=3, note=54, velocity=50, time=0),\n",
       "   Message('note_on', channel=3, note=54, velocity=0, time=60),\n",
       "   Message('note_on', channel=3, note=62, velocity=90, time=0),\n",
       "   Message('note_on', channel=3, note=62, velocity=0, time=120),\n",
       "   Message('note_on', channel=3, note=54, velocity=50, time=0),\n",
       "   Message('note_on', channel=3, note=54, velocity=0, time=60),\n",
       "   Message('note_on', channel=3, note=62, velocity=90, time=0),\n",
       "   Message('note_on', channel=3, note=62, velocity=0, time=120),\n",
       "   Message('note_on', channel=3, note=54, velocity=50, time=0),\n",
       "   Message('note_on', channel=3, note=54, velocity=0, time=60),\n",
       "   Message('note_on', channel=3, note=59, velocity=90, time=0),\n",
       "   Message('note_on', channel=3, note=59, velocity=0, time=60),\n",
       "   Message('note_on', channel=3, note=54, velocity=50, time=0),\n",
       "   Message('note_on', channel=3, note=54, velocity=0, time=60),\n",
       "   Message('note_on', channel=3, note=57, velocity=90, time=0),\n",
       "   Message('note_on', channel=3, note=57, velocity=0, time=120),\n",
       "   Message('note_on', channel=3, note=55, velocity=90, time=0),\n",
       "   Message('note_on', channel=3, note=55, velocity=0, time=180),\n",
       "   Message('note_on', channel=3, note=50, velocity=40, time=0),\n",
       "   Message('note_on', channel=3, note=50, velocity=0, time=60),\n",
       "   Message('note_on', channel=3, note=55, velocity=90, time=0),\n",
       "   Message('note_on', channel=3, note=55, velocity=0, time=60),\n",
       "   Message('note_on', channel=3, note=50, velocity=40, time=0),\n",
       "   Message('note_on', channel=3, note=50, velocity=0, time=60),\n",
       "   Message('note_on', channel=3, note=54, velocity=90, time=0),\n",
       "   Message('note_on', channel=3, note=54, velocity=0, time=150),\n",
       "   Message('note_on', channel=3, note=59, velocity=90, time=30),\n",
       "   Message('note_on', channel=3, note=59, velocity=0, time=90),\n",
       "   Message('note_on', channel=3, note=59, velocity=90, time=30),\n",
       "   Message('note_on', channel=3, note=59, velocity=0, time=180),\n",
       "   Message('note_on', channel=3, note=62, velocity=90, time=0),\n",
       "   Message('note_on', channel=3, note=62, velocity=0, time=180),\n",
       "   Message('note_on', channel=3, note=54, velocity=40, time=0),\n",
       "   Message('note_on', channel=3, note=54, velocity=0, time=120),\n",
       "   Message('note_on', channel=3, note=55, velocity=55, time=0),\n",
       "   Message('note_on', channel=3, note=55, velocity=0, time=60),\n",
       "   Message('note_on', channel=3, note=62, velocity=90, time=0),\n",
       "   Message('note_on', channel=3, note=62, velocity=0, time=120),\n",
       "   Message('note_on', channel=3, note=62, velocity=90, time=0),\n",
       "   Message('note_on', channel=3, note=62, velocity=0, time=120),\n",
       "   Message('note_on', channel=3, note=57, velocity=40, time=0),\n",
       "   Message('note_on', channel=3, note=57, velocity=0, time=60),\n",
       "   Message('note_on', channel=3, note=62, velocity=90, time=0),\n",
       "   Message('note_on', channel=3, note=62, velocity=0, time=120),\n",
       "   Message('note_on', channel=3, note=57, velocity=40, time=0),\n",
       "   Message('note_on', channel=3, note=57, velocity=0, time=60),\n",
       "   Message('note_on', channel=3, note=62, velocity=90, time=0),\n",
       "   Message('note_on', channel=3, note=62, velocity=0, time=60),\n",
       "   Message('note_on', channel=3, note=57, velocity=40, time=0),\n",
       "   Message('note_on', channel=3, note=57, velocity=0, time=60),\n",
       "   Message('note_on', channel=3, note=61, velocity=90, time=0),\n",
       "   Message('note_on', channel=3, note=61, velocity=0, time=240),\n",
       "   Message('note_on', channel=3, note=57, velocity=90, time=300),\n",
       "   Message('note_on', channel=3, note=57, velocity=0, time=60),\n",
       "   Message('note_on', channel=3, note=62, velocity=90, time=0),\n",
       "   Message('note_on', channel=3, note=62, velocity=0, time=60),\n",
       "   Message('note_on', channel=3, note=64, velocity=90, time=0),\n",
       "   Message('note_on', channel=3, note=64, velocity=0, time=120),\n",
       "   Message('note_on', channel=3, note=64, velocity=90, time=0),\n",
       "   Message('note_on', channel=3, note=64, velocity=0, time=60),\n",
       "   Message('note_on', channel=3, note=62, velocity=90, time=0),\n",
       "   Message('note_on', channel=3, note=62, velocity=0, time=60),\n",
       "   Message('note_on', channel=3, note=57, velocity=90, time=0),\n",
       "   Message('note_on', channel=3, note=57, velocity=0, time=60),\n",
       "   Message('note_on', channel=3, note=59, velocity=90, time=60),\n",
       "   Message('note_on', channel=3, note=59, velocity=0, time=60),\n",
       "   Message('note_on', channel=3, note=62, velocity=90, time=0),\n",
       "   Message('note_on', channel=3, note=62, velocity=0, time=60),\n",
       "   Message('note_on', channel=3, note=64, velocity=90, time=0),\n",
       "   Message('note_on', channel=3, note=64, velocity=0, time=120),\n",
       "   Message('note_on', channel=3, note=64, velocity=90, time=0),\n",
       "   Message('note_on', channel=3, note=64, velocity=0, time=60),\n",
       "   Message('note_on', channel=3, note=62, velocity=90, time=0),\n",
       "   Message('note_on', channel=3, note=62, velocity=0, time=60),\n",
       "   Message('note_on', channel=3, note=57, velocity=90, time=0),\n",
       "   Message('note_on', channel=3, note=57, velocity=0, time=120),\n",
       "   Message('note_on', channel=3, note=57, velocity=90, time=0),\n",
       "   Message('note_on', channel=3, note=57, velocity=0, time=60),\n",
       "   Message('note_on', channel=3, note=59, velocity=90, time=0),\n",
       "   Message('note_on', channel=3, note=59, velocity=0, time=60),\n",
       "   Message('note_on', channel=3, note=62, velocity=90, time=0),\n",
       "   Message('note_on', channel=3, note=62, velocity=0, time=120),\n",
       "   Message('note_on', channel=3, note=59, velocity=90, time=0),\n",
       "   Message('note_on', channel=3, note=59, velocity=0, time=60),\n",
       "   Message('note_on', channel=3, note=57, velocity=90, time=0),\n",
       "   Message('note_on', channel=3, note=57, velocity=0, time=180),\n",
       "   Message('note_on', channel=3, note=57, velocity=90, time=0),\n",
       "   Message('note_on', channel=3, note=57, velocity=0, time=60),\n",
       "   Message('note_on', channel=3, note=59, velocity=90, time=0),\n",
       "   Message('note_on', channel=3, note=59, velocity=0, time=60),\n",
       "   Message('note_on', channel=3, note=62, velocity=90, time=0),\n",
       "   Message('note_on', channel=3, note=62, velocity=0, time=120),\n",
       "   Message('note_on', channel=3, note=59, velocity=90, time=0),\n",
       "   Message('note_on', channel=3, note=59, velocity=0, time=60),\n",
       "   Message('note_on', channel=3, note=62, velocity=90, time=0),\n",
       "   Message('note_on', channel=3, note=62, velocity=0, time=60),\n",
       "   Message('note_on', channel=3, note=57, velocity=90, time=0),\n",
       "   Message('note_on', channel=3, note=57, velocity=0, time=60),\n",
       "   Message('note_on', channel=3, note=57, velocity=90, time=60),\n",
       "   Message('note_on', channel=3, note=57, velocity=0, time=60),\n",
       "   Message('note_on', channel=3, note=62, velocity=90, time=0),\n",
       "   Message('note_on', channel=3, note=62, velocity=0, time=60),\n",
       "   Message('note_on', channel=3, note=64, velocity=90, time=0),\n",
       "   Message('note_on', channel=3, note=64, velocity=0, time=120),\n",
       "   Message('note_on', channel=3, note=64, velocity=90, time=0),\n",
       "   Message('note_on', channel=3, note=64, velocity=0, time=60),\n",
       "   Message('note_on', channel=3, note=62, velocity=90, time=0),\n",
       "   Message('note_on', channel=3, note=62, velocity=0, time=60),\n",
       "   Message('note_on', channel=3, note=57, velocity=90, time=0),\n",
       "   Message('note_on', channel=3, note=57, velocity=0, time=60),\n",
       "   Message('note_on', channel=3, note=59, velocity=90, time=60),\n",
       "   Message('note_on', channel=3, note=59, velocity=0, time=60),\n",
       "   Message('note_on', channel=3, note=62, velocity=90, time=0),\n",
       "   Message('note_on', channel=3, note=62, velocity=0, time=60),\n",
       "   Message('note_on', channel=3, note=64, velocity=90, time=0),\n",
       "   Message('note_on', channel=3, note=64, velocity=0, time=120),\n",
       "   Message('note_on', channel=3, note=64, velocity=90, time=0),\n",
       "   Message('note_on', channel=3, note=64, velocity=0, time=60),\n",
       "   Message('note_on', channel=3, note=62, velocity=90, time=0),\n",
       "   Message('note_on', channel=3, note=62, velocity=0, time=60),\n",
       "   Message('note_on', channel=3, note=57, velocity=90, time=0),\n",
       "   Message('note_on', channel=3, note=57, velocity=0, time=120),\n",
       "   Message('note_on', channel=3, note=57, velocity=90, time=0),\n",
       "   Message('note_on', channel=3, note=57, velocity=0, time=60),\n",
       "   Message('note_on', channel=3, note=59, velocity=90, time=0),\n",
       "   Message('note_on', channel=3, note=59, velocity=0, time=60),\n",
       "   Message('note_on', channel=3, note=62, velocity=90, time=0),\n",
       "   Message('note_on', channel=3, note=62, velocity=0, time=120),\n",
       "   Message('note_on', channel=3, note=59, velocity=90, time=0),\n",
       "   Message('note_on', channel=3, note=59, velocity=0, time=60),\n",
       "   Message('note_on', channel=3, note=57, velocity=90, time=0),\n",
       "   Message('note_on', channel=3, note=57, velocity=0, time=180),\n",
       "   Message('note_on', channel=3, note=57, velocity=90, time=0),\n",
       "   Message('note_on', channel=3, note=57, velocity=0, time=60),\n",
       "   Message('note_on', channel=3, note=59, velocity=90, time=0),\n",
       "   Message('note_on', channel=3, note=59, velocity=0, time=60),\n",
       "   Message('note_on', channel=3, note=62, velocity=90, time=0),\n",
       "   Message('note_on', channel=3, note=62, velocity=0, time=120),\n",
       "   Message('note_on', channel=3, note=59, velocity=90, time=0),\n",
       "   Message('note_on', channel=3, note=59, velocity=0, time=60),\n",
       "   Message('note_on', channel=3, note=62, velocity=90, time=0),\n",
       "   Message('note_on', channel=3, note=62, velocity=0, time=60),\n",
       "   Message('note_on', channel=3, note=57, velocity=90, time=0),\n",
       "   Message('note_on', channel=3, note=57, velocity=0, time=60),\n",
       "   Message('note_on', channel=3, note=57, velocity=90, time=60),\n",
       "   Message('note_on', channel=3, note=57, velocity=0, time=60),\n",
       "   Message('note_on', channel=3, note=62, velocity=90, time=0),\n",
       "   Message('note_on', channel=3, note=62, velocity=0, time=60),\n",
       "   Message('note_on', channel=3, note=64, velocity=90, time=0),\n",
       "   Message('note_on', channel=3, note=64, velocity=0, time=120),\n",
       "   Message('note_on', channel=3, note=64, velocity=90, time=0),\n",
       "   Message('note_on', channel=3, note=64, velocity=0, time=60),\n",
       "   Message('note_on', channel=3, note=62, velocity=90, time=0),\n",
       "   Message('note_on', channel=3, note=62, velocity=0, time=60),\n",
       "   Message('note_on', channel=3, note=57, velocity=90, time=0),\n",
       "   Message('note_on', channel=3, note=57, velocity=0, time=60),\n",
       "   Message('note_on', channel=3, note=61, velocity=90, time=4325),\n",
       "   Message('note_on', channel=3, note=61, velocity=0, time=120),\n",
       "   Message('note_on', channel=3, note=54, velocity=73, time=0),\n",
       "   Message('note_on', channel=3, note=54, velocity=0, time=60),\n",
       "   Message('note_on', channel=3, note=64, velocity=90, time=0),\n",
       "   Message('note_on', channel=3, note=64, velocity=0, time=120),\n",
       "   Message('note_on', channel=3, note=54, velocity=60, time=0),\n",
       "   Message('note_on', channel=3, note=54, velocity=0, time=60),\n",
       "   Message('note_on', channel=3, note=64, velocity=90, time=0),\n",
       "   Message('note_on', channel=3, note=64, velocity=0, time=60),\n",
       "   Message('note_on', channel=3, note=54, velocity=70, time=0),\n",
       "   Message('note_on', channel=3, note=54, velocity=0, time=60),\n",
       "   Message('note_on', channel=3, note=62, velocity=90, time=0),\n",
       "   Message('note_on', channel=3, note=62, velocity=0, time=120),\n",
       "   Message('note_on', channel=3, note=59, velocity=60, time=0),\n",
       "   Message('note_on', channel=3, note=59, velocity=0, time=60),\n",
       "   Message('note_on', channel=3, note=64, velocity=90, time=0),\n",
       "   Message('note_on', channel=3, note=64, velocity=0, time=120),\n",
       "   Message('note_on', channel=3, note=62, velocity=90, time=0),\n",
       "   Message('note_on', channel=3, note=62, velocity=0, time=120),\n",
       "   Message('note_on', channel=3, note=61, velocity=90, time=0),\n",
       "   Message('note_on', channel=3, note=61, velocity=0, time=180),\n",
       "   Message('note_on', channel=3, note=54, velocity=50, time=0),\n",
       "   Message('note_on', channel=3, note=54, velocity=0, time=60),\n",
       "   Message('note_on', channel=3, note=64, velocity=90, time=0),\n",
       "   Message('note_on', channel=3, note=64, velocity=0, time=120),\n",
       "   Message('note_on', channel=3, note=54, velocity=50, time=0),\n",
       "   Message('note_on', channel=3, note=54, velocity=0, time=60),\n",
       "   Message('note_on', channel=3, note=61, velocity=90, time=0),\n",
       "   Message('note_on', channel=3, note=61, velocity=0, time=60),\n",
       "   Message('note_on', channel=3, note=54, velocity=50, time=0),\n",
       "   Message('note_on', channel=3, note=54, velocity=0, time=60),\n",
       "   Message('note_on', channel=3, note=62, velocity=90, time=0),\n",
       "   Message('note_on', channel=3, note=62, velocity=0, time=120),\n",
       "   Message('note_on', channel=3, note=54, velocity=50, time=0),\n",
       "   Message('note_on', channel=3, note=54, velocity=0, time=60),\n",
       "   Message('note_on', channel=3, note=62, velocity=90, time=0),\n",
       "   Message('note_on', channel=3, note=62, velocity=0, time=120),\n",
       "   Message('note_on', channel=3, note=54, velocity=50, time=0),\n",
       "   Message('note_on', channel=3, note=54, velocity=0, time=60),\n",
       "   Message('note_on', channel=3, note=59, velocity=90, time=0),\n",
       "   Message('note_on', channel=3, note=59, velocity=0, time=60),\n",
       "   Message('note_on', channel=3, note=54, velocity=50, time=0),\n",
       "   Message('note_on', channel=3, note=54, velocity=0, time=60),\n",
       "   Message('note_on', channel=3, note=57, velocity=90, time=0),\n",
       "   Message('note_on', channel=3, note=57, velocity=0, time=120),\n",
       "   Message('note_on', channel=3, note=55, velocity=90, time=0),\n",
       "   Message('note_on', channel=3, note=55, velocity=0, time=180),\n",
       "   Message('note_on', channel=3, note=50, velocity=40, time=0),\n",
       "   Message('note_on', channel=3, note=50, velocity=0, time=60),\n",
       "   Message('note_on', channel=3, note=55, velocity=90, time=0),\n",
       "   Message('note_on', channel=3, note=55, velocity=0, time=60),\n",
       "   Message('note_on', channel=3, note=50, velocity=40, time=0),\n",
       "   Message('note_on', channel=3, note=50, velocity=0, time=60),\n",
       "   Message('note_on', channel=3, note=54, velocity=90, time=0),\n",
       "   Message('note_on', channel=3, note=54, velocity=0, time=150),\n",
       "   Message('note_on', channel=3, note=59, velocity=90, time=30),\n",
       "   Message('note_on', channel=3, note=59, velocity=0, time=90),\n",
       "   Message('note_on', channel=3, note=59, velocity=90, time=30),\n",
       "   Message('note_on', channel=3, note=59, velocity=0, time=180),\n",
       "   Message('note_on', channel=3, note=62, velocity=90, time=0),\n",
       "   Message('note_on', channel=3, note=62, velocity=0, time=180),\n",
       "   Message('note_on', channel=3, note=54, velocity=40, time=0),\n",
       "   Message('note_on', channel=3, note=54, velocity=0, time=120),\n",
       "   Message('note_on', channel=3, note=55, velocity=55, time=0),\n",
       "   Message('note_on', channel=3, note=55, velocity=0, time=60),\n",
       "   Message('note_on', channel=3, note=62, velocity=90, time=0),\n",
       "   Message('note_on', channel=3, note=62, velocity=0, time=120),\n",
       "   Message('note_on', channel=3, note=62, velocity=90, time=0),\n",
       "   Message('note_on', channel=3, note=62, velocity=0, time=120),\n",
       "   Message('note_on', channel=3, note=57, velocity=40, time=0),\n",
       "   Message('note_on', channel=3, note=57, velocity=0, time=60),\n",
       "   Message('note_on', channel=3, note=62, velocity=90, time=0),\n",
       "   Message('note_on', channel=3, note=62, velocity=0, time=120),\n",
       "   Message('note_on', channel=3, note=57, velocity=40, time=0),\n",
       "   Message('note_on', channel=3, note=57, velocity=0, time=60),\n",
       "   Message('note_on', channel=3, note=62, velocity=90, time=0),\n",
       "   Message('note_on', channel=3, note=62, velocity=0, time=60),\n",
       "   Message('note_on', channel=3, note=57, velocity=40, time=0),\n",
       "   Message('note_on', channel=3, note=57, velocity=0, time=60),\n",
       "   Message('note_on', channel=3, note=61, velocity=90, time=0),\n",
       "   Message('note_on', channel=3, note=61, velocity=0, time=240),\n",
       "   Message('note_on', channel=3, note=57, velocity=90, time=295),\n",
       "   Message('note_on', channel=3, note=57, velocity=0, time=60),\n",
       "   Message('note_on', channel=3, note=62, velocity=90, time=0),\n",
       "   Message('note_on', channel=3, note=62, velocity=0, time=60),\n",
       "   Message('note_on', channel=3, note=64, velocity=90, time=0),\n",
       "   Message('note_on', channel=3, note=64, velocity=0, time=120),\n",
       "   Message('note_on', channel=3, note=64, velocity=90, time=0),\n",
       "   Message('note_on', channel=3, note=64, velocity=0, time=60),\n",
       "   Message('note_on', channel=3, note=62, velocity=90, time=0),\n",
       "   Message('note_on', channel=3, note=62, velocity=0, time=60),\n",
       "   Message('note_on', channel=3, note=57, velocity=90, time=0),\n",
       "   Message('note_on', channel=3, note=57, velocity=0, time=60),\n",
       "   Message('note_on', channel=3, note=59, velocity=90, time=60),\n",
       "   Message('note_on', channel=3, note=59, velocity=0, time=60),\n",
       "   Message('note_on', channel=3, note=62, velocity=90, time=0),\n",
       "   Message('note_on', channel=3, note=62, velocity=0, time=60),\n",
       "   Message('note_on', channel=3, note=64, velocity=90, time=0),\n",
       "   Message('note_on', channel=3, note=64, velocity=0, time=120),\n",
       "   Message('note_on', channel=3, note=64, velocity=90, time=0),\n",
       "   Message('note_on', channel=3, note=64, velocity=0, time=60),\n",
       "   Message('note_on', channel=3, note=62, velocity=90, time=0),\n",
       "   Message('note_on', channel=3, note=62, velocity=0, time=60),\n",
       "   Message('note_on', channel=3, note=57, velocity=90, time=0),\n",
       "   Message('note_on', channel=3, note=57, velocity=0, time=120),\n",
       "   Message('note_on', channel=3, note=57, velocity=90, time=0),\n",
       "   Message('note_on', channel=3, note=57, velocity=0, time=60),\n",
       "   Message('note_on', channel=3, note=59, velocity=90, time=0),\n",
       "   Message('note_on', channel=3, note=59, velocity=0, time=60),\n",
       "   Message('note_on', channel=3, note=62, velocity=90, time=0),\n",
       "   Message('note_on', channel=3, note=62, velocity=0, time=120),\n",
       "   Message('note_on', channel=3, note=59, velocity=90, time=0),\n",
       "   Message('note_on', channel=3, note=59, velocity=0, time=60),\n",
       "   Message('note_on', channel=3, note=57, velocity=90, time=0),\n",
       "   Message('note_on', channel=3, note=57, velocity=0, time=180),\n",
       "   Message('note_on', channel=3, note=57, velocity=90, time=0),\n",
       "   Message('note_on', channel=3, note=57, velocity=0, time=60),\n",
       "   Message('note_on', channel=3, note=59, velocity=90, time=0),\n",
       "   Message('note_on', channel=3, note=59, velocity=0, time=60),\n",
       "   Message('note_on', channel=3, note=62, velocity=90, time=0),\n",
       "   Message('note_on', channel=3, note=62, velocity=0, time=120),\n",
       "   Message('note_on', channel=3, note=59, velocity=90, time=0),\n",
       "   Message('note_on', channel=3, note=59, velocity=0, time=60),\n",
       "   Message('note_on', channel=3, note=62, velocity=90, time=0),\n",
       "   Message('note_on', channel=3, note=62, velocity=0, time=60),\n",
       "   Message('note_on', channel=3, note=57, velocity=90, time=0),\n",
       "   Message('note_on', channel=3, note=57, velocity=0, time=60),\n",
       "   Message('note_on', channel=3, note=57, velocity=90, time=60),\n",
       "   Message('note_on', channel=3, note=57, velocity=0, time=60),\n",
       "   Message('note_on', channel=3, note=62, velocity=90, time=0),\n",
       "   Message('note_on', channel=3, note=62, velocity=0, time=60),\n",
       "   Message('note_on', channel=3, note=64, velocity=90, time=0),\n",
       "   Message('note_on', channel=3, note=64, velocity=0, time=120),\n",
       "   Message('note_on', channel=3, note=64, velocity=90, time=0),\n",
       "   Message('note_on', channel=3, note=64, velocity=0, time=60),\n",
       "   Message('note_on', channel=3, note=62, velocity=90, time=0),\n",
       "   Message('note_on', channel=3, note=62, velocity=0, time=60),\n",
       "   Message('note_on', channel=3, note=57, velocity=90, time=0),\n",
       "   Message('note_on', channel=3, note=57, velocity=0, time=60),\n",
       "   Message('note_on', channel=3, note=59, velocity=90, time=60),\n",
       "   Message('note_on', channel=3, note=59, velocity=0, time=60),\n",
       "   Message('note_on', channel=3, note=62, velocity=90, time=0),\n",
       "   Message('note_on', channel=3, note=62, velocity=0, time=60),\n",
       "   Message('note_on', channel=3, note=64, velocity=90, time=0),\n",
       "   Message('note_on', channel=3, note=64, velocity=0, time=120),\n",
       "   Message('note_on', channel=3, note=64, velocity=90, time=0),\n",
       "   Message('note_on', channel=3, note=64, velocity=0, time=60),\n",
       "   Message('note_on', channel=3, note=62, velocity=90, time=0),\n",
       "   Message('note_on', channel=3, note=62, velocity=0, time=60),\n",
       "   Message('note_on', channel=3, note=57, velocity=90, time=0),\n",
       "   Message('note_on', channel=3, note=57, velocity=0, time=120),\n",
       "   Message('note_on', channel=3, note=57, velocity=90, time=0),\n",
       "   Message('note_on', channel=3, note=57, velocity=0, time=60),\n",
       "   Message('note_on', channel=3, note=59, velocity=90, time=0),\n",
       "   Message('note_on', channel=3, note=59, velocity=0, time=60),\n",
       "   Message('note_on', channel=3, note=62, velocity=90, time=0),\n",
       "   Message('note_on', channel=3, note=62, velocity=0, time=120),\n",
       "   Message('note_on', channel=3, note=59, velocity=90, time=0),\n",
       "   Message('note_on', channel=3, note=59, velocity=0, time=60),\n",
       "   Message('note_on', channel=3, note=57, velocity=90, time=0),\n",
       "   Message('note_on', channel=3, note=57, velocity=0, time=180),\n",
       "   Message('note_on', channel=3, note=57, velocity=90, time=0),\n",
       "   Message('note_on', channel=3, note=57, velocity=0, time=60),\n",
       "   Message('note_on', channel=3, note=59, velocity=90, time=0),\n",
       "   Message('note_on', channel=3, note=59, velocity=0, time=60),\n",
       "   Message('note_on', channel=3, note=62, velocity=90, time=0),\n",
       "   Message('note_on', channel=3, note=62, velocity=0, time=120),\n",
       "   Message('note_on', channel=3, note=59, velocity=90, time=0),\n",
       "   Message('note_on', channel=3, note=59, velocity=0, time=60),\n",
       "   Message('note_on', channel=3, note=62, velocity=90, time=0),\n",
       "   Message('note_on', channel=3, note=62, velocity=0, time=60),\n",
       "   Message('note_on', channel=3, note=57, velocity=90, time=0),\n",
       "   Message('note_on', channel=3, note=57, velocity=0, time=60),\n",
       "   Message('note_on', channel=3, note=57, velocity=90, time=60),\n",
       "   Message('note_on', channel=3, note=57, velocity=0, time=60),\n",
       "   Message('note_on', channel=3, note=62, velocity=90, time=0),\n",
       "   Message('note_on', channel=3, note=62, velocity=0, time=60),\n",
       "   Message('note_on', channel=3, note=64, velocity=90, time=0),\n",
       "   Message('note_on', channel=3, note=64, velocity=0, time=120),\n",
       "   Message('note_on', channel=3, note=64, velocity=90, time=0),\n",
       "   Message('note_on', channel=3, note=64, velocity=0, time=60),\n",
       "   Message('note_on', channel=3, note=62, velocity=90, time=0),\n",
       "   Message('note_on', channel=3, note=62, velocity=0, time=60),\n",
       "   Message('note_on', channel=3, note=57, velocity=90, time=0),\n",
       "   Message('note_on', channel=3, note=57, velocity=0, time=60),\n",
       "   Message('note_on', channel=3, note=59, velocity=90, time=540),\n",
       "   Message('note_on', channel=3, note=59, velocity=0, time=60),\n",
       "   Message('note_on', channel=3, note=64, velocity=90, time=0),\n",
       "   Message('note_on', channel=3, note=64, velocity=0, time=60),\n",
       "   Message('note_on', channel=3, note=66, velocity=90, time=0),\n",
       "   Message('note_on', channel=3, note=66, velocity=0, time=120),\n",
       "   Message('note_on', channel=3, note=66, velocity=90, time=0),\n",
       "   Message('note_on', channel=3, note=66, velocity=0, time=60),\n",
       "   Message('note_on', channel=3, note=64, velocity=90, time=0),\n",
       "   Message('note_on', channel=3, note=64, velocity=0, time=60),\n",
       "   Message('note_on', channel=3, note=59, velocity=90, time=0),\n",
       "   Message('note_on', channel=3, note=59, velocity=0, time=60),\n",
       "   Message('note_on', channel=3, note=61, velocity=90, time=60),\n",
       "   Message('note_on', channel=3, note=61, velocity=0, time=60),\n",
       "   Message('note_on', channel=3, note=64, velocity=90, time=0),\n",
       "   Message('note_on', channel=3, note=64, velocity=0, time=60),\n",
       "   Message('note_on', channel=3, note=66, velocity=90, time=0),\n",
       "   Message('note_on', channel=3, note=66, velocity=0, time=120),\n",
       "   Message('note_on', channel=3, note=66, velocity=90, time=0),\n",
       "   Message('note_on', channel=3, note=66, velocity=0, time=60),\n",
       "   Message('note_on', channel=3, note=64, velocity=90, time=0),\n",
       "   Message('note_on', channel=3, note=64, velocity=0, time=60),\n",
       "   Message('note_on', channel=3, note=59, velocity=90, time=0),\n",
       "   Message('note_on', channel=3, note=59, velocity=0, time=120),\n",
       "   Message('note_on', channel=3, note=59, velocity=90, time=0),\n",
       "   Message('note_on', channel=3, note=59, velocity=0, time=60),\n",
       "   Message('note_on', channel=3, note=61, velocity=90, time=0),\n",
       "   Message('note_on', channel=3, note=61, velocity=0, time=60),\n",
       "   Message('note_on', channel=3, note=64, velocity=90, time=0),\n",
       "   Message('note_on', channel=3, note=64, velocity=0, time=120),\n",
       "   Message('note_on', channel=3, note=61, velocity=90, time=0),\n",
       "   Message('note_on', channel=3, note=61, velocity=0, time=60),\n",
       "   Message('note_on', channel=3, note=59, velocity=90, time=0),\n",
       "   Message('note_on', channel=3, note=59, velocity=0, time=180),\n",
       "   Message('note_on', channel=3, note=59, velocity=90, time=0),\n",
       "   Message('note_on', channel=3, note=59, velocity=0, time=60),\n",
       "   Message('note_on', channel=3, note=61, velocity=90, time=0),\n",
       "   Message('note_on', channel=3, note=61, velocity=0, time=60),\n",
       "   Message('note_on', channel=3, note=64, velocity=90, time=0),\n",
       "   Message('note_on', channel=3, note=64, velocity=0, time=120),\n",
       "   Message('note_on', channel=3, note=61, velocity=90, time=0),\n",
       "   Message('note_on', channel=3, note=61, velocity=0, time=60),\n",
       "   Message('note_on', channel=3, note=64, velocity=90, time=0),\n",
       "   Message('note_on', channel=3, note=64, velocity=0, time=60),\n",
       "   Message('note_on', channel=3, note=59, velocity=90, time=0),\n",
       "   Message('note_on', channel=3, note=59, velocity=0, time=60),\n",
       "   Message('note_on', channel=3, note=63, velocity=90, time=0),\n",
       "   Message('note_on', channel=3, note=63, velocity=0, time=120),\n",
       "   Message('note_on', channel=3, note=56, velocity=73, time=0),\n",
       "   Message('note_on', channel=3, note=56, velocity=0, time=60),\n",
       "   Message('note_on', channel=3, note=66, velocity=90, time=0),\n",
       "   Message('note_on', channel=3, note=66, velocity=0, time=120),\n",
       "   Message('note_on', channel=3, note=56, velocity=60, time=0),\n",
       "   Message('note_on', channel=3, note=56, velocity=0, time=60),\n",
       "   Message('note_on', channel=3, note=66, velocity=90, time=0),\n",
       "   Message('note_on', channel=3, note=66, velocity=0, time=60),\n",
       "   Message('note_on', channel=3, note=56, velocity=70, time=0),\n",
       "   Message('note_on', channel=3, note=56, velocity=0, time=60),\n",
       "   Message('note_on', channel=3, note=64, velocity=90, time=0),\n",
       "   Message('note_on', channel=3, note=64, velocity=0, time=120),\n",
       "   Message('note_on', channel=3, note=61, velocity=60, time=0),\n",
       "   Message('note_on', channel=3, note=61, velocity=0, time=60),\n",
       "   Message('note_on', channel=3, note=66, velocity=90, time=0),\n",
       "   Message('note_on', channel=3, note=66, velocity=0, time=120),\n",
       "   Message('note_on', channel=3, note=64, velocity=90, time=0),\n",
       "   Message('note_on', channel=3, note=64, velocity=0, time=120),\n",
       "   Message('note_on', channel=3, note=63, velocity=90, time=0),\n",
       "   Message('note_on', channel=3, note=63, velocity=0, time=180),\n",
       "   Message('note_on', channel=3, note=56, velocity=50, time=0),\n",
       "   Message('note_on', channel=3, note=56, velocity=0, time=60),\n",
       "   Message('note_on', channel=3, note=66, velocity=90, time=0),\n",
       "   Message('note_on', channel=3, note=66, velocity=0, time=120),\n",
       "   Message('note_on', channel=3, note=56, velocity=50, time=0),\n",
       "   Message('note_on', channel=3, note=56, velocity=0, time=60),\n",
       "   Message('note_on', channel=3, note=63, velocity=90, time=0),\n",
       "   Message('note_on', channel=3, note=63, velocity=0, time=60),\n",
       "   Message('note_on', channel=3, note=56, velocity=50, time=0),\n",
       "   Message('note_on', channel=3, note=56, velocity=0, time=60),\n",
       "   Message('note_on', channel=3, note=64, velocity=90, time=0),\n",
       "   Message('note_on', channel=3, note=64, velocity=0, time=120),\n",
       "   Message('note_on', channel=3, note=56, velocity=50, time=0),\n",
       "   Message('note_on', channel=3, note=56, velocity=0, time=60),\n",
       "   Message('note_on', channel=3, note=64, velocity=90, time=0),\n",
       "   Message('note_on', channel=3, note=64, velocity=0, time=120),\n",
       "   Message('note_on', channel=3, note=56, velocity=50, time=0),\n",
       "   Message('note_on', channel=3, note=56, velocity=0, time=60),\n",
       "   Message('note_on', channel=3, note=61, velocity=90, time=0),\n",
       "   Message('note_on', channel=3, note=61, velocity=0, time=60),\n",
       "   Message('note_on', channel=3, note=56, velocity=50, time=0),\n",
       "   Message('note_on', channel=3, note=56, velocity=0, time=60),\n",
       "   Message('note_on', channel=3, note=59, velocity=90, time=0),\n",
       "   Message('note_on', channel=3, note=59, velocity=0, time=120),\n",
       "   Message('note_on', channel=3, note=57, velocity=90, time=0),\n",
       "   Message('note_on', channel=3, note=57, velocity=0, time=180),\n",
       "   Message('note_on', channel=3, note=52, velocity=40, time=0),\n",
       "   Message('note_on', channel=3, note=52, velocity=0, time=60),\n",
       "   Message('note_on', channel=3, note=57, velocity=90, time=0),\n",
       "   Message('note_on', channel=3, note=57, velocity=0, time=60),\n",
       "   Message('note_on', channel=3, note=52, velocity=40, time=0),\n",
       "   Message('note_on', channel=3, note=52, velocity=0, time=60),\n",
       "   Message('note_on', channel=3, note=56, velocity=90, time=0),\n",
       "   Message('note_on', channel=3, note=56, velocity=0, time=150),\n",
       "   Message('note_on', channel=3, note=61, velocity=90, time=30),\n",
       "   Message('note_on', channel=3, note=61, velocity=0, time=90),\n",
       "   Message('note_on', channel=3, note=61, velocity=90, time=30),\n",
       "   Message('note_on', channel=3, note=61, velocity=0, time=180),\n",
       "   Message('note_on', channel=3, note=64, velocity=90, time=0),\n",
       "   Message('note_on', channel=3, note=64, velocity=0, time=180),\n",
       "   Message('note_on', channel=3, note=56, velocity=40, time=0),\n",
       "   Message('note_on', channel=3, note=56, velocity=0, time=120),\n",
       "   Message('note_on', channel=3, note=57, velocity=55, time=0),\n",
       "   Message('note_on', channel=3, note=57, velocity=0, time=60),\n",
       "   Message('note_on', channel=3, note=64, velocity=90, time=0),\n",
       "   Message('note_on', channel=3, note=64, velocity=0, time=120),\n",
       "   Message('note_on', channel=3, note=64, velocity=90, time=0),\n",
       "   Message('note_on', channel=3, note=64, velocity=0, time=120),\n",
       "   Message('note_on', channel=3, note=59, velocity=40, time=0),\n",
       "   Message('note_on', channel=3, note=59, velocity=0, time=60),\n",
       "   Message('note_on', channel=3, note=64, velocity=90, time=0),\n",
       "   Message('note_on', channel=3, note=64, velocity=0, time=120),\n",
       "   Message('note_on', channel=3, note=59, velocity=40, time=0),\n",
       "   Message('note_on', channel=3, note=59, velocity=0, time=60),\n",
       "   Message('note_on', channel=3, note=64, velocity=90, time=0),\n",
       "   Message('note_on', channel=3, note=64, velocity=0, time=60),\n",
       "   Message('note_on', channel=3, note=59, velocity=40, time=0),\n",
       "   Message('note_on', channel=3, note=59, velocity=0, time=60),\n",
       "   Message('note_on', channel=3, note=63, velocity=90, time=0),\n",
       "   Message('note_on', channel=3, note=63, velocity=0, time=240),\n",
       "   MetaMessage('end_of_track', time=0)]),\n",
       " MidiTrack([\n",
       "   MetaMessage('midi_port', port=0, time=0),\n",
       "   MetaMessage('track_name', name='BASS', time=0),\n",
       "   Message('program_change', channel=4, program=33, time=0),\n",
       "   Message('control_change', channel=4, control=7, value=120, time=0),\n",
       "   Message('control_change', channel=4, control=10, value=64, time=0),\n",
       "   Message('note_on', channel=4, note=38, velocity=90, time=480),\n",
       "   Message('note_on', channel=4, note=38, velocity=0, time=180),\n",
       "   Message('note_on', channel=4, note=38, velocity=90, time=0),\n",
       "   Message('note_on', channel=4, note=38, velocity=0, time=180),\n",
       "   Message('note_on', channel=4, note=38, velocity=90, time=0),\n",
       "   Message('note_on', channel=4, note=38, velocity=0, time=60),\n",
       "   Message('note_on', channel=4, note=33, velocity=90, time=0),\n",
       "   Message('note_on', channel=4, note=33, velocity=0, time=60),\n",
       "   Message('note_on', channel=4, note=35, velocity=90, time=0),\n",
       "   Message('note_on', channel=4, note=35, velocity=0, time=150),\n",
       "   Message('note_on', channel=4, note=35, velocity=90, time=30),\n",
       "   Message('note_on', channel=4, note=35, velocity=0, time=120),\n",
       "   Message('note_on', channel=4, note=35, velocity=90, time=0),\n",
       "   Message('note_on', channel=4, note=35, velocity=0, time=120),\n",
       "   Message('note_on', channel=4, note=30, velocity=90, time=0),\n",
       "   Message('note_on', channel=4, note=30, velocity=0, time=60),\n",
       "   Message('note_on', channel=4, note=31, velocity=90, time=0),\n",
       "   Message('note_on', channel=4, note=31, velocity=0, time=150),\n",
       "   Message('note_on', channel=4, note=31, velocity=90, time=30),\n",
       "   Message('note_on', channel=4, note=31, velocity=0, time=30),\n",
       "   Message('note_on', channel=4, note=31, velocity=90, time=30),\n",
       "   Message('note_on', channel=4, note=31, velocity=0, time=240),\n",
       "   Message('note_on', channel=4, note=31, velocity=90, time=0),\n",
       "   Message('note_on', channel=4, note=31, velocity=0, time=150),\n",
       "   Message('note_on', channel=4, note=31, velocity=90, time=30),\n",
       "   Message('note_on', channel=4, note=31, velocity=0, time=30),\n",
       "   Message('note_on', channel=4, note=31, velocity=90, time=30),\n",
       "   Message('note_on', channel=4, note=31, velocity=0, time=120),\n",
       "   Message('note_on', channel=4, note=33, velocity=90, time=0),\n",
       "   Message('note_on', channel=4, note=33, velocity=0, time=60),\n",
       "   Message('note_on', channel=4, note=35, velocity=90, time=0),\n",
       "   Message('note_on', channel=4, note=35, velocity=0, time=60),\n",
       "   Message('note_on', channel=4, note=38, velocity=90, time=0),\n",
       "   Message('note_on', channel=4, note=38, velocity=90, time=0),\n",
       "   Message('note_on', channel=4, note=38, velocity=0, time=120),\n",
       "   Message('note_on', channel=4, note=38, velocity=0, time=60),\n",
       "   Message('note_on', channel=4, note=38, velocity=90, time=0),\n",
       "   Message('note_on', channel=4, note=38, velocity=0, time=180),\n",
       "   Message('note_on', channel=4, note=38, velocity=90, time=0),\n",
       "   Message('note_on', channel=4, note=38, velocity=0, time=60),\n",
       "   Message('note_on', channel=4, note=33, velocity=90, time=0),\n",
       "   Message('note_on', channel=4, note=33, velocity=0, time=60),\n",
       "   Message('note_on', channel=4, note=35, velocity=90, time=0),\n",
       "   Message('note_on', channel=4, note=35, velocity=0, time=150),\n",
       "   Message('note_on', channel=4, note=35, velocity=90, time=30),\n",
       "   Message('note_on', channel=4, note=35, velocity=0, time=120),\n",
       "   Message('note_on', channel=4, note=35, velocity=90, time=0),\n",
       "   Message('note_on', channel=4, note=35, velocity=0, time=120),\n",
       "   Message('note_on', channel=4, note=30, velocity=90, time=0),\n",
       "   Message('note_on', channel=4, note=30, velocity=0, time=60),\n",
       "   Message('note_on', channel=4, note=31, velocity=90, time=0),\n",
       "   Message('note_on', channel=4, note=31, velocity=0, time=150),\n",
       "   Message('note_on', channel=4, note=31, velocity=90, time=30),\n",
       "   Message('note_on', channel=4, note=31, velocity=0, time=30),\n",
       "   Message('note_on', channel=4, note=31, velocity=90, time=30),\n",
       "   Message('note_on', channel=4, note=31, velocity=0, time=240),\n",
       "   Message('note_on', channel=4, note=31, velocity=90, time=0),\n",
       "   Message('note_on', channel=4, note=31, velocity=0, time=150),\n",
       "   Message('note_on', channel=4, note=31, velocity=90, time=30),\n",
       "   Message('note_on', channel=4, note=31, velocity=0, time=30),\n",
       "   Message('note_on', channel=4, note=31, velocity=90, time=30),\n",
       "   Message('note_on', channel=4, note=31, velocity=0, time=120),\n",
       "   Message('note_on', channel=4, note=33, velocity=90, time=0),\n",
       "   Message('note_on', channel=4, note=33, velocity=0, time=60),\n",
       "   Message('note_on', channel=4, note=35, velocity=90, time=0),\n",
       "   Message('note_on', channel=4, note=35, velocity=0, time=60),\n",
       "   Message('note_on', channel=4, note=38, velocity=90, time=0),\n",
       "   Message('note_on', channel=4, note=38, velocity=90, time=0),\n",
       "   Message('note_on', channel=4, note=38, velocity=0, time=120),\n",
       "   Message('note_on', channel=4, note=38, velocity=0, time=60),\n",
       "   Message('note_on', channel=4, note=38, velocity=90, time=0),\n",
       "   Message('note_on', channel=4, note=38, velocity=0, time=180),\n",
       "   Message('note_on', channel=4, note=38, velocity=90, time=0),\n",
       "   Message('note_on', channel=4, note=38, velocity=0, time=120),\n",
       "   Message('note_on', channel=4, note=35, velocity=90, time=0),\n",
       "   Message('note_on', channel=4, note=35, velocity=0, time=120),\n",
       "   Message('note_on', channel=4, note=35, velocity=90, time=30),\n",
       "   Message('note_on', channel=4, note=35, velocity=0, time=120),\n",
       "   Message('note_on', channel=4, note=30, velocity=90, time=0),\n",
       "   Message('note_on', channel=4, note=30, velocity=0, time=30),\n",
       "   Message('note_on', channel=4, note=35, velocity=90, time=0),\n",
       "   Message('note_on', channel=4, note=35, velocity=0, time=120),\n",
       "   Message('note_on', channel=4, note=30, velocity=90, time=0),\n",
       "   Message('note_on', channel=4, note=30, velocity=0, time=60),\n",
       "   Message('note_on', channel=4, note=31, velocity=90, time=0),\n",
       "   Message('note_on', channel=4, note=31, velocity=0, time=150),\n",
       "   Message('note_on', channel=4, note=26, velocity=90, time=0),\n",
       "   Message('note_on', channel=4, note=26, velocity=0, time=30),\n",
       "   Message('note_on', channel=4, note=31, velocity=90, time=0),\n",
       "   Message('note_on', channel=4, note=31, velocity=0, time=90),\n",
       "   Message('note_on', channel=4, note=26, velocity=90, time=0),\n",
       "   Message('note_on', channel=4, note=26, velocity=0, time=30),\n",
       "   Message('note_on', channel=4, note=31, velocity=90, time=0),\n",
       "   Message('note_on', channel=4, note=31, velocity=0, time=150),\n",
       "   Message('note_on', channel=4, note=31, velocity=90, time=30),\n",
       "   Message('note_on', channel=4, note=31, velocity=0, time=150),\n",
       "   Message('note_on', channel=4, note=31, velocity=90, time=60),\n",
       "   Message('note_on', channel=4, note=31, velocity=0, time=30),\n",
       "   Message('note_on', channel=4, note=33, velocity=90, time=0),\n",
       "   Message('note_on', channel=4, note=33, velocity=0, time=30),\n",
       "   Message('note_on', channel=4, note=33, velocity=90, time=30),\n",
       "   Message('note_on', channel=4, note=33, velocity=0, time=90),\n",
       "   Message('note_on', channel=4, note=33, velocity=90, time=30),\n",
       "   Message('note_on', channel=4, note=33, velocity=0, time=60),\n",
       "   Message('note_on', channel=4, note=38, velocity=90, time=0),\n",
       "   Message('note_on', channel=4, note=38, velocity=0, time=150),\n",
       "   Message('note_on', channel=4, note=38, velocity=90, time=30),\n",
       "   Message('note_on', channel=4, note=38, velocity=0, time=30),\n",
       "   Message('note_on', channel=4, note=38, velocity=90, time=0),\n",
       "   Message('note_on', channel=4, note=38, velocity=0, time=60),\n",
       "   Message('note_on', channel=4, note=38, velocity=90, time=0),\n",
       "   Message('note_on', channel=4, note=38, velocity=0, time=150),\n",
       "   Message('note_on', channel=4, note=38, velocity=90, time=0),\n",
       "   Message('note_on', channel=4, note=38, velocity=0, time=60),\n",
       "   Message('note_on', channel=4, note=35, velocity=90, time=0),\n",
       "   Message('note_on', channel=4, note=35, velocity=0, time=150),\n",
       "   Message('note_on', channel=4, note=35, velocity=90, time=30),\n",
       "   Message('note_on', channel=4, note=35, velocity=0, time=30),\n",
       "   Message('note_on', channel=4, note=35, velocity=90, time=0),\n",
       "   Message('note_on', channel=4, note=35, velocity=0, time=90),\n",
       "   Message('note_on', channel=4, note=30, velocity=90, time=0),\n",
       "   Message('note_on', channel=4, note=30, velocity=0, time=30),\n",
       "   Message('note_on', channel=4, note=35, velocity=90, time=0),\n",
       "   Message('note_on', channel=4, note=35, velocity=0, time=90),\n",
       "   Message('note_on', channel=4, note=30, velocity=90, time=0),\n",
       "   Message('note_on', channel=4, note=30, velocity=0, time=60),\n",
       "   Message('note_on', channel=4, note=31, velocity=90, time=0),\n",
       "   Message('note_on', channel=4, note=31, velocity=0, time=180),\n",
       "   Message('note_on', channel=4, note=31, velocity=90, time=60),\n",
       "   Message('note_on', channel=4, note=31, velocity=0, time=30),\n",
       "   Message('note_on', channel=4, note=26, velocity=90, time=0),\n",
       "   Message('note_on', channel=4, note=26, velocity=0, time=30),\n",
       "   Message('note_on', channel=4, note=31, velocity=90, time=0),\n",
       "   Message('note_on', channel=4, note=31, velocity=0, time=150),\n",
       "   Message('note_on', channel=4, note=31, velocity=90, time=30),\n",
       "   Message('note_on', channel=4, note=31, velocity=0, time=150),\n",
       "   Message('note_on', channel=4, note=31, velocity=90, time=30),\n",
       "   Message('note_on', channel=4, note=31, velocity=0, time=120),\n",
       "   Message('note_on', channel=4, note=33, velocity=90, time=60),\n",
       "   Message('note_on', channel=4, note=33, velocity=0, time=60),\n",
       "   Message('note_on', channel=4, note=31, velocity=90, time=0),\n",
       "   Message('note_on', channel=4, note=31, velocity=0, time=60),\n",
       "   Message('note_on', channel=4, note=30, velocity=90, time=0),\n",
       "   Message('note_on', channel=4, note=28, velocity=90, time=0),\n",
       "   Message('note_on', channel=4, note=28, velocity=0, time=30),\n",
       "   Message('note_on', channel=4, note=30, velocity=0, time=120),\n",
       "   Message('note_on', channel=4, note=30, velocity=90, time=30),\n",
       "   Message('note_on', channel=4, note=30, velocity=0, time=90),\n",
       "   Message('note_on', channel=4, note=30, velocity=90, time=30),\n",
       "   Message('note_on', channel=4, note=30, velocity=0, time=120),\n",
       "   Message('note_on', channel=4, note=33, velocity=90, time=0),\n",
       "   Message('note_on', channel=4, note=33, velocity=0, time=60),\n",
       "   Message('note_on', channel=4, note=35, velocity=90, time=0),\n",
       "   Message('note_on', channel=4, note=35, velocity=0, time=150),\n",
       "   Message('note_on', channel=4, note=35, velocity=90, time=30),\n",
       "   Message('note_on', channel=4, note=35, velocity=0, time=120),\n",
       "   Message('note_on', channel=4, note=38, velocity=90, time=0),\n",
       "   Message('note_on', channel=4, note=38, velocity=0, time=120),\n",
       "   Message('note_on', channel=4, note=35, velocity=90, time=0),\n",
       "   Message('note_on', channel=4, note=35, velocity=0, time=60),\n",
       "   Message('note_on', channel=4, note=30, velocity=90, time=0),\n",
       "   Message('note_on', channel=4, note=30, velocity=0, time=180),\n",
       "   Message('note_on', channel=4, note=30, velocity=90, time=0),\n",
       "   Message('note_on', channel=4, note=30, velocity=0, time=120),\n",
       "   Message('note_on', channel=4, note=30, velocity=90, time=0),\n",
       "   Message('note_on', channel=4, note=30, velocity=0, time=120),\n",
       "   Message('note_on', channel=4, note=33, velocity=90, time=0),\n",
       "   Message('note_on', channel=4, note=33, velocity=0, time=60),\n",
       "   Message('note_on', channel=4, note=35, velocity=90, time=0),\n",
       "   Message('note_on', channel=4, note=35, velocity=0, time=120),\n",
       "   Message('note_on', channel=4, note=30, velocity=90, time=0),\n",
       "   Message('note_on', channel=4, note=30, velocity=0, time=60),\n",
       "   Message('note_on', channel=4, note=35, velocity=90, time=0),\n",
       "   Message('note_on', channel=4, note=35, velocity=0, time=120),\n",
       "   Message('note_on', channel=4, note=30, velocity=90, time=0),\n",
       "   Message('note_on', channel=4, note=30, velocity=0, time=120),\n",
       "   Message('note_on', channel=4, note=35, velocity=90, time=0),\n",
       "   Message('note_on', channel=4, note=35, velocity=0, time=60),\n",
       "   Message('note_on', channel=4, note=31, velocity=90, time=0),\n",
       "   Message('note_on', channel=4, note=31, velocity=0, time=180),\n",
       "   Message('note_on', channel=4, note=31, velocity=90, time=0),\n",
       "   Message('note_on', channel=4, note=31, velocity=0, time=120),\n",
       "   Message('note_on', channel=4, note=26, velocity=90, time=0),\n",
       "   Message('note_on', channel=4, note=26, velocity=0, time=60),\n",
       "   Message('note_on', channel=4, note=31, velocity=90, time=0),\n",
       "   Message('note_on', channel=4, note=31, velocity=0, time=120),\n",
       "   Message('note_on', channel=4, note=30, velocity=90, time=0),\n",
       "   Message('note_on', channel=4, note=30, velocity=0, time=90),\n",
       "   Message('note_on', channel=4, note=30, velocity=90, time=30),\n",
       "   Message('note_on', channel=4, note=30, velocity=0, time=60),\n",
       "   Message('note_on', channel=4, note=35, velocity=90, time=0),\n",
       "   Message('note_on', channel=4, note=35, velocity=0, time=120),\n",
       "   Message('note_on', channel=4, note=35, velocity=90, time=0),\n",
       "   Message('note_on', channel=4, note=35, velocity=0, time=90),\n",
       "   Message('note_on', channel=4, note=35, velocity=90, time=30),\n",
       "   Message('note_on', channel=4, note=35, velocity=0, time=60),\n",
       "   Message('note_on', channel=4, note=28, velocity=90, time=0),\n",
       "   Message('note_on', channel=4, note=28, velocity=0, time=150),\n",
       "   Message('note_on', channel=4, note=28, velocity=90, time=30),\n",
       "   Message('note_on', channel=4, note=28, velocity=0, time=120),\n",
       "   Message('note_on', channel=4, note=30, velocity=90, time=0),\n",
       "   Message('note_on', channel=4, note=30, velocity=0, time=60),\n",
       "   Message('note_on', channel=4, note=31, velocity=90, time=0),\n",
       "   Message('note_on', channel=4, note=31, velocity=0, time=60),\n",
       "   Message('note_on', channel=4, note=35, velocity=90, time=0),\n",
       "   Message('note_on', channel=4, note=35, velocity=0, time=60),\n",
       "   Message('note_on', channel=4, note=33, velocity=90, time=0),\n",
       "   Message('note_on', channel=4, note=33, velocity=0, time=150),\n",
       "   Message('note_on', channel=4, note=33, velocity=90, time=30),\n",
       "   Message('note_on', channel=4, note=33, velocity=0, time=120),\n",
       "   Message('note_on', channel=4, note=33, velocity=90, time=0),\n",
       "   Message('note_on', channel=4, note=33, velocity=0, time=120),\n",
       "   Message('note_on', channel=4, note=28, velocity=90, time=0),\n",
       "   Message('note_on', channel=4, note=28, velocity=0, time=60),\n",
       "   Message('note_on', channel=4, note=35, velocity=90, time=0),\n",
       "   Message('note_on', channel=4, note=33, velocity=90, time=0),\n",
       "   Message('note_on', channel=4, note=35, velocity=0, time=30),\n",
       "   Message('note_on', channel=4, note=33, velocity=100, time=150),\n",
       "   Message('note_on', channel=4, note=33, velocity=0, time=60),\n",
       "   Message('note_on', channel=4, note=33, velocity=0, time=0),\n",
       "   Message('note_on', channel=4, note=33, velocity=100, time=0),\n",
       "   Message('note_on', channel=4, note=33, velocity=0, time=240),\n",
       "   Message('note_on', channel=4, note=38, velocity=90, time=0),\n",
       "   Message('note_on', channel=4, note=38, velocity=0, time=150),\n",
       "   Message('note_on', channel=4, note=38, velocity=90, time=30),\n",
       "   Message('note_on', channel=4, note=38, velocity=0, time=90),\n",
       "   Message('note_on', channel=4, note=38, velocity=90, time=30),\n",
       "   Message('note_on', channel=4, note=38, velocity=0, time=90),\n",
       "   Message('note_on', channel=4, note=38, velocity=90, time=30),\n",
       "   Message('note_on', channel=4, note=38, velocity=0, time=60),\n",
       "   Message('note_on', channel=4, note=35, velocity=90, time=0),\n",
       "   Message('note_on', channel=4, note=35, velocity=0, time=120),\n",
       "   Message('note_on', channel=4, note=30, velocity=90, time=0),\n",
       "   Message('note_on', channel=4, note=30, velocity=0, time=60),\n",
       "   Message('note_on', channel=4, note=35, velocity=90, time=0),\n",
       "   Message('note_on', channel=4, note=35, velocity=0, time=90),\n",
       "   Message('note_on', channel=4, note=35, velocity=90, time=30),\n",
       "   Message('note_on', channel=4, note=35, velocity=0, time=120),\n",
       "   Message('note_on', channel=4, note=30, velocity=90, time=0),\n",
       "   Message('note_on', channel=4, note=30, velocity=0, time=60),\n",
       "   Message('note_on', channel=4, note=31, velocity=90, time=0),\n",
       "   Message('note_on', channel=4, note=31, velocity=0, time=120),\n",
       "   Message('note_on', channel=4, note=31, velocity=90, time=0),\n",
       "   Message('note_on', channel=4, note=31, velocity=0, time=30),\n",
       "   Message('note_on', channel=4, note=31, velocity=90, time=30),\n",
       "   Message('note_on', channel=4, note=31, velocity=0, time=120),\n",
       "   Message('note_on', channel=4, note=26, velocity=90, time=0),\n",
       "   Message('note_on', channel=4, note=26, velocity=0, time=60),\n",
       "   Message('note_on', channel=4, note=31, velocity=90, time=0),\n",
       "   Message('note_on', channel=4, note=31, velocity=0, time=120),\n",
       "   Message('note_on', channel=4, note=31, velocity=90, time=0),\n",
       "   Message('note_on', channel=4, note=31, velocity=0, time=90),\n",
       "   Message('note_on', channel=4, note=31, velocity=90, time=30),\n",
       "   Message('note_on', channel=4, note=31, velocity=0, time=60),\n",
       "   Message('note_on', channel=4, note=33, velocity=90, time=0),\n",
       "   Message('note_on', channel=4, note=33, velocity=0, time=90),\n",
       "   Message('note_on', channel=4, note=33, velocity=90, time=30),\n",
       "   Message('note_on', channel=4, note=33, velocity=0, time=120),\n",
       "   Message('note_on', channel=4, note=35, velocity=90, time=0),\n",
       "   Message('note_on', channel=4, note=35, velocity=0, time=30),\n",
       "   Message('note_on', channel=4, note=37, velocity=90, time=0),\n",
       "   Message('note_on', channel=4, note=37, velocity=0, time=30),\n",
       "   Message('note_on', channel=4, note=38, velocity=90, time=0),\n",
       "   Message('note_on', channel=4, note=38, velocity=0, time=120),\n",
       "   Message('note_on', channel=4, note=33, velocity=90, time=0),\n",
       "   Message('note_on', channel=4, note=33, velocity=0, time=60),\n",
       "   Message('note_on', channel=4, note=38, velocity=90, time=0),\n",
       "   Message('note_on', channel=4, note=38, velocity=0, time=120),\n",
       "   Message('note_on', channel=4, note=38, velocity=90, time=0),\n",
       "   Message('note_on', channel=4, note=38, velocity=0, time=90),\n",
       "   Message('note_on', channel=4, note=38, velocity=90, time=30),\n",
       "   Message('note_on', channel=4, note=38, velocity=0, time=30),\n",
       "   Message('note_on', channel=4, note=37, velocity=90, time=0),\n",
       "   Message('note_on', channel=4, note=37, velocity=0, time=30),\n",
       "   Message('note_on', channel=4, note=35, velocity=90, time=0),\n",
       "   Message('note_on', channel=4, note=35, velocity=0, time=90),\n",
       "   Message('note_on', channel=4, note=35, velocity=90, time=30),\n",
       "   Message('note_on', channel=4, note=35, velocity=0, time=30),\n",
       "   Message('note_on', channel=4, note=30, velocity=90, time=0),\n",
       "   Message('note_on', channel=4, note=30, velocity=0, time=30),\n",
       "   Message('note_on', channel=4, note=35, velocity=90, time=0),\n",
       "   Message('note_on', channel=4, note=35, velocity=0, time=90),\n",
       "   Message('note_on', channel=4, note=35, velocity=90, time=30),\n",
       "   Message('note_on', channel=4, note=35, velocity=0, time=120),\n",
       "   Message('note_on', channel=4, note=30, velocity=90, time=0),\n",
       "   Message('note_on', channel=4, note=30, velocity=0, time=60),\n",
       "   Message('note_on', channel=4, note=31, velocity=90, time=0),\n",
       "   Message('note_on', channel=4, note=31, velocity=0, time=180),\n",
       "   Message('note_on', channel=4, note=31, velocity=90, time=30),\n",
       "   Message('note_on', channel=4, note=31, velocity=0, time=30),\n",
       "   Message('note_on', channel=4, note=31, velocity=90, time=0),\n",
       "   Message('note_on', channel=4, note=31, velocity=0, time=60),\n",
       "   Message('note_on', channel=4, note=31, velocity=90, time=0),\n",
       "   Message('note_on', channel=4, note=31, velocity=0, time=120),\n",
       "   Message('note_on', channel=4, note=31, velocity=90, time=30),\n",
       "   Message('note_on', channel=4, note=31, velocity=0, time=30),\n",
       "   Message('note_on', channel=4, note=31, velocity=90, time=0),\n",
       "   Message('note_on', channel=4, note=31, velocity=0, time=30),\n",
       "   Message('note_on', channel=4, note=31, velocity=90, time=30),\n",
       "   Message('note_on', channel=4, note=31, velocity=0, time=90),\n",
       "   Message('note_on', channel=4, note=33, velocity=90, time=30),\n",
       "   Message('note_on', channel=4, note=33, velocity=0, time=120),\n",
       "   Message('note_on', channel=4, note=33, velocity=90, time=0),\n",
       "   Message('note_on', channel=4, note=33, velocity=0, time=120),\n",
       "   Message('note_on', channel=4, note=33, velocity=90, time=30),\n",
       "   Message('note_on', channel=4, note=33, velocity=0, time=30),\n",
       "   Message('note_on', channel=4, note=38, velocity=90, time=0),\n",
       "   Message('note_on', channel=4, note=38, velocity=0, time=180),\n",
       "   Message('note_on', channel=4, note=38, velocity=90, time=30),\n",
       "   Message('note_on', channel=4, note=38, velocity=0, time=30),\n",
       "   Message('note_on', channel=4, note=38, velocity=90, time=0),\n",
       "   Message('note_on', channel=4, note=38, velocity=0, time=30),\n",
       "   Message('note_on', channel=4, note=38, velocity=90, time=30),\n",
       "   Message('note_on', channel=4, note=38, velocity=0, time=240),\n",
       "   Message('note_on', channel=4, note=33, velocity=90, time=0),\n",
       "   Message('note_on', channel=4, note=33, velocity=0, time=60),\n",
       "   Message('note_on', channel=4, note=33, velocity=90, time=0),\n",
       "   Message('note_on', channel=4, note=33, velocity=0, time=90),\n",
       "   Message('note_on', channel=4, note=33, velocity=90, time=30),\n",
       "   Message('note_on', channel=4, note=33, velocity=0, time=30),\n",
       "   Message('note_on', channel=4, note=33, velocity=90, time=30),\n",
       "   Message('note_on', channel=4, note=33, velocity=0, time=90),\n",
       "   Message('note_on', channel=4, note=38, velocity=90, time=95),\n",
       "   Message('note_on', channel=4, note=38, velocity=90, time=0),\n",
       "   Message('note_on', channel=4, note=38, velocity=0, time=120),\n",
       "   Message('note_on', channel=4, note=38, velocity=0, time=60),\n",
       "   Message('note_on', channel=4, note=38, velocity=90, time=0),\n",
       "   Message('note_on', channel=4, note=38, velocity=0, time=180),\n",
       "   Message('note_on', channel=4, note=38, velocity=90, time=0),\n",
       "   Message('note_on', channel=4, note=38, velocity=0, time=120),\n",
       "   Message('note_on', channel=4, note=35, velocity=90, time=0),\n",
       "   Message('note_on', channel=4, note=35, velocity=0, time=120),\n",
       "   Message('note_on', channel=4, note=35, velocity=90, time=30),\n",
       "   Message('note_on', channel=4, note=35, velocity=0, time=120),\n",
       "   Message('note_on', channel=4, note=30, velocity=90, time=0),\n",
       "   Message('note_on', channel=4, note=30, velocity=0, time=30),\n",
       "   Message('note_on', channel=4, note=35, velocity=90, time=0),\n",
       "   Message('note_on', channel=4, note=35, velocity=0, time=120),\n",
       "   Message('note_on', channel=4, note=30, velocity=90, time=0),\n",
       "   Message('note_on', channel=4, note=30, velocity=0, time=60),\n",
       "   Message('note_on', channel=4, note=31, velocity=90, time=0),\n",
       "   Message('note_on', channel=4, note=31, velocity=0, time=150),\n",
       "   Message('note_on', channel=4, note=26, velocity=90, time=0),\n",
       "   Message('note_on', channel=4, note=26, velocity=0, time=30),\n",
       "   Message('note_on', channel=4, note=31, velocity=90, time=0),\n",
       "   Message('note_on', channel=4, note=31, velocity=0, time=90),\n",
       "   Message('note_on', channel=4, note=26, velocity=90, time=0),\n",
       "   Message('note_on', channel=4, note=26, velocity=0, time=30),\n",
       "   Message('note_on', channel=4, note=31, velocity=90, time=0),\n",
       "   Message('note_on', channel=4, note=31, velocity=0, time=150),\n",
       "   Message('note_on', channel=4, note=31, velocity=90, time=30),\n",
       "   Message('note_on', channel=4, note=31, velocity=0, time=150),\n",
       "   Message('note_on', channel=4, note=31, velocity=90, time=60),\n",
       "   Message('note_on', channel=4, note=31, velocity=0, time=30),\n",
       "   Message('note_on', channel=4, note=33, velocity=90, time=0),\n",
       "   Message('note_on', channel=4, note=33, velocity=0, time=30),\n",
       "   Message('note_on', channel=4, note=33, velocity=90, time=30),\n",
       "   Message('note_on', channel=4, note=33, velocity=0, time=90),\n",
       "   Message('note_on', channel=4, note=33, velocity=90, time=30),\n",
       "   Message('note_on', channel=4, note=33, velocity=0, time=60),\n",
       "   Message('note_on', channel=4, note=38, velocity=90, time=0),\n",
       "   Message('note_on', channel=4, note=38, velocity=0, time=150),\n",
       "   Message('note_on', channel=4, note=38, velocity=90, time=30),\n",
       "   Message('note_on', channel=4, note=38, velocity=0, time=30),\n",
       "   Message('note_on', channel=4, note=38, velocity=90, time=0),\n",
       "   Message('note_on', channel=4, note=38, velocity=0, time=60),\n",
       "   Message('note_on', channel=4, note=38, velocity=90, time=0),\n",
       "   Message('note_on', channel=4, note=38, velocity=0, time=150),\n",
       "   Message('note_on', channel=4, note=38, velocity=90, time=0),\n",
       "   Message('note_on', channel=4, note=38, velocity=0, time=60),\n",
       "   Message('note_on', channel=4, note=35, velocity=90, time=0),\n",
       "   Message('note_on', channel=4, note=35, velocity=0, time=150),\n",
       "   Message('note_on', channel=4, note=35, velocity=90, time=30),\n",
       "   Message('note_on', channel=4, note=35, velocity=0, time=30),\n",
       "   Message('note_on', channel=4, note=35, velocity=90, time=0),\n",
       "   Message('note_on', channel=4, note=35, velocity=0, time=90),\n",
       "   Message('note_on', channel=4, note=30, velocity=90, time=0),\n",
       "   Message('note_on', channel=4, note=30, velocity=0, time=30),\n",
       "   Message('note_on', channel=4, note=35, velocity=90, time=0),\n",
       "   Message('note_on', channel=4, note=35, velocity=0, time=90),\n",
       "   Message('note_on', channel=4, note=30, velocity=90, time=0),\n",
       "   Message('note_on', channel=4, note=30, velocity=0, time=60),\n",
       "   Message('note_on', channel=4, note=31, velocity=90, time=0),\n",
       "   Message('note_on', channel=4, note=31, velocity=0, time=180),\n",
       "   Message('note_on', channel=4, note=31, velocity=90, time=60),\n",
       "   Message('note_on', channel=4, note=31, velocity=0, time=30),\n",
       "   Message('note_on', channel=4, note=26, velocity=90, time=0),\n",
       "   Message('note_on', channel=4, note=26, velocity=0, time=30),\n",
       "   Message('note_on', channel=4, note=31, velocity=90, time=0),\n",
       "   Message('note_on', channel=4, note=31, velocity=0, time=150),\n",
       "   Message('note_on', channel=4, note=31, velocity=90, time=30),\n",
       "   Message('note_on', channel=4, note=31, velocity=0, time=150),\n",
       "   Message('note_on', channel=4, note=31, velocity=90, time=30),\n",
       "   Message('note_on', channel=4, note=31, velocity=0, time=120),\n",
       "   Message('note_on', channel=4, note=33, velocity=90, time=60),\n",
       "   Message('note_on', channel=4, note=33, velocity=0, time=60),\n",
       "   Message('note_on', channel=4, note=31, velocity=90, time=0),\n",
       "   Message('note_on', channel=4, note=31, velocity=0, time=60),\n",
       "   Message('note_on', channel=4, note=30, velocity=90, time=0),\n",
       "   Message('note_on', channel=4, note=28, velocity=90, time=0),\n",
       "   Message('note_on', channel=4, note=28, velocity=0, time=30),\n",
       "   Message('note_on', channel=4, note=30, velocity=0, time=120),\n",
       "   Message('note_on', channel=4, note=30, velocity=90, time=30),\n",
       "   Message('note_on', channel=4, note=30, velocity=0, time=90),\n",
       "   Message('note_on', channel=4, note=30, velocity=90, time=30),\n",
       "   Message('note_on', channel=4, note=30, velocity=0, time=120),\n",
       "   Message('note_on', channel=4, note=33, velocity=90, time=0),\n",
       "   Message('note_on', channel=4, note=33, velocity=0, time=60),\n",
       "   Message('note_on', channel=4, note=35, velocity=90, time=0),\n",
       "   Message('note_on', channel=4, note=35, velocity=0, time=150),\n",
       "   Message('note_on', channel=4, note=35, velocity=90, time=30),\n",
       "   Message('note_on', channel=4, note=35, velocity=0, time=120),\n",
       "   Message('note_on', channel=4, note=38, velocity=90, time=0),\n",
       "   Message('note_on', channel=4, note=38, velocity=0, time=120),\n",
       "   Message('note_on', channel=4, note=35, velocity=90, time=0),\n",
       "   Message('note_on', channel=4, note=35, velocity=0, time=60),\n",
       "   Message('note_on', channel=4, note=30, velocity=90, time=0),\n",
       "   Message('note_on', channel=4, note=30, velocity=0, time=180),\n",
       "   Message('note_on', channel=4, note=30, velocity=90, time=0),\n",
       "   Message('note_on', channel=4, note=30, velocity=0, time=120),\n",
       "   Message('note_on', channel=4, note=30, velocity=90, time=0),\n",
       "   Message('note_on', channel=4, note=30, velocity=0, time=120),\n",
       "   Message('note_on', channel=4, note=33, velocity=90, time=0),\n",
       "   Message('note_on', channel=4, note=33, velocity=0, time=60),\n",
       "   Message('note_on', channel=4, note=35, velocity=90, time=0),\n",
       "   Message('note_on', channel=4, note=35, velocity=0, time=120),\n",
       "   Message('note_on', channel=4, note=30, velocity=90, time=0),\n",
       "   Message('note_on', channel=4, note=30, velocity=0, time=60),\n",
       "   Message('note_on', channel=4, note=35, velocity=90, time=0),\n",
       "   Message('note_on', channel=4, note=35, velocity=0, time=120),\n",
       "   Message('note_on', channel=4, note=30, velocity=90, time=0),\n",
       "   Message('note_on', channel=4, note=30, velocity=0, time=120),\n",
       "   Message('note_on', channel=4, note=35, velocity=90, time=0),\n",
       "   Message('note_on', channel=4, note=35, velocity=0, time=60),\n",
       "   Message('note_on', channel=4, note=31, velocity=90, time=0),\n",
       "   Message('note_on', channel=4, note=31, velocity=0, time=180),\n",
       "   Message('note_on', channel=4, note=31, velocity=90, time=0),\n",
       "   Message('note_on', channel=4, note=31, velocity=0, time=120),\n",
       "   Message('note_on', channel=4, note=26, velocity=90, time=0),\n",
       "   Message('note_on', channel=4, note=26, velocity=0, time=60),\n",
       "   Message('note_on', channel=4, note=31, velocity=90, time=0),\n",
       "   Message('note_on', channel=4, note=31, velocity=0, time=120),\n",
       "   Message('note_on', channel=4, note=30, velocity=90, time=0),\n",
       "   Message('note_on', channel=4, note=30, velocity=0, time=90),\n",
       "   Message('note_on', channel=4, note=30, velocity=90, time=30),\n",
       "   Message('note_on', channel=4, note=30, velocity=0, time=60),\n",
       "   Message('note_on', channel=4, note=35, velocity=90, time=0),\n",
       "   Message('note_on', channel=4, note=35, velocity=0, time=120),\n",
       "   Message('note_on', channel=4, note=35, velocity=90, time=0),\n",
       "   Message('note_on', channel=4, note=35, velocity=0, time=90),\n",
       "   Message('note_on', channel=4, note=35, velocity=90, time=30),\n",
       "   Message('note_on', channel=4, note=35, velocity=0, time=60),\n",
       "   Message('note_on', channel=4, note=28, velocity=90, time=0),\n",
       "   Message('note_on', channel=4, note=28, velocity=0, time=150),\n",
       "   Message('note_on', channel=4, note=28, velocity=90, time=30),\n",
       "   Message('note_on', channel=4, note=28, velocity=0, time=120),\n",
       "   Message('note_on', channel=4, note=30, velocity=90, time=0),\n",
       "   Message('note_on', channel=4, note=30, velocity=0, time=60),\n",
       "   Message('note_on', channel=4, note=31, velocity=90, time=0),\n",
       "   Message('note_on', channel=4, note=31, velocity=0, time=60),\n",
       "   Message('note_on', channel=4, note=35, velocity=90, time=0),\n",
       "   Message('note_on', channel=4, note=35, velocity=0, time=60),\n",
       "   Message('note_on', channel=4, note=33, velocity=90, time=0),\n",
       "   Message('note_on', channel=4, note=33, velocity=0, time=150),\n",
       "   Message('note_on', channel=4, note=33, velocity=90, time=30),\n",
       "   Message('note_on', channel=4, note=33, velocity=0, time=120),\n",
       "   Message('note_on', channel=4, note=33, velocity=90, time=0),\n",
       "   Message('note_on', channel=4, note=33, velocity=0, time=120),\n",
       "   Message('note_on', channel=4, note=28, velocity=90, time=0),\n",
       "   Message('note_on', channel=4, note=35, velocity=90, time=55),\n",
       "   Message('note_on', channel=4, note=33, velocity=90, time=0),\n",
       "   Message('note_on', channel=4, note=28, velocity=0, time=5),\n",
       "   Message('note_on', channel=4, note=35, velocity=0, time=25),\n",
       "   Message('note_on', channel=4, note=33, velocity=100, time=150),\n",
       "   Message('note_on', channel=4, note=33, velocity=0, time=60),\n",
       "   Message('note_on', channel=4, note=33, velocity=0, time=0),\n",
       "   Message('note_on', channel=4, note=33, velocity=100, time=0),\n",
       "   Message('note_on', channel=4, note=33, velocity=0, time=240),\n",
       "   Message('note_on', channel=4, note=38, velocity=90, time=180),\n",
       "   Message('note_on', channel=4, note=38, velocity=0, time=90),\n",
       "   Message('note_on', channel=4, note=38, velocity=90, time=30),\n",
       "   Message('note_on', channel=4, note=38, velocity=0, time=90),\n",
       "   Message('note_on', channel=4, note=38, velocity=90, time=30),\n",
       "   Message('note_on', channel=4, note=38, velocity=0, time=60),\n",
       "   Message('note_on', channel=4, note=35, velocity=90, time=0),\n",
       "   Message('note_on', channel=4, note=35, velocity=0, time=120),\n",
       "   Message('note_on', channel=4, note=30, velocity=90, time=0),\n",
       "   Message('note_on', channel=4, note=30, velocity=0, time=60),\n",
       "   Message('note_on', channel=4, note=35, velocity=90, time=0),\n",
       "   Message('note_on', channel=4, note=35, velocity=0, time=90),\n",
       "   Message('note_on', channel=4, note=35, velocity=90, time=30),\n",
       "   Message('note_on', channel=4, note=35, velocity=0, time=120),\n",
       "   Message('note_on', channel=4, note=30, velocity=90, time=0),\n",
       "   Message('note_on', channel=4, note=30, velocity=0, time=60),\n",
       "   Message('note_on', channel=4, note=31, velocity=90, time=0),\n",
       "   Message('note_on', channel=4, note=31, velocity=0, time=120),\n",
       "   Message('note_on', channel=4, note=31, velocity=90, time=0),\n",
       "   Message('note_on', channel=4, note=31, velocity=0, time=30),\n",
       "   Message('note_on', channel=4, note=31, velocity=90, time=30),\n",
       "   Message('note_on', channel=4, note=31, velocity=0, time=120),\n",
       "   Message('note_on', channel=4, note=26, velocity=90, time=0),\n",
       "   Message('note_on', channel=4, note=26, velocity=0, time=60),\n",
       "   Message('note_on', channel=4, note=31, velocity=90, time=0),\n",
       "   Message('note_on', channel=4, note=31, velocity=0, time=120),\n",
       "   Message('note_on', channel=4, note=31, velocity=90, time=0),\n",
       "   Message('note_on', channel=4, note=31, velocity=0, time=90),\n",
       "   Message('note_on', channel=4, note=31, velocity=90, time=30),\n",
       "   Message('note_on', channel=4, note=31, velocity=0, time=60),\n",
       "   Message('note_on', channel=4, note=33, velocity=90, time=0),\n",
       "   Message('note_on', channel=4, note=33, velocity=0, time=90),\n",
       "   Message('note_on', channel=4, note=33, velocity=90, time=30),\n",
       "   Message('note_on', channel=4, note=33, velocity=0, time=120),\n",
       "   Message('note_on', channel=4, note=35, velocity=90, time=0),\n",
       "   Message('note_on', channel=4, note=35, velocity=0, time=30),\n",
       "   Message('note_on', channel=4, note=37, velocity=90, time=0),\n",
       "   Message('note_on', channel=4, note=37, velocity=0, time=30),\n",
       "   Message('note_on', channel=4, note=38, velocity=90, time=0),\n",
       "   Message('note_on', channel=4, note=38, velocity=0, time=120),\n",
       "   Message('note_on', channel=4, note=33, velocity=90, time=0),\n",
       "   Message('note_on', channel=4, note=33, velocity=0, time=60),\n",
       "   Message('note_on', channel=4, note=38, velocity=90, time=0),\n",
       "   Message('note_on', channel=4, note=38, velocity=0, time=120),\n",
       "   Message('note_on', channel=4, note=38, velocity=90, time=0),\n",
       "   Message('note_on', channel=4, note=38, velocity=0, time=90),\n",
       "   Message('note_on', channel=4, note=38, velocity=90, time=30),\n",
       "   Message('note_on', channel=4, note=38, velocity=0, time=30),\n",
       "   Message('note_on', channel=4, note=37, velocity=90, time=0),\n",
       "   Message('note_on', channel=4, note=37, velocity=0, time=30),\n",
       "   Message('note_on', channel=4, note=35, velocity=90, time=0),\n",
       "   Message('note_on', channel=4, note=35, velocity=0, time=90),\n",
       "   Message('note_on', channel=4, note=35, velocity=90, time=30),\n",
       "   Message('note_on', channel=4, note=35, velocity=0, time=30),\n",
       "   Message('note_on', channel=4, note=30, velocity=90, time=0),\n",
       "   Message('note_on', channel=4, note=30, velocity=0, time=30),\n",
       "   Message('note_on', channel=4, note=35, velocity=90, time=0),\n",
       "   Message('note_on', channel=4, note=35, velocity=0, time=90),\n",
       "   Message('note_on', channel=4, note=35, velocity=90, time=30),\n",
       "   Message('note_on', channel=4, note=35, velocity=0, time=120),\n",
       "   Message('note_on', channel=4, note=30, velocity=90, time=0),\n",
       "   Message('note_on', channel=4, note=30, velocity=0, time=60),\n",
       "   Message('note_on', channel=4, note=31, velocity=90, time=0),\n",
       "   Message('note_on', channel=4, note=31, velocity=0, time=180),\n",
       "   Message('note_on', channel=4, note=31, velocity=90, time=30),\n",
       "   Message('note_on', channel=4, note=31, velocity=0, time=30),\n",
       "   Message('note_on', channel=4, note=31, velocity=90, time=0),\n",
       "   Message('note_on', channel=4, note=31, velocity=0, time=60),\n",
       "   Message('note_on', channel=4, note=31, velocity=90, time=0),\n",
       "   Message('note_on', channel=4, note=31, velocity=0, time=120),\n",
       "   Message('note_on', channel=4, note=31, velocity=90, time=30),\n",
       "   Message('note_on', channel=4, note=31, velocity=0, time=30),\n",
       "   Message('note_on', channel=4, note=31, velocity=90, time=0),\n",
       "   Message('note_on', channel=4, note=31, velocity=0, time=30),\n",
       "   Message('note_on', channel=4, note=31, velocity=90, time=30),\n",
       "   Message('note_on', channel=4, note=31, velocity=0, time=90),\n",
       "   Message('note_on', channel=4, note=33, velocity=90, time=30),\n",
       "   Message('note_on', channel=4, note=33, velocity=0, time=120),\n",
       "   Message('note_on', channel=4, note=33, velocity=90, time=0),\n",
       "   Message('note_on', channel=4, note=33, velocity=0, time=120),\n",
       "   Message('note_on', channel=4, note=33, velocity=90, time=30),\n",
       "   Message('note_on', channel=4, note=33, velocity=0, time=30),\n",
       "   Message('note_on', channel=4, note=38, velocity=90, time=0),\n",
       "   Message('note_on', channel=4, note=38, velocity=0, time=180),\n",
       "   Message('note_on', channel=4, note=38, velocity=90, time=30),\n",
       "   Message('note_on', channel=4, note=38, velocity=0, time=30),\n",
       "   Message('note_on', channel=4, note=38, velocity=90, time=0),\n",
       "   Message('note_on', channel=4, note=38, velocity=0, time=30),\n",
       "   Message('note_on', channel=4, note=38, velocity=90, time=30),\n",
       "   Message('note_on', channel=4, note=38, velocity=0, time=240),\n",
       "   Message('note_on', channel=4, note=33, velocity=90, time=0),\n",
       "   Message('note_on', channel=4, note=33, velocity=0, time=60),\n",
       "   Message('note_on', channel=4, note=33, velocity=90, time=0),\n",
       "   Message('note_on', channel=4, note=33, velocity=0, time=90),\n",
       "   Message('note_on', channel=4, note=33, velocity=90, time=30),\n",
       "   Message('note_on', channel=4, note=33, velocity=0, time=30),\n",
       "   Message('note_on', channel=4, note=33, velocity=90, time=30),\n",
       "   Message('note_on', channel=4, note=33, velocity=0, time=90),\n",
       "   Message('note_on', channel=4, note=40, velocity=90, time=90),\n",
       "   Message('note_on', channel=4, note=40, velocity=90, time=5),\n",
       "   Message('note_on', channel=4, note=40, velocity=0, time=120),\n",
       "   Message('note_on', channel=4, note=40, velocity=0, time=55),\n",
       "   Message('note_on', channel=4, note=40, velocity=90, time=0),\n",
       "   Message('note_on', channel=4, note=40, velocity=0, time=180),\n",
       "   Message('note_on', channel=4, note=40, velocity=90, time=0),\n",
       "   Message('note_on', channel=4, note=40, velocity=0, time=60),\n",
       "   Message('note_on', channel=4, note=35, velocity=90, time=0),\n",
       "   Message('note_on', channel=4, note=35, velocity=0, time=60),\n",
       "   Message('note_on', channel=4, note=37, velocity=90, time=0),\n",
       "   Message('note_on', channel=4, note=37, velocity=0, time=150),\n",
       "   Message('note_on', channel=4, note=37, velocity=90, time=30),\n",
       "   Message('note_on', channel=4, note=37, velocity=0, time=120),\n",
       "   Message('note_on', channel=4, note=37, velocity=90, time=0),\n",
       "   Message('note_on', channel=4, note=37, velocity=0, time=120),\n",
       "   Message('note_on', channel=4, note=32, velocity=90, time=0),\n",
       "   Message('note_on', channel=4, note=32, velocity=0, time=60),\n",
       "   Message('note_on', channel=4, note=33, velocity=90, time=0),\n",
       "   Message('note_on', channel=4, note=33, velocity=0, time=150),\n",
       "   Message('note_on', channel=4, note=33, velocity=90, time=30),\n",
       "   Message('note_on', channel=4, note=33, velocity=0, time=30),\n",
       "   Message('note_on', channel=4, note=33, velocity=90, time=30),\n",
       "   Message('note_on', channel=4, note=33, velocity=0, time=240),\n",
       "   Message('note_on', channel=4, note=33, velocity=90, time=0),\n",
       "   Message('note_on', channel=4, note=33, velocity=0, time=150),\n",
       "   Message('note_on', channel=4, note=33, velocity=90, time=30),\n",
       "   Message('note_on', channel=4, note=33, velocity=0, time=30),\n",
       "   Message('note_on', channel=4, note=33, velocity=90, time=30),\n",
       "   Message('note_on', channel=4, note=33, velocity=0, time=120),\n",
       "   Message('note_on', channel=4, note=35, velocity=90, time=0),\n",
       "   Message('note_on', channel=4, note=35, velocity=90, time=0),\n",
       "   Message('note_on', channel=4, note=35, velocity=0, time=60),\n",
       "   Message('note_on', channel=4, note=35, velocity=0, time=0),\n",
       "   Message('note_on', channel=4, note=33, velocity=90, time=0),\n",
       "   Message('note_on', channel=4, note=33, velocity=90, time=0),\n",
       "   Message('note_on', channel=4, note=33, velocity=0, time=60),\n",
       "   Message('note_on', channel=4, note=33, velocity=0, time=0),\n",
       "   Message('note_on', channel=4, note=32, velocity=90, time=0),\n",
       "   Message('note_on', channel=4, note=30, velocity=90, time=0),\n",
       "   Message('note_on', channel=4, note=32, velocity=90, time=0),\n",
       "   Message('note_on', channel=4, note=30, velocity=0, time=30),\n",
       "   Message('note_on', channel=4, note=32, velocity=0, time=90),\n",
       "   Message('note_on', channel=4, note=32, velocity=0, time=30),\n",
       "   Message('note_on', channel=4, note=32, velocity=90, time=30),\n",
       "   Message('note_on', channel=4, note=32, velocity=0, time=90),\n",
       "   Message('note_on', channel=4, note=32, velocity=90, time=30),\n",
       "   Message('note_on', channel=4, note=32, velocity=0, time=120),\n",
       "   Message('note_on', channel=4, note=35, velocity=90, time=0),\n",
       "   Message('note_on', channel=4, note=35, velocity=0, time=60),\n",
       "   Message('note_on', channel=4, note=37, velocity=90, time=0),\n",
       "   Message('note_on', channel=4, note=37, velocity=0, time=150),\n",
       "   Message('note_on', channel=4, note=37, velocity=90, time=30),\n",
       "   Message('note_on', channel=4, note=37, velocity=0, time=120),\n",
       "   Message('note_on', channel=4, note=40, velocity=90, time=0),\n",
       "   Message('note_on', channel=4, note=40, velocity=0, time=120),\n",
       "   Message('note_on', channel=4, note=37, velocity=90, time=0),\n",
       "   Message('note_on', channel=4, note=37, velocity=0, time=60),\n",
       "   Message('note_on', channel=4, note=32, velocity=90, time=0),\n",
       "   Message('note_on', channel=4, note=32, velocity=0, time=180),\n",
       "   Message('note_on', channel=4, note=32, velocity=90, time=0),\n",
       "   Message('note_on', channel=4, note=32, velocity=0, time=120),\n",
       "   Message('note_on', channel=4, note=32, velocity=90, time=0),\n",
       "   Message('note_on', channel=4, note=32, velocity=0, time=120),\n",
       "   Message('note_on', channel=4, note=35, velocity=90, time=0),\n",
       "   Message('note_on', channel=4, note=35, velocity=0, time=60),\n",
       "   Message('note_on', channel=4, note=37, velocity=90, time=0),\n",
       "   Message('note_on', channel=4, note=37, velocity=0, time=120),\n",
       "   Message('note_on', channel=4, note=32, velocity=90, time=0),\n",
       "   Message('note_on', channel=4, note=32, velocity=0, time=60),\n",
       "   Message('note_on', channel=4, note=37, velocity=90, time=0),\n",
       "   Message('note_on', channel=4, note=37, velocity=0, time=120),\n",
       "   Message('note_on', channel=4, note=32, velocity=90, time=0),\n",
       "   Message('note_on', channel=4, note=32, velocity=0, time=120),\n",
       "   Message('note_on', channel=4, note=37, velocity=90, time=0),\n",
       "   Message('note_on', channel=4, note=37, velocity=0, time=60),\n",
       "   Message('note_on', channel=4, note=33, velocity=90, time=0),\n",
       "   Message('note_on', channel=4, note=33, velocity=0, time=180),\n",
       "   Message('note_on', channel=4, note=33, velocity=90, time=0),\n",
       "   Message('note_on', channel=4, note=33, velocity=0, time=120),\n",
       "   Message('note_on', channel=4, note=28, velocity=90, time=0),\n",
       "   Message('note_on', channel=4, note=28, velocity=0, time=60),\n",
       "   Message('note_on', channel=4, note=33, velocity=90, time=0),\n",
       "   Message('note_on', channel=4, note=33, velocity=0, time=120),\n",
       "   Message('note_on', channel=4, note=32, velocity=90, time=0),\n",
       "   Message('note_on', channel=4, note=32, velocity=0, time=90),\n",
       "   Message('note_on', channel=4, note=32, velocity=90, time=30),\n",
       "   Message('note_on', channel=4, note=32, velocity=0, time=60),\n",
       "   Message('note_on', channel=4, note=37, velocity=90, time=0),\n",
       "   Message('note_on', channel=4, note=37, velocity=0, time=120),\n",
       "   Message('note_on', channel=4, note=37, velocity=90, time=0),\n",
       "   Message('note_on', channel=4, note=37, velocity=0, time=90),\n",
       "   Message('note_on', channel=4, note=37, velocity=90, time=30),\n",
       "   Message('note_on', channel=4, note=37, velocity=0, time=60),\n",
       "   Message('note_on', channel=4, note=30, velocity=90, time=0),\n",
       "   Message('note_on', channel=4, note=30, velocity=0, time=150),\n",
       "   Message('note_on', channel=4, note=30, velocity=90, time=30),\n",
       "   Message('note_on', channel=4, note=30, velocity=0, time=120),\n",
       "   Message('note_on', channel=4, note=32, velocity=90, time=0),\n",
       "   Message('note_on', channel=4, note=32, velocity=0, time=60),\n",
       "   Message('note_on', channel=4, note=33, velocity=90, time=0),\n",
       "   Message('note_on', channel=4, note=33, velocity=0, time=60),\n",
       "   Message('note_on', channel=4, note=37, velocity=90, time=0),\n",
       "   Message('note_on', channel=4, note=37, velocity=0, time=60),\n",
       "   Message('note_on', channel=4, note=35, velocity=90, time=0),\n",
       "   Message('note_on', channel=4, note=35, velocity=0, time=150),\n",
       "   Message('note_on', channel=4, note=35, velocity=90, time=30),\n",
       "   Message('note_on', channel=4, note=35, velocity=0, time=120),\n",
       "   Message('note_on', channel=4, note=35, velocity=90, time=0),\n",
       "   Message('note_on', channel=4, note=35, velocity=0, time=120),\n",
       "   Message('note_on', channel=4, note=30, velocity=90, time=0),\n",
       "   Message('note_on', channel=4, note=35, velocity=90, time=55),\n",
       "   Message('note_on', channel=4, note=37, velocity=90, time=0),\n",
       "   Message('note_on', channel=4, note=30, velocity=0, time=5),\n",
       "   Message('note_on', channel=4, note=37, velocity=0, time=25),\n",
       "   Message('note_on', channel=4, note=35, velocity=0, time=210),\n",
       "   MetaMessage('end_of_track', time=0)]),\n",
       " MidiTrack([\n",
       "   MetaMessage('midi_port', port=0, time=0),\n",
       "   MetaMessage('track_name', name='MELODY', time=0),\n",
       "   Message('program_change', channel=5, program=100, time=0),\n",
       "   Message('control_change', channel=5, control=7, value=120, time=0),\n",
       "   Message('control_change', channel=5, control=10, value=64, time=0),\n",
       "   Message('note_on', channel=5, note=62, velocity=90, time=1440),\n",
       "   Message('note_on', channel=5, note=62, velocity=0, time=540),\n",
       "   Message('note_on', channel=5, note=59, velocity=90, time=0),\n",
       "   Message('note_on', channel=5, note=59, velocity=0, time=60),\n",
       "   Message('note_on', channel=5, note=57, velocity=90, time=0),\n",
       "   Message('note_on', channel=5, note=57, velocity=0, time=90),\n",
       "   Message('note_on', channel=5, note=54, velocity=90, time=0),\n",
       "   Message('note_on', channel=5, note=54, velocity=0, time=30),\n",
       "   Message('note_on', channel=5, note=59, velocity=90, time=0),\n",
       "   Message('note_on', channel=5, note=59, velocity=0, time=60),\n",
       "   Message('note_on', channel=5, note=57, velocity=90, time=0),\n",
       "   Message('note_on', channel=5, note=57, velocity=0, time=90),\n",
       "   Message('note_on', channel=5, note=54, velocity=90, time=0),\n",
       "   Message('note_on', channel=5, note=54, velocity=0, time=30),\n",
       "   Message('note_on', channel=5, note=59, velocity=90, time=0),\n",
       "   Message('note_on', channel=5, note=59, velocity=0, time=15),\n",
       "   Message('note_on', channel=5, note=57, velocity=90, time=45),\n",
       "   Message('note_on', channel=5, note=57, velocity=0, time=210),\n",
       "   Message('note_on', channel=5, note=61, velocity=90, time=30),\n",
       "   Message('note_on', channel=5, note=61, velocity=0, time=60),\n",
       "   Message('note_on', channel=5, note=62, velocity=90, time=0),\n",
       "   Message('note_on', channel=5, note=62, velocity=0, time=60),\n",
       "   Message('note_on', channel=5, note=69, velocity=90, time=0),\n",
       "   Message('note_on', channel=5, note=69, velocity=0, time=60),\n",
       "   Message('note_on', channel=5, note=61, velocity=90, time=0),\n",
       "   Message('note_on', channel=5, note=61, velocity=0, time=120),\n",
       "   Message('note_on', channel=5, note=62, velocity=90, time=0),\n",
       "   Message('note_on', channel=5, note=62, velocity=0, time=165),\n",
       "   Message('note_on', channel=5, note=61, velocity=90, time=15),\n",
       "   Message('note_on', channel=5, note=61, velocity=0, time=60),\n",
       "   Message('note_on', channel=5, note=62, velocity=90, time=0),\n",
       "   Message('note_on', channel=5, note=62, velocity=0, time=60),\n",
       "   Message('note_on', channel=5, note=69, velocity=90, time=0),\n",
       "   Message('note_on', channel=5, note=69, velocity=0, time=60),\n",
       "   Message('note_on', channel=5, note=57, velocity=90, time=0),\n",
       "   Message('note_on', channel=5, note=57, velocity=0, time=120),\n",
       "   Message('note_on', channel=5, note=59, velocity=90, time=0),\n",
       "   Message('note_on', channel=5, note=59, velocity=0, time=210),\n",
       "   Message('note_on', channel=5, note=54, velocity=90, time=330),\n",
       "   Message('note_on', channel=5, note=57, velocity=90, time=30),\n",
       "   Message('note_on', channel=5, note=57, velocity=0, time=30),\n",
       "   Message('note_on', channel=5, note=54, velocity=0, time=0),\n",
       "   Message('note_on', channel=5, note=59, velocity=90, time=0),\n",
       "   Message('note_on', channel=5, note=59, velocity=0, time=30),\n",
       "   Message('note_on', channel=5, note=52, velocity=90, time=0),\n",
       "   Message('note_on', channel=5, note=52, velocity=0, time=90),\n",
       "   Message('note_on', channel=5, note=50, velocity=90, time=0),\n",
       "   Message('note_on', channel=5, note=50, velocity=0, time=240),\n",
       "   Message('note_on', channel=5, note=54, velocity=90, time=60),\n",
       "   Message('note_on', channel=5, note=54, velocity=0, time=60),\n",
       "   Message('note_on', channel=5, note=57, velocity=90, time=0),\n",
       "   Message('note_on', channel=5, note=57, velocity=0, time=30),\n",
       "   Message('note_on', channel=5, note=57, velocity=90, time=0),\n",
       "   Message('note_on', channel=5, note=57, velocity=0, time=90),\n",
       "   Message('note_on', channel=5, note=59, velocity=90, time=0),\n",
       "   Message('note_on', channel=5, note=59, velocity=0, time=90),\n",
       "   Message('note_on', channel=5, note=54, velocity=90, time=30),\n",
       "   Message('note_on', channel=5, note=54, velocity=0, time=30),\n",
       "   Message('note_on', channel=5, note=57, velocity=90, time=0),\n",
       "   Message('note_on', channel=5, note=57, velocity=0, time=30),\n",
       "   Message('note_on', channel=5, note=62, velocity=90, time=0),\n",
       "   Message('note_on', channel=5, note=62, velocity=0, time=60),\n",
       "   Message('note_on', channel=5, note=61, velocity=90, time=0),\n",
       "   Message('note_on', channel=5, note=61, velocity=0, time=30),\n",
       "   Message('note_on', channel=5, note=59, velocity=90, time=0),\n",
       "   Message('note_on', channel=5, note=59, velocity=0, time=60),\n",
       "   Message('note_on', channel=5, note=61, velocity=90, time=0),\n",
       "   Message('note_on', channel=5, note=61, velocity=0, time=30),\n",
       "   Message('note_on', channel=5, note=59, velocity=90, time=0),\n",
       "   Message('note_on', channel=5, note=59, velocity=0, time=60),\n",
       "   Message('note_on', channel=5, note=57, velocity=90, time=0),\n",
       "   Message('note_on', channel=5, note=57, velocity=0, time=150),\n",
       "   Message('note_on', channel=5, note=54, velocity=90, time=30),\n",
       "   Message('note_on', channel=5, note=54, velocity=0, time=30),\n",
       "   Message('note_on', channel=5, note=57, velocity=90, time=0),\n",
       "   Message('note_on', channel=5, note=57, velocity=0, time=30),\n",
       "   Message('note_on', channel=5, note=59, velocity=90, time=0),\n",
       "   Message('note_on', channel=5, note=59, velocity=0, time=60),\n",
       "   Message('note_on', channel=5, note=54, velocity=90, time=0),\n",
       "   Message('note_on', channel=5, note=54, velocity=0, time=30),\n",
       "   Message('note_on', channel=5, note=52, velocity=90, time=0),\n",
       "   Message('note_on', channel=5, note=52, velocity=0, time=60),\n",
       "   Message('note_on', channel=5, note=54, velocity=90, time=0),\n",
       "   Message('note_on', channel=5, note=54, velocity=0, time=30),\n",
       "   Message('note_on', channel=5, note=52, velocity=90, time=0),\n",
       "   Message('note_on', channel=5, note=52, velocity=0, time=60),\n",
       "   Message('note_on', channel=5, note=50, velocity=90, time=0),\n",
       "   Message('note_on', channel=5, note=50, velocity=0, time=150),\n",
       "   Message('note_on', channel=5, note=47, velocity=90, time=30),\n",
       "   Message('note_on', channel=5, note=47, velocity=0, time=30),\n",
       "   Message('note_on', channel=5, note=50, velocity=90, time=0),\n",
       "   Message('note_on', channel=5, note=50, velocity=0, time=30),\n",
       "   Message('note_on', channel=5, note=55, velocity=90, time=0),\n",
       "   Message('note_on', channel=5, note=55, velocity=0, time=60),\n",
       "   Message('note_on', channel=5, note=54, velocity=90, time=0),\n",
       "   Message('note_on', channel=5, note=54, velocity=0, time=60),\n",
       "   Message('note_on', channel=5, note=52, velocity=90, time=0),\n",
       "   Message('note_on', channel=5, note=52, velocity=0, time=60),\n",
       "   Message('note_on', channel=5, note=50, velocity=90, time=0),\n",
       "   Message('note_on', channel=5, note=50, velocity=0, time=60),\n",
       "   Message('note_on', channel=5, note=55, velocity=90, time=0),\n",
       "   Message('note_on', channel=5, note=55, velocity=0, time=60),\n",
       "   Message('note_on', channel=5, note=54, velocity=90, time=0),\n",
       "   Message('note_on', channel=5, note=54, velocity=0, time=60),\n",
       "   Message('note_on', channel=5, note=52, velocity=90, time=0),\n",
       "   Message('note_on', channel=5, note=52, velocity=0, time=30),\n",
       "   Message('note_on', channel=5, note=50, velocity=90, time=0),\n",
       "   Message('note_on', channel=5, note=50, velocity=0, time=30),\n",
       "   Message('note_on', channel=5, note=54, velocity=90, time=0),\n",
       "   Message('note_on', channel=5, note=54, velocity=0, time=150),\n",
       "   Message('note_on', channel=5, note=50, velocity=90, time=0),\n",
       "   Message('note_on', channel=5, note=50, velocity=0, time=30),\n",
       "   Message('note_on', channel=5, note=54, velocity=90, time=0),\n",
       "   Message('note_on', channel=5, note=54, velocity=0, time=30),\n",
       "   Message('note_on', channel=5, note=57, velocity=90, time=30),\n",
       "   Message('note_on', channel=5, note=57, velocity=0, time=30),\n",
       "   Message('note_on', channel=5, note=57, velocity=90, time=0),\n",
       "   Message('note_on', channel=5, note=57, velocity=0, time=90),\n",
       "   Message('note_on', channel=5, note=59, velocity=90, time=0),\n",
       "   Message('note_on', channel=5, note=59, velocity=0, time=120),\n",
       "   Message('note_on', channel=5, note=54, velocity=90, time=0),\n",
       "   Message('note_on', channel=5, note=54, velocity=0, time=30),\n",
       "   Message('note_on', channel=5, note=57, velocity=90, time=0),\n",
       "   Message('note_on', channel=5, note=57, velocity=0, time=30),\n",
       "   Message('note_on', channel=5, note=62, velocity=90, time=0),\n",
       "   Message('note_on', channel=5, note=62, velocity=0, time=60),\n",
       "   Message('note_on', channel=5, note=61, velocity=90, time=0),\n",
       "   Message('note_on', channel=5, note=61, velocity=0, time=30),\n",
       "   Message('note_on', channel=5, note=59, velocity=90, time=0),\n",
       "   Message('note_on', channel=5, note=59, velocity=0, time=60),\n",
       "   Message('note_on', channel=5, note=61, velocity=90, time=0),\n",
       "   Message('note_on', channel=5, note=61, velocity=0, time=30),\n",
       "   Message('note_on', channel=5, note=59, velocity=90, time=0),\n",
       "   Message('note_on', channel=5, note=59, velocity=0, time=60),\n",
       "   Message('note_on', channel=5, note=57, velocity=90, time=0),\n",
       "   Message('note_on', channel=5, note=57, velocity=0, time=150),\n",
       "   Message('note_on', channel=5, note=54, velocity=90, time=30),\n",
       "   Message('note_on', channel=5, note=54, velocity=0, time=30),\n",
       "   Message('note_on', channel=5, note=57, velocity=90, time=0),\n",
       "   Message('note_on', channel=5, note=57, velocity=0, time=30),\n",
       "   Message('note_on', channel=5, note=59, velocity=90, time=0),\n",
       "   Message('note_on', channel=5, note=59, velocity=0, time=60),\n",
       "   Message('note_on', channel=5, note=54, velocity=90, time=0),\n",
       "   Message('note_on', channel=5, note=54, velocity=0, time=30),\n",
       "   Message('note_on', channel=5, note=52, velocity=90, time=0),\n",
       "   Message('note_on', channel=5, note=52, velocity=0, time=60),\n",
       "   Message('note_on', channel=5, note=54, velocity=90, time=0),\n",
       "   Message('note_on', channel=5, note=54, velocity=0, time=30),\n",
       "   Message('note_on', channel=5, note=52, velocity=90, time=0),\n",
       "   Message('note_on', channel=5, note=52, velocity=0, time=60),\n",
       "   Message('note_on', channel=5, note=50, velocity=90, time=0),\n",
       "   Message('note_on', channel=5, note=50, velocity=0, time=150),\n",
       "   Message('note_on', channel=5, note=47, velocity=90, time=30),\n",
       "   Message('note_on', channel=5, note=47, velocity=0, time=30),\n",
       "   Message('note_on', channel=5, note=50, velocity=90, time=0),\n",
       "   Message('note_on', channel=5, note=50, velocity=0, time=30),\n",
       "   Message('note_on', channel=5, note=55, velocity=90, time=0),\n",
       "   Message('note_on', channel=5, note=55, velocity=0, time=60),\n",
       "   Message('note_on', channel=5, note=54, velocity=90, time=0),\n",
       "   Message('note_on', channel=5, note=54, velocity=0, time=60),\n",
       "   Message('note_on', channel=5, note=52, velocity=90, time=0),\n",
       "   Message('note_on', channel=5, note=52, velocity=0, time=60),\n",
       "   Message('note_on', channel=5, note=50, velocity=90, time=0),\n",
       "   Message('note_on', channel=5, note=50, velocity=0, time=60),\n",
       "   Message('note_on', channel=5, note=64, velocity=90, time=0),\n",
       "   Message('note_on', channel=5, note=64, velocity=0, time=90),\n",
       "   Message('note_on', channel=5, note=59, velocity=90, time=30),\n",
       "   Message('note_on', channel=5, note=59, velocity=0, time=30),\n",
       "   Message('note_on', channel=5, note=61, velocity=90, time=30),\n",
       "   Message('note_on', channel=5, note=61, velocity=0, time=240),\n",
       "   Message('note_on', channel=5, note=57, velocity=90, time=240),\n",
       "   Message('note_on', channel=5, note=57, velocity=0, time=30),\n",
       "   Message('note_on', channel=5, note=57, velocity=90, time=0),\n",
       "   Message('note_on', channel=5, note=57, velocity=0, time=30),\n",
       "   Message('note_on', channel=5, note=59, velocity=90, time=0),\n",
       "   Message('note_on', channel=5, note=59, velocity=0, time=30),\n",
       "   Message('note_on', channel=5, note=62, velocity=90, time=0),\n",
       "   Message('note_on', channel=5, note=62, velocity=0, time=30),\n",
       "   Message('note_on', channel=5, note=62, velocity=90, time=0),\n",
       "   Message('note_on', channel=5, note=62, velocity=0, time=90),\n",
       "   Message('note_on', channel=5, note=59, velocity=90, time=0),\n",
       "   Message('note_on', channel=5, note=59, velocity=0, time=15),\n",
       "   Message('note_on', channel=5, note=64, velocity=90, time=15),\n",
       "   Message('note_on', channel=5, note=64, velocity=0, time=105),\n",
       "   Message('note_on', channel=5, note=66, velocity=90, time=15),\n",
       "   Message('note_on', channel=5, note=66, velocity=0, time=105),\n",
       "   Message('note_on', channel=5, note=61, velocity=90, time=15),\n",
       "   Message('note_on', channel=5, note=61, velocity=0, time=285),\n",
       "   Message('note_on', channel=5, note=57, velocity=90, time=195),\n",
       "   Message('note_on', channel=5, note=57, velocity=0, time=30),\n",
       "   Message('note_on', channel=5, note=57, velocity=90, time=0),\n",
       "   Message('note_on', channel=5, note=57, velocity=0, time=30),\n",
       "   Message('note_on', channel=5, note=59, velocity=90, time=0),\n",
       "   Message('note_on', channel=5, note=59, velocity=0, time=60),\n",
       "   Message('note_on', channel=5, note=62, velocity=90, time=0),\n",
       "   Message('note_on', channel=5, note=62, velocity=0, time=30),\n",
       "   Message('note_on', channel=5, note=62, velocity=90, time=0),\n",
       "   Message('note_on', channel=5, note=62, velocity=0, time=60),\n",
       "   Message('note_on', channel=5, note=59, velocity=90, time=0),\n",
       "   Message('note_on', channel=5, note=59, velocity=0, time=30),\n",
       "   Message('note_on', channel=5, note=64, velocity=90, time=0),\n",
       "   Message('note_on', channel=5, note=64, velocity=0, time=120),\n",
       "   Message('note_on', channel=5, note=66, velocity=90, time=0),\n",
       "   Message('note_on', channel=5, note=66, velocity=0, time=120),\n",
       "   Message('note_on', channel=5, note=59, velocity=90, time=0),\n",
       "   Message('note_on', channel=5, note=59, velocity=0, time=360),\n",
       "   Message('note_on', channel=5, note=59, velocity=90, time=60),\n",
       "   Message('note_on', channel=5, note=59, velocity=0, time=60),\n",
       "   Message('note_on', channel=5, note=57, velocity=90, time=0),\n",
       "   Message('note_on', channel=5, note=57, velocity=0, time=150),\n",
       "   Message('note_on', channel=5, note=64, velocity=90, time=30),\n",
       "   Message('note_on', channel=5, note=64, velocity=0, time=60),\n",
       "   Message('note_on', channel=5, note=62, velocity=90, time=0),\n",
       "   Message('note_on', channel=5, note=62, velocity=0, time=120),\n",
       "   Message('note_on', channel=5, note=57, velocity=90, time=60),\n",
       "   Message('note_on', channel=5, note=57, velocity=0, time=60),\n",
       "   Message('note_on', channel=5, note=55, velocity=90, time=0),\n",
       "   Message('note_on', channel=5, note=55, velocity=0, time=360),\n",
       "   Message('note_on', channel=5, note=59, velocity=90, time=60),\n",
       "   Message('note_on', channel=5, note=59, velocity=0, time=60),\n",
       "   Message('note_on', channel=5, note=62, velocity=90, time=0),\n",
       "   Message('note_on', channel=5, note=62, velocity=0, time=60),\n",
       "   Message('note_on', channel=5, note=67, velocity=90, time=0),\n",
       "   Message('note_on', channel=5, note=67, velocity=0, time=60),\n",
       "   Message('note_on', channel=5, note=66, velocity=90, time=0),\n",
       "   Message('note_on', channel=5, note=66, velocity=0, time=60),\n",
       "   Message('note_on', channel=5, note=62, velocity=90, time=0),\n",
       "   Message('note_on', channel=5, note=62, velocity=0, time=60),\n",
       "   Message('note_on', channel=5, note=64, velocity=90, time=0),\n",
       "   Message('note_on', channel=5, note=64, velocity=0, time=270),\n",
       "   Message('note_on', channel=5, note=66, velocity=90, time=330),\n",
       "   Message('note_on', channel=5, note=66, velocity=0, time=60),\n",
       "   Message('note_on', channel=5, note=64, velocity=90, time=0),\n",
       "   Message('note_on', channel=5, note=64, velocity=0, time=60),\n",
       "   Message('note_on', channel=5, note=64, velocity=90, time=0),\n",
       "   Message('note_on', channel=5, note=64, velocity=0, time=60),\n",
       "   Message('note_on', channel=5, note=62, velocity=90, time=0),\n",
       "   Message('note_on', channel=5, note=62, velocity=0, time=240),\n",
       "   Message('note_on', channel=5, note=61, velocity=90, time=0),\n",
       "   Message('note_on', channel=5, note=61, velocity=0, time=60),\n",
       "   Message('note_on', channel=5, note=62, velocity=90, time=0),\n",
       "   Message('note_on', channel=5, note=62, velocity=0, time=60),\n",
       "   Message('note_on', channel=5, note=69, velocity=90, time=0),\n",
       "   Message('note_on', channel=5, note=69, velocity=0, time=60),\n",
       "   Message('note_on', channel=5, note=61, velocity=90, time=0),\n",
       "   Message('note_on', channel=5, note=61, velocity=0, time=120),\n",
       "   Message('note_on', channel=5, note=62, velocity=90, time=0),\n",
       "   Message('note_on', channel=5, note=62, velocity=0, time=120),\n",
       "   Message('note_on', channel=5, note=61, velocity=90, time=60),\n",
       "   Message('note_on', channel=5, note=61, velocity=0, time=60),\n",
       "   Message('note_on', channel=5, note=62, velocity=90, time=0),\n",
       "   Message('note_on', channel=5, note=62, velocity=0, time=60),\n",
       "   Message('note_on', channel=5, note=69, velocity=90, time=0),\n",
       "   Message('note_on', channel=5, note=69, velocity=0, time=60),\n",
       "   Message('note_on', channel=5, note=57, velocity=90, time=0),\n",
       "   Message('note_on', channel=5, note=57, velocity=0, time=120),\n",
       "   Message('note_on', channel=5, note=59, velocity=90, time=0),\n",
       "   Message('note_on', channel=5, note=59, velocity=0, time=120),\n",
       "   Message('note_on', channel=5, note=59, velocity=90, time=120),\n",
       "   Message('note_on', channel=5, note=59, velocity=0, time=60),\n",
       "   Message('note_on', channel=5, note=62, velocity=90, time=0),\n",
       "   Message('note_on', channel=5, note=62, velocity=0, time=60),\n",
       "   Message('note_on', channel=5, note=67, velocity=90, time=0),\n",
       "   Message('note_on', channel=5, note=67, velocity=0, time=120),\n",
       "   Message('note_on', channel=5, note=66, velocity=90, time=0),\n",
       "   Message('note_on', channel=5, note=66, velocity=0, time=60),\n",
       "   Message('note_on', channel=5, note=62, velocity=90, time=0),\n",
       "   Message('note_on', channel=5, note=62, velocity=0, time=60),\n",
       "   Message('note_on', channel=5, note=67, velocity=90, time=0),\n",
       "   Message('note_on', channel=5, note=67, velocity=0, time=120),\n",
       "   Message('note_on', channel=5, note=66, velocity=90, time=0),\n",
       "   Message('note_on', channel=5, note=66, velocity=0, time=60),\n",
       "   Message('note_on', channel=5, note=64, velocity=90, time=0),\n",
       "   Message('note_on', channel=5, note=64, velocity=0, time=60),\n",
       "   Message('note_on', channel=5, note=64, velocity=90, time=0),\n",
       "   Message('note_on', channel=5, note=64, velocity=0, time=60),\n",
       "   Message('note_on', channel=5, note=62, velocity=90, time=0),\n",
       "   Message('note_on', channel=5, note=62, velocity=0, time=180),\n",
       "   Message('note_on', channel=5, note=57, velocity=90, time=0),\n",
       "   Message('note_on', channel=5, note=57, velocity=0, time=60),\n",
       "   Message('note_on', channel=5, note=61, velocity=90, time=0),\n",
       "   Message('note_on', channel=5, note=61, velocity=0, time=60),\n",
       "   Message('note_on', channel=5, note=62, velocity=90, time=0),\n",
       "   Message('note_on', channel=5, note=62, velocity=0, time=60),\n",
       "   Message('note_on', channel=5, note=69, velocity=90, time=0),\n",
       "   Message('note_on', channel=5, note=69, velocity=0, time=60),\n",
       "   Message('note_on', channel=5, note=61, velocity=90, time=0),\n",
       "   Message('note_on', channel=5, note=61, velocity=0, time=120),\n",
       "   Message('note_on', channel=5, note=62, velocity=90, time=0),\n",
       "   Message('note_on', channel=5, note=62, velocity=0, time=180),\n",
       "   Message('note_on', channel=5, note=61, velocity=90, time=0),\n",
       "   Message('note_on', channel=5, note=61, velocity=0, time=60),\n",
       "   Message('note_on', channel=5, note=62, velocity=90, time=0),\n",
       "   Message('note_on', channel=5, note=62, velocity=0, time=60),\n",
       "   Message('note_on', channel=5, note=69, velocity=90, time=0),\n",
       "   Message('note_on', channel=5, note=69, velocity=0, time=60),\n",
       "   Message('note_on', channel=5, note=57, velocity=90, time=0),\n",
       "   Message('note_on', channel=5, note=57, velocity=0, time=120),\n",
       "   Message('note_on', channel=5, note=59, velocity=90, time=0),\n",
       "   Message('note_on', channel=5, note=59, velocity=0, time=300),\n",
       "   Message('note_on', channel=5, note=62, velocity=90, time=0),\n",
       "   Message('note_on', channel=5, note=62, velocity=0, time=60),\n",
       "   Message('note_on', channel=5, note=67, velocity=90, time=0),\n",
       "   Message('note_on', channel=5, note=67, velocity=0, time=120),\n",
       "   Message('note_on', channel=5, note=66, velocity=90, time=0),\n",
       "   Message('note_on', channel=5, note=66, velocity=0, time=60),\n",
       "   Message('note_on', channel=5, note=62, velocity=90, time=0),\n",
       "   Message('note_on', channel=5, note=62, velocity=0, time=60),\n",
       "   Message('note_on', channel=5, note=64, velocity=90, time=0),\n",
       "   Message('note_on', channel=5, note=64, velocity=0, time=120),\n",
       "   Message('note_on', channel=5, note=66, velocity=90, time=0),\n",
       "   Message('note_on', channel=5, note=64, velocity=90, time=90),\n",
       "   Message('note_on', channel=5, note=64, velocity=0, time=30),\n",
       "   Message('note_on', channel=5, note=66, velocity=0, time=0),\n",
       "   Message('note_on', channel=5, note=64, velocity=90, time=0),\n",
       "   Message('note_on', channel=5, note=64, velocity=0, time=60),\n",
       "   Message('note_on', channel=5, note=62, velocity=90, time=0),\n",
       "   Message('note_on', channel=5, note=62, velocity=0, time=240),\n",
       "   Message('note_on', channel=5, note=54, velocity=90, time=845),\n",
       "   Message('note_on', channel=5, note=54, velocity=0, time=60),\n",
       "   Message('note_on', channel=5, note=57, velocity=90, time=0),\n",
       "   Message('note_on', channel=5, note=57, velocity=0, time=30),\n",
       "   Message('note_on', channel=5, note=57, velocity=90, time=0),\n",
       "   Message('note_on', channel=5, note=57, velocity=0, time=90),\n",
       "   Message('note_on', channel=5, note=59, velocity=90, time=0),\n",
       "   Message('note_on', channel=5, note=59, velocity=0, time=90),\n",
       "   Message('note_on', channel=5, note=54, velocity=90, time=30),\n",
       "   Message('note_on', channel=5, note=54, velocity=0, time=30),\n",
       "   Message('note_on', channel=5, note=57, velocity=90, time=0),\n",
       "   Message('note_on', channel=5, note=57, velocity=0, time=30),\n",
       "   Message('note_on', channel=5, note=62, velocity=90, time=0),\n",
       "   Message('note_on', channel=5, note=62, velocity=0, time=60),\n",
       "   Message('note_on', channel=5, note=61, velocity=90, time=0),\n",
       "   Message('note_on', channel=5, note=61, velocity=0, time=30),\n",
       "   Message('note_on', channel=5, note=59, velocity=90, time=0),\n",
       "   Message('note_on', channel=5, note=59, velocity=0, time=60),\n",
       "   Message('note_on', channel=5, note=61, velocity=90, time=0),\n",
       "   Message('note_on', channel=5, note=61, velocity=0, time=30),\n",
       "   Message('note_on', channel=5, note=59, velocity=90, time=0),\n",
       "   Message('note_on', channel=5, note=59, velocity=0, time=60),\n",
       "   Message('note_on', channel=5, note=57, velocity=90, time=0),\n",
       "   Message('note_on', channel=5, note=57, velocity=0, time=150),\n",
       "   Message('note_on', channel=5, note=54, velocity=90, time=30),\n",
       "   Message('note_on', channel=5, note=54, velocity=0, time=30),\n",
       "   Message('note_on', channel=5, note=57, velocity=90, time=0),\n",
       "   Message('note_on', channel=5, note=57, velocity=0, time=30),\n",
       "   Message('note_on', channel=5, note=59, velocity=90, time=0),\n",
       "   Message('note_on', channel=5, note=59, velocity=0, time=60),\n",
       "   Message('note_on', channel=5, note=54, velocity=90, time=0),\n",
       "   Message('note_on', channel=5, note=54, velocity=0, time=30),\n",
       "   Message('note_on', channel=5, note=52, velocity=90, time=0),\n",
       "   Message('note_on', channel=5, note=52, velocity=0, time=60),\n",
       "   Message('note_on', channel=5, note=54, velocity=90, time=0),\n",
       "   Message('note_on', channel=5, note=54, velocity=0, time=30),\n",
       "   Message('note_on', channel=5, note=52, velocity=90, time=0),\n",
       "   Message('note_on', channel=5, note=52, velocity=0, time=60),\n",
       "   Message('note_on', channel=5, note=50, velocity=90, time=0),\n",
       "   Message('note_on', channel=5, note=50, velocity=0, time=150),\n",
       "   Message('note_on', channel=5, note=47, velocity=90, time=30),\n",
       "   Message('note_on', channel=5, note=47, velocity=0, time=30),\n",
       "   Message('note_on', channel=5, note=50, velocity=90, time=0),\n",
       "   Message('note_on', channel=5, note=50, velocity=0, time=30),\n",
       "   Message('note_on', channel=5, note=55, velocity=90, time=0),\n",
       "   Message('note_on', channel=5, note=55, velocity=0, time=60),\n",
       "   Message('note_on', channel=5, note=54, velocity=90, time=0),\n",
       "   Message('note_on', channel=5, note=54, velocity=0, time=60),\n",
       "   Message('note_on', channel=5, note=52, velocity=90, time=0),\n",
       "   Message('note_on', channel=5, note=52, velocity=0, time=60),\n",
       "   Message('note_on', channel=5, note=50, velocity=90, time=0),\n",
       "   Message('note_on', channel=5, note=50, velocity=0, time=60),\n",
       "   Message('note_on', channel=5, note=55, velocity=90, time=0),\n",
       "   Message('note_on', channel=5, note=55, velocity=0, time=60),\n",
       "   Message('note_on', channel=5, note=54, velocity=90, time=0),\n",
       "   Message('note_on', channel=5, note=54, velocity=0, time=60),\n",
       "   Message('note_on', channel=5, note=52, velocity=90, time=0),\n",
       "   Message('note_on', channel=5, note=52, velocity=0, time=30),\n",
       "   Message('note_on', channel=5, note=50, velocity=90, time=0),\n",
       "   Message('note_on', channel=5, note=50, velocity=0, time=30),\n",
       "   Message('note_on', channel=5, note=54, velocity=90, time=0),\n",
       "   Message('note_on', channel=5, note=54, velocity=0, time=150),\n",
       "   Message('note_on', channel=5, note=50, velocity=90, time=0),\n",
       "   Message('note_on', channel=5, note=50, velocity=0, time=30),\n",
       "   Message('note_on', channel=5, note=54, velocity=90, time=0),\n",
       "   Message('note_on', channel=5, note=54, velocity=0, time=30),\n",
       "   Message('note_on', channel=5, note=57, velocity=90, time=30),\n",
       "   Message('note_on', channel=5, note=57, velocity=0, time=30),\n",
       "   Message('note_on', channel=5, note=57, velocity=90, time=0),\n",
       "   Message('note_on', channel=5, note=57, velocity=0, time=90),\n",
       "   Message('note_on', channel=5, note=59, velocity=90, time=0),\n",
       "   Message('note_on', channel=5, note=59, velocity=0, time=120),\n",
       "   Message('note_on', channel=5, note=54, velocity=90, time=0),\n",
       "   Message('note_on', channel=5, note=54, velocity=0, time=30),\n",
       "   Message('note_on', channel=5, note=57, velocity=90, time=0),\n",
       "   Message('note_on', channel=5, note=57, velocity=0, time=30),\n",
       "   Message('note_on', channel=5, note=62, velocity=90, time=0),\n",
       "   Message('note_on', channel=5, note=62, velocity=0, time=60),\n",
       "   Message('note_on', channel=5, note=61, velocity=90, time=0),\n",
       "   Message('note_on', channel=5, note=61, velocity=0, time=30),\n",
       "   Message('note_on', channel=5, note=59, velocity=90, time=0),\n",
       "   Message('note_on', channel=5, note=59, velocity=0, time=60),\n",
       "   Message('note_on', channel=5, note=61, velocity=90, time=0),\n",
       "   Message('note_on', channel=5, note=61, velocity=0, time=30),\n",
       "   Message('note_on', channel=5, note=59, velocity=90, time=0),\n",
       "   Message('note_on', channel=5, note=59, velocity=0, time=60),\n",
       "   Message('note_on', channel=5, note=57, velocity=90, time=0),\n",
       "   Message('note_on', channel=5, note=57, velocity=0, time=150),\n",
       "   Message('note_on', channel=5, note=54, velocity=90, time=30),\n",
       "   Message('note_on', channel=5, note=54, velocity=0, time=30),\n",
       "   Message('note_on', channel=5, note=57, velocity=90, time=0),\n",
       "   Message('note_on', channel=5, note=57, velocity=0, time=30),\n",
       "   Message('note_on', channel=5, note=59, velocity=90, time=0),\n",
       "   Message('note_on', channel=5, note=59, velocity=0, time=60),\n",
       "   Message('note_on', channel=5, note=54, velocity=90, time=0),\n",
       "   Message('note_on', channel=5, note=54, velocity=0, time=30),\n",
       "   Message('note_on', channel=5, note=52, velocity=90, time=0),\n",
       "   Message('note_on', channel=5, note=52, velocity=0, time=60),\n",
       "   Message('note_on', channel=5, note=54, velocity=90, time=0),\n",
       "   Message('note_on', channel=5, note=54, velocity=0, time=30),\n",
       "   Message('note_on', channel=5, note=52, velocity=90, time=0),\n",
       "   Message('note_on', channel=5, note=52, velocity=0, time=60),\n",
       "   Message('note_on', channel=5, note=50, velocity=90, time=0),\n",
       "   Message('note_on', channel=5, note=50, velocity=0, time=150),\n",
       "   Message('note_on', channel=5, note=47, velocity=90, time=30),\n",
       "   Message('note_on', channel=5, note=47, velocity=0, time=30),\n",
       "   Message('note_on', channel=5, note=50, velocity=90, time=0),\n",
       "   Message('note_on', channel=5, note=50, velocity=0, time=30),\n",
       "   Message('note_on', channel=5, note=55, velocity=90, time=0),\n",
       "   Message('note_on', channel=5, note=55, velocity=0, time=60),\n",
       "   Message('note_on', channel=5, note=54, velocity=90, time=0),\n",
       "   Message('note_on', channel=5, note=54, velocity=0, time=60),\n",
       "   Message('note_on', channel=5, note=52, velocity=90, time=0),\n",
       "   Message('note_on', channel=5, note=52, velocity=0, time=60),\n",
       "   Message('note_on', channel=5, note=50, velocity=90, time=0),\n",
       "   Message('note_on', channel=5, note=50, velocity=0, time=60),\n",
       "   Message('note_on', channel=5, note=64, velocity=90, time=0),\n",
       "   Message('note_on', channel=5, note=64, velocity=0, time=90),\n",
       "   Message('note_on', channel=5, note=59, velocity=90, time=30),\n",
       "   Message('note_on', channel=5, note=59, velocity=0, time=30),\n",
       "   Message('note_on', channel=5, note=61, velocity=90, time=30),\n",
       "   Message('note_on', channel=5, note=61, velocity=0, time=240),\n",
       "   Message('note_on', channel=5, note=57, velocity=90, time=240),\n",
       "   Message('note_on', channel=5, note=57, velocity=0, time=30),\n",
       "   Message('note_on', channel=5, note=57, velocity=90, time=0),\n",
       "   Message('note_on', channel=5, note=57, velocity=0, time=30),\n",
       "   Message('note_on', channel=5, note=59, velocity=90, time=0),\n",
       "   Message('note_on', channel=5, note=59, velocity=0, time=30),\n",
       "   Message('note_on', channel=5, note=62, velocity=90, time=0),\n",
       "   Message('note_on', channel=5, note=62, velocity=0, time=30),\n",
       "   Message('note_on', channel=5, note=62, velocity=90, time=0),\n",
       "   Message('note_on', channel=5, note=62, velocity=0, time=90),\n",
       "   Message('note_on', channel=5, note=59, velocity=90, time=0),\n",
       "   Message('note_on', channel=5, note=59, velocity=0, time=15),\n",
       "   Message('note_on', channel=5, note=64, velocity=90, time=15),\n",
       "   Message('note_on', channel=5, note=64, velocity=0, time=105),\n",
       "   Message('note_on', channel=5, note=66, velocity=90, time=15),\n",
       "   Message('note_on', channel=5, note=66, velocity=0, time=105),\n",
       "   Message('note_on', channel=5, note=61, velocity=90, time=15),\n",
       "   Message('note_on', channel=5, note=61, velocity=0, time=285),\n",
       "   Message('note_on', channel=5, note=57, velocity=90, time=195),\n",
       "   Message('note_on', channel=5, note=57, velocity=0, time=30),\n",
       "   Message('note_on', channel=5, note=57, velocity=90, time=0),\n",
       "   Message('note_on', channel=5, note=57, velocity=0, time=30),\n",
       "   Message('note_on', channel=5, note=59, velocity=90, time=0),\n",
       "   Message('note_on', channel=5, note=59, velocity=0, time=60),\n",
       "   Message('note_on', channel=5, note=62, velocity=90, time=0),\n",
       "   Message('note_on', channel=5, note=62, velocity=0, time=30),\n",
       "   Message('note_on', channel=5, note=62, velocity=90, time=0),\n",
       "   Message('note_on', channel=5, note=62, velocity=0, time=60),\n",
       "   Message('note_on', channel=5, note=59, velocity=90, time=0),\n",
       "   Message('note_on', channel=5, note=59, velocity=0, time=30),\n",
       "   Message('note_on', channel=5, note=64, velocity=90, time=0),\n",
       "   Message('note_on', channel=5, note=64, velocity=0, time=120),\n",
       "   Message('note_on', channel=5, note=66, velocity=90, time=0),\n",
       "   Message('note_on', channel=5, note=66, velocity=0, time=120),\n",
       "   Message('note_on', channel=5, note=59, velocity=90, time=0),\n",
       "   Message('note_on', channel=5, note=59, velocity=0, time=360),\n",
       "   Message('note_on', channel=5, note=59, velocity=90, time=60),\n",
       "   Message('note_on', channel=5, note=59, velocity=0, time=60),\n",
       "   Message('note_on', channel=5, note=57, velocity=90, time=0),\n",
       "   Message('note_on', channel=5, note=57, velocity=0, time=150),\n",
       "   Message('note_on', channel=5, note=64, velocity=90, time=30),\n",
       "   Message('note_on', channel=5, note=64, velocity=0, time=60),\n",
       "   Message('note_on', channel=5, note=62, velocity=90, time=0),\n",
       "   Message('note_on', channel=5, note=62, velocity=0, time=120),\n",
       "   Message('note_on', channel=5, note=57, velocity=90, time=60),\n",
       "   Message('note_on', channel=5, note=57, velocity=0, time=60),\n",
       "   Message('note_on', channel=5, note=55, velocity=90, time=0),\n",
       "   Message('note_on', channel=5, note=55, velocity=0, time=360),\n",
       "   Message('note_on', channel=5, note=59, velocity=90, time=60),\n",
       "   Message('note_on', channel=5, note=59, velocity=0, time=60),\n",
       "   Message('note_on', channel=5, note=62, velocity=90, time=0),\n",
       "   Message('note_on', channel=5, note=62, velocity=0, time=60),\n",
       "   Message('note_on', channel=5, note=67, velocity=90, time=0),\n",
       "   Message('note_on', channel=5, note=67, velocity=0, time=60),\n",
       "   Message('note_on', channel=5, note=66, velocity=90, time=0),\n",
       "   Message('note_on', channel=5, note=66, velocity=0, time=60),\n",
       "   Message('note_on', channel=5, note=62, velocity=90, time=0),\n",
       "   Message('note_on', channel=5, note=62, velocity=0, time=60),\n",
       "   Message('note_on', channel=5, note=64, velocity=90, time=0),\n",
       "   Message('note_on', channel=5, note=64, velocity=0, time=270),\n",
       "   Message('note_on', channel=5, note=66, velocity=90, time=325),\n",
       "   Message('note_on', channel=5, note=66, velocity=0, time=60),\n",
       "   Message('note_on', channel=5, note=64, velocity=90, time=0),\n",
       "   Message('note_on', channel=5, note=64, velocity=0, time=60),\n",
       "   Message('note_on', channel=5, note=64, velocity=90, time=0),\n",
       "   Message('note_on', channel=5, note=64, velocity=0, time=60),\n",
       "   Message('note_on', channel=5, note=62, velocity=100, time=0),\n",
       "   Message('note_on', channel=5, note=62, velocity=0, time=240),\n",
       "   Message('note_on', channel=5, note=61, velocity=90, time=0),\n",
       "   Message('note_on', channel=5, note=61, velocity=0, time=60),\n",
       "   Message('note_on', channel=5, note=62, velocity=90, time=0),\n",
       "   Message('note_on', channel=5, note=62, velocity=0, time=60),\n",
       "   Message('note_on', channel=5, note=69, velocity=90, time=0),\n",
       "   Message('note_on', channel=5, note=69, velocity=0, time=60),\n",
       "   Message('note_on', channel=5, note=61, velocity=90, time=0),\n",
       "   Message('note_on', channel=5, note=61, velocity=0, time=120),\n",
       "   Message('note_on', channel=5, note=62, velocity=90, time=0),\n",
       "   Message('note_on', channel=5, note=62, velocity=0, time=120),\n",
       "   Message('note_on', channel=5, note=61, velocity=90, time=60),\n",
       "   Message('note_on', channel=5, note=61, velocity=0, time=60),\n",
       "   Message('note_on', channel=5, note=62, velocity=90, time=0),\n",
       "   Message('note_on', channel=5, note=62, velocity=0, time=60),\n",
       "   Message('note_on', channel=5, note=69, velocity=90, time=0),\n",
       "   Message('note_on', channel=5, note=69, velocity=0, time=60),\n",
       "   Message('note_on', channel=5, note=57, velocity=90, time=0),\n",
       "   Message('note_on', channel=5, note=57, velocity=0, time=120),\n",
       "   Message('note_on', channel=5, note=59, velocity=90, time=0),\n",
       "   Message('note_on', channel=5, note=59, velocity=0, time=120),\n",
       "   Message('note_on', channel=5, note=59, velocity=90, time=123),\n",
       "   Message('note_on', channel=5, note=59, velocity=0, time=52),\n",
       "   Message('note_on', channel=5, note=62, velocity=90, time=5),\n",
       "   Message('note_on', channel=5, note=62, velocity=0, time=60),\n",
       "   Message('note_on', channel=5, note=67, velocity=90, time=0),\n",
       "   Message('note_on', channel=5, note=67, velocity=0, time=120),\n",
       "   Message('note_on', channel=5, note=66, velocity=90, time=0),\n",
       "   Message('note_on', channel=5, note=66, velocity=0, time=60),\n",
       "   Message('note_on', channel=5, note=62, velocity=90, time=0),\n",
       "   Message('note_on', channel=5, note=62, velocity=0, time=60),\n",
       "   Message('note_on', channel=5, note=67, velocity=90, time=0),\n",
       "   Message('note_on', channel=5, note=67, velocity=0, time=120),\n",
       "   Message('note_on', channel=5, note=66, velocity=90, time=0),\n",
       "   Message('note_on', channel=5, note=66, velocity=0, time=60),\n",
       "   Message('note_on', channel=5, note=64, velocity=90, time=0),\n",
       "   Message('note_on', channel=5, note=64, velocity=0, time=60),\n",
       "   Message('note_on', channel=5, note=64, velocity=90, time=0),\n",
       "   Message('note_on', channel=5, note=64, velocity=0, time=60),\n",
       "   Message('note_on', channel=5, note=62, velocity=90, time=0),\n",
       "   Message('note_on', channel=5, note=62, velocity=0, time=120),\n",
       "   Message('note_on', channel=5, note=57, velocity=90, time=60),\n",
       "   Message('note_on', channel=5, note=57, velocity=0, time=60),\n",
       "   Message('note_on', channel=5, note=61, velocity=90, time=0),\n",
       "   Message('note_on', channel=5, note=61, velocity=0, time=60),\n",
       "   Message('note_on', channel=5, note=62, velocity=90, time=0),\n",
       "   Message('note_on', channel=5, note=62, velocity=0, time=60),\n",
       "   Message('note_on', channel=5, note=69, velocity=90, time=0),\n",
       "   Message('note_on', channel=5, note=69, velocity=0, time=60),\n",
       "   Message('note_on', channel=5, note=61, velocity=90, time=0),\n",
       "   Message('note_on', channel=5, note=61, velocity=0, time=120),\n",
       "   Message('note_on', channel=5, note=62, velocity=90, time=0),\n",
       "   Message('note_on', channel=5, note=62, velocity=0, time=180),\n",
       "   Message('note_on', channel=5, note=61, velocity=90, time=0),\n",
       "   Message('note_on', channel=5, note=61, velocity=0, time=60),\n",
       "   Message('note_on', channel=5, note=62, velocity=90, time=0),\n",
       "   Message('note_on', channel=5, note=62, velocity=0, time=60),\n",
       "   Message('note_on', channel=5, note=69, velocity=90, time=0),\n",
       "   Message('note_on', channel=5, note=69, velocity=0, time=60),\n",
       "   Message('note_on', channel=5, note=57, velocity=90, time=0),\n",
       "   Message('note_on', channel=5, note=57, velocity=0, time=120),\n",
       "   Message('note_on', channel=5, note=59, velocity=90, time=0),\n",
       "   Message('note_on', channel=5, note=59, velocity=0, time=300),\n",
       "   Message('note_on', channel=5, note=62, velocity=90, time=0),\n",
       "   Message('note_on', channel=5, note=62, velocity=0, time=60),\n",
       "   Message('note_on', channel=5, note=62, velocity=90, time=0),\n",
       "   Message('note_on', channel=5, note=62, velocity=0, time=120),\n",
       "   Message('note_on', channel=5, note=59, velocity=90, time=0),\n",
       "   Message('note_on', channel=5, note=59, velocity=0, time=60),\n",
       "   Message('note_on', channel=5, note=62, velocity=90, time=0),\n",
       "   Message('note_on', channel=5, note=62, velocity=0, time=60),\n",
       "   Message('note_on', channel=5, note=66, velocity=90, time=0),\n",
       "   Message('note_on', channel=5, note=66, velocity=0, time=120),\n",
       "   Message('note_on', channel=5, note=64, velocity=90, time=0),\n",
       "   Message('note_on', channel=5, note=64, velocity=0, time=120),\n",
       "   Message('note_on', channel=5, note=62, velocity=90, time=0),\n",
       "   Message('note_on', channel=5, note=64, velocity=90, time=30),\n",
       "   Message('note_on', channel=5, note=64, velocity=0, time=30),\n",
       "   Message('note_on', channel=5, note=62, velocity=0, time=0),\n",
       "   Message('note_on', channel=5, note=62, velocity=90, time=0),\n",
       "   Message('note_on', channel=5, note=62, velocity=0, time=360),\n",
       "   Message('note_on', channel=5, note=64, velocity=100, time=2040),\n",
       "   Message('note_on', channel=5, note=64, velocity=100, time=180),\n",
       "   Message('note_on', channel=5, note=64, velocity=0, time=60),\n",
       "   Message('note_on', channel=5, note=64, velocity=0, time=0),\n",
       "   Message('note_on', channel=5, note=66, velocity=90, time=0),\n",
       "   Message('note_on', channel=5, note=66, velocity=0, time=90),\n",
       "   Message('note_on', channel=5, note=61, velocity=90, time=30),\n",
       "   Message('note_on', channel=5, note=61, velocity=0, time=30),\n",
       "   Message('note_on', channel=5, note=63, velocity=90, time=30),\n",
       "   Message('note_on', channel=5, note=63, velocity=0, time=240),\n",
       "   Message('note_on', channel=5, note=59, velocity=90, time=240),\n",
       "   Message('note_on', channel=5, note=59, velocity=0, time=30),\n",
       "   Message('note_on', channel=5, note=59, velocity=90, time=0),\n",
       "   Message('note_on', channel=5, note=59, velocity=0, time=30),\n",
       "   Message('note_on', channel=5, note=61, velocity=90, time=0),\n",
       "   Message('note_on', channel=5, note=61, velocity=0, time=30),\n",
       "   Message('note_on', channel=5, note=64, velocity=90, time=0),\n",
       "   Message('note_on', channel=5, note=64, velocity=0, time=30),\n",
       "   Message('note_on', channel=5, note=64, velocity=90, time=0),\n",
       "   Message('note_on', channel=5, note=64, velocity=0, time=90),\n",
       "   Message('note_on', channel=5, note=61, velocity=90, time=0),\n",
       "   Message('note_on', channel=5, note=61, velocity=0, time=15),\n",
       "   Message('note_on', channel=5, note=66, velocity=90, time=15),\n",
       "   Message('note_on', channel=5, note=66, velocity=0, time=105),\n",
       "   Message('note_on', channel=5, note=68, velocity=90, time=15),\n",
       "   Message('note_on', channel=5, note=68, velocity=0, time=105),\n",
       "   Message('note_on', channel=5, note=63, velocity=90, time=15),\n",
       "   Message('note_on', channel=5, note=63, velocity=0, time=285),\n",
       "   Message('note_on', channel=5, note=59, velocity=90, time=195),\n",
       "   Message('note_on', channel=5, note=59, velocity=0, time=30),\n",
       "   Message('note_on', channel=5, note=59, velocity=90, time=0),\n",
       "   Message('note_on', channel=5, note=59, velocity=0, time=30),\n",
       "   Message('note_on', channel=5, note=61, velocity=90, time=0),\n",
       "   Message('note_on', channel=5, note=61, velocity=0, time=60),\n",
       "   Message('note_on', channel=5, note=64, velocity=90, time=0),\n",
       "   Message('note_on', channel=5, note=64, velocity=0, time=30),\n",
       "   Message('note_on', channel=5, note=64, velocity=90, time=0),\n",
       "   Message('note_on', channel=5, note=64, velocity=0, time=60),\n",
       "   Message('note_on', channel=5, note=61, velocity=90, time=0),\n",
       "   Message('note_on', channel=5, note=61, velocity=0, time=30),\n",
       "   Message('note_on', channel=5, note=66, velocity=90, time=0),\n",
       "   Message('note_on', channel=5, note=66, velocity=0, time=120),\n",
       "   Message('note_on', channel=5, note=68, velocity=90, time=0),\n",
       "   Message('note_on', channel=5, note=68, velocity=0, time=120),\n",
       "   Message('note_on', channel=5, note=61, velocity=90, time=0),\n",
       "   Message('note_on', channel=5, note=61, velocity=0, time=360),\n",
       "   Message('note_on', channel=5, note=61, velocity=90, time=60),\n",
       "   Message('note_on', channel=5, note=61, velocity=0, time=60),\n",
       "   Message('note_on', channel=5, note=59, velocity=90, time=0),\n",
       "   Message('note_on', channel=5, note=59, velocity=0, time=150),\n",
       "   Message('note_on', channel=5, note=66, velocity=90, time=30),\n",
       "   Message('note_on', channel=5, note=66, velocity=0, time=60),\n",
       "   Message('note_on', channel=5, note=64, velocity=90, time=0),\n",
       "   Message('note_on', channel=5, note=64, velocity=0, time=120),\n",
       "   Message('note_on', channel=5, note=59, velocity=90, time=60),\n",
       "   Message('note_on', channel=5, note=59, velocity=0, time=60),\n",
       "   Message('note_on', channel=5, note=57, velocity=90, time=0),\n",
       "   Message('note_on', channel=5, note=57, velocity=0, time=360),\n",
       "   Message('note_on', channel=5, note=61, velocity=90, time=60),\n",
       "   Message('note_on', channel=5, note=61, velocity=0, time=60),\n",
       "   Message('note_on', channel=5, note=64, velocity=90, time=0),\n",
       "   Message('note_on', channel=5, note=64, velocity=0, time=60),\n",
       "   Message('note_on', channel=5, note=69, velocity=90, time=0),\n",
       "   Message('note_on', channel=5, note=69, velocity=0, time=60),\n",
       "   Message('note_on', channel=5, note=68, velocity=90, time=0),\n",
       "   Message('note_on', channel=5, note=68, velocity=0, time=60),\n",
       "   Message('note_on', channel=5, note=64, velocity=90, time=0),\n",
       "   Message('note_on', channel=5, note=64, velocity=0, time=60),\n",
       "   Message('note_on', channel=5, note=66, velocity=90, time=0),\n",
       "   Message('note_on', channel=5, note=66, velocity=0, time=270),\n",
       "   Message('note_on', channel=5, note=68, velocity=90, time=330),\n",
       "   Message('note_on', channel=5, note=68, velocity=0, time=60),\n",
       "   Message('note_on', channel=5, note=66, velocity=90, time=0),\n",
       "   Message('note_on', channel=5, note=66, velocity=0, time=60),\n",
       "   Message('note_on', channel=5, note=66, velocity=90, time=0),\n",
       "   Message('note_on', channel=5, note=66, velocity=0, time=60),\n",
       "   Message('note_on', channel=5, note=64, velocity=100, time=0),\n",
       "   Message('note_on', channel=5, note=64, velocity=0, time=240),\n",
       "   Message('note_on', channel=5, note=63, velocity=90, time=0),\n",
       "   Message('note_on', channel=5, note=63, velocity=0, time=60),\n",
       "   Message('note_on', channel=5, note=64, velocity=90, time=0),\n",
       "   Message('note_on', channel=5, note=64, velocity=0, time=60),\n",
       "   Message('note_on', channel=5, note=71, velocity=90, time=0),\n",
       "   Message('note_on', channel=5, note=71, velocity=0, time=60),\n",
       "   Message('note_on', channel=5, note=63, velocity=90, time=0),\n",
       "   Message('note_on', channel=5, note=63, velocity=0, time=120),\n",
       "   Message('note_on', channel=5, note=64, velocity=90, time=0),\n",
       "   Message('note_on', channel=5, note=64, velocity=0, time=120),\n",
       "   Message('note_on', channel=5, note=63, velocity=90, time=60),\n",
       "   Message('note_on', channel=5, note=63, velocity=0, time=60),\n",
       "   Message('note_on', channel=5, note=64, velocity=90, time=0),\n",
       "   Message('note_on', channel=5, note=64, velocity=0, time=60),\n",
       "   Message('note_on', channel=5, note=71, velocity=90, time=0),\n",
       "   Message('note_on', channel=5, note=71, velocity=0, time=60),\n",
       "   Message('note_on', channel=5, note=59, velocity=90, time=0),\n",
       "   Message('note_on', channel=5, note=59, velocity=0, time=120),\n",
       "   Message('note_on', channel=5, note=61, velocity=90, time=0),\n",
       "   Message('note_on', channel=5, note=61, velocity=0, time=120),\n",
       "   Message('note_on', channel=5, note=61, velocity=90, time=123),\n",
       "   Message('note_on', channel=5, note=61, velocity=0, time=52),\n",
       "   Message('note_on', channel=5, note=64, velocity=90, time=5),\n",
       "   Message('note_on', channel=5, note=64, velocity=0, time=60),\n",
       "   Message('note_on', channel=5, note=69, velocity=90, time=0),\n",
       "   Message('note_on', channel=5, note=69, velocity=0, time=120),\n",
       "   Message('note_on', channel=5, note=68, velocity=90, time=0),\n",
       "   Message('note_on', channel=5, note=68, velocity=0, time=60),\n",
       "   Message('note_on', channel=5, note=64, velocity=90, time=0),\n",
       "   Message('note_on', channel=5, note=64, velocity=0, time=60),\n",
       "   Message('note_on', channel=5, note=69, velocity=90, time=0),\n",
       "   Message('note_on', channel=5, note=69, velocity=0, time=120),\n",
       "   Message('note_on', channel=5, note=68, velocity=90, time=0),\n",
       "   Message('note_on', channel=5, note=68, velocity=0, time=60),\n",
       "   Message('note_on', channel=5, note=66, velocity=90, time=0),\n",
       "   Message('note_on', channel=5, note=66, velocity=0, time=60),\n",
       "   Message('note_on', channel=5, note=66, velocity=90, time=0),\n",
       "   Message('note_on', channel=5, note=66, velocity=0, time=60),\n",
       "   Message('note_on', channel=5, note=64, velocity=90, time=0),\n",
       "   Message('note_on', channel=5, note=64, velocity=0, time=120),\n",
       "   Message('note_on', channel=5, note=59, velocity=90, time=60),\n",
       "   Message('note_on', channel=5, note=59, velocity=0, time=60),\n",
       "   Message('note_on', channel=5, note=63, velocity=90, time=0),\n",
       "   Message('note_on', channel=5, note=63, velocity=0, time=60),\n",
       "   Message('note_on', channel=5, note=64, velocity=90, time=0),\n",
       "   Message('note_on', channel=5, note=64, velocity=0, time=60),\n",
       "   Message('note_on', channel=5, note=71, velocity=90, time=0),\n",
       "   Message('note_on', channel=5, note=71, velocity=0, time=60),\n",
       "   Message('note_on', channel=5, note=63, velocity=90, time=0),\n",
       "   Message('note_on', channel=5, note=63, velocity=0, time=120),\n",
       "   Message('note_on', channel=5, note=64, velocity=90, time=0),\n",
       "   Message('note_on', channel=5, note=64, velocity=0, time=180),\n",
       "   Message('note_on', channel=5, note=63, velocity=90, time=0),\n",
       "   Message('note_on', channel=5, note=63, velocity=0, time=60),\n",
       "   Message('note_on', channel=5, note=64, velocity=90, time=0),\n",
       "   Message('note_on', channel=5, note=64, velocity=0, time=60),\n",
       "   Message('note_on', channel=5, note=71, velocity=90, time=0),\n",
       "   Message('note_on', channel=5, note=71, velocity=0, time=60),\n",
       "   Message('note_on', channel=5, note=59, velocity=90, time=0),\n",
       "   Message('note_on', channel=5, note=59, velocity=0, time=120),\n",
       "   Message('note_on', channel=5, note=61, velocity=90, time=0),\n",
       "   Message('note_on', channel=5, note=61, velocity=0, time=300),\n",
       "   Message('note_on', channel=5, note=64, velocity=90, time=0),\n",
       "   Message('note_on', channel=5, note=64, velocity=0, time=60),\n",
       "   Message('note_on', channel=5, note=64, velocity=90, time=0),\n",
       "   Message('note_on', channel=5, note=64, velocity=0, time=120),\n",
       "   Message('note_on', channel=5, note=61, velocity=90, time=0),\n",
       "   Message('note_on', channel=5, note=61, velocity=0, time=60),\n",
       "   Message('note_on', channel=5, note=64, velocity=90, time=0),\n",
       "   Message('note_on', channel=5, note=64, velocity=0, time=60),\n",
       "   Message('note_on', channel=5, note=68, velocity=90, time=0),\n",
       "   Message('note_on', channel=5, note=68, velocity=0, time=120),\n",
       "   Message('note_on', channel=5, note=66, velocity=90, time=0),\n",
       "   Message('note_on', channel=5, note=66, velocity=0, time=120),\n",
       "   Message('note_on', channel=5, note=64, velocity=90, time=0),\n",
       "   Message('note_on', channel=5, note=66, velocity=90, time=30),\n",
       "   Message('note_on', channel=5, note=66, velocity=0, time=30),\n",
       "   Message('note_on', channel=5, note=64, velocity=0, time=0),\n",
       "   Message('note_on', channel=5, note=64, velocity=90, time=0),\n",
       "   Message('note_on', channel=5, note=64, velocity=0, time=360),\n",
       "   MetaMessage('end_of_track', time=0)]),\n",
       " MidiTrack([\n",
       "   MetaMessage('midi_port', port=0, time=0),\n",
       "   MetaMessage('track_name', name='RHYTEM', time=0),\n",
       "   Message('control_change', channel=9, control=7, value=90, time=0),\n",
       "   Message('control_change', channel=9, control=10, value=64, time=0),\n",
       "   Message('note_on', channel=9, note=81, velocity=100, time=240),\n",
       "   Message('note_on', channel=9, note=81, velocity=0, time=60),\n",
       "   Message('note_on', channel=9, note=81, velocity=100, time=0),\n",
       "   Message('note_on', channel=9, note=50, velocity=100, time=30),\n",
       "   Message('note_on', channel=9, note=50, velocity=0, time=30),\n",
       "   Message('note_on', channel=9, note=81, velocity=0, time=0),\n",
       "   Message('note_on', channel=9, note=81, velocity=100, time=0),\n",
       "   Message('note_on', channel=9, note=47, velocity=100, time=0),\n",
       "   Message('note_on', channel=9, note=81, velocity=0, time=30),\n",
       "   Message('note_on', channel=9, note=47, velocity=0, time=30),\n",
       "   Message('note_on', channel=9, note=81, velocity=100, time=0),\n",
       "   Message('note_on', channel=9, note=45, velocity=100, time=0),\n",
       "   Message('note_on', channel=9, note=81, velocity=0, time=30),\n",
       "   Message('note_on', channel=9, note=45, velocity=0, time=30),\n",
       "   Message('note_on', channel=9, note=44, velocity=100, time=0),\n",
       "   Message('note_on', channel=9, note=33, velocity=100, time=0),\n",
       "   Message('note_on', channel=9, note=44, velocity=0, time=30),\n",
       "   Message('note_on', channel=9, note=33, velocity=0, time=30),\n",
       "   Message('note_on', channel=9, note=44, velocity=100, time=0),\n",
       "   Message('note_on', channel=9, note=44, velocity=0, time=30),\n",
       "   Message('note_on', channel=9, note=44, velocity=100, time=0),\n",
       "   Message('note_on', channel=9, note=44, velocity=0, time=30),\n",
       "   Message('note_on', channel=9, note=40, velocity=100, time=0),\n",
       "   Message('note_on', channel=9, note=44, velocity=100, time=0),\n",
       "   Message('note_on', channel=9, note=44, velocity=0, time=30),\n",
       "   Message('note_on', channel=9, note=40, velocity=0, time=30),\n",
       "   Message('note_on', channel=9, note=44, velocity=100, time=0),\n",
       "   Message('note_on', channel=9, note=33, velocity=100, time=0),\n",
       "   Message('note_on', channel=9, note=44, velocity=0, time=30),\n",
       "   Message('note_on', channel=9, note=44, velocity=100, time=0),\n",
       "   Message('note_on', channel=9, note=44, velocity=0, time=30),\n",
       "   Message('note_on', channel=9, note=33, velocity=0, time=0),\n",
       "   Message('note_on', channel=9, note=44, velocity=100, time=0),\n",
       "   Message('note_on', channel=9, note=33, velocity=100, time=0),\n",
       "   Message('note_on', channel=9, note=44, velocity=0, time=30),\n",
       "   Message('note_on', channel=9, note=33, velocity=0, time=30),\n",
       "   Message('note_on', channel=9, note=44, velocity=100, time=0),\n",
       "   Message('note_on', channel=9, note=44, velocity=0, time=30),\n",
       "   Message('note_on', channel=9, note=44, velocity=100, time=0),\n",
       "   Message('note_on', channel=9, note=44, velocity=0, time=30),\n",
       "   Message('note_on', channel=9, note=81, velocity=100, time=0),\n",
       "   Message('note_on', channel=9, note=40, velocity=100, time=0),\n",
       "   Message('note_on', channel=9, note=44, velocity=100, time=0),\n",
       "   Message('note_on', channel=9, note=44, velocity=0, time=30),\n",
       "   Message('note_on', channel=9, note=40, velocity=0, time=0),\n",
       "   Message('note_on', channel=9, note=44, velocity=100, time=30),\n",
       "   Message('note_on', channel=9, note=44, velocity=0, time=30),\n",
       "   Message('note_on', channel=9, note=44, velocity=100, time=0),\n",
       "   Message('note_on', channel=9, note=44, velocity=0, time=30),\n",
       "   Message('note_on', channel=9, note=81, velocity=0, time=0),\n",
       "   Message('note_on', channel=9, note=44, velocity=100, time=0),\n",
       "   Message('note_on', channel=9, note=33, velocity=100, time=0),\n",
       "   Message('note_on', channel=9, note=44, velocity=0, time=30),\n",
       "   Message('note_on', channel=9, note=33, velocity=0, time=30),\n",
       "   Message('note_on', channel=9, note=44, velocity=100, time=0),\n",
       "   Message('note_on', channel=9, note=44, velocity=0, time=30),\n",
       "   Message('note_on', channel=9, note=44, velocity=100, time=0),\n",
       "   Message('note_on', channel=9, note=44, velocity=0, time=30),\n",
       "   Message('note_on', channel=9, note=40, velocity=100, time=0),\n",
       "   Message('note_on', channel=9, note=44, velocity=100, time=0),\n",
       "   Message('note_on', channel=9, note=44, velocity=0, time=30),\n",
       "   Message('note_on', channel=9, note=40, velocity=0, time=30),\n",
       "   Message('note_on', channel=9, note=44, velocity=100, time=0),\n",
       "   Message('note_on', channel=9, note=33, velocity=100, time=0),\n",
       "   Message('note_on', channel=9, note=44, velocity=0, time=30),\n",
       "   Message('note_on', channel=9, note=44, velocity=100, time=0),\n",
       "   Message('note_on', channel=9, note=44, velocity=0, time=30),\n",
       "   Message('note_on', channel=9, note=33, velocity=0, time=0),\n",
       "   Message('note_on', channel=9, note=44, velocity=100, time=0),\n",
       "   Message('note_on', channel=9, note=33, velocity=100, time=0),\n",
       "   Message('note_on', channel=9, note=44, velocity=0, time=30),\n",
       "   Message('note_on', channel=9, note=33, velocity=0, time=30),\n",
       "   Message('note_on', channel=9, note=44, velocity=100, time=0),\n",
       "   Message('note_on', channel=9, note=44, velocity=0, time=30),\n",
       "   Message('note_on', channel=9, note=44, velocity=100, time=0),\n",
       "   Message('note_on', channel=9, note=44, velocity=0, time=30),\n",
       "   Message('note_on', channel=9, note=81, velocity=100, time=0),\n",
       "   Message('note_on', channel=9, note=40, velocity=100, time=0),\n",
       "   Message('note_on', channel=9, note=44, velocity=100, time=0),\n",
       "   Message('note_on', channel=9, note=44, velocity=0, time=30),\n",
       "   Message('note_on', channel=9, note=40, velocity=0, time=0),\n",
       "   Message('note_on', channel=9, note=44, velocity=100, time=30),\n",
       "   Message('note_on', channel=9, note=44, velocity=0, time=30),\n",
       "   Message('note_on', channel=9, note=44, velocity=100, time=0),\n",
       "   Message('note_on', channel=9, note=44, velocity=0, time=30),\n",
       "   Message('note_on', channel=9, note=81, velocity=0, time=0),\n",
       "   Message('note_on', channel=9, note=44, velocity=100, time=0),\n",
       "   Message('note_on', channel=9, note=33, velocity=100, time=0),\n",
       "   Message('note_on', channel=9, note=44, velocity=0, time=30),\n",
       "   Message('note_on', channel=9, note=33, velocity=0, time=30),\n",
       "   Message('note_on', channel=9, note=44, velocity=100, time=0),\n",
       "   Message('note_on', channel=9, note=44, velocity=0, time=30),\n",
       "   Message('note_on', channel=9, note=44, velocity=100, time=0),\n",
       "   Message('note_on', channel=9, note=44, velocity=0, time=30),\n",
       "   Message('note_on', channel=9, note=40, velocity=100, time=0),\n",
       "   Message('note_on', channel=9, note=44, velocity=100, time=0),\n",
       "   Message('note_on', channel=9, note=44, velocity=0, time=30),\n",
       "   Message('note_on', channel=9, note=40, velocity=0, time=30),\n",
       "   Message('note_on', channel=9, note=44, velocity=100, time=0),\n",
       "   Message('note_on', channel=9, note=33, velocity=100, time=0),\n",
       "   Message('note_on', channel=9, note=44, velocity=0, time=30),\n",
       "   Message('note_on', channel=9, note=44, velocity=100, time=0),\n",
       "   Message('note_on', channel=9, note=44, velocity=0, time=30),\n",
       "   Message('note_on', channel=9, note=33, velocity=0, time=0),\n",
       "   Message('note_on', channel=9, note=44, velocity=100, time=0),\n",
       "   Message('note_on', channel=9, note=33, velocity=100, time=0),\n",
       "   Message('note_on', channel=9, note=44, velocity=0, time=30),\n",
       "   Message('note_on', channel=9, note=33, velocity=0, time=30),\n",
       "   Message('note_on', channel=9, note=44, velocity=100, time=0),\n",
       "   Message('note_on', channel=9, note=44, velocity=0, time=30),\n",
       "   Message('note_on', channel=9, note=44, velocity=100, time=0),\n",
       "   Message('note_on', channel=9, note=44, velocity=0, time=30),\n",
       "   Message('note_on', channel=9, note=81, velocity=100, time=0),\n",
       "   Message('note_on', channel=9, note=40, velocity=100, time=0),\n",
       "   Message('note_on', channel=9, note=44, velocity=100, time=0),\n",
       "   Message('note_on', channel=9, note=44, velocity=0, time=30),\n",
       "   Message('note_on', channel=9, note=40, velocity=0, time=0),\n",
       "   Message('note_on', channel=9, note=44, velocity=100, time=30),\n",
       "   Message('note_on', channel=9, note=44, velocity=0, time=30),\n",
       "   Message('note_on', channel=9, note=44, velocity=100, time=0),\n",
       "   Message('note_on', channel=9, note=44, velocity=0, time=30),\n",
       "   Message('note_on', channel=9, note=81, velocity=0, time=0),\n",
       "   Message('note_on', channel=9, note=44, velocity=100, time=0),\n",
       "   Message('note_on', channel=9, note=33, velocity=100, time=0),\n",
       "   Message('note_on', channel=9, note=44, velocity=0, time=30),\n",
       "   Message('note_on', channel=9, note=33, velocity=0, time=30),\n",
       "   Message('note_on', channel=9, note=44, velocity=100, time=0),\n",
       "   Message('note_on', channel=9, note=44, velocity=0, time=30),\n",
       "   Message('note_on', channel=9, note=44, velocity=100, time=0),\n",
       "   Message('note_on', channel=9, note=44, velocity=0, time=30),\n",
       "   Message('note_on', channel=9, note=40, velocity=100, time=0),\n",
       "   Message('note_on', channel=9, note=44, velocity=100, time=0),\n",
       "   Message('note_on', channel=9, note=44, velocity=0, time=30),\n",
       "   Message('note_on', channel=9, note=40, velocity=0, time=30),\n",
       "   Message('note_on', channel=9, note=44, velocity=100, time=0),\n",
       "   Message('note_on', channel=9, note=33, velocity=100, time=0),\n",
       "   Message('note_on', channel=9, note=44, velocity=0, time=30),\n",
       "   Message('note_on', channel=9, note=44, velocity=100, time=0),\n",
       "   Message('note_on', channel=9, note=44, velocity=0, time=30),\n",
       "   Message('note_on', channel=9, note=33, velocity=0, time=0),\n",
       "   Message('note_on', channel=9, note=44, velocity=100, time=0),\n",
       "   Message('note_on', channel=9, note=33, velocity=100, time=0),\n",
       "   Message('note_on', channel=9, note=44, velocity=0, time=30),\n",
       "   Message('note_on', channel=9, note=33, velocity=0, time=30),\n",
       "   Message('note_on', channel=9, note=50, velocity=100, time=0),\n",
       "   Message('note_on', channel=9, note=44, velocity=100, time=0),\n",
       "   Message('note_on', channel=9, note=44, velocity=0, time=30),\n",
       "   Message('note_on', channel=9, note=44, velocity=100, time=0),\n",
       "   Message('note_on', channel=9, note=44, velocity=0, time=30),\n",
       "   Message('note_on', channel=9, note=50, velocity=0, time=0),\n",
       "   Message('note_on', channel=9, note=47, velocity=100, time=0),\n",
       "   Message('note_on', channel=9, note=81, velocity=100, time=0),\n",
       "   Message('note_on', channel=9, note=40, velocity=100, time=0),\n",
       "   Message('note_on', channel=9, note=44, velocity=100, time=0),\n",
       "   Message('note_on', channel=9, note=44, velocity=0, time=30),\n",
       "   Message('note_on', channel=9, note=40, velocity=0, time=0),\n",
       "   Message('note_on', channel=9, note=47, velocity=0, time=30),\n",
       "   Message('note_on', channel=9, note=45, velocity=100, time=0),\n",
       "   Message('note_on', channel=9, note=44, velocity=100, time=0),\n",
       "   Message('note_on', channel=9, note=44, velocity=0, time=30),\n",
       "   Message('note_on', channel=9, note=44, velocity=100, time=0),\n",
       "   Message('note_on', channel=9, note=44, velocity=0, time=30),\n",
       "   Message('note_on', channel=9, note=45, velocity=0, time=0),\n",
       "   Message('note_on', channel=9, note=81, velocity=0, time=0),\n",
       "   Message('note_on', channel=9, note=44, velocity=100, time=0),\n",
       "   Message('note_on', channel=9, note=33, velocity=100, time=0),\n",
       "   Message('note_on', channel=9, note=44, velocity=0, time=30),\n",
       "   Message('note_on', channel=9, note=33, velocity=0, time=30),\n",
       "   Message('note_on', channel=9, note=44, velocity=100, time=0),\n",
       "   Message('note_on', channel=9, note=44, velocity=0, time=30),\n",
       "   Message('note_on', channel=9, note=44, velocity=100, time=0),\n",
       "   Message('note_on', channel=9, note=44, velocity=0, time=30),\n",
       "   Message('note_on', channel=9, note=40, velocity=100, time=0),\n",
       "   Message('note_on', channel=9, note=44, velocity=100, time=0),\n",
       "   Message('note_on', channel=9, note=44, velocity=0, time=30),\n",
       "   Message('note_on', channel=9, note=40, velocity=0, time=30),\n",
       "   Message('note_on', channel=9, note=44, velocity=100, time=0),\n",
       "   Message('note_on', channel=9, note=33, velocity=100, time=0),\n",
       "   Message('note_on', channel=9, note=44, velocity=0, time=30),\n",
       "   Message('note_on', channel=9, note=44, velocity=100, time=0),\n",
       "   Message('note_on', channel=9, note=44, velocity=0, time=30),\n",
       "   Message('note_on', channel=9, note=33, velocity=0, time=0),\n",
       "   Message('note_on', channel=9, note=44, velocity=100, time=0),\n",
       "   Message('note_on', channel=9, note=33, velocity=100, time=0),\n",
       "   Message('note_on', channel=9, note=44, velocity=0, time=30),\n",
       "   Message('note_on', channel=9, note=33, velocity=0, time=30),\n",
       "   Message('note_on', channel=9, note=44, velocity=100, time=0),\n",
       "   Message('note_on', channel=9, note=44, velocity=0, time=30),\n",
       "   Message('note_on', channel=9, note=44, velocity=100, time=0),\n",
       "   Message('note_on', channel=9, note=44, velocity=0, time=30),\n",
       "   Message('note_on', channel=9, note=81, velocity=100, time=0),\n",
       "   Message('note_on', channel=9, note=40, velocity=100, time=0),\n",
       "   Message('note_on', channel=9, note=44, velocity=100, time=0),\n",
       "   Message('note_on', channel=9, note=44, velocity=0, time=30),\n",
       "   Message('note_on', channel=9, note=40, velocity=0, time=0),\n",
       "   Message('note_on', channel=9, note=44, velocity=100, time=30),\n",
       "   Message('note_on', channel=9, note=44, velocity=0, time=30),\n",
       "   Message('note_on', channel=9, note=44, velocity=100, time=0),\n",
       "   Message('note_on', channel=9, note=44, velocity=0, time=30),\n",
       "   Message('note_on', channel=9, note=81, velocity=0, time=0),\n",
       "   Message('note_on', channel=9, note=44, velocity=100, time=0),\n",
       "   Message('note_on', channel=9, note=33, velocity=100, time=0),\n",
       "   Message('note_on', channel=9, note=44, velocity=0, time=30),\n",
       "   Message('note_on', channel=9, note=33, velocity=0, time=30),\n",
       "   Message('note_on', channel=9, note=44, velocity=100, time=0),\n",
       "   Message('note_on', channel=9, note=44, velocity=0, time=30),\n",
       "   Message('note_on', channel=9, note=44, velocity=100, time=0),\n",
       "   Message('note_on', channel=9, note=44, velocity=0, time=30),\n",
       "   Message('note_on', channel=9, note=40, velocity=100, time=0),\n",
       "   Message('note_on', channel=9, note=44, velocity=100, time=0),\n",
       "   Message('note_on', channel=9, note=44, velocity=0, time=30),\n",
       "   Message('note_on', channel=9, note=40, velocity=0, time=30),\n",
       "   Message('note_on', channel=9, note=44, velocity=100, time=0),\n",
       "   Message('note_on', channel=9, note=33, velocity=100, time=0),\n",
       "   Message('note_on', channel=9, note=44, velocity=0, time=30),\n",
       "   Message('note_on', channel=9, note=44, velocity=100, time=0),\n",
       "   Message('note_on', channel=9, note=44, velocity=0, time=30),\n",
       "   Message('note_on', channel=9, note=33, velocity=0, time=0),\n",
       "   Message('note_on', channel=9, note=44, velocity=100, time=0),\n",
       "   Message('note_on', channel=9, note=33, velocity=100, time=0),\n",
       "   Message('note_on', channel=9, note=44, velocity=0, time=30),\n",
       "   Message('note_on', channel=9, note=33, velocity=0, time=30),\n",
       "   Message('note_on', channel=9, note=44, velocity=100, time=0),\n",
       "   Message('note_on', channel=9, note=44, velocity=0, time=30),\n",
       "   Message('note_on', channel=9, note=44, velocity=100, time=0),\n",
       "   Message('note_on', channel=9, note=44, velocity=0, time=30),\n",
       "   Message('note_on', channel=9, note=81, velocity=100, time=0),\n",
       "   Message('note_on', channel=9, note=40, velocity=100, time=0),\n",
       "   Message('note_on', channel=9, note=44, velocity=100, time=0),\n",
       "   Message('note_on', channel=9, note=44, velocity=0, time=30),\n",
       "   Message('note_on', channel=9, note=40, velocity=0, time=0),\n",
       "   Message('note_on', channel=9, note=44, velocity=100, time=30),\n",
       "   Message('note_on', channel=9, note=44, velocity=0, time=30),\n",
       "   Message('note_on', channel=9, note=44, velocity=100, time=0),\n",
       "   Message('note_on', channel=9, note=44, velocity=0, time=30),\n",
       "   Message('note_on', channel=9, note=81, velocity=0, time=0),\n",
       "   Message('note_on', channel=9, note=44, velocity=100, time=0),\n",
       "   Message('note_on', channel=9, note=33, velocity=100, time=0),\n",
       "   Message('note_on', channel=9, note=44, velocity=0, time=30),\n",
       "   Message('note_on', channel=9, note=33, velocity=0, time=30),\n",
       "   Message('note_on', channel=9, note=44, velocity=100, time=0),\n",
       "   Message('note_on', channel=9, note=44, velocity=0, time=30),\n",
       "   Message('note_on', channel=9, note=44, velocity=100, time=0),\n",
       "   Message('note_on', channel=9, note=44, velocity=0, time=30),\n",
       "   Message('note_on', channel=9, note=40, velocity=100, time=0),\n",
       "   Message('note_on', channel=9, note=44, velocity=100, time=0),\n",
       "   Message('note_on', channel=9, note=44, velocity=0, time=30),\n",
       "   Message('note_on', channel=9, note=40, velocity=0, time=30),\n",
       "   Message('note_on', channel=9, note=44, velocity=100, time=0),\n",
       "   Message('note_on', channel=9, note=33, velocity=100, time=0),\n",
       "   Message('note_on', channel=9, note=44, velocity=0, time=30),\n",
       "   Message('note_on', channel=9, note=44, velocity=100, time=0),\n",
       "   Message('note_on', channel=9, note=44, velocity=0, time=30),\n",
       "   Message('note_on', channel=9, note=33, velocity=0, time=0),\n",
       "   Message('note_on', channel=9, note=44, velocity=100, time=0),\n",
       "   Message('note_on', channel=9, note=33, velocity=100, time=0),\n",
       "   Message('note_on', channel=9, note=44, velocity=0, time=30),\n",
       "   Message('note_on', channel=9, note=33, velocity=0, time=30),\n",
       "   Message('note_on', channel=9, note=44, velocity=100, time=0),\n",
       "   Message('note_on', channel=9, note=44, velocity=0, time=30),\n",
       "   Message('note_on', channel=9, note=44, velocity=100, time=0),\n",
       "   Message('note_on', channel=9, note=44, velocity=0, time=30),\n",
       "   Message('note_on', channel=9, note=81, velocity=100, time=0),\n",
       "   Message('note_on', channel=9, note=40, velocity=100, time=0),\n",
       "   Message('note_on', channel=9, note=44, velocity=100, time=0),\n",
       "   Message('note_on', channel=9, note=44, velocity=0, time=30),\n",
       "   Message('note_on', channel=9, note=40, velocity=0, time=0),\n",
       "   Message('note_on', channel=9, note=44, velocity=100, time=30),\n",
       "   Message('note_on', channel=9, note=44, velocity=0, time=30),\n",
       "   Message('note_on', channel=9, note=44, velocity=100, time=0),\n",
       "   Message('note_on', channel=9, note=44, velocity=0, time=30),\n",
       "   Message('note_on', channel=9, note=81, velocity=0, time=0),\n",
       "   Message('note_on', channel=9, note=44, velocity=100, time=0),\n",
       "   Message('note_on', channel=9, note=33, velocity=100, time=0),\n",
       "   Message('note_on', channel=9, note=44, velocity=0, time=30),\n",
       "   Message('note_on', channel=9, note=33, velocity=0, time=30),\n",
       "   Message('note_on', channel=9, note=44, velocity=100, time=0),\n",
       "   Message('note_on', channel=9, note=44, velocity=0, time=30),\n",
       "   Message('note_on', channel=9, note=44, velocity=100, time=0),\n",
       "   Message('note_on', channel=9, note=44, velocity=0, time=30),\n",
       "   Message('note_on', channel=9, note=40, velocity=100, time=0),\n",
       "   Message('note_on', channel=9, note=44, velocity=100, time=0),\n",
       "   Message('note_on', channel=9, note=44, velocity=0, time=30),\n",
       "   Message('note_on', channel=9, note=40, velocity=0, time=30),\n",
       "   Message('note_on', channel=9, note=44, velocity=100, time=0),\n",
       "   Message('note_on', channel=9, note=33, velocity=100, time=0),\n",
       "   Message('note_on', channel=9, note=44, velocity=0, time=30),\n",
       "   Message('note_on', channel=9, note=44, velocity=100, time=0),\n",
       "   Message('note_on', channel=9, note=44, velocity=0, time=30),\n",
       "   Message('note_on', channel=9, note=33, velocity=0, time=0),\n",
       "   Message('note_on', channel=9, note=44, velocity=100, time=0),\n",
       "   Message('note_on', channel=9, note=33, velocity=100, time=0),\n",
       "   Message('note_on', channel=9, note=44, velocity=0, time=30),\n",
       "   Message('note_on', channel=9, note=33, velocity=0, time=30),\n",
       "   Message('note_on', channel=9, note=50, velocity=100, time=0),\n",
       "   Message('note_on', channel=9, note=44, velocity=100, time=0),\n",
       "   Message('note_on', channel=9, note=44, velocity=0, time=30),\n",
       "   Message('note_on', channel=9, note=44, velocity=100, time=0),\n",
       "   Message('note_on', channel=9, note=44, velocity=0, time=30),\n",
       "   Message('note_on', channel=9, note=50, velocity=0, time=0),\n",
       "   Message('note_on', channel=9, note=16, velocity=100, time=0),\n",
       "   Message('note_on', channel=9, note=47, velocity=100, time=0),\n",
       "   Message('note_on', channel=9, note=81, velocity=100, time=0),\n",
       "   Message('note_on', channel=9, note=40, velocity=100, time=0),\n",
       "   Message('note_on', channel=9, note=44, velocity=100, time=0),\n",
       "   Message('note_on', channel=9, note=44, velocity=0, time=30),\n",
       "   Message('note_on', channel=9, note=40, velocity=0, time=0),\n",
       "   Message('note_on', channel=9, note=16, velocity=0, time=30),\n",
       "   Message('note_on', channel=9, note=47, velocity=0, time=0),\n",
       "   Message('note_on', channel=9, note=45, velocity=100, time=0),\n",
       "   Message('note_on', channel=9, note=44, velocity=100, time=0),\n",
       "   Message('note_on', channel=9, note=44, velocity=0, time=30),\n",
       "   Message('note_on', channel=9, note=44, velocity=100, time=0),\n",
       "   Message('note_on', channel=9, note=44, velocity=0, time=30),\n",
       "   Message('note_on', channel=9, note=45, velocity=0, time=0),\n",
       "   Message('note_on', channel=9, note=81, velocity=0, time=0),\n",
       "   Message('note_on', channel=9, note=44, velocity=100, time=0),\n",
       "   Message('note_on', channel=9, note=33, velocity=100, time=0),\n",
       "   Message('note_on', channel=9, note=44, velocity=0, time=30),\n",
       "   Message('note_on', channel=9, note=33, velocity=0, time=30),\n",
       "   Message('note_on', channel=9, note=44, velocity=100, time=0),\n",
       "   Message('note_on', channel=9, note=44, velocity=0, time=30),\n",
       "   Message('note_on', channel=9, note=44, velocity=100, time=0),\n",
       "   Message('note_on', channel=9, note=44, velocity=0, time=30),\n",
       "   Message('note_on', channel=9, note=40, velocity=100, time=0),\n",
       "   Message('note_on', channel=9, note=44, velocity=100, time=0),\n",
       "   Message('note_on', channel=9, note=44, velocity=0, time=30),\n",
       "   Message('note_on', channel=9, note=40, velocity=0, time=30),\n",
       "   Message('note_on', channel=9, note=44, velocity=100, time=0),\n",
       "   Message('note_on', channel=9, note=33, velocity=100, time=0),\n",
       "   Message('note_on', channel=9, note=44, velocity=0, time=30),\n",
       "   Message('note_on', channel=9, note=44, velocity=100, time=0),\n",
       "   Message('note_on', channel=9, note=44, velocity=0, time=30),\n",
       "   Message('note_on', channel=9, note=33, velocity=0, time=0),\n",
       "   Message('note_on', channel=9, note=44, velocity=100, time=0),\n",
       "   Message('note_on', channel=9, note=33, velocity=100, time=0),\n",
       "   Message('note_on', channel=9, note=44, velocity=0, time=30),\n",
       "   Message('note_on', channel=9, note=33, velocity=0, time=30),\n",
       "   Message('note_on', channel=9, note=44, velocity=100, time=0),\n",
       "   Message('note_on', channel=9, note=44, velocity=0, time=30),\n",
       "   Message('note_on', channel=9, note=44, velocity=100, time=0),\n",
       "   Message('note_on', channel=9, note=44, velocity=0, time=30),\n",
       "   Message('note_on', channel=9, note=81, velocity=100, time=0),\n",
       "   Message('note_on', channel=9, note=40, velocity=100, time=0),\n",
       "   Message('note_on', channel=9, note=44, velocity=100, time=0),\n",
       "   Message('note_on', channel=9, note=44, velocity=0, time=30),\n",
       "   Message('note_on', channel=9, note=40, velocity=0, time=0),\n",
       "   Message('note_on', channel=9, note=44, velocity=100, time=30),\n",
       "   Message('note_on', channel=9, note=44, velocity=0, time=30),\n",
       "   Message('note_on', channel=9, note=44, velocity=100, time=0),\n",
       "   Message('note_on', channel=9, note=44, velocity=0, time=30),\n",
       "   Message('note_on', channel=9, note=81, velocity=0, time=0),\n",
       "   Message('note_on', channel=9, note=44, velocity=100, time=0),\n",
       "   Message('note_on', channel=9, note=33, velocity=100, time=0),\n",
       "   Message('note_on', channel=9, note=44, velocity=0, time=30),\n",
       "   Message('note_on', channel=9, note=33, velocity=0, time=30),\n",
       "   Message('note_on', channel=9, note=44, velocity=100, time=0),\n",
       "   Message('note_on', channel=9, note=44, velocity=0, time=30),\n",
       "   Message('note_on', channel=9, note=44, velocity=100, time=0),\n",
       "   Message('note_on', channel=9, note=44, velocity=0, time=30),\n",
       "   Message('note_on', channel=9, note=40, velocity=100, time=0),\n",
       "   Message('note_on', channel=9, note=44, velocity=100, time=0),\n",
       "   Message('note_on', channel=9, note=44, velocity=0, time=30),\n",
       "   Message('note_on', channel=9, note=40, velocity=0, time=30),\n",
       "   Message('note_on', channel=9, note=44, velocity=100, time=0),\n",
       "   Message('note_on', channel=9, note=33, velocity=100, time=0),\n",
       "   Message('note_on', channel=9, note=44, velocity=0, time=30),\n",
       "   Message('note_on', channel=9, note=44, velocity=100, time=0),\n",
       "   Message('note_on', channel=9, note=44, velocity=0, time=30),\n",
       "   Message('note_on', channel=9, note=33, velocity=0, time=0),\n",
       "   Message('note_on', channel=9, note=44, velocity=100, time=0),\n",
       "   Message('note_on', channel=9, note=33, velocity=100, time=0),\n",
       "   Message('note_on', channel=9, note=44, velocity=0, time=30),\n",
       "   Message('note_on', channel=9, note=33, velocity=0, time=30),\n",
       "   Message('note_on', channel=9, note=44, velocity=100, time=0),\n",
       "   Message('note_on', channel=9, note=44, velocity=0, time=30),\n",
       "   Message('note_on', channel=9, note=44, velocity=100, time=0),\n",
       "   Message('note_on', channel=9, note=44, velocity=0, time=30),\n",
       "   Message('note_on', channel=9, note=81, velocity=100, time=0),\n",
       "   Message('note_on', channel=9, note=40, velocity=100, time=0),\n",
       "   Message('note_on', channel=9, note=44, velocity=100, time=0),\n",
       "   Message('note_on', channel=9, note=44, velocity=0, time=30),\n",
       "   Message('note_on', channel=9, note=40, velocity=0, time=0),\n",
       "   Message('note_on', channel=9, note=44, velocity=100, time=30),\n",
       "   Message('note_on', channel=9, note=44, velocity=0, time=30),\n",
       "   Message('note_on', channel=9, note=44, velocity=100, time=0),\n",
       "   Message('note_on', channel=9, note=44, velocity=0, time=30),\n",
       "   Message('note_on', channel=9, note=81, velocity=0, time=0),\n",
       "   Message('note_on', channel=9, note=44, velocity=100, time=0),\n",
       "   Message('note_on', channel=9, note=33, velocity=100, time=0),\n",
       "   Message('note_on', channel=9, note=44, velocity=0, time=30),\n",
       "   Message('note_on', channel=9, note=33, velocity=0, time=30),\n",
       "   Message('note_on', channel=9, note=44, velocity=100, time=0),\n",
       "   Message('note_on', channel=9, note=44, velocity=0, time=30),\n",
       "   Message('note_on', channel=9, note=44, velocity=100, time=0),\n",
       "   Message('note_on', channel=9, note=44, velocity=0, time=30),\n",
       "   Message('note_on', channel=9, note=40, velocity=100, time=0),\n",
       "   Message('note_on', channel=9, note=44, velocity=100, time=0),\n",
       "   Message('note_on', channel=9, note=44, velocity=0, time=30),\n",
       "   Message('note_on', channel=9, note=40, velocity=0, time=30),\n",
       "   Message('note_on', channel=9, note=44, velocity=100, time=0),\n",
       "   Message('note_on', channel=9, note=33, velocity=100, time=0),\n",
       "   Message('note_on', channel=9, note=44, velocity=0, time=30),\n",
       "   Message('note_on', channel=9, note=44, velocity=100, time=0),\n",
       "   Message('note_on', channel=9, note=44, velocity=0, time=30),\n",
       "   Message('note_on', channel=9, note=33, velocity=0, time=0),\n",
       "   Message('note_on', channel=9, note=44, velocity=100, time=0),\n",
       "   Message('note_on', channel=9, note=33, velocity=100, time=0),\n",
       "   Message('note_on', channel=9, note=44, velocity=0, time=30),\n",
       "   Message('note_on', channel=9, note=33, velocity=0, time=30),\n",
       "   Message('note_on', channel=9, note=44, velocity=100, time=0),\n",
       "   Message('note_on', channel=9, note=44, velocity=0, time=30),\n",
       "   Message('note_on', channel=9, note=44, velocity=100, time=0),\n",
       "   Message('note_on', channel=9, note=44, velocity=0, time=30),\n",
       "   Message('note_on', channel=9, note=81, velocity=100, time=0),\n",
       "   Message('note_on', channel=9, note=40, velocity=100, time=0),\n",
       "   Message('note_on', channel=9, note=44, velocity=100, time=0),\n",
       "   Message('note_on', channel=9, note=44, velocity=0, time=30),\n",
       "   Message('note_on', channel=9, note=40, velocity=0, time=0),\n",
       "   Message('note_on', channel=9, note=44, velocity=100, time=30),\n",
       "   Message('note_on', channel=9, note=44, velocity=0, time=30),\n",
       "   Message('note_on', channel=9, note=44, velocity=100, time=0),\n",
       "   Message('note_on', channel=9, note=44, velocity=0, time=30),\n",
       "   Message('note_on', channel=9, note=81, velocity=0, time=0),\n",
       "   Message('note_on', channel=9, note=44, velocity=100, time=0),\n",
       "   Message('note_on', channel=9, note=33, velocity=100, time=0),\n",
       "   Message('note_on', channel=9, note=44, velocity=0, time=30),\n",
       "   Message('note_on', channel=9, note=33, velocity=0, time=30),\n",
       "   Message('note_on', channel=9, note=44, velocity=100, time=0),\n",
       "   Message('note_on', channel=9, note=44, velocity=0, time=30),\n",
       "   Message('note_on', channel=9, note=44, velocity=100, time=0),\n",
       "   Message('note_on', channel=9, note=44, velocity=0, time=30),\n",
       "   Message('note_on', channel=9, note=40, velocity=100, time=0),\n",
       "   Message('note_on', channel=9, note=44, velocity=100, time=0),\n",
       "   Message('note_on', channel=9, note=44, velocity=0, time=30),\n",
       "   Message('note_on', channel=9, note=40, velocity=0, time=30),\n",
       "   Message('note_on', channel=9, note=44, velocity=100, time=0),\n",
       "   Message('note_on', channel=9, note=33, velocity=100, time=0),\n",
       "   Message('note_on', channel=9, note=44, velocity=0, time=30),\n",
       "   Message('note_on', channel=9, note=44, velocity=100, time=0),\n",
       "   Message('note_on', channel=9, note=44, velocity=0, time=30),\n",
       "   Message('note_on', channel=9, note=33, velocity=0, time=0),\n",
       "   Message('note_on', channel=9, note=44, velocity=100, time=0),\n",
       "   Message('note_on', channel=9, note=33, velocity=100, time=0),\n",
       "   Message('note_on', channel=9, note=44, velocity=0, time=30),\n",
       "   Message('note_on', channel=9, note=33, velocity=0, time=30),\n",
       "   Message('note_on', channel=9, note=82, velocity=100, time=0),\n",
       "   Message('note_on', channel=9, note=44, velocity=100, time=0),\n",
       "   Message('note_on', channel=9, note=44, velocity=0, time=30),\n",
       "   Message('note_on', channel=9, note=44, velocity=100, time=0),\n",
       "   Message('note_on', channel=9, note=44, velocity=0, time=30),\n",
       "   Message('note_on', channel=9, note=82, velocity=0, time=0),\n",
       "   Message('note_on', channel=9, note=70, velocity=100, time=0),\n",
       "   Message('note_on', channel=9, note=81, velocity=100, time=0),\n",
       "   Message('note_on', channel=9, note=40, velocity=100, time=0),\n",
       "   Message('note_on', channel=9, note=44, velocity=100, time=0),\n",
       "   Message('note_on', channel=9, note=44, velocity=0, time=30),\n",
       "   Message('note_on', channel=9, note=40, velocity=0, time=0),\n",
       "   Message('note_on', channel=9, note=70, velocity=0, time=30),\n",
       "   Message('note_on', channel=9, note=32, velocity=100, time=0),\n",
       "   Message('note_on', channel=9, note=44, velocity=100, time=0),\n",
       "   Message('note_on', channel=9, note=44, velocity=0, time=30),\n",
       "   Message('note_on', channel=9, note=44, velocity=100, time=0),\n",
       "   Message('note_on', channel=9, note=44, velocity=0, time=30),\n",
       "   Message('note_on', channel=9, note=32, velocity=0, time=0),\n",
       "   Message('note_on', channel=9, note=81, velocity=0, time=0),\n",
       "   Message('note_on', channel=9, note=44, velocity=100, time=0),\n",
       "   Message('note_on', channel=9, note=33, velocity=100, time=0),\n",
       "   Message('note_on', channel=9, note=44, velocity=0, time=30),\n",
       "   Message('note_on', channel=9, note=33, velocity=0, time=30),\n",
       "   Message('note_on', channel=9, note=44, velocity=100, time=0),\n",
       "   Message('note_on', channel=9, note=44, velocity=0, time=30),\n",
       "   Message('note_on', channel=9, note=44, velocity=100, time=0),\n",
       "   Message('note_on', channel=9, note=44, velocity=0, time=30),\n",
       "   Message('note_on', channel=9, note=40, velocity=100, time=0),\n",
       "   Message('note_on', channel=9, note=44, velocity=100, time=0),\n",
       "   Message('note_on', channel=9, note=44, velocity=0, time=30),\n",
       "   Message('note_on', channel=9, note=40, velocity=0, time=30),\n",
       "   Message('note_on', channel=9, note=44, velocity=100, time=0),\n",
       "   Message('note_on', channel=9, note=33, velocity=100, time=0),\n",
       "   Message('note_on', channel=9, note=44, velocity=0, time=30),\n",
       "   Message('note_on', channel=9, note=44, velocity=100, time=0),\n",
       "   Message('note_on', channel=9, note=44, velocity=0, time=30),\n",
       "   Message('note_on', channel=9, note=33, velocity=0, time=0),\n",
       "   Message('note_on', channel=9, note=44, velocity=100, time=0),\n",
       "   Message('note_on', channel=9, note=33, velocity=100, time=0),\n",
       "   Message('note_on', channel=9, note=44, velocity=0, time=30),\n",
       "   Message('note_on', channel=9, note=33, velocity=0, time=30),\n",
       "   Message('note_on', channel=9, note=44, velocity=100, time=0),\n",
       "   Message('note_on', channel=9, note=44, velocity=0, time=30),\n",
       "   Message('note_on', channel=9, note=44, velocity=100, time=0),\n",
       "   Message('note_on', channel=9, note=44, velocity=0, time=30),\n",
       "   Message('note_on', channel=9, note=81, velocity=100, time=0),\n",
       "   Message('note_on', channel=9, note=40, velocity=100, time=0),\n",
       "   Message('note_on', channel=9, note=44, velocity=100, time=0),\n",
       "   Message('note_on', channel=9, note=44, velocity=0, time=30),\n",
       "   Message('note_on', channel=9, note=40, velocity=0, time=0),\n",
       "   Message('note_on', channel=9, note=44, velocity=100, time=30),\n",
       "   Message('note_on', channel=9, note=44, velocity=0, time=30),\n",
       "   Message('note_on', channel=9, note=44, velocity=100, time=0),\n",
       "   Message('note_on', channel=9, note=44, velocity=0, time=30),\n",
       "   Message('note_on', channel=9, note=81, velocity=0, time=0),\n",
       "   Message('note_on', channel=9, note=44, velocity=100, time=0),\n",
       "   Message('note_on', channel=9, note=33, velocity=100, time=0),\n",
       "   Message('note_on', channel=9, note=44, velocity=0, time=30),\n",
       "   Message('note_on', channel=9, note=33, velocity=0, time=30),\n",
       "   Message('note_on', channel=9, note=44, velocity=100, time=0),\n",
       "   Message('note_on', channel=9, note=44, velocity=0, time=30),\n",
       "   Message('note_on', channel=9, note=44, velocity=100, time=0),\n",
       "   Message('note_on', channel=9, note=44, velocity=0, time=30),\n",
       "   Message('note_on', channel=9, note=40, velocity=100, time=0),\n",
       "   Message('note_on', channel=9, note=44, velocity=100, time=0),\n",
       "   Message('note_on', channel=9, note=44, velocity=0, time=30),\n",
       "   Message('note_on', channel=9, note=40, velocity=0, time=30),\n",
       "   Message('note_on', channel=9, note=44, velocity=100, time=0),\n",
       "   Message('note_on', channel=9, note=33, velocity=100, time=0),\n",
       "   Message('note_on', channel=9, note=44, velocity=0, time=30),\n",
       "   Message('note_on', channel=9, note=44, velocity=100, time=0),\n",
       "   Message('note_on', channel=9, note=44, velocity=0, time=30),\n",
       "   Message('note_on', channel=9, note=33, velocity=0, time=0),\n",
       "   Message('note_on', channel=9, note=44, velocity=100, time=0),\n",
       "   Message('note_on', channel=9, note=33, velocity=100, time=0),\n",
       "   Message('note_on', channel=9, note=44, velocity=0, time=30),\n",
       "   Message('note_on', channel=9, note=33, velocity=0, time=30),\n",
       "   Message('note_on', channel=9, note=44, velocity=100, time=0),\n",
       "   Message('note_on', channel=9, note=44, velocity=0, time=30),\n",
       "   Message('note_on', channel=9, note=44, velocity=100, time=0),\n",
       "   Message('note_on', channel=9, note=44, velocity=0, time=30),\n",
       "   Message('note_on', channel=9, note=81, velocity=100, time=0),\n",
       "   Message('note_on', channel=9, note=40, velocity=100, time=0),\n",
       "   Message('note_on', channel=9, note=44, velocity=100, time=0),\n",
       "   Message('note_on', channel=9, note=44, velocity=0, time=30),\n",
       "   Message('note_on', channel=9, note=40, velocity=0, time=0),\n",
       "   Message('note_on', channel=9, note=44, velocity=100, time=30),\n",
       "   Message('note_on', channel=9, note=44, velocity=0, time=30),\n",
       "   Message('note_on', channel=9, note=44, velocity=100, time=0),\n",
       "   Message('note_on', channel=9, note=44, velocity=0, time=30),\n",
       "   Message('note_on', channel=9, note=81, velocity=0, time=0),\n",
       "   Message('note_on', channel=9, note=44, velocity=100, time=0),\n",
       "   Message('note_on', channel=9, note=33, velocity=100, time=0),\n",
       "   Message('note_on', channel=9, note=44, velocity=0, time=30),\n",
       "   Message('note_on', channel=9, note=33, velocity=0, time=30),\n",
       "   Message('note_on', channel=9, note=44, velocity=100, time=0),\n",
       "   Message('note_on', channel=9, note=44, velocity=0, time=30),\n",
       "   Message('note_on', channel=9, note=44, velocity=100, time=0),\n",
       "   Message('note_on', channel=9, note=44, velocity=0, time=30),\n",
       "   Message('note_on', channel=9, note=40, velocity=100, time=0),\n",
       "   Message('note_on', channel=9, note=44, velocity=100, time=0),\n",
       "   Message('note_on', channel=9, note=44, velocity=0, time=30),\n",
       "   Message('note_on', channel=9, note=40, velocity=0, time=30),\n",
       "   Message('note_on', channel=9, note=44, velocity=100, time=0),\n",
       "   Message('note_on', channel=9, note=33, velocity=100, time=0),\n",
       "   Message('note_on', channel=9, note=44, velocity=0, time=30),\n",
       "   Message('note_on', channel=9, note=44, velocity=100, time=0),\n",
       "   Message('note_on', channel=9, note=44, velocity=0, time=30),\n",
       "   Message('note_on', channel=9, note=33, velocity=0, time=0),\n",
       "   Message('note_on', channel=9, note=44, velocity=100, time=0),\n",
       "   Message('note_on', channel=9, note=33, velocity=100, time=0),\n",
       "   Message('note_on', channel=9, note=44, velocity=0, time=30),\n",
       "   Message('note_on', channel=9, note=33, velocity=0, time=30),\n",
       "   Message('note_on', channel=9, note=44, velocity=100, time=0),\n",
       "   Message('note_on', channel=9, note=44, velocity=0, time=30),\n",
       "   Message('note_on', channel=9, note=44, velocity=100, time=0),\n",
       "   Message('note_on', channel=9, note=44, velocity=0, time=30),\n",
       "   Message('note_on', channel=9, note=81, velocity=100, time=0),\n",
       "   Message('note_on', channel=9, note=40, velocity=100, time=0),\n",
       "   Message('note_on', channel=9, note=44, velocity=100, time=0),\n",
       "   Message('note_on', channel=9, note=44, velocity=0, time=30),\n",
       "   Message('note_on', channel=9, note=40, velocity=0, time=0),\n",
       "   Message('note_on', channel=9, note=44, velocity=100, time=30),\n",
       "   Message('note_on', channel=9, note=44, velocity=0, time=30),\n",
       "   Message('note_on', channel=9, note=44, velocity=100, time=0),\n",
       "   Message('note_on', channel=9, note=44, velocity=0, time=30),\n",
       "   Message('note_on', channel=9, note=81, velocity=0, time=0),\n",
       "   Message('note_on', channel=9, note=44, velocity=100, time=0),\n",
       "   Message('note_on', channel=9, note=33, velocity=100, time=0),\n",
       "   Message('note_on', channel=9, note=44, velocity=0, time=30),\n",
       "   Message('note_on', channel=9, note=33, velocity=0, time=30),\n",
       "   Message('note_on', channel=9, note=44, velocity=100, time=0),\n",
       "   Message('note_on', channel=9, note=44, velocity=0, time=30),\n",
       "   Message('note_on', channel=9, note=44, velocity=100, time=0),\n",
       "   Message('note_on', channel=9, note=44, velocity=0, time=30),\n",
       "   Message('note_on', channel=9, note=40, velocity=100, time=0),\n",
       "   Message('note_on', channel=9, note=44, velocity=100, time=0),\n",
       "   Message('note_on', channel=9, note=44, velocity=0, time=30),\n",
       "   Message('note_on', channel=9, note=40, velocity=0, time=30),\n",
       "   Message('note_on', channel=9, note=44, velocity=100, time=0),\n",
       "   Message('note_on', channel=9, note=33, velocity=100, time=0),\n",
       "   Message('note_on', channel=9, note=44, velocity=0, time=30),\n",
       "   Message('note_on', channel=9, note=44, velocity=100, time=0),\n",
       "   Message('note_on', channel=9, note=44, velocity=0, time=30),\n",
       "   Message('note_on', channel=9, note=33, velocity=0, time=0),\n",
       "   Message('note_on', channel=9, note=44, velocity=100, time=0),\n",
       "   Message('note_on', channel=9, note=33, velocity=100, time=0),\n",
       "   Message('note_on', channel=9, note=44, velocity=0, time=30),\n",
       "   Message('note_on', channel=9, note=33, velocity=0, time=30),\n",
       "   Message('note_on', channel=9, note=50, velocity=100, time=0),\n",
       "   Message('note_on', channel=9, note=44, velocity=100, time=0),\n",
       "   Message('note_on', channel=9, note=44, velocity=0, time=30),\n",
       "   Message('note_on', channel=9, note=50, velocity=0, time=0),\n",
       "   Message('note_on', channel=9, note=76, velocity=100, time=0),\n",
       "   Message('note_on', channel=9, note=50, velocity=100, time=0),\n",
       "   Message('note_on', channel=9, note=44, velocity=100, time=0),\n",
       "   Message('note_on', channel=9, note=44, velocity=0, time=30),\n",
       "   Message('note_on', channel=9, note=50, velocity=0, time=0),\n",
       "   Message('note_on', channel=9, note=76, velocity=0, time=0),\n",
       "   Message('note_on', channel=9, note=25, velocity=100, time=0),\n",
       "   Message('note_on', channel=9, note=47, velocity=100, time=0),\n",
       "   Message('note_on', channel=9, note=81, velocity=100, time=0),\n",
       "   Message('note_on', channel=9, note=40, velocity=100, time=0),\n",
       "   Message('note_on', channel=9, note=44, velocity=100, time=0),\n",
       "   Message('note_on', channel=9, note=44, velocity=0, time=30),\n",
       "   Message('note_on', channel=9, note=47, velocity=0, time=0),\n",
       "   Message('note_on', channel=9, note=25, velocity=0, time=0),\n",
       "   Message('note_on', channel=9, note=40, velocity=0, time=0),\n",
       "   Message('note_on', channel=9, note=30, velocity=100, time=0),\n",
       "   Message('note_on', channel=9, note=30, velocity=0, time=30),\n",
       "   Message('note_on', channel=9, note=28, velocity=100, time=0),\n",
       "   Message('note_on', channel=9, note=45, velocity=100, time=0),\n",
       "   Message('note_on', channel=9, note=44, velocity=100, time=0),\n",
       "   Message('note_on', channel=9, note=44, velocity=0, time=30),\n",
       "   Message('note_on', channel=9, note=45, velocity=0, time=0),\n",
       "   Message('note_on', channel=9, note=28, velocity=0, time=0),\n",
       "   Message('note_on', channel=9, note=16, velocity=100, time=0),\n",
       "   Message('note_on', channel=9, note=23, velocity=100, time=0),\n",
       "   Message('note_on', channel=9, note=44, velocity=100, time=0),\n",
       "   Message('note_on', channel=9, note=44, velocity=0, time=30),\n",
       "   Message('note_on', channel=9, note=81, velocity=0, time=0),\n",
       "   Message('note_on', channel=9, note=16, velocity=0, time=0),\n",
       "   Message('note_on', channel=9, note=23, velocity=0, time=0),\n",
       "   Message('note_on', channel=9, note=59, velocity=100, time=0),\n",
       "   Message('note_on', channel=9, note=44, velocity=100, time=0),\n",
       "   Message('note_on', channel=9, note=33, velocity=100, time=0),\n",
       "   Message('note_on', channel=9, note=44, velocity=0, time=30),\n",
       "   Message('note_on', channel=9, note=59, velocity=0, time=0),\n",
       "   Message('note_on', channel=9, note=33, velocity=0, time=30),\n",
       "   Message('note_on', channel=9, note=44, velocity=100, time=0),\n",
       "   Message('note_on', channel=9, note=44, velocity=0, time=30),\n",
       "   Message('note_on', channel=9, note=44, velocity=100, time=0),\n",
       "   Message('note_on', channel=9, note=44, velocity=0, time=30),\n",
       "   Message('note_on', channel=9, note=40, velocity=100, time=0),\n",
       "   Message('note_on', channel=9, note=44, velocity=100, time=0),\n",
       "   Message('note_on', channel=9, note=44, velocity=0, time=30),\n",
       "   Message('note_on', channel=9, note=40, velocity=0, time=30),\n",
       "   Message('note_on', channel=9, note=44, velocity=100, time=0),\n",
       "   Message('note_on', channel=9, note=33, velocity=100, time=0),\n",
       "   Message('note_on', channel=9, note=44, velocity=0, time=30),\n",
       "   Message('note_on', channel=9, note=44, velocity=100, time=0),\n",
       "   Message('note_on', channel=9, note=44, velocity=0, time=30),\n",
       "   Message('note_on', channel=9, note=33, velocity=0, time=0),\n",
       "   Message('note_on', channel=9, note=44, velocity=100, time=0),\n",
       "   Message('note_on', channel=9, note=33, velocity=100, time=0),\n",
       "   Message('note_on', channel=9, note=44, velocity=0, time=30),\n",
       "   Message('note_on', channel=9, note=33, velocity=0, time=30),\n",
       "   Message('note_on', channel=9, note=44, velocity=100, time=0),\n",
       "   Message('note_on', channel=9, note=44, velocity=0, time=30),\n",
       "   Message('note_on', channel=9, note=44, velocity=100, time=0),\n",
       "   Message('note_on', channel=9, note=44, velocity=0, time=30),\n",
       "   Message('note_on', channel=9, note=81, velocity=100, time=0),\n",
       "   Message('note_on', channel=9, note=40, velocity=100, time=0),\n",
       "   Message('note_on', channel=9, note=44, velocity=100, time=0),\n",
       "   Message('note_on', channel=9, note=44, velocity=0, time=30),\n",
       "   Message('note_on', channel=9, note=40, velocity=0, time=0),\n",
       "   Message('note_on', channel=9, note=44, velocity=100, time=30),\n",
       "   Message('note_on', channel=9, note=44, velocity=0, time=30),\n",
       "   Message('note_on', channel=9, note=44, velocity=100, time=0),\n",
       "   Message('note_on', channel=9, note=44, velocity=0, time=30),\n",
       "   Message('note_on', channel=9, note=81, velocity=0, time=0),\n",
       "   Message('note_on', channel=9, note=44, velocity=100, time=0),\n",
       "   Message('note_on', channel=9, note=33, velocity=100, time=0),\n",
       "   Message('note_on', channel=9, note=44, velocity=0, time=30),\n",
       "   Message('note_on', channel=9, note=33, velocity=0, time=30),\n",
       "   Message('note_on', channel=9, note=44, velocity=100, time=0),\n",
       "   Message('note_on', channel=9, note=44, velocity=0, time=30),\n",
       "   Message('note_on', channel=9, note=44, velocity=100, time=0),\n",
       "   Message('note_on', channel=9, note=44, velocity=0, time=30),\n",
       "   Message('note_on', channel=9, note=40, velocity=100, time=0),\n",
       "   Message('note_on', channel=9, note=44, velocity=100, time=0),\n",
       "   Message('note_on', channel=9, note=44, velocity=0, time=30),\n",
       "   Message('note_on', channel=9, note=40, velocity=0, time=30),\n",
       "   Message('note_on', channel=9, note=44, velocity=100, time=0),\n",
       "   Message('note_on', channel=9, note=33, velocity=100, time=0),\n",
       "   Message('note_on', channel=9, note=44, velocity=0, time=30),\n",
       "   Message('note_on', channel=9, note=44, velocity=100, time=0),\n",
       "   Message('note_on', channel=9, note=44, velocity=0, time=30),\n",
       "   Message('note_on', channel=9, note=33, velocity=0, time=0),\n",
       "   Message('note_on', channel=9, note=44, velocity=100, time=0),\n",
       "   Message('note_on', channel=9, note=33, velocity=100, time=0),\n",
       "   Message('note_on', channel=9, note=44, velocity=0, time=30),\n",
       "   Message('note_on', channel=9, note=33, velocity=0, time=30),\n",
       "   Message('note_on', channel=9, note=44, velocity=100, time=0),\n",
       "   Message('note_on', channel=9, note=44, velocity=0, time=30),\n",
       "   Message('note_on', channel=9, note=44, velocity=100, time=0),\n",
       "   Message('note_on', channel=9, note=44, velocity=0, time=30),\n",
       "   Message('note_on', channel=9, note=81, velocity=100, time=0),\n",
       "   Message('note_on', channel=9, note=40, velocity=100, time=0),\n",
       "   Message('note_on', channel=9, note=44, velocity=100, time=0),\n",
       "   Message('note_on', channel=9, note=44, velocity=0, time=30),\n",
       "   Message('note_on', channel=9, note=40, velocity=0, time=0),\n",
       "   Message('note_on', channel=9, note=44, velocity=100, time=30),\n",
       "   Message('note_on', channel=9, note=44, velocity=0, time=30),\n",
       "   Message('note_on', channel=9, note=44, velocity=100, time=0),\n",
       "   Message('note_on', channel=9, note=44, velocity=0, time=30),\n",
       "   Message('note_on', channel=9, note=81, velocity=0, time=0),\n",
       "   Message('note_on', channel=9, note=44, velocity=100, time=0),\n",
       "   Message('note_on', channel=9, note=33, velocity=100, time=0),\n",
       "   Message('note_on', channel=9, note=44, velocity=0, time=30),\n",
       "   Message('note_on', channel=9, note=33, velocity=0, time=30),\n",
       "   Message('note_on', channel=9, note=44, velocity=100, time=0),\n",
       "   Message('note_on', channel=9, note=44, velocity=0, time=30),\n",
       "   Message('note_on', channel=9, note=44, velocity=100, time=0),\n",
       "   Message('note_on', channel=9, note=44, velocity=0, time=30),\n",
       "   Message('note_on', channel=9, note=40, velocity=100, time=0),\n",
       "   Message('note_on', channel=9, note=44, velocity=100, time=0),\n",
       "   Message('note_on', channel=9, note=44, velocity=0, time=30),\n",
       "   Message('note_on', channel=9, note=40, velocity=0, time=30),\n",
       "   Message('note_on', channel=9, note=44, velocity=100, time=0),\n",
       "   Message('note_on', channel=9, note=33, velocity=100, time=0),\n",
       "   Message('note_on', channel=9, note=44, velocity=0, time=30),\n",
       "   Message('note_on', channel=9, note=44, velocity=100, time=0),\n",
       "   Message('note_on', channel=9, note=44, velocity=0, time=30),\n",
       "   Message('note_on', channel=9, note=33, velocity=0, time=0),\n",
       "   Message('note_on', channel=9, note=44, velocity=100, time=0),\n",
       "   Message('note_on', channel=9, note=33, velocity=100, time=0),\n",
       "   Message('note_on', channel=9, note=44, velocity=0, time=30),\n",
       "   Message('note_on', channel=9, note=33, velocity=0, time=30),\n",
       "   Message('note_on', channel=9, note=44, velocity=100, time=0),\n",
       "   Message('note_on', channel=9, note=44, velocity=0, time=30),\n",
       "   Message('note_on', channel=9, note=44, velocity=100, time=0),\n",
       "   Message('note_on', channel=9, note=44, velocity=0, time=30),\n",
       "   Message('note_on', channel=9, note=81, velocity=100, time=0),\n",
       "   Message('note_on', channel=9, note=40, velocity=100, time=0),\n",
       "   Message('note_on', channel=9, note=44, velocity=100, time=0),\n",
       "   Message('note_on', channel=9, note=44, velocity=0, time=30),\n",
       "   Message('note_on', channel=9, note=40, velocity=0, time=0),\n",
       "   Message('note_on', channel=9, note=44, velocity=100, time=30),\n",
       "   Message('note_on', channel=9, note=44, velocity=0, time=30),\n",
       "   Message('note_on', channel=9, note=44, velocity=100, time=0),\n",
       "   Message('note_on', channel=9, note=44, velocity=0, time=30),\n",
       "   Message('note_on', channel=9, note=81, velocity=0, time=0),\n",
       "   Message('note_on', channel=9, note=44, velocity=100, time=0),\n",
       "   Message('note_on', channel=9, note=33, velocity=100, time=0),\n",
       "   Message('note_on', channel=9, note=44, velocity=0, time=30),\n",
       "   Message('note_on', channel=9, note=33, velocity=0, time=30),\n",
       "   Message('note_on', channel=9, note=44, velocity=100, time=0),\n",
       "   Message('note_on', channel=9, note=44, velocity=0, time=30),\n",
       "   Message('note_on', channel=9, note=44, velocity=100, time=0),\n",
       "   Message('note_on', channel=9, note=44, velocity=0, time=30),\n",
       "   Message('note_on', channel=9, note=40, velocity=100, time=0),\n",
       "   Message('note_on', channel=9, note=44, velocity=100, time=0),\n",
       "   Message('note_on', channel=9, note=44, velocity=0, time=30),\n",
       "   Message('note_on', channel=9, note=40, velocity=0, time=30),\n",
       "   Message('note_on', channel=9, note=44, velocity=100, time=0),\n",
       "   Message('note_on', channel=9, note=33, velocity=100, time=0),\n",
       "   Message('note_on', channel=9, note=44, velocity=0, time=30),\n",
       "   Message('note_on', channel=9, note=44, velocity=100, time=0),\n",
       "   Message('note_on', channel=9, note=44, velocity=0, time=30),\n",
       "   Message('note_on', channel=9, note=33, velocity=0, time=0),\n",
       "   Message('note_on', channel=9, note=44, velocity=100, time=0),\n",
       "   Message('note_on', channel=9, note=33, velocity=100, time=0),\n",
       "   Message('note_on', channel=9, note=44, velocity=0, time=30),\n",
       "   Message('note_on', channel=9, note=33, velocity=0, time=30),\n",
       "   Message('note_on', channel=9, note=50, velocity=100, time=0),\n",
       "   Message('note_on', channel=9, note=44, velocity=100, time=0),\n",
       "   Message('note_on', channel=9, note=44, velocity=0, time=30),\n",
       "   Message('note_on', channel=9, note=44, velocity=100, time=0),\n",
       "   Message('note_on', channel=9, note=44, velocity=0, time=30),\n",
       "   Message('note_on', channel=9, note=50, velocity=0, time=0),\n",
       "   Message('note_on', channel=9, note=47, velocity=100, time=0),\n",
       "   Message('note_on', channel=9, note=81, velocity=100, time=0),\n",
       "   Message('note_on', channel=9, note=40, velocity=100, time=0),\n",
       "   Message('note_on', channel=9, note=44, velocity=100, time=0),\n",
       "   Message('note_on', channel=9, note=44, velocity=0, time=30),\n",
       "   Message('note_on', channel=9, note=40, velocity=0, time=0),\n",
       "   Message('note_on', channel=9, note=47, velocity=0, time=30),\n",
       "   Message('note_on', channel=9, note=45, velocity=100, time=0),\n",
       "   Message('note_on', channel=9, note=44, velocity=100, time=0),\n",
       "   Message('note_on', channel=9, note=44, velocity=0, time=30),\n",
       "   Message('note_on', channel=9, note=44, velocity=100, time=0),\n",
       "   Message('note_on', channel=9, note=44, velocity=0, time=30),\n",
       "   Message('note_on', channel=9, note=45, velocity=0, time=0),\n",
       "   Message('note_on', channel=9, note=81, velocity=0, time=0),\n",
       "   Message('note_on', channel=9, note=44, velocity=100, time=0),\n",
       "   Message('note_on', channel=9, note=33, velocity=100, time=0),\n",
       "   Message('note_on', channel=9, note=44, velocity=0, time=30),\n",
       "   Message('note_on', channel=9, note=33, velocity=0, time=30),\n",
       "   Message('note_on', channel=9, note=44, velocity=100, time=0),\n",
       "   Message('note_on', channel=9, note=44, velocity=0, time=30),\n",
       "   Message('note_on', channel=9, note=44, velocity=100, time=0),\n",
       "   Message('note_on', channel=9, note=44, velocity=0, time=30),\n",
       "   Message('note_on', channel=9, note=40, velocity=100, time=0),\n",
       "   Message('note_on', channel=9, note=44, velocity=100, time=0),\n",
       "   Message('note_on', channel=9, note=44, velocity=0, time=30),\n",
       "   Message('note_on', channel=9, note=40, velocity=0, time=30),\n",
       "   Message('note_on', channel=9, note=44, velocity=100, time=0),\n",
       "   Message('note_on', channel=9, note=33, velocity=100, time=0),\n",
       "   Message('note_on', channel=9, note=44, velocity=0, time=30),\n",
       "   Message('note_on', channel=9, note=44, velocity=100, time=0),\n",
       "   Message('note_on', channel=9, note=44, velocity=0, time=30),\n",
       "   Message('note_on', channel=9, note=33, velocity=0, time=0),\n",
       "   Message('note_on', channel=9, note=44, velocity=100, time=0),\n",
       "   Message('note_on', channel=9, note=33, velocity=100, time=0),\n",
       "   Message('note_on', channel=9, note=44, velocity=0, time=30),\n",
       "   Message('note_on', channel=9, note=33, velocity=0, time=30),\n",
       "   Message('note_on', channel=9, note=44, velocity=100, time=0),\n",
       "   Message('note_on', channel=9, note=44, velocity=0, time=30),\n",
       "   Message('note_on', channel=9, note=44, velocity=100, time=0),\n",
       "   Message('note_on', channel=9, note=44, velocity=0, time=30),\n",
       "   Message('note_on', channel=9, note=81, velocity=100, time=0),\n",
       "   Message('note_on', channel=9, note=40, velocity=100, time=0),\n",
       "   Message('note_on', channel=9, note=44, velocity=100, time=0),\n",
       "   Message('note_on', channel=9, note=44, velocity=0, time=30),\n",
       "   Message('note_on', channel=9, note=40, velocity=0, time=0),\n",
       "   Message('note_on', channel=9, note=44, velocity=100, time=30),\n",
       "   Message('note_on', channel=9, note=44, velocity=0, time=30),\n",
       "   Message('note_on', channel=9, note=44, velocity=100, time=0),\n",
       "   Message('note_on', channel=9, note=44, velocity=0, time=30),\n",
       "   Message('note_on', channel=9, note=81, velocity=0, time=0),\n",
       "   Message('note_on', channel=9, note=44, velocity=100, time=0),\n",
       "   Message('note_on', channel=9, note=33, velocity=100, time=0),\n",
       "   Message('note_on', channel=9, note=44, velocity=0, time=30),\n",
       "   Message('note_on', channel=9, note=33, velocity=0, time=30),\n",
       "   Message('note_on', channel=9, note=44, velocity=100, time=0),\n",
       "   Message('note_on', channel=9, note=44, velocity=0, time=30),\n",
       "   Message('note_on', channel=9, note=44, velocity=100, time=0),\n",
       "   Message('note_on', channel=9, note=44, velocity=0, time=30),\n",
       "   Message('note_on', channel=9, note=40, velocity=100, time=0),\n",
       "   Message('note_on', channel=9, note=44, velocity=100, time=0),\n",
       "   Message('note_on', channel=9, note=44, velocity=0, time=30),\n",
       "   Message('note_on', channel=9, note=40, velocity=0, time=30),\n",
       "   Message('note_on', channel=9, note=44, velocity=100, time=0),\n",
       "   Message('note_on', channel=9, note=33, velocity=100, time=0),\n",
       "   Message('note_on', channel=9, note=44, velocity=0, time=30),\n",
       "   Message('note_on', channel=9, note=44, velocity=100, time=0),\n",
       "   Message('note_on', channel=9, note=44, velocity=0, time=30),\n",
       "   Message('note_on', channel=9, note=33, velocity=0, time=0),\n",
       "   Message('note_on', channel=9, note=44, velocity=100, time=0),\n",
       "   Message('note_on', channel=9, note=33, velocity=100, time=0),\n",
       "   Message('note_on', channel=9, note=44, velocity=0, time=30),\n",
       "   Message('note_on', channel=9, note=33, velocity=0, time=30),\n",
       "   Message('note_on', channel=9, note=44, velocity=100, time=0),\n",
       "   Message('note_on', channel=9, note=44, velocity=0, time=30),\n",
       "   Message('note_on', channel=9, note=44, velocity=100, time=0),\n",
       "   Message('note_on', channel=9, note=44, velocity=0, time=30),\n",
       "   Message('note_on', channel=9, note=81, velocity=100, time=0),\n",
       "   Message('note_on', channel=9, note=40, velocity=100, time=0),\n",
       "   Message('note_on', channel=9, note=44, velocity=100, time=0),\n",
       "   Message('note_on', channel=9, note=44, velocity=0, time=30),\n",
       "   Message('note_on', channel=9, note=40, velocity=0, time=0),\n",
       "   Message('note_on', channel=9, note=44, velocity=100, time=30),\n",
       "   Message('note_on', channel=9, note=44, velocity=0, time=30),\n",
       "   Message('note_on', channel=9, note=44, velocity=100, time=0),\n",
       "   Message('note_on', channel=9, note=44, velocity=0, time=30),\n",
       "   Message('note_on', channel=9, note=81, velocity=0, time=0),\n",
       "   Message('note_on', channel=9, note=44, velocity=100, time=0),\n",
       "   Message('note_on', channel=9, note=33, velocity=100, time=0),\n",
       "   Message('note_on', channel=9, note=44, velocity=0, time=30),\n",
       "   Message('note_on', channel=9, note=33, velocity=0, time=30),\n",
       "   Message('note_on', channel=9, note=44, velocity=100, time=0),\n",
       "   Message('note_on', channel=9, note=44, velocity=0, time=30),\n",
       "   Message('note_on', channel=9, note=44, velocity=100, time=0),\n",
       "   Message('note_on', channel=9, note=44, velocity=0, time=30),\n",
       "   Message('note_on', channel=9, note=40, velocity=100, time=0),\n",
       "   Message('note_on', channel=9, note=44, velocity=100, time=0),\n",
       "   Message('note_on', channel=9, note=44, velocity=0, time=30),\n",
       "   Message('note_on', channel=9, note=40, velocity=0, time=30),\n",
       "   Message('note_on', channel=9, note=44, velocity=100, time=0),\n",
       "   Message('note_on', channel=9, note=33, velocity=100, time=0),\n",
       "   Message('note_on', channel=9, note=44, velocity=0, time=30),\n",
       "   Message('note_on', channel=9, note=44, velocity=100, time=0),\n",
       "   Message('note_on', channel=9, note=44, velocity=0, time=30),\n",
       "   Message('note_on', channel=9, note=33, velocity=0, time=0),\n",
       "   Message('note_on', channel=9, note=44, velocity=100, time=0),\n",
       "   Message('note_on', channel=9, note=33, velocity=100, time=0),\n",
       "   Message('note_on', channel=9, note=44, velocity=0, time=30),\n",
       "   Message('note_on', channel=9, note=33, velocity=0, time=30),\n",
       "   Message('note_on', channel=9, note=44, velocity=100, time=0),\n",
       "   Message('note_on', channel=9, note=44, velocity=0, time=30),\n",
       "   Message('note_on', channel=9, note=44, velocity=100, time=0),\n",
       "   Message('note_on', channel=9, note=44, velocity=0, time=30),\n",
       "   Message('note_on', channel=9, note=81, velocity=100, time=0),\n",
       "   Message('note_on', channel=9, note=40, velocity=100, time=0),\n",
       "   Message('note_on', channel=9, note=44, velocity=100, time=0),\n",
       "   Message('note_on', channel=9, note=44, velocity=0, time=30),\n",
       "   Message('note_on', channel=9, note=40, velocity=0, time=0),\n",
       "   Message('note_on', channel=9, note=44, velocity=100, time=30),\n",
       "   Message('note_on', channel=9, note=44, velocity=0, time=30),\n",
       "   Message('note_on', channel=9, note=44, velocity=100, time=0),\n",
       "   Message('note_on', channel=9, note=44, velocity=0, time=30),\n",
       "   Message('note_on', channel=9, note=81, velocity=0, time=0),\n",
       "   Message('note_on', channel=9, note=44, velocity=100, time=0),\n",
       "   Message('note_on', channel=9, note=33, velocity=100, time=0),\n",
       "   Message('note_on', channel=9, note=44, velocity=0, time=30),\n",
       "   Message('note_on', channel=9, note=33, velocity=0, time=30),\n",
       "   Message('note_on', channel=9, note=44, velocity=100, time=0),\n",
       "   Message('note_on', channel=9, note=44, velocity=0, time=30),\n",
       "   Message('note_on', channel=9, note=44, velocity=100, time=0),\n",
       "   Message('note_on', channel=9, note=44, velocity=0, time=30),\n",
       "   Message('note_on', channel=9, note=40, velocity=100, time=0),\n",
       "   Message('note_on', channel=9, note=44, velocity=100, time=0),\n",
       "   Message('note_on', channel=9, note=44, velocity=0, time=30),\n",
       "   Message('note_on', channel=9, note=40, velocity=0, time=30),\n",
       "   Message('note_on', channel=9, note=44, velocity=100, time=0),\n",
       "   Message('note_on', channel=9, note=33, velocity=100, time=0),\n",
       "   Message('note_on', channel=9, note=44, velocity=0, time=30),\n",
       "   Message('note_on', channel=9, note=44, velocity=100, time=0),\n",
       "   Message('note_on', channel=9, note=44, velocity=0, time=30),\n",
       "   Message('note_on', channel=9, note=33, velocity=0, time=0),\n",
       "   Message('note_on', channel=9, note=44, velocity=100, time=0),\n",
       "   Message('note_on', channel=9, note=33, velocity=100, time=0),\n",
       "   Message('note_on', channel=9, note=44, velocity=0, time=30),\n",
       "   Message('note_on', channel=9, note=33, velocity=0, time=30),\n",
       "   Message('note_on', channel=9, note=44, velocity=100, time=0),\n",
       "   Message('note_on', channel=9, note=44, velocity=0, time=30),\n",
       "   Message('note_on', channel=9, note=44, velocity=100, time=0),\n",
       "   Message('note_on', channel=9, note=44, velocity=0, time=30),\n",
       "   Message('note_on', channel=9, note=81, velocity=100, time=0),\n",
       "   Message('note_on', channel=9, note=40, velocity=100, time=0),\n",
       "   Message('note_on', channel=9, note=44, velocity=100, time=0),\n",
       "   Message('note_on', channel=9, note=44, velocity=0, time=30),\n",
       "   Message('note_on', channel=9, note=40, velocity=0, time=0),\n",
       "   Message('note_on', channel=9, note=44, velocity=100, time=30),\n",
       "   Message('note_on', channel=9, note=44, velocity=0, time=30),\n",
       "   Message('note_on', channel=9, note=44, velocity=100, time=0),\n",
       "   Message('note_on', channel=9, note=44, velocity=0, time=30),\n",
       "   Message('note_on', channel=9, note=81, velocity=0, time=0),\n",
       "   Message('note_on', channel=9, note=44, velocity=100, time=0),\n",
       "   Message('note_on', channel=9, note=33, velocity=100, time=0),\n",
       "   Message('note_on', channel=9, note=44, velocity=0, time=30),\n",
       "   Message('note_on', channel=9, note=33, velocity=0, time=30),\n",
       "   Message('note_on', channel=9, note=44, velocity=100, time=0),\n",
       "   Message('note_on', channel=9, note=44, velocity=0, time=30),\n",
       "   Message('note_on', channel=9, note=44, velocity=100, time=0),\n",
       "   Message('note_on', channel=9, note=44, velocity=0, time=30),\n",
       "   Message('note_on', channel=9, note=40, velocity=100, time=0),\n",
       "   Message('note_on', channel=9, note=44, velocity=100, time=0),\n",
       "   Message('note_on', channel=9, note=44, velocity=0, time=30),\n",
       "   Message('note_on', channel=9, note=40, velocity=0, time=30),\n",
       "   Message('note_on', channel=9, note=44, velocity=100, time=0),\n",
       "   Message('note_on', channel=9, note=33, velocity=100, time=0),\n",
       "   Message('note_on', channel=9, note=44, velocity=0, time=30),\n",
       "   Message('note_on', channel=9, note=44, velocity=100, time=0),\n",
       "   Message('note_on', channel=9, note=44, velocity=0, time=30),\n",
       "   Message('note_on', channel=9, note=33, velocity=0, time=0),\n",
       "   Message('note_on', channel=9, note=44, velocity=100, time=0),\n",
       "   Message('note_on', channel=9, note=33, velocity=100, time=0),\n",
       "   Message('note_on', channel=9, note=44, velocity=0, time=30),\n",
       "   Message('note_on', channel=9, note=33, velocity=0, time=30),\n",
       "   Message('note_on', channel=9, note=44, velocity=100, time=0),\n",
       "   Message('note_on', channel=9, note=44, velocity=0, time=30),\n",
       "   Message('note_on', channel=9, note=44, velocity=100, time=0),\n",
       "   Message('note_on', channel=9, note=44, velocity=0, time=30),\n",
       "   Message('note_on', channel=9, note=81, velocity=100, time=0),\n",
       "   Message('note_on', channel=9, note=40, velocity=100, time=0),\n",
       "   Message('note_on', channel=9, note=44, velocity=100, time=0),\n",
       "   Message('note_on', channel=9, note=44, velocity=0, time=30),\n",
       "   Message('note_on', channel=9, note=40, velocity=0, time=0),\n",
       "   Message('note_on', channel=9, note=44, velocity=100, time=30),\n",
       "   Message('note_on', channel=9, note=44, velocity=0, time=30),\n",
       "   Message('note_on', channel=9, note=44, velocity=100, time=0),\n",
       "   Message('note_on', channel=9, note=44, velocity=0, time=30),\n",
       "   Message('note_on', channel=9, note=81, velocity=0, time=0),\n",
       "   Message('note_on', channel=9, note=44, velocity=100, time=0),\n",
       "   Message('note_on', channel=9, note=33, velocity=100, time=0),\n",
       "   Message('note_on', channel=9, note=44, velocity=0, time=30),\n",
       "   Message('note_on', channel=9, note=33, velocity=0, time=30),\n",
       "   Message('note_on', channel=9, note=44, velocity=100, time=0),\n",
       "   Message('note_on', channel=9, note=44, velocity=0, time=30),\n",
       "   Message('note_on', channel=9, note=44, velocity=100, time=0),\n",
       "   Message('note_on', channel=9, note=44, velocity=0, time=30),\n",
       "   Message('note_on', channel=9, note=40, velocity=100, time=0),\n",
       "   Message('note_on', channel=9, note=44, velocity=100, time=0),\n",
       "   Message('note_on', channel=9, note=44, velocity=0, time=30),\n",
       "   Message('note_on', channel=9, note=40, velocity=0, time=30),\n",
       "   Message('note_on', channel=9, note=44, velocity=100, time=0),\n",
       "   Message('note_on', channel=9, note=33, velocity=100, time=0),\n",
       "   Message('note_on', channel=9, note=44, velocity=0, time=30),\n",
       "   Message('note_on', channel=9, note=44, velocity=100, time=0),\n",
       "   Message('note_on', channel=9, note=44, velocity=0, time=30),\n",
       "   Message('note_on', channel=9, note=33, velocity=0, time=0),\n",
       "   Message('note_on', channel=9, note=44, velocity=100, time=0),\n",
       "   Message('note_on', channel=9, note=33, velocity=100, time=0),\n",
       "   Message('note_on', channel=9, note=44, velocity=0, time=30),\n",
       "   Message('note_on', channel=9, note=33, velocity=0, time=30),\n",
       "   Message('note_on', channel=9, note=44, velocity=100, time=0),\n",
       "   Message('note_on', channel=9, note=44, velocity=0, time=30),\n",
       "   Message('note_on', channel=9, note=44, velocity=100, time=0),\n",
       "   Message('note_on', channel=9, note=44, velocity=0, time=30),\n",
       "   Message('note_on', channel=9, note=81, velocity=100, time=0),\n",
       "   Message('note_on', channel=9, note=40, velocity=100, time=0),\n",
       "   Message('note_on', channel=9, note=44, velocity=100, time=0),\n",
       "   Message('note_on', channel=9, note=44, velocity=0, time=30),\n",
       "   Message('note_on', channel=9, note=40, velocity=0, time=0),\n",
       "   Message('note_on', channel=9, note=44, velocity=100, time=30),\n",
       "   Message('note_on', channel=9, note=44, velocity=0, time=30),\n",
       "   Message('note_on', channel=9, note=44, velocity=100, time=0),\n",
       "   Message('note_on', channel=9, note=44, velocity=0, time=30),\n",
       "   Message('note_on', channel=9, note=81, velocity=0, time=0),\n",
       "   Message('note_on', channel=9, note=44, velocity=100, time=0),\n",
       "   Message('note_on', channel=9, note=33, velocity=100, time=0),\n",
       "   Message('note_on', channel=9, note=44, velocity=0, time=30),\n",
       "   Message('note_on', channel=9, note=33, velocity=0, time=30),\n",
       "   Message('note_on', channel=9, note=44, velocity=100, time=0),\n",
       "   Message('note_on', channel=9, note=44, velocity=0, time=30),\n",
       "   Message('note_on', channel=9, note=44, velocity=100, time=0),\n",
       "   Message('note_on', channel=9, note=44, velocity=0, time=30),\n",
       "   Message('note_on', channel=9, note=40, velocity=100, time=0),\n",
       "   Message('note_on', channel=9, note=44, velocity=100, time=0),\n",
       "   Message('note_on', channel=9, note=44, velocity=0, time=30),\n",
       "   Message('note_on', channel=9, note=40, velocity=0, time=30),\n",
       "   Message('note_on', channel=9, note=44, velocity=100, time=0),\n",
       "   Message('note_on', channel=9, note=33, velocity=100, time=0),\n",
       "   Message('note_on', channel=9, note=44, velocity=0, time=30),\n",
       "   Message('note_on', channel=9, note=44, velocity=100, time=0),\n",
       "   Message('note_on', channel=9, note=44, velocity=0, time=30),\n",
       "   Message('note_on', channel=9, note=33, velocity=0, time=0),\n",
       "   Message('note_on', channel=9, note=44, velocity=100, time=0),\n",
       "   Message('note_on', channel=9, note=33, velocity=100, time=0),\n",
       "   Message('note_on', channel=9, note=44, velocity=0, time=30),\n",
       "   Message('note_on', channel=9, note=33, velocity=0, time=30),\n",
       "   Message('note_on', channel=9, note=44, velocity=100, time=0),\n",
       "   Message('note_on', channel=9, note=44, velocity=0, time=30),\n",
       "   Message('note_on', channel=9, note=44, velocity=100, time=0),\n",
       "   Message('note_on', channel=9, note=44, velocity=0, time=30),\n",
       "   Message('note_on', channel=9, note=81, velocity=100, time=0),\n",
       "   Message('note_on', channel=9, note=40, velocity=100, time=0),\n",
       "   Message('note_on', channel=9, note=44, velocity=100, time=0),\n",
       "   Message('note_on', channel=9, note=44, velocity=0, time=30),\n",
       "   Message('note_on', channel=9, note=40, velocity=0, time=0),\n",
       "   Message('note_on', channel=9, note=44, velocity=100, time=30),\n",
       "   Message('note_on', channel=9, note=44, velocity=0, time=30),\n",
       "   Message('note_on', channel=9, note=44, velocity=100, time=0),\n",
       "   Message('note_on', channel=9, note=44, velocity=0, time=30),\n",
       "   Message('note_on', channel=9, note=81, velocity=0, time=0),\n",
       "   Message('note_on', channel=9, note=44, velocity=100, time=0),\n",
       "   Message('note_on', channel=9, note=33, velocity=100, time=0),\n",
       "   Message('note_on', channel=9, note=44, velocity=0, time=30),\n",
       "   Message('note_on', channel=9, note=33, velocity=0, time=30),\n",
       "   Message('note_on', channel=9, note=44, velocity=100, time=0),\n",
       "   Message('note_on', channel=9, note=44, velocity=0, time=30),\n",
       "   Message('note_on', channel=9, note=44, velocity=100, time=0),\n",
       "   Message('note_on', channel=9, note=44, velocity=0, time=30),\n",
       "   Message('note_on', channel=9, note=40, velocity=100, time=0),\n",
       "   Message('note_on', channel=9, note=44, velocity=100, time=0),\n",
       "   Message('note_on', channel=9, note=44, velocity=0, time=30),\n",
       "   Message('note_on', channel=9, note=40, velocity=0, time=30),\n",
       "   Message('note_on', channel=9, note=44, velocity=100, time=0),\n",
       "   Message('note_on', channel=9, note=33, velocity=100, time=0),\n",
       "   Message('note_on', channel=9, note=44, velocity=0, time=30),\n",
       "   Message('note_on', channel=9, note=44, velocity=100, time=0),\n",
       "   Message('note_on', channel=9, note=44, velocity=0, time=30),\n",
       "   Message('note_on', channel=9, note=33, velocity=0, time=0),\n",
       "   Message('note_on', channel=9, note=44, velocity=100, time=0),\n",
       "   Message('note_on', channel=9, note=33, velocity=100, time=0),\n",
       "   Message('note_on', channel=9, note=44, velocity=0, time=30),\n",
       "   Message('note_on', channel=9, note=33, velocity=0, time=30),\n",
       "   Message('note_on', channel=9, note=44, velocity=100, time=0),\n",
       "   Message('note_on', channel=9, note=44, velocity=0, time=30),\n",
       "   Message('note_on', channel=9, note=44, velocity=100, time=0),\n",
       "   Message('note_on', channel=9, note=44, velocity=0, time=30),\n",
       "   Message('note_on', channel=9, note=81, velocity=100, time=0),\n",
       "   Message('note_on', channel=9, note=40, velocity=100, time=0),\n",
       "   Message('note_on', channel=9, note=44, velocity=100, time=0),\n",
       "   Message('note_on', channel=9, note=44, velocity=0, time=30),\n",
       "   Message('note_on', channel=9, note=40, velocity=0, time=0),\n",
       "   Message('note_on', channel=9, note=44, velocity=100, time=30),\n",
       "   Message('note_on', channel=9, note=44, velocity=0, time=30),\n",
       "   Message('note_on', channel=9, note=44, velocity=100, time=0),\n",
       "   Message('note_on', channel=9, note=44, velocity=0, time=30),\n",
       "   Message('note_on', channel=9, note=81, velocity=0, time=0),\n",
       "   Message('note_on', channel=9, note=44, velocity=100, time=0),\n",
       "   Message('note_on', channel=9, note=33, velocity=100, time=0),\n",
       "   Message('note_on', channel=9, note=44, velocity=0, time=30),\n",
       "   Message('note_on', channel=9, note=33, velocity=0, time=30),\n",
       "   Message('note_on', channel=9, note=44, velocity=100, time=0),\n",
       "   Message('note_on', channel=9, note=44, velocity=0, time=30),\n",
       "   Message('note_on', channel=9, note=44, velocity=100, time=0),\n",
       "   Message('note_on', channel=9, note=44, velocity=0, time=30),\n",
       "   Message('note_on', channel=9, note=40, velocity=100, time=0),\n",
       "   Message('note_on', channel=9, note=44, velocity=100, time=0),\n",
       "   Message('note_on', channel=9, note=44, velocity=0, time=30),\n",
       "   Message('note_on', channel=9, note=40, velocity=0, time=30),\n",
       "   Message('note_on', channel=9, note=44, velocity=100, time=0),\n",
       "   Message('note_on', channel=9, note=33, velocity=100, time=0),\n",
       "   Message('note_on', channel=9, note=44, velocity=0, time=30),\n",
       "   Message('note_on', channel=9, note=44, velocity=100, time=0),\n",
       "   Message('note_on', channel=9, note=44, velocity=0, time=30),\n",
       "   Message('note_on', channel=9, note=33, velocity=0, time=0),\n",
       "   Message('note_on', channel=9, note=44, velocity=100, time=0),\n",
       "   Message('note_on', channel=9, note=33, velocity=100, time=0),\n",
       "   Message('note_on', channel=9, note=44, velocity=0, time=30),\n",
       "   Message('note_on', channel=9, note=33, velocity=0, time=30),\n",
       "   Message('note_on', channel=9, note=50, velocity=100, time=0),\n",
       "   Message('note_on', channel=9, note=44, velocity=100, time=0),\n",
       "   Message('note_on', channel=9, note=44, velocity=0, time=30),\n",
       "   Message('note_on', channel=9, note=44, velocity=100, time=0),\n",
       "   Message('note_on', channel=9, note=44, velocity=0, time=30),\n",
       "   Message('note_on', channel=9, note=50, velocity=0, time=0),\n",
       "   Message('note_on', channel=9, note=47, velocity=100, time=0),\n",
       "   Message('note_on', channel=9, note=81, velocity=100, time=0),\n",
       "   Message('note_on', channel=9, note=40, velocity=100, time=0),\n",
       "   Message('note_on', channel=9, note=44, velocity=100, time=0),\n",
       "   Message('note_on', channel=9, note=44, velocity=0, time=30),\n",
       "   Message('note_on', channel=9, note=40, velocity=0, time=0),\n",
       "   Message('note_on', channel=9, note=47, velocity=0, time=30),\n",
       "   Message('note_on', channel=9, note=45, velocity=100, time=0),\n",
       "   Message('note_on', channel=9, note=44, velocity=100, time=0),\n",
       "   Message('note_on', channel=9, note=44, velocity=0, time=30),\n",
       "   Message('note_on', channel=9, note=45, velocity=0, time=0),\n",
       "   Message('note_on', channel=9, note=44, velocity=100, time=0),\n",
       "   Message('note_on', channel=9, note=44, velocity=0, time=30),\n",
       "   Message('note_on', channel=9, note=81, velocity=0, time=0),\n",
       "   Message('note_on', channel=9, note=44, velocity=100, time=0),\n",
       "   Message('note_on', channel=9, note=33, velocity=100, time=0),\n",
       "   Message('note_on', channel=9, note=44, velocity=0, time=30),\n",
       "   Message('note_on', channel=9, note=33, velocity=0, time=30),\n",
       "   Message('note_on', channel=9, note=44, velocity=100, time=0),\n",
       "   Message('note_on', channel=9, note=44, velocity=0, time=30),\n",
       "   Message('note_on', channel=9, note=44, velocity=100, time=0),\n",
       "   Message('note_on', channel=9, note=44, velocity=0, time=30),\n",
       "   Message('note_on', channel=9, note=40, velocity=100, time=0),\n",
       "   Message('note_on', channel=9, note=44, velocity=100, time=0),\n",
       "   Message('note_on', channel=9, note=44, velocity=0, time=30),\n",
       "   Message('note_on', channel=9, note=40, velocity=0, time=30),\n",
       "   Message('note_on', channel=9, note=44, velocity=100, time=0),\n",
       "   Message('note_on', channel=9, note=33, velocity=100, time=0),\n",
       "   Message('note_on', channel=9, note=44, velocity=0, time=30),\n",
       "   Message('note_on', channel=9, note=44, velocity=100, time=0),\n",
       "   Message('note_on', channel=9, note=44, velocity=0, time=30),\n",
       "   Message('note_on', channel=9, note=33, velocity=0, time=0),\n",
       "   Message('note_on', channel=9, note=44, velocity=100, time=0),\n",
       "   Message('note_on', channel=9, note=33, velocity=100, time=0),\n",
       "   Message('note_on', channel=9, note=44, velocity=0, time=30),\n",
       "   Message('note_on', channel=9, note=33, velocity=0, time=30),\n",
       "   Message('note_on', channel=9, note=44, velocity=100, time=0),\n",
       "   Message('note_on', channel=9, note=44, velocity=0, time=30),\n",
       "   Message('note_on', channel=9, note=44, velocity=100, time=0),\n",
       "   Message('note_on', channel=9, note=44, velocity=0, time=30),\n",
       "   Message('note_on', channel=9, note=81, velocity=100, time=0),\n",
       "   Message('note_on', channel=9, note=40, velocity=100, time=0),\n",
       "   Message('note_on', channel=9, note=44, velocity=100, time=0),\n",
       "   Message('note_on', channel=9, note=44, velocity=0, time=30),\n",
       "   Message('note_on', channel=9, note=40, velocity=0, time=0),\n",
       "   Message('note_on', channel=9, note=44, velocity=100, time=30),\n",
       "   Message('note_on', channel=9, note=44, velocity=0, time=30),\n",
       "   Message('note_on', channel=9, note=44, velocity=100, time=0),\n",
       "   Message('note_on', channel=9, note=44, velocity=0, time=30),\n",
       "   Message('note_on', channel=9, note=81, velocity=0, time=0),\n",
       "   Message('note_on', channel=9, note=44, velocity=100, time=0),\n",
       "   Message('note_on', channel=9, note=33, velocity=100, time=0),\n",
       "   Message('note_on', channel=9, note=44, velocity=0, time=30),\n",
       "   Message('note_on', channel=9, note=33, velocity=0, time=30),\n",
       "   Message('note_on', channel=9, note=44, velocity=100, time=0),\n",
       "   Message('note_on', channel=9, note=44, velocity=0, time=30),\n",
       "   Message('note_on', channel=9, note=44, velocity=100, time=0),\n",
       "   Message('note_on', channel=9, note=44, velocity=0, time=30),\n",
       "   Message('note_on', channel=9, note=40, velocity=100, time=0),\n",
       "   Message('note_on', channel=9, note=44, velocity=100, time=0),\n",
       "   Message('note_on', channel=9, note=44, velocity=0, time=30),\n",
       "   Message('note_on', channel=9, note=40, velocity=0, time=30),\n",
       "   Message('note_on', channel=9, note=44, velocity=100, time=0),\n",
       "   Message('note_on', channel=9, note=33, velocity=100, time=0),\n",
       "   Message('note_on', channel=9, note=44, velocity=0, time=30),\n",
       "   Message('note_on', channel=9, note=44, velocity=100, time=0),\n",
       "   Message('note_on', channel=9, note=44, velocity=0, time=30),\n",
       "   Message('note_on', channel=9, note=33, velocity=0, time=0),\n",
       "   Message('note_on', channel=9, note=44, velocity=100, time=0),\n",
       "   Message('note_on', channel=9, note=33, velocity=100, time=0),\n",
       "   Message('note_on', channel=9, note=44, velocity=0, time=30),\n",
       "   Message('note_on', channel=9, note=33, velocity=0, time=30),\n",
       "   Message('note_on', channel=9, note=44, velocity=100, time=0),\n",
       "   Message('note_on', channel=9, note=44, velocity=0, time=30),\n",
       "   Message('note_on', channel=9, note=44, velocity=100, time=0),\n",
       "   Message('note_on', channel=9, note=44, velocity=0, time=30),\n",
       "   Message('note_on', channel=9, note=81, velocity=100, time=0),\n",
       "   Message('note_on', channel=9, note=40, velocity=100, time=0),\n",
       "   Message('note_on', channel=9, note=44, velocity=100, time=0),\n",
       "   Message('note_on', channel=9, note=44, velocity=0, time=30),\n",
       "   Message('note_on', channel=9, note=40, velocity=0, time=0),\n",
       "   Message('note_on', channel=9, note=44, velocity=100, time=30),\n",
       "   Message('note_on', channel=9, note=44, velocity=0, time=30),\n",
       "   Message('note_on', channel=9, note=44, velocity=100, time=0),\n",
       "   Message('note_on', channel=9, note=44, velocity=0, time=30),\n",
       "   Message('note_on', channel=9, note=81, velocity=0, time=0),\n",
       "   Message('note_on', channel=9, note=44, velocity=100, time=0),\n",
       "   Message('note_on', channel=9, note=33, velocity=100, time=0),\n",
       "   Message('note_on', channel=9, note=44, velocity=0, time=30),\n",
       "   Message('note_on', channel=9, note=33, velocity=0, time=30),\n",
       "   Message('note_on', channel=9, note=44, velocity=100, time=0),\n",
       "   Message('note_on', channel=9, note=44, velocity=0, time=30),\n",
       "   Message('note_on', channel=9, note=44, velocity=100, time=0),\n",
       "   Message('note_on', channel=9, note=44, velocity=0, time=30),\n",
       "   Message('note_on', channel=9, note=40, velocity=100, time=0),\n",
       "   Message('note_on', channel=9, note=44, velocity=100, time=0),\n",
       "   Message('note_on', channel=9, note=44, velocity=0, time=30),\n",
       "   Message('note_on', channel=9, note=40, velocity=0, time=30),\n",
       "   Message('note_on', channel=9, note=44, velocity=100, time=0),\n",
       "   Message('note_on', channel=9, note=33, velocity=100, time=0),\n",
       "   Message('note_on', channel=9, note=44, velocity=0, time=30),\n",
       "   Message('note_on', channel=9, note=44, velocity=100, time=0),\n",
       "   Message('note_on', channel=9, note=44, velocity=0, time=30),\n",
       "   Message('note_on', channel=9, note=33, velocity=0, time=0),\n",
       "   Message('note_on', channel=9, note=44, velocity=100, time=0),\n",
       "   Message('note_on', channel=9, note=33, velocity=100, time=0),\n",
       "   Message('note_on', channel=9, note=44, velocity=0, time=30),\n",
       "   Message('note_on', channel=9, note=33, velocity=0, time=30),\n",
       "   Message('note_on', channel=9, note=44, velocity=100, time=0),\n",
       "   Message('note_on', channel=9, note=44, velocity=0, time=30),\n",
       "   Message('note_on', channel=9, note=44, velocity=100, time=0),\n",
       "   Message('note_on', channel=9, note=44, velocity=0, time=30),\n",
       "   Message('note_on', channel=9, note=81, velocity=100, time=0),\n",
       "   Message('note_on', channel=9, note=40, velocity=100, time=0),\n",
       "   Message('note_on', channel=9, note=44, velocity=100, time=0),\n",
       "   Message('note_on', channel=9, note=44, velocity=0, time=30),\n",
       "   Message('note_on', channel=9, note=40, velocity=0, time=0),\n",
       "   Message('note_on', channel=9, note=44, velocity=100, time=30),\n",
       "   Message('note_on', channel=9, note=44, velocity=0, time=30),\n",
       "   Message('note_on', channel=9, note=44, velocity=100, time=0),\n",
       "   Message('note_on', channel=9, note=44, velocity=0, time=30),\n",
       "   Message('note_on', channel=9, note=81, velocity=0, time=0),\n",
       "   Message('note_on', channel=9, note=44, velocity=100, time=0),\n",
       "   Message('note_on', channel=9, note=33, velocity=100, time=0),\n",
       "   Message('note_on', channel=9, note=44, velocity=0, time=30),\n",
       "   Message('note_on', channel=9, note=33, velocity=0, time=30),\n",
       "   Message('note_on', channel=9, note=44, velocity=100, time=0),\n",
       "   Message('note_on', channel=9, note=44, velocity=0, time=30),\n",
       "   Message('note_on', channel=9, note=44, velocity=100, time=0),\n",
       "   Message('note_on', channel=9, note=44, velocity=0, time=30),\n",
       "   Message('note_on', channel=9, note=40, velocity=100, time=0),\n",
       "   Message('note_on', channel=9, note=44, velocity=100, time=0),\n",
       "   Message('note_on', channel=9, note=44, velocity=0, time=30),\n",
       "   Message('note_on', channel=9, note=40, velocity=0, time=30),\n",
       "   Message('note_on', channel=9, note=44, velocity=100, time=0),\n",
       "   Message('note_on', channel=9, note=33, velocity=100, time=0),\n",
       "   Message('note_on', channel=9, note=44, velocity=0, time=30),\n",
       "   Message('note_on', channel=9, note=44, velocity=100, time=0),\n",
       "   Message('note_on', channel=9, note=44, velocity=0, time=30),\n",
       "   Message('note_on', channel=9, note=33, velocity=0, time=0),\n",
       "   Message('note_on', channel=9, note=44, velocity=100, time=0),\n",
       "   Message('note_on', channel=9, note=33, velocity=100, time=0),\n",
       "   Message('note_on', channel=9, note=44, velocity=0, time=30),\n",
       "   Message('note_on', channel=9, note=33, velocity=0, time=30),\n",
       "   Message('note_on', channel=9, note=50, velocity=100, time=0),\n",
       "   Message('note_on', channel=9, note=44, velocity=100, time=0),\n",
       "   Message('note_on', channel=9, note=44, velocity=0, time=30),\n",
       "   Message('note_on', channel=9, note=44, velocity=100, time=0),\n",
       "   Message('note_on', channel=9, note=44, velocity=0, time=30),\n",
       "   Message('note_on', channel=9, note=50, velocity=0, time=0),\n",
       "   Message('note_on', channel=9, note=45, velocity=100, time=0),\n",
       "   Message('note_on', channel=9, note=81, velocity=100, time=0),\n",
       "   Message('note_on', channel=9, note=40, velocity=100, time=0),\n",
       "   Message('note_on', channel=9, note=44, velocity=100, time=0),\n",
       "   Message('note_on', channel=9, note=44, velocity=0, time=30),\n",
       "   Message('note_on', channel=9, note=40, velocity=0, time=0),\n",
       "   Message('note_on', channel=9, note=45, velocity=0, time=30),\n",
       "   Message('note_on', channel=9, note=43, velocity=100, time=0),\n",
       "   Message('note_on', channel=9, note=44, velocity=100, time=0),\n",
       "   Message('note_on', channel=9, note=44, velocity=0, time=30),\n",
       "   Message('note_on', channel=9, note=43, velocity=0, time=0),\n",
       "   Message('note_on', channel=9, note=44, velocity=100, time=0),\n",
       "   Message('note_on', channel=9, note=44, velocity=0, time=30),\n",
       "   Message('note_on', channel=9, note=81, velocity=0, time=0),\n",
       "   Message('note_on', channel=9, note=44, velocity=100, time=0),\n",
       "   Message('note_on', channel=9, note=33, velocity=100, time=0),\n",
       "   Message('note_on', channel=9, note=44, velocity=0, time=30),\n",
       "   Message('note_on', channel=9, note=33, velocity=0, time=30),\n",
       "   Message('note_on', channel=9, note=44, velocity=100, time=0),\n",
       "   Message('note_on', channel=9, note=44, velocity=0, time=30),\n",
       "   Message('note_on', channel=9, note=44, velocity=100, time=0),\n",
       "   Message('note_on', channel=9, note=44, velocity=0, time=30),\n",
       "   Message('note_on', channel=9, note=40, velocity=100, time=0),\n",
       "   Message('note_on', channel=9, note=44, velocity=100, time=0),\n",
       "   Message('note_on', channel=9, note=44, velocity=0, time=30),\n",
       "   Message('note_on', channel=9, note=40, velocity=0, time=30),\n",
       "   Message('note_on', channel=9, note=44, velocity=100, time=0),\n",
       "   Message('note_on', channel=9, note=33, velocity=100, time=0),\n",
       "   Message('note_on', channel=9, note=44, velocity=0, time=30),\n",
       "   Message('note_on', channel=9, note=44, velocity=100, time=0),\n",
       "   Message('note_on', channel=9, note=44, velocity=0, time=30),\n",
       "   Message('note_on', channel=9, note=33, velocity=0, time=0),\n",
       "   Message('note_on', channel=9, note=44, velocity=100, time=0),\n",
       "   Message('note_on', channel=9, note=33, velocity=100, time=0),\n",
       "   Message('note_on', channel=9, note=44, velocity=0, time=30),\n",
       "   Message('note_on', channel=9, note=33, velocity=0, time=30),\n",
       "   Message('note_on', channel=9, note=44, velocity=100, time=0),\n",
       "   Message('note_on', channel=9, note=44, velocity=0, time=30),\n",
       "   Message('note_on', channel=9, note=44, velocity=100, time=0),\n",
       "   Message('note_on', channel=9, note=44, velocity=0, time=30),\n",
       "   Message('note_on', channel=9, note=81, velocity=100, time=0),\n",
       "   Message('note_on', channel=9, note=40, velocity=100, time=0),\n",
       "   Message('note_on', channel=9, note=44, velocity=100, time=0),\n",
       "   Message('note_on', channel=9, note=44, velocity=0, time=30),\n",
       "   Message('note_on', channel=9, note=40, velocity=0, time=0),\n",
       "   Message('note_on', channel=9, note=44, velocity=100, time=30),\n",
       "   Message('note_on', channel=9, note=44, velocity=0, time=30),\n",
       "   Message('note_on', channel=9, note=44, velocity=100, time=0),\n",
       "   Message('note_on', channel=9, note=44, velocity=0, time=30),\n",
       "   Message('note_on', channel=9, note=81, velocity=0, time=0),\n",
       "   Message('note_on', channel=9, note=44, velocity=100, time=0),\n",
       "   Message('note_on', channel=9, note=33, velocity=100, time=0),\n",
       "   Message('note_on', channel=9, note=44, velocity=0, time=30),\n",
       "   Message('note_on', channel=9, note=33, velocity=0, time=30),\n",
       "   Message('note_on', channel=9, note=44, velocity=100, time=0),\n",
       "   Message('note_on', channel=9, note=44, velocity=0, time=30),\n",
       "   Message('note_on', channel=9, note=44, velocity=100, time=0),\n",
       "   Message('note_on', channel=9, note=44, velocity=0, time=30),\n",
       "   Message('note_on', channel=9, note=40, velocity=100, time=0),\n",
       "   Message('note_on', channel=9, note=44, velocity=100, time=0),\n",
       "   Message('note_on', channel=9, note=44, velocity=0, time=30),\n",
       "   Message('note_on', channel=9, note=40, velocity=0, time=30),\n",
       "   Message('note_on', channel=9, note=44, velocity=100, time=0),\n",
       "   Message('note_on', channel=9, note=33, velocity=100, time=0),\n",
       "   Message('note_on', channel=9, note=44, velocity=0, time=30),\n",
       "   Message('note_on', channel=9, note=44, velocity=100, time=0),\n",
       "   Message('note_on', channel=9, note=44, velocity=0, time=30),\n",
       "   Message('note_on', channel=9, note=33, velocity=0, time=0),\n",
       "   Message('note_on', channel=9, note=44, velocity=100, time=0),\n",
       "   Message('note_on', channel=9, note=33, velocity=100, time=0),\n",
       "   Message('note_on', channel=9, note=44, velocity=0, time=30),\n",
       "   Message('note_on', channel=9, note=33, velocity=0, time=30),\n",
       "   Message('note_on', channel=9, note=44, velocity=100, time=0),\n",
       "   Message('note_on', channel=9, note=44, velocity=0, time=30),\n",
       "   Message('note_on', channel=9, note=44, velocity=100, time=0),\n",
       "   Message('note_on', channel=9, note=44, velocity=0, time=30),\n",
       "   Message('note_on', channel=9, note=81, velocity=100, time=0),\n",
       "   Message('note_on', channel=9, note=40, velocity=100, time=0),\n",
       "   Message('note_on', channel=9, note=44, velocity=100, time=0),\n",
       "   Message('note_on', channel=9, note=44, velocity=0, time=30),\n",
       "   Message('note_on', channel=9, note=40, velocity=0, time=0),\n",
       "   Message('note_on', channel=9, note=44, velocity=100, time=30),\n",
       "   Message('note_on', channel=9, note=44, velocity=0, time=30),\n",
       "   Message('note_on', channel=9, note=44, velocity=100, time=0),\n",
       "   Message('note_on', channel=9, note=44, velocity=0, time=30),\n",
       "   Message('note_on', channel=9, note=81, velocity=0, time=0),\n",
       "   Message('note_on', channel=9, note=44, velocity=100, time=5),\n",
       "   Message('note_on', channel=9, note=33, velocity=100, time=0),\n",
       "   Message('note_on', channel=9, note=44, velocity=0, time=30),\n",
       "   Message('note_on', channel=9, note=33, velocity=0, time=30),\n",
       "   Message('note_on', channel=9, note=44, velocity=100, time=0),\n",
       "   Message('note_on', channel=9, note=44, velocity=0, time=30),\n",
       "   Message('note_on', channel=9, note=44, velocity=100, time=0),\n",
       "   Message('note_on', channel=9, note=44, velocity=0, time=30),\n",
       "   Message('note_on', channel=9, note=40, velocity=100, time=0),\n",
       "   Message('note_on', channel=9, note=44, velocity=100, time=0),\n",
       "   Message('note_on', channel=9, note=44, velocity=0, time=30),\n",
       "   Message('note_on', channel=9, note=40, velocity=0, time=30),\n",
       "   Message('note_on', channel=9, note=44, velocity=100, time=0),\n",
       "   Message('note_on', channel=9, note=33, velocity=100, time=0),\n",
       "   Message('note_on', channel=9, note=44, velocity=0, time=30),\n",
       "   Message('note_on', channel=9, note=44, velocity=100, time=0),\n",
       "   Message('note_on', channel=9, note=44, velocity=0, time=30),\n",
       "   Message('note_on', channel=9, note=33, velocity=0, time=0),\n",
       "   Message('note_on', channel=9, note=44, velocity=100, time=0),\n",
       "   Message('note_on', channel=9, note=33, velocity=100, time=0),\n",
       "   Message('note_on', channel=9, note=44, velocity=0, time=30),\n",
       "   Message('note_on', channel=9, note=33, velocity=0, time=30),\n",
       "   Message('note_on', channel=9, note=44, velocity=100, time=0),\n",
       "   Message('note_on', channel=9, note=44, velocity=0, time=30),\n",
       "   Message('note_on', channel=9, note=44, velocity=100, time=0),\n",
       "   Message('note_on', channel=9, note=44, velocity=0, time=30),\n",
       "   Message('note_on', channel=9, note=81, velocity=100, time=0),\n",
       "   Message('note_on', channel=9, note=40, velocity=100, time=0),\n",
       "   Message('note_on', channel=9, note=44, velocity=100, time=0),\n",
       "   Message('note_on', channel=9, note=44, velocity=0, time=30),\n",
       "   Message('note_on', channel=9, note=40, velocity=0, time=0),\n",
       "   Message('note_on', channel=9, note=44, velocity=100, time=30),\n",
       "   Message('note_on', channel=9, note=44, velocity=0, time=30),\n",
       "   Message('note_on', channel=9, note=44, velocity=100, time=0),\n",
       "   Message('note_on', channel=9, note=44, velocity=0, time=30),\n",
       "   Message('note_on', channel=9, note=81, velocity=0, time=0),\n",
       "   Message('note_on', channel=9, note=44, velocity=100, time=0),\n",
       "   Message('note_on', channel=9, note=33, velocity=100, time=0),\n",
       "   Message('note_on', channel=9, note=44, velocity=0, time=30),\n",
       "   Message('note_on', channel=9, note=33, velocity=0, time=30),\n",
       "   Message('note_on', channel=9, note=44, velocity=100, time=0),\n",
       "   Message('note_on', channel=9, note=44, velocity=0, time=30),\n",
       "   Message('note_on', channel=9, note=44, velocity=100, time=0),\n",
       "   Message('note_on', channel=9, note=44, velocity=0, time=30),\n",
       "   Message('note_on', channel=9, note=40, velocity=100, time=0),\n",
       "   Message('note_on', channel=9, note=44, velocity=100, time=0),\n",
       "   Message('note_on', channel=9, note=44, velocity=0, time=30),\n",
       "   Message('note_on', channel=9, note=40, velocity=0, time=30),\n",
       "   Message('note_on', channel=9, note=44, velocity=100, time=0),\n",
       "   Message('note_on', channel=9, note=33, velocity=100, time=0),\n",
       "   Message('note_on', channel=9, note=44, velocity=0, time=30),\n",
       "   Message('note_on', channel=9, note=44, velocity=100, time=0),\n",
       "   Message('note_on', channel=9, note=44, velocity=0, time=30),\n",
       "   Message('note_on', channel=9, note=33, velocity=0, time=0),\n",
       "   Message('note_on', channel=9, note=44, velocity=100, time=0),\n",
       "   Message('note_on', channel=9, note=33, velocity=100, time=0),\n",
       "   Message('note_on', channel=9, note=44, velocity=0, time=30),\n",
       "   Message('note_on', channel=9, note=33, velocity=0, time=30),\n",
       "   Message('note_on', channel=9, note=44, velocity=100, time=0),\n",
       "   Message('note_on', channel=9, note=44, velocity=0, time=30),\n",
       "   Message('note_on', channel=9, note=44, velocity=100, time=0),\n",
       "   Message('note_on', channel=9, note=44, velocity=0, time=30),\n",
       "   Message('note_on', channel=9, note=81, velocity=100, time=0),\n",
       "   Message('note_on', channel=9, note=40, velocity=100, time=0),\n",
       "   Message('note_on', channel=9, note=44, velocity=100, time=0),\n",
       "   Message('note_on', channel=9, note=44, velocity=0, time=30),\n",
       "   Message('note_on', channel=9, note=40, velocity=0, time=0),\n",
       "   Message('note_on', channel=9, note=44, velocity=100, time=30),\n",
       "   Message('note_on', channel=9, note=44, velocity=0, time=30),\n",
       "   Message('note_on', channel=9, note=44, velocity=100, time=0),\n",
       "   Message('note_on', channel=9, note=44, velocity=0, time=30),\n",
       "   Message('note_on', channel=9, note=81, velocity=0, time=0),\n",
       "   Message('note_on', channel=9, note=44, velocity=100, time=0),\n",
       "   Message('note_on', channel=9, note=33, velocity=100, time=0),\n",
       "   Message('note_on', channel=9, note=44, velocity=0, time=30),\n",
       "   Message('note_on', channel=9, note=33, velocity=0, time=30),\n",
       "   Message('note_on', channel=9, note=44, velocity=100, time=0),\n",
       "   Message('note_on', channel=9, note=44, velocity=0, time=30),\n",
       "   Message('note_on', channel=9, note=44, velocity=100, time=0),\n",
       "   Message('note_on', channel=9, note=44, velocity=0, time=30),\n",
       "   Message('note_on', channel=9, note=40, velocity=100, time=0),\n",
       "   Message('note_on', channel=9, note=44, velocity=100, time=0),\n",
       "   Message('note_on', channel=9, note=44, velocity=0, time=30),\n",
       "   Message('note_on', channel=9, note=40, velocity=0, time=30),\n",
       "   Message('note_on', channel=9, note=44, velocity=100, time=0),\n",
       "   Message('note_on', channel=9, note=33, velocity=100, time=0),\n",
       "   Message('note_on', channel=9, note=44, velocity=0, time=30),\n",
       "   Message('note_on', channel=9, note=44, velocity=100, time=0),\n",
       "   Message('note_on', channel=9, note=44, velocity=0, time=30),\n",
       "   Message('note_on', channel=9, note=33, velocity=0, time=0),\n",
       "   Message('note_on', channel=9, note=44, velocity=100, time=0),\n",
       "   Message('note_on', channel=9, note=33, velocity=100, time=0),\n",
       "   Message('note_on', channel=9, note=44, velocity=0, time=30),\n",
       "   Message('note_on', channel=9, note=33, velocity=0, time=30),\n",
       "   Message('note_on', channel=9, note=44, velocity=100, time=0),\n",
       "   Message('note_on', channel=9, note=44, velocity=0, time=30),\n",
       "   Message('note_on', channel=9, note=44, velocity=100, time=0),\n",
       "   Message('note_on', channel=9, note=44, velocity=0, time=30),\n",
       "   Message('note_on', channel=9, note=81, velocity=100, time=0),\n",
       "   Message('note_on', channel=9, note=40, velocity=100, time=0),\n",
       "   Message('note_on', channel=9, note=44, velocity=100, time=0),\n",
       "   Message('note_on', channel=9, note=44, velocity=0, time=30),\n",
       "   Message('note_on', channel=9, note=40, velocity=0, time=0),\n",
       "   Message('note_on', channel=9, note=44, velocity=100, time=30),\n",
       "   Message('note_on', channel=9, note=44, velocity=0, time=30),\n",
       "   Message('note_on', channel=9, note=44, velocity=100, time=0),\n",
       "   Message('note_on', channel=9, note=44, velocity=0, time=30),\n",
       "   Message('note_on', channel=9, note=81, velocity=0, time=0),\n",
       "   Message('note_on', channel=9, note=44, velocity=100, time=0),\n",
       "   Message('note_on', channel=9, note=33, velocity=100, time=0),\n",
       "   Message('note_on', channel=9, note=44, velocity=0, time=30),\n",
       "   Message('note_on', channel=9, note=33, velocity=0, time=30),\n",
       "   Message('note_on', channel=9, note=44, velocity=100, time=0),\n",
       "   Message('note_on', channel=9, note=44, velocity=0, time=30),\n",
       "   Message('note_on', channel=9, note=44, velocity=100, time=0),\n",
       "   Message('note_on', channel=9, note=44, velocity=0, time=30),\n",
       "   Message('note_on', channel=9, note=40, velocity=100, time=0),\n",
       "   Message('note_on', channel=9, note=44, velocity=100, time=0),\n",
       "   Message('note_on', channel=9, note=44, velocity=0, time=30),\n",
       "   Message('note_on', channel=9, note=40, velocity=0, time=30),\n",
       "   Message('note_on', channel=9, note=44, velocity=100, time=0),\n",
       "   Message('note_on', channel=9, note=33, velocity=100, time=0),\n",
       "   Message('note_on', channel=9, note=44, velocity=0, time=30),\n",
       "   Message('note_on', channel=9, note=44, velocity=100, time=0),\n",
       "   Message('note_on', channel=9, note=44, velocity=0, time=30),\n",
       "   Message('note_on', channel=9, note=33, velocity=0, time=0),\n",
       "   Message('note_on', channel=9, note=44, velocity=100, time=0),\n",
       "   Message('note_on', channel=9, note=33, velocity=100, time=0),\n",
       "   Message('note_on', channel=9, note=44, velocity=0, time=30),\n",
       "   Message('note_on', channel=9, note=33, velocity=0, time=30),\n",
       "   Message('note_on', channel=9, note=82, velocity=100, time=0),\n",
       "   Message('note_on', channel=9, note=44, velocity=100, time=0),\n",
       "   Message('note_on', channel=9, note=44, velocity=0, time=30),\n",
       "   Message('note_on', channel=9, note=44, velocity=100, time=0),\n",
       "   Message('note_on', channel=9, note=44, velocity=0, time=30),\n",
       "   Message('note_on', channel=9, note=82, velocity=0, time=0),\n",
       "   Message('note_on', channel=9, note=70, velocity=100, time=0),\n",
       "   Message('note_on', channel=9, note=81, velocity=100, time=0),\n",
       "   Message('note_on', channel=9, note=40, velocity=100, time=0),\n",
       "   Message('note_on', channel=9, note=44, velocity=100, time=0),\n",
       "   Message('note_on', channel=9, note=44, velocity=0, time=30),\n",
       "   Message('note_on', channel=9, note=40, velocity=0, time=0),\n",
       "   Message('note_on', channel=9, note=70, velocity=0, time=30),\n",
       "   Message('note_on', channel=9, note=32, velocity=100, time=0),\n",
       "   Message('note_on', channel=9, note=44, velocity=100, time=0),\n",
       "   Message('note_on', channel=9, note=44, velocity=0, time=30),\n",
       "   Message('note_on', channel=9, note=44, velocity=100, time=0),\n",
       "   Message('note_on', channel=9, note=44, velocity=0, time=30),\n",
       "   Message('note_on', channel=9, note=32, velocity=0, time=0),\n",
       "   Message('note_on', channel=9, note=81, velocity=0, time=0),\n",
       "   Message('note_on', channel=9, note=44, velocity=100, time=0),\n",
       "   Message('note_on', channel=9, note=33, velocity=100, time=0),\n",
       "   Message('note_on', channel=9, note=44, velocity=0, time=30),\n",
       "   Message('note_on', channel=9, note=33, velocity=0, time=30),\n",
       "   Message('note_on', channel=9, note=44, velocity=100, time=0),\n",
       "   Message('note_on', channel=9, note=44, velocity=0, time=30),\n",
       "   Message('note_on', channel=9, note=44, velocity=100, time=0),\n",
       "   Message('note_on', channel=9, note=44, velocity=0, time=30),\n",
       "   Message('note_on', channel=9, note=40, velocity=100, time=0),\n",
       "   Message('note_on', channel=9, note=44, velocity=100, time=0),\n",
       "   Message('note_on', channel=9, note=44, velocity=0, time=30),\n",
       "   Message('note_on', channel=9, note=40, velocity=0, time=30),\n",
       "   Message('note_on', channel=9, note=44, velocity=100, time=0),\n",
       "   Message('note_on', channel=9, note=33, velocity=100, time=0),\n",
       "   Message('note_on', channel=9, note=44, velocity=0, time=30),\n",
       "   Message('note_on', channel=9, note=44, velocity=100, time=0),\n",
       "   Message('note_on', channel=9, note=44, velocity=0, time=30),\n",
       "   Message('note_on', channel=9, note=33, velocity=0, time=0),\n",
       "   Message('note_on', channel=9, note=44, velocity=100, time=0),\n",
       "   Message('note_on', channel=9, note=33, velocity=100, time=0),\n",
       "   Message('note_on', channel=9, note=44, velocity=0, time=30),\n",
       "   Message('note_on', channel=9, note=33, velocity=0, time=30),\n",
       "   Message('note_on', channel=9, note=44, velocity=100, time=0),\n",
       "   Message('note_on', channel=9, note=44, velocity=0, time=30),\n",
       "   Message('note_on', channel=9, note=44, velocity=100, time=0),\n",
       "   Message('note_on', channel=9, note=44, velocity=0, time=30),\n",
       "   Message('note_on', channel=9, note=81, velocity=100, time=0),\n",
       "   Message('note_on', channel=9, note=40, velocity=100, time=0),\n",
       "   Message('note_on', channel=9, note=44, velocity=100, time=0),\n",
       "   Message('note_on', channel=9, note=44, velocity=0, time=30),\n",
       "   Message('note_on', channel=9, note=40, velocity=0, time=0),\n",
       "   Message('note_on', channel=9, note=44, velocity=100, time=30),\n",
       "   Message('note_on', channel=9, note=44, velocity=0, time=30),\n",
       "   Message('note_on', channel=9, note=44, velocity=100, time=0),\n",
       "   Message('note_on', channel=9, note=44, velocity=0, time=30),\n",
       "   Message('note_on', channel=9, note=81, velocity=0, time=0),\n",
       "   Message('note_on', channel=9, note=44, velocity=100, time=0),\n",
       "   Message('note_on', channel=9, note=33, velocity=100, time=0),\n",
       "   Message('note_on', channel=9, note=44, velocity=0, time=30),\n",
       "   Message('note_on', channel=9, note=33, velocity=0, time=30),\n",
       "   Message('note_on', channel=9, note=44, velocity=100, time=0),\n",
       "   Message('note_on', channel=9, note=44, velocity=0, time=30),\n",
       "   Message('note_on', channel=9, note=44, velocity=100, time=0),\n",
       "   Message('note_on', channel=9, note=44, velocity=0, time=30),\n",
       "   Message('note_on', channel=9, note=40, velocity=100, time=0),\n",
       "   Message('note_on', channel=9, note=44, velocity=100, time=0),\n",
       "   Message('note_on', channel=9, note=44, velocity=0, time=30),\n",
       "   Message('note_on', channel=9, note=40, velocity=0, time=30),\n",
       "   Message('note_on', channel=9, note=44, velocity=100, time=0),\n",
       "   Message('note_on', channel=9, note=33, velocity=100, time=0),\n",
       "   Message('note_on', channel=9, note=44, velocity=0, time=30),\n",
       "   Message('note_on', channel=9, note=44, velocity=100, time=0),\n",
       "   Message('note_on', channel=9, note=44, velocity=0, time=30),\n",
       "   Message('note_on', channel=9, note=33, velocity=0, time=0),\n",
       "   Message('note_on', channel=9, note=44, velocity=100, time=0),\n",
       "   Message('note_on', channel=9, note=33, velocity=100, time=0),\n",
       "   Message('note_on', channel=9, note=44, velocity=0, time=30),\n",
       "   Message('note_on', channel=9, note=33, velocity=0, time=30),\n",
       "   Message('note_on', channel=9, note=44, velocity=100, time=0),\n",
       "   Message('note_on', channel=9, note=44, velocity=0, time=30),\n",
       "   Message('note_on', channel=9, note=44, velocity=100, time=0),\n",
       "   Message('note_on', channel=9, note=44, velocity=0, time=30),\n",
       "   Message('note_on', channel=9, note=81, velocity=100, time=0),\n",
       "   Message('note_on', channel=9, note=40, velocity=100, time=0),\n",
       "   Message('note_on', channel=9, note=44, velocity=100, time=0),\n",
       "   Message('note_on', channel=9, note=44, velocity=0, time=30),\n",
       "   Message('note_on', channel=9, note=40, velocity=0, time=0),\n",
       "   Message('note_on', channel=9, note=44, velocity=100, time=30),\n",
       "   Message('note_on', channel=9, note=44, velocity=0, time=30),\n",
       "   Message('note_on', channel=9, note=44, velocity=100, time=0),\n",
       "   Message('note_on', channel=9, note=44, velocity=0, time=30),\n",
       "   Message('note_on', channel=9, note=81, velocity=0, time=0),\n",
       "   Message('note_on', channel=9, note=44, velocity=100, time=0),\n",
       "   Message('note_on', channel=9, note=33, velocity=100, time=0),\n",
       "   Message('note_on', channel=9, note=44, velocity=0, time=30),\n",
       "   Message('note_on', channel=9, note=33, velocity=0, time=30),\n",
       "   Message('note_on', channel=9, note=44, velocity=100, time=0),\n",
       "   Message('note_on', channel=9, note=44, velocity=0, time=30),\n",
       "   Message('note_on', channel=9, note=44, velocity=100, time=0),\n",
       "   Message('note_on', channel=9, note=44, velocity=0, time=30),\n",
       "   Message('note_on', channel=9, note=40, velocity=100, time=0),\n",
       "   Message('note_on', channel=9, note=44, velocity=100, time=0),\n",
       "   Message('note_on', channel=9, note=44, velocity=0, time=30),\n",
       "   Message('note_on', channel=9, note=40, velocity=0, time=30),\n",
       "   Message('note_on', channel=9, note=44, velocity=100, time=0),\n",
       "   Message('note_on', channel=9, note=33, velocity=100, time=0),\n",
       "   Message('note_on', channel=9, note=44, velocity=0, time=30),\n",
       "   Message('note_on', channel=9, note=44, velocity=100, time=0),\n",
       "   Message('note_on', channel=9, note=44, velocity=0, time=30),\n",
       "   Message('note_on', channel=9, note=33, velocity=0, time=0),\n",
       "   Message('note_on', channel=9, note=44, velocity=100, time=0),\n",
       "   Message('note_on', channel=9, note=33, velocity=100, time=0),\n",
       "   Message('note_on', channel=9, note=44, velocity=0, time=30),\n",
       "   Message('note_on', channel=9, note=33, velocity=0, time=30),\n",
       "   Message('note_on', channel=9, note=44, velocity=100, time=0),\n",
       "   Message('note_on', channel=9, note=44, velocity=0, time=30),\n",
       "   Message('note_on', channel=9, note=44, velocity=100, time=0),\n",
       "   Message('note_on', channel=9, note=44, velocity=0, time=30),\n",
       "   Message('note_on', channel=9, note=81, velocity=100, time=0),\n",
       "   Message('note_on', channel=9, note=40, velocity=100, time=0),\n",
       "   Message('note_on', channel=9, note=44, velocity=100, time=0),\n",
       "   Message('note_on', channel=9, note=44, velocity=0, time=30),\n",
       "   Message('note_on', channel=9, note=40, velocity=0, time=0),\n",
       "   Message('note_on', channel=9, note=44, velocity=100, time=30),\n",
       "   Message('note_on', channel=9, note=44, velocity=0, time=30),\n",
       "   Message('note_on', channel=9, note=44, velocity=100, time=0),\n",
       "   Message('note_on', channel=9, note=44, velocity=0, time=30),\n",
       "   Message('note_on', channel=9, note=81, velocity=0, time=0),\n",
       "   Message('note_on', channel=9, note=44, velocity=100, time=0),\n",
       "   Message('note_on', channel=9, note=33, velocity=100, time=0),\n",
       "   Message('note_on', channel=9, note=44, velocity=0, time=30),\n",
       "   Message('note_on', channel=9, note=33, velocity=0, time=30),\n",
       "   Message('note_on', channel=9, note=44, velocity=100, time=0),\n",
       "   Message('note_on', channel=9, note=44, velocity=0, time=30),\n",
       "   Message('note_on', channel=9, note=44, velocity=100, time=0),\n",
       "   Message('note_on', channel=9, note=44, velocity=0, time=30),\n",
       "   Message('note_on', channel=9, note=40, velocity=100, time=0),\n",
       "   Message('note_on', channel=9, note=44, velocity=100, time=0),\n",
       "   Message('note_on', channel=9, note=44, velocity=0, time=30),\n",
       "   Message('note_on', channel=9, note=40, velocity=0, time=30),\n",
       "   Message('note_on', channel=9, note=44, velocity=100, time=0),\n",
       "   Message('note_on', channel=9, note=33, velocity=100, time=0),\n",
       "   Message('note_on', channel=9, note=44, velocity=0, time=30),\n",
       "   Message('note_on', channel=9, note=44, velocity=100, time=0),\n",
       "   Message('note_on', channel=9, note=44, velocity=0, time=30),\n",
       "   Message('note_on', channel=9, note=33, velocity=0, time=0),\n",
       "   Message('note_on', channel=9, note=44, velocity=100, time=0),\n",
       "   Message('note_on', channel=9, note=33, velocity=100, time=0),\n",
       "   Message('note_on', channel=9, note=44, velocity=0, time=30),\n",
       "   Message('note_on', channel=9, note=33, velocity=0, time=30),\n",
       "   Message('note_on', channel=9, note=50, velocity=100, time=0),\n",
       "   Message('note_on', channel=9, note=44, velocity=100, time=0),\n",
       "   Message('note_on', channel=9, note=44, velocity=0, time=30),\n",
       "   Message('note_on', channel=9, note=50, velocity=0, time=0),\n",
       "   Message('note_on', channel=9, note=76, velocity=100, time=0),\n",
       "   Message('note_on', channel=9, note=50, velocity=100, time=0),\n",
       "   Message('note_on', channel=9, note=44, velocity=100, time=0),\n",
       "   Message('note_on', channel=9, note=44, velocity=0, time=30),\n",
       "   Message('note_on', channel=9, note=50, velocity=0, time=0),\n",
       "   Message('note_on', channel=9, note=76, velocity=0, time=0),\n",
       "   Message('note_on', channel=9, note=25, velocity=100, time=0),\n",
       "   Message('note_on', channel=9, note=47, velocity=100, time=0),\n",
       "   Message('note_on', channel=9, note=81, velocity=100, time=0),\n",
       "   Message('note_on', channel=9, note=40, velocity=100, time=0),\n",
       "   Message('note_on', channel=9, note=44, velocity=100, time=0),\n",
       "   Message('note_on', channel=9, note=44, velocity=0, time=30),\n",
       "   Message('note_on', channel=9, note=47, velocity=0, time=0),\n",
       "   Message('note_on', channel=9, note=25, velocity=0, time=0),\n",
       "   Message('note_on', channel=9, note=40, velocity=0, time=0),\n",
       "   Message('note_on', channel=9, note=30, velocity=100, time=0),\n",
       "   Message('note_on', channel=9, note=30, velocity=0, time=30),\n",
       "   Message('note_on', channel=9, note=28, velocity=100, time=0),\n",
       "   Message('note_on', channel=9, note=45, velocity=100, time=0),\n",
       "   Message('note_on', channel=9, note=44, velocity=100, time=0),\n",
       "   Message('note_on', channel=9, note=44, velocity=0, time=30),\n",
       "   Message('note_on', channel=9, note=45, velocity=0, time=0),\n",
       "   Message('note_on', channel=9, note=28, velocity=0, time=0),\n",
       "   Message('note_on', channel=9, note=16, velocity=100, time=0),\n",
       "   Message('note_on', channel=9, note=23, velocity=100, time=0),\n",
       "   Message('note_on', channel=9, note=44, velocity=100, time=0),\n",
       "   Message('note_on', channel=9, note=44, velocity=0, time=30),\n",
       "   Message('note_on', channel=9, note=81, velocity=0, time=0),\n",
       "   Message('note_on', channel=9, note=16, velocity=0, time=0),\n",
       "   Message('note_on', channel=9, note=23, velocity=0, time=0),\n",
       "   Message('note_on', channel=9, note=59, velocity=100, time=0),\n",
       "   Message('note_on', channel=9, note=44, velocity=100, time=0),\n",
       "   Message('note_on', channel=9, note=33, velocity=100, time=0),\n",
       "   Message('note_on', channel=9, note=44, velocity=0, time=30),\n",
       "   Message('note_on', channel=9, note=59, velocity=0, time=0),\n",
       "   Message('note_on', channel=9, note=33, velocity=0, time=30),\n",
       "   Message('note_on', channel=9, note=44, velocity=100, time=0),\n",
       "   Message('note_on', channel=9, note=44, velocity=0, time=30),\n",
       "   Message('note_on', channel=9, note=44, velocity=100, time=0),\n",
       "   Message('note_on', channel=9, note=44, velocity=0, time=30),\n",
       "   Message('note_on', channel=9, note=40, velocity=100, time=0),\n",
       "   Message('note_on', channel=9, note=44, velocity=100, time=0),\n",
       "   Message('note_on', channel=9, note=44, velocity=0, time=30),\n",
       "   Message('note_on', channel=9, note=40, velocity=0, time=30),\n",
       "   Message('note_on', channel=9, note=44, velocity=100, time=0),\n",
       "   Message('note_on', channel=9, note=33, velocity=100, time=0),\n",
       "   Message('note_on', channel=9, note=44, velocity=0, time=30),\n",
       "   Message('note_on', channel=9, note=44, velocity=100, time=0),\n",
       "   Message('note_on', channel=9, note=44, velocity=0, time=30),\n",
       "   Message('note_on', channel=9, note=33, velocity=0, time=0),\n",
       "   Message('note_on', channel=9, note=44, velocity=100, time=0),\n",
       "   Message('note_on', channel=9, note=33, velocity=100, time=0),\n",
       "   Message('note_on', channel=9, note=44, velocity=0, time=30),\n",
       "   Message('note_on', channel=9, note=33, velocity=0, time=30),\n",
       "   Message('note_on', channel=9, note=44, velocity=100, time=0),\n",
       "   Message('note_on', channel=9, note=44, velocity=0, time=30),\n",
       "   Message('note_on', channel=9, note=44, velocity=100, time=0),\n",
       "   Message('note_on', channel=9, note=44, velocity=0, time=30),\n",
       "   Message('note_on', channel=9, note=81, velocity=100, time=0),\n",
       "   Message('note_on', channel=9, note=40, velocity=100, time=0),\n",
       "   Message('note_on', channel=9, note=44, velocity=100, time=0),\n",
       "   Message('note_on', channel=9, note=44, velocity=0, time=30),\n",
       "   Message('note_on', channel=9, note=40, velocity=0, time=0),\n",
       "   Message('note_on', channel=9, note=44, velocity=100, time=30),\n",
       "   Message('note_on', channel=9, note=44, velocity=0, time=30),\n",
       "   Message('note_on', channel=9, note=44, velocity=100, time=0),\n",
       "   Message('note_on', channel=9, note=44, velocity=0, time=30),\n",
       "   Message('note_on', channel=9, note=81, velocity=0, time=0),\n",
       "   Message('note_on', channel=9, note=44, velocity=100, time=0),\n",
       "   Message('note_on', channel=9, note=33, velocity=100, time=0),\n",
       "   Message('note_on', channel=9, note=44, velocity=0, time=30),\n",
       "   Message('note_on', channel=9, note=33, velocity=0, time=30),\n",
       "   Message('note_on', channel=9, note=44, velocity=100, time=0),\n",
       "   Message('note_on', channel=9, note=44, velocity=0, time=30),\n",
       "   Message('note_on', channel=9, note=44, velocity=100, time=0),\n",
       "   Message('note_on', channel=9, note=44, velocity=0, time=30),\n",
       "   Message('note_on', channel=9, note=40, velocity=100, time=0),\n",
       "   Message('note_on', channel=9, note=44, velocity=100, time=0),\n",
       "   Message('note_on', channel=9, note=44, velocity=0, time=30),\n",
       "   Message('note_on', channel=9, note=40, velocity=0, time=30),\n",
       "   Message('note_on', channel=9, note=44, velocity=100, time=0),\n",
       "   Message('note_on', channel=9, note=33, velocity=100, time=0),\n",
       "   Message('note_on', channel=9, note=44, velocity=0, time=30),\n",
       "   Message('note_on', channel=9, note=44, velocity=100, time=0),\n",
       "   Message('note_on', channel=9, note=44, velocity=0, time=30),\n",
       "   Message('note_on', channel=9, note=33, velocity=0, time=0),\n",
       "   Message('note_on', channel=9, note=44, velocity=100, time=0),\n",
       "   Message('note_on', channel=9, note=33, velocity=100, time=0),\n",
       "   Message('note_on', channel=9, note=44, velocity=0, time=30),\n",
       "   Message('note_on', channel=9, note=33, velocity=0, time=30),\n",
       "   Message('note_on', channel=9, note=44, velocity=100, time=0),\n",
       "   Message('note_on', channel=9, note=44, velocity=0, time=30),\n",
       "   Message('note_on', channel=9, note=44, velocity=100, time=0),\n",
       "   Message('note_on', channel=9, note=44, velocity=0, time=30),\n",
       "   Message('note_on', channel=9, note=81, velocity=100, time=0),\n",
       "   Message('note_on', channel=9, note=40, velocity=100, time=0),\n",
       "   Message('note_on', channel=9, note=44, velocity=100, time=0),\n",
       "   Message('note_on', channel=9, note=44, velocity=0, time=30),\n",
       "   Message('note_on', channel=9, note=40, velocity=0, time=0),\n",
       "   Message('note_on', channel=9, note=44, velocity=100, time=30),\n",
       "   Message('note_on', channel=9, note=44, velocity=0, time=30),\n",
       "   Message('note_on', channel=9, note=44, velocity=100, time=0),\n",
       "   Message('note_on', channel=9, note=44, velocity=0, time=30),\n",
       "   Message('note_on', channel=9, note=81, velocity=0, time=0),\n",
       "   Message('note_on', channel=9, note=44, velocity=100, time=0),\n",
       "   Message('note_on', channel=9, note=33, velocity=100, time=0),\n",
       "   Message('note_on', channel=9, note=44, velocity=0, time=30),\n",
       "   Message('note_on', channel=9, note=33, velocity=0, time=30),\n",
       "   Message('note_on', channel=9, note=44, velocity=100, time=0),\n",
       "   Message('note_on', channel=9, note=44, velocity=0, time=30),\n",
       "   Message('note_on', channel=9, note=44, velocity=100, time=0),\n",
       "   Message('note_on', channel=9, note=44, velocity=0, time=30),\n",
       "   Message('note_on', channel=9, note=40, velocity=100, time=0),\n",
       "   Message('note_on', channel=9, note=44, velocity=100, time=0),\n",
       "   Message('note_on', channel=9, note=44, velocity=0, time=30),\n",
       "   Message('note_on', channel=9, note=40, velocity=0, time=30),\n",
       "   Message('note_on', channel=9, note=44, velocity=100, time=0),\n",
       "   Message('note_on', channel=9, note=33, velocity=100, time=0),\n",
       "   Message('note_on', channel=9, note=44, velocity=0, time=30),\n",
       "   Message('note_on', channel=9, note=44, velocity=100, time=0),\n",
       "   Message('note_on', channel=9, note=44, velocity=0, time=30),\n",
       "   Message('note_on', channel=9, note=33, velocity=0, time=0),\n",
       "   Message('note_on', channel=9, note=44, velocity=100, time=0),\n",
       "   Message('note_on', channel=9, note=33, velocity=100, time=0),\n",
       "   Message('note_on', channel=9, note=44, velocity=0, time=30),\n",
       "   Message('note_on', channel=9, note=33, velocity=0, time=30),\n",
       "   Message('note_on', channel=9, note=44, velocity=100, time=0),\n",
       "   Message('note_on', channel=9, note=44, velocity=0, time=30),\n",
       "   Message('note_on', channel=9, note=44, velocity=100, time=0),\n",
       "   Message('note_on', channel=9, note=44, velocity=0, time=30),\n",
       "   Message('note_on', channel=9, note=81, velocity=100, time=0),\n",
       "   Message('note_on', channel=9, note=40, velocity=100, time=0),\n",
       "   Message('note_on', channel=9, note=44, velocity=100, time=0),\n",
       "   Message('note_on', channel=9, note=44, velocity=0, time=30),\n",
       "   Message('note_on', channel=9, note=40, velocity=0, time=0),\n",
       "   Message('note_on', channel=9, note=44, velocity=100, time=30),\n",
       "   Message('note_on', channel=9, note=44, velocity=0, time=30),\n",
       "   Message('note_on', channel=9, note=44, velocity=100, time=0),\n",
       "   Message('note_on', channel=9, note=44, velocity=0, time=30),\n",
       "   Message('note_on', channel=9, note=81, velocity=0, time=0),\n",
       "   Message('note_on', channel=9, note=44, velocity=100, time=0),\n",
       "   Message('note_on', channel=9, note=33, velocity=100, time=0),\n",
       "   Message('note_on', channel=9, note=44, velocity=0, time=30),\n",
       "   Message('note_on', channel=9, note=33, velocity=0, time=30),\n",
       "   Message('note_on', channel=9, note=44, velocity=100, time=0),\n",
       "   Message('note_on', channel=9, note=44, velocity=0, time=30),\n",
       "   Message('note_on', channel=9, note=44, velocity=100, time=0),\n",
       "   Message('note_on', channel=9, note=44, velocity=0, time=30),\n",
       "   Message('note_on', channel=9, note=40, velocity=100, time=0),\n",
       "   Message('note_on', channel=9, note=44, velocity=100, time=0),\n",
       "   Message('note_on', channel=9, note=44, velocity=0, time=30),\n",
       "   Message('note_on', channel=9, note=40, velocity=0, time=30),\n",
       "   Message('note_on', channel=9, note=44, velocity=100, time=0),\n",
       "   Message('note_on', channel=9, note=33, velocity=100, time=0),\n",
       "   Message('note_on', channel=9, note=44, velocity=0, time=30),\n",
       "   Message('note_on', channel=9, note=44, velocity=100, time=0),\n",
       "   Message('note_on', channel=9, note=44, velocity=0, time=30),\n",
       "   Message('note_on', channel=9, note=33, velocity=0, time=0),\n",
       "   Message('note_on', channel=9, note=44, velocity=100, time=0),\n",
       "   Message('note_on', channel=9, note=33, velocity=100, time=0),\n",
       "   Message('note_on', channel=9, note=44, velocity=0, time=30),\n",
       "   Message('note_on', channel=9, note=33, velocity=0, time=30),\n",
       "   Message('note_on', channel=9, note=50, velocity=100, time=0),\n",
       "   Message('note_on', channel=9, note=44, velocity=100, time=0),\n",
       "   Message('note_on', channel=9, note=44, velocity=0, time=30),\n",
       "   Message('note_on', channel=9, note=44, velocity=100, time=0),\n",
       "   Message('note_on', channel=9, note=44, velocity=0, time=30),\n",
       "   Message('note_on', channel=9, note=50, velocity=0, time=0),\n",
       "   Message('note_on', channel=9, note=47, velocity=100, time=0),\n",
       "   Message('note_on', channel=9, note=81, velocity=100, time=0),\n",
       "   Message('note_on', channel=9, note=40, velocity=100, time=0),\n",
       "   Message('note_on', channel=9, note=44, velocity=100, time=0),\n",
       "   Message('note_on', channel=9, note=44, velocity=0, time=30),\n",
       "   Message('note_on', channel=9, note=40, velocity=0, time=0),\n",
       "   Message('note_on', channel=9, note=47, velocity=0, time=30),\n",
       "   Message('note_on', channel=9, note=45, velocity=100, time=0),\n",
       "   Message('note_on', channel=9, note=44, velocity=100, time=0),\n",
       "   Message('note_on', channel=9, note=44, velocity=0, time=30),\n",
       "   Message('note_on', channel=9, note=44, velocity=100, time=0),\n",
       "   Message('note_on', channel=9, note=44, velocity=0, time=30),\n",
       "   Message('note_on', channel=9, note=45, velocity=0, time=0),\n",
       "   Message('note_on', channel=9, note=81, velocity=0, time=0),\n",
       "   Message('note_on', channel=9, note=44, velocity=100, time=0),\n",
       "   Message('note_on', channel=9, note=33, velocity=100, time=0),\n",
       "   Message('note_on', channel=9, note=44, velocity=0, time=30),\n",
       "   Message('note_on', channel=9, note=33, velocity=0, time=30),\n",
       "   Message('note_on', channel=9, note=44, velocity=100, time=0),\n",
       "   Message('note_on', channel=9, note=44, velocity=0, time=30),\n",
       "   Message('note_on', channel=9, note=44, velocity=100, time=0),\n",
       "   Message('note_on', channel=9, note=44, velocity=0, time=30),\n",
       "   Message('note_on', channel=9, note=40, velocity=100, time=0),\n",
       "   Message('note_on', channel=9, note=44, velocity=100, time=0),\n",
       "   Message('note_on', channel=9, note=44, velocity=0, time=30),\n",
       "   Message('note_on', channel=9, note=40, velocity=0, time=30),\n",
       "   Message('note_on', channel=9, note=44, velocity=100, time=0),\n",
       "   Message('note_on', channel=9, note=33, velocity=100, time=0),\n",
       "   Message('note_on', channel=9, note=44, velocity=0, time=30),\n",
       "   Message('note_on', channel=9, note=44, velocity=100, time=0),\n",
       "   Message('note_on', channel=9, note=44, velocity=0, time=30),\n",
       "   Message('note_on', channel=9, note=33, velocity=0, time=0),\n",
       "   Message('note_on', channel=9, note=44, velocity=100, time=0),\n",
       "   Message('note_on', channel=9, note=33, velocity=100, time=0),\n",
       "   Message('note_on', channel=9, note=44, velocity=0, time=30),\n",
       "   Message('note_on', channel=9, note=33, velocity=0, time=30),\n",
       "   Message('note_on', channel=9, note=44, velocity=100, time=0),\n",
       "   Message('note_on', channel=9, note=44, velocity=0, time=30),\n",
       "   Message('note_on', channel=9, note=44, velocity=100, time=0),\n",
       "   Message('note_on', channel=9, note=44, velocity=0, time=30),\n",
       "   Message('note_on', channel=9, note=81, velocity=100, time=0),\n",
       "   Message('note_on', channel=9, note=40, velocity=100, time=0),\n",
       "   Message('note_on', channel=9, note=44, velocity=100, time=0),\n",
       "   Message('note_on', channel=9, note=44, velocity=0, time=30),\n",
       "   Message('note_on', channel=9, note=40, velocity=0, time=0),\n",
       "   Message('note_on', channel=9, note=44, velocity=100, time=30),\n",
       "   Message('note_on', channel=9, note=44, velocity=0, time=30),\n",
       "   Message('note_on', channel=9, note=44, velocity=100, time=0),\n",
       "   Message('note_on', channel=9, note=44, velocity=0, time=30),\n",
       "   Message('note_on', channel=9, note=81, velocity=0, time=0),\n",
       "   Message('note_on', channel=9, note=44, velocity=100, time=0),\n",
       "   Message('note_on', channel=9, note=33, velocity=100, time=0),\n",
       "   Message('note_on', channel=9, note=44, velocity=0, time=30),\n",
       "   Message('note_on', channel=9, note=33, velocity=0, time=30),\n",
       "   Message('note_on', channel=9, note=44, velocity=100, time=0),\n",
       "   Message('note_on', channel=9, note=44, velocity=0, time=30),\n",
       "   Message('note_on', channel=9, note=44, velocity=100, time=0),\n",
       "   Message('note_on', channel=9, note=44, velocity=0, time=30),\n",
       "   Message('note_on', channel=9, note=40, velocity=100, time=0),\n",
       "   Message('note_on', channel=9, note=44, velocity=100, time=0),\n",
       "   Message('note_on', channel=9, note=44, velocity=0, time=30),\n",
       "   Message('note_on', channel=9, note=40, velocity=0, time=30),\n",
       "   Message('note_on', channel=9, note=44, velocity=100, time=0),\n",
       "   Message('note_on', channel=9, note=33, velocity=100, time=0),\n",
       "   Message('note_on', channel=9, note=44, velocity=0, time=30),\n",
       "   Message('note_on', channel=9, note=44, velocity=100, time=0),\n",
       "   Message('note_on', channel=9, note=44, velocity=0, time=30),\n",
       "   Message('note_on', channel=9, note=33, velocity=0, time=0),\n",
       "   Message('note_on', channel=9, note=44, velocity=100, time=0),\n",
       "   Message('note_on', channel=9, note=33, velocity=100, time=0),\n",
       "   Message('note_on', channel=9, note=44, velocity=0, time=30),\n",
       "   Message('note_on', channel=9, note=33, velocity=0, time=30),\n",
       "   Message('note_on', channel=9, note=44, velocity=100, time=0),\n",
       "   Message('note_on', channel=9, note=44, velocity=0, time=30),\n",
       "   Message('note_on', channel=9, note=44, velocity=100, time=0),\n",
       "   Message('note_on', channel=9, note=44, velocity=0, time=30),\n",
       "   Message('note_on', channel=9, note=81, velocity=100, time=0),\n",
       "   Message('note_on', channel=9, note=40, velocity=100, time=0),\n",
       "   Message('note_on', channel=9, note=44, velocity=100, time=0),\n",
       "   Message('note_on', channel=9, note=44, velocity=0, time=30),\n",
       "   Message('note_on', channel=9, note=40, velocity=0, time=0),\n",
       "   Message('note_on', channel=9, note=44, velocity=100, time=30),\n",
       "   Message('note_on', channel=9, note=44, velocity=0, time=30),\n",
       "   Message('note_on', channel=9, note=44, velocity=100, time=0),\n",
       "   Message('note_on', channel=9, note=44, velocity=0, time=30),\n",
       "   Message('note_on', channel=9, note=81, velocity=0, time=0),\n",
       "   Message('note_on', channel=9, note=44, velocity=100, time=0),\n",
       "   Message('note_on', channel=9, note=33, velocity=100, time=0),\n",
       "   Message('note_on', channel=9, note=44, velocity=0, time=30),\n",
       "   Message('note_on', channel=9, note=33, velocity=0, time=30),\n",
       "   Message('note_on', channel=9, note=44, velocity=100, time=0),\n",
       "   Message('note_on', channel=9, note=44, velocity=0, time=30),\n",
       "   Message('note_on', channel=9, note=44, velocity=100, time=0),\n",
       "   Message('note_on', channel=9, note=44, velocity=0, time=30),\n",
       "   Message('note_on', channel=9, note=40, velocity=100, time=0),\n",
       "   Message('note_on', channel=9, note=44, velocity=100, time=0),\n",
       "   Message('note_on', channel=9, note=44, velocity=0, time=30),\n",
       "   Message('note_on', channel=9, note=40, velocity=0, time=30),\n",
       "   Message('note_on', channel=9, note=44, velocity=100, time=0),\n",
       "   Message('note_on', channel=9, note=33, velocity=100, time=0),\n",
       "   Message('note_on', channel=9, note=44, velocity=0, time=30),\n",
       "   Message('note_on', channel=9, note=44, velocity=100, time=0),\n",
       "   Message('note_on', channel=9, note=44, velocity=0, time=30),\n",
       "   Message('note_on', channel=9, note=33, velocity=0, time=0),\n",
       "   Message('note_on', channel=9, note=44, velocity=100, time=0),\n",
       "   Message('note_on', channel=9, note=33, velocity=100, time=0),\n",
       "   Message('note_on', channel=9, note=44, velocity=0, time=30),\n",
       "   Message('note_on', channel=9, note=33, velocity=0, time=30),\n",
       "   Message('note_on', channel=9, note=44, velocity=100, time=0),\n",
       "   Message('note_on', channel=9, note=44, velocity=0, time=30),\n",
       "   Message('note_on', channel=9, note=44, velocity=100, time=0),\n",
       "   Message('note_on', channel=9, note=44, velocity=0, time=30),\n",
       "   Message('note_on', channel=9, note=81, velocity=100, time=0),\n",
       "   Message('note_on', channel=9, note=40, velocity=100, time=0),\n",
       "   Message('note_on', channel=9, note=44, velocity=100, time=0),\n",
       "   Message('note_on', channel=9, note=44, velocity=0, time=30),\n",
       "   Message('note_on', channel=9, note=40, velocity=0, time=0),\n",
       "   Message('note_on', channel=9, note=44, velocity=100, time=30),\n",
       "   Message('note_on', channel=9, note=44, velocity=0, time=30),\n",
       "   Message('note_on', channel=9, note=44, velocity=100, time=0),\n",
       "   Message('note_on', channel=9, note=44, velocity=0, time=30),\n",
       "   Message('note_on', channel=9, note=81, velocity=0, time=0),\n",
       "   Message('note_on', channel=9, note=44, velocity=100, time=0),\n",
       "   Message('note_on', channel=9, note=33, velocity=100, time=0),\n",
       "   Message('note_on', channel=9, note=44, velocity=0, time=30),\n",
       "   Message('note_on', channel=9, note=33, velocity=0, time=30),\n",
       "   Message('note_on', channel=9, note=44, velocity=100, time=0),\n",
       "   Message('note_on', channel=9, note=44, velocity=0, time=30),\n",
       "   Message('note_on', channel=9, note=44, velocity=100, time=0),\n",
       "   Message('note_on', channel=9, note=44, velocity=0, time=30),\n",
       "   Message('note_on', channel=9, note=40, velocity=100, time=0),\n",
       "   Message('note_on', channel=9, note=44, velocity=100, time=0),\n",
       "   Message('note_on', channel=9, note=44, velocity=0, time=30),\n",
       "   Message('note_on', channel=9, note=40, velocity=0, time=30),\n",
       "   Message('note_on', channel=9, note=44, velocity=100, time=0),\n",
       "   Message('note_on', channel=9, note=33, velocity=100, time=0),\n",
       "   Message('note_on', channel=9, note=44, velocity=0, time=30),\n",
       "   Message('note_on', channel=9, note=44, velocity=100, time=0),\n",
       "   Message('note_on', channel=9, note=44, velocity=0, time=30),\n",
       "   Message('note_on', channel=9, note=33, velocity=0, time=0),\n",
       "   Message('note_on', channel=9, note=44, velocity=100, time=0),\n",
       "   Message('note_on', channel=9, note=33, velocity=100, time=0),\n",
       "   Message('note_on', channel=9, note=44, velocity=0, time=30),\n",
       "   Message('note_on', channel=9, note=33, velocity=0, time=30),\n",
       "   Message('note_on', channel=9, note=44, velocity=100, time=0),\n",
       "   Message('note_on', channel=9, note=44, velocity=0, time=30),\n",
       "   Message('note_on', channel=9, note=44, velocity=100, time=0),\n",
       "   Message('note_on', channel=9, note=44, velocity=0, time=30),\n",
       "   Message('note_on', channel=9, note=81, velocity=100, time=0),\n",
       "   Message('note_on', channel=9, note=40, velocity=100, time=0),\n",
       "   Message('note_on', channel=9, note=44, velocity=100, time=0),\n",
       "   Message('note_on', channel=9, note=44, velocity=0, time=30),\n",
       "   Message('note_on', channel=9, note=40, velocity=0, time=0),\n",
       "   Message('note_on', channel=9, note=44, velocity=100, time=30),\n",
       "   Message('note_on', channel=9, note=44, velocity=0, time=30),\n",
       "   Message('note_on', channel=9, note=44, velocity=100, time=0),\n",
       "   Message('note_on', channel=9, note=44, velocity=100, time=25),\n",
       "   Message('note_on', channel=9, note=33, velocity=100, time=0),\n",
       "   Message('note_on', channel=9, note=44, velocity=0, time=5),\n",
       "   Message('note_on', channel=9, note=81, velocity=0, time=0),\n",
       "   Message('note_on', channel=9, note=44, velocity=0, time=25),\n",
       "   Message('note_on', channel=9, note=33, velocity=0, time=30),\n",
       "   Message('note_on', channel=9, note=44, velocity=100, time=0),\n",
       "   Message('note_on', channel=9, note=44, velocity=0, time=30),\n",
       "   Message('note_on', channel=9, note=44, velocity=100, time=0),\n",
       "   Message('note_on', channel=9, note=44, velocity=0, time=30),\n",
       "   Message('note_on', channel=9, note=40, velocity=100, time=0),\n",
       "   Message('note_on', channel=9, note=44, velocity=100, time=0),\n",
       "   Message('note_on', channel=9, note=44, velocity=0, time=30),\n",
       "   Message('note_on', channel=9, note=40, velocity=0, time=30),\n",
       "   Message('note_on', channel=9, note=44, velocity=100, time=0),\n",
       "   Message('note_on', channel=9, note=33, velocity=100, time=0),\n",
       "   Message('note_on', channel=9, note=44, velocity=0, time=30),\n",
       "   Message('note_on', channel=9, note=44, velocity=100, time=0),\n",
       "   Message('note_on', channel=9, note=44, velocity=0, time=30),\n",
       "   Message('note_on', channel=9, note=33, velocity=0, time=0),\n",
       "   Message('note_on', channel=9, note=44, velocity=100, time=0),\n",
       "   Message('note_on', channel=9, note=33, velocity=100, time=0),\n",
       "   Message('note_on', channel=9, note=44, velocity=0, time=30),\n",
       "   Message('note_on', channel=9, note=33, velocity=0, time=30),\n",
       "   Message('note_on', channel=9, note=44, velocity=100, time=0),\n",
       "   Message('note_on', channel=9, note=44, velocity=0, time=30),\n",
       "   Message('note_on', channel=9, note=44, velocity=100, time=0),\n",
       "   Message('note_on', channel=9, note=44, velocity=0, time=30),\n",
       "   Message('note_on', channel=9, note=81, velocity=100, time=0),\n",
       "   Message('note_on', channel=9, note=40, velocity=100, time=0),\n",
       "   Message('note_on', channel=9, note=44, velocity=100, time=0),\n",
       "   Message('note_on', channel=9, note=44, velocity=0, time=30),\n",
       "   Message('note_on', channel=9, note=40, velocity=0, time=0),\n",
       "   Message('note_on', channel=9, note=44, velocity=100, time=30),\n",
       "   Message('note_on', channel=9, note=44, velocity=0, time=30),\n",
       "   Message('note_on', channel=9, note=44, velocity=100, time=0),\n",
       "   Message('note_on', channel=9, note=44, velocity=0, time=30),\n",
       "   Message('note_on', channel=9, note=81, velocity=0, time=0),\n",
       "   Message('note_on', channel=9, note=44, velocity=100, time=0),\n",
       "   Message('note_on', channel=9, note=33, velocity=100, time=0),\n",
       "   Message('note_on', channel=9, note=44, velocity=0, time=30),\n",
       "   Message('note_on', channel=9, note=33, velocity=0, time=30),\n",
       "   Message('note_on', channel=9, note=44, velocity=100, time=0),\n",
       "   Message('note_on', channel=9, note=44, velocity=0, time=30),\n",
       "   Message('note_on', channel=9, note=44, velocity=100, time=0),\n",
       "   Message('note_on', channel=9, note=44, velocity=0, time=30),\n",
       "   Message('note_on', channel=9, note=40, velocity=100, time=0),\n",
       "   Message('note_on', channel=9, note=44, velocity=100, time=0),\n",
       "   Message('note_on', channel=9, note=44, velocity=0, time=30),\n",
       "   Message('note_on', channel=9, note=40, velocity=0, time=30),\n",
       "   Message('note_on', channel=9, note=44, velocity=100, time=0),\n",
       "   Message('note_on', channel=9, note=33, velocity=100, time=0),\n",
       "   Message('note_on', channel=9, note=44, velocity=0, time=30),\n",
       "   Message('note_on', channel=9, note=44, velocity=100, time=0),\n",
       "   Message('note_on', channel=9, note=44, velocity=0, time=30),\n",
       "   Message('note_on', channel=9, note=33, velocity=0, time=0),\n",
       "   Message('note_on', channel=9, note=44, velocity=100, time=0),\n",
       "   Message('note_on', channel=9, note=33, velocity=100, time=0),\n",
       "   Message('note_on', channel=9, note=44, velocity=0, time=30),\n",
       "   Message('note_on', channel=9, note=33, velocity=0, time=30),\n",
       "   Message('note_on', channel=9, note=44, velocity=100, time=0),\n",
       "   Message('note_on', channel=9, note=44, velocity=0, time=30),\n",
       "   Message('note_on', channel=9, note=44, velocity=100, time=0),\n",
       "   Message('note_on', channel=9, note=44, velocity=0, time=30),\n",
       "   Message('note_on', channel=9, note=81, velocity=100, time=0),\n",
       "   Message('note_on', channel=9, note=40, velocity=100, time=0),\n",
       "   Message('note_on', channel=9, note=44, velocity=100, time=0),\n",
       "   Message('note_on', channel=9, note=44, velocity=0, time=30),\n",
       "   Message('note_on', channel=9, note=40, velocity=0, time=0),\n",
       "   Message('note_on', channel=9, note=44, velocity=100, time=30),\n",
       "   Message('note_on', channel=9, note=44, velocity=0, time=30),\n",
       "   Message('note_on', channel=9, note=44, velocity=100, time=0),\n",
       "   Message('note_on', channel=9, note=44, velocity=0, time=30),\n",
       "   Message('note_on', channel=9, note=81, velocity=0, time=0),\n",
       "   Message('note_on', channel=9, note=44, velocity=100, time=0),\n",
       "   Message('note_on', channel=9, note=33, velocity=100, time=0),\n",
       "   Message('note_on', channel=9, note=44, velocity=0, time=30),\n",
       "   Message('note_on', channel=9, note=33, velocity=0, time=30),\n",
       "   Message('note_on', channel=9, note=44, velocity=100, time=0),\n",
       "   Message('note_on', channel=9, note=44, velocity=0, time=30),\n",
       "   Message('note_on', channel=9, note=44, velocity=100, time=0),\n",
       "   Message('note_on', channel=9, note=44, velocity=0, time=30),\n",
       "   Message('note_on', channel=9, note=40, velocity=100, time=0),\n",
       "   Message('note_on', channel=9, note=44, velocity=100, time=0),\n",
       "   Message('note_on', channel=9, note=44, velocity=0, time=30),\n",
       "   Message('note_on', channel=9, note=40, velocity=0, time=30),\n",
       "   Message('note_on', channel=9, note=44, velocity=100, time=0),\n",
       "   Message('note_on', channel=9, note=33, velocity=100, time=0),\n",
       "   Message('note_on', channel=9, note=44, velocity=0, time=30),\n",
       "   Message('note_on', channel=9, note=44, velocity=100, time=0),\n",
       "   Message('note_on', channel=9, note=44, velocity=0, time=30),\n",
       "   Message('note_on', channel=9, note=33, velocity=0, time=0),\n",
       "   Message('note_on', channel=9, note=44, velocity=100, time=0),\n",
       "   Message('note_on', channel=9, note=33, velocity=100, time=0),\n",
       "   Message('note_on', channel=9, note=44, velocity=0, time=30),\n",
       "   Message('note_on', channel=9, note=33, velocity=0, time=30),\n",
       "   Message('note_on', channel=9, note=44, velocity=100, time=0),\n",
       "   Message('note_on', channel=9, note=44, velocity=0, time=30),\n",
       "   Message('note_on', channel=9, note=44, velocity=100, time=0),\n",
       "   Message('note_on', channel=9, note=44, velocity=0, time=30),\n",
       "   Message('note_on', channel=9, note=81, velocity=100, time=0),\n",
       "   Message('note_on', channel=9, note=40, velocity=100, time=0),\n",
       "   Message('note_on', channel=9, note=44, velocity=100, time=0),\n",
       "   Message('note_on', channel=9, note=44, velocity=0, time=30),\n",
       "   Message('note_on', channel=9, note=40, velocity=0, time=0),\n",
       "   Message('note_on', channel=9, note=44, velocity=100, time=30),\n",
       "   Message('note_on', channel=9, note=44, velocity=0, time=30),\n",
       "   Message('note_on', channel=9, note=44, velocity=100, time=0),\n",
       "   Message('note_on', channel=9, note=44, velocity=0, time=30),\n",
       "   Message('note_on', channel=9, note=81, velocity=0, time=0),\n",
       "   Message('note_on', channel=9, note=44, velocity=100, time=0),\n",
       "   Message('note_on', channel=9, note=33, velocity=100, time=0),\n",
       "   Message('note_on', channel=9, note=44, velocity=0, time=30),\n",
       "   Message('note_on', channel=9, note=33, velocity=0, time=30),\n",
       "   Message('note_on', channel=9, note=44, velocity=100, time=0),\n",
       "   Message('note_on', channel=9, note=44, velocity=0, time=30),\n",
       "   Message('note_on', channel=9, note=44, velocity=100, time=0),\n",
       "   Message('note_on', channel=9, note=44, velocity=0, time=30),\n",
       "   Message('note_on', channel=9, note=40, velocity=100, time=0),\n",
       "   Message('note_on', channel=9, note=44, velocity=100, time=0),\n",
       "   Message('note_on', channel=9, note=44, velocity=0, time=30),\n",
       "   Message('note_on', channel=9, note=40, velocity=0, time=30),\n",
       "   Message('note_on', channel=9, note=44, velocity=100, time=0),\n",
       "   Message('note_on', channel=9, note=33, velocity=100, time=0),\n",
       "   Message('note_on', channel=9, note=44, velocity=0, time=30),\n",
       "   Message('note_on', channel=9, note=44, velocity=100, time=0),\n",
       "   Message('note_on', channel=9, note=44, velocity=0, time=30),\n",
       "   Message('note_on', channel=9, note=33, velocity=0, time=0),\n",
       "   Message('note_on', channel=9, note=44, velocity=100, time=0),\n",
       "   Message('note_on', channel=9, note=33, velocity=100, time=0),\n",
       "   Message('note_on', channel=9, note=44, velocity=0, time=30),\n",
       "   Message('note_on', channel=9, note=33, velocity=0, time=30),\n",
       "   Message('note_on', channel=9, note=44, velocity=100, time=0),\n",
       "   Message('note_on', channel=9, note=44, velocity=0, time=30),\n",
       "   Message('note_on', channel=9, note=44, velocity=100, time=0),\n",
       "   Message('note_on', channel=9, note=44, velocity=0, time=30),\n",
       "   Message('note_on', channel=9, note=81, velocity=100, time=0),\n",
       "   Message('note_on', channel=9, note=40, velocity=100, time=0),\n",
       "   Message('note_on', channel=9, note=44, velocity=100, time=0),\n",
       "   Message('note_on', channel=9, note=44, velocity=0, time=30),\n",
       "   Message('note_on', channel=9, note=40, velocity=0, time=0),\n",
       "   Message('note_on', channel=9, note=44, velocity=100, time=30),\n",
       "   Message('note_on', channel=9, note=44, velocity=0, time=30),\n",
       "   Message('note_on', channel=9, note=44, velocity=100, time=0),\n",
       "   Message('note_on', channel=9, note=44, velocity=0, time=30),\n",
       "   Message('note_on', channel=9, note=81, velocity=0, time=0),\n",
       "   Message('note_on', channel=9, note=44, velocity=100, time=0),\n",
       "   Message('note_on', channel=9, note=33, velocity=100, time=0),\n",
       "   Message('note_on', channel=9, note=44, velocity=0, time=30),\n",
       "   Message('note_on', channel=9, note=33, velocity=0, time=30),\n",
       "   Message('note_on', channel=9, note=44, velocity=100, time=0),\n",
       "   Message('note_on', channel=9, note=44, velocity=0, time=30),\n",
       "   Message('note_on', channel=9, note=44, velocity=100, time=0),\n",
       "   Message('note_on', channel=9, note=44, velocity=0, time=30),\n",
       "   Message('note_on', channel=9, note=40, velocity=100, time=0),\n",
       "   Message('note_on', channel=9, note=44, velocity=100, time=0),\n",
       "   Message('note_on', channel=9, note=44, velocity=0, time=30),\n",
       "   Message('note_on', channel=9, note=40, velocity=0, time=30),\n",
       "   Message('note_on', channel=9, note=44, velocity=100, time=0),\n",
       "   Message('note_on', channel=9, note=33, velocity=100, time=0),\n",
       "   Message('note_on', channel=9, note=44, velocity=0, time=30),\n",
       "   Message('note_on', channel=9, note=44, velocity=100, time=0),\n",
       "   Message('note_on', channel=9, note=44, velocity=0, time=30),\n",
       "   Message('note_on', channel=9, note=33, velocity=0, time=0),\n",
       "   Message('note_on', channel=9, note=44, velocity=100, time=0),\n",
       "   Message('note_on', channel=9, note=33, velocity=100, time=0),\n",
       "   Message('note_on', channel=9, note=44, velocity=0, time=30),\n",
       "   Message('note_on', channel=9, note=33, velocity=0, time=30),\n",
       "   Message('note_on', channel=9, note=50, velocity=100, time=0),\n",
       "   Message('note_on', channel=9, note=44, velocity=100, time=0),\n",
       "   Message('note_on', channel=9, note=44, velocity=0, time=30),\n",
       "   Message('note_on', channel=9, note=44, velocity=100, time=0),\n",
       "   Message('note_on', channel=9, note=44, velocity=0, time=30),\n",
       "   Message('note_on', channel=9, note=50, velocity=0, time=0),\n",
       "   Message('note_on', channel=9, note=47, velocity=100, time=0),\n",
       "   Message('note_on', channel=9, note=81, velocity=100, time=0),\n",
       "   Message('note_on', channel=9, note=40, velocity=100, time=0),\n",
       "   Message('note_on', channel=9, note=44, velocity=100, time=0),\n",
       "   Message('note_on', channel=9, note=44, velocity=0, time=30),\n",
       "   Message('note_on', channel=9, note=40, velocity=0, time=0),\n",
       "   Message('note_on', channel=9, note=47, velocity=0, time=30),\n",
       "   Message('note_on', channel=9, note=45, velocity=100, time=0),\n",
       "   Message('note_on', channel=9, note=44, velocity=100, time=0),\n",
       "   Message('note_on', channel=9, note=44, velocity=0, time=30),\n",
       "   Message('note_on', channel=9, note=45, velocity=0, time=0),\n",
       "   Message('note_on', channel=9, note=44, velocity=100, time=0),\n",
       "   Message('note_on', channel=9, note=44, velocity=0, time=30),\n",
       "   Message('note_on', channel=9, note=81, velocity=0, time=0),\n",
       "   Message('note_on', channel=9, note=44, velocity=100, time=0),\n",
       "   Message('note_on', channel=9, note=33, velocity=100, time=0),\n",
       "   Message('note_on', channel=9, note=44, velocity=0, time=30),\n",
       "   Message('note_on', channel=9, note=33, velocity=0, time=30),\n",
       "   Message('note_on', channel=9, note=44, velocity=100, time=0),\n",
       "   Message('note_on', channel=9, note=44, velocity=0, time=30),\n",
       "   Message('note_on', channel=9, note=44, velocity=100, time=0),\n",
       "   Message('note_on', channel=9, note=44, velocity=0, time=30),\n",
       "   Message('note_on', channel=9, note=40, velocity=100, time=0),\n",
       "   Message('note_on', channel=9, note=44, velocity=100, time=0),\n",
       "   Message('note_on', channel=9, note=44, velocity=0, time=30),\n",
       "   Message('note_on', channel=9, note=40, velocity=0, time=30),\n",
       "   Message('note_on', channel=9, note=44, velocity=100, time=0),\n",
       "   Message('note_on', channel=9, note=33, velocity=100, time=0),\n",
       "   Message('note_on', channel=9, note=44, velocity=0, time=30),\n",
       "   Message('note_on', channel=9, note=44, velocity=100, time=0),\n",
       "   Message('note_on', channel=9, note=44, velocity=0, time=30),\n",
       "   Message('note_on', channel=9, note=33, velocity=0, time=0),\n",
       "   Message('note_on', channel=9, note=44, velocity=100, time=0),\n",
       "   Message('note_on', channel=9, note=33, velocity=100, time=0),\n",
       "   Message('note_on', channel=9, note=44, velocity=0, time=30),\n",
       "   Message('note_on', channel=9, note=33, velocity=0, time=30),\n",
       "   Message('note_on', channel=9, note=44, velocity=100, time=0),\n",
       "   Message('note_on', channel=9, note=44, velocity=0, time=30),\n",
       "   Message('note_on', channel=9, note=44, velocity=100, time=0),\n",
       "   Message('note_on', channel=9, note=44, velocity=0, time=30),\n",
       "   Message('note_on', channel=9, note=81, velocity=100, time=0),\n",
       "   Message('note_on', channel=9, note=40, velocity=100, time=0),\n",
       "   Message('note_on', channel=9, note=44, velocity=100, time=0),\n",
       "   Message('note_on', channel=9, note=44, velocity=0, time=30),\n",
       "   Message('note_on', channel=9, note=40, velocity=0, time=0),\n",
       "   Message('note_on', channel=9, note=44, velocity=100, time=30),\n",
       "   Message('note_on', channel=9, note=44, velocity=0, time=30),\n",
       "   Message('note_on', channel=9, note=44, velocity=100, time=0),\n",
       "   Message('note_on', channel=9, note=44, velocity=0, time=30),\n",
       "   Message('note_on', channel=9, note=81, velocity=0, time=0),\n",
       "   Message('note_on', channel=9, note=44, velocity=100, time=0),\n",
       "   Message('note_on', channel=9, note=33, velocity=100, time=0),\n",
       "   Message('note_on', channel=9, note=44, velocity=0, time=30),\n",
       "   Message('note_on', channel=9, note=33, velocity=0, time=30),\n",
       "   Message('note_on', channel=9, note=44, velocity=100, time=0),\n",
       "   Message('note_on', channel=9, note=44, velocity=0, time=30),\n",
       "   Message('note_on', channel=9, note=44, velocity=100, time=0),\n",
       "   Message('note_on', channel=9, note=44, velocity=0, time=30),\n",
       "   Message('note_on', channel=9, note=40, velocity=100, time=0),\n",
       "   Message('note_on', channel=9, note=44, velocity=100, time=0),\n",
       "   Message('note_on', channel=9, note=44, velocity=0, time=30),\n",
       "   Message('note_on', channel=9, note=40, velocity=0, time=30),\n",
       "   Message('note_on', channel=9, note=44, velocity=100, time=0),\n",
       "   Message('note_on', channel=9, note=33, velocity=100, time=0),\n",
       "   Message('note_on', channel=9, note=44, velocity=0, time=30),\n",
       "   Message('note_on', channel=9, note=44, velocity=100, time=0),\n",
       "   Message('note_on', channel=9, note=44, velocity=0, time=30),\n",
       "   Message('note_on', channel=9, note=33, velocity=0, time=0),\n",
       "   Message('note_on', channel=9, note=44, velocity=100, time=0),\n",
       "   Message('note_on', channel=9, note=33, velocity=100, time=0),\n",
       "   Message('note_on', channel=9, note=44, velocity=0, time=30),\n",
       "   Message('note_on', channel=9, note=33, velocity=0, time=30),\n",
       "   Message('note_on', channel=9, note=44, velocity=100, time=0),\n",
       "   Message('note_on', channel=9, note=44, velocity=0, time=30),\n",
       "   Message('note_on', channel=9, note=44, velocity=100, time=0),\n",
       "   Message('note_on', channel=9, note=44, velocity=0, time=30),\n",
       "   Message('note_on', channel=9, note=81, velocity=100, time=0),\n",
       "   Message('note_on', channel=9, note=40, velocity=100, time=0),\n",
       "   Message('note_on', channel=9, note=44, velocity=100, time=0),\n",
       "   Message('note_on', channel=9, note=44, velocity=0, time=30),\n",
       "   Message('note_on', channel=9, note=40, velocity=0, time=0),\n",
       "   Message('note_on', channel=9, note=44, velocity=100, time=30),\n",
       "   Message('note_on', channel=9, note=44, velocity=0, time=30),\n",
       "   Message('note_on', channel=9, note=44, velocity=100, time=0),\n",
       "   Message('note_on', channel=9, note=44, velocity=0, time=30),\n",
       "   Message('note_on', channel=9, note=81, velocity=0, time=0),\n",
       "   Message('note_on', channel=9, note=44, velocity=100, time=0),\n",
       "   Message('note_on', channel=9, note=33, velocity=100, time=0),\n",
       "   Message('note_on', channel=9, note=44, velocity=0, time=30),\n",
       "   Message('note_on', channel=9, note=33, velocity=0, time=30),\n",
       "   Message('note_on', channel=9, note=44, velocity=100, time=0),\n",
       "   Message('note_on', channel=9, note=44, velocity=0, time=30),\n",
       "   Message('note_on', channel=9, note=44, velocity=100, time=0),\n",
       "   Message('note_on', channel=9, note=44, velocity=0, time=30),\n",
       "   Message('note_on', channel=9, note=40, velocity=100, time=0),\n",
       "   Message('note_on', channel=9, note=44, velocity=100, time=0),\n",
       "   Message('note_on', channel=9, note=44, velocity=0, time=30),\n",
       "   Message('note_on', channel=9, note=40, velocity=0, time=30),\n",
       "   Message('note_on', channel=9, note=44, velocity=100, time=0),\n",
       "   Message('note_on', channel=9, note=33, velocity=100, time=0),\n",
       "   Message('note_on', channel=9, note=44, velocity=0, time=30),\n",
       "   Message('note_on', channel=9, note=44, velocity=100, time=0),\n",
       "   Message('note_on', channel=9, note=44, velocity=0, time=30),\n",
       "   Message('note_on', channel=9, note=33, velocity=0, time=0),\n",
       "   Message('note_on', channel=9, note=44, velocity=100, time=0),\n",
       "   Message('note_on', channel=9, note=33, velocity=100, time=0),\n",
       "   Message('note_on', channel=9, note=44, velocity=0, time=30),\n",
       "   Message('note_on', channel=9, note=33, velocity=0, time=30),\n",
       "   Message('note_on', channel=9, note=44, velocity=100, time=0),\n",
       "   Message('note_on', channel=9, note=44, velocity=0, time=30),\n",
       "   Message('note_on', channel=9, note=44, velocity=100, time=0),\n",
       "   Message('note_on', channel=9, note=44, velocity=0, time=30),\n",
       "   Message('note_on', channel=9, note=81, velocity=100, time=0),\n",
       "   Message('note_on', channel=9, note=40, velocity=100, time=0),\n",
       "   Message('note_on', channel=9, note=44, velocity=100, time=0),\n",
       "   Message('note_on', channel=9, note=44, velocity=0, time=30),\n",
       "   Message('note_on', channel=9, note=40, velocity=0, time=0),\n",
       "   Message('note_on', channel=9, note=44, velocity=100, time=30),\n",
       "   Message('note_on', channel=9, note=44, velocity=0, time=30),\n",
       "   Message('note_on', channel=9, note=44, velocity=100, time=0),\n",
       "   Message('note_on', channel=9, note=44, velocity=0, time=30),\n",
       "   Message('note_on', channel=9, note=81, velocity=0, time=0),\n",
       "   Message('note_on', channel=9, note=44, velocity=100, time=0),\n",
       "   Message('note_on', channel=9, note=33, velocity=100, time=0),\n",
       "   Message('note_on', channel=9, note=44, velocity=0, time=30),\n",
       "   Message('note_on', channel=9, note=33, velocity=0, time=30),\n",
       "   Message('note_on', channel=9, note=44, velocity=100, time=0),\n",
       "   Message('note_on', channel=9, note=44, velocity=0, time=30),\n",
       "   Message('note_on', channel=9, note=44, velocity=100, time=0),\n",
       "   Message('note_on', channel=9, note=44, velocity=0, time=30),\n",
       "   Message('note_on', channel=9, note=40, velocity=100, time=0),\n",
       "   Message('note_on', channel=9, note=44, velocity=100, time=0),\n",
       "   Message('note_on', channel=9, note=44, velocity=0, time=30),\n",
       "   Message('note_on', channel=9, note=40, velocity=0, time=30),\n",
       "   Message('note_on', channel=9, note=44, velocity=100, time=0),\n",
       "   Message('note_on', channel=9, note=33, velocity=100, time=0),\n",
       "   Message('note_on', channel=9, note=44, velocity=0, time=30),\n",
       "   Message('note_on', channel=9, note=44, velocity=100, time=0),\n",
       "   Message('note_on', channel=9, note=44, velocity=0, time=30),\n",
       "   Message('note_on', channel=9, note=33, velocity=0, time=0),\n",
       "   Message('note_on', channel=9, note=44, velocity=100, time=0),\n",
       "   Message('note_on', channel=9, note=33, velocity=100, time=0),\n",
       "   Message('note_on', channel=9, note=44, velocity=0, time=30),\n",
       "   Message('note_on', channel=9, note=33, velocity=0, time=30),\n",
       "   Message('note_on', channel=9, note=50, velocity=100, time=0),\n",
       "   Message('note_on', channel=9, note=44, velocity=100, time=0),\n",
       "   Message('note_on', channel=9, note=44, velocity=0, time=30),\n",
       "   Message('note_on', channel=9, note=44, velocity=100, time=0),\n",
       "   Message('note_on', channel=9, note=44, velocity=0, time=30),\n",
       "   Message('note_on', channel=9, note=50, velocity=0, time=0),\n",
       "   Message('note_on', channel=9, note=45, velocity=100, time=0),\n",
       "   Message('note_on', channel=9, note=81, velocity=100, time=0),\n",
       "   Message('note_on', channel=9, note=40, velocity=100, time=0),\n",
       "   Message('note_on', channel=9, note=44, velocity=100, time=0),\n",
       "   Message('note_on', channel=9, note=44, velocity=0, time=30),\n",
       "   Message('note_on', channel=9, note=40, velocity=0, time=0),\n",
       "   Message('note_on', channel=9, note=45, velocity=0, time=30),\n",
       "   Message('note_on', channel=9, note=43, velocity=100, time=0),\n",
       "   Message('note_on', channel=9, note=44, velocity=100, time=0),\n",
       "   Message('note_on', channel=9, note=44, velocity=0, time=30),\n",
       "   Message('note_on', channel=9, note=43, velocity=0, time=0),\n",
       "   Message('note_on', channel=9, note=44, velocity=100, time=0),\n",
       "   Message('note_on', channel=9, note=44, velocity=0, time=30),\n",
       "   Message('note_on', channel=9, note=81, velocity=0, time=0),\n",
       "   Message('note_on', channel=9, note=44, velocity=100, time=0),\n",
       "   Message('note_on', channel=9, note=33, velocity=100, time=0),\n",
       "   Message('note_on', channel=9, note=44, velocity=0, time=30),\n",
       "   Message('note_on', channel=9, note=33, velocity=0, time=30),\n",
       "   Message('note_on', channel=9, note=44, velocity=100, time=0),\n",
       "   Message('note_on', channel=9, note=44, velocity=0, time=30),\n",
       "   Message('note_on', channel=9, note=44, velocity=100, time=0),\n",
       "   Message('note_on', channel=9, note=44, velocity=0, time=30),\n",
       "   Message('note_on', channel=9, note=40, velocity=100, time=0),\n",
       "   Message('note_on', channel=9, note=44, velocity=100, time=0),\n",
       "   Message('note_on', channel=9, note=44, velocity=0, time=30),\n",
       "   Message('note_on', channel=9, note=40, velocity=0, time=30),\n",
       "   Message('note_on', channel=9, note=44, velocity=100, time=0),\n",
       "   Message('note_on', channel=9, note=33, velocity=100, time=0),\n",
       "   Message('note_on', channel=9, note=44, velocity=0, time=30),\n",
       "   Message('note_on', channel=9, note=44, velocity=100, time=0),\n",
       "   Message('note_on', channel=9, note=44, velocity=0, time=30),\n",
       "   Message('note_on', channel=9, note=33, velocity=0, time=0),\n",
       "   Message('note_on', channel=9, note=44, velocity=100, time=0),\n",
       "   Message('note_on', channel=9, note=33, velocity=100, time=0),\n",
       "   Message('note_on', channel=9, note=44, velocity=0, time=30),\n",
       "   Message('note_on', channel=9, note=33, velocity=0, time=30),\n",
       "   Message('note_on', channel=9, note=44, velocity=100, time=0),\n",
       "   Message('note_on', channel=9, note=44, velocity=0, time=30),\n",
       "   Message('note_on', channel=9, note=44, velocity=100, time=0),\n",
       "   Message('note_on', channel=9, note=44, velocity=0, time=30),\n",
       "   Message('note_on', channel=9, note=81, velocity=100, time=0),\n",
       "   Message('note_on', channel=9, note=40, velocity=100, time=0),\n",
       "   Message('note_on', channel=9, note=44, velocity=100, time=0),\n",
       "   Message('note_on', channel=9, note=44, velocity=0, time=30),\n",
       "   Message('note_on', channel=9, note=40, velocity=0, time=0),\n",
       "   Message('note_on', channel=9, note=44, velocity=100, time=30),\n",
       "   Message('note_on', channel=9, note=44, velocity=0, time=30),\n",
       "   Message('note_on', channel=9, note=44, velocity=100, time=0),\n",
       "   Message('note_on', channel=9, note=44, velocity=0, time=30),\n",
       "   Message('note_on', channel=9, note=81, velocity=0, time=0),\n",
       "   Message('note_on', channel=9, note=44, velocity=100, time=0),\n",
       "   Message('note_on', channel=9, note=33, velocity=100, time=0),\n",
       "   Message('note_on', channel=9, note=44, velocity=0, time=30),\n",
       "   Message('note_on', channel=9, note=33, velocity=0, time=30),\n",
       "   Message('note_on', channel=9, note=44, velocity=100, time=0),\n",
       "   Message('note_on', channel=9, note=44, velocity=0, time=30),\n",
       "   Message('note_on', channel=9, note=44, velocity=100, time=0),\n",
       "   Message('note_on', channel=9, note=44, velocity=0, time=30),\n",
       "   Message('note_on', channel=9, note=40, velocity=100, time=0),\n",
       "   Message('note_on', channel=9, note=44, velocity=100, time=0),\n",
       "   Message('note_on', channel=9, note=44, velocity=0, time=30),\n",
       "   Message('note_on', channel=9, note=40, velocity=0, time=30),\n",
       "   Message('note_on', channel=9, note=44, velocity=100, time=0),\n",
       "   Message('note_on', channel=9, note=33, velocity=100, time=0),\n",
       "   Message('note_on', channel=9, note=44, velocity=0, time=30),\n",
       "   Message('note_on', channel=9, note=44, velocity=100, time=0),\n",
       "   Message('note_on', channel=9, note=44, velocity=0, time=30),\n",
       "   Message('note_on', channel=9, note=33, velocity=0, time=0),\n",
       "   Message('note_on', channel=9, note=44, velocity=100, time=0),\n",
       "   Message('note_on', channel=9, note=33, velocity=100, time=0),\n",
       "   Message('note_on', channel=9, note=44, velocity=0, time=30),\n",
       "   Message('note_on', channel=9, note=33, velocity=0, time=30),\n",
       "   Message('note_on', channel=9, note=44, velocity=100, time=0),\n",
       "   Message('note_on', channel=9, note=44, velocity=0, time=30),\n",
       "   Message('note_on', channel=9, note=44, velocity=100, time=0),\n",
       "   Message('note_on', channel=9, note=44, velocity=0, time=30),\n",
       "   Message('note_on', channel=9, note=81, velocity=100, time=0),\n",
       "   Message('note_on', channel=9, note=40, velocity=100, time=0),\n",
       "   Message('note_on', channel=9, note=44, velocity=100, time=0),\n",
       "   Message('note_on', channel=9, note=44, velocity=0, time=30),\n",
       "   Message('note_on', channel=9, note=40, velocity=0, time=0),\n",
       "   Message('note_on', channel=9, note=44, velocity=100, time=30),\n",
       "   Message('note_on', channel=9, note=44, velocity=0, time=30),\n",
       "   Message('note_on', channel=9, note=44, velocity=100, time=0),\n",
       "   Message('note_on', channel=9, note=44, velocity=0, time=30),\n",
       "   Message('note_on', channel=9, note=81, velocity=0, time=0),\n",
       "   Message('note_on', channel=9, note=44, velocity=100, time=0),\n",
       "   Message('note_on', channel=9, note=33, velocity=100, time=0),\n",
       "   Message('note_on', channel=9, note=44, velocity=0, time=30),\n",
       "   Message('note_on', channel=9, note=33, velocity=0, time=30),\n",
       "   Message('note_on', channel=9, note=44, velocity=100, time=0),\n",
       "   Message('note_on', channel=9, note=44, velocity=0, time=30),\n",
       "   Message('note_on', channel=9, note=44, velocity=100, time=0),\n",
       "   Message('note_on', channel=9, note=44, velocity=0, time=30),\n",
       "   Message('note_on', channel=9, note=40, velocity=100, time=0),\n",
       "   Message('note_on', channel=9, note=44, velocity=100, time=0),\n",
       "   Message('note_on', channel=9, note=44, velocity=0, time=30),\n",
       "   Message('note_on', channel=9, note=40, velocity=0, time=30),\n",
       "   Message('note_on', channel=9, note=44, velocity=100, time=0),\n",
       "   Message('note_on', channel=9, note=33, velocity=100, time=0),\n",
       "   Message('note_on', channel=9, note=44, velocity=0, time=30),\n",
       "   Message('note_on', channel=9, note=44, velocity=100, time=0),\n",
       "   Message('note_on', channel=9, note=44, velocity=0, time=30),\n",
       "   Message('note_on', channel=9, note=33, velocity=0, time=0),\n",
       "   Message('note_on', channel=9, note=44, velocity=100, time=0),\n",
       "   Message('note_on', channel=9, note=33, velocity=100, time=0),\n",
       "   Message('note_on', channel=9, note=44, velocity=0, time=30),\n",
       "   Message('note_on', channel=9, note=33, velocity=0, time=30),\n",
       "   Message('note_on', channel=9, note=44, velocity=100, time=0),\n",
       "   Message('note_on', channel=9, note=44, velocity=0, time=30),\n",
       "   Message('note_on', channel=9, note=44, velocity=100, time=0),\n",
       "   Message('note_on', channel=9, note=44, velocity=0, time=30),\n",
       "   Message('note_on', channel=9, note=81, velocity=100, time=0),\n",
       "   Message('note_on', channel=9, note=40, velocity=100, time=0),\n",
       "   Message('note_on', channel=9, note=44, velocity=100, time=0),\n",
       "   Message('note_on', channel=9, note=44, velocity=0, time=30),\n",
       "   Message('note_on', channel=9, note=40, velocity=0, time=0),\n",
       "   Message('note_on', channel=9, note=44, velocity=100, time=30),\n",
       "   Message('note_on', channel=9, note=44, velocity=0, time=30),\n",
       "   Message('note_on', channel=9, note=44, velocity=100, time=0),\n",
       "   Message('note_on', channel=9, note=44, velocity=0, time=30),\n",
       "   Message('note_on', channel=9, note=81, velocity=0, time=0),\n",
       "   Message('note_on', channel=9, note=44, velocity=100, time=0),\n",
       "   Message('note_on', channel=9, note=33, velocity=100, time=0),\n",
       "   Message('note_on', channel=9, note=44, velocity=0, time=30),\n",
       "   Message('note_on', channel=9, note=33, velocity=0, time=30),\n",
       "   Message('note_on', channel=9, note=44, velocity=100, time=0),\n",
       "   Message('note_on', channel=9, note=44, velocity=0, time=30),\n",
       "   Message('note_on', channel=9, note=44, velocity=100, time=0),\n",
       "   Message('note_on', channel=9, note=44, velocity=0, time=30),\n",
       "   Message('note_on', channel=9, note=40, velocity=100, time=0),\n",
       "   Message('note_on', channel=9, note=44, velocity=100, time=0),\n",
       "   Message('note_on', channel=9, note=44, velocity=0, time=30),\n",
       "   Message('note_on', channel=9, note=40, velocity=0, time=30),\n",
       "   Message('note_on', channel=9, note=44, velocity=100, time=0),\n",
       "   Message('note_on', channel=9, note=33, velocity=100, time=0),\n",
       "   Message('note_on', channel=9, note=44, velocity=0, time=30),\n",
       "   Message('note_on', channel=9, note=44, velocity=100, time=0),\n",
       "   Message('note_on', channel=9, note=44, velocity=0, time=30),\n",
       "   Message('note_on', channel=9, note=33, velocity=0, time=0),\n",
       "   Message('note_on', channel=9, note=44, velocity=100, time=0),\n",
       "   Message('note_on', channel=9, note=33, velocity=100, time=0),\n",
       "   Message('note_on', channel=9, note=44, velocity=0, time=30),\n",
       "   Message('note_on', channel=9, note=33, velocity=0, time=30),\n",
       "   Message('note_on', channel=9, note=44, velocity=100, time=0),\n",
       "   Message('note_on', channel=9, note=44, velocity=0, time=30),\n",
       "   Message('note_on', channel=9, note=44, velocity=100, time=0),\n",
       "   Message('note_on', channel=9, note=44, velocity=0, time=30),\n",
       "   Message('note_on', channel=9, note=81, velocity=100, time=0),\n",
       "   Message('note_on', channel=9, note=40, velocity=100, time=0),\n",
       "   Message('note_on', channel=9, note=44, velocity=100, time=0),\n",
       "   Message('note_on', channel=9, note=44, velocity=0, time=30),\n",
       "   Message('note_on', channel=9, note=40, velocity=0, time=0),\n",
       "   Message('note_on', channel=9, note=44, velocity=100, time=30),\n",
       "   Message('note_on', channel=9, note=44, velocity=0, time=30),\n",
       "   Message('note_on', channel=9, note=44, velocity=100, time=0),\n",
       "   Message('note_on', channel=9, note=44, velocity=0, time=30),\n",
       "   Message('note_on', channel=9, note=81, velocity=0, time=0),\n",
       "   Message('note_on', channel=9, note=44, velocity=100, time=0),\n",
       "   Message('note_on', channel=9, note=33, velocity=100, time=0),\n",
       "   Message('note_on', channel=9, note=44, velocity=0, time=30),\n",
       "   Message('note_on', channel=9, note=33, velocity=0, time=30),\n",
       "   Message('note_on', channel=9, note=44, velocity=100, time=0),\n",
       "   Message('note_on', channel=9, note=44, velocity=0, time=30),\n",
       "   Message('note_on', channel=9, note=44, velocity=100, time=0),\n",
       "   Message('note_on', channel=9, note=44, velocity=0, time=30),\n",
       "   Message('note_on', channel=9, note=40, velocity=100, time=0),\n",
       "   Message('note_on', channel=9, note=44, velocity=100, time=0),\n",
       "   Message('note_on', channel=9, note=44, velocity=0, time=30),\n",
       "   Message('note_on', channel=9, note=40, velocity=0, time=30),\n",
       "   Message('note_on', channel=9, note=44, velocity=100, time=0),\n",
       "   Message('note_on', channel=9, note=33, velocity=100, time=0),\n",
       "   Message('note_on', channel=9, note=44, velocity=0, time=30),\n",
       "   Message('note_on', channel=9, note=44, velocity=100, time=0),\n",
       "   Message('note_on', channel=9, note=44, velocity=0, time=30),\n",
       "   Message('note_on', channel=9, note=33, velocity=0, time=0),\n",
       "   Message('note_on', channel=9, note=44, velocity=100, time=0),\n",
       "   Message('note_on', channel=9, note=33, velocity=100, time=0),\n",
       "   Message('note_on', channel=9, note=44, velocity=0, time=30),\n",
       "   Message('note_on', channel=9, note=33, velocity=0, time=30),\n",
       "   Message('note_on', channel=9, note=44, velocity=100, time=0),\n",
       "   Message('note_on', channel=9, note=44, velocity=0, time=30),\n",
       "   Message('note_on', channel=9, note=44, velocity=100, time=0),\n",
       "   Message('note_on', channel=9, note=44, velocity=0, time=30),\n",
       "   Message('note_on', channel=9, note=81, velocity=100, time=0),\n",
       "   Message('note_on', channel=9, note=40, velocity=100, time=0),\n",
       "   Message('note_on', channel=9, note=44, velocity=100, time=0),\n",
       "   Message('note_on', channel=9, note=44, velocity=0, time=30),\n",
       "   Message('note_on', channel=9, note=40, velocity=0, time=0),\n",
       "   Message('note_on', channel=9, note=44, velocity=100, time=30),\n",
       "   Message('note_on', channel=9, note=44, velocity=0, time=30),\n",
       "   Message('note_on', channel=9, note=44, velocity=100, time=0),\n",
       "   Message('note_on', channel=9, note=44, velocity=0, time=30),\n",
       "   Message('note_on', channel=9, note=81, velocity=0, time=0),\n",
       "   Message('note_on', channel=9, note=44, velocity=100, time=0),\n",
       "   Message('note_on', channel=9, note=33, velocity=100, time=0),\n",
       "   Message('note_on', channel=9, note=44, velocity=0, time=30),\n",
       "   Message('note_on', channel=9, note=33, velocity=0, time=30),\n",
       "   Message('note_on', channel=9, note=44, velocity=100, time=0),\n",
       "   Message('note_on', channel=9, note=44, velocity=0, time=30),\n",
       "   Message('note_on', channel=9, note=44, velocity=100, time=0),\n",
       "   Message('note_on', channel=9, note=44, velocity=0, time=30),\n",
       "   Message('note_on', channel=9, note=40, velocity=100, time=0),\n",
       "   Message('note_on', channel=9, note=44, velocity=100, time=0),\n",
       "   Message('note_on', channel=9, note=44, velocity=0, time=30),\n",
       "   Message('note_on', channel=9, note=40, velocity=0, time=30),\n",
       "   Message('note_on', channel=9, note=44, velocity=100, time=0),\n",
       "   Message('note_on', channel=9, note=33, velocity=100, time=0),\n",
       "   Message('note_on', channel=9, note=44, velocity=0, time=30),\n",
       "   Message('note_on', channel=9, note=44, velocity=100, time=0),\n",
       "   Message('note_on', channel=9, note=44, velocity=0, time=30),\n",
       "   Message('note_on', channel=9, note=33, velocity=0, time=0),\n",
       "   Message('note_on', channel=9, note=44, velocity=100, time=0),\n",
       "   Message('note_on', channel=9, note=33, velocity=100, time=0),\n",
       "   Message('note_on', channel=9, note=44, velocity=0, time=30),\n",
       "   Message('note_on', channel=9, note=33, velocity=0, time=30),\n",
       "   Message('note_on', channel=9, note=44, velocity=100, time=0),\n",
       "   Message('note_on', channel=9, note=44, velocity=0, time=30),\n",
       "   Message('note_on', channel=9, note=44, velocity=100, time=0),\n",
       "   Message('note_on', channel=9, note=44, velocity=0, time=30),\n",
       "   Message('note_on', channel=9, note=81, velocity=100, time=0),\n",
       "   Message('note_on', channel=9, note=40, velocity=100, time=0),\n",
       "   Message('note_on', channel=9, note=44, velocity=100, time=0),\n",
       "   Message('note_on', channel=9, note=44, velocity=0, time=30),\n",
       "   Message('note_on', channel=9, note=40, velocity=0, time=0),\n",
       "   Message('note_on', channel=9, note=44, velocity=100, time=30),\n",
       "   Message('note_on', channel=9, note=44, velocity=0, time=30),\n",
       "   Message('note_on', channel=9, note=44, velocity=100, time=0),\n",
       "   Message('note_on', channel=9, note=44, velocity=0, time=30),\n",
       "   Message('note_on', channel=9, note=81, velocity=0, time=0),\n",
       "   Message('note_on', channel=9, note=44, velocity=100, time=0),\n",
       "   Message('note_on', channel=9, note=33, velocity=100, time=0),\n",
       "   Message('note_on', channel=9, note=44, velocity=0, time=30),\n",
       "   Message('note_on', channel=9, note=33, velocity=0, time=30),\n",
       "   Message('note_on', channel=9, note=44, velocity=100, time=0),\n",
       "   Message('note_on', channel=9, note=44, velocity=0, time=30),\n",
       "   Message('note_on', channel=9, note=44, velocity=100, time=0),\n",
       "   Message('note_on', channel=9, note=44, velocity=0, time=30),\n",
       "   Message('note_on', channel=9, note=40, velocity=100, time=0),\n",
       "   Message('note_on', channel=9, note=44, velocity=100, time=0),\n",
       "   Message('note_on', channel=9, note=44, velocity=0, time=30),\n",
       "   Message('note_on', channel=9, note=40, velocity=0, time=30),\n",
       "   Message('note_on', channel=9, note=44, velocity=100, time=0),\n",
       "   Message('note_on', channel=9, note=33, velocity=100, time=0),\n",
       "   Message('note_on', channel=9, note=44, velocity=0, time=30),\n",
       "   Message('note_on', channel=9, note=44, velocity=100, time=0),\n",
       "   Message('note_on', channel=9, note=44, velocity=0, time=30),\n",
       "   Message('note_on', channel=9, note=33, velocity=0, time=0),\n",
       "   Message('note_on', channel=9, note=44, velocity=100, time=0),\n",
       "   Message('note_on', channel=9, note=33, velocity=100, time=0),\n",
       "   Message('note_on', channel=9, note=44, velocity=0, time=30),\n",
       "   Message('note_on', channel=9, note=33, velocity=0, time=30),\n",
       "   Message('note_on', channel=9, note=44, velocity=100, time=0),\n",
       "   Message('note_on', channel=9, note=44, velocity=0, time=30),\n",
       "   Message('note_on', channel=9, note=44, velocity=100, time=0),\n",
       "   Message('note_on', channel=9, note=44, velocity=0, time=30),\n",
       "   Message('note_on', channel=9, note=81, velocity=100, time=0),\n",
       "   Message('note_on', channel=9, note=40, velocity=100, time=0),\n",
       "   Message('note_on', channel=9, note=44, velocity=100, time=0),\n",
       "   Message('note_on', channel=9, note=44, velocity=0, time=30),\n",
       "   Message('note_on', channel=9, note=40, velocity=0, time=0),\n",
       "   Message('note_on', channel=9, note=44, velocity=100, time=30),\n",
       "   Message('note_on', channel=9, note=44, velocity=0, time=30),\n",
       "   Message('note_on', channel=9, note=44, velocity=100, time=0),\n",
       "   Message('note_on', channel=9, note=44, velocity=0, time=30),\n",
       "   Message('note_on', channel=9, note=81, velocity=0, time=0),\n",
       "   Message('note_on', channel=9, note=44, velocity=100, time=0),\n",
       "   Message('note_on', channel=9, note=33, velocity=100, time=0),\n",
       "   Message('note_on', channel=9, note=44, velocity=0, time=30),\n",
       "   Message('note_on', channel=9, note=33, velocity=0, time=30),\n",
       "   Message('note_on', channel=9, note=44, velocity=100, time=0),\n",
       "   Message('note_on', channel=9, note=44, velocity=0, time=30),\n",
       "   Message('note_on', channel=9, note=44, velocity=100, time=0),\n",
       "   Message('note_on', channel=9, note=44, velocity=0, time=30),\n",
       "   Message('note_on', channel=9, note=40, velocity=100, time=0),\n",
       "   Message('note_on', channel=9, note=44, velocity=100, time=0),\n",
       "   Message('note_on', channel=9, note=44, velocity=0, time=30),\n",
       "   Message('note_on', channel=9, note=40, velocity=0, time=30),\n",
       "   Message('note_on', channel=9, note=44, velocity=100, time=0),\n",
       "   Message('note_on', channel=9, note=33, velocity=100, time=0),\n",
       "   Message('note_on', channel=9, note=44, velocity=0, time=30),\n",
       "   Message('note_on', channel=9, note=44, velocity=100, time=0),\n",
       "   Message('note_on', channel=9, note=44, velocity=0, time=30),\n",
       "   Message('note_on', channel=9, note=33, velocity=0, time=0),\n",
       "   Message('note_on', channel=9, note=44, velocity=100, time=0),\n",
       "   Message('note_on', channel=9, note=33, velocity=100, time=0),\n",
       "   Message('note_on', channel=9, note=44, velocity=0, time=30),\n",
       "   Message('note_on', channel=9, note=33, velocity=0, time=30),\n",
       "   Message('note_on', channel=9, note=44, velocity=100, time=0),\n",
       "   Message('note_on', channel=9, note=44, velocity=0, time=30),\n",
       "   Message('note_on', channel=9, note=44, velocity=100, time=0),\n",
       "   Message('note_on', channel=9, note=44, velocity=0, time=30),\n",
       "   Message('note_on', channel=9, note=81, velocity=100, time=0),\n",
       "   Message('note_on', channel=9, note=40, velocity=100, time=0),\n",
       "   Message('note_on', channel=9, note=44, velocity=100, time=0),\n",
       "   Message('note_on', channel=9, note=44, velocity=0, time=30),\n",
       "   Message('note_on', channel=9, note=40, velocity=0, time=0),\n",
       "   Message('note_on', channel=9, note=44, velocity=100, time=30),\n",
       "   Message('note_on', channel=9, note=44, velocity=0, time=30),\n",
       "   Message('note_on', channel=9, note=44, velocity=100, time=0),\n",
       "   Message('note_on', channel=9, note=44, velocity=0, time=30),\n",
       "   Message('note_on', channel=9, note=81, velocity=0, time=0),\n",
       "   Message('note_on', channel=9, note=44, velocity=100, time=0),\n",
       "   Message('note_on', channel=9, note=33, velocity=100, time=0),\n",
       "   Message('note_on', channel=9, note=44, velocity=0, time=30),\n",
       "   Message('note_on', channel=9, note=33, velocity=0, time=30),\n",
       "   Message('note_on', channel=9, note=44, velocity=100, time=0),\n",
       "   Message('note_on', channel=9, note=44, velocity=0, time=30),\n",
       "   Message('note_on', channel=9, note=44, velocity=100, time=0),\n",
       "   Message('note_on', channel=9, note=44, velocity=0, time=30),\n",
       "   Message('note_on', channel=9, note=40, velocity=100, time=0),\n",
       "   Message('note_on', channel=9, note=44, velocity=100, time=0),\n",
       "   Message('note_on', channel=9, note=44, velocity=0, time=30),\n",
       "   Message('note_on', channel=9, note=40, velocity=0, time=30),\n",
       "   Message('note_on', channel=9, note=44, velocity=100, time=0),\n",
       "   Message('note_on', channel=9, note=33, velocity=100, time=0),\n",
       "   Message('note_on', channel=9, note=44, velocity=0, time=30),\n",
       "   Message('note_on', channel=9, note=44, velocity=100, time=0),\n",
       "   Message('note_on', channel=9, note=44, velocity=0, time=30),\n",
       "   Message('note_on', channel=9, note=33, velocity=0, time=0),\n",
       "   Message('note_on', channel=9, note=44, velocity=100, time=0),\n",
       "   Message('note_on', channel=9, note=33, velocity=100, time=0),\n",
       "   Message('note_on', channel=9, note=44, velocity=0, time=30),\n",
       "   Message('note_on', channel=9, note=33, velocity=0, time=30),\n",
       "   Message('note_on', channel=9, note=44, velocity=100, time=0),\n",
       "   Message('note_on', channel=9, note=44, velocity=0, time=30),\n",
       "   Message('note_on', channel=9, note=44, velocity=100, time=0),\n",
       "   Message('note_on', channel=9, note=44, velocity=0, time=30),\n",
       "   Message('note_on', channel=9, note=81, velocity=100, time=0),\n",
       "   Message('note_on', channel=9, note=40, velocity=100, time=0),\n",
       "   Message('note_on', channel=9, note=44, velocity=100, time=0),\n",
       "   Message('note_on', channel=9, note=44, velocity=0, time=30),\n",
       "   Message('note_on', channel=9, note=40, velocity=0, time=0),\n",
       "   Message('note_on', channel=9, note=44, velocity=100, time=30),\n",
       "   Message('note_on', channel=9, note=44, velocity=0, time=30),\n",
       "   Message('note_on', channel=9, note=44, velocity=100, time=0),\n",
       "   Message('note_on', channel=9, note=44, velocity=0, time=30),\n",
       "   Message('note_on', channel=9, note=81, velocity=0, time=0),\n",
       "   Message('note_on', channel=9, note=44, velocity=100, time=0),\n",
       "   Message('note_on', channel=9, note=33, velocity=100, time=0),\n",
       "   Message('note_on', channel=9, note=44, velocity=0, time=30),\n",
       "   Message('note_on', channel=9, note=33, velocity=0, time=30),\n",
       "   Message('note_on', channel=9, note=44, velocity=100, time=0),\n",
       "   Message('note_on', channel=9, note=44, velocity=0, time=30),\n",
       "   Message('note_on', channel=9, note=44, velocity=100, time=0),\n",
       "   Message('note_on', channel=9, note=44, velocity=0, time=30),\n",
       "   Message('note_on', channel=9, note=40, velocity=100, time=0),\n",
       "   Message('note_on', channel=9, note=44, velocity=100, time=0),\n",
       "   Message('note_on', channel=9, note=44, velocity=0, time=30),\n",
       "   Message('note_on', channel=9, note=40, velocity=0, time=30),\n",
       "   Message('note_on', channel=9, note=44, velocity=100, time=0),\n",
       "   Message('note_on', channel=9, note=33, velocity=100, time=0),\n",
       "   Message('note_on', channel=9, note=44, velocity=0, time=30),\n",
       "   Message('note_on', channel=9, note=44, velocity=100, time=0),\n",
       "   Message('note_on', channel=9, note=44, velocity=0, time=30),\n",
       "   Message('note_on', channel=9, note=33, velocity=0, time=0),\n",
       "   Message('note_on', channel=9, note=44, velocity=100, time=0),\n",
       "   Message('note_on', channel=9, note=33, velocity=100, time=0),\n",
       "   Message('note_on', channel=9, note=44, velocity=0, time=30),\n",
       "   Message('note_on', channel=9, note=33, velocity=0, time=30),\n",
       "   Message('note_on', channel=9, note=44, velocity=100, time=0),\n",
       "   Message('note_on', channel=9, note=44, velocity=0, time=30),\n",
       "   Message('note_on', channel=9, note=44, velocity=100, time=0),\n",
       "   Message('note_on', channel=9, note=44, velocity=0, time=30),\n",
       "   Message('note_on', channel=9, note=81, velocity=100, time=0),\n",
       "   Message('note_on', channel=9, note=40, velocity=100, time=0),\n",
       "   Message('note_on', channel=9, note=44, velocity=100, time=0),\n",
       "   Message('note_on', channel=9, note=44, velocity=0, time=30),\n",
       "   Message('note_on', channel=9, note=40, velocity=0, time=0),\n",
       "   Message('note_on', channel=9, note=44, velocity=100, time=30),\n",
       "   Message('note_on', channel=9, note=44, velocity=0, time=30),\n",
       "   Message('note_on', channel=9, note=44, velocity=100, time=0),\n",
       "   Message('note_on', channel=9, note=44, velocity=0, time=30),\n",
       "   Message('note_on', channel=9, note=81, velocity=0, time=0),\n",
       "   Message('note_on', channel=9, note=44, velocity=100, time=0),\n",
       "   Message('note_on', channel=9, note=33, velocity=100, time=0),\n",
       "   Message('note_on', channel=9, note=44, velocity=0, time=30),\n",
       "   Message('note_on', channel=9, note=33, velocity=0, time=30),\n",
       "   Message('note_on', channel=9, note=44, velocity=100, time=0),\n",
       "   Message('note_on', channel=9, note=44, velocity=0, time=30),\n",
       "   Message('note_on', channel=9, note=44, velocity=100, time=0),\n",
       "   Message('note_on', channel=9, note=44, velocity=0, time=30),\n",
       "   Message('note_on', channel=9, note=40, velocity=100, time=0),\n",
       "   Message('note_on', channel=9, note=44, velocity=100, time=0),\n",
       "   Message('note_on', channel=9, note=44, velocity=0, time=30),\n",
       "   Message('note_on', channel=9, note=40, velocity=0, time=30),\n",
       "   Message('note_on', channel=9, note=44, velocity=100, time=0),\n",
       "   Message('note_on', channel=9, note=33, velocity=100, time=0),\n",
       "   Message('note_on', channel=9, note=44, velocity=0, time=30),\n",
       "   Message('note_on', channel=9, note=44, velocity=100, time=0),\n",
       "   Message('note_on', channel=9, note=44, velocity=0, time=30),\n",
       "   Message('note_on', channel=9, note=33, velocity=0, time=0),\n",
       "   Message('note_on', channel=9, note=44, velocity=100, time=0),\n",
       "   Message('note_on', channel=9, note=33, velocity=100, time=0),\n",
       "   Message('note_on', channel=9, note=44, velocity=0, time=30),\n",
       "   Message('note_on', channel=9, note=33, velocity=0, time=30),\n",
       "   Message('note_on', channel=9, note=44, velocity=100, time=0),\n",
       "   Message('note_on', channel=9, note=44, velocity=0, time=30),\n",
       "   Message('note_on', channel=9, note=44, velocity=100, time=0),\n",
       "   Message('note_on', channel=9, note=44, velocity=0, time=30),\n",
       "   Message('note_on', channel=9, note=81, velocity=100, time=0),\n",
       "   Message('note_on', channel=9, note=40, velocity=100, time=0),\n",
       "   Message('note_on', channel=9, note=44, velocity=100, time=0),\n",
       "   Message('note_on', channel=9, note=44, velocity=0, time=30),\n",
       "   Message('note_on', channel=9, note=40, velocity=0, time=0),\n",
       "   Message('note_on', channel=9, note=44, velocity=100, time=30),\n",
       "   Message('note_on', channel=9, note=44, velocity=0, time=30),\n",
       "   Message('note_on', channel=9, note=44, velocity=100, time=0),\n",
       "   Message('note_on', channel=9, note=44, velocity=0, time=30),\n",
       "   Message('note_on', channel=9, note=81, velocity=0, time=0),\n",
       "   Message('note_on', channel=9, note=44, velocity=100, time=0),\n",
       "   Message('note_on', channel=9, note=33, velocity=100, time=0),\n",
       "   Message('note_on', channel=9, note=44, velocity=0, time=30),\n",
       "   Message('note_on', channel=9, note=33, velocity=0, time=30),\n",
       "   Message('note_on', channel=9, note=44, velocity=100, time=0),\n",
       "   Message('note_on', channel=9, note=44, velocity=0, time=30),\n",
       "   Message('note_on', channel=9, note=44, velocity=100, time=0),\n",
       "   Message('note_on', channel=9, note=44, velocity=0, time=30),\n",
       "   Message('note_on', channel=9, note=40, velocity=100, time=0),\n",
       "   Message('note_on', channel=9, note=44, velocity=100, time=0),\n",
       "   Message('note_on', channel=9, note=44, velocity=0, time=30),\n",
       "   Message('note_on', channel=9, note=40, velocity=0, time=30),\n",
       "   Message('note_on', channel=9, note=44, velocity=100, time=0),\n",
       "   Message('note_on', channel=9, note=33, velocity=100, time=0),\n",
       "   Message('note_on', channel=9, note=44, velocity=0, time=30),\n",
       "   Message('note_on', channel=9, note=44, velocity=100, time=0),\n",
       "   Message('note_on', channel=9, note=44, velocity=0, time=30),\n",
       "   Message('note_on', channel=9, note=33, velocity=0, time=0),\n",
       "   Message('note_on', channel=9, note=44, velocity=100, time=0),\n",
       "   Message('note_on', channel=9, note=33, velocity=100, time=0),\n",
       "   Message('note_on', channel=9, note=44, velocity=0, time=30),\n",
       "   Message('note_on', channel=9, note=33, velocity=0, time=30),\n",
       "   Message('note_on', channel=9, note=44, velocity=100, time=0),\n",
       "   Message('note_on', channel=9, note=44, velocity=0, time=30),\n",
       "   Message('note_on', channel=9, note=44, velocity=100, time=0),\n",
       "   Message('note_on', channel=9, note=44, velocity=0, time=30),\n",
       "   Message('note_on', channel=9, note=81, velocity=100, time=0),\n",
       "   Message('note_on', channel=9, note=40, velocity=100, time=0),\n",
       "   Message('note_on', channel=9, note=44, velocity=100, time=0),\n",
       "   Message('note_on', channel=9, note=44, velocity=0, time=30),\n",
       "   Message('note_on', channel=9, note=40, velocity=0, time=0),\n",
       "   Message('note_on', channel=9, note=44, velocity=100, time=30),\n",
       "   Message('note_on', channel=9, note=44, velocity=0, time=30),\n",
       "   Message('note_on', channel=9, note=44, velocity=100, time=0),\n",
       "   Message('note_on', channel=9, note=44, velocity=0, time=30),\n",
       "   Message('note_on', channel=9, note=81, velocity=0, time=0),\n",
       "   Message('note_on', channel=9, note=44, velocity=100, time=0),\n",
       "   Message('note_on', channel=9, note=33, velocity=100, time=0),\n",
       "   Message('note_on', channel=9, note=44, velocity=0, time=30),\n",
       "   Message('note_on', channel=9, note=33, velocity=0, time=30),\n",
       "   Message('note_on', channel=9, note=44, velocity=100, time=0),\n",
       "   Message('note_on', channel=9, note=44, velocity=0, time=30),\n",
       "   Message('note_on', channel=9, note=44, velocity=100, time=0),\n",
       "   Message('note_on', channel=9, note=44, velocity=0, time=30),\n",
       "   Message('note_on', channel=9, note=40, velocity=100, time=0),\n",
       "   Message('note_on', channel=9, note=44, velocity=100, time=0),\n",
       "   Message('note_on', channel=9, note=44, velocity=0, time=30),\n",
       "   Message('note_on', channel=9, note=40, velocity=0, time=30),\n",
       "   Message('note_on', channel=9, note=44, velocity=100, time=0),\n",
       "   Message('note_on', channel=9, note=33, velocity=100, time=0),\n",
       "   Message('note_on', channel=9, note=44, velocity=0, time=30),\n",
       "   Message('note_on', channel=9, note=44, velocity=100, time=0),\n",
       "   Message('note_on', channel=9, note=44, velocity=0, time=30),\n",
       "   Message('note_on', channel=9, note=33, velocity=0, time=0),\n",
       "   Message('note_on', channel=9, note=44, velocity=100, time=0),\n",
       "   Message('note_on', channel=9, note=33, velocity=100, time=0),\n",
       "   Message('note_on', channel=9, note=44, velocity=0, time=30),\n",
       "   Message('note_on', channel=9, note=33, velocity=0, time=30),\n",
       "   Message('note_on', channel=9, note=44, velocity=100, time=0),\n",
       "   Message('note_on', channel=9, note=44, velocity=0, time=30),\n",
       "   Message('note_on', channel=9, note=44, velocity=100, time=0),\n",
       "   Message('note_on', channel=9, note=44, velocity=0, time=30),\n",
       "   Message('note_on', channel=9, note=81, velocity=100, time=0),\n",
       "   Message('note_on', channel=9, note=40, velocity=100, time=0),\n",
       "   Message('note_on', channel=9, note=44, velocity=100, time=0),\n",
       "   Message('note_on', channel=9, note=44, velocity=0, time=30),\n",
       "   Message('note_on', channel=9, note=40, velocity=0, time=0),\n",
       "   Message('note_on', channel=9, note=44, velocity=100, time=30),\n",
       "   Message('note_on', channel=9, note=44, velocity=0, time=30),\n",
       "   Message('note_on', channel=9, note=44, velocity=100, time=0),\n",
       "   Message('note_on', channel=9, note=44, velocity=0, time=30),\n",
       "   Message('note_on', channel=9, note=81, velocity=0, time=0),\n",
       "   Message('note_on', channel=9, note=44, velocity=100, time=0),\n",
       "   Message('note_on', channel=9, note=33, velocity=100, time=0),\n",
       "   Message('note_on', channel=9, note=44, velocity=0, time=30),\n",
       "   Message('note_on', channel=9, note=33, velocity=0, time=30),\n",
       "   Message('note_on', channel=9, note=44, velocity=100, time=0),\n",
       "   Message('note_on', channel=9, note=44, velocity=0, time=30),\n",
       "   Message('note_on', channel=9, note=44, velocity=100, time=0),\n",
       "   Message('note_on', channel=9, note=44, velocity=0, time=30),\n",
       "   Message('note_on', channel=9, note=40, velocity=100, time=0),\n",
       "   Message('note_on', channel=9, note=44, velocity=100, time=0),\n",
       "   Message('note_on', channel=9, note=44, velocity=0, time=30),\n",
       "   Message('note_on', channel=9, note=40, velocity=0, time=30),\n",
       "   Message('note_on', channel=9, note=44, velocity=100, time=0),\n",
       "   Message('note_on', channel=9, note=33, velocity=100, time=0),\n",
       "   Message('note_on', channel=9, note=44, velocity=0, time=30),\n",
       "   Message('note_on', channel=9, note=44, velocity=100, time=0),\n",
       "   Message('note_on', channel=9, note=44, velocity=0, time=30),\n",
       "   Message('note_on', channel=9, note=33, velocity=0, time=0),\n",
       "   Message('note_on', channel=9, note=44, velocity=100, time=0),\n",
       "   Message('note_on', channel=9, note=33, velocity=100, time=0),\n",
       "   Message('note_on', channel=9, note=44, velocity=0, time=30),\n",
       "   Message('note_on', channel=9, note=33, velocity=0, time=30),\n",
       "   Message('note_on', channel=9, note=44, velocity=100, time=0),\n",
       "   Message('note_on', channel=9, note=44, velocity=0, time=30),\n",
       "   Message('note_on', channel=9, note=44, velocity=100, time=0),\n",
       "   Message('note_on', channel=9, note=44, velocity=0, time=30),\n",
       "   Message('note_on', channel=9, note=81, velocity=100, time=0),\n",
       "   Message('note_on', channel=9, note=40, velocity=100, time=0),\n",
       "   Message('note_on', channel=9, note=44, velocity=100, time=0),\n",
       "   Message('note_on', channel=9, note=44, velocity=0, time=30),\n",
       "   Message('note_on', channel=9, note=40, velocity=0, time=0),\n",
       "   Message('note_on', channel=9, note=44, velocity=100, time=30),\n",
       "   Message('note_on', channel=9, note=44, velocity=0, time=30),\n",
       "   Message('note_on', channel=9, note=44, velocity=100, time=0),\n",
       "   Message('note_on', channel=9, note=44, velocity=0, time=30),\n",
       "   Message('note_on', channel=9, note=81, velocity=0, time=0),\n",
       "   Message('note_on', channel=9, note=42, velocity=100, time=0),\n",
       "   Message('note_on', channel=9, note=42, velocity=0, time=120),\n",
       "   Message('note_on', channel=9, note=42, velocity=100, time=0),\n",
       "   Message('note_on', channel=9, note=42, velocity=0, time=120),\n",
       "   Message('note_on', channel=9, note=42, velocity=100, time=0),\n",
       "   Message('note_on', channel=9, note=42, velocity=0, time=120),\n",
       "   Message('note_on', channel=9, note=42, velocity=100, time=0),\n",
       "   Message('note_on', channel=9, note=42, velocity=0, time=120),\n",
       "   Message('note_on', channel=9, note=42, velocity=100, time=0),\n",
       "   Message('note_on', channel=9, note=52, velocity=100, time=0),\n",
       "   Message('note_on', channel=9, note=57, velocity=100, time=0),\n",
       "   Message('note_on', channel=9, note=57, velocity=0, time=120),\n",
       "   Message('note_on', channel=9, note=52, velocity=0, time=0),\n",
       "   Message('note_on', channel=9, note=42, velocity=0, time=0),\n",
       "   Message('note_on', channel=9, note=42, velocity=100, time=0),\n",
       "   Message('note_on', channel=9, note=42, velocity=0, time=120),\n",
       "   Message('note_on', channel=9, note=42, velocity=100, time=0),\n",
       "   Message('note_on', channel=9, note=42, velocity=0, time=120),\n",
       "   Message('note_on', channel=9, note=42, velocity=100, time=0),\n",
       "   Message('note_on', channel=9, note=42, velocity=0, time=120),\n",
       "   Message('note_on', channel=9, note=42, velocity=100, time=0),\n",
       "   Message('note_on', channel=9, note=42, velocity=0, time=120),\n",
       "   Message('note_on', channel=9, note=42, velocity=100, time=0),\n",
       "   Message('note_on', channel=9, note=42, velocity=0, time=120),\n",
       "   Message('note_on', channel=9, note=42, velocity=100, time=0),\n",
       "   Message('note_on', channel=9, note=42, velocity=0, time=120),\n",
       "   Message('note_on', channel=9, note=42, velocity=100, time=0),\n",
       "   Message('note_on', channel=9, note=42, velocity=0, time=120),\n",
       "   Message('note_on', channel=9, note=42, velocity=100, time=0),\n",
       "   Message('note_on', channel=9, note=42, velocity=0, time=120),\n",
       "   Message('note_on', channel=9, note=42, velocity=100, time=0),\n",
       "   Message('note_on', channel=9, note=42, velocity=0, time=120),\n",
       "   Message('note_on', channel=9, note=51, velocity=100, time=0),\n",
       "   Message('note_on', channel=9, note=42, velocity=100, time=0),\n",
       "   Message('note_on', channel=9, note=51, velocity=0, time=30),\n",
       "   Message('note_on', channel=9, note=51, velocity=100, time=30),\n",
       "   Message('note_on', channel=9, note=51, velocity=0, time=30),\n",
       "   Message('note_on', channel=9, note=42, velocity=0, time=30),\n",
       "   Message('note_on', channel=9, note=51, velocity=100, time=0),\n",
       "   Message('note_on', channel=9, note=42, velocity=100, time=0),\n",
       "   Message('note_on', channel=9, note=51, velocity=0, time=30),\n",
       "   Message('note_on', channel=9, note=51, velocity=100, time=30),\n",
       "   Message('note_on', channel=9, note=51, velocity=0, time=30),\n",
       "   Message('note_on', channel=9, note=42, velocity=0, time=30),\n",
       "   Message('note_on', channel=9, note=61, velocity=90, time=0),\n",
       "   Message('note_on', channel=9, note=61, velocity=90, time=0),\n",
       "   Message('note_on', channel=9, note=60, velocity=90, time=0),\n",
       "   Message('note_on', channel=9, note=59, velocity=90, time=0),\n",
       "   Message('note_on', channel=9, note=59, velocity=90, time=0),\n",
       "   Message('note_on', channel=9, note=59, velocity=0, time=15),\n",
       "   Message('note_on', channel=9, note=60, velocity=0, time=0),\n",
       "   Message('note_on', channel=9, note=61, velocity=0, time=0),\n",
       "   Message('note_on', channel=9, note=61, velocity=0, time=0),\n",
       "   Message('note_on', channel=9, note=59, velocity=0, time=0),\n",
       "   Message('note_on', channel=9, note=59, velocity=90, time=0),\n",
       "   Message('note_on', channel=9, note=59, velocity=0, time=15),\n",
       "   Message('note_on', channel=9, note=59, velocity=90, time=0),\n",
       "   Message('note_on', channel=9, note=59, velocity=0, time=15),\n",
       "   Message('note_on', channel=9, note=59, velocity=90, time=0),\n",
       "   Message('note_on', channel=9, note=59, velocity=0, time=15),\n",
       "   Message('note_on', channel=9, note=59, velocity=90, time=0),\n",
       "   Message('note_on', channel=9, note=59, velocity=0, time=15),\n",
       "   Message('note_on', channel=9, note=59, velocity=90, time=0),\n",
       "   Message('note_on', channel=9, note=59, velocity=0, time=15),\n",
       "   Message('note_on', channel=9, note=59, velocity=90, time=0),\n",
       "   Message('note_on', channel=9, note=59, velocity=0, time=15),\n",
       "   Message('note_on', channel=9, note=59, velocity=90, time=0),\n",
       "   Message('note_on', channel=9, note=59, velocity=0, time=15),\n",
       "   Message('note_on', channel=9, note=59, velocity=90, time=0),\n",
       "   Message('note_on', channel=9, note=59, velocity=0, time=15),\n",
       "   Message('note_on', channel=9, note=59, velocity=90, time=0),\n",
       "   Message('note_on', channel=9, note=59, velocity=0, time=15),\n",
       "   Message('note_on', channel=9, note=59, velocity=90, time=0),\n",
       "   Message('note_on', channel=9, note=59, velocity=0, time=15),\n",
       "   Message('note_on', channel=9, note=59, velocity=90, time=0),\n",
       "   Message('note_on', channel=9, note=59, velocity=0, time=15),\n",
       "   Message('note_on', channel=9, note=59, velocity=90, time=0),\n",
       "   Message('note_on', channel=9, note=59, velocity=0, time=15),\n",
       "   Message('note_on', channel=9, note=59, velocity=90, time=0),\n",
       "   Message('note_on', channel=9, note=59, velocity=0, time=15),\n",
       "   Message('note_on', channel=9, note=59, velocity=90, time=0),\n",
       "   Message('note_on', channel=9, note=59, velocity=0, time=15),\n",
       "   Message('note_on', channel=9, note=59, velocity=90, time=0),\n",
       "   Message('note_on', channel=9, note=59, velocity=0, time=15),\n",
       "   Message('note_on', channel=9, note=59, velocity=90, time=0),\n",
       "   Message('note_on', channel=9, note=59, velocity=0, time=15),\n",
       "   Message('note_on', channel=9, note=59, velocity=90, time=0),\n",
       "   Message('note_on', channel=9, note=59, velocity=0, time=15),\n",
       "   Message('note_on', channel=9, note=59, velocity=90, time=0),\n",
       "   Message('note_on', channel=9, note=59, velocity=0, time=15),\n",
       "   Message('note_on', channel=9, note=59, velocity=90, time=0),\n",
       "   Message('note_on', channel=9, note=59, velocity=0, time=15),\n",
       "   Message('note_on', channel=9, note=59, velocity=90, time=0),\n",
       "   Message('note_on', channel=9, note=59, velocity=0, time=15),\n",
       "   Message('note_on', channel=9, note=59, velocity=90, time=0),\n",
       "   Message('note_on', channel=9, note=59, velocity=0, time=15),\n",
       "   Message('note_on', channel=9, note=59, velocity=90, time=0),\n",
       "   Message('note_on', channel=9, note=59, velocity=0, time=15),\n",
       "   Message('note_on', channel=9, note=59, velocity=90, time=0),\n",
       "   Message('note_on', channel=9, note=59, velocity=0, time=15),\n",
       "   Message('note_on', channel=9, note=59, velocity=90, time=0),\n",
       "   Message('note_on', channel=9, note=59, velocity=0, time=15),\n",
       "   Message('note_on', channel=9, note=59, velocity=90, time=0),\n",
       "   Message('note_on', channel=9, note=59, velocity=0, time=15),\n",
       "   Message('note_on', channel=9, note=59, velocity=90, time=0),\n",
       "   Message('note_on', channel=9, note=59, velocity=0, time=15),\n",
       "   Message('note_on', channel=9, note=59, velocity=90, time=0),\n",
       "   Message('note_on', channel=9, note=59, velocity=0, time=15),\n",
       "   Message('note_on', channel=9, note=59, velocity=90, time=0),\n",
       "   Message('note_on', channel=9, note=59, velocity=0, time=15),\n",
       "   MetaMessage('end_of_track', time=0)]),\n",
       " MidiTrack([\n",
       "   MetaMessage('midi_port', port=0, time=0),\n",
       "   MetaMessage('track_name', name='NGINGGGG', time=0),\n",
       "   Message('program_change', channel=6, program=50, time=0),\n",
       "   Message('control_change', channel=6, control=7, value=70, time=0),\n",
       "   Message('control_change', channel=6, control=10, value=64, time=0),\n",
       "   Message('note_on', channel=6, note=81, velocity=90, time=2400),\n",
       "   Message('note_on', channel=6, note=81, velocity=0, time=840),\n",
       "   Message('note_on', channel=6, note=86, velocity=90, time=0),\n",
       "   Message('note_on', channel=6, note=86, velocity=0, time=120),\n",
       "   Message('note_on', channel=6, note=81, velocity=90, time=0),\n",
       "   Message('note_on', channel=6, note=81, velocity=0, time=360),\n",
       "   Message('note_on', channel=6, note=91, velocity=90, time=60),\n",
       "   Message('note_on', channel=6, note=91, velocity=0, time=120),\n",
       "   Message('note_on', channel=6, note=90, velocity=90, time=0),\n",
       "   Message('note_on', channel=6, note=90, velocity=0, time=120),\n",
       "   Message('note_on', channel=6, note=86, velocity=90, time=0),\n",
       "   Message('note_on', channel=6, note=86, velocity=0, time=120),\n",
       "   Message('note_on', channel=6, note=83, velocity=90, time=0),\n",
       "   Message('note_on', channel=6, note=83, velocity=0, time=120),\n",
       "   Message('note_on', channel=6, note=81, velocity=90, time=0),\n",
       "   Message('note_on', channel=6, note=81, velocity=0, time=120),\n",
       "   Message('note_on', channel=6, note=76, velocity=90, time=3900),\n",
       "   Message('note_on', channel=6, note=73, velocity=90, time=0),\n",
       "   Message('note_on', channel=6, note=66, velocity=90, time=0),\n",
       "   Message('note_on', channel=6, note=66, velocity=0, time=120),\n",
       "   Message('note_on', channel=6, note=73, velocity=0, time=0),\n",
       "   Message('note_on', channel=6, note=76, velocity=0, time=0),\n",
       "   Message('note_on', channel=6, note=66, velocity=90, time=0),\n",
       "   Message('note_on', channel=6, note=76, velocity=90, time=0),\n",
       "   Message('note_on', channel=6, note=73, velocity=90, time=0),\n",
       "   Message('note_on', channel=6, note=73, velocity=0, time=60),\n",
       "   Message('note_on', channel=6, note=76, velocity=0, time=0),\n",
       "   Message('note_on', channel=6, note=66, velocity=0, time=0),\n",
       "   Message('note_on', channel=6, note=76, velocity=90, time=0),\n",
       "   Message('note_on', channel=6, note=73, velocity=90, time=0),\n",
       "   Message('note_on', channel=6, note=66, velocity=90, time=0),\n",
       "   Message('note_on', channel=6, note=66, velocity=0, time=60),\n",
       "   Message('note_on', channel=6, note=73, velocity=0, time=0),\n",
       "   Message('note_on', channel=6, note=76, velocity=0, time=0),\n",
       "   Message('note_on', channel=6, note=73, velocity=90, time=720),\n",
       "   Message('note_on', channel=6, note=76, velocity=90, time=0),\n",
       "   Message('note_on', channel=6, note=66, velocity=90, time=0),\n",
       "   Message('note_on', channel=6, note=66, velocity=0, time=120),\n",
       "   Message('note_on', channel=6, note=76, velocity=0, time=0),\n",
       "   Message('note_on', channel=6, note=73, velocity=0, time=0),\n",
       "   Message('note_on', channel=6, note=76, velocity=90, time=0),\n",
       "   Message('note_on', channel=6, note=73, velocity=90, time=0),\n",
       "   Message('note_on', channel=6, note=66, velocity=90, time=0),\n",
       "   Message('note_on', channel=6, note=66, velocity=0, time=60),\n",
       "   Message('note_on', channel=6, note=73, velocity=0, time=0),\n",
       "   Message('note_on', channel=6, note=76, velocity=0, time=0),\n",
       "   Message('note_on', channel=6, note=66, velocity=90, time=0),\n",
       "   Message('note_on', channel=6, note=76, velocity=90, time=0),\n",
       "   Message('note_on', channel=6, note=73, velocity=90, time=0),\n",
       "   Message('note_on', channel=6, note=73, velocity=0, time=60),\n",
       "   Message('note_on', channel=6, note=76, velocity=0, time=0),\n",
       "   Message('note_on', channel=6, note=66, velocity=0, time=0),\n",
       "   Message('note_on', channel=6, note=71, velocity=90, time=600),\n",
       "   Message('note_on', channel=6, note=67, velocity=90, time=0),\n",
       "   Message('note_on', channel=6, note=78, velocity=90, time=0),\n",
       "   Message('note_on', channel=6, note=67, velocity=0, time=420),\n",
       "   Message('note_on', channel=6, note=71, velocity=0, time=0),\n",
       "   Message('note_on', channel=6, note=78, velocity=0, time=60),\n",
       "   Message('note_on', channel=6, note=73, velocity=90, time=0),\n",
       "   Message('note_on', channel=6, note=76, velocity=90, time=0),\n",
       "   Message('note_on', channel=6, note=66, velocity=90, time=0),\n",
       "   Message('note_on', channel=6, note=73, velocity=0, time=120),\n",
       "   Message('note_on', channel=6, note=66, velocity=0, time=60),\n",
       "   Message('note_on', channel=6, note=76, velocity=0, time=0),\n",
       "   Message('note_on', channel=6, note=66, velocity=90, time=0),\n",
       "   Message('note_on', channel=6, note=71, velocity=90, time=0),\n",
       "   Message('note_on', channel=6, note=74, velocity=90, time=0),\n",
       "   Message('note_on', channel=6, note=74, velocity=0, time=240),\n",
       "   Message('note_on', channel=6, note=71, velocity=0, time=0),\n",
       "   Message('note_on', channel=6, note=66, velocity=0, time=60),\n",
       "   Message('note_on', channel=6, note=81, velocity=90, time=1440),\n",
       "   Message('note_on', channel=6, note=73, velocity=90, time=240),\n",
       "   Message('note_on', channel=6, note=73, velocity=0, time=60),\n",
       "   Message('note_on', channel=6, note=74, velocity=90, time=0),\n",
       "   Message('note_on', channel=6, note=74, velocity=0, time=60),\n",
       "   Message('note_on', channel=6, note=81, velocity=90, time=0),\n",
       "   Message('note_on', channel=6, note=86, velocity=90, time=2),\n",
       "   Message('note_on', channel=6, note=81, velocity=0, time=17),\n",
       "   Message('note_on', channel=6, note=81, velocity=0, time=41),\n",
       "   Message('note_on', channel=6, note=73, velocity=90, time=0),\n",
       "   Message('note_on', channel=6, note=81, velocity=50, time=55),\n",
       "   Message('note_on', channel=6, note=86, velocity=0, time=5),\n",
       "   Message('note_on', channel=6, note=73, velocity=0, time=60),\n",
       "   Message('note_on', channel=6, note=74, velocity=90, time=0),\n",
       "   Message('note_on', channel=6, note=74, velocity=0, time=120),\n",
       "   Message('note_on', channel=6, note=73, velocity=90, time=60),\n",
       "   Message('note_on', channel=6, note=73, velocity=0, time=60),\n",
       "   Message('note_on', channel=6, note=74, velocity=90, time=0),\n",
       "   Message('note_on', channel=6, note=86, velocity=50, time=56),\n",
       "   Message('note_on', channel=6, note=74, velocity=0, time=4),\n",
       "   Message('note_on', channel=6, note=81, velocity=0, time=0),\n",
       "   Message('note_on', channel=6, note=81, velocity=50, time=0),\n",
       "   Message('note_on', channel=6, note=81, velocity=0, time=60),\n",
       "   Message('note_on', channel=6, note=69, velocity=90, time=0),\n",
       "   Message('note_on', channel=6, note=81, velocity=90, time=49),\n",
       "   Message('note_on', channel=6, note=86, velocity=0, time=5),\n",
       "   Message('note_on', channel=6, note=69, velocity=0, time=66),\n",
       "   Message('note_on', channel=6, note=71, velocity=90, time=0),\n",
       "   Message('note_on', channel=6, note=71, velocity=0, time=240),\n",
       "   Message('note_on', channel=6, note=69, velocity=90, time=840),\n",
       "   Message('note_on', channel=6, note=69, velocity=0, time=60),\n",
       "   Message('note_on', channel=6, note=73, velocity=90, time=0),\n",
       "   Message('note_on', channel=6, note=73, velocity=0, time=60),\n",
       "   Message('note_on', channel=6, note=74, velocity=90, time=0),\n",
       "   Message('note_on', channel=6, note=86, velocity=50, time=54),\n",
       "   Message('note_on', channel=6, note=74, velocity=0, time=6),\n",
       "   Message('note_on', channel=6, note=81, velocity=90, time=0),\n",
       "   Message('note_on', channel=6, note=81, velocity=0, time=2),\n",
       "   Message('note_on', channel=6, note=81, velocity=0, time=58),\n",
       "   Message('note_on', channel=6, note=73, velocity=90, time=0),\n",
       "   Message('note_on', channel=6, note=81, velocity=50, time=42),\n",
       "   Message('note_on', channel=6, note=86, velocity=0, time=5),\n",
       "   Message('note_on', channel=6, note=73, velocity=0, time=73),\n",
       "   Message('note_on', channel=6, note=74, velocity=90, time=0),\n",
       "   Message('note_on', channel=6, note=74, velocity=0, time=180),\n",
       "   Message('note_on', channel=6, note=73, velocity=90, time=0),\n",
       "   Message('note_on', channel=6, note=73, velocity=0, time=60),\n",
       "   Message('note_on', channel=6, note=74, velocity=90, time=0),\n",
       "   Message('note_on', channel=6, note=81, velocity=0, time=50),\n",
       "   Message('note_on', channel=6, note=74, velocity=0, time=10),\n",
       "   Message('note_on', channel=6, note=86, velocity=50, time=0),\n",
       "   Message('note_on', channel=6, note=81, velocity=50, time=0),\n",
       "   Message('note_on', channel=6, note=81, velocity=0, time=60),\n",
       "   Message('note_on', channel=6, note=69, velocity=90, time=0),\n",
       "   Message('note_on', channel=6, note=81, velocity=90, time=60),\n",
       "   Message('note_on', channel=6, note=86, velocity=0, time=7),\n",
       "   Message('note_on', channel=6, note=69, velocity=0, time=53),\n",
       "   Message('note_on', channel=6, note=71, velocity=90, time=0),\n",
       "   Message('note_on', channel=6, note=71, velocity=0, time=300),\n",
       "   Message('note_on', channel=6, note=91, velocity=50, time=60),\n",
       "   Message('note_on', channel=6, note=81, velocity=0, time=11),\n",
       "   Message('note_on', channel=6, note=91, velocity=0, time=109),\n",
       "   Message('note_on', channel=6, note=90, velocity=50, time=0),\n",
       "   Message('note_on', channel=6, note=90, velocity=0, time=120),\n",
       "   Message('note_on', channel=6, note=86, velocity=50, time=0),\n",
       "   Message('note_on', channel=6, note=86, velocity=0, time=120),\n",
       "   Message('note_on', channel=6, note=83, velocity=50, time=0),\n",
       "   Message('note_on', channel=6, note=83, velocity=0, time=120),\n",
       "   Message('note_on', channel=6, note=81, velocity=50, time=0),\n",
       "   Message('note_on', channel=6, note=81, velocity=0, time=480),\n",
       "   Message('note_on', channel=6, note=76, velocity=90, time=4500),\n",
       "   Message('note_on', channel=6, note=73, velocity=90, time=0),\n",
       "   Message('note_on', channel=6, note=66, velocity=90, time=0),\n",
       "   Message('note_on', channel=6, note=66, velocity=0, time=120),\n",
       "   Message('note_on', channel=6, note=73, velocity=0, time=0),\n",
       "   Message('note_on', channel=6, note=76, velocity=0, time=0),\n",
       "   Message('note_on', channel=6, note=66, velocity=90, time=0),\n",
       "   Message('note_on', channel=6, note=76, velocity=90, time=0),\n",
       "   Message('note_on', channel=6, note=73, velocity=90, time=0),\n",
       "   Message('note_on', channel=6, note=73, velocity=0, time=30),\n",
       "   Message('note_on', channel=6, note=76, velocity=0, time=0),\n",
       "   Message('note_on', channel=6, note=66, velocity=0, time=0),\n",
       "   Message('note_on', channel=6, note=76, velocity=90, time=30),\n",
       "   Message('note_on', channel=6, note=73, velocity=90, time=0),\n",
       "   Message('note_on', channel=6, note=66, velocity=90, time=0),\n",
       "   Message('note_on', channel=6, note=66, velocity=0, time=30),\n",
       "   Message('note_on', channel=6, note=73, velocity=0, time=0),\n",
       "   Message('note_on', channel=6, note=76, velocity=0, time=0),\n",
       "   Message('note_on', channel=6, note=73, velocity=90, time=750),\n",
       "   Message('note_on', channel=6, note=76, velocity=90, time=0),\n",
       "   Message('note_on', channel=6, note=66, velocity=90, time=0),\n",
       "   Message('note_on', channel=6, note=66, velocity=0, time=120),\n",
       "   Message('note_on', channel=6, note=76, velocity=0, time=0),\n",
       "   Message('note_on', channel=6, note=73, velocity=0, time=0),\n",
       "   Message('note_on', channel=6, note=76, velocity=90, time=0),\n",
       "   Message('note_on', channel=6, note=73, velocity=90, time=0),\n",
       "   Message('note_on', channel=6, note=66, velocity=90, time=0),\n",
       "   Message('note_on', channel=6, note=66, velocity=0, time=30),\n",
       "   Message('note_on', channel=6, note=73, velocity=0, time=0),\n",
       "   Message('note_on', channel=6, note=76, velocity=0, time=0),\n",
       "   Message('note_on', channel=6, note=66, velocity=90, time=30),\n",
       "   Message('note_on', channel=6, note=76, velocity=90, time=0),\n",
       "   Message('note_on', channel=6, note=73, velocity=90, time=0),\n",
       "   Message('note_on', channel=6, note=73, velocity=0, time=30),\n",
       "   Message('note_on', channel=6, note=76, velocity=0, time=0),\n",
       "   Message('note_on', channel=6, note=66, velocity=0, time=30),\n",
       "   Message('note_on', channel=6, note=71, velocity=90, time=600),\n",
       "   Message('note_on', channel=6, note=67, velocity=90, time=0),\n",
       "   Message('note_on', channel=6, note=78, velocity=90, time=0),\n",
       "   Message('note_on', channel=6, note=67, velocity=0, time=420),\n",
       "   Message('note_on', channel=6, note=71, velocity=0, time=0),\n",
       "   Message('note_on', channel=6, note=78, velocity=0, time=60),\n",
       "   Message('note_on', channel=6, note=73, velocity=90, time=0),\n",
       "   Message('note_on', channel=6, note=76, velocity=90, time=0),\n",
       "   Message('note_on', channel=6, note=66, velocity=90, time=0),\n",
       "   Message('note_on', channel=6, note=73, velocity=0, time=120),\n",
       "   Message('note_on', channel=6, note=66, velocity=0, time=60),\n",
       "   Message('note_on', channel=6, note=76, velocity=0, time=0),\n",
       "   Message('note_on', channel=6, note=66, velocity=90, time=0),\n",
       "   Message('note_on', channel=6, note=71, velocity=90, time=0),\n",
       "   Message('note_on', channel=6, note=74, velocity=90, time=0),\n",
       "   Message('note_on', channel=6, note=74, velocity=0, time=240),\n",
       "   Message('note_on', channel=6, note=71, velocity=0, time=0),\n",
       "   Message('note_on', channel=6, note=66, velocity=0, time=60),\n",
       "   Message('note_on', channel=6, note=74, velocity=100, time=0),\n",
       "   Message('note_on', channel=6, note=71, velocity=100, time=0),\n",
       "   Message('note_on', channel=6, note=67, velocity=100, time=0),\n",
       "   Message('note_on', channel=6, note=64, velocity=100, time=0),\n",
       "   Message('note_on', channel=6, note=64, velocity=0, time=480),\n",
       "   Message('note_on', channel=6, note=74, velocity=0, time=0),\n",
       "   Message('note_on', channel=6, note=71, velocity=0, time=0),\n",
       "   Message('note_on', channel=6, note=67, velocity=0, time=0),\n",
       "   Message('note_on', channel=6, note=81, velocity=90, time=960),\n",
       "   Message('note_on', channel=6, note=86, velocity=90, time=362),\n",
       "   Message('note_on', channel=6, note=81, velocity=0, time=17),\n",
       "   Message('note_on', channel=6, note=81, velocity=50, time=96),\n",
       "   Message('note_on', channel=6, note=86, velocity=0, time=5),\n",
       "   Message('note_on', channel=6, note=86, velocity=50, time=356),\n",
       "   Message('note_on', channel=6, note=81, velocity=0, time=4),\n",
       "   Message('note_on', channel=6, note=81, velocity=50, time=0),\n",
       "   Message('note_on', channel=6, note=81, velocity=0, time=60),\n",
       "   Message('note_on', channel=6, note=81, velocity=90, time=49),\n",
       "   Message('note_on', channel=6, note=86, velocity=0, time=5),\n",
       "   Message('note_on', channel=6, note=86, velocity=50, time=1320),\n",
       "   Message('note_on', channel=6, note=81, velocity=0, time=8),\n",
       "   Message('note_on', channel=6, note=81, velocity=50, time=100),\n",
       "   Message('note_on', channel=6, note=86, velocity=0, time=5),\n",
       "   Message('note_on', channel=6, note=81, velocity=0, time=363),\n",
       "   Message('note_on', channel=6, note=86, velocity=50, time=10),\n",
       "   Message('note_on', channel=6, note=81, velocity=50, time=0),\n",
       "   Message('note_on', channel=6, note=81, velocity=0, time=60),\n",
       "   Message('note_on', channel=6, note=81, velocity=90, time=60),\n",
       "   Message('note_on', channel=6, note=86, velocity=0, time=7),\n",
       "   Message('note_on', channel=6, note=91, velocity=50, time=413),\n",
       "   Message('note_on', channel=6, note=81, velocity=0, time=11),\n",
       "   Message('note_on', channel=6, note=91, velocity=0, time=109),\n",
       "   Message('note_on', channel=6, note=90, velocity=50, time=0),\n",
       "   Message('note_on', channel=6, note=90, velocity=0, time=120),\n",
       "   Message('note_on', channel=6, note=86, velocity=50, time=0),\n",
       "   Message('note_on', channel=6, note=86, velocity=0, time=120),\n",
       "   Message('note_on', channel=6, note=83, velocity=50, time=0),\n",
       "   Message('note_on', channel=6, note=83, velocity=0, time=120),\n",
       "   Message('note_on', channel=6, note=81, velocity=50, time=0),\n",
       "   Message('note_on', channel=6, note=81, velocity=0, time=480),\n",
       "   Message('note_on', channel=6, note=78, velocity=90, time=2575),\n",
       "   Message('note_on', channel=6, note=75, velocity=90, time=0),\n",
       "   Message('note_on', channel=6, note=68, velocity=90, time=0),\n",
       "   Message('note_on', channel=6, note=68, velocity=0, time=120),\n",
       "   Message('note_on', channel=6, note=75, velocity=0, time=0),\n",
       "   Message('note_on', channel=6, note=78, velocity=0, time=0),\n",
       "   Message('note_on', channel=6, note=68, velocity=90, time=0),\n",
       "   Message('note_on', channel=6, note=78, velocity=90, time=0),\n",
       "   Message('note_on', channel=6, note=75, velocity=90, time=0),\n",
       "   Message('note_on', channel=6, note=75, velocity=0, time=30),\n",
       "   Message('note_on', channel=6, note=78, velocity=0, time=0),\n",
       "   Message('note_on', channel=6, note=68, velocity=0, time=0),\n",
       "   Message('note_on', channel=6, note=78, velocity=90, time=30),\n",
       "   Message('note_on', channel=6, note=75, velocity=90, time=0),\n",
       "   Message('note_on', channel=6, note=68, velocity=90, time=0),\n",
       "   Message('note_on', channel=6, note=68, velocity=0, time=30),\n",
       "   Message('note_on', channel=6, note=75, velocity=0, time=0),\n",
       "   Message('note_on', channel=6, note=78, velocity=0, time=0),\n",
       "   Message('note_on', channel=6, note=75, velocity=90, time=750),\n",
       "   Message('note_on', channel=6, note=78, velocity=90, time=0),\n",
       "   Message('note_on', channel=6, note=68, velocity=90, time=0),\n",
       "   Message('note_on', channel=6, note=68, velocity=0, time=120),\n",
       "   Message('note_on', channel=6, note=78, velocity=0, time=0),\n",
       "   Message('note_on', channel=6, note=75, velocity=0, time=0),\n",
       "   Message('note_on', channel=6, note=78, velocity=90, time=0),\n",
       "   Message('note_on', channel=6, note=75, velocity=90, time=0),\n",
       "   Message('note_on', channel=6, note=68, velocity=90, time=0),\n",
       "   Message('note_on', channel=6, note=68, velocity=0, time=30),\n",
       "   Message('note_on', channel=6, note=75, velocity=0, time=0),\n",
       "   Message('note_on', channel=6, note=78, velocity=0, time=0),\n",
       "   Message('note_on', channel=6, note=68, velocity=90, time=30),\n",
       "   Message('note_on', channel=6, note=78, velocity=90, time=0),\n",
       "   Message('note_on', channel=6, note=75, velocity=90, time=0),\n",
       "   Message('note_on', channel=6, note=75, velocity=0, time=30),\n",
       "   Message('note_on', channel=6, note=78, velocity=0, time=0),\n",
       "   Message('note_on', channel=6, note=68, velocity=0, time=30),\n",
       "   Message('note_on', channel=6, note=73, velocity=90, time=600),\n",
       "   Message('note_on', channel=6, note=69, velocity=90, time=0),\n",
       "   Message('note_on', channel=6, note=80, velocity=90, time=0),\n",
       "   Message('note_on', channel=6, note=69, velocity=0, time=420),\n",
       "   Message('note_on', channel=6, note=73, velocity=0, time=0),\n",
       "   Message('note_on', channel=6, note=80, velocity=0, time=60),\n",
       "   Message('note_on', channel=6, note=75, velocity=90, time=0),\n",
       "   Message('note_on', channel=6, note=78, velocity=90, time=0),\n",
       "   Message('note_on', channel=6, note=68, velocity=90, time=0),\n",
       "   Message('note_on', channel=6, note=75, velocity=0, time=120),\n",
       "   Message('note_on', channel=6, note=68, velocity=0, time=60),\n",
       "   Message('note_on', channel=6, note=78, velocity=0, time=0),\n",
       "   Message('note_on', channel=6, note=68, velocity=90, time=0),\n",
       "   Message('note_on', channel=6, note=73, velocity=90, time=0),\n",
       "   Message('note_on', channel=6, note=76, velocity=90, time=0),\n",
       "   Message('note_on', channel=6, note=76, velocity=0, time=240),\n",
       "   Message('note_on', channel=6, note=73, velocity=0, time=0),\n",
       "   Message('note_on', channel=6, note=68, velocity=0, time=60),\n",
       "   Message('note_on', channel=6, note=76, velocity=100, time=0),\n",
       "   Message('note_on', channel=6, note=73, velocity=100, time=0),\n",
       "   Message('note_on', channel=6, note=69, velocity=100, time=0),\n",
       "   Message('note_on', channel=6, note=66, velocity=100, time=0),\n",
       "   Message('note_on', channel=6, note=66, velocity=0, time=480),\n",
       "   Message('note_on', channel=6, note=76, velocity=0, time=0),\n",
       "   Message('note_on', channel=6, note=73, velocity=0, time=0),\n",
       "   Message('note_on', channel=6, note=69, velocity=0, time=0),\n",
       "   Message('note_on', channel=6, note=80, velocity=90, time=785),\n",
       "   Message('note_on', channel=6, note=80, velocity=0, time=60),\n",
       "   Message('note_on', channel=6, note=78, velocity=90, time=0),\n",
       "   Message('note_on', channel=6, note=78, velocity=0, time=60),\n",
       "   Message('note_on', channel=6, note=78, velocity=90, time=0),\n",
       "   Message('note_on', channel=6, note=78, velocity=0, time=60),\n",
       "   Message('note_on', channel=6, note=76, velocity=100, time=0),\n",
       "   Message('note_on', channel=6, note=76, velocity=0, time=240),\n",
       "   Message('note_on', channel=6, note=75, velocity=90, time=0),\n",
       "   Message('note_on', channel=6, note=75, velocity=0, time=60),\n",
       "   Message('note_on', channel=6, note=76, velocity=90, time=0),\n",
       "   Message('note_on', channel=6, note=76, velocity=0, time=60),\n",
       "   Message('note_on', channel=6, note=83, velocity=90, time=0),\n",
       "   Message('note_on', channel=6, note=83, velocity=0, time=60),\n",
       "   Message('note_on', channel=6, note=75, velocity=90, time=0),\n",
       "   Message('note_on', channel=6, note=75, velocity=0, time=120),\n",
       "   Message('note_on', channel=6, note=76, velocity=90, time=0),\n",
       "   Message('note_on', channel=6, note=76, velocity=0, time=120),\n",
       "   Message('note_on', channel=6, note=75, velocity=90, time=60),\n",
       "   Message('note_on', channel=6, note=75, velocity=0, time=60),\n",
       "   Message('note_on', channel=6, note=76, velocity=90, time=0),\n",
       "   Message('note_on', channel=6, note=76, velocity=0, time=60),\n",
       "   Message('note_on', channel=6, note=83, velocity=90, time=0),\n",
       "   Message('note_on', channel=6, note=83, velocity=0, time=60),\n",
       "   Message('note_on', channel=6, note=71, velocity=90, time=0),\n",
       "   Message('note_on', channel=6, note=71, velocity=0, time=120),\n",
       "   Message('note_on', channel=6, note=73, velocity=90, time=0),\n",
       "   Message('note_on', channel=6, note=73, velocity=0, time=120),\n",
       "   Message('note_on', channel=6, note=73, velocity=90, time=123),\n",
       "   Message('note_on', channel=6, note=73, velocity=0, time=52),\n",
       "   Message('note_on', channel=6, note=76, velocity=90, time=5),\n",
       "   Message('note_on', channel=6, note=76, velocity=0, time=60),\n",
       "   Message('note_on', channel=6, note=81, velocity=90, time=0),\n",
       "   Message('note_on', channel=6, note=81, velocity=0, time=120),\n",
       "   Message('note_on', channel=6, note=80, velocity=90, time=0),\n",
       "   Message('note_on', channel=6, note=80, velocity=0, time=60),\n",
       "   Message('note_on', channel=6, note=76, velocity=90, time=0),\n",
       "   Message('note_on', channel=6, note=76, velocity=0, time=60),\n",
       "   Message('note_on', channel=6, note=81, velocity=90, time=0),\n",
       "   Message('note_on', channel=6, note=81, velocity=0, time=120),\n",
       "   Message('note_on', channel=6, note=80, velocity=90, time=0),\n",
       "   Message('note_on', channel=6, note=80, velocity=0, time=60),\n",
       "   Message('note_on', channel=6, note=78, velocity=90, time=0),\n",
       "   Message('note_on', channel=6, note=78, velocity=0, time=60),\n",
       "   Message('note_on', channel=6, note=78, velocity=90, time=0),\n",
       "   Message('note_on', channel=6, note=78, velocity=0, time=60),\n",
       "   Message('note_on', channel=6, note=76, velocity=90, time=0),\n",
       "   Message('note_on', channel=6, note=76, velocity=0, time=120),\n",
       "   Message('note_on', channel=6, note=71, velocity=90, time=60),\n",
       "   Message('note_on', channel=6, note=71, velocity=0, time=60),\n",
       "   Message('note_on', channel=6, note=75, velocity=90, time=0),\n",
       "   Message('note_on', channel=6, note=75, velocity=0, time=60),\n",
       "   Message('note_on', channel=6, note=76, velocity=90, time=0),\n",
       "   Message('note_on', channel=6, note=76, velocity=0, time=60),\n",
       "   Message('note_on', channel=6, note=83, velocity=90, time=0),\n",
       "   Message('note_on', channel=6, note=83, velocity=0, time=60),\n",
       "   Message('note_on', channel=6, note=75, velocity=90, time=0),\n",
       "   Message('note_on', channel=6, note=75, velocity=0, time=120),\n",
       "   Message('note_on', channel=6, note=76, velocity=90, time=0),\n",
       "   Message('note_on', channel=6, note=76, velocity=0, time=180),\n",
       "   Message('note_on', channel=6, note=75, velocity=90, time=0),\n",
       "   Message('note_on', channel=6, note=75, velocity=0, time=60),\n",
       "   Message('note_on', channel=6, note=76, velocity=90, time=0),\n",
       "   Message('note_on', channel=6, note=76, velocity=0, time=60),\n",
       "   Message('note_on', channel=6, note=83, velocity=90, time=0),\n",
       "   Message('note_on', channel=6, note=83, velocity=0, time=60),\n",
       "   Message('note_on', channel=6, note=71, velocity=90, time=0),\n",
       "   Message('note_on', channel=6, note=71, velocity=0, time=120),\n",
       "   Message('note_on', channel=6, note=73, velocity=90, time=0),\n",
       "   Message('note_on', channel=6, note=73, velocity=0, time=300),\n",
       "   Message('note_on', channel=6, note=76, velocity=90, time=0),\n",
       "   Message('note_on', channel=6, note=76, velocity=0, time=60),\n",
       "   Message('note_on', channel=6, note=76, velocity=90, time=0),\n",
       "   Message('note_on', channel=6, note=76, velocity=0, time=120),\n",
       "   Message('note_on', channel=6, note=73, velocity=90, time=0),\n",
       "   Message('note_on', channel=6, note=73, velocity=0, time=60),\n",
       "   Message('note_on', channel=6, note=76, velocity=90, time=0),\n",
       "   Message('note_on', channel=6, note=76, velocity=0, time=60),\n",
       "   Message('note_on', channel=6, note=80, velocity=90, time=0),\n",
       "   Message('note_on', channel=6, note=80, velocity=0, time=120),\n",
       "   Message('note_on', channel=6, note=78, velocity=90, time=0),\n",
       "   Message('note_on', channel=6, note=78, velocity=0, time=120),\n",
       "   Message('note_on', channel=6, note=76, velocity=90, time=0),\n",
       "   Message('note_on', channel=6, note=78, velocity=90, time=30),\n",
       "   Message('note_on', channel=6, note=78, velocity=0, time=30),\n",
       "   Message('note_on', channel=6, note=76, velocity=0, time=0),\n",
       "   Message('note_on', channel=6, note=76, velocity=90, time=0),\n",
       "   Message('note_on', channel=6, note=76, velocity=0, time=360),\n",
       "   MetaMessage('end_of_track', time=0)]),\n",
       " MidiTrack([\n",
       "   MetaMessage('midi_port', port=0, time=0),\n",
       "   MetaMessage('track_name', name='SAXOPHONE', time=0),\n",
       "   Message('program_change', channel=7, program=66, time=0),\n",
       "   Message('control_change', channel=7, control=7, value=115, time=0),\n",
       "   Message('control_change', channel=7, control=10, value=64, time=0),\n",
       "   Message('note_on', channel=7, note=80, velocity=90, time=30120),\n",
       "   Message('note_on', channel=7, note=80, velocity=0, time=30),\n",
       "   Message('note_on', channel=7, note=78, velocity=90, time=0),\n",
       "   Message('note_on', channel=7, note=78, velocity=0, time=30),\n",
       "   Message('note_on', channel=7, note=76, velocity=90, time=0),\n",
       "   Message('note_on', channel=7, note=76, velocity=0, time=30),\n",
       "   Message('note_on', channel=7, note=75, velocity=90, time=0),\n",
       "   Message('note_on', channel=7, note=75, velocity=0, time=30),\n",
       "   Message('note_on', channel=7, note=76, velocity=90, time=0),\n",
       "   Message('note_on', channel=7, note=78, velocity=90, time=296),\n",
       "   Message('note_on', channel=7, note=76, velocity=0, time=4),\n",
       "   Message('note_on', channel=7, note=76, velocity=90, time=108),\n",
       "   Message('note_on', channel=7, note=78, velocity=0, time=2),\n",
       "   Message('note_on', channel=7, note=76, velocity=0, time=10),\n",
       "   Message('note_on', channel=7, note=76, velocity=90, time=1),\n",
       "   Message('note_on', channel=7, note=76, velocity=0, time=12),\n",
       "   Message('note_on', channel=7, note=73, velocity=90, time=10),\n",
       "   Message('note_on', channel=7, note=73, velocity=0, time=20),\n",
       "   Message('note_on', channel=7, note=76, velocity=90, time=17),\n",
       "   Message('note_on', channel=7, note=73, velocity=90, time=210),\n",
       "   Message('note_on', channel=7, note=76, velocity=0, time=13),\n",
       "   Message('note_on', channel=7, note=73, velocity=0, time=8),\n",
       "   Message('note_on', channel=7, note=76, velocity=90, time=9),\n",
       "   Message('note_on', channel=7, note=76, velocity=0, time=200),\n",
       "   Message('note_on', channel=7, note=81, velocity=90, time=130),\n",
       "   Message('note_on', channel=7, note=81, velocity=0, time=30),\n",
       "   Message('note_on', channel=7, note=80, velocity=90, time=0),\n",
       "   Message('note_on', channel=7, note=80, velocity=0, time=30),\n",
       "   Message('note_on', channel=7, note=78, velocity=90, time=0),\n",
       "   Message('note_on', channel=7, note=78, velocity=0, time=30),\n",
       "   Message('note_on', channel=7, note=76, velocity=90, time=0),\n",
       "   Message('note_on', channel=7, note=76, velocity=0, time=30),\n",
       "   Message('note_on', channel=7, note=78, velocity=90, time=0),\n",
       "   Message('note_on', channel=7, note=78, velocity=0, time=30),\n",
       "   Message('note_on', channel=7, note=73, velocity=90, time=0),\n",
       "   Message('note_on', channel=7, note=73, velocity=0, time=30),\n",
       "   Message('note_on', channel=7, note=71, velocity=90, time=0),\n",
       "   Message('note_on', channel=7, note=71, velocity=0, time=30),\n",
       "   Message('note_on', channel=7, note=73, velocity=90, time=0),\n",
       "   Message('note_on', channel=7, note=73, velocity=0, time=30),\n",
       "   Message('note_on', channel=7, note=71, velocity=90, time=0),\n",
       "   Message('note_on', channel=7, note=71, velocity=0, time=30),\n",
       "   Message('note_on', channel=7, note=69, velocity=90, time=0),\n",
       "   Message('note_on', channel=7, note=69, velocity=0, time=30),\n",
       "   Message('note_on', channel=7, note=68, velocity=90, time=0),\n",
       "   Message('note_on', channel=7, note=68, velocity=0, time=30),\n",
       "   Message('note_on', channel=7, note=66, velocity=90, time=0),\n",
       "   Message('note_on', channel=7, note=66, velocity=0, time=30),\n",
       "   Message('note_on', channel=7, note=64, velocity=90, time=0),\n",
       "   Message('note_on', channel=7, note=64, velocity=0, time=30),\n",
       "   Message('note_on', channel=7, note=80, velocity=90, time=3),\n",
       "   Message('note_on', channel=7, note=80, velocity=0, time=107),\n",
       "   Message('note_on', channel=7, note=78, velocity=90, time=6),\n",
       "   Message('note_on', channel=7, note=76, velocity=90, time=67),\n",
       "   Message('note_on', channel=7, note=78, velocity=0, time=4),\n",
       "   Message('note_on', channel=7, note=76, velocity=0, time=17),\n",
       "   Message('note_on', channel=7, note=73, velocity=90, time=1),\n",
       "   Message('note_on', channel=7, note=73, velocity=0, time=17),\n",
       "   Message('note_on', channel=7, note=76, velocity=90, time=13),\n",
       "   Message('note_on', channel=7, note=76, velocity=0, time=229),\n",
       "   MetaMessage('end_of_track', time=0)]),\n",
       " MidiTrack([\n",
       "   MetaMessage('midi_port', port=0, time=0),\n",
       "   MetaMessage('track_name', name='BELLS', time=0),\n",
       "   Message('program_change', channel=8, program=14, time=0),\n",
       "   Message('control_change', channel=8, control=7, value=63, time=0),\n",
       "   Message('control_change', channel=8, control=10, value=64, time=0),\n",
       "   Message('note_on', channel=8, note=112, velocity=90, time=36035),\n",
       "   Message('note_on', channel=8, note=111, velocity=90, time=45),\n",
       "   Message('note_on', channel=8, note=112, velocity=0, time=2),\n",
       "   Message('note_on', channel=8, note=109, velocity=90, time=21),\n",
       "   Message('note_on', channel=8, note=111, velocity=0, time=2),\n",
       "   Message('note_on', channel=8, note=109, velocity=0, time=15),\n",
       "   Message('note_on', channel=8, note=107, velocity=90, time=6),\n",
       "   Message('note_on', channel=8, note=107, velocity=0, time=14),\n",
       "   Message('note_on', channel=8, note=105, velocity=90, time=5),\n",
       "   Message('note_on', channel=8, note=105, velocity=0, time=12),\n",
       "   Message('note_on', channel=8, note=104, velocity=90, time=4),\n",
       "   Message('note_on', channel=8, note=104, velocity=0, time=11),\n",
       "   Message('note_on', channel=8, note=102, velocity=90, time=5),\n",
       "   Message('note_on', channel=8, note=102, velocity=0, time=12),\n",
       "   Message('note_on', channel=8, note=100, velocity=90, time=2),\n",
       "   Message('note_on', channel=8, note=100, velocity=0, time=14),\n",
       "   Message('note_on', channel=8, note=99, velocity=90, time=0),\n",
       "   Message('note_on', channel=8, note=99, velocity=0, time=13),\n",
       "   Message('note_on', channel=8, note=97, velocity=90, time=1),\n",
       "   Message('note_on', channel=8, note=97, velocity=0, time=14),\n",
       "   Message('note_on', channel=8, note=95, velocity=90, time=0),\n",
       "   Message('note_on', channel=8, note=93, velocity=90, time=17),\n",
       "   Message('note_on', channel=8, note=95, velocity=0, time=2),\n",
       "   Message('note_on', channel=8, note=92, velocity=90, time=15),\n",
       "   Message('note_on', channel=8, note=93, velocity=0, time=2),\n",
       "   Message('note_on', channel=8, note=90, velocity=90, time=13),\n",
       "   Message('note_on', channel=8, note=92, velocity=0, time=2),\n",
       "   Message('note_on', channel=8, note=88, velocity=90, time=12),\n",
       "   Message('note_on', channel=8, note=90, velocity=0, time=2),\n",
       "   Message('note_on', channel=8, note=87, velocity=90, time=15),\n",
       "   Message('note_on', channel=8, note=88, velocity=0, time=5),\n",
       "   Message('note_on', channel=8, note=85, velocity=90, time=15),\n",
       "   Message('note_on', channel=8, note=87, velocity=0, time=5),\n",
       "   Message('note_on', channel=8, note=83, velocity=90, time=15),\n",
       "   Message('note_on', channel=8, note=85, velocity=0, time=4),\n",
       "   Message('note_on', channel=8, note=81, velocity=90, time=11),\n",
       "   Message('note_on', channel=8, note=83, velocity=0, time=4),\n",
       "   Message('note_on', channel=8, note=80, velocity=90, time=9),\n",
       "   Message('note_on', channel=8, note=81, velocity=0, time=3),\n",
       "   Message('note_on', channel=8, note=80, velocity=0, time=9),\n",
       "   Message('note_on', channel=8, note=78, velocity=90, time=2),\n",
       "   Message('note_on', channel=8, note=78, velocity=0, time=8),\n",
       "   Message('note_on', channel=8, note=76, velocity=90, time=2),\n",
       "   Message('note_on', channel=8, note=76, velocity=0, time=9),\n",
       "   Message('note_on', channel=8, note=75, velocity=90, time=1),\n",
       "   Message('note_on', channel=8, note=75, velocity=0, time=4),\n",
       "   Message('note_on', channel=8, note=73, velocity=90, time=16),\n",
       "   Message('note_on', channel=8, note=73, velocity=0, time=15),\n",
       "   Message('note_on', channel=8, note=71, velocity=90, time=0),\n",
       "   Message('note_on', channel=8, note=71, velocity=0, time=15),\n",
       "   Message('note_on', channel=8, note=73, velocity=90, time=0),\n",
       "   Message('note_on', channel=8, note=73, velocity=0, time=15),\n",
       "   Message('note_on', channel=8, note=112, velocity=90, time=3900),\n",
       "   Message('note_on', channel=8, note=111, velocity=90, time=31),\n",
       "   Message('note_on', channel=8, note=112, velocity=0, time=9),\n",
       "   Message('note_on', channel=8, note=109, velocity=90, time=11),\n",
       "   Message('note_on', channel=8, note=111, velocity=0, time=11),\n",
       "   Message('note_on', channel=8, note=107, velocity=90, time=12),\n",
       "   Message('note_on', channel=8, note=109, velocity=0, time=11),\n",
       "   Message('note_on', channel=8, note=105, velocity=90, time=9),\n",
       "   Message('note_on', channel=8, note=107, velocity=0, time=11),\n",
       "   Message('note_on', channel=8, note=104, velocity=90, time=10),\n",
       "   Message('note_on', channel=8, note=105, velocity=0, time=12),\n",
       "   Message('note_on', channel=8, note=102, velocity=90, time=13),\n",
       "   Message('note_on', channel=8, note=104, velocity=0, time=11),\n",
       "   Message('note_on', channel=8, note=100, velocity=90, time=9),\n",
       "   Message('note_on', channel=8, note=102, velocity=0, time=12),\n",
       "   Message('note_on', channel=8, note=99, velocity=90, time=6),\n",
       "   Message('note_on', channel=8, note=100, velocity=0, time=10),\n",
       "   Message('note_on', channel=8, note=97, velocity=90, time=8),\n",
       "   Message('note_on', channel=8, note=99, velocity=0, time=11),\n",
       "   Message('note_on', channel=8, note=95, velocity=90, time=6),\n",
       "   Message('note_on', channel=8, note=97, velocity=0, time=11),\n",
       "   Message('note_on', channel=8, note=93, velocity=90, time=6),\n",
       "   Message('note_on', channel=8, note=95, velocity=0, time=9),\n",
       "   Message('note_on', channel=8, note=92, velocity=90, time=6),\n",
       "   Message('note_on', channel=8, note=93, velocity=0, time=10),\n",
       "   Message('note_on', channel=8, note=90, velocity=90, time=7),\n",
       "   Message('note_on', channel=8, note=92, velocity=0, time=8),\n",
       "   Message('note_on', channel=8, note=88, velocity=90, time=5),\n",
       "   Message('note_on', channel=8, note=90, velocity=0, time=7),\n",
       "   Message('note_on', channel=8, note=87, velocity=90, time=4),\n",
       "   Message('note_on', channel=8, note=88, velocity=0, time=7),\n",
       "   Message('note_on', channel=8, note=85, velocity=90, time=3),\n",
       "   Message('note_on', channel=8, note=87, velocity=0, time=7),\n",
       "   Message('note_on', channel=8, note=83, velocity=90, time=4),\n",
       "   Message('note_on', channel=8, note=85, velocity=0, time=11),\n",
       "   Message('note_on', channel=8, note=81, velocity=90, time=8),\n",
       "   Message('note_on', channel=8, note=83, velocity=0, time=12),\n",
       "   Message('note_on', channel=8, note=80, velocity=90, time=4),\n",
       "   Message('note_on', channel=8, note=81, velocity=0, time=9),\n",
       "   Message('note_on', channel=8, note=78, velocity=90, time=2),\n",
       "   Message('note_on', channel=8, note=80, velocity=0, time=7),\n",
       "   Message('note_on', channel=8, note=76, velocity=90, time=2),\n",
       "   Message('note_on', channel=8, note=78, velocity=0, time=7),\n",
       "   Message('note_on', channel=8, note=75, velocity=90, time=2),\n",
       "   Message('note_on', channel=8, note=76, velocity=0, time=8),\n",
       "   Message('note_on', channel=8, note=73, velocity=90, time=5),\n",
       "   Message('note_on', channel=8, note=75, velocity=0, time=7),\n",
       "   Message('note_on', channel=8, note=71, velocity=90, time=4),\n",
       "   Message('note_on', channel=8, note=73, velocity=0, time=6),\n",
       "   Message('note_on', channel=8, note=69, velocity=90, time=3),\n",
       "   Message('note_on', channel=8, note=71, velocity=0, time=6),\n",
       "   Message('note_on', channel=8, note=69, velocity=0, time=7),\n",
       "   MetaMessage('end_of_track', time=0)]),\n",
       " MidiTrack([\n",
       "   MetaMessage('midi_port', port=0, time=0),\n",
       "   MetaMessage('track_name', name='WAVE', time=0),\n",
       "   Message('program_change', channel=10, program=122, time=0),\n",
       "   Message('control_change', channel=10, control=7, value=65, time=0),\n",
       "   Message('control_change', channel=10, control=10, value=64, time=0),\n",
       "   Message('note_on', channel=10, note=71, velocity=90, time=36623),\n",
       "   Message('note_on', channel=10, note=71, velocity=0, time=280),\n",
       "   Message('note_on', channel=10, note=75, velocity=90, time=243),\n",
       "   Message('note_on', channel=10, note=75, velocity=0, time=526),\n",
       "   Message('note_on', channel=10, note=68, velocity=90, time=246),\n",
       "   Message('note_on', channel=10, note=68, velocity=0, time=379),\n",
       "   Message('note_on', channel=10, note=76, velocity=90, time=238),\n",
       "   Message('note_on', channel=10, note=76, velocity=0, time=389),\n",
       "   Message('note_on', channel=10, note=68, velocity=90, time=142),\n",
       "   Message('note_on', channel=10, note=68, velocity=0, time=460),\n",
       "   Message('note_on', channel=10, note=76, velocity=90, time=251),\n",
       "   Message('note_on', channel=10, note=76, velocity=0, time=465),\n",
       "   Message('note_on', channel=10, note=68, velocity=90, time=159),\n",
       "   Message('note_on', channel=10, note=68, velocity=0, time=449),\n",
       "   MetaMessage('end_of_track', time=0)])]"
      ]
     },
     "execution_count": 6,
     "metadata": {},
     "output_type": "execute_result"
    }
   ],
   "source": [
    "mid.tracks"
   ]
  },
  {
   "cell_type": "code",
   "execution_count": 7,
   "id": "6e670290-93fb-4502-ac8f-907d19c9bb2d",
   "metadata": {},
   "outputs": [
    {
     "name": "stdout",
     "output_type": "stream",
     "text": [
      "MidiTrack([\n",
      "  MetaMessage('track_name', name='The Day We Find Love -- Wp15b@ub.net.id', time=0),\n",
      "  MetaMessage('track_name', name='911', time=0),\n",
      "  MetaMessage('copyright', text='Copyright © 1997 by Belinda Hadiwidjaja', time=0),\n",
      "  MetaMessage('text', text='Belinda Hadiwidjaja', time=0),\n",
      "  MetaMessage('text', text='*********************************\\n', time=0),\n",
      "  MetaMessage('text', text='THE DAY WE FIND LOVE \\n', time=0),\n",
      "  MetaMessage('text', text='                 by:\\n', time=0),\n",
      "  MetaMessage('text', text='              9   1   1 \\n', time=0),\n",
      "  MetaMessage('text', text='**********************************\\n', time=0),\n",
      "  MetaMessage('text', text='Sequencer:\\n', time=0),\n",
      "  MetaMessage('text', text='Belinda Hadiwidjaja \\n', time=0),\n",
      "  MetaMessage('text', text='wp15b@ub.net.id\\n', time=0),\n",
      "  MetaMessage('text', text='Jakarta, Indonesia\\n', time=0),\n",
      "  MetaMessage('text', text='CakeWalk Pro Audio 5\\n', time=0),\n",
      "  MetaMessage('smpte_offset', frame_rate=25, hours=32, minutes=0, seconds=3, frames=0, sub_frames=0, time=0),\n",
      "  MetaMessage('time_signature', numerator=4, denominator=4, clocks_per_click=24, notated_32nd_notes_per_beat=8, time=0),\n",
      "  MetaMessage('key_signature', key='D', time=0),\n",
      "  MetaMessage('set_tempo', tempo=731707, time=0),\n",
      "  MetaMessage('marker', text='INTRO', time=0),\n",
      "  MetaMessage('marker', text='THEME1', time=4320),\n",
      "  MetaMessage('marker', text='REFREN 1', time=8160),\n",
      "  MetaMessage('marker', text='THEME 2', time=4800),\n",
      "  MetaMessage('marker', text='REFREN 2', time=8160),\n",
      "  MetaMessage('key_signature', key='E', time=4800),\n",
      "  MetaMessage('marker', text='BRIGDE', time=0),\n",
      "  MetaMessage('marker', text='ENDING', time=6240),\n",
      "  MetaMessage('set_tempo', tempo=740741, time=3264),\n",
      "  MetaMessage('set_tempo', tempo=750000, time=28),\n",
      "  MetaMessage('set_tempo', tempo=759494, time=28),\n",
      "  MetaMessage('set_tempo', tempo=769231, time=28),\n",
      "  MetaMessage('set_tempo', tempo=779221, time=28),\n",
      "  MetaMessage('set_tempo', tempo=789474, time=28),\n",
      "  MetaMessage('set_tempo', tempo=800000, time=28),\n",
      "  MetaMessage('set_tempo', tempo=810811, time=28),\n",
      "  MetaMessage('set_tempo', tempo=821918, time=28),\n",
      "  MetaMessage('set_tempo', tempo=833333, time=28),\n",
      "  MetaMessage('set_tempo', tempo=845070, time=28),\n",
      "  MetaMessage('set_tempo', tempo=857143, time=28),\n",
      "  MetaMessage('set_tempo', tempo=869565, time=28),\n",
      "  MetaMessage('set_tempo', tempo=882353, time=28),\n",
      "  MetaMessage('set_tempo', tempo=895522, time=28),\n",
      "  MetaMessage('set_tempo', tempo=909091, time=28),\n",
      "  MetaMessage('set_tempo', tempo=923077, time=28),\n",
      "  MetaMessage('set_tempo', tempo=937500, time=26),\n",
      "  MetaMessage('set_tempo', tempo=952381, time=28),\n",
      "  MetaMessage('set_tempo', tempo=967742, time=28),\n",
      "  MetaMessage('set_tempo', tempo=983607, time=28),\n",
      "  MetaMessage('set_tempo', tempo=1000000, time=28),\n",
      "  MetaMessage('set_tempo', tempo=1016949, time=28),\n",
      "  MetaMessage('set_tempo', tempo=1034483, time=28),\n",
      "  MetaMessage('set_tempo', tempo=1052632, time=28),\n",
      "  MetaMessage('set_tempo', tempo=1071429, time=28),\n",
      "  MetaMessage('set_tempo', tempo=1090909, time=28),\n",
      "  MetaMessage('set_tempo', tempo=1111111, time=28),\n",
      "  MetaMessage('set_tempo', tempo=1132075, time=28),\n",
      "  MetaMessage('set_tempo', tempo=1153846, time=28),\n",
      "  MetaMessage('set_tempo', tempo=1176471, time=28),\n",
      "  MetaMessage('set_tempo', tempo=1200000, time=28),\n",
      "  MetaMessage('set_tempo', tempo=1224490, time=28),\n",
      "  MetaMessage('set_tempo', tempo=1250000, time=26),\n",
      "  MetaMessage('end_of_track', time=0)])\n"
     ]
    }
   ],
   "source": [
    "print(mid.tracks[0])"
   ]
  },
  {
   "cell_type": "code",
   "execution_count": 8,
   "id": "29798458-6675-4956-8cc2-b68b0478b51b",
   "metadata": {
    "collapsed": true,
    "jupyter": {
     "outputs_hidden": true
    },
    "tags": []
   },
   "outputs": [
    {
     "name": "stdout",
     "output_type": "stream",
     "text": [
      "MidiTrack([\n",
      "  MetaMessage('midi_port', port=0, time=0),\n",
      "  MetaMessage('track_name', name='KLENTENGAN', time=0),\n",
      "  Message('program_change', channel=0, program=98, time=0),\n",
      "  Message('control_change', channel=0, control=7, value=100, time=0),\n",
      "  Message('control_change', channel=0, control=10, value=64, time=0),\n",
      "  Message('note_on', channel=0, note=61, velocity=90, time=720),\n",
      "  Message('note_on', channel=0, note=61, velocity=0, time=60),\n",
      "  Message('note_on', channel=0, note=62, velocity=90, time=6),\n",
      "  Message('note_on', channel=0, note=62, velocity=0, time=60),\n",
      "  Message('note_on', channel=0, note=69, velocity=90, time=0),\n",
      "  Message('note_on', channel=0, note=69, velocity=0, time=60),\n",
      "  Message('note_on', channel=0, note=61, velocity=90, time=0),\n",
      "  Message('note_on', channel=0, note=61, velocity=0, time=120),\n",
      "  Message('note_on', channel=0, note=62, velocity=90, time=0),\n",
      "  Message('note_on', channel=0, note=62, velocity=0, time=180),\n",
      "  Message('note_on', channel=0, note=61, velocity=90, time=0),\n",
      "  Message('note_on', channel=0, note=61, velocity=0, time=60),\n",
      "  Message('note_on', channel=0, note=62, velocity=90, time=0),\n",
      "  Message('note_on', channel=0, note=62, velocity=0, time=60),\n",
      "  Message('note_on', channel=0, note=69, velocity=90, time=0),\n",
      "  Message('note_on', channel=0, note=69, velocity=0, time=60),\n",
      "  Message('note_on', channel=0, note=57, velocity=90, time=0),\n",
      "  Message('note_on', channel=0, note=57, velocity=0, time=120),\n",
      "  Message('note_on', channel=0, note=59, velocity=90, time=0),\n",
      "  Message('note_on', channel=0, note=59, velocity=0, time=360),\n",
      "  Message('note_on', channel=0, note=61, velocity=90, time=774),\n",
      "  Message('note_on', channel=0, note=61, velocity=0, time=60),\n",
      "  Message('note_on', channel=0, note=62, velocity=90, time=6),\n",
      "  Message('note_on', channel=0, note=62, velocity=0, time=60),\n",
      "  Message('note_on', channel=0, note=69, velocity=90, time=0),\n",
      "  Message('note_on', channel=0, note=69, velocity=0, time=60),\n",
      "  Message('note_on', channel=0, note=61, velocity=90, time=0),\n",
      "  Message('note_on', channel=0, note=61, velocity=0, time=120),\n",
      "  Message('note_on', channel=0, note=62, velocity=90, time=0),\n",
      "  Message('note_on', channel=0, note=62, velocity=0, time=180),\n",
      "  Message('note_on', channel=0, note=61, velocity=90, time=0),\n",
      "  Message('note_on', channel=0, note=61, velocity=0, time=60),\n",
      "  Message('note_on', channel=0, note=62, velocity=90, time=0),\n",
      "  Message('note_on', channel=0, note=62, velocity=0, time=60),\n",
      "  Message('note_on', channel=0, note=69, velocity=90, time=0),\n",
      "  Message('note_on', channel=0, note=69, velocity=0, time=60),\n",
      "  Message('note_on', channel=0, note=57, velocity=90, time=0),\n",
      "  Message('note_on', channel=0, note=57, velocity=0, time=120),\n",
      "  Message('note_on', channel=0, note=59, velocity=90, time=0),\n",
      "  Message('note_on', channel=0, note=59, velocity=0, time=360),\n",
      "  Message('note_on', channel=0, note=61, velocity=90, time=8934),\n",
      "  Message('note_on', channel=0, note=61, velocity=0, time=60),\n",
      "  Message('note_on', channel=0, note=62, velocity=90, time=0),\n",
      "  Message('note_on', channel=0, note=62, velocity=0, time=60),\n",
      "  Message('note_on', channel=0, note=69, velocity=90, time=0),\n",
      "  Message('note_on', channel=0, note=69, velocity=0, time=60),\n",
      "  Message('note_on', channel=0, note=61, velocity=90, time=0),\n",
      "  Message('note_on', channel=0, note=61, velocity=0, time=60),\n",
      "  Message('note_on', channel=0, note=62, velocity=90, time=60),\n",
      "  Message('note_on', channel=0, note=62, velocity=0, time=60),\n",
      "  Message('note_on', channel=0, note=61, velocity=90, time=120),\n",
      "  Message('note_on', channel=0, note=61, velocity=0, time=60),\n",
      "  Message('note_on', channel=0, note=62, velocity=90, time=0),\n",
      "  Message('note_on', channel=0, note=62, velocity=0, time=60),\n",
      "  Message('note_on', channel=0, note=69, velocity=90, time=0),\n",
      "  Message('note_on', channel=0, note=69, velocity=0, time=60),\n",
      "  Message('note_on', channel=0, note=57, velocity=90, time=0),\n",
      "  Message('note_on', channel=0, note=57, velocity=0, time=120),\n",
      "  Message('note_on', channel=0, note=59, velocity=90, time=0),\n",
      "  Message('note_on', channel=0, note=59, velocity=0, time=180),\n",
      "  Message('note_on', channel=0, note=59, velocity=90, time=60),\n",
      "  Message('note_on', channel=0, note=59, velocity=0, time=60),\n",
      "  Message('note_on', channel=0, note=62, velocity=90, time=0),\n",
      "  Message('note_on', channel=0, note=62, velocity=0, time=60),\n",
      "  Message('note_on', channel=0, note=67, velocity=90, time=0),\n",
      "  Message('note_on', channel=0, note=67, velocity=0, time=120),\n",
      "  Message('note_on', channel=0, note=66, velocity=90, time=0),\n",
      "  Message('note_on', channel=0, note=66, velocity=0, time=120),\n",
      "  Message('note_on', channel=0, note=62, velocity=90, time=0),\n",
      "  Message('note_on', channel=0, note=62, velocity=0, time=60),\n",
      "  Message('note_on', channel=0, note=59, velocity=90, time=60),\n",
      "  Message('note_on', channel=0, note=59, velocity=0, time=60),\n",
      "  Message('note_on', channel=0, note=57, velocity=90, time=60),\n",
      "  Message('note_on', channel=0, note=57, velocity=0, time=120),\n",
      "  Message('note_on', channel=0, note=61, velocity=90, time=180),\n",
      "  Message('note_on', channel=0, note=61, velocity=0, time=60),\n",
      "  Message('note_on', channel=0, note=62, velocity=90, time=0),\n",
      "  Message('note_on', channel=0, note=62, velocity=0, time=60),\n",
      "  Message('note_on', channel=0, note=69, velocity=90, time=0),\n",
      "  Message('note_on', channel=0, note=69, velocity=0, time=60),\n",
      "  Message('note_on', channel=0, note=61, velocity=90, time=0),\n",
      "  Message('note_on', channel=0, note=61, velocity=0, time=120),\n",
      "  Message('note_on', channel=0, note=62, velocity=90, time=0),\n",
      "  Message('note_on', channel=0, note=62, velocity=0, time=120),\n",
      "  Message('note_on', channel=0, note=61, velocity=90, time=60),\n",
      "  Message('note_on', channel=0, note=61, velocity=0, time=60),\n",
      "  Message('note_on', channel=0, note=62, velocity=90, time=0),\n",
      "  Message('note_on', channel=0, note=62, velocity=0, time=60),\n",
      "  Message('note_on', channel=0, note=69, velocity=90, time=0),\n",
      "  Message('note_on', channel=0, note=69, velocity=0, time=60),\n",
      "  Message('note_on', channel=0, note=57, velocity=90, time=0),\n",
      "  Message('note_on', channel=0, note=57, velocity=0, time=120),\n",
      "  Message('note_on', channel=0, note=59, velocity=90, time=0),\n",
      "  Message('note_on', channel=0, note=59, velocity=0, time=240),\n",
      "  Message('note_on', channel=0, note=59, velocity=90, time=0),\n",
      "  Message('note_on', channel=0, note=59, velocity=0, time=60),\n",
      "  Message('note_on', channel=0, note=62, velocity=90, time=0),\n",
      "  Message('note_on', channel=0, note=62, velocity=0, time=60),\n",
      "  Message('note_on', channel=0, note=67, velocity=90, time=0),\n",
      "  Message('note_on', channel=0, note=67, velocity=0, time=120),\n",
      "  Message('note_on', channel=0, note=66, velocity=90, time=0),\n",
      "  Message('note_on', channel=0, note=66, velocity=0, time=120),\n",
      "  Message('note_on', channel=0, note=62, velocity=90, time=0),\n",
      "  Message('note_on', channel=0, note=62, velocity=0, time=120),\n",
      "  Message('note_on', channel=0, note=59, velocity=90, time=0),\n",
      "  Message('note_on', channel=0, note=59, velocity=0, time=120),\n",
      "  Message('note_on', channel=0, note=57, velocity=90, time=0),\n",
      "  Message('note_on', channel=0, note=57, velocity=0, time=360),\n",
      "  Message('note_on', channel=0, note=61, velocity=90, time=9060),\n",
      "  Message('note_on', channel=0, note=61, velocity=0, time=60),\n",
      "  Message('note_on', channel=0, note=62, velocity=90, time=0),\n",
      "  Message('note_on', channel=0, note=62, velocity=0, time=60),\n",
      "  Message('note_on', channel=0, note=69, velocity=90, time=0),\n",
      "  Message('note_on', channel=0, note=69, velocity=0, time=60),\n",
      "  Message('note_on', channel=0, note=61, velocity=90, time=0),\n",
      "  Message('note_on', channel=0, note=61, velocity=0, time=60),\n",
      "  Message('note_on', channel=0, note=62, velocity=90, time=60),\n",
      "  Message('note_on', channel=0, note=62, velocity=0, time=60),\n",
      "  Message('note_on', channel=0, note=61, velocity=90, time=120),\n",
      "  Message('note_on', channel=0, note=61, velocity=0, time=60),\n",
      "  Message('note_on', channel=0, note=62, velocity=90, time=0),\n",
      "  Message('note_on', channel=0, note=62, velocity=0, time=60),\n",
      "  Message('note_on', channel=0, note=69, velocity=90, time=0),\n",
      "  Message('note_on', channel=0, note=69, velocity=0, time=60),\n",
      "  Message('note_on', channel=0, note=57, velocity=90, time=0),\n",
      "  Message('note_on', channel=0, note=57, velocity=0, time=120),\n",
      "  Message('note_on', channel=0, note=59, velocity=90, time=0),\n",
      "  Message('note_on', channel=0, note=59, velocity=0, time=180),\n",
      "  Message('note_on', channel=0, note=59, velocity=90, time=60),\n",
      "  Message('note_on', channel=0, note=59, velocity=0, time=60),\n",
      "  Message('note_on', channel=0, note=62, velocity=90, time=0),\n",
      "  Message('note_on', channel=0, note=62, velocity=0, time=60),\n",
      "  Message('note_on', channel=0, note=67, velocity=90, time=0),\n",
      "  Message('note_on', channel=0, note=67, velocity=0, time=120),\n",
      "  Message('note_on', channel=0, note=66, velocity=90, time=0),\n",
      "  Message('note_on', channel=0, note=66, velocity=0, time=120),\n",
      "  Message('note_on', channel=0, note=62, velocity=90, time=0),\n",
      "  Message('note_on', channel=0, note=62, velocity=0, time=60),\n",
      "  Message('note_on', channel=0, note=59, velocity=90, time=60),\n",
      "  Message('note_on', channel=0, note=59, velocity=0, time=60),\n",
      "  Message('note_on', channel=0, note=57, velocity=90, time=60),\n",
      "  Message('note_on', channel=0, note=57, velocity=0, time=120),\n",
      "  Message('note_on', channel=0, note=61, velocity=90, time=180),\n",
      "  Message('note_on', channel=0, note=61, velocity=0, time=60),\n",
      "  Message('note_on', channel=0, note=62, velocity=90, time=0),\n",
      "  Message('note_on', channel=0, note=62, velocity=0, time=60),\n",
      "  Message('note_on', channel=0, note=69, velocity=90, time=0),\n",
      "  Message('note_on', channel=0, note=69, velocity=0, time=60),\n",
      "  Message('note_on', channel=0, note=61, velocity=90, time=0),\n",
      "  Message('note_on', channel=0, note=61, velocity=0, time=120),\n",
      "  Message('note_on', channel=0, note=62, velocity=90, time=0),\n",
      "  Message('note_on', channel=0, note=62, velocity=0, time=120),\n",
      "  Message('note_on', channel=0, note=61, velocity=90, time=60),\n",
      "  Message('note_on', channel=0, note=61, velocity=0, time=60),\n",
      "  Message('note_on', channel=0, note=62, velocity=90, time=0),\n",
      "  Message('note_on', channel=0, note=62, velocity=0, time=60),\n",
      "  Message('note_on', channel=0, note=69, velocity=90, time=0),\n",
      "  Message('note_on', channel=0, note=69, velocity=0, time=60),\n",
      "  Message('note_on', channel=0, note=57, velocity=90, time=0),\n",
      "  Message('note_on', channel=0, note=57, velocity=0, time=120),\n",
      "  Message('note_on', channel=0, note=59, velocity=90, time=0),\n",
      "  Message('note_on', channel=0, note=59, velocity=0, time=240),\n",
      "  Message('note_on', channel=0, note=59, velocity=90, time=0),\n",
      "  Message('note_on', channel=0, note=59, velocity=0, time=60),\n",
      "  Message('note_on', channel=0, note=62, velocity=90, time=0),\n",
      "  Message('note_on', channel=0, note=62, velocity=0, time=60),\n",
      "  Message('note_on', channel=0, note=67, velocity=90, time=0),\n",
      "  Message('note_on', channel=0, note=67, velocity=0, time=120),\n",
      "  Message('note_on', channel=0, note=66, velocity=90, time=0),\n",
      "  Message('note_on', channel=0, note=66, velocity=0, time=120),\n",
      "  Message('note_on', channel=0, note=62, velocity=90, time=0),\n",
      "  Message('note_on', channel=0, note=62, velocity=0, time=120),\n",
      "  Message('note_on', channel=0, note=59, velocity=90, time=0),\n",
      "  Message('note_on', channel=0, note=59, velocity=0, time=120),\n",
      "  Message('note_on', channel=0, note=57, velocity=90, time=0),\n",
      "  Message('note_on', channel=0, note=57, velocity=0, time=360),\n",
      "  Message('note_on', channel=0, note=63, velocity=90, time=900),\n",
      "  Message('note_on', channel=0, note=63, velocity=0, time=60),\n",
      "  Message('note_on', channel=0, note=64, velocity=90, time=6),\n",
      "  Message('note_on', channel=0, note=64, velocity=0, time=60),\n",
      "  Message('note_on', channel=0, note=71, velocity=90, time=0),\n",
      "  Message('note_on', channel=0, note=71, velocity=0, time=60),\n",
      "  Message('note_on', channel=0, note=63, velocity=90, time=0),\n",
      "  Message('note_on', channel=0, note=63, velocity=0, time=120),\n",
      "  Message('note_on', channel=0, note=64, velocity=90, time=0),\n",
      "  Message('note_on', channel=0, note=64, velocity=0, time=180),\n",
      "  Message('note_on', channel=0, note=63, velocity=90, time=0),\n",
      "  Message('note_on', channel=0, note=63, velocity=0, time=60),\n",
      "  Message('note_on', channel=0, note=64, velocity=90, time=0),\n",
      "  Message('note_on', channel=0, note=64, velocity=0, time=60),\n",
      "  Message('note_on', channel=0, note=71, velocity=90, time=0),\n",
      "  Message('note_on', channel=0, note=71, velocity=0, time=60),\n",
      "  Message('note_on', channel=0, note=59, velocity=90, time=0),\n",
      "  Message('note_on', channel=0, note=59, velocity=0, time=120),\n",
      "  Message('note_on', channel=0, note=61, velocity=90, time=0),\n",
      "  Message('note_on', channel=0, note=61, velocity=0, time=360),\n",
      "  Message('note_on', channel=0, note=80, velocity=90, time=4674),\n",
      "  Message('note_on', channel=0, note=80, velocity=0, time=60),\n",
      "  Message('note_on', channel=0, note=78, velocity=90, time=0),\n",
      "  Message('note_on', channel=0, note=78, velocity=0, time=60),\n",
      "  Message('note_on', channel=0, note=78, velocity=90, time=0),\n",
      "  Message('note_on', channel=0, note=78, velocity=0, time=60),\n",
      "  Message('note_on', channel=0, note=76, velocity=100, time=0),\n",
      "  Message('note_on', channel=0, note=76, velocity=0, time=240),\n",
      "  Message('note_on', channel=0, note=75, velocity=90, time=0),\n",
      "  Message('note_on', channel=0, note=75, velocity=0, time=60),\n",
      "  Message('note_on', channel=0, note=76, velocity=90, time=0),\n",
      "  Message('note_on', channel=0, note=76, velocity=0, time=60),\n",
      "  Message('note_on', channel=0, note=83, velocity=90, time=0),\n",
      "  Message('note_on', channel=0, note=83, velocity=0, time=60),\n",
      "  Message('note_on', channel=0, note=75, velocity=90, time=0),\n",
      "  Message('note_on', channel=0, note=75, velocity=0, time=120),\n",
      "  Message('note_on', channel=0, note=76, velocity=90, time=0),\n",
      "  Message('note_on', channel=0, note=76, velocity=0, time=120),\n",
      "  Message('note_on', channel=0, note=75, velocity=90, time=60),\n",
      "  Message('note_on', channel=0, note=75, velocity=0, time=60),\n",
      "  Message('note_on', channel=0, note=76, velocity=90, time=0),\n",
      "  Message('note_on', channel=0, note=76, velocity=0, time=60),\n",
      "  Message('note_on', channel=0, note=83, velocity=90, time=0),\n",
      "  Message('note_on', channel=0, note=83, velocity=0, time=60),\n",
      "  Message('note_on', channel=0, note=71, velocity=90, time=0),\n",
      "  Message('note_on', channel=0, note=71, velocity=0, time=120),\n",
      "  Message('note_on', channel=0, note=73, velocity=90, time=0),\n",
      "  Message('note_on', channel=0, note=73, velocity=0, time=120),\n",
      "  Message('note_on', channel=0, note=73, velocity=90, time=123),\n",
      "  Message('note_on', channel=0, note=73, velocity=0, time=52),\n",
      "  Message('note_on', channel=0, note=76, velocity=90, time=5),\n",
      "  Message('note_on', channel=0, note=76, velocity=0, time=60),\n",
      "  Message('note_on', channel=0, note=81, velocity=90, time=0),\n",
      "  Message('note_on', channel=0, note=81, velocity=0, time=120),\n",
      "  Message('note_on', channel=0, note=80, velocity=90, time=0),\n",
      "  Message('note_on', channel=0, note=80, velocity=0, time=60),\n",
      "  Message('note_on', channel=0, note=76, velocity=90, time=0),\n",
      "  Message('note_on', channel=0, note=76, velocity=0, time=60),\n",
      "  Message('note_on', channel=0, note=81, velocity=90, time=0),\n",
      "  Message('note_on', channel=0, note=81, velocity=0, time=120),\n",
      "  Message('note_on', channel=0, note=80, velocity=90, time=0),\n",
      "  Message('note_on', channel=0, note=80, velocity=0, time=60),\n",
      "  Message('note_on', channel=0, note=78, velocity=90, time=0),\n",
      "  Message('note_on', channel=0, note=78, velocity=0, time=60),\n",
      "  Message('note_on', channel=0, note=78, velocity=90, time=0),\n",
      "  Message('note_on', channel=0, note=78, velocity=0, time=60),\n",
      "  Message('note_on', channel=0, note=76, velocity=90, time=0),\n",
      "  Message('note_on', channel=0, note=76, velocity=0, time=120),\n",
      "  Message('note_on', channel=0, note=71, velocity=90, time=60),\n",
      "  Message('note_on', channel=0, note=71, velocity=0, time=60),\n",
      "  Message('note_on', channel=0, note=75, velocity=90, time=0),\n",
      "  Message('note_on', channel=0, note=75, velocity=0, time=60),\n",
      "  Message('note_on', channel=0, note=76, velocity=90, time=0),\n",
      "  Message('note_on', channel=0, note=76, velocity=0, time=60),\n",
      "  Message('note_on', channel=0, note=83, velocity=90, time=0),\n",
      "  Message('note_on', channel=0, note=83, velocity=0, time=60),\n",
      "  Message('note_on', channel=0, note=75, velocity=90, time=0),\n",
      "  Message('note_on', channel=0, note=75, velocity=0, time=120),\n",
      "  Message('note_on', channel=0, note=76, velocity=90, time=0),\n",
      "  Message('note_on', channel=0, note=76, velocity=0, time=180),\n",
      "  Message('note_on', channel=0, note=75, velocity=90, time=0),\n",
      "  Message('note_on', channel=0, note=75, velocity=0, time=60),\n",
      "  Message('note_on', channel=0, note=76, velocity=90, time=0),\n",
      "  Message('note_on', channel=0, note=76, velocity=0, time=60),\n",
      "  Message('note_on', channel=0, note=83, velocity=90, time=0),\n",
      "  Message('note_on', channel=0, note=83, velocity=0, time=60),\n",
      "  Message('note_on', channel=0, note=71, velocity=90, time=0),\n",
      "  Message('note_on', channel=0, note=71, velocity=0, time=120),\n",
      "  Message('note_on', channel=0, note=73, velocity=90, time=0),\n",
      "  Message('note_on', channel=0, note=73, velocity=0, time=300),\n",
      "  Message('note_on', channel=0, note=76, velocity=90, time=0),\n",
      "  Message('note_on', channel=0, note=76, velocity=0, time=60),\n",
      "  Message('note_on', channel=0, note=76, velocity=90, time=0),\n",
      "  Message('note_on', channel=0, note=76, velocity=0, time=120),\n",
      "  Message('note_on', channel=0, note=73, velocity=90, time=0),\n",
      "  Message('note_on', channel=0, note=73, velocity=0, time=60),\n",
      "  Message('note_on', channel=0, note=76, velocity=90, time=0),\n",
      "  Message('note_on', channel=0, note=76, velocity=0, time=60),\n",
      "  Message('note_on', channel=0, note=80, velocity=90, time=0),\n",
      "  Message('note_on', channel=0, note=80, velocity=0, time=120),\n",
      "  Message('note_on', channel=0, note=78, velocity=90, time=0),\n",
      "  Message('note_on', channel=0, note=78, velocity=0, time=120),\n",
      "  Message('note_on', channel=0, note=76, velocity=90, time=0),\n",
      "  Message('note_on', channel=0, note=78, velocity=90, time=30),\n",
      "  Message('note_on', channel=0, note=78, velocity=0, time=30),\n",
      "  Message('note_on', channel=0, note=76, velocity=0, time=0),\n",
      "  Message('note_on', channel=0, note=76, velocity=90, time=0),\n",
      "  Message('note_on', channel=0, note=76, velocity=0, time=360),\n",
      "  MetaMessage('end_of_track', time=0)])\n"
     ]
    }
   ],
   "source": [
    "print(mid.tracks[1])"
   ]
  },
  {
   "cell_type": "code",
   "execution_count": 9,
   "id": "67be7a2e-a8dc-4168-847b-43232ae01527",
   "metadata": {},
   "outputs": [
    {
     "data": {
      "text/plain": [
       "120"
      ]
     },
     "execution_count": 9,
     "metadata": {},
     "output_type": "execute_result"
    }
   ],
   "source": [
    "mid.ticks_per_beat"
   ]
  },
  {
   "cell_type": "code",
   "execution_count": 13,
   "id": "d3db9595-48f9-4fe1-9f56-ac6fe815a286",
   "metadata": {},
   "outputs": [
    {
     "data": {
      "text/plain": [
       "dict_keys(['filename', 'type', 'ticks_per_beat', 'charset', 'debug', 'clip', 'tracks'])"
      ]
     },
     "execution_count": 13,
     "metadata": {},
     "output_type": "execute_result"
    }
   ],
   "source": [
    "mid.__dict__.keys()"
   ]
  },
  {
   "cell_type": "code",
   "execution_count": 15,
   "id": "a4f1552b-d764-4291-b180-f36e54bb3610",
   "metadata": {},
   "outputs": [
    {
     "data": {
      "text/plain": [
       "1.2"
      ]
     },
     "execution_count": 15,
     "metadata": {},
     "output_type": "execute_result"
    }
   ],
   "source": [
    "mido.tick2second(tick=120, ticks_per_beat=120, tempo=1200000)"
   ]
  },
  {
   "cell_type": "code",
   "execution_count": null,
   "id": "5de39f38-c1c7-4d4c-9e9e-7b62da26cd0a",
   "metadata": {},
   "outputs": [],
   "source": []
  }
 ],
 "metadata": {
  "jupytext": {
   "formats": "ipynb,auto:light"
  },
  "kernelspec": {
   "display_name": "Python 3 (ipykernel)",
   "language": "python",
   "name": "python3"
  },
  "language_info": {
   "codemirror_mode": {
    "name": "ipython",
    "version": 3
   },
   "file_extension": ".py",
   "mimetype": "text/x-python",
   "name": "python",
   "nbconvert_exporter": "python",
   "pygments_lexer": "ipython3",
   "version": "3.9.11"
  }
 },
 "nbformat": 4,
 "nbformat_minor": 5
}
